0
SECTION
2
HEADER
9
$INSUNITS
70
1
0
ENDSEC
0
SECTION
2
TABLES
0
TABLE
2
LAYER
0
ENDTAB
0
ENDSEC
0
SECTION
2
ENTITIES
0
LINE
8
front_outsideCutPath
10
0
20
259
11
0
21
227
0
LINE
8
front_outsideCutPath
10
0
20
227
11
3
21
227
0
LINE
8
front_outsideCutPath
10
3
20
227
11
3
21
196.375
0
LINE
8
front_outsideCutPath
10
3
20
196.375
11
5.75
21
196.375
0
LINE
8
front_outsideCutPath
10
5.75
20
196.375
11
5.75
21
197.625
0
LINE
8
front_outsideCutPath
10
5.75
20
197.625
11
8
21
197.625
0
LINE
8
front_outsideCutPath
10
8
20
197.625
11
8
21
196.375
0
LINE
8
front_outsideCutPath
10
8
20
196.375
11
10.25
21
196.375
0
LINE
8
front_outsideCutPath
10
10.25
20
196.375
11
10.25
21
193.625
0
LINE
8
front_outsideCutPath
10
10.25
20
193.625
11
8
21
193.625
0
LINE
8
front_outsideCutPath
10
8
20
193.625
11
8
21
192.375
0
LINE
8
front_outsideCutPath
10
8
20
192.375
11
5.75
21
192.375
0
LINE
8
front_outsideCutPath
10
5.75
20
192.375
11
5.75
21
193.625
0
LINE
8
front_outsideCutPath
10
5.75
20
193.625
11
3
21
193.625
0
LINE
8
front_outsideCutPath
10
3
20
193.625
11
3
21
163
0
LINE
8
front_outsideCutPath
10
3
20
163
11
0
21
163
0
LINE
8
front_outsideCutPath
10
0
20
163
11
0
21
99
0
LINE
8
front_outsideCutPath
10
0
20
99
11
3
21
99
0
LINE
8
front_outsideCutPath
10
3
20
99
11
3
21
68.375
0
LINE
8
front_outsideCutPath
10
3
20
68.375
11
5.75
21
68.375
0
LINE
8
front_outsideCutPath
10
5.75
20
68.375
11
5.75
21
69.625
0
LINE
8
front_outsideCutPath
10
5.75
20
69.625
11
8
21
69.625
0
LINE
8
front_outsideCutPath
10
8
20
69.625
11
8
21
68.375
0
LINE
8
front_outsideCutPath
10
8
20
68.375
11
10.25
21
68.375
0
LINE
8
front_outsideCutPath
10
10.25
20
68.375
11
10.25
21
65.625
0
LINE
8
front_outsideCutPath
10
10.25
20
65.625
11
8
21
65.625
0
LINE
8
front_outsideCutPath
10
8
20
65.625
11
8
21
64.375
0
LINE
8
front_outsideCutPath
10
8
20
64.375
11
5.75
21
64.375
0
LINE
8
front_outsideCutPath
10
5.75
20
64.375
11
5.75
21
65.625
0
LINE
8
front_outsideCutPath
10
5.75
20
65.625
11
3
21
65.625
0
LINE
8
front_outsideCutPath
10
3
20
65.625
11
3
21
35
0
LINE
8
front_outsideCutPath
10
3
20
35
11
0
21
35
0
LINE
8
front_outsideCutPath
10
0
20
35
11
0
21
3
0
LINE
8
front_outsideCutPath
10
0
20
3
11
25.75
21
3
0
LINE
8
front_outsideCutPath
10
25.75
20
3
11
25.75
21
6
0
LINE
8
front_outsideCutPath
10
25.75
20
6
11
50.125
21
6
0
LINE
8
front_outsideCutPath
10
50.125
20
6
11
50.125
21
8.75
0
LINE
8
front_outsideCutPath
10
50.125
20
8.75
11
48.875
21
8.75
0
LINE
8
front_outsideCutPath
10
48.875
20
8.75
11
48.875
21
11
0
LINE
8
front_outsideCutPath
10
48.875
20
11
11
50.125
21
11
0
LINE
8
front_outsideCutPath
10
50.125
20
11
11
50.125
21
13.25
0
LINE
8
front_outsideCutPath
10
50.125
20
13.25
11
52.875
21
13.25
0
LINE
8
front_outsideCutPath
10
52.875
20
13.25
11
52.875
21
11
0
LINE
8
front_outsideCutPath
10
52.875
20
11
11
54.125
21
11
0
LINE
8
front_outsideCutPath
10
54.125
20
11
11
54.125
21
8.75
0
LINE
8
front_outsideCutPath
10
54.125
20
8.75
11
52.875
21
8.75
0
LINE
8
front_outsideCutPath
10
52.875
20
8.75
11
52.875
21
6
0
LINE
8
front_outsideCutPath
10
52.875
20
6
11
77.25
21
6
0
LINE
8
front_outsideCutPath
10
77.25
20
6
11
77.25
21
3
0
LINE
8
front_outsideCutPath
10
77.25
20
3
11
128.75
21
3
0
LINE
8
front_outsideCutPath
10
128.75
20
3
11
128.75
21
6
0
LINE
8
front_outsideCutPath
10
128.75
20
6
11
153.125
21
6
0
LINE
8
front_outsideCutPath
10
153.125
20
6
11
153.125
21
8.75
0
LINE
8
front_outsideCutPath
10
153.125
20
8.75
11
151.875
21
8.75
0
LINE
8
front_outsideCutPath
10
151.875
20
8.75
11
151.875
21
11
0
LINE
8
front_outsideCutPath
10
151.875
20
11
11
153.125
21
11
0
LINE
8
front_outsideCutPath
10
153.125
20
11
11
153.125
21
13.25
0
LINE
8
front_outsideCutPath
10
153.125
20
13.25
11
155.875
21
13.25
0
LINE
8
front_outsideCutPath
10
155.875
20
13.25
11
155.875
21
11
0
LINE
8
front_outsideCutPath
10
155.875
20
11
11
157.125
21
11
0
LINE
8
front_outsideCutPath
10
157.125
20
11
11
157.125
21
8.75
0
LINE
8
front_outsideCutPath
10
157.125
20
8.75
11
155.875
21
8.75
0
LINE
8
front_outsideCutPath
10
155.875
20
8.75
11
155.875
21
6
0
LINE
8
front_outsideCutPath
10
155.875
20
6
11
180.25
21
6
0
LINE
8
front_outsideCutPath
10
180.25
20
6
11
180.25
21
3
0
LINE
8
front_outsideCutPath
10
180.25
20
3
11
206
21
3
0
LINE
8
front_outsideCutPath
10
206
20
3
11
206
21
35
0
LINE
8
front_outsideCutPath
10
206
20
35
11
203
21
35
0
LINE
8
front_outsideCutPath
10
203
20
35
11
203
21
65.625
0
LINE
8
front_outsideCutPath
10
203
20
65.625
11
200.25
21
65.625
0
LINE
8
front_outsideCutPath
10
200.25
20
65.625
11
200.25
21
64.375
0
LINE
8
front_outsideCutPath
10
200.25
20
64.375
11
198
21
64.375
0
LINE
8
front_outsideCutPath
10
198
20
64.375
11
198
21
65.625
0
LINE
8
front_outsideCutPath
10
198
20
65.625
11
195.75
21
65.625
0
LINE
8
front_outsideCutPath
10
195.75
20
65.625
11
195.75
21
68.375
0
LINE
8
front_outsideCutPath
10
195.75
20
68.375
11
198
21
68.375
0
LINE
8
front_outsideCutPath
10
198
20
68.375
11
198
21
69.625
0
LINE
8
front_outsideCutPath
10
198
20
69.625
11
200.25
21
69.625
0
LINE
8
front_outsideCutPath
10
200.25
20
69.625
11
200.25
21
68.375
0
LINE
8
front_outsideCutPath
10
200.25
20
68.375
11
203
21
68.375
0
LINE
8
front_outsideCutPath
10
203
20
68.375
11
203
21
99
0
LINE
8
front_outsideCutPath
10
203
20
99
11
206
21
99
0
LINE
8
front_outsideCutPath
10
206
20
99
11
206
21
163
0
LINE
8
front_outsideCutPath
10
206
20
163
11
203
21
163
0
LINE
8
front_outsideCutPath
10
203
20
163
11
203
21
193.625
0
LINE
8
front_outsideCutPath
10
203
20
193.625
11
200.25
21
193.625
0
LINE
8
front_outsideCutPath
10
200.25
20
193.625
11
200.25
21
192.375
0
LINE
8
front_outsideCutPath
10
200.25
20
192.375
11
198
21
192.375
0
LINE
8
front_outsideCutPath
10
198
20
192.375
11
198
21
193.625
0
LINE
8
front_outsideCutPath
10
198
20
193.625
11
195.75
21
193.625
0
LINE
8
front_outsideCutPath
10
195.75
20
193.625
11
195.75
21
196.375
0
LINE
8
front_outsideCutPath
10
195.75
20
196.375
11
198
21
196.375
0
LINE
8
front_outsideCutPath
10
198
20
196.375
11
198
21
197.625
0
LINE
8
front_outsideCutPath
10
198
20
197.625
11
200.25
21
197.625
0
LINE
8
front_outsideCutPath
10
200.25
20
197.625
11
200.25
21
196.375
0
LINE
8
front_outsideCutPath
10
200.25
20
196.375
11
203
21
196.375
0
LINE
8
front_outsideCutPath
10
203
20
196.375
11
203
21
227
0
LINE
8
front_outsideCutPath
10
203
20
227
11
206
21
227
0
LINE
8
front_outsideCutPath
10
206
20
227
11
206
21
259
0
LINE
8
front_outsideCutPath
10
206
20
259
11
180.25
21
259
0
LINE
8
front_outsideCutPath
10
180.25
20
259
11
180.25
21
256
0
LINE
8
front_outsideCutPath
10
180.25
20
256
11
155.875
21
256
0
LINE
8
front_outsideCutPath
10
155.875
20
256
11
155.875
21
253.25
0
LINE
8
front_outsideCutPath
10
155.875
20
253.25
11
157.125
21
253.25
0
LINE
8
front_outsideCutPath
10
157.125
20
253.25
11
157.125
21
251
0
LINE
8
front_outsideCutPath
10
157.125
20
251
11
155.875
21
251
0
LINE
8
front_outsideCutPath
10
155.875
20
251
11
155.875
21
248.75
0
LINE
8
front_outsideCutPath
10
155.875
20
248.75
11
153.125
21
248.75
0
LINE
8
front_outsideCutPath
10
153.125
20
248.75
11
153.125
21
251
0
LINE
8
front_outsideCutPath
10
153.125
20
251
11
151.875
21
251
0
LINE
8
front_outsideCutPath
10
151.875
20
251
11
151.875
21
253.25
0
LINE
8
front_outsideCutPath
10
151.875
20
253.25
11
153.125
21
253.25
0
LINE
8
front_outsideCutPath
10
153.125
20
253.25
11
153.125
21
256
0
LINE
8
front_outsideCutPath
10
153.125
20
256
11
128.75
21
256
0
LINE
8
front_outsideCutPath
10
128.75
20
256
11
128.75
21
259
0
LINE
8
front_outsideCutPath
10
128.75
20
259
11
77.25
21
259
0
LINE
8
front_outsideCutPath
10
77.25
20
259
11
77.25
21
256
0
LINE
8
front_outsideCutPath
10
77.25
20
256
11
52.875
21
256
0
LINE
8
front_outsideCutPath
10
52.875
20
256
11
52.875
21
253.25
0
LINE
8
front_outsideCutPath
10
52.875
20
253.25
11
54.125
21
253.25
0
LINE
8
front_outsideCutPath
10
54.125
20
253.25
11
54.125
21
251
0
LINE
8
front_outsideCutPath
10
54.125
20
251
11
52.875
21
251
0
LINE
8
front_outsideCutPath
10
52.875
20
251
11
52.875
21
248.75
0
LINE
8
front_outsideCutPath
10
52.875
20
248.75
11
50.125
21
248.75
0
LINE
8
front_outsideCutPath
10
50.125
20
248.75
11
50.125
21
251
0
LINE
8
front_outsideCutPath
10
50.125
20
251
11
48.875
21
251
0
LINE
8
front_outsideCutPath
10
48.875
20
251
11
48.875
21
253.25
0
LINE
8
front_outsideCutPath
10
48.875
20
253.25
11
50.125
21
253.25
0
LINE
8
front_outsideCutPath
10
50.125
20
253.25
11
50.125
21
256
0
LINE
8
front_outsideCutPath
10
50.125
20
256
11
25.75
21
256
0
LINE
8
front_outsideCutPath
10
25.75
20
256
11
25.75
21
259
0
LINE
8
front_outsideCutPath
10
25.75
20
259
11
0
21
259
0
LINE
8
left_outsideCutPath
10
212
20
259
11
212
21
227
0
LINE
8
left_outsideCutPath
10
212
20
227
11
209
21
227
0
LINE
8
left_outsideCutPath
10
209
20
227
11
209
21
196.375
0
LINE
8
left_outsideCutPath
10
209
20
196.375
11
211.75
21
196.375
0
LINE
8
left_outsideCutPath
10
211.75
20
196.375
11
211.75
21
195
0
LINE
8
left_outsideCutPath
10
211.75
20
195
11
211.75
21
195
0
LINE
8
left_outsideCutPath
10
211.75
20
195
11
211.75
21
193.625
0
LINE
8
left_outsideCutPath
10
211.75
20
193.625
11
209
21
193.625
0
LINE
8
left_outsideCutPath
10
209
20
193.625
11
209
21
163
0
LINE
8
left_outsideCutPath
10
209
20
163
11
212
21
163
0
LINE
8
left_outsideCutPath
10
212
20
163
11
212
21
99
0
LINE
8
left_outsideCutPath
10
212
20
99
11
209
21
99
0
LINE
8
left_outsideCutPath
10
209
20
99
11
209
21
68.375
0
LINE
8
left_outsideCutPath
10
209
20
68.375
11
211.75
21
68.375
0
LINE
8
left_outsideCutPath
10
211.75
20
68.375
11
211.75
21
67
0
LINE
8
left_outsideCutPath
10
211.75
20
67
11
211.75
21
67
0
LINE
8
left_outsideCutPath
10
211.75
20
67
11
211.75
21
65.625
0
LINE
8
left_outsideCutPath
10
211.75
20
65.625
11
209
21
65.625
0
LINE
8
left_outsideCutPath
10
209
20
65.625
11
209
21
35
0
LINE
8
left_outsideCutPath
10
209
20
35
11
212
21
35
0
LINE
8
left_outsideCutPath
10
212
20
35
11
212
21
3
0
LINE
8
left_outsideCutPath
10
212
20
3
11
234.75
21
3
0
LINE
8
left_outsideCutPath
10
234.75
20
3
11
234.75
21
6
0
LINE
8
left_outsideCutPath
10
234.75
20
6
11
259.125
21
6
0
LINE
8
left_outsideCutPath
10
259.125
20
6
11
259.125
21
8.75
0
LINE
8
left_outsideCutPath
10
259.125
20
8.75
11
257.875
21
8.75
0
LINE
8
left_outsideCutPath
10
257.875
20
8.75
11
257.875
21
11
0
LINE
8
left_outsideCutPath
10
257.875
20
11
11
259.125
21
11
0
LINE
8
left_outsideCutPath
10
259.125
20
11
11
259.125
21
13.25
0
LINE
8
left_outsideCutPath
10
259.125
20
13.25
11
261.875
21
13.25
0
LINE
8
left_outsideCutPath
10
261.875
20
13.25
11
261.875
21
11
0
LINE
8
left_outsideCutPath
10
261.875
20
11
11
263.125
21
11
0
LINE
8
left_outsideCutPath
10
263.125
20
11
11
263.125
21
8.75
0
LINE
8
left_outsideCutPath
10
263.125
20
8.75
11
261.875
21
8.75
0
LINE
8
left_outsideCutPath
10
261.875
20
8.75
11
261.875
21
6
0
LINE
8
left_outsideCutPath
10
261.875
20
6
11
286.25
21
6
0
LINE
8
left_outsideCutPath
10
286.25
20
6
11
286.25
21
3
0
LINE
8
left_outsideCutPath
10
286.25
20
3
11
337.75
21
3
0
LINE
8
left_outsideCutPath
10
337.75
20
3
11
337.75
21
6
0
LINE
8
left_outsideCutPath
10
337.75
20
6
11
362.125
21
6
0
LINE
8
left_outsideCutPath
10
362.125
20
6
11
362.125
21
8.75
0
LINE
8
left_outsideCutPath
10
362.125
20
8.75
11
360.875
21
8.75
0
LINE
8
left_outsideCutPath
10
360.875
20
8.75
11
360.875
21
11
0
LINE
8
left_outsideCutPath
10
360.875
20
11
11
362.125
21
11
0
LINE
8
left_outsideCutPath
10
362.125
20
11
11
362.125
21
13.25
0
LINE
8
left_outsideCutPath
10
362.125
20
13.25
11
364.875
21
13.25
0
LINE
8
left_outsideCutPath
10
364.875
20
13.25
11
364.875
21
11
0
LINE
8
left_outsideCutPath
10
364.875
20
11
11
366.125
21
11
0
LINE
8
left_outsideCutPath
10
366.125
20
11
11
366.125
21
8.75
0
LINE
8
left_outsideCutPath
10
366.125
20
8.75
11
364.875
21
8.75
0
LINE
8
left_outsideCutPath
10
364.875
20
8.75
11
364.875
21
6
0
LINE
8
left_outsideCutPath
10
364.875
20
6
11
389.25
21
6
0
LINE
8
left_outsideCutPath
10
389.25
20
6
11
389.25
21
3
0
LINE
8
left_outsideCutPath
10
389.25
20
3
11
412
21
3
0
LINE
8
left_outsideCutPath
10
412
20
3
11
412
21
35
0
LINE
8
left_outsideCutPath
10
412
20
35
11
415
21
35
0
LINE
8
left_outsideCutPath
10
415
20
35
11
415
21
65.625
0
LINE
8
left_outsideCutPath
10
415
20
65.625
11
412.25
21
65.625
0
LINE
8
left_outsideCutPath
10
412.25
20
65.625
11
412.25
21
67
0
LINE
8
left_outsideCutPath
10
412.25
20
67
11
412.25
21
67
0
LINE
8
left_outsideCutPath
10
412.25
20
67
11
412.25
21
68.375
0
LINE
8
left_outsideCutPath
10
412.25
20
68.375
11
415
21
68.375
0
LINE
8
left_outsideCutPath
10
415
20
68.375
11
415
21
99
0
LINE
8
left_outsideCutPath
10
415
20
99
11
412
21
99
0
LINE
8
left_outsideCutPath
10
412
20
99
11
412
21
163
0
LINE
8
left_outsideCutPath
10
412
20
163
11
415
21
163
0
LINE
8
left_outsideCutPath
10
415
20
163
11
415
21
193.625
0
LINE
8
left_outsideCutPath
10
415
20
193.625
11
412.25
21
193.625
0
LINE
8
left_outsideCutPath
10
412.25
20
193.625
11
412.25
21
195
0
LINE
8
left_outsideCutPath
10
412.25
20
195
11
412.25
21
195
0
LINE
8
left_outsideCutPath
10
412.25
20
195
11
412.25
21
196.375
0
LINE
8
left_outsideCutPath
10
412.25
20
196.375
11
415
21
196.375
0
LINE
8
left_outsideCutPath
10
415
20
196.375
11
415
21
227
0
LINE
8
left_outsideCutPath
10
415
20
227
11
412
21
227
0
LINE
8
left_outsideCutPath
10
412
20
227
11
412
21
259
0
LINE
8
left_outsideCutPath
10
412
20
259
11
389.25
21
259
0
LINE
8
left_outsideCutPath
10
389.25
20
259
11
389.25
21
256
0
LINE
8
left_outsideCutPath
10
389.25
20
256
11
364.875
21
256
0
LINE
8
left_outsideCutPath
10
364.875
20
256
11
364.875
21
253.25
0
LINE
8
left_outsideCutPath
10
364.875
20
253.25
11
366.125
21
253.25
0
LINE
8
left_outsideCutPath
10
366.125
20
253.25
11
366.125
21
251
0
LINE
8
left_outsideCutPath
10
366.125
20
251
11
364.875
21
251
0
LINE
8
left_outsideCutPath
10
364.875
20
251
11
364.875
21
248.75
0
LINE
8
left_outsideCutPath
10
364.875
20
248.75
11
362.125
21
248.75
0
LINE
8
left_outsideCutPath
10
362.125
20
248.75
11
362.125
21
251
0
LINE
8
left_outsideCutPath
10
362.125
20
251
11
360.875
21
251
0
LINE
8
left_outsideCutPath
10
360.875
20
251
11
360.875
21
253.25
0
LINE
8
left_outsideCutPath
10
360.875
20
253.25
11
362.125
21
253.25
0
LINE
8
left_outsideCutPath
10
362.125
20
253.25
11
362.125
21
256
0
LINE
8
left_outsideCutPath
10
362.125
20
256
11
337.75
21
256
0
LINE
8
left_outsideCutPath
10
337.75
20
256
11
337.75
21
259
0
LINE
8
left_outsideCutPath
10
337.75
20
259
11
286.25
21
259
0
LINE
8
left_outsideCutPath
10
286.25
20
259
11
286.25
21
256
0
LINE
8
left_outsideCutPath
10
286.25
20
256
11
261.875
21
256
0
LINE
8
left_outsideCutPath
10
261.875
20
256
11
261.875
21
253.25
0
LINE
8
left_outsideCutPath
10
261.875
20
253.25
11
263.125
21
253.25
0
LINE
8
left_outsideCutPath
10
263.125
20
253.25
11
263.125
21
251
0
LINE
8
left_outsideCutPath
10
263.125
20
251
11
261.875
21
251
0
LINE
8
left_outsideCutPath
10
261.875
20
251
11
261.875
21
248.75
0
LINE
8
left_outsideCutPath
10
261.875
20
248.75
11
259.125
21
248.75
0
LINE
8
left_outsideCutPath
10
259.125
20
248.75
11
259.125
21
251
0
LINE
8
left_outsideCutPath
10
259.125
20
251
11
257.875
21
251
0
LINE
8
left_outsideCutPath
10
257.875
20
251
11
257.875
21
253.25
0
LINE
8
left_outsideCutPath
10
257.875
20
253.25
11
259.125
21
253.25
0
LINE
8
left_outsideCutPath
10
259.125
20
253.25
11
259.125
21
256
0
LINE
8
left_outsideCutPath
10
259.125
20
256
11
234.75
21
256
0
LINE
8
left_outsideCutPath
10
234.75
20
256
11
234.75
21
259
0
LINE
8
left_outsideCutPath
10
234.75
20
259
11
212
21
259
0
LINE
8
top_outsideCutPath
10
421
20
206
11
421
21
183.25
0
LINE
8
top_outsideCutPath
10
421
20
183.25
11
418
21
183.25
0
LINE
8
top_outsideCutPath
10
418
20
183.25
11
418
21
158.875
0
LINE
8
top_outsideCutPath
10
418
20
158.875
11
420.75
21
158.875
0
LINE
8
top_outsideCutPath
10
420.75
20
158.875
11
420.75
21
157.5
0
LINE
8
top_outsideCutPath
10
420.75
20
157.5
11
420.75
21
157.5
0
LINE
8
top_outsideCutPath
10
420.75
20
157.5
11
420.75
21
156.125
0
LINE
8
top_outsideCutPath
10
420.75
20
156.125
11
418
21
156.125
0
LINE
8
top_outsideCutPath
10
418
20
156.125
11
418
21
131.75
0
LINE
8
top_outsideCutPath
10
418
20
131.75
11
421
21
131.75
0
LINE
8
top_outsideCutPath
10
421
20
131.75
11
421
21
80.25
0
LINE
8
top_outsideCutPath
10
421
20
80.25
11
418
21
80.25
0
LINE
8
top_outsideCutPath
10
418
20
80.25
11
418
21
55.875
0
LINE
8
top_outsideCutPath
10
418
20
55.875
11
420.75
21
55.875
0
LINE
8
top_outsideCutPath
10
420.75
20
55.875
11
420.75
21
54.5
0
LINE
8
top_outsideCutPath
10
420.75
20
54.5
11
420.75
21
54.5
0
LINE
8
top_outsideCutPath
10
420.75
20
54.5
11
420.75
21
53.125
0
LINE
8
top_outsideCutPath
10
420.75
20
53.125
11
418
21
53.125
0
LINE
8
top_outsideCutPath
10
418
20
53.125
11
418
21
28.75
0
LINE
8
top_outsideCutPath
10
418
20
28.75
11
421
21
28.75
0
LINE
8
top_outsideCutPath
10
421
20
28.75
11
421
21
6
0
LINE
8
top_outsideCutPath
10
421
20
6
11
443.75
21
6
0
LINE
8
top_outsideCutPath
10
443.75
20
6
11
443.75
21
3
0
LINE
8
top_outsideCutPath
10
443.75
20
3
11
468.125
21
3
0
LINE
8
top_outsideCutPath
10
468.125
20
3
11
468.125
21
5.75
0
LINE
8
top_outsideCutPath
10
468.125
20
5.75
11
469.5
21
5.75
0
LINE
8
top_outsideCutPath
10
469.5
20
5.75
11
469.5
21
5.75
0
LINE
8
top_outsideCutPath
10
469.5
20
5.75
11
470.875
21
5.75
0
LINE
8
top_outsideCutPath
10
470.875
20
5.75
11
470.875
21
3
0
LINE
8
top_outsideCutPath
10
470.875
20
3
11
495.25
21
3
0
LINE
8
top_outsideCutPath
10
495.25
20
3
11
495.25
21
6
0
LINE
8
top_outsideCutPath
10
495.25
20
6
11
546.75
21
6
0
LINE
8
top_outsideCutPath
10
546.75
20
6
11
546.75
21
3
0
LINE
8
top_outsideCutPath
10
546.75
20
3
11
571.125
21
3
0
LINE
8
top_outsideCutPath
10
571.125
20
3
11
571.125
21
5.75
0
LINE
8
top_outsideCutPath
10
571.125
20
5.75
11
572.5
21
5.75
0
LINE
8
top_outsideCutPath
10
572.5
20
5.75
11
572.5
21
5.75
0
LINE
8
top_outsideCutPath
10
572.5
20
5.75
11
573.875
21
5.75
0
LINE
8
top_outsideCutPath
10
573.875
20
5.75
11
573.875
21
3
0
LINE
8
top_outsideCutPath
10
573.875
20
3
11
598.25
21
3
0
LINE
8
top_outsideCutPath
10
598.25
20
3
11
598.25
21
6
0
LINE
8
top_outsideCutPath
10
598.25
20
6
11
621
21
6
0
LINE
8
top_outsideCutPath
10
621
20
6
11
621
21
28.75
0
LINE
8
top_outsideCutPath
10
621
20
28.75
11
624
21
28.75
0
LINE
8
top_outsideCutPath
10
624
20
28.75
11
624
21
53.125
0
LINE
8
top_outsideCutPath
10
624
20
53.125
11
621.25
21
53.125
0
LINE
8
top_outsideCutPath
10
621.25
20
53.125
11
621.25
21
54.5
0
LINE
8
top_outsideCutPath
10
621.25
20
54.5
11
621.25
21
54.5
0
LINE
8
top_outsideCutPath
10
621.25
20
54.5
11
621.25
21
55.875
0
LINE
8
top_outsideCutPath
10
621.25
20
55.875
11
624
21
55.875
0
LINE
8
top_outsideCutPath
10
624
20
55.875
11
624
21
80.25
0
LINE
8
top_outsideCutPath
10
624
20
80.25
11
621
21
80.25
0
LINE
8
top_outsideCutPath
10
621
20
80.25
11
621
21
131.75
0
LINE
8
top_outsideCutPath
10
621
20
131.75
11
624
21
131.75
0
LINE
8
top_outsideCutPath
10
624
20
131.75
11
624
21
156.125
0
LINE
8
top_outsideCutPath
10
624
20
156.125
11
621.25
21
156.125
0
LINE
8
top_outsideCutPath
10
621.25
20
156.125
11
621.25
21
157.5
0
LINE
8
top_outsideCutPath
10
621.25
20
157.5
11
621.25
21
157.5
0
LINE
8
top_outsideCutPath
10
621.25
20
157.5
11
621.25
21
158.875
0
LINE
8
top_outsideCutPath
10
621.25
20
158.875
11
624
21
158.875
0
LINE
8
top_outsideCutPath
10
624
20
158.875
11
624
21
183.25
0
LINE
8
top_outsideCutPath
10
624
20
183.25
11
621
21
183.25
0
LINE
8
top_outsideCutPath
10
621
20
183.25
11
621
21
206
0
LINE
8
top_outsideCutPath
10
621
20
206
11
598.25
21
206
0
LINE
8
top_outsideCutPath
10
598.25
20
206
11
598.25
21
209
0
LINE
8
top_outsideCutPath
10
598.25
20
209
11
573.875
21
209
0
LINE
8
top_outsideCutPath
10
573.875
20
209
11
573.875
21
206.25
0
LINE
8
top_outsideCutPath
10
573.875
20
206.25
11
572.5
21
206.25
0
LINE
8
top_outsideCutPath
10
572.5
20
206.25
11
572.5
21
206.25
0
LINE
8
top_outsideCutPath
10
572.5
20
206.25
11
571.125
21
206.25
0
LINE
8
top_outsideCutPath
10
571.125
20
206.25
11
571.125
21
209
0
LINE
8
top_outsideCutPath
10
571.125
20
209
11
546.75
21
209
0
LINE
8
top_outsideCutPath
10
546.75
20
209
11
546.75
21
206
0
LINE
8
top_outsideCutPath
10
546.75
20
206
11
495.25
21
206
0
LINE
8
top_outsideCutPath
10
495.25
20
206
11
495.25
21
209
0
LINE
8
top_outsideCutPath
10
495.25
20
209
11
470.875
21
209
0
LINE
8
top_outsideCutPath
10
470.875
20
209
11
470.875
21
206.25
0
LINE
8
top_outsideCutPath
10
470.875
20
206.25
11
469.5
21
206.25
0
LINE
8
top_outsideCutPath
10
469.5
20
206.25
11
469.5
21
206.25
0
LINE
8
top_outsideCutPath
10
469.5
20
206.25
11
468.125
21
206.25
0
LINE
8
top_outsideCutPath
10
468.125
20
206.25
11
468.125
21
209
0
LINE
8
top_outsideCutPath
10
468.125
20
209
11
443.75
21
209
0
LINE
8
top_outsideCutPath
10
443.75
20
209
11
443.75
21
206
0
LINE
8
top_outsideCutPath
10
443.75
20
206
11
421
21
206
0
LINE
8
back_outsideCutPath
10
0
20
518
11
0
21
486
0
LINE
8
back_outsideCutPath
10
0
20
486
11
3
21
486
0
LINE
8
back_outsideCutPath
10
3
20
486
11
3
21
455.375
0
LINE
8
back_outsideCutPath
10
3
20
455.375
11
5.75
21
455.375
0
LINE
8
back_outsideCutPath
10
5.75
20
455.375
11
5.75
21
456.625
0
LINE
8
back_outsideCutPath
10
5.75
20
456.625
11
8
21
456.625
0
LINE
8
back_outsideCutPath
10
8
20
456.625
11
8
21
455.375
0
LINE
8
back_outsideCutPath
10
8
20
455.375
11
10.25
21
455.375
0
LINE
8
back_outsideCutPath
10
10.25
20
455.375
11
10.25
21
452.625
0
LINE
8
back_outsideCutPath
10
10.25
20
452.625
11
8
21
452.625
0
LINE
8
back_outsideCutPath
10
8
20
452.625
11
8
21
451.375
0
LINE
8
back_outsideCutPath
10
8
20
451.375
11
5.75
21
451.375
0
LINE
8
back_outsideCutPath
10
5.75
20
451.375
11
5.75
21
452.625
0
LINE
8
back_outsideCutPath
10
5.75
20
452.625
11
3
21
452.625
0
LINE
8
back_outsideCutPath
10
3
20
452.625
11
3
21
422
0
LINE
8
back_outsideCutPath
10
3
20
422
11
0
21
422
0
LINE
8
back_outsideCutPath
10
0
20
422
11
0
21
358
0
LINE
8
back_outsideCutPath
10
0
20
358
11
3
21
358
0
LINE
8
back_outsideCutPath
10
3
20
358
11
3
21
327.375
0
LINE
8
back_outsideCutPath
10
3
20
327.375
11
5.75
21
327.375
0
LINE
8
back_outsideCutPath
10
5.75
20
327.375
11
5.75
21
328.625
0
LINE
8
back_outsideCutPath
10
5.75
20
328.625
11
8
21
328.625
0
LINE
8
back_outsideCutPath
10
8
20
328.625
11
8
21
327.375
0
LINE
8
back_outsideCutPath
10
8
20
327.375
11
10.25
21
327.375
0
LINE
8
back_outsideCutPath
10
10.25
20
327.375
11
10.25
21
324.625
0
LINE
8
back_outsideCutPath
10
10.25
20
324.625
11
8
21
324.625
0
LINE
8
back_outsideCutPath
10
8
20
324.625
11
8
21
323.375
0
LINE
8
back_outsideCutPath
10
8
20
323.375
11
5.75
21
323.375
0
LINE
8
back_outsideCutPath
10
5.75
20
323.375
11
5.75
21
324.625
0
LINE
8
back_outsideCutPath
10
5.75
20
324.625
11
3
21
324.625
0
LINE
8
back_outsideCutPath
10
3
20
324.625
11
3
21
294
0
LINE
8
back_outsideCutPath
10
3
20
294
11
0
21
294
0
LINE
8
back_outsideCutPath
10
0
20
294
11
0
21
262
0
LINE
8
back_outsideCutPath
10
0
20
262
11
25.75
21
262
0
LINE
8
back_outsideCutPath
10
25.75
20
262
11
25.75
21
265
0
LINE
8
back_outsideCutPath
10
25.75
20
265
11
50.125
21
265
0
LINE
8
back_outsideCutPath
10
50.125
20
265
11
50.125
21
267.75
0
LINE
8
back_outsideCutPath
10
50.125
20
267.75
11
48.875
21
267.75
0
LINE
8
back_outsideCutPath
10
48.875
20
267.75
11
48.875
21
270
0
LINE
8
back_outsideCutPath
10
48.875
20
270
11
50.125
21
270
0
LINE
8
back_outsideCutPath
10
50.125
20
270
11
50.125
21
272.25
0
LINE
8
back_outsideCutPath
10
50.125
20
272.25
11
52.875
21
272.25
0
LINE
8
back_outsideCutPath
10
52.875
20
272.25
11
52.875
21
270
0
LINE
8
back_outsideCutPath
10
52.875
20
270
11
54.125
21
270
0
LINE
8
back_outsideCutPath
10
54.125
20
270
11
54.125
21
267.75
0
LINE
8
back_outsideCutPath
10
54.125
20
267.75
11
52.875
21
267.75
0
LINE
8
back_outsideCutPath
10
52.875
20
267.75
11
52.875
21
265
0
LINE
8
back_outsideCutPath
10
52.875
20
265
11
77.25
21
265
0
LINE
8
back_outsideCutPath
10
77.25
20
265
11
77.25
21
262
0
LINE
8
back_outsideCutPath
10
77.25
20
262
11
128.75
21
262
0
LINE
8
back_outsideCutPath
10
128.75
20
262
11
128.75
21
265
0
LINE
8
back_outsideCutPath
10
128.75
20
265
11
153.125
21
265
0
LINE
8
back_outsideCutPath
10
153.125
20
265
11
153.125
21
267.75
0
LINE
8
back_outsideCutPath
10
153.125
20
267.75
11
151.875
21
267.75
0
LINE
8
back_outsideCutPath
10
151.875
20
267.75
11
151.875
21
270
0
LINE
8
back_outsideCutPath
10
151.875
20
270
11
153.125
21
270
0
LINE
8
back_outsideCutPath
10
153.125
20
270
11
153.125
21
272.25
0
LINE
8
back_outsideCutPath
10
153.125
20
272.25
11
155.875
21
272.25
0
LINE
8
back_outsideCutPath
10
155.875
20
272.25
11
155.875
21
270
0
LINE
8
back_outsideCutPath
10
155.875
20
270
11
157.125
21
270
0
LINE
8
back_outsideCutPath
10
157.125
20
270
11
157.125
21
267.75
0
LINE
8
back_outsideCutPath
10
157.125
20
267.75
11
155.875
21
267.75
0
LINE
8
back_outsideCutPath
10
155.875
20
267.75
11
155.875
21
265
0
LINE
8
back_outsideCutPath
10
155.875
20
265
11
180.25
21
265
0
LINE
8
back_outsideCutPath
10
180.25
20
265
11
180.25
21
262
0
LINE
8
back_outsideCutPath
10
180.25
20
262
11
206
21
262
0
LINE
8
back_outsideCutPath
10
206
20
262
11
206
21
294
0
LINE
8
back_outsideCutPath
10
206
20
294
11
203
21
294
0
LINE
8
back_outsideCutPath
10
203
20
294
11
203
21
324.625
0
LINE
8
back_outsideCutPath
10
203
20
324.625
11
200.25
21
324.625
0
LINE
8
back_outsideCutPath
10
200.25
20
324.625
11
200.25
21
323.375
0
LINE
8
back_outsideCutPath
10
200.25
20
323.375
11
198
21
323.375
0
LINE
8
back_outsideCutPath
10
198
20
323.375
11
198
21
324.625
0
LINE
8
back_outsideCutPath
10
198
20
324.625
11
195.75
21
324.625
0
LINE
8
back_outsideCutPath
10
195.75
20
324.625
11
195.75
21
327.375
0
LINE
8
back_outsideCutPath
10
195.75
20
327.375
11
198
21
327.375
0
LINE
8
back_outsideCutPath
10
198
20
327.375
11
198
21
328.625
0
LINE
8
back_outsideCutPath
10
198
20
328.625
11
200.25
21
328.625
0
LINE
8
back_outsideCutPath
10
200.25
20
328.625
11
200.25
21
327.375
0
LINE
8
back_outsideCutPath
10
200.25
20
327.375
11
203
21
327.375
0
LINE
8
back_outsideCutPath
10
203
20
327.375
11
203
21
358
0
LINE
8
back_outsideCutPath
10
203
20
358
11
206
21
358
0
LINE
8
back_outsideCutPath
10
206
20
358
11
206
21
422
0
LINE
8
back_outsideCutPath
10
206
20
422
11
203
21
422
0
LINE
8
back_outsideCutPath
10
203
20
422
11
203
21
452.625
0
LINE
8
back_outsideCutPath
10
203
20
452.625
11
200.25
21
452.625
0
LINE
8
back_outsideCutPath
10
200.25
20
452.625
11
200.25
21
451.375
0
LINE
8
back_outsideCutPath
10
200.25
20
451.375
11
198
21
451.375
0
LINE
8
back_outsideCutPath
10
198
20
451.375
11
198
21
452.625
0
LINE
8
back_outsideCutPath
10
198
20
452.625
11
195.75
21
452.625
0
LINE
8
back_outsideCutPath
10
195.75
20
452.625
11
195.75
21
455.375
0
LINE
8
back_outsideCutPath
10
195.75
20
455.375
11
198
21
455.375
0
LINE
8
back_outsideCutPath
10
198
20
455.375
11
198
21
456.625
0
LINE
8
back_outsideCutPath
10
198
20
456.625
11
200.25
21
456.625
0
LINE
8
back_outsideCutPath
10
200.25
20
456.625
11
200.25
21
455.375
0
LINE
8
back_outsideCutPath
10
200.25
20
455.375
11
203
21
455.375
0
LINE
8
back_outsideCutPath
10
203
20
455.375
11
203
21
486
0
LINE
8
back_outsideCutPath
10
203
20
486
11
206
21
486
0
LINE
8
back_outsideCutPath
10
206
20
486
11
206
21
518
0
LINE
8
back_outsideCutPath
10
206
20
518
11
180.25
21
518
0
LINE
8
back_outsideCutPath
10
180.25
20
518
11
180.25
21
515
0
LINE
8
back_outsideCutPath
10
180.25
20
515
11
155.875
21
515
0
LINE
8
back_outsideCutPath
10
155.875
20
515
11
155.875
21
512.25
0
LINE
8
back_outsideCutPath
10
155.875
20
512.25
11
157.125
21
512.25
0
LINE
8
back_outsideCutPath
10
157.125
20
512.25
11
157.125
21
510
0
LINE
8
back_outsideCutPath
10
157.125
20
510
11
155.875
21
510
0
LINE
8
back_outsideCutPath
10
155.875
20
510
11
155.875
21
507.75
0
LINE
8
back_outsideCutPath
10
155.875
20
507.75
11
153.125
21
507.75
0
LINE
8
back_outsideCutPath
10
153.125
20
507.75
11
153.125
21
510
0
LINE
8
back_outsideCutPath
10
153.125
20
510
11
151.875
21
510
0
LINE
8
back_outsideCutPath
10
151.875
20
510
11
151.875
21
512.25
0
LINE
8
back_outsideCutPath
10
151.875
20
512.25
11
153.125
21
512.25
0
LINE
8
back_outsideCutPath
10
153.125
20
512.25
11
153.125
21
515
0
LINE
8
back_outsideCutPath
10
153.125
20
515
11
128.75
21
515
0
LINE
8
back_outsideCutPath
10
128.75
20
515
11
128.75
21
518
0
LINE
8
back_outsideCutPath
10
128.75
20
518
11
77.25
21
518
0
LINE
8
back_outsideCutPath
10
77.25
20
518
11
77.25
21
515
0
LINE
8
back_outsideCutPath
10
77.25
20
515
11
52.875
21
515
0
LINE
8
back_outsideCutPath
10
52.875
20
515
11
52.875
21
512.25
0
LINE
8
back_outsideCutPath
10
52.875
20
512.25
11
54.125
21
512.25
0
LINE
8
back_outsideCutPath
10
54.125
20
512.25
11
54.125
21
510
0
LINE
8
back_outsideCutPath
10
54.125
20
510
11
52.875
21
510
0
LINE
8
back_outsideCutPath
10
52.875
20
510
11
52.875
21
507.75
0
LINE
8
back_outsideCutPath
10
52.875
20
507.75
11
50.125
21
507.75
0
LINE
8
back_outsideCutPath
10
50.125
20
507.75
11
50.125
21
510
0
LINE
8
back_outsideCutPath
10
50.125
20
510
11
48.875
21
510
0
LINE
8
back_outsideCutPath
10
48.875
20
510
11
48.875
21
512.25
0
LINE
8
back_outsideCutPath
10
48.875
20
512.25
11
50.125
21
512.25
0
LINE
8
back_outsideCutPath
10
50.125
20
512.25
11
50.125
21
515
0
LINE
8
back_outsideCutPath
10
50.125
20
515
11
25.75
21
515
0
LINE
8
back_outsideCutPath
10
25.75
20
515
11
25.75
21
518
0
LINE
8
back_outsideCutPath
10
25.75
20
518
11
0
21
518
0
LINE
8
right_outsideCutPath
10
212
20
518
11
212
21
486
0
LINE
8
right_outsideCutPath
10
212
20
486
11
209
21
486
0
LINE
8
right_outsideCutPath
10
209
20
486
11
209
21
455.375
0
LINE
8
right_outsideCutPath
10
209
20
455.375
11
211.75
21
455.375
0
LINE
8
right_outsideCutPath
10
211.75
20
455.375
11
211.75
21
454
0
LINE
8
right_outsideCutPath
10
211.75
20
454
11
211.75
21
454
0
LINE
8
right_outsideCutPath
10
211.75
20
454
11
211.75
21
452.625
0
LINE
8
right_outsideCutPath
10
211.75
20
452.625
11
209
21
452.625
0
LINE
8
right_outsideCutPath
10
209
20
452.625
11
209
21
422
0
LINE
8
right_outsideCutPath
10
209
20
422
11
212
21
422
0
LINE
8
right_outsideCutPath
10
212
20
422
11
212
21
358
0
LINE
8
right_outsideCutPath
10
212
20
358
11
209
21
358
0
LINE
8
right_outsideCutPath
10
209
20
358
11
209
21
327.375
0
LINE
8
right_outsideCutPath
10
209
20
327.375
11
211.75
21
327.375
0
LINE
8
right_outsideCutPath
10
211.75
20
327.375
11
211.75
21
326
0
LINE
8
right_outsideCutPath
10
211.75
20
326
11
211.75
21
326
0
LINE
8
right_outsideCutPath
10
211.75
20
326
11
211.75
21
324.625
0
LINE
8
right_outsideCutPath
10
211.75
20
324.625
11
209
21
324.625
0
LINE
8
right_outsideCutPath
10
209
20
324.625
11
209
21
294
0
LINE
8
right_outsideCutPath
10
209
20
294
11
212
21
294
0
LINE
8
right_outsideCutPath
10
212
20
294
11
212
21
262
0
LINE
8
right_outsideCutPath
10
212
20
262
11
234.75
21
262
0
LINE
8
right_outsideCutPath
10
234.75
20
262
11
234.75
21
265
0
LINE
8
right_outsideCutPath
10
234.75
20
265
11
259.125
21
265
0
LINE
8
right_outsideCutPath
10
259.125
20
265
11
259.125
21
267.75
0
LINE
8
right_outsideCutPath
10
259.125
20
267.75
11
257.875
21
267.75
0
LINE
8
right_outsideCutPath
10
257.875
20
267.75
11
257.875
21
270
0
LINE
8
right_outsideCutPath
10
257.875
20
270
11
259.125
21
270
0
LINE
8
right_outsideCutPath
10
259.125
20
270
11
259.125
21
272.25
0
LINE
8
right_outsideCutPath
10
259.125
20
272.25
11
261.875
21
272.25
0
LINE
8
right_outsideCutPath
10
261.875
20
272.25
11
261.875
21
270
0
LINE
8
right_outsideCutPath
10
261.875
20
270
11
263.125
21
270
0
LINE
8
right_outsideCutPath
10
263.125
20
270
11
263.125
21
267.75
0
LINE
8
right_outsideCutPath
10
263.125
20
267.75
11
261.875
21
267.75
0
LINE
8
right_outsideCutPath
10
261.875
20
267.75
11
261.875
21
265
0
LINE
8
right_outsideCutPath
10
261.875
20
265
11
286.25
21
265
0
LINE
8
right_outsideCutPath
10
286.25
20
265
11
286.25
21
262
0
LINE
8
right_outsideCutPath
10
286.25
20
262
11
337.75
21
262
0
LINE
8
right_outsideCutPath
10
337.75
20
262
11
337.75
21
265
0
LINE
8
right_outsideCutPath
10
337.75
20
265
11
362.125
21
265
0
LINE
8
right_outsideCutPath
10
362.125
20
265
11
362.125
21
267.75
0
LINE
8
right_outsideCutPath
10
362.125
20
267.75
11
360.875
21
267.75
0
LINE
8
right_outsideCutPath
10
360.875
20
267.75
11
360.875
21
270
0
LINE
8
right_outsideCutPath
10
360.875
20
270
11
362.125
21
270
0
LINE
8
right_outsideCutPath
10
362.125
20
270
11
362.125
21
272.25
0
LINE
8
right_outsideCutPath
10
362.125
20
272.25
11
364.875
21
272.25
0
LINE
8
right_outsideCutPath
10
364.875
20
272.25
11
364.875
21
270
0
LINE
8
right_outsideCutPath
10
364.875
20
270
11
366.125
21
270
0
LINE
8
right_outsideCutPath
10
366.125
20
270
11
366.125
21
267.75
0
LINE
8
right_outsideCutPath
10
366.125
20
267.75
11
364.875
21
267.75
0
LINE
8
right_outsideCutPath
10
364.875
20
267.75
11
364.875
21
265
0
LINE
8
right_outsideCutPath
10
364.875
20
265
11
389.25
21
265
0
LINE
8
right_outsideCutPath
10
389.25
20
265
11
389.25
21
262
0
LINE
8
right_outsideCutPath
10
389.25
20
262
11
412
21
262
0
LINE
8
right_outsideCutPath
10
412
20
262
11
412
21
294
0
LINE
8
right_outsideCutPath
10
412
20
294
11
415
21
294
0
LINE
8
right_outsideCutPath
10
415
20
294
11
415
21
324.625
0
LINE
8
right_outsideCutPath
10
415
20
324.625
11
412.25
21
324.625
0
LINE
8
right_outsideCutPath
10
412.25
20
324.625
11
412.25
21
326
0
LINE
8
right_outsideCutPath
10
412.25
20
326
11
412.25
21
326
0
LINE
8
right_outsideCutPath
10
412.25
20
326
11
412.25
21
327.375
0
LINE
8
right_outsideCutPath
10
412.25
20
327.375
11
415
21
327.375
0
LINE
8
right_outsideCutPath
10
415
20
327.375
11
415
21
358
0
LINE
8
right_outsideCutPath
10
415
20
358
11
412
21
358
0
LINE
8
right_outsideCutPath
10
412
20
358
11
412
21
422
0
LINE
8
right_outsideCutPath
10
412
20
422
11
415
21
422
0
LINE
8
right_outsideCutPath
10
415
20
422
11
415
21
452.625
0
LINE
8
right_outsideCutPath
10
415
20
452.625
11
412.25
21
452.625
0
LINE
8
right_outsideCutPath
10
412.25
20
452.625
11
412.25
21
454
0
LINE
8
right_outsideCutPath
10
412.25
20
454
11
412.25
21
454
0
LINE
8
right_outsideCutPath
10
412.25
20
454
11
412.25
21
455.375
0
LINE
8
right_outsideCutPath
10
412.25
20
455.375
11
415
21
455.375
0
LINE
8
right_outsideCutPath
10
415
20
455.375
11
415
21
486
0
LINE
8
right_outsideCutPath
10
415
20
486
11
412
21
486
0
LINE
8
right_outsideCutPath
10
412
20
486
11
412
21
518
0
LINE
8
right_outsideCutPath
10
412
20
518
11
389.25
21
518
0
LINE
8
right_outsideCutPath
10
389.25
20
518
11
389.25
21
515
0
LINE
8
right_outsideCutPath
10
389.25
20
515
11
364.875
21
515
0
LINE
8
right_outsideCutPath
10
364.875
20
515
11
364.875
21
512.25
0
LINE
8
right_outsideCutPath
10
364.875
20
512.25
11
366.125
21
512.25
0
LINE
8
right_outsideCutPath
10
366.125
20
512.25
11
366.125
21
510
0
LINE
8
right_outsideCutPath
10
366.125
20
510
11
364.875
21
510
0
LINE
8
right_outsideCutPath
10
364.875
20
510
11
364.875
21
507.75
0
LINE
8
right_outsideCutPath
10
364.875
20
507.75
11
362.125
21
507.75
0
LINE
8
right_outsideCutPath
10
362.125
20
507.75
11
362.125
21
510
0
LINE
8
right_outsideCutPath
10
362.125
20
510
11
360.875
21
510
0
LINE
8
right_outsideCutPath
10
360.875
20
510
11
360.875
21
512.25
0
LINE
8
right_outsideCutPath
10
360.875
20
512.25
11
362.125
21
512.25
0
LINE
8
right_outsideCutPath
10
362.125
20
512.25
11
362.125
21
515
0
LINE
8
right_outsideCutPath
10
362.125
20
515
11
337.75
21
515
0
LINE
8
right_outsideCutPath
10
337.75
20
515
11
337.75
21
518
0
LINE
8
right_outsideCutPath
10
337.75
20
518
11
286.25
21
518
0
LINE
8
right_outsideCutPath
10
286.25
20
518
11
286.25
21
515
0
LINE
8
right_outsideCutPath
10
286.25
20
515
11
261.875
21
515
0
LINE
8
right_outsideCutPath
10
261.875
20
515
11
261.875
21
512.25
0
LINE
8
right_outsideCutPath
10
261.875
20
512.25
11
263.125
21
512.25
0
LINE
8
right_outsideCutPath
10
263.125
20
512.25
11
263.125
21
510
0
LINE
8
right_outsideCutPath
10
263.125
20
510
11
261.875
21
510
0
LINE
8
right_outsideCutPath
10
261.875
20
510
11
261.875
21
507.75
0
LINE
8
right_outsideCutPath
10
261.875
20
507.75
11
259.125
21
507.75
0
LINE
8
right_outsideCutPath
10
259.125
20
507.75
11
259.125
21
510
0
LINE
8
right_outsideCutPath
10
259.125
20
510
11
257.875
21
510
0
LINE
8
right_outsideCutPath
10
257.875
20
510
11
257.875
21
512.25
0
LINE
8
right_outsideCutPath
10
257.875
20
512.25
11
259.125
21
512.25
0
LINE
8
right_outsideCutPath
10
259.125
20
512.25
11
259.125
21
515
0
LINE
8
right_outsideCutPath
10
259.125
20
515
11
234.75
21
515
0
LINE
8
right_outsideCutPath
10
234.75
20
515
11
234.75
21
518
0
LINE
8
right_outsideCutPath
10
234.75
20
518
11
212
21
518
0
LINE
8
bottom_outsideCutPath
10
421
20
415
11
421
21
392.25
0
LINE
8
bottom_outsideCutPath
10
421
20
392.25
11
418
21
392.25
0
LINE
8
bottom_outsideCutPath
10
418
20
392.25
11
418
21
367.875
0
LINE
8
bottom_outsideCutPath
10
418
20
367.875
11
420.75
21
367.875
0
LINE
8
bottom_outsideCutPath
10
420.75
20
367.875
11
420.75
21
366.5
0
LINE
8
bottom_outsideCutPath
10
420.75
20
366.5
11
420.75
21
366.5
0
LINE
8
bottom_outsideCutPath
10
420.75
20
366.5
11
420.75
21
365.125
0
LINE
8
bottom_outsideCutPath
10
420.75
20
365.125
11
418
21
365.125
0
LINE
8
bottom_outsideCutPath
10
418
20
365.125
11
418
21
340.75
0
LINE
8
bottom_outsideCutPath
10
418
20
340.75
11
421
21
340.75
0
LINE
8
bottom_outsideCutPath
10
421
20
340.75
11
421
21
289.25
0
LINE
8
bottom_outsideCutPath
10
421
20
289.25
11
418
21
289.25
0
LINE
8
bottom_outsideCutPath
10
418
20
289.25
11
418
21
264.875
0
LINE
8
bottom_outsideCutPath
10
418
20
264.875
11
420.75
21
264.875
0
LINE
8
bottom_outsideCutPath
10
420.75
20
264.875
11
420.75
21
263.5
0
LINE
8
bottom_outsideCutPath
10
420.75
20
263.5
11
420.75
21
263.5
0
LINE
8
bottom_outsideCutPath
10
420.75
20
263.5
11
420.75
21
262.125
0
LINE
8
bottom_outsideCutPath
10
420.75
20
262.125
11
418
21
262.125
0
LINE
8
bottom_outsideCutPath
10
418
20
262.125
11
418
21
237.75
0
LINE
8
bottom_outsideCutPath
10
418
20
237.75
11
421
21
237.75
0
LINE
8
bottom_outsideCutPath
10
421
20
237.75
11
421
21
215
0
LINE
8
bottom_outsideCutPath
10
421
20
215
11
443.75
21
215
0
LINE
8
bottom_outsideCutPath
10
443.75
20
215
11
443.75
21
212
0
LINE
8
bottom_outsideCutPath
10
443.75
20
212
11
468.125
21
212
0
LINE
8
bottom_outsideCutPath
10
468.125
20
212
11
468.125
21
214.75
0
LINE
8
bottom_outsideCutPath
10
468.125
20
214.75
11
469.5
21
214.75
0
LINE
8
bottom_outsideCutPath
10
469.5
20
214.75
11
469.5
21
214.75
0
LINE
8
bottom_outsideCutPath
10
469.5
20
214.75
11
470.875
21
214.75
0
LINE
8
bottom_outsideCutPath
10
470.875
20
214.75
11
470.875
21
212
0
LINE
8
bottom_outsideCutPath
10
470.875
20
212
11
495.25
21
212
0
LINE
8
bottom_outsideCutPath
10
495.25
20
212
11
495.25
21
215
0
LINE
8
bottom_outsideCutPath
10
495.25
20
215
11
546.75
21
215
0
LINE
8
bottom_outsideCutPath
10
546.75
20
215
11
546.75
21
212
0
LINE
8
bottom_outsideCutPath
10
546.75
20
212
11
571.125
21
212
0
LINE
8
bottom_outsideCutPath
10
571.125
20
212
11
571.125
21
214.75
0
LINE
8
bottom_outsideCutPath
10
571.125
20
214.75
11
572.5
21
214.75
0
LINE
8
bottom_outsideCutPath
10
572.5
20
214.75
11
572.5
21
214.75
0
LINE
8
bottom_outsideCutPath
10
572.5
20
214.75
11
573.875
21
214.75
0
LINE
8
bottom_outsideCutPath
10
573.875
20
214.75
11
573.875
21
212
0
LINE
8
bottom_outsideCutPath
10
573.875
20
212
11
598.25
21
212
0
LINE
8
bottom_outsideCutPath
10
598.25
20
212
11
598.25
21
215
0
LINE
8
bottom_outsideCutPath
10
598.25
20
215
11
621
21
215
0
LINE
8
bottom_outsideCutPath
10
621
20
215
11
621
21
237.75
0
LINE
8
bottom_outsideCutPath
10
621
20
237.75
11
624
21
237.75
0
LINE
8
bottom_outsideCutPath
10
624
20
237.75
11
624
21
262.125
0
LINE
8
bottom_outsideCutPath
10
624
20
262.125
11
621.25
21
262.125
0
LINE
8
bottom_outsideCutPath
10
621.25
20
262.125
11
621.25
21
263.5
0
LINE
8
bottom_outsideCutPath
10
621.25
20
263.5
11
621.25
21
263.5
0
LINE
8
bottom_outsideCutPath
10
621.25
20
263.5
11
621.25
21
264.875
0
LINE
8
bottom_outsideCutPath
10
621.25
20
264.875
11
624
21
264.875
0
LINE
8
bottom_outsideCutPath
10
624
20
264.875
11
624
21
289.25
0
LINE
8
bottom_outsideCutPath
10
624
20
289.25
11
621
21
289.25
0
LINE
8
bottom_outsideCutPath
10
621
20
289.25
11
621
21
340.75
0
LINE
8
bottom_outsideCutPath
10
621
20
340.75
11
624
21
340.75
0
LINE
8
bottom_outsideCutPath
10
624
20
340.75
11
624
21
365.125
0
LINE
8
bottom_outsideCutPath
10
624
20
365.125
11
621.25
21
365.125
0
LINE
8
bottom_outsideCutPath
10
621.25
20
365.125
11
621.25
21
366.5
0
LINE
8
bottom_outsideCutPath
10
621.25
20
366.5
11
621.25
21
366.5
0
LINE
8
bottom_outsideCutPath
10
621.25
20
366.5
11
621.25
21
367.875
0
LINE
8
bottom_outsideCutPath
10
621.25
20
367.875
11
624
21
367.875
0
LINE
8
bottom_outsideCutPath
10
624
20
367.875
11
624
21
392.25
0
LINE
8
bottom_outsideCutPath
10
624
20
392.25
11
621
21
392.25
0
LINE
8
bottom_outsideCutPath
10
621
20
392.25
11
621
21
415
0
LINE
8
bottom_outsideCutPath
10
621
20
415
11
598.25
21
415
0
LINE
8
bottom_outsideCutPath
10
598.25
20
415
11
598.25
21
418
0
LINE
8
bottom_outsideCutPath
10
598.25
20
418
11
573.875
21
418
0
LINE
8
bottom_outsideCutPath
10
573.875
20
418
11
573.875
21
415.25
0
LINE
8
bottom_outsideCutPath
10
573.875
20
415.25
11
572.5
21
415.25
0
LINE
8
bottom_outsideCutPath
10
572.5
20
415.25
11
572.5
21
415.25
0
LINE
8
bottom_outsideCutPath
10
572.5
20
415.25
11
571.125
21
415.25
0
LINE
8
bottom_outsideCutPath
10
571.125
20
415.25
11
571.125
21
418
0
LINE
8
bottom_outsideCutPath
10
571.125
20
418
11
546.75
21
418
0
LINE
8
bottom_outsideCutPath
10
546.75
20
418
11
546.75
21
415
0
LINE
8
bottom_outsideCutPath
10
546.75
20
415
11
495.25
21
415
0
LINE
8
bottom_outsideCutPath
10
495.25
20
415
11
495.25
21
418
0
LINE
8
bottom_outsideCutPath
10
495.25
20
418
11
470.875
21
418
0
LINE
8
bottom_outsideCutPath
10
470.875
20
418
11
470.875
21
415.25
0
LINE
8
bottom_outsideCutPath
10
470.875
20
415.25
11
469.5
21
415.25
0
LINE
8
bottom_outsideCutPath
10
469.5
20
415.25
11
469.5
21
415.25
0
LINE
8
bottom_outsideCutPath
10
469.5
20
415.25
11
468.125
21
415.25
0
LINE
8
bottom_outsideCutPath
10
468.125
20
415.25
11
468.125
21
418
0
LINE
8
bottom_outsideCutPath
10
468.125
20
418
11
443.75
21
418
0
LINE
8
bottom_outsideCutPath
10
443.75
20
418
11
443.75
21
415
0
LINE
8
bottom_outsideCutPath
10
443.75
20
415
11
421
21
415
0
ENDSEC
0
EOF