0
SECTION
2
HEADER
9
$INSUNITS
70
1
0
ENDSEC
0
SECTION
2
TABLES
0
TABLE
2
LAYER
0
ENDTAB
0
ENDSEC
0
SECTION
2
ENTITIES
0
LINE
8
front_outsideCutPath
10
0
20
259
11
0
21
227
0
LINE
8
front_outsideCutPath
10
0
20
227
11
3
21
227
0
LINE
8
front_outsideCutPath
10
3
20
227
11
3
21
196.375
0
LINE
8
front_outsideCutPath
10
3
20
196.375
11
5.75
21
196.375
0
LINE
8
front_outsideCutPath
10
5.75
20
196.375
11
5.75
21
197.625
0
LINE
8
front_outsideCutPath
10
5.75
20
197.625
11
8
21
197.625
0
LINE
8
front_outsideCutPath
10
8
20
197.625
11
8
21
196.375
0
LINE
8
front_outsideCutPath
10
8
20
196.375
11
10.25
21
196.375
0
LINE
8
front_outsideCutPath
10
10.25
20
196.375
11
10.25
21
193.625
0
LINE
8
front_outsideCutPath
10
10.25
20
193.625
11
8
21
193.625
0
LINE
8
front_outsideCutPath
10
8
20
193.625
11
8
21
192.375
0
LINE
8
front_outsideCutPath
10
8
20
192.375
11
5.75
21
192.375
0
LINE
8
front_outsideCutPath
10
5.75
20
192.375
11
5.75
21
193.625
0
LINE
8
front_outsideCutPath
10
5.75
20
193.625
11
3
21
193.625
0
LINE
8
front_outsideCutPath
10
3
20
193.625
11
3
21
163
0
LINE
8
front_outsideCutPath
10
3
20
163
11
0
21
163
0
LINE
8
front_outsideCutPath
10
0
20
163
11
0
21
99
0
LINE
8
front_outsideCutPath
10
0
20
99
11
3
21
99
0
LINE
8
front_outsideCutPath
10
3
20
99
11
3
21
68.375
0
LINE
8
front_outsideCutPath
10
3
20
68.375
11
5.75
21
68.375
0
LINE
8
front_outsideCutPath
10
5.75
20
68.375
11
5.75
21
69.625
0
LINE
8
front_outsideCutPath
10
5.75
20
69.625
11
8
21
69.625
0
LINE
8
front_outsideCutPath
10
8
20
69.625
11
8
21
68.375
0
LINE
8
front_outsideCutPath
10
8
20
68.375
11
10.25
21
68.375
0
LINE
8
front_outsideCutPath
10
10.25
20
68.375
11
10.25
21
65.625
0
LINE
8
front_outsideCutPath
10
10.25
20
65.625
11
8
21
65.625
0
LINE
8
front_outsideCutPath
10
8
20
65.625
11
8
21
64.375
0
LINE
8
front_outsideCutPath
10
8
20
64.375
11
5.75
21
64.375
0
LINE
8
front_outsideCutPath
10
5.75
20
64.375
11
5.75
21
65.625
0
LINE
8
front_outsideCutPath
10
5.75
20
65.625
11
3
21
65.625
0
LINE
8
front_outsideCutPath
10
3
20
65.625
11
3
21
35
0
LINE
8
front_outsideCutPath
10
3
20
35
11
0
21
35
0
LINE
8
front_outsideCutPath
10
0
20
35
11
0
21
3
0
LINE
8
front_outsideCutPath
10
0
20
3
11
25.75
21
3
0
LINE
8
front_outsideCutPath
10
25.75
20
3
11
25.75
21
6
0
LINE
8
front_outsideCutPath
10
25.75
20
6
11
50.125
21
6
0
LINE
8
front_outsideCutPath
10
50.125
20
6
11
50.125
21
8.75
0
LINE
8
front_outsideCutPath
10
50.125
20
8.75
11
48.875
21
8.75
0
LINE
8
front_outsideCutPath
10
48.875
20
8.75
11
48.875
21
11
0
LINE
8
front_outsideCutPath
10
48.875
20
11
11
50.125
21
11
0
LINE
8
front_outsideCutPath
10
50.125
20
11
11
50.125
21
13.25
0
LINE
8
front_outsideCutPath
10
50.125
20
13.25
11
52.875
21
13.25
0
LINE
8
front_outsideCutPath
10
52.875
20
13.25
11
52.875
21
11
0
LINE
8
front_outsideCutPath
10
52.875
20
11
11
54.125
21
11
0
LINE
8
front_outsideCutPath
10
54.125
20
11
11
54.125
21
8.75
0
LINE
8
front_outsideCutPath
10
54.125
20
8.75
11
52.875
21
8.75
0
LINE
8
front_outsideCutPath
10
52.875
20
8.75
11
52.875
21
6
0
LINE
8
front_outsideCutPath
10
52.875
20
6
11
77.25
21
6
0
LINE
8
front_outsideCutPath
10
77.25
20
6
11
77.25
21
3
0
LINE
8
front_outsideCutPath
10
77.25
20
3
11
128.75
21
3
0
LINE
8
front_outsideCutPath
10
128.75
20
3
11
128.75
21
6
0
LINE
8
front_outsideCutPath
10
128.75
20
6
11
153.125
21
6
0
LINE
8
front_outsideCutPath
10
153.125
20
6
11
153.125
21
8.75
0
LINE
8
front_outsideCutPath
10
153.125
20
8.75
11
151.875
21
8.75
0
LINE
8
front_outsideCutPath
10
151.875
20
8.75
11
151.875
21
11
0
LINE
8
front_outsideCutPath
10
151.875
20
11
11
153.125
21
11
0
LINE
8
front_outsideCutPath
10
153.125
20
11
11
153.125
21
13.25
0
LINE
8
front_outsideCutPath
10
153.125
20
13.25
11
155.875
21
13.25
0
LINE
8
front_outsideCutPath
10
155.875
20
13.25
11
155.875
21
11
0
LINE
8
front_outsideCutPath
10
155.875
20
11
11
157.125
21
11
0
LINE
8
front_outsideCutPath
10
157.125
20
11
11
157.125
21
8.75
0
LINE
8
front_outsideCutPath
10
157.125
20
8.75
11
155.875
21
8.75
0
LINE
8
front_outsideCutPath
10
155.875
20
8.75
11
155.875
21
6
0
LINE
8
front_outsideCutPath
10
155.875
20
6
11
180.25
21
6
0
LINE
8
front_outsideCutPath
10
180.25
20
6
11
180.25
21
3
0
LINE
8
front_outsideCutPath
10
180.25
20
3
11
206
21
3
0
LINE
8
front_outsideCutPath
10
206
20
3
11
206
21
35
0
LINE
8
front_outsideCutPath
10
206
20
35
11
203
21
35
0
LINE
8
front_outsideCutPath
10
203
20
35
11
203
21
65.625
0
LINE
8
front_outsideCutPath
10
203
20
65.625
11
200.25
21
65.625
0
LINE
8
front_outsideCutPath
10
200.25
20
65.625
11
200.25
21
64.375
0
LINE
8
front_outsideCutPath
10
200.25
20
64.375
11
198
21
64.375
0
LINE
8
front_outsideCutPath
10
198
20
64.375
11
198
21
65.625
0
LINE
8
front_outsideCutPath
10
198
20
65.625
11
195.75
21
65.625
0
LINE
8
front_outsideCutPath
10
195.75
20
65.625
11
195.75
21
68.375
0
LINE
8
front_outsideCutPath
10
195.75
20
68.375
11
198
21
68.375
0
LINE
8
front_outsideCutPath
10
198
20
68.375
11
198
21
69.625
0
LINE
8
front_outsideCutPath
10
198
20
69.625
11
200.25
21
69.625
0
LINE
8
front_outsideCutPath
10
200.25
20
69.625
11
200.25
21
68.375
0
LINE
8
front_outsideCutPath
10
200.25
20
68.375
11
203
21
68.375
0
LINE
8
front_outsideCutPath
10
203
20
68.375
11
203
21
99
0
LINE
8
front_outsideCutPath
10
203
20
99
11
206
21
99
0
LINE
8
front_outsideCutPath
10
206
20
99
11
206
21
163
0
LINE
8
front_outsideCutPath
10
206
20
163
11
203
21
163
0
LINE
8
front_outsideCutPath
10
203
20
163
11
203
21
193.625
0
LINE
8
front_outsideCutPath
10
203
20
193.625
11
200.25
21
193.625
0
LINE
8
front_outsideCutPath
10
200.25
20
193.625
11
200.25
21
192.375
0
LINE
8
front_outsideCutPath
10
200.25
20
192.375
11
198
21
192.375
0
LINE
8
front_outsideCutPath
10
198
20
192.375
11
198
21
193.625
0
LINE
8
front_outsideCutPath
10
198
20
193.625
11
195.75
21
193.625
0
LINE
8
front_outsideCutPath
10
195.75
20
193.625
11
195.75
21
196.375
0
LINE
8
front_outsideCutPath
10
195.75
20
196.375
11
198
21
196.375
0
LINE
8
front_outsideCutPath
10
198
20
196.375
11
198
21
197.625
0
LINE
8
front_outsideCutPath
10
198
20
197.625
11
200.25
21
197.625
0
LINE
8
front_outsideCutPath
10
200.25
20
197.625
11
200.25
21
196.375
0
LINE
8
front_outsideCutPath
10
200.25
20
196.375
11
203
21
196.375
0
LINE
8
front_outsideCutPath
10
203
20
196.375
11
203
21
227
0
LINE
8
front_outsideCutPath
10
203
20
227
11
206
21
227
0
LINE
8
front_outsideCutPath
10
206
20
227
11
206
21
259
0
LINE
8
front_outsideCutPath
10
206
20
259
11
180.25
21
259
0
LINE
8
front_outsideCutPath
10
180.25
20
259
11
180.25
21
256
0
LINE
8
front_outsideCutPath
10
180.25
20
256
11
155.875
21
256
0
LINE
8
front_outsideCutPath
10
155.875
20
256
11
155.875
21
253.25
0
LINE
8
front_outsideCutPath
10
155.875
20
253.25
11
157.125
21
253.25
0
LINE
8
front_outsideCutPath
10
157.125
20
253.25
11
157.125
21
251
0
LINE
8
front_outsideCutPath
10
157.125
20
251
11
155.875
21
251
0
LINE
8
front_outsideCutPath
10
155.875
20
251
11
155.875
21
248.75
0
LINE
8
front_outsideCutPath
10
155.875
20
248.75
11
153.125
21
248.75
0
LINE
8
front_outsideCutPath
10
153.125
20
248.75
11
153.125
21
251
0
LINE
8
front_outsideCutPath
10
153.125
20
251
11
151.875
21
251
0
LINE
8
front_outsideCutPath
10
151.875
20
251
11
151.875
21
253.25
0
LINE
8
front_outsideCutPath
10
151.875
20
253.25
11
153.125
21
253.25
0
LINE
8
front_outsideCutPath
10
153.125
20
253.25
11
153.125
21
256
0
LINE
8
front_outsideCutPath
10
153.125
20
256
11
128.75
21
256
0
LINE
8
front_outsideCutPath
10
128.75
20
256
11
128.75
21
259
0
LINE
8
front_outsideCutPath
10
128.75
20
259
11
77.25
21
259
0
LINE
8
front_outsideCutPath
10
77.25
20
259
11
77.25
21
256
0
LINE
8
front_outsideCutPath
10
77.25
20
256
11
52.875
21
256
0
LINE
8
front_outsideCutPath
10
52.875
20
256
11
52.875
21
253.25
0
LINE
8
front_outsideCutPath
10
52.875
20
253.25
11
54.125
21
253.25
0
LINE
8
front_outsideCutPath
10
54.125
20
253.25
11
54.125
21
251
0
LINE
8
front_outsideCutPath
10
54.125
20
251
11
52.875
21
251
0
LINE
8
front_outsideCutPath
10
52.875
20
251
11
52.875
21
248.75
0
LINE
8
front_outsideCutPath
10
52.875
20
248.75
11
50.125
21
248.75
0
LINE
8
front_outsideCutPath
10
50.125
20
248.75
11
50.125
21
251
0
LINE
8
front_outsideCutPath
10
50.125
20
251
11
48.875
21
251
0
LINE
8
front_outsideCutPath
10
48.875
20
251
11
48.875
21
253.25
0
LINE
8
front_outsideCutPath
10
48.875
20
253.25
11
50.125
21
253.25
0
LINE
8
front_outsideCutPath
10
50.125
20
253.25
11
50.125
21
256
0
LINE
8
front_outsideCutPath
10
50.125
20
256
11
25.75
21
256
0
LINE
8
front_outsideCutPath
10
25.75
20
256
11
25.75
21
259
0
LINE
8
front_outsideCutPath
10
25.75
20
259
11
0
21
259
0
LINE
8
front_labelLayer
10
68.8711914
20
137.4882292
11
68.8711914
21
134.893112
0
LINE
8
front_labelLayer
10
68.8711914
20
134.893112
11
63.2584961
21
134.893112
0
LINE
8
front_labelLayer
10
63.2584961
20
134.893112
11
63.2584961
21
115.4397917
0
LINE
8
front_labelLayer
10
63.2584961
20
115.4397917
11
59.919043
21
115.4397917
0
LINE
8
front_labelLayer
10
59.919043
20
115.4397917
11
59.919043
21
134.893112
0
LINE
8
front_labelLayer
10
59.919043
20
134.893112
11
55.9760742
21
134.893112
0
LINE
8
front_labelLayer
10
55.9760742
20
134.893112
11
55.9760742
21
136.401901
0
LINE
8
front_labelLayer
10
55.9760742
20
136.401901
11
59.919043
21
137.6089323
0
LINE
8
front_labelLayer
10
59.919043
20
137.6089323
11
59.919043
21
138.8360807
0
LINE
8
front_labelLayer
10
71.1243164
20
146.2593229
11
70.2592773
21
143.583737
0
LINE
8
front_labelLayer
10
63.2584961
20
138.9165495
11
63.2584961
21
137.4882292
0
LINE
8
front_labelLayer
10
63.2584961
20
137.4882292
11
68.8711914
21
137.4882292
0
ARC
8
front_labelLayer
10
73.4526804
20
138.9916704
40
13.5345318
50
167.5775982
51
180.658673
0
ARC
8
front_labelLayer
10
67.0882974
20
140.4754763
40
7.0004151
50
141.7433831
51
168.232213
0
ARC
8
front_labelLayer
10
66.0520494
20
141.0163199
40
5.8558435
50
98.2551532
51
139.6203344
0
ARC
8
front_labelLayer
10
66.9618942
20
136.8131767
40
10.1504165
50
89.6696951
51
99.9314272
0
ARC
8
front_labelLayer
10
66.9644327
20
136.2097751
40
10.7537951
50
81.5640871
51
89.7017531
0
ARC
8
front_labelLayer
10
66.2084194
20
130.935398
40
16.0820368
50
75.973991
51
81.6564815
0
ARC
8
front_labelLayer
10
64.9110245
20
125.5541024
40
21.6173808
50
73.2963747
51
76.094611
0
ARC
8
front_labelLayer
10
65.2377481
20
128.1644723
40
16.2163337
50
71.9613352
51
76.5918164
0
ARC
8
front_labelLayer
10
66.4958377
20
133.5013841
40
10.7331657
50
76.5183516
51
83.0216796
0
ARC
8
front_labelLayer
10
66.9340714
20
137.0255905
40
7.1818264
50
83.0760743
51
89.7926769
0
ARC
8
front_labelLayer
10
66.9196504
20
139.7039388
40
4.5036122
50
89.4859128
51
103.4197488
0
ARC
8
front_labelLayer
10
66.5136179
20
141.2638719
40
2.8922257
50
102.7677406
51
144.3380261
0
ARC
8
front_labelLayer
10
67.331607
20
140.7375714
40
3.8639664
50
145.0688658
51
162.1801774
0
ARC
8
front_labelLayer
10
70.1362036
20
139.7939634
40
6.8228934
50
161.8437581
51
171.784703
0
ARC
8
front_labelLayer
10
74.7105419
20
139.1069089
40
11.4484962
50
171.6527686
51
178.4383557
0
ARC
8
front_labelLayer
10
79.0249536
20
138.9229315
40
15.7664588
50
178.1973071
51
180.0231924
0
LINE
8
front_labelLayer
10
85.5885742
20
137.6491667
11
85.1258789
21
134.5511198
0
LINE
8
front_labelLayer
10
76.234082
20
127.2686979
11
76.234082
21
115.4397917
0
LINE
8
front_labelLayer
10
76.234082
20
115.4397917
11
72.8946289
21
115.4397917
0
LINE
8
front_labelLayer
10
72.8946289
20
115.4397917
11
72.8946289
21
137.4882292
0
LINE
8
front_labelLayer
10
72.8946289
20
137.4882292
11
75.6506836
21
137.4882292
0
LINE
8
front_labelLayer
10
75.6506836
20
137.4882292
11
76.0329101
21
133.4044401
0
LINE
8
front_labelLayer
10
76.0329101
20
133.4044401
11
76.1938476
21
133.4044401
0
ARC
8
front_labelLayer
10
82.9875016
20
122.5597238
40
15.3308874
50
84.9922932
51
90.1281102
0
ARC
8
front_labelLayer
10
83.3556787
20
126.6847231
40
11.1894972
50
78.4891907
51
85.0266089
0
ARC
8
front_labelLayer
10
81.9266331
20
120.1850604
40
14.7179767
50
77.445396
51
81.6360185
0
ARC
8
front_labelLayer
10
82.5678938
20
124.6051758
40
10.2515988
50
81.5884307
51
87.1916669
0
ARC
8
front_labelLayer
10
82.7071614
20
127.0201225
40
7.8327565
50
87.3436701
51
89.9659495
0
ARC
8
front_labelLayer
10
82.6748076
20
129.0667124
40
5.7862835
50
89.6335366
51
137.0880802
0
ARC
8
front_labelLayer
10
84.0948648
20
127.4698214
40
7.9162107
50
135.6209231
51
138.8377424
0
ARC
8
front_labelLayer
10
83.8867846
20
127.6729251
40
7.625893
50
138.957574
51
174.5422232
0
ARC
8
front_labelLayer
10
86.3703624
20
127.2843166
40
10.1362922
50
173.6907602
51
180.0882855
0
ARC
8
front_labelLayer
10
86.0192414
20
127.8688565
40
11.2774575
50
139.4139389
51
150.603281
0
ARC
8
front_labelLayer
10
83.9971744
20
129.6015532
40
8.6145657
50
124.23214
51
139.4161053
0
ARC
8
front_labelLayer
10
82.9160035
20
131.2335775
40
6.6570994
50
89.6796633
51
124.4405628
0
ARC
8
front_labelLayer
10
91.4942077
20
126.3678387
40
17.2496413
50
349.1761908
51
0.386264
0
ARC
8
front_labelLayer
10
97.3017553
20
125.2100924
40
11.3280971
50
330.2507037
51
349.4116481
0
ARC
8
front_labelLayer
10
99.0890084
20
124.2811517
40
9.3157959
50
318.1439838
51
329.7566089
0
ARC
8
front_labelLayer
10
99.4115998
20
124.0226273
40
8.9030478
50
278.8959155
51
317.9979136
0
ARC
8
front_labelLayer
10
98.5804418
20
128.0047836
40
12.9674588
50
269.7502871
51
279.803319
0
ARC
8
front_labelLayer
10
98.445645
20
125.7610852
40
10.723923
50
253.5436936
51
270.4182423
0
ARC
8
front_labelLayer
10
98.0886676
20
124.3802056
40
9.298612
50
238.8115568
51
253.2428324
0
ARC
8
front_labelLayer
10
97.9734573
20
124.1485182
40
9.0407739
50
207.7947053
51
238.6757975
0
ARC
8
front_labelLayer
10
99.6266434
20
125.1610121
40
10.9760621
50
205.6560151
51
208.4461195
0
ARC
8
front_labelLayer
10
100.8999762
20
125.6915655
40
12.353785
50
188.9102465
51
205.3171423
0
ARC
8
front_labelLayer
10
105.1912532
20
126.418368
40
16.7059332
50
179.7744658
51
189.0932821
0
ARC
8
front_labelLayer
10
105.824281
20
126.6015692
40
17.3392296
50
169.244298
51
180.3880772
0
ARC
8
front_labelLayer
10
99.9360146
20
127.7654651
40
11.3372883
50
150.7111496
51
169.4695413
0
ARC
8
front_labelLayer
10
98.0562961
20
128.7307698
40
9.2259523
50
138.1759464
51
150.2287433
0
ARC
8
front_labelLayer
10
97.7436192
20
128.9707122
40
8.8329921
50
99.1759375
51
137.983276
0
ARC
8
front_labelLayer
10
98.6042225
20
124.9206104
40
12.9701037
50
89.7326344
51
100.0759766
0
ARC
8
front_labelLayer
10
98.7762271
20
126.6697184
40
11.2214083
50
73.5222712
51
90.5692243
0
ARC
8
front_labelLayer
10
99.4342974
20
129.060658
40
8.7421348
50
41.144565
51
73.2133871
0
ARC
8
front_labelLayer
10
98.1780942
20
127.9809689
40
10.398523
50
13.5014371
51
41.0703399
0
ARC
8
front_labelLayer
10
93.3247906
20
126.7109223
40
15.414555
50
1.1277153
51
13.8800084
0
ARC
8
front_labelLayer
10
89.1447164
20
126.4869057
40
19.5987407
50
359.9918785
51
1.5419849
0
ARC
8
front_labelLayer
10
108.8563074
20
126.3973426
40
16.9109246
50
179.705963
51
187.9160788
0
ARC
8
front_labelLayer
10
102.653918
20
125.5063767
40
10.6449702
50
187.7639329
51
200.0976814
0
ARC
8
front_labelLayer
10
99.2370356
20
124.2544288
40
7.0059518
50
200.0845999
51
216.9131532
0
ARC
8
front_labelLayer
10
97.9893058
20
123.363492
40
5.4733588
50
217.3009535
51
261.7099084
0
ARC
8
front_labelLayer
10
98.5685418
20
126.1275579
40
8.2938983
50
260.5033298
51
270.2476781
0
ARC
8
front_labelLayer
10
98.6791001
20
125.5900735
40
7.7566963
50
269.4481694
51
284.7255668
0
ARC
8
front_labelLayer
10
99.2931519
20
123.312751
40
5.3981092
50
284.5662354
51
322.633383
0
ARC
8
front_labelLayer
10
97.8574738
20
124.3499658
40
7.1687938
50
323.0089162
51
342.6390554
0
ARC
8
front_labelLayer
10
93.7510873
20
125.6920499
40
11.488709
50
342.3615784
51
353.7537496
0
ARC
8
front_labelLayer
10
87.6928465
20
126.4222881
40
17.5905627
50
353.5363142
51
0.2014234
0
ARC
8
front_labelLayer
10
88.6210679
20
126.5691719
40
16.6624499
50
359.707564
51
7.8972736
0
ARC
8
front_labelLayer
10
94.7233205
20
127.4439872
40
10.4979113
50
7.7439914
51
20.0690221
0
ARC
8
front_labelLayer
10
98.1237365
20
128.691813
40
6.8757771
50
20.0257026
51
37.4350512
0
ARC
8
front_labelLayer
10
99.2519672
20
129.4923886
40
5.4935027
50
37.9577645
51
80.4006177
0
ARC
8
front_labelLayer
10
98.6108296
20
126.6316982
40
8.4224807
50
79.3453405
51
90.3174806
0
ARC
8
front_labelLayer
10
98.4921146
20
127.1068598
40
7.9475162
50
89.4805975
51
103.8804956
0
ARC
8
front_labelLayer
10
97.8243181
20
129.6498313
40
5.3187387
50
103.4685222
51
142.3118903
0
ARC
8
front_labelLayer
10
99.1225665
20
128.7368102
40
6.9046622
50
142.9025715
51
162.3749602
0
ARC
8
front_labelLayer
10
103.2133592
20
127.3735654
40
11.2163623
50
162.0653208
51
173.1674851
0
ARC
8
front_labelLayer
10
109.5919313
20
126.5600127
40
17.6464891
50
173.0086078
51
180.2463897
0
LINE
8
front_labelLayer
10
133.0249023
20
115.4397917
11
129.6854492
21
115.4397917
0
LINE
8
front_labelLayer
10
129.6854492
20
115.4397917
11
129.6854492
21
129.7028776
0
LINE
8
front_labelLayer
10
117.9370117
20
127.0071745
11
117.9370117
21
115.4397917
0
LINE
8
front_labelLayer
10
117.9370117
20
115.4397917
11
114.5975586
21
115.4397917
0
LINE
8
front_labelLayer
10
114.5975586
20
115.4397917
11
114.5975586
21
137.4882292
0
LINE
8
front_labelLayer
10
114.5975586
20
137.4882292
11
117.3133789
21
137.4882292
0
LINE
8
front_labelLayer
10
117.3133789
20
137.4882292
11
117.856543
21
134.470651
0
LINE
8
front_labelLayer
10
117.856543
20
134.470651
11
118.0174805
21
134.470651
0
LINE
8
front_labelLayer
10
133.0249023
20
129.8235807
11
133.0249023
21
115.4397917
0
ARC
8
front_labelLayer
10
120.2458138
20
129.7570141
40
9.4397906
50
359.6714109
51
8.6877265
0
ARC
8
front_labelLayer
10
123.7444611
20
130.3118771
40
5.8975083
50
8.4931378
51
22.6579757
0
ARC
8
front_labelLayer
10
125.5220229
20
131.050575
40
3.9725701
50
22.7024405
51
42.3419531
0
ARC
8
front_labelLayer
10
125.7218303
20
131.1404544
40
3.764963
50
43.379094
51
71.5386036
0
ARC
8
front_labelLayer
10
124.9746567
20
129.0526589
40
5.9821082
50
71.0827995
51
84.3691118
0
ARC
8
front_labelLayer
10
124.6392614
20
126.2010251
40
8.8530551
50
84.0197821
51
90.1510756
0
ARC
8
front_labelLayer
10
124.5441782
20
124.9473168
40
10.1069873
50
89.5933094
51
100.3717894
0
ARC
8
front_labelLayer
10
123.8299263
20
128.694763
40
6.2922452
50
100.1176436
51
118.1602508
0
ARC
8
front_labelLayer
10
123.1101359
20
130.1062126
40
4.7082755
50
118.5439337
51
139.1926983
0
ARC
8
front_labelLayer
10
123.7377585
20
129.6850696
40
5.4593197
50
140.1519261
51
160.3146344
0
ARC
8
front_labelLayer
10
127.5276962
20
128.2655201
40
9.5061317
50
159.9534339
51
171.3801142
0
ARC
8
front_labelLayer
10
133.7186443
20
127.2703467
40
15.7764039
50
171.1765827
51
178.3217674
0
ARC
8
front_labelLayer
10
139.3306191
20
127.0160018
40
21.3936094
50
178.0810508
51
180.0236412
0
ARC
8
front_labelLayer
10
123.7301247
20
130.8526435
40
6.7619733
50
116.9442912
51
147.6525598
0
ARC
8
front_labelLayer
10
124.433972
20
129.6754146
40
8.1308848
50
115.8071996
51
117.6067814
0
ARC
8
front_labelLayer
10
124.793782
20
128.8364523
40
9.042908
50
94.3226748
51
115.5454375
0
ARC
8
front_labelLayer
10
125.0102215
20
126.9559839
40
10.9345918
50
89.9578702
51
94.7108812
0
ARC
8
front_labelLayer
10
125.099683
20
124.706095
40
13.1847293
50
80.5585363
51
90.3538279
0
ARC
8
front_labelLayer
10
125.923649
20
129.4788139
40
8.3415533
50
65.1094116
51
80.7638299
0
ARC
8
front_labelLayer
10
126.8868204
20
131.6122082
40
6.000986
50
46.5584518
51
64.8782401
0
ARC
8
front_labelLayer
10
126.9639085
20
131.8344398
40
5.7874322
50
19.3848751
51
45.59971
0
ARC
8
front_labelLayer
10
123.6156962
20
130.5781306
40
9.3631104
50
6.9633677
51
19.836345
0
ARC
8
front_labelLayer
10
118.4517127
20
129.8838257
40
14.5733141
50
359.763143
51
7.2115656
0
LINE
8
front_labelLayer
10
150.0239258
20
118.1958463
11
150.0239258
21
115.6409635
0
LINE
8
front_labelLayer
10
140.1262695
20
121.7767057
11
140.1262695
21
134.893112
0
LINE
8
front_labelLayer
10
140.1262695
20
134.893112
11
136.9678711
21
134.893112
0
LINE
8
front_labelLayer
10
136.9678711
20
134.893112
11
136.9678711
21
136.502487
0
LINE
8
front_labelLayer
10
136.9678711
20
136.502487
11
140.1262695
21
137.8905729
0
LINE
8
front_labelLayer
10
140.1262695
20
137.8905729
11
141.5344726
21
142.5979948
0
LINE
8
front_labelLayer
10
141.5344726
20
142.5979948
11
143.4657226
21
142.5979948
0
LINE
8
front_labelLayer
10
143.4657226
20
142.5979948
11
143.4657226
21
137.4882292
0
LINE
8
front_labelLayer
10
143.4657226
20
137.4882292
11
149.8629883
21
137.4882292
0
LINE
8
front_labelLayer
10
149.8629883
20
137.4882292
11
149.8629883
21
134.893112
0
LINE
8
front_labelLayer
10
149.8629883
20
134.893112
11
143.4657226
21
134.893112
0
LINE
8
front_labelLayer
10
143.4657226
20
134.893112
11
143.4657226
21
121.917526
0
ARC
8
front_labelLayer
10
147.0292493
20
128.7607153
40
10.9672366
50
269.8803556
51
278.3028212
0
ARC
8
front_labelLayer
10
147.1337347
20
127.9070185
40
10.107419
50
278.4155589
51
279.0081799
0
ARC
8
front_labelLayer
10
145.9031346
20
135.7686294
40
18.0647533
50
278.9589757
51
280.5104496
0
ARC
8
front_labelLayer
10
147.0757473
20
129.4768279
40
11.6646172
50
280.4848084
51
282.6267838
0
ARC
8
front_labelLayer
10
148.1043483
20
124.9070045
40
6.9804664
50
282.5876873
51
285.5794965
0
ARC
8
front_labelLayer
10
148.6190858
20
123.013692
40
5.0184869
50
285.7241644
51
286.2562045
0
ARC
8
front_labelLayer
10
148.6199453
20
118.6104558
40
3.2846682
50
287.988778
51
295.304856
0
ARC
8
front_labelLayer
10
147.8276955
20
121.0073663
40
5.8090968
50
283.3069154
51
288.1197863
0
ARC
8
front_labelLayer
10
146.9907886
20
124.4983469
40
9.3989833
50
280.0069729
51
283.37353
0
ARC
8
front_labelLayer
10
146.4305256
20
127.5389238
40
12.4906806
50
279.1863334
51
280.1142395
0
ARC
8
front_labelLayer
10
146.0870557
20
129.4924818
40
14.474042
50
275.526042
51
279.2939556
0
ARC
8
front_labelLayer
10
146.4743984
20
125.4467082
40
10.4097713
50
270.8932558
51
275.5483779
0
ARC
8
front_labelLayer
10
146.5230493
20
123.5981253
40
8.5606776
50
270.0032517
51
270.7605603
0
ARC
8
front_labelLayer
10
146.3887773
20
123.7585682
40
8.7221614
50
253.7847964
51
270.8852578
0
ARC
8
front_labelLayer
10
145.355434
20
120.2344725
40
5.0497051
50
190.3817663
51
253.8772375
0
ARC
8
front_labelLayer
10
150.622381
20
121.6585603
40
10.4967764
50
179.3550997
51
192.8477548
0
ARC
8
front_labelLayer
10
150.1901437
20
121.8754679
40
6.7245526
50
179.6416463
51
189.750578
0
ARC
8
front_labelLayer
10
147.8162513
20
121.4520573
40
4.3132708
50
189.5479619
51
205.7873507
0
ARC
8
front_labelLayer
10
146.8406739
20
121.0021888
40
3.2391968
50
206.1294334
51
221.4083953
0
ARC
8
front_labelLayer
10
146.7312869
20
120.9191883
40
3.102273
50
221.5949212
51
262.3505178
0
ARC
8
front_labelLayer
10
146.9914451
20
122.2570335
40
4.4635558
50
261.3266451
51
270.1912951
0
LINE
8
left_outsideCutPath
10
212
20
259
11
212
21
227
0
LINE
8
left_outsideCutPath
10
212
20
227
11
209
21
227
0
LINE
8
left_outsideCutPath
10
209
20
227
11
209
21
196.375
0
LINE
8
left_outsideCutPath
10
209
20
196.375
11
211.75
21
196.375
0
LINE
8
left_outsideCutPath
10
211.75
20
196.375
11
211.75
21
195
0
LINE
8
left_outsideCutPath
10
211.75
20
195
11
211.75
21
195
0
LINE
8
left_outsideCutPath
10
211.75
20
195
11
211.75
21
193.625
0
LINE
8
left_outsideCutPath
10
211.75
20
193.625
11
209
21
193.625
0
LINE
8
left_outsideCutPath
10
209
20
193.625
11
209
21
163
0
LINE
8
left_outsideCutPath
10
209
20
163
11
212
21
163
0
LINE
8
left_outsideCutPath
10
212
20
163
11
212
21
99
0
LINE
8
left_outsideCutPath
10
212
20
99
11
209
21
99
0
LINE
8
left_outsideCutPath
10
209
20
99
11
209
21
68.375
0
LINE
8
left_outsideCutPath
10
209
20
68.375
11
211.75
21
68.375
0
LINE
8
left_outsideCutPath
10
211.75
20
68.375
11
211.75
21
67
0
LINE
8
left_outsideCutPath
10
211.75
20
67
11
211.75
21
67
0
LINE
8
left_outsideCutPath
10
211.75
20
67
11
211.75
21
65.625
0
LINE
8
left_outsideCutPath
10
211.75
20
65.625
11
209
21
65.625
0
LINE
8
left_outsideCutPath
10
209
20
65.625
11
209
21
35
0
LINE
8
left_outsideCutPath
10
209
20
35
11
212
21
35
0
LINE
8
left_outsideCutPath
10
212
20
35
11
212
21
3
0
LINE
8
left_outsideCutPath
10
212
20
3
11
234.75
21
3
0
LINE
8
left_outsideCutPath
10
234.75
20
3
11
234.75
21
6
0
LINE
8
left_outsideCutPath
10
234.75
20
6
11
259.125
21
6
0
LINE
8
left_outsideCutPath
10
259.125
20
6
11
259.125
21
8.75
0
LINE
8
left_outsideCutPath
10
259.125
20
8.75
11
257.875
21
8.75
0
LINE
8
left_outsideCutPath
10
257.875
20
8.75
11
257.875
21
11
0
LINE
8
left_outsideCutPath
10
257.875
20
11
11
259.125
21
11
0
LINE
8
left_outsideCutPath
10
259.125
20
11
11
259.125
21
13.25
0
LINE
8
left_outsideCutPath
10
259.125
20
13.25
11
261.875
21
13.25
0
LINE
8
left_outsideCutPath
10
261.875
20
13.25
11
261.875
21
11
0
LINE
8
left_outsideCutPath
10
261.875
20
11
11
263.125
21
11
0
LINE
8
left_outsideCutPath
10
263.125
20
11
11
263.125
21
8.75
0
LINE
8
left_outsideCutPath
10
263.125
20
8.75
11
261.875
21
8.75
0
LINE
8
left_outsideCutPath
10
261.875
20
8.75
11
261.875
21
6
0
LINE
8
left_outsideCutPath
10
261.875
20
6
11
286.25
21
6
0
LINE
8
left_outsideCutPath
10
286.25
20
6
11
286.25
21
3
0
LINE
8
left_outsideCutPath
10
286.25
20
3
11
337.75
21
3
0
LINE
8
left_outsideCutPath
10
337.75
20
3
11
337.75
21
6
0
LINE
8
left_outsideCutPath
10
337.75
20
6
11
362.125
21
6
0
LINE
8
left_outsideCutPath
10
362.125
20
6
11
362.125
21
8.75
0
LINE
8
left_outsideCutPath
10
362.125
20
8.75
11
360.875
21
8.75
0
LINE
8
left_outsideCutPath
10
360.875
20
8.75
11
360.875
21
11
0
LINE
8
left_outsideCutPath
10
360.875
20
11
11
362.125
21
11
0
LINE
8
left_outsideCutPath
10
362.125
20
11
11
362.125
21
13.25
0
LINE
8
left_outsideCutPath
10
362.125
20
13.25
11
364.875
21
13.25
0
LINE
8
left_outsideCutPath
10
364.875
20
13.25
11
364.875
21
11
0
LINE
8
left_outsideCutPath
10
364.875
20
11
11
366.125
21
11
0
LINE
8
left_outsideCutPath
10
366.125
20
11
11
366.125
21
8.75
0
LINE
8
left_outsideCutPath
10
366.125
20
8.75
11
364.875
21
8.75
0
LINE
8
left_outsideCutPath
10
364.875
20
8.75
11
364.875
21
6
0
LINE
8
left_outsideCutPath
10
364.875
20
6
11
389.25
21
6
0
LINE
8
left_outsideCutPath
10
389.25
20
6
11
389.25
21
3
0
LINE
8
left_outsideCutPath
10
389.25
20
3
11
412
21
3
0
LINE
8
left_outsideCutPath
10
412
20
3
11
412
21
35
0
LINE
8
left_outsideCutPath
10
412
20
35
11
415
21
35
0
LINE
8
left_outsideCutPath
10
415
20
35
11
415
21
65.625
0
LINE
8
left_outsideCutPath
10
415
20
65.625
11
412.25
21
65.625
0
LINE
8
left_outsideCutPath
10
412.25
20
65.625
11
412.25
21
67
0
LINE
8
left_outsideCutPath
10
412.25
20
67
11
412.25
21
67
0
LINE
8
left_outsideCutPath
10
412.25
20
67
11
412.25
21
68.375
0
LINE
8
left_outsideCutPath
10
412.25
20
68.375
11
415
21
68.375
0
LINE
8
left_outsideCutPath
10
415
20
68.375
11
415
21
99
0
LINE
8
left_outsideCutPath
10
415
20
99
11
412
21
99
0
LINE
8
left_outsideCutPath
10
412
20
99
11
412
21
163
0
LINE
8
left_outsideCutPath
10
412
20
163
11
415
21
163
0
LINE
8
left_outsideCutPath
10
415
20
163
11
415
21
193.625
0
LINE
8
left_outsideCutPath
10
415
20
193.625
11
412.25
21
193.625
0
LINE
8
left_outsideCutPath
10
412.25
20
193.625
11
412.25
21
195
0
LINE
8
left_outsideCutPath
10
412.25
20
195
11
412.25
21
195
0
LINE
8
left_outsideCutPath
10
412.25
20
195
11
412.25
21
196.375
0
LINE
8
left_outsideCutPath
10
412.25
20
196.375
11
415
21
196.375
0
LINE
8
left_outsideCutPath
10
415
20
196.375
11
415
21
227
0
LINE
8
left_outsideCutPath
10
415
20
227
11
412
21
227
0
LINE
8
left_outsideCutPath
10
412
20
227
11
412
21
259
0
LINE
8
left_outsideCutPath
10
412
20
259
11
389.25
21
259
0
LINE
8
left_outsideCutPath
10
389.25
20
259
11
389.25
21
256
0
LINE
8
left_outsideCutPath
10
389.25
20
256
11
364.875
21
256
0
LINE
8
left_outsideCutPath
10
364.875
20
256
11
364.875
21
253.25
0
LINE
8
left_outsideCutPath
10
364.875
20
253.25
11
366.125
21
253.25
0
LINE
8
left_outsideCutPath
10
366.125
20
253.25
11
366.125
21
251
0
LINE
8
left_outsideCutPath
10
366.125
20
251
11
364.875
21
251
0
LINE
8
left_outsideCutPath
10
364.875
20
251
11
364.875
21
248.75
0
LINE
8
left_outsideCutPath
10
364.875
20
248.75
11
362.125
21
248.75
0
LINE
8
left_outsideCutPath
10
362.125
20
248.75
11
362.125
21
251
0
LINE
8
left_outsideCutPath
10
362.125
20
251
11
360.875
21
251
0
LINE
8
left_outsideCutPath
10
360.875
20
251
11
360.875
21
253.25
0
LINE
8
left_outsideCutPath
10
360.875
20
253.25
11
362.125
21
253.25
0
LINE
8
left_outsideCutPath
10
362.125
20
253.25
11
362.125
21
256
0
LINE
8
left_outsideCutPath
10
362.125
20
256
11
337.75
21
256
0
LINE
8
left_outsideCutPath
10
337.75
20
256
11
337.75
21
259
0
LINE
8
left_outsideCutPath
10
337.75
20
259
11
286.25
21
259
0
LINE
8
left_outsideCutPath
10
286.25
20
259
11
286.25
21
256
0
LINE
8
left_outsideCutPath
10
286.25
20
256
11
261.875
21
256
0
LINE
8
left_outsideCutPath
10
261.875
20
256
11
261.875
21
253.25
0
LINE
8
left_outsideCutPath
10
261.875
20
253.25
11
263.125
21
253.25
0
LINE
8
left_outsideCutPath
10
263.125
20
253.25
11
263.125
21
251
0
LINE
8
left_outsideCutPath
10
263.125
20
251
11
261.875
21
251
0
LINE
8
left_outsideCutPath
10
261.875
20
251
11
261.875
21
248.75
0
LINE
8
left_outsideCutPath
10
261.875
20
248.75
11
259.125
21
248.75
0
LINE
8
left_outsideCutPath
10
259.125
20
248.75
11
259.125
21
251
0
LINE
8
left_outsideCutPath
10
259.125
20
251
11
257.875
21
251
0
LINE
8
left_outsideCutPath
10
257.875
20
251
11
257.875
21
253.25
0
LINE
8
left_outsideCutPath
10
257.875
20
253.25
11
259.125
21
253.25
0
LINE
8
left_outsideCutPath
10
259.125
20
253.25
11
259.125
21
256
0
LINE
8
left_outsideCutPath
10
259.125
20
256
11
234.75
21
256
0
LINE
8
left_outsideCutPath
10
234.75
20
256
11
234.75
21
259
0
LINE
8
left_outsideCutPath
10
234.75
20
259
11
212
21
259
0
LINE
8
left_labelLayer
10
286.521582
20
146.7421354
11
286.521582
21
115.4397917
0
LINE
8
left_labelLayer
10
286.521582
20
115.4397917
11
283.1821289
21
115.4397917
0
LINE
8
left_labelLayer
10
283.1821289
20
115.4397917
11
283.1821289
21
146.7421354
0
LINE
8
left_labelLayer
10
283.1821289
20
146.7421354
11
286.521582
21
146.7421354
0
LINE
8
left_labelLayer
10
311.0243164
20
127.9727995
11
311.0243164
21
125.8604948
0
LINE
8
left_labelLayer
10
311.0243164
20
125.8604948
11
295.8358398
21
125.8604948
0
LINE
8
left_labelLayer
10
310.0788086
20
119.443112
11
310.0788086
21
116.4657682
0
LINE
8
left_labelLayer
10
295.9163086
20
128.5763151
11
307.443457
21
128.5763151
0
ARC
8
left_labelLayer
10
302.8072844
20
128.013934
40
12.9769507
50
256.0087868
51
270.4848185
0
ARC
8
left_labelLayer
10
301.8623082
20
124.3453457
40
9.1887781
50
223.54658
51
256.1956965
0
ARC
8
left_labelLayer
10
302.3836077
20
124.724233
40
9.8280191
50
194.0877289
51
223.0538172
0
ARC
8
left_labelLayer
10
307.1601332
20
126.0304384
40
14.7791944
50
181.3574538
51
194.4919999
0
ARC
8
left_labelLayer
10
311.4512275
20
126.2792045
40
19.0755443
50
179.9887327
51
181.7991142
0
ARC
8
left_labelLayer
10
309.9106681
20
126.4005848
40
17.5353791
50
168.9539211
51
180.3843486
0
ARC
8
left_labelLayer
10
304.1837035
20
127.566695
40
11.6911862
50
149.4070985
51
169.1853799
0
ARC
8
left_labelLayer
10
302.5880902
20
128.4097429
40
9.8889948
50
140.1056135
51
148.9067131
0
ARC
8
left_labelLayer
10
301.6077699
20
129.3135503
40
8.557431
50
92.4762668
51
140.5386386
0
ARC
8
left_labelLayer
10
302.0445927
20
126.0854821
40
11.8050932
50
89.9638022
51
93.9176321
0
ARC
8
left_labelLayer
10
302.1488273
20
127.7170021
40
10.1740311
50
74.2125889
51
90.5450124
0
ARC
8
left_labelLayer
10
302.7860571
20
130.0648335
40
7.7414369
50
41.2064688
51
74.0232685
0
ARC
8
left_labelLayer
10
301.5792674
20
129.0204452
40
9.3373746
50
11.5994198
51
41.1496081
0
ARC
8
left_labelLayer
10
297.4327597
20
128.0641812
40
13.5918638
50
359.6147822
51
12.0336337
0
ARC
8
left_labelLayer
10
309.2364892
20
126.12826
40
13.4033243
50
181.1447037
51
190.8007114
0
ARC
8
left_labelLayer
10
304.5079513
20
125.1956585
40
8.5838417
50
190.6005793
51
206.0275269
0
ARC
8
left_labelLayer
10
302.4158794
20
124.2066192
40
6.2700158
50
206.2950263
51
222.5557889
0
ARC
8
left_labelLayer
10
302.2305013
20
124.10956
40
6.06806
50
223.064512
51
258.1401332
0
ARC
8
left_labelLayer
10
302.9684814
20
127.1482666
40
9.1940879
50
257.5311782
51
270.4319405
0
ARC
8
left_labelLayer
10
302.9767185
20
135.5918309
40
17.6374966
50
270.1984019
51
292.2090382
0
ARC
8
left_labelLayer
10
302.1297179
20
138.024316
40
20.2101259
50
291.8255024
51
293.1613736
0
ARC
8
left_labelLayer
10
302.0891641
20
134.8528383
40
20.0479117
50
287.9023016
51
293.4861586
0
ARC
8
left_labelLayer
10
303.5434602
20
130.3658284
40
15.3311111
50
281.993579
51
287.8851167
0
ARC
8
left_labelLayer
10
303.8959227
20
129.0990159
40
14.0189468
50
275.9054553
51
281.6603933
0
ARC
8
left_labelLayer
10
303.1903501
20
135.684831
40
20.6424197
50
271.9119692
51
275.972714
0
ARC
8
left_labelLayer
10
302.9327979
20
142.2445982
40
27.207155
50
269.9669201
51
271.9931497
0
ARC
8
left_labelLayer
10
301.9477347
20
128.5117554
40
6.5828404
50
89.4422363
51
106.2089627
0
ARC
8
left_labelLayer
10
301.5517065
20
129.9557407
40
5.0857567
50
106.4657128
51
137.9176372
0
ARC
8
left_labelLayer
10
302.6871363
20
128.9586439
40
6.5967382
50
138.099472
51
160.5866304
0
ARC
8
left_labelLayer
10
305.6057578
20
127.8849317
40
9.7063971
50
160.335335
51
172.5315209
0
ARC
8
left_labelLayer
10
308.4796255
20
127.4244641
40
12.6160093
50
172.1545101
51
174.761558
0
ARC
8
left_labelLayer
10
296.0639451
20
128.6409584
40
11.3796955
50
359.674525
51
8.9224388
0
ARC
8
left_labelLayer
10
300.1301801
20
129.3034847
40
7.2599483
50
8.7342356
51
23.277188
0
ARC
8
left_labelLayer
10
302.0605802
20
130.1138163
40
5.1664818
50
23.4821457
51
39.7072078
0
ARC
8
left_labelLayer
10
302.5347524
20
130.4686512
40
4.5750988
50
40.0822927
51
80.6243236
0
ARC
8
left_labelLayer
10
302.0466748
20
128.2313085
40
6.8630638
50
79.6468555
51
90.2910144
0
LINE
8
left_labelLayer
10
326.6553711
20
137.4882292
11
326.6553711
21
134.893112
0
LINE
8
left_labelLayer
10
326.6553711
20
134.893112
11
321.0426758
21
134.893112
0
LINE
8
left_labelLayer
10
321.0426758
20
134.893112
11
321.0426758
21
115.4397917
0
LINE
8
left_labelLayer
10
321.0426758
20
115.4397917
11
317.7032226
21
115.4397917
0
LINE
8
left_labelLayer
10
317.7032226
20
115.4397917
11
317.7032226
21
134.893112
0
LINE
8
left_labelLayer
10
317.7032226
20
134.893112
11
313.7602539
21
134.893112
0
LINE
8
left_labelLayer
10
313.7602539
20
134.893112
11
313.7602539
21
136.401901
0
LINE
8
left_labelLayer
10
313.7602539
20
136.401901
11
317.7032226
21
137.6089323
0
LINE
8
left_labelLayer
10
317.7032226
20
137.6089323
11
317.7032226
21
138.8360807
0
LINE
8
left_labelLayer
10
328.9084961
20
146.2593229
11
328.043457
21
143.583737
0
LINE
8
left_labelLayer
10
321.0426758
20
138.9165495
11
321.0426758
21
137.4882292
0
LINE
8
left_labelLayer
10
321.0426758
20
137.4882292
11
326.6553711
21
137.4882292
0
ARC
8
left_labelLayer
10
331.2368601
20
138.9916704
40
13.5345318
50
167.5775982
51
180.658673
0
ARC
8
left_labelLayer
10
324.8724771
20
140.4754763
40
7.0004151
50
141.7433831
51
168.232213
0
ARC
8
left_labelLayer
10
323.8362291
20
141.0163199
40
5.8558435
50
98.2551532
51
139.6203344
0
ARC
8
left_labelLayer
10
324.7460739
20
136.8131767
40
10.1504165
50
89.6696951
51
99.9314272
0
ARC
8
left_labelLayer
10
324.7486124
20
136.2097751
40
10.7537951
50
81.5640871
51
89.7017531
0
ARC
8
left_labelLayer
10
323.9925991
20
130.935398
40
16.0820368
50
75.973991
51
81.6564815
0
ARC
8
left_labelLayer
10
322.6952042
20
125.5541024
40
21.6173808
50
73.2963747
51
76.094611
0
ARC
8
left_labelLayer
10
323.0219278
20
128.1644723
40
16.2163337
50
71.9613352
51
76.5918164
0
ARC
8
left_labelLayer
10
324.2800174
20
133.5013841
40
10.7331657
50
76.5183516
51
83.0216796
0
ARC
8
left_labelLayer
10
324.7182511
20
137.0255905
40
7.1818264
50
83.0760743
51
89.7926769
0
ARC
8
left_labelLayer
10
324.7038301
20
139.7039388
40
4.5036122
50
89.4859128
51
103.4197488
0
ARC
8
left_labelLayer
10
324.2977976
20
141.2638719
40
2.8922257
50
102.7677406
51
144.3380261
0
ARC
8
left_labelLayer
10
325.1157867
20
140.7375714
40
3.8639664
50
145.0688658
51
162.1801774
0
ARC
8
left_labelLayer
10
327.9203832
20
139.7939634
40
6.8228934
50
161.8437581
51
171.784703
0
ARC
8
left_labelLayer
10
332.4947216
20
139.1069089
40
11.4484962
50
171.6527686
51
178.4383557
0
ARC
8
left_labelLayer
10
336.8091333
20
138.9229315
40
15.7664588
50
178.1973071
51
180.0231924
0
LINE
8
left_labelLayer
10
340.8178711
20
118.1958463
11
340.8178711
21
115.6409635
0
LINE
8
left_labelLayer
10
330.9202148
20
121.7767057
11
330.9202148
21
134.893112
0
LINE
8
left_labelLayer
10
330.9202148
20
134.893112
11
327.7618164
21
134.893112
0
LINE
8
left_labelLayer
10
327.7618164
20
134.893112
11
327.7618164
21
136.502487
0
LINE
8
left_labelLayer
10
327.7618164
20
136.502487
11
330.9202148
21
137.8905729
0
LINE
8
left_labelLayer
10
330.9202148
20
137.8905729
11
332.328418
21
142.5979948
0
LINE
8
left_labelLayer
10
332.328418
20
142.5979948
11
334.259668
21
142.5979948
0
LINE
8
left_labelLayer
10
334.259668
20
142.5979948
11
334.259668
21
137.4882292
0
LINE
8
left_labelLayer
10
334.259668
20
137.4882292
11
340.6569336
21
137.4882292
0
LINE
8
left_labelLayer
10
340.6569336
20
137.4882292
11
340.6569336
21
134.893112
0
LINE
8
left_labelLayer
10
340.6569336
20
134.893112
11
334.259668
21
134.893112
0
LINE
8
left_labelLayer
10
334.259668
20
134.893112
11
334.259668
21
121.917526
0
ARC
8
left_labelLayer
10
337.8231946
20
128.7607153
40
10.9672366
50
269.8803556
51
278.3028212
0
ARC
8
left_labelLayer
10
337.92768
20
127.9070185
40
10.107419
50
278.4155589
51
279.0081799
0
ARC
8
left_labelLayer
10
336.6970799
20
135.7686294
40
18.0647533
50
278.9589757
51
280.5104496
0
ARC
8
left_labelLayer
10
337.8696926
20
129.4768279
40
11.6646172
50
280.4848084
51
282.6267838
0
ARC
8
left_labelLayer
10
338.8982936
20
124.9070045
40
6.9804664
50
282.5876873
51
285.5794965
0
ARC
8
left_labelLayer
10
339.4130311
20
123.013692
40
5.0184869
50
285.7241644
51
286.2562045
0
ARC
8
left_labelLayer
10
339.4138906
20
118.6104558
40
3.2846682
50
287.988778
51
295.304856
0
ARC
8
left_labelLayer
10
338.6216409
20
121.0073663
40
5.8090968
50
283.3069154
51
288.1197863
0
ARC
8
left_labelLayer
10
337.7847339
20
124.4983469
40
9.3989833
50
280.0069729
51
283.37353
0
ARC
8
left_labelLayer
10
337.2244709
20
127.5389238
40
12.4906806
50
279.1863334
51
280.1142395
0
ARC
8
left_labelLayer
10
336.8810011
20
129.4924818
40
14.474042
50
275.526042
51
279.2939556
0
ARC
8
left_labelLayer
10
337.2683437
20
125.4467082
40
10.4097713
50
270.8932558
51
275.5483779
0
ARC
8
left_labelLayer
10
337.3169946
20
123.5981253
40
8.5606776
50
270.0032517
51
270.7605603
0
ARC
8
left_labelLayer
10
337.1827226
20
123.7585682
40
8.7221614
50
253.7847964
51
270.8852578
0
ARC
8
left_labelLayer
10
336.1493793
20
120.2344725
40
5.0497051
50
190.3817663
51
253.8772375
0
ARC
8
left_labelLayer
10
341.4163264
20
121.6585603
40
10.4967764
50
179.3550997
51
192.8477548
0
ARC
8
left_labelLayer
10
340.984089
20
121.8754679
40
6.7245526
50
179.6416463
51
189.750578
0
ARC
8
left_labelLayer
10
338.6101966
20
121.4520573
40
4.3132708
50
189.5479619
51
205.7873507
0
ARC
8
left_labelLayer
10
337.6346192
20
121.0021888
40
3.2391968
50
206.1294334
51
221.4083953
0
ARC
8
left_labelLayer
10
337.5252322
20
120.9191883
40
3.102273
50
221.5949212
51
262.3505178
0
ARC
8
left_labelLayer
10
337.7853904
20
122.2570335
40
4.4635558
50
261.3266451
51
270.1912951
0
LINE
8
top_outsideCutPath
10
421
20
206
11
421
21
183.25
0
LINE
8
top_outsideCutPath
10
421
20
183.25
11
418
21
183.25
0
LINE
8
top_outsideCutPath
10
418
20
183.25
11
418
21
158.875
0
LINE
8
top_outsideCutPath
10
418
20
158.875
11
420.75
21
158.875
0
LINE
8
top_outsideCutPath
10
420.75
20
158.875
11
420.75
21
157.5
0
LINE
8
top_outsideCutPath
10
420.75
20
157.5
11
420.75
21
157.5
0
LINE
8
top_outsideCutPath
10
420.75
20
157.5
11
420.75
21
156.125
0
LINE
8
top_outsideCutPath
10
420.75
20
156.125
11
418
21
156.125
0
LINE
8
top_outsideCutPath
10
418
20
156.125
11
418
21
131.75
0
LINE
8
top_outsideCutPath
10
418
20
131.75
11
421
21
131.75
0
LINE
8
top_outsideCutPath
10
421
20
131.75
11
421
21
80.25
0
LINE
8
top_outsideCutPath
10
421
20
80.25
11
418
21
80.25
0
LINE
8
top_outsideCutPath
10
418
20
80.25
11
418
21
55.875
0
LINE
8
top_outsideCutPath
10
418
20
55.875
11
420.75
21
55.875
0
LINE
8
top_outsideCutPath
10
420.75
20
55.875
11
420.75
21
54.5
0
LINE
8
top_outsideCutPath
10
420.75
20
54.5
11
420.75
21
54.5
0
LINE
8
top_outsideCutPath
10
420.75
20
54.5
11
420.75
21
53.125
0
LINE
8
top_outsideCutPath
10
420.75
20
53.125
11
418
21
53.125
0
LINE
8
top_outsideCutPath
10
418
20
53.125
11
418
21
28.75
0
LINE
8
top_outsideCutPath
10
418
20
28.75
11
421
21
28.75
0
LINE
8
top_outsideCutPath
10
421
20
28.75
11
421
21
6
0
LINE
8
top_outsideCutPath
10
421
20
6
11
443.75
21
6
0
LINE
8
top_outsideCutPath
10
443.75
20
6
11
443.75
21
3
0
LINE
8
top_outsideCutPath
10
443.75
20
3
11
468.125
21
3
0
LINE
8
top_outsideCutPath
10
468.125
20
3
11
468.125
21
5.75
0
LINE
8
top_outsideCutPath
10
468.125
20
5.75
11
469.5
21
5.75
0
LINE
8
top_outsideCutPath
10
469.5
20
5.75
11
469.5
21
5.75
0
LINE
8
top_outsideCutPath
10
469.5
20
5.75
11
470.875
21
5.75
0
LINE
8
top_outsideCutPath
10
470.875
20
5.75
11
470.875
21
3
0
LINE
8
top_outsideCutPath
10
470.875
20
3
11
495.25
21
3
0
LINE
8
top_outsideCutPath
10
495.25
20
3
11
495.25
21
6
0
LINE
8
top_outsideCutPath
10
495.25
20
6
11
546.75
21
6
0
LINE
8
top_outsideCutPath
10
546.75
20
6
11
546.75
21
3
0
LINE
8
top_outsideCutPath
10
546.75
20
3
11
571.125
21
3
0
LINE
8
top_outsideCutPath
10
571.125
20
3
11
571.125
21
5.75
0
LINE
8
top_outsideCutPath
10
571.125
20
5.75
11
572.5
21
5.75
0
LINE
8
top_outsideCutPath
10
572.5
20
5.75
11
572.5
21
5.75
0
LINE
8
top_outsideCutPath
10
572.5
20
5.75
11
573.875
21
5.75
0
LINE
8
top_outsideCutPath
10
573.875
20
5.75
11
573.875
21
3
0
LINE
8
top_outsideCutPath
10
573.875
20
3
11
598.25
21
3
0
LINE
8
top_outsideCutPath
10
598.25
20
3
11
598.25
21
6
0
LINE
8
top_outsideCutPath
10
598.25
20
6
11
621
21
6
0
LINE
8
top_outsideCutPath
10
621
20
6
11
621
21
28.75
0
LINE
8
top_outsideCutPath
10
621
20
28.75
11
624
21
28.75
0
LINE
8
top_outsideCutPath
10
624
20
28.75
11
624
21
53.125
0
LINE
8
top_outsideCutPath
10
624
20
53.125
11
621.25
21
53.125
0
LINE
8
top_outsideCutPath
10
621.25
20
53.125
11
621.25
21
54.5
0
LINE
8
top_outsideCutPath
10
621.25
20
54.5
11
621.25
21
54.5
0
LINE
8
top_outsideCutPath
10
621.25
20
54.5
11
621.25
21
55.875
0
LINE
8
top_outsideCutPath
10
621.25
20
55.875
11
624
21
55.875
0
LINE
8
top_outsideCutPath
10
624
20
55.875
11
624
21
80.25
0
LINE
8
top_outsideCutPath
10
624
20
80.25
11
621
21
80.25
0
LINE
8
top_outsideCutPath
10
621
20
80.25
11
621
21
131.75
0
LINE
8
top_outsideCutPath
10
621
20
131.75
11
624
21
131.75
0
LINE
8
top_outsideCutPath
10
624
20
131.75
11
624
21
156.125
0
LINE
8
top_outsideCutPath
10
624
20
156.125
11
621.25
21
156.125
0
LINE
8
top_outsideCutPath
10
621.25
20
156.125
11
621.25
21
157.5
0
LINE
8
top_outsideCutPath
10
621.25
20
157.5
11
621.25
21
157.5
0
LINE
8
top_outsideCutPath
10
621.25
20
157.5
11
621.25
21
158.875
0
LINE
8
top_outsideCutPath
10
621.25
20
158.875
11
624
21
158.875
0
LINE
8
top_outsideCutPath
10
624
20
158.875
11
624
21
183.25
0
LINE
8
top_outsideCutPath
10
624
20
183.25
11
621
21
183.25
0
LINE
8
top_outsideCutPath
10
621
20
183.25
11
621
21
206
0
LINE
8
top_outsideCutPath
10
621
20
206
11
598.25
21
206
0
LINE
8
top_outsideCutPath
10
598.25
20
206
11
598.25
21
209
0
LINE
8
top_outsideCutPath
10
598.25
20
209
11
573.875
21
209
0
LINE
8
top_outsideCutPath
10
573.875
20
209
11
573.875
21
206.25
0
LINE
8
top_outsideCutPath
10
573.875
20
206.25
11
572.5
21
206.25
0
LINE
8
top_outsideCutPath
10
572.5
20
206.25
11
572.5
21
206.25
0
LINE
8
top_outsideCutPath
10
572.5
20
206.25
11
571.125
21
206.25
0
LINE
8
top_outsideCutPath
10
571.125
20
206.25
11
571.125
21
209
0
LINE
8
top_outsideCutPath
10
571.125
20
209
11
546.75
21
209
0
LINE
8
top_outsideCutPath
10
546.75
20
209
11
546.75
21
206
0
LINE
8
top_outsideCutPath
10
546.75
20
206
11
495.25
21
206
0
LINE
8
top_outsideCutPath
10
495.25
20
206
11
495.25
21
209
0
LINE
8
top_outsideCutPath
10
495.25
20
209
11
470.875
21
209
0
LINE
8
top_outsideCutPath
10
470.875
20
209
11
470.875
21
206.25
0
LINE
8
top_outsideCutPath
10
470.875
20
206.25
11
469.5
21
206.25
0
LINE
8
top_outsideCutPath
10
469.5
20
206.25
11
469.5
21
206.25
0
LINE
8
top_outsideCutPath
10
469.5
20
206.25
11
468.125
21
206.25
0
LINE
8
top_outsideCutPath
10
468.125
20
206.25
11
468.125
21
209
0
LINE
8
top_outsideCutPath
10
468.125
20
209
11
443.75
21
209
0
LINE
8
top_outsideCutPath
10
443.75
20
209
11
443.75
21
206
0
LINE
8
top_outsideCutPath
10
443.75
20
206
11
421
21
206
0
LINE
8
top_labelLayer
10
503.1760015
20
100.1257813
11
503.1760015
21
97.5708984
0
LINE
8
top_labelLayer
10
493.2783452
20
103.7066406
11
493.2783452
21
116.8230469
0
LINE
8
top_labelLayer
10
493.2783452
20
116.8230469
11
490.1199468
21
116.8230469
0
LINE
8
top_labelLayer
10
490.1199468
20
116.8230469
11
490.1199468
21
118.4324219
0
LINE
8
top_labelLayer
10
490.1199468
20
118.4324219
11
493.2783452
21
119.8205078
0
LINE
8
top_labelLayer
10
493.2783452
20
119.8205078
11
494.6865484
21
124.5279297
0
LINE
8
top_labelLayer
10
494.6865484
20
124.5279297
11
496.6177984
21
124.5279297
0
LINE
8
top_labelLayer
10
496.6177984
20
124.5279297
11
496.6177984
21
119.4181641
0
LINE
8
top_labelLayer
10
496.6177984
20
119.4181641
11
503.015064
21
119.4181641
0
LINE
8
top_labelLayer
10
503.015064
20
119.4181641
11
503.015064
21
116.8230469
0
LINE
8
top_labelLayer
10
503.015064
20
116.8230469
11
496.6177984
21
116.8230469
0
LINE
8
top_labelLayer
10
496.6177984
20
116.8230469
11
496.6177984
21
103.8474609
0
ARC
8
top_labelLayer
10
500.181325
20
110.6906502
40
10.9672366
50
269.8803556
51
278.3028212
0
ARC
8
top_labelLayer
10
500.2858104
20
109.8369534
40
10.107419
50
278.4155589
51
279.0081799
0
ARC
8
top_labelLayer
10
499.0552103
20
117.6985643
40
18.0647533
50
278.9589757
51
280.5104496
0
ARC
8
top_labelLayer
10
500.227823
20
111.4067629
40
11.6646172
50
280.4848084
51
282.6267838
0
ARC
8
top_labelLayer
10
501.256424
20
106.8369395
40
6.9804664
50
282.5876873
51
285.5794965
0
ARC
8
top_labelLayer
10
501.7711615
20
104.9436269
40
5.0184869
50
285.7241644
51
286.2562045
0
ARC
8
top_labelLayer
10
501.772021
20
100.5403907
40
3.2846682
50
287.988778
51
295.304856
0
ARC
8
top_labelLayer
10
500.9797713
20
102.9373012
40
5.8090968
50
283.3069154
51
288.1197863
0
ARC
8
top_labelLayer
10
500.1428644
20
106.4282818
40
9.3989833
50
280.0069729
51
283.37353
0
ARC
8
top_labelLayer
10
499.5826013
20
109.4688587
40
12.4906806
50
279.1863334
51
280.1142395
0
ARC
8
top_labelLayer
10
499.2391315
20
111.4224167
40
14.474042
50
275.526042
51
279.2939556
0
ARC
8
top_labelLayer
10
499.6264741
20
107.3766431
40
10.4097713
50
270.8932558
51
275.5483779
0
ARC
8
top_labelLayer
10
499.675125
20
105.5280602
40
8.5606776
50
270.0032517
51
270.7605603
0
ARC
8
top_labelLayer
10
499.540853
20
105.6885031
40
8.7221614
50
253.7847964
51
270.8852578
0
ARC
8
top_labelLayer
10
498.5075097
20
102.1644074
40
5.0497051
50
190.3817663
51
253.8772375
0
ARC
8
top_labelLayer
10
503.7744568
20
103.5884952
40
10.4967764
50
179.3550997
51
192.8477548
0
ARC
8
top_labelLayer
10
503.3422194
20
103.8054028
40
6.7245526
50
179.6416463
51
189.750578
0
ARC
8
top_labelLayer
10
500.968327
20
103.3819922
40
4.3132708
50
189.5479619
51
205.7873507
0
ARC
8
top_labelLayer
10
499.9927496
20
102.9321237
40
3.2391968
50
206.1294334
51
221.4083953
0
ARC
8
top_labelLayer
10
499.8833626
20
102.8491232
40
3.102273
50
221.5949212
51
262.3505178
0
ARC
8
top_labelLayer
10
500.1435208
20
104.1869684
40
4.4635558
50
261.3266451
51
270.1912951
0
ARC
8
top_labelLayer
10
509.3632756
20
108.2977736
40
17.2496413
50
349.1761908
51
0.386264
0
ARC
8
top_labelLayer
10
515.1708233
20
107.1400273
40
11.3280971
50
330.2507037
51
349.4116481
0
ARC
8
top_labelLayer
10
516.9580763
20
106.2110866
40
9.3157959
50
318.1439838
51
329.7566089
0
ARC
8
top_labelLayer
10
517.2806677
20
105.9525622
40
8.9030478
50
278.8959155
51
317.9979136
0
ARC
8
top_labelLayer
10
516.4495097
20
109.9347186
40
12.9674588
50
269.7502871
51
279.803319
0
ARC
8
top_labelLayer
10
516.3147129
20
107.6910201
40
10.723923
50
253.5436936
51
270.4182423
0
ARC
8
top_labelLayer
10
515.9577355
20
106.3101405
40
9.298612
50
238.8115568
51
253.2428324
0
ARC
8
top_labelLayer
10
515.8425253
20
106.0784531
40
9.0407739
50
207.7947053
51
238.6757975
0
ARC
8
top_labelLayer
10
517.4957113
20
107.090947
40
10.9760621
50
205.6560151
51
208.4461195
0
ARC
8
top_labelLayer
10
518.7690441
20
107.6215004
40
12.353785
50
188.9102465
51
205.3171423
0
ARC
8
top_labelLayer
10
523.0603211
20
108.3483029
40
16.7059332
50
179.7744658
51
189.0932821
0
ARC
8
top_labelLayer
10
523.6933489
20
108.5315041
40
17.3392296
50
169.244298
51
180.3880772
0
ARC
8
top_labelLayer
10
517.8050825
20
109.6954
40
11.3372883
50
150.7111496
51
169.4695413
0
ARC
8
top_labelLayer
10
515.925364
20
110.6607048
40
9.2259523
50
138.1759464
51
150.2287433
0
ARC
8
top_labelLayer
10
515.6126872
20
110.9006471
40
8.8329921
50
99.1759375
51
137.983276
0
ARC
8
top_labelLayer
10
516.4732904
20
106.8505453
40
12.9701037
50
89.7326344
51
100.0759766
0
ARC
8
top_labelLayer
10
516.645295
20
108.5996533
40
11.2214083
50
73.5222712
51
90.5692243
0
ARC
8
top_labelLayer
10
517.3033653
20
110.9905929
40
8.7421348
50
41.144565
51
73.2133871
0
ARC
8
top_labelLayer
10
516.0471622
20
109.9109038
40
10.398523
50
13.5014371
51
41.0703399
0
ARC
8
top_labelLayer
10
511.1938585
20
108.6408572
40
15.414555
50
1.1277153
51
13.8800084
0
ARC
8
top_labelLayer
10
507.0137843
20
108.4168406
40
19.5987407
50
359.9918785
51
1.5419849
0
ARC
8
top_labelLayer
10
526.7253753
20
108.3272775
40
16.9109246
50
179.705963
51
187.9160788
0
ARC
8
top_labelLayer
10
520.5229859
20
107.4363116
40
10.6449702
50
187.7639329
51
200.0976814
0
ARC
8
top_labelLayer
10
517.1061035
20
106.1843637
40
7.0059518
50
200.0845999
51
216.9131532
0
ARC
8
top_labelLayer
10
515.8583737
20
105.2934269
40
5.4733588
50
217.3009535
51
261.7099084
0
ARC
8
top_labelLayer
10
516.4376097
20
108.0574928
40
8.2938983
50
260.5033298
51
270.2476781
0
ARC
8
top_labelLayer
10
516.548168
20
107.5200084
40
7.7566963
50
269.4481694
51
284.7255668
0
ARC
8
top_labelLayer
10
517.1622198
20
105.2426859
40
5.3981092
50
284.5662354
51
322.633383
0
ARC
8
top_labelLayer
10
515.7265417
20
106.2799007
40
7.1687938
50
323.0089162
51
342.6390554
0
ARC
8
top_labelLayer
10
511.6201553
20
107.6219848
40
11.488709
50
342.3615784
51
353.7537496
0
ARC
8
top_labelLayer
10
505.5619144
20
108.352223
40
17.5905627
50
353.5363142
51
0.2014234
0
ARC
8
top_labelLayer
10
506.4901358
20
108.4991068
40
16.6624499
50
359.707564
51
7.8972736
0
ARC
8
top_labelLayer
10
512.5923884
20
109.3739221
40
10.4979113
50
7.7439914
51
20.0690221
0
ARC
8
top_labelLayer
10
515.9928044
20
110.6217479
40
6.8757771
50
20.0257026
51
37.4350512
0
ARC
8
top_labelLayer
10
517.1210351
20
111.4223235
40
5.4935027
50
37.9577645
51
80.4006177
0
ARC
8
top_labelLayer
10
516.4798975
20
108.5616331
40
8.4224807
50
79.3453405
51
90.3174806
0
ARC
8
top_labelLayer
10
516.3611825
20
109.0367947
40
7.9475162
50
89.4805975
51
103.8804956
0
ARC
8
top_labelLayer
10
515.693386
20
111.5797662
40
5.3187387
50
103.4685222
51
142.3118903
0
ARC
8
top_labelLayer
10
516.9916344
20
110.6667451
40
6.9046622
50
142.9025715
51
162.3749602
0
ARC
8
top_labelLayer
10
521.0824271
20
109.3035003
40
11.2163623
50
162.0653208
51
173.1674851
0
ARC
8
top_labelLayer
10
527.4609992
20
108.4899477
40
17.6464891
50
173.0086078
51
180.2463897
0
LINE
8
top_labelLayer
10
535.8060796
20
100.20625
11
535.5646734
21
100.20625
0
LINE
8
top_labelLayer
10
535.8060796
20
96.5449219
11
535.8060796
21
87.4720703
0
LINE
8
top_labelLayer
10
535.8060796
20
87.4720703
11
532.4666265
21
87.4720703
0
LINE
8
top_labelLayer
10
532.4666265
20
87.4720703
11
532.4666265
21
119.4181641
0
LINE
8
top_labelLayer
10
532.4666265
20
119.4181641
11
535.1824468
21
119.4181641
0
LINE
8
top_labelLayer
10
535.1824468
20
119.4181641
11
535.6451421
21
116.4005859
0
LINE
8
top_labelLayer
10
535.6451421
20
116.4005859
11
535.8060796
21
116.4005859
0
LINE
8
top_labelLayer
10
535.8060796
20
109.1583984
11
535.8060796
21
108.4140625
0
ARC
8
top_labelLayer
10
542.6700761
20
107.0965095
40
10.1292832
50
255.7755407
51
270.3185501
0
ARC
8
top_labelLayer
10
542.3810225
20
105.8122611
40
8.8134535
50
245.9801725
51
255.545565
0
ARC
8
top_labelLayer
10
541.8211305
20
104.5102252
40
7.3962856
50
215.5850199
51
245.8361688
0
ARC
8
top_labelLayer
10
504.2104578
20
96.2441315
40
31.6035633
50
2.9503235
51
7.2020864
0
ARC
8
top_labelLayer
10
509.3236352
20
96.5302086
40
26.4824485
50
0.0318327
51
2.901596
0
ARC
8
top_labelLayer
10
543.1622298
20
111.2343541
40
8.9890432
50
132.3565115
51
144.9195926
0
ARC
8
top_labelLayer
10
541.7851807
20
112.7366719
40
6.9511065
50
115.4006051
51
132.3118396
0
ARC
8
top_labelLayer
10
542.3223218
20
111.4290685
40
8.3630511
50
97.7066223
51
114.8821544
0
ARC
8
top_labelLayer
10
542.6974565
20
108.9961653
40
10.8243811
50
89.8468374
51
97.9474238
0
ARC
8
top_labelLayer
10
542.8297463
20
109.5847417
40
10.2362879
50
74.1923609
51
90.5785163
0
ARC
8
top_labelLayer
10
543.5380399
20
112.159543
40
7.5659421
50
38.0523434
51
74.041731
0
ARC
8
top_labelLayer
10
541.584443
20
110.6621947
40
10.0272666
50
16.3355974
51
37.9090569
0
ARC
8
top_labelLayer
10
536.4522883
20
109.081459
40
15.3970176
50
4.5766564
51
16.6088761
0
ARC
8
top_labelLayer
10
530.1339963
20
108.4518892
40
21.7457489
50
359.900334
51
4.9018143
0
ARC
8
top_labelLayer
10
532.3000751
20
108.2985444
40
19.5799781
50
350.6562783
51
0.3380359
0
ARC
8
top_labelLayer
10
539.1259654
20
107.1375339
40
12.6562101
50
335.8305976
51
350.8254849
0
ARC
8
top_labelLayer
10
542.1285629
20
105.8415703
40
9.3863272
50
321.3161437
51
335.5436205
0
ARC
8
top_labelLayer
10
543.2764704
20
104.9061992
40
7.9056451
50
274.064006
51
321.4081026
0
ARC
8
top_labelLayer
10
542.7416955
20
108.2936805
40
11.3263081
50
269.9225858
51
275.5481594
0
ARC
8
top_labelLayer
10
542.1747978
20
107.3619621
40
9.6222681
50
89.5904352
51
100.3501767
0
ARC
8
top_labelLayer
10
541.4886566
20
110.9665376
40
5.9531343
50
100.086805
51
118.1918017
0
ARC
8
top_labelLayer
10
540.7857685
20
112.3373999
40
4.4129239
50
118.5569547
51
141.0243377
0
ARC
8
top_labelLayer
10
541.8568367
20
111.5818851
40
5.7214496
50
141.88904
51
160.5973057
0
ARC
8
top_labelLayer
10
545.6209782
20
110.2007094
40
9.7307887
50
160.2895563
51
171.2453121
0
ARC
8
top_labelLayer
10
551.8099933
20
109.2028374
40
15.9996375
50
171.0868444
51
178.3247467
0
ARC
8
top_labelLayer
10
557.0586204
20
108.9534093
40
21.2535293
50
178.0662691
51
179.4473767
0
ARC
8
top_labelLayer
10
557.8860917
20
108.3278415
40
22.0801804
50
179.7762648
51
185.7075258
0
ARC
8
top_labelLayer
10
549.1806927
20
107.4308782
40
13.3287617
50
185.5924902
51
194.2050607
0
ARC
8
top_labelLayer
10
543.6040547
20
105.9835482
40
7.5675512
50
193.9430347
51
208.0218414
0
ARC
8
top_labelLayer
10
541.3477354
20
104.8356967
40
5.0366904
50
208.5536607
51
217.5605586
0
ARC
8
top_labelLayer
10
541.1639164
20
104.7592427
40
4.8446424
50
218.1690514
51
253.804712
0
ARC
8
top_labelLayer
10
542.0625032
20
107.5296794
40
7.7562903
50
253.1382454
51
266.8483101
0
ARC
8
top_labelLayer
10
542.3144811
20
110.5012537
40
10.7375862
50
266.377559
51
270.051051
0
ARC
8
top_labelLayer
10
542.4000883
20
105.39001
40
5.6268519
50
269.2256947
51
292.0430369
0
ARC
8
top_labelLayer
10
542.4760102
20
104.9375569
40
5.179933
50
293.1429628
51
324.1353951
0
ARC
8
top_labelLayer
10
541.3478332
20
105.8927184
40
6.6547753
50
323.1615948
51
325.0152631
0
ARC
8
top_labelLayer
10
540.1401387
20
106.6415388
40
8.0739733
50
325.5753829
51
344.1504587
0
ARC
8
top_labelLayer
10
535.9620603
20
107.876622
40
12.4306156
50
343.9336203
51
355.1137513
0
ARC
8
top_labelLayer
10
530.6285257
20
108.4178219
40
17.7910677
50
354.8402207
51
0.1174669
0
ARC
8
top_labelLayer
10
531.5678597
20
108.5393438
40
16.851911
50
359.7108429
51
7.8610362
0
ARC
8
top_labelLayer
10
537.695233
20
109.4127818
40
10.6626922
50
7.7149655
51
19.8859726
0
ARC
8
top_labelLayer
10
541.0651089
20
110.6299968
40
7.0797227
50
19.8991386
51
35.8980202
0
ARC
8
top_labelLayer
10
542.5682253
20
111.7683428
40
5.1948028
50
35.4481591
51
85.2266582
0
ARC
8
top_labelLayer
10
542.2542156
20
109.7991626
40
7.1848296
50
84.0379118
51
90.0848175
0
LINE
8
back_outsideCutPath
10
0
20
518
11
0
21
486
0
LINE
8
back_outsideCutPath
10
0
20
486
11
3
21
486
0
LINE
8
back_outsideCutPath
10
3
20
486
11
3
21
455.375
0
LINE
8
back_outsideCutPath
10
3
20
455.375
11
5.75
21
455.375
0
LINE
8
back_outsideCutPath
10
5.75
20
455.375
11
5.75
21
456.625
0
LINE
8
back_outsideCutPath
10
5.75
20
456.625
11
8
21
456.625
0
LINE
8
back_outsideCutPath
10
8
20
456.625
11
8
21
455.375
0
LINE
8
back_outsideCutPath
10
8
20
455.375
11
10.25
21
455.375
0
LINE
8
back_outsideCutPath
10
10.25
20
455.375
11
10.25
21
452.625
0
LINE
8
back_outsideCutPath
10
10.25
20
452.625
11
8
21
452.625
0
LINE
8
back_outsideCutPath
10
8
20
452.625
11
8
21
451.375
0
LINE
8
back_outsideCutPath
10
8
20
451.375
11
5.75
21
451.375
0
LINE
8
back_outsideCutPath
10
5.75
20
451.375
11
5.75
21
452.625
0
LINE
8
back_outsideCutPath
10
5.75
20
452.625
11
3
21
452.625
0
LINE
8
back_outsideCutPath
10
3
20
452.625
11
3
21
422
0
LINE
8
back_outsideCutPath
10
3
20
422
11
0
21
422
0
LINE
8
back_outsideCutPath
10
0
20
422
11
0
21
358
0
LINE
8
back_outsideCutPath
10
0
20
358
11
3
21
358
0
LINE
8
back_outsideCutPath
10
3
20
358
11
3
21
327.375
0
LINE
8
back_outsideCutPath
10
3
20
327.375
11
5.75
21
327.375
0
LINE
8
back_outsideCutPath
10
5.75
20
327.375
11
5.75
21
328.625
0
LINE
8
back_outsideCutPath
10
5.75
20
328.625
11
8
21
328.625
0
LINE
8
back_outsideCutPath
10
8
20
328.625
11
8
21
327.375
0
LINE
8
back_outsideCutPath
10
8
20
327.375
11
10.25
21
327.375
0
LINE
8
back_outsideCutPath
10
10.25
20
327.375
11
10.25
21
324.625
0
LINE
8
back_outsideCutPath
10
10.25
20
324.625
11
8
21
324.625
0
LINE
8
back_outsideCutPath
10
8
20
324.625
11
8
21
323.375
0
LINE
8
back_outsideCutPath
10
8
20
323.375
11
5.75
21
323.375
0
LINE
8
back_outsideCutPath
10
5.75
20
323.375
11
5.75
21
324.625
0
LINE
8
back_outsideCutPath
10
5.75
20
324.625
11
3
21
324.625
0
LINE
8
back_outsideCutPath
10
3
20
324.625
11
3
21
294
0
LINE
8
back_outsideCutPath
10
3
20
294
11
0
21
294
0
LINE
8
back_outsideCutPath
10
0
20
294
11
0
21
262
0
LINE
8
back_outsideCutPath
10
0
20
262
11
25.75
21
262
0
LINE
8
back_outsideCutPath
10
25.75
20
262
11
25.75
21
265
0
LINE
8
back_outsideCutPath
10
25.75
20
265
11
50.125
21
265
0
LINE
8
back_outsideCutPath
10
50.125
20
265
11
50.125
21
267.75
0
LINE
8
back_outsideCutPath
10
50.125
20
267.75
11
48.875
21
267.75
0
LINE
8
back_outsideCutPath
10
48.875
20
267.75
11
48.875
21
270
0
LINE
8
back_outsideCutPath
10
48.875
20
270
11
50.125
21
270
0
LINE
8
back_outsideCutPath
10
50.125
20
270
11
50.125
21
272.25
0
LINE
8
back_outsideCutPath
10
50.125
20
272.25
11
52.875
21
272.25
0
LINE
8
back_outsideCutPath
10
52.875
20
272.25
11
52.875
21
270
0
LINE
8
back_outsideCutPath
10
52.875
20
270
11
54.125
21
270
0
LINE
8
back_outsideCutPath
10
54.125
20
270
11
54.125
21
267.75
0
LINE
8
back_outsideCutPath
10
54.125
20
267.75
11
52.875
21
267.75
0
LINE
8
back_outsideCutPath
10
52.875
20
267.75
11
52.875
21
265
0
LINE
8
back_outsideCutPath
10
52.875
20
265
11
77.25
21
265
0
LINE
8
back_outsideCutPath
10
77.25
20
265
11
77.25
21
262
0
LINE
8
back_outsideCutPath
10
77.25
20
262
11
128.75
21
262
0
LINE
8
back_outsideCutPath
10
128.75
20
262
11
128.75
21
265
0
LINE
8
back_outsideCutPath
10
128.75
20
265
11
153.125
21
265
0
LINE
8
back_outsideCutPath
10
153.125
20
265
11
153.125
21
267.75
0
LINE
8
back_outsideCutPath
10
153.125
20
267.75
11
151.875
21
267.75
0
LINE
8
back_outsideCutPath
10
151.875
20
267.75
11
151.875
21
270
0
LINE
8
back_outsideCutPath
10
151.875
20
270
11
153.125
21
270
0
LINE
8
back_outsideCutPath
10
153.125
20
270
11
153.125
21
272.25
0
LINE
8
back_outsideCutPath
10
153.125
20
272.25
11
155.875
21
272.25
0
LINE
8
back_outsideCutPath
10
155.875
20
272.25
11
155.875
21
270
0
LINE
8
back_outsideCutPath
10
155.875
20
270
11
157.125
21
270
0
LINE
8
back_outsideCutPath
10
157.125
20
270
11
157.125
21
267.75
0
LINE
8
back_outsideCutPath
10
157.125
20
267.75
11
155.875
21
267.75
0
LINE
8
back_outsideCutPath
10
155.875
20
267.75
11
155.875
21
265
0
LINE
8
back_outsideCutPath
10
155.875
20
265
11
180.25
21
265
0
LINE
8
back_outsideCutPath
10
180.25
20
265
11
180.25
21
262
0
LINE
8
back_outsideCutPath
10
180.25
20
262
11
206
21
262
0
LINE
8
back_outsideCutPath
10
206
20
262
11
206
21
294
0
LINE
8
back_outsideCutPath
10
206
20
294
11
203
21
294
0
LINE
8
back_outsideCutPath
10
203
20
294
11
203
21
324.625
0
LINE
8
back_outsideCutPath
10
203
20
324.625
11
200.25
21
324.625
0
LINE
8
back_outsideCutPath
10
200.25
20
324.625
11
200.25
21
323.375
0
LINE
8
back_outsideCutPath
10
200.25
20
323.375
11
198
21
323.375
0
LINE
8
back_outsideCutPath
10
198
20
323.375
11
198
21
324.625
0
LINE
8
back_outsideCutPath
10
198
20
324.625
11
195.75
21
324.625
0
LINE
8
back_outsideCutPath
10
195.75
20
324.625
11
195.75
21
327.375
0
LINE
8
back_outsideCutPath
10
195.75
20
327.375
11
198
21
327.375
0
LINE
8
back_outsideCutPath
10
198
20
327.375
11
198
21
328.625
0
LINE
8
back_outsideCutPath
10
198
20
328.625
11
200.25
21
328.625
0
LINE
8
back_outsideCutPath
10
200.25
20
328.625
11
200.25
21
327.375
0
LINE
8
back_outsideCutPath
10
200.25
20
327.375
11
203
21
327.375
0
LINE
8
back_outsideCutPath
10
203
20
327.375
11
203
21
358
0
LINE
8
back_outsideCutPath
10
203
20
358
11
206
21
358
0
LINE
8
back_outsideCutPath
10
206
20
358
11
206
21
422
0
LINE
8
back_outsideCutPath
10
206
20
422
11
203
21
422
0
LINE
8
back_outsideCutPath
10
203
20
422
11
203
21
452.625
0
LINE
8
back_outsideCutPath
10
203
20
452.625
11
200.25
21
452.625
0
LINE
8
back_outsideCutPath
10
200.25
20
452.625
11
200.25
21
451.375
0
LINE
8
back_outsideCutPath
10
200.25
20
451.375
11
198
21
451.375
0
LINE
8
back_outsideCutPath
10
198
20
451.375
11
198
21
452.625
0
LINE
8
back_outsideCutPath
10
198
20
452.625
11
195.75
21
452.625
0
LINE
8
back_outsideCutPath
10
195.75
20
452.625
11
195.75
21
455.375
0
LINE
8
back_outsideCutPath
10
195.75
20
455.375
11
198
21
455.375
0
LINE
8
back_outsideCutPath
10
198
20
455.375
11
198
21
456.625
0
LINE
8
back_outsideCutPath
10
198
20
456.625
11
200.25
21
456.625
0
LINE
8
back_outsideCutPath
10
200.25
20
456.625
11
200.25
21
455.375
0
LINE
8
back_outsideCutPath
10
200.25
20
455.375
11
203
21
455.375
0
LINE
8
back_outsideCutPath
10
203
20
455.375
11
203
21
486
0
LINE
8
back_outsideCutPath
10
203
20
486
11
206
21
486
0
LINE
8
back_outsideCutPath
10
206
20
486
11
206
21
518
0
LINE
8
back_outsideCutPath
10
206
20
518
11
180.25
21
518
0
LINE
8
back_outsideCutPath
10
180.25
20
518
11
180.25
21
515
0
LINE
8
back_outsideCutPath
10
180.25
20
515
11
155.875
21
515
0
LINE
8
back_outsideCutPath
10
155.875
20
515
11
155.875
21
512.25
0
LINE
8
back_outsideCutPath
10
155.875
20
512.25
11
157.125
21
512.25
0
LINE
8
back_outsideCutPath
10
157.125
20
512.25
11
157.125
21
510
0
LINE
8
back_outsideCutPath
10
157.125
20
510
11
155.875
21
510
0
LINE
8
back_outsideCutPath
10
155.875
20
510
11
155.875
21
507.75
0
LINE
8
back_outsideCutPath
10
155.875
20
507.75
11
153.125
21
507.75
0
LINE
8
back_outsideCutPath
10
153.125
20
507.75
11
153.125
21
510
0
LINE
8
back_outsideCutPath
10
153.125
20
510
11
151.875
21
510
0
LINE
8
back_outsideCutPath
10
151.875
20
510
11
151.875
21
512.25
0
LINE
8
back_outsideCutPath
10
151.875
20
512.25
11
153.125
21
512.25
0
LINE
8
back_outsideCutPath
10
153.125
20
512.25
11
153.125
21
515
0
LINE
8
back_outsideCutPath
10
153.125
20
515
11
128.75
21
515
0
LINE
8
back_outsideCutPath
10
128.75
20
515
11
128.75
21
518
0
LINE
8
back_outsideCutPath
10
128.75
20
518
11
77.25
21
518
0
LINE
8
back_outsideCutPath
10
77.25
20
518
11
77.25
21
515
0
LINE
8
back_outsideCutPath
10
77.25
20
515
11
52.875
21
515
0
LINE
8
back_outsideCutPath
10
52.875
20
515
11
52.875
21
512.25
0
LINE
8
back_outsideCutPath
10
52.875
20
512.25
11
54.125
21
512.25
0
LINE
8
back_outsideCutPath
10
54.125
20
512.25
11
54.125
21
510
0
LINE
8
back_outsideCutPath
10
54.125
20
510
11
52.875
21
510
0
LINE
8
back_outsideCutPath
10
52.875
20
510
11
52.875
21
507.75
0
LINE
8
back_outsideCutPath
10
52.875
20
507.75
11
50.125
21
507.75
0
LINE
8
back_outsideCutPath
10
50.125
20
507.75
11
50.125
21
510
0
LINE
8
back_outsideCutPath
10
50.125
20
510
11
48.875
21
510
0
LINE
8
back_outsideCutPath
10
48.875
20
510
11
48.875
21
512.25
0
LINE
8
back_outsideCutPath
10
48.875
20
512.25
11
50.125
21
512.25
0
LINE
8
back_outsideCutPath
10
50.125
20
512.25
11
50.125
21
515
0
LINE
8
back_outsideCutPath
10
50.125
20
515
11
25.75
21
515
0
LINE
8
back_outsideCutPath
10
25.75
20
515
11
25.75
21
518
0
LINE
8
back_outsideCutPath
10
25.75
20
518
11
0
21
518
0
LINE
8
back_labelLayer
10
63.6306641
20
377.3867507
11
63.3892578
21
377.3867507
0
LINE
8
back_labelLayer
10
63.3892578
20
377.3867507
11
62.6851563
21
374.5502273
0
LINE
8
back_labelLayer
10
62.6851563
20
374.5502273
11
60.2912109
21
374.5502273
0
LINE
8
back_labelLayer
10
60.2912109
20
374.5502273
11
60.2912109
21
405.852571
0
LINE
8
back_labelLayer
10
60.2912109
20
405.852571
11
63.6306641
21
405.852571
0
LINE
8
back_labelLayer
10
63.6306641
20
405.852571
11
63.6306641
21
398.2482741
0
LINE
8
back_labelLayer
10
63.4697266
20
393.6615554
11
63.6306641
21
393.6615554
0
ARC
8
back_labelLayer
10
70.6511548
20
386.7547358
40
10.20653
50
74.2393308
51
90.5623738
0
ARC
8
back_labelLayer
10
71.3260468
20
389.230603
40
7.6404646
50
38.5631246
51
74.0670409
0
ARC
8
back_labelLayer
10
69.589251
20
387.8801424
40
9.8403849
50
16.4709274
51
38.4075294
0
ARC
8
back_labelLayer
10
64.5857988
20
386.3112071
40
15.0835971
50
5.1338433
51
16.7973357
0
ARC
8
back_labelLayer
10
58.2693749
20
385.6402311
40
21.4349706
50
359.8779294
51
5.4093621
0
ARC
8
back_labelLayer
10
60.1246595
20
385.4790451
40
19.5799781
50
350.6562783
51
0.3380359
0
ARC
8
back_labelLayer
10
66.9505498
20
384.3180346
40
12.6562101
50
335.8305976
51
350.8254849
0
ARC
8
back_labelLayer
10
69.9531473
20
383.0220709
40
9.3863272
50
321.3161437
51
335.5436205
0
ARC
8
back_labelLayer
10
71.1010549
20
382.0866999
40
7.9056451
50
274.064006
51
321.4081026
0
ARC
8
back_labelLayer
10
70.5662799
20
385.4741812
40
11.3263081
50
269.9225858
51
275.5481594
0
ARC
8
back_labelLayer
10
70.4946606
20
384.2770102
40
10.1292832
50
255.7755407
51
270.3185501
0
ARC
8
back_labelLayer
10
70.2056069
20
382.9927618
40
8.8134535
50
245.9801725
51
255.545565
0
ARC
8
back_labelLayer
10
69.6457149
20
381.6907259
40
7.3962856
50
215.5850199
51
245.8361688
0
ARC
8
back_labelLayer
10
-5.9947306
20
398.1894191
40
69.6254196
50
358.1123277
51
0.0484327
0
ARC
8
back_labelLayer
10
13.3831787
20
397.5388601
40
50.236598
50
355.7238727
51
358.1258941
0
ARC
8
back_labelLayer
10
21.8475861
20
396.9579939
40
41.7524739
50
355.4716747
51
355.6526732
0
ARC
8
back_labelLayer
10
69.8585985
20
389.3186492
40
7.5926281
50
95.1835128
51
145.1108993
0
ARC
8
back_labelLayer
10
70.5259616
20
385.5553175
40
11.4054839
50
89.8743365
51
96.8145308
0
ARC
8
back_labelLayer
10
69.9982508
20
384.7806082
40
9.3841373
50
89.5731338
51
100.7324325
0
ARC
8
back_labelLayer
10
69.3035636
20
388.2904053
40
5.8064408
50
100.4469486
51
119.6700713
0
ARC
8
back_labelLayer
10
68.6593789
20
389.4947864
40
4.4412408
50
120.1402972
51
142.4248878
0
ARC
8
back_labelLayer
10
69.7251309
20
388.7897589
40
5.7165602
50
143.3382393
51
161.255991
0
ARC
8
back_labelLayer
10
74.1819104
20
387.2074531
40
10.4456377
50
160.8926382
51
171.2334242
0
ARC
8
back_labelLayer
10
81.6219713
20
386.007196
40
17.9817862
50
171.0667778
51
177.8456853
0
ARC
8
back_labelLayer
10
89.3596298
20
385.6136635
40
25.7289727
50
177.6176775
51
180.0425344
0
ARC
8
back_labelLayer
10
85.7106762
20
385.5083422
40
22.0801804
50
179.7762648
51
185.7075258
0
ARC
8
back_labelLayer
10
77.0052772
20
384.6113789
40
13.3287617
50
185.5924902
51
194.2050607
0
ARC
8
back_labelLayer
10
71.4286391
20
383.1640489
40
7.5675512
50
193.9430347
51
208.0218414
0
ARC
8
back_labelLayer
10
69.1723199
20
382.0161974
40
5.0366904
50
208.5536607
51
217.5605586
0
ARC
8
back_labelLayer
10
68.9885009
20
381.9397434
40
4.8446424
50
218.1690514
51
253.804712
0
ARC
8
back_labelLayer
10
69.8870877
20
384.7101801
40
7.7562903
50
253.1382454
51
266.8483101
0
ARC
8
back_labelLayer
10
70.1390655
20
387.6817544
40
10.7375862
50
266.377559
51
270.051051
0
ARC
8
back_labelLayer
10
70.2198677
20
383.600964
40
6.6571726
50
269.3868968
51
285.8630581
0
ARC
8
back_labelLayer
10
70.7144535
20
381.8134591
40
4.8025674
50
286.0162908
51
326.8497324
0
ARC
8
back_labelLayer
10
68.327327
20
383.3948435
40
7.6659451
50
326.7104999
51
343.6661737
0
ARC
8
back_labelLayer
10
63.8587651
20
384.760291
40
12.338279
50
343.4171347
51
353.6369104
0
ARC
8
back_labelLayer
10
57.1094638
20
385.5611432
40
19.1348186
50
353.4934758
51
0.2205454
0
ARC
8
back_labelLayer
10
56.5145308
20
385.7146604
40
19.7297715
50
359.7680757
51
6.3095217
0
ARC
8
back_labelLayer
10
63.9463286
20
386.5675034
40
12.2493021
50
6.1648645
51
16.039642
0
ARC
8
back_labelLayer
10
68.73378
20
387.9783648
40
7.2584739
50
15.7779398
51
32.0151274
0
ARC
8
back_labelLayer
10
70.2265273
20
388.8331912
40
5.5399807
50
32.7034765
51
35.5242163
0
ARC
8
back_labelLayer
10
70.7726889
20
389.221377
40
4.8699223
50
35.5408375
51
79.8011249
0
ARC
8
back_labelLayer
10
70.1187068
20
386.4411644
40
7.7234861
50
78.6781397
51
90.3749483
0
LINE
8
back_labelLayer
10
101.5716797
20
374.5502273
11
99.0972656
21
374.5502273
0
LINE
8
back_labelLayer
10
99.0972656
20
374.5502273
11
98.4333984
21
377.6885085
0
LINE
8
back_labelLayer
10
98.4333984
20
377.6885085
11
98.2724609
21
377.6885085
0
LINE
8
back_labelLayer
10
94.5708984
20
387.6465163
11
98.3126953
21
387.7672194
0
LINE
8
back_labelLayer
10
98.3126953
20
387.7672194
11
98.3126953
21
389.1351882
0
LINE
8
back_labelLayer
10
87.3890625
20
392.5148757
11
86.3630859
21
395.0697585
0
LINE
8
back_labelLayer
10
101.5716797
20
389.5978835
11
101.5716797
21
374.5502273
0
LINE
8
back_labelLayer
10
98.2322266
20
383.4017898
11
98.2322266
21
385.3933913
0
LINE
8
back_labelLayer
10
98.2322266
20
385.3933913
11
94.8927734
21
385.252571
0
ARC
8
back_labelLayer
10
87.4072021
20
386.2671613
40
13.8436676
50
314.7444971
51
321.707183
0
ARC
8
back_labelLayer
10
90.8083567
20
382.8113233
40
8.9949337
50
304.8485684
51
314.8530697
0
ARC
8
back_labelLayer
10
92.4422235
20
380.4856839
40
6.1527672
50
294.3932702
51
304.7371456
0
ARC
8
back_labelLayer
10
91.884027
20
381.9320156
40
7.7010356
50
281.2979596
51
293.731364
0
ARC
8
back_labelLayer
10
91.1461303
20
385.5082357
40
11.3525399
50
272.9334964
51
281.4139181
0
ARC
8
back_labelLayer
10
90.9015379
20
389.1763461
40
15.0284676
50
269.9539271
51
273.1490917
0
ARC
8
back_labelLayer
10
90.8170584
20
384.3959614
40
10.2483336
50
258.6719742
51
270.4047433
0
ARC
8
back_labelLayer
10
90.105197
20
380.9906983
40
6.7696441
50
238.3273207
51
258.9183686
0
ARC
8
back_labelLayer
10
89.6146372
20
380.0957264
40
5.7506306
50
227.7689442
51
237.8050061
0
ARC
8
back_labelLayer
10
89.4611933
20
379.8815209
40
5.4889751
50
192.0827677
51
227.452074
0
ARC
8
back_labelLayer
10
92.2910863
20
380.5791156
40
8.4026785
50
179.5457336
51
192.6949293
0
ARC
8
back_labelLayer
10
89.6621378
20
380.8833556
40
5.7783538
50
115.4904646
51
182.3568116
0
ARC
8
back_labelLayer
10
92.5559998
20
375.5754172
40
11.8195535
50
101.3568175
51
117.0798648
0
ARC
8
back_labelLayer
10
94.8800365
20
364.7149999
40
22.9253951
50
92.4696222
51
101.7064989
0
ARC
8
back_labelLayer
10
95.5479802
20
355.0412094
40
32.6199438
50
91.7164664
51
92.9095905
0
ARC
8
back_labelLayer
10
88.7211033
20
389.1865251
40
9.5917294
50
359.6933395
51
8.0035674
0
ARC
8
back_labelLayer
10
92.3494745
20
389.7151003
40
5.9251326
50
7.8272732
51
20.6041712
0
ARC
8
back_labelLayer
10
94.4027014
20
390.5005624
40
3.7268525
50
20.4094075
51
41.4479421
0
ARC
8
back_labelLayer
10
94.7060672
20
390.6673119
40
3.3899323
50
42.7295628
51
71.0380227
0
ARC
8
back_labelLayer
10
93.9918455
20
388.7253309
40
5.4587911
50
70.5716203
51
83.992862
0
ARC
8
back_labelLayer
10
93.6506346
20
385.9536931
40
8.2510651
50
83.6506652
51
90.1752956
0
ARC
8
back_labelLayer
10
93.7104913
20
383.3325167
40
10.8725358
50
90.4484659
51
103.7665492
0
ARC
8
back_labelLayer
10
94.9890474
20
377.9407955
40
16.4136763
50
103.6226567
51
112.4319968
0
ARC
8
back_labelLayer
10
97.1806407
20
372.4071966
40
22.365012
50
112.2122275
51
115.9640978
0
ARC
8
back_labelLayer
10
93.6709748
20
381.5173653
40
15.3971621
50
106.3568589
51
118.3349821
0
ARC
8
back_labelLayer
10
94.3267289
20
379.4917675
40
17.5255479
50
104.516194
51
106.5489826
0
ARC
8
back_labelLayer
10
93.8458468
20
381.4953911
40
15.465395
50
90.0714439
51
104.6521025
0
ARC
8
back_labelLayer
10
93.9065397
20
382.856973
40
14.1040279
50
81.5679793
51
90.3248987
0
ARC
8
back_labelLayer
10
94.7220139
20
388.1695633
40
8.72933
50
68.2273519
51
81.7494176
0
ARC
8
back_labelLayer
10
95.8578355
20
390.9955907
40
5.6836025
50
47.868316
51
68.2934067
0
ARC
8
back_labelLayer
10
96.0421819
20
391.3636724
40
5.2881136
50
19.2330986
51
46.6741178
0
ARC
8
back_labelLayer
10
92.9712842
20
390.2212914
40
8.5641895
50
6.3379009
51
19.6815406
0
ARC
8
back_labelLayer
10
88.4317362
20
389.643138
40
13.1400214
50
359.802672
51
6.6583532
0
ARC
8
back_labelLayer
10
91.6208469
20
386.0981661
40
9.1944759
50
269.5792014
51
282.0413694
0
ARC
8
back_labelLayer
10
92.2915192
20
383.1233519
40
6.1453032
50
281.7120968
51
306.4593916
0
ARC
8
back_labelLayer
10
92.5888834
20
382.6343076
40
5.5755034
50
306.9881418
51
313.8559167
0
ARC
8
back_labelLayer
10
92.5535269
20
382.6241508
40
5.5927707
50
314.1891978
51
347.4269821
0
ARC
8
back_labelLayer
10
89.7519679
20
383.3262088
40
8.480308
50
346.9177596
51
0.2824637
0
ARC
8
back_labelLayer
10
87.6045525
20
383.4017692
40
10.627674
50
359.8180293
51
0.0001108
0
ARC
8
back_labelLayer
10
95.6871305
20
360.7452011
40
24.5202403
50
91.8564774
51
96.4478398
0
ARC
8
back_labelLayer
10
94.5813421
20
370.3138903
40
14.8879191
50
96.3545416
51
102.9953128
0
ARC
8
back_labelLayer
10
93.0803024
20
376.6913649
40
8.3362891
50
102.7995369
51
113.2433184
0
ARC
8
back_labelLayer
10
91.8428967
20
379.650764
40
5.1288505
50
113.5886592
51
121.6805004
0
ARC
8
back_labelLayer
10
90.9831788
20
380.9600938
40
3.563387
50
120.9734112
51
172.4179794
0
ARC
8
back_labelLayer
10
92.6635532
20
380.6244481
40
5.2745248
50
171.2121971
51
180.2058216
0
ARC
8
back_labelLayer
10
92.1613634
20
380.5660678
40
4.7724638
50
179.5265827
51
192.7787143
0
ARC
8
back_labelLayer
10
90.5469246
20
380.1747229
40
3.1115488
50
192.3264597
51
222.0579741
0
ARC
8
back_labelLayer
10
90.426834
20
380.1029061
40
2.9744003
50
222.5804874
51
229.2546791
0
ARC
8
back_labelLayer
10
90.8326277
20
380.6253548
40
3.6352327
50
229.7837037
51
254.2724317
0
ARC
8
back_labelLayer
10
91.373087
20
382.4263808
40
5.5154228
50
253.9396661
51
266.4533865
0
ARC
8
back_labelLayer
10
91.5455866
20
384.4146994
40
7.5107653
50
266.0782851
51
270.0589963
0
LINE
8
back_labelLayer
10
123.1574219
20
395.8543288
11
122.1314453
21
393.0178054
0
LINE
8
back_labelLayer
10
122.8355469
20
378.2517898
11
122.8355469
21
375.2945632
0
ARC
8
back_labelLayer
10
117.1565718
20
386.6283099
40
12.4808809
50
256.4243763
51
270.4889785
0
ARC
8
back_labelLayer
10
116.1592307
20
382.7357721
40
8.4631764
50
221.7976283
51
256.8020547
0
ARC
8
back_labelLayer
10
117.1250409
20
383.4493721
40
9.659453
50
196.0166618
51
221.1349219
0
ARC
8
back_labelLayer
10
121.979114
20
384.9330275
40
14.7347192
50
183.591377
51
196.3539567
0
ARC
8
back_labelLayer
10
127.4168655
20
385.4120788
40
20.1922677
50
179.9388603
51
183.9815036
0
ARC
8
back_labelLayer
10
125.6500135
20
385.5522577
40
18.4257861
50
169.8978405
51
180.368894
0
ARC
8
back_labelLayer
10
119.2355749
20
386.7388356
40
11.9027408
50
153.0875107
51
170.1051399
0
ARC
8
back_labelLayer
10
116.8018006
20
387.9017611
40
9.2063999
50
138.6550026
51
152.6853613
0
ARC
8
back_labelLayer
10
116.3475657
20
388.2327772
40
8.6468723
50
101.4912903
51
138.3133887
0
ARC
8
back_labelLayer
10
117.3903867
20
383.8926645
40
13.108681
50
89.5891901
51
102.1787719
0
ARC
8
back_labelLayer
10
117.4705772
20
381.9310257
40
15.0699892
50
77.7702372
51
89.9475411
0
ARC
8
back_labelLayer
10
117.1853733
20
380.3575465
40
16.6682646
50
74.6796778
51
77.9578605
0
ARC
8
back_labelLayer
10
118.7260969
20
385.9392984
40
10.8777904
50
70.0945654
51
74.7386106
0
ARC
8
back_labelLayer
10
120.1916763
20
389.9557196
40
6.6023515
50
63.5033955
51
70.1861519
0
ARC
8
back_labelLayer
10
120.8911483
20
391.4203038
40
4.9796157
50
62.9279804
51
63.1879376
0
ARC
8
back_labelLayer
10
116.6455713
20
379.2117625
40
14.8560302
50
68.3294475
51
74.8831207
0
ARC
8
back_labelLayer
10
115.8619137
20
376.43305
40
17.7429855
50
74.7801661
51
77.4497719
0
ARC
8
back_labelLayer
10
116.6847107
20
380.2951889
40
13.7943862
50
77.2998779
51
81.7345385
0
ARC
8
back_labelLayer
10
117.2848689
20
384.4771552
40
9.5695838
50
81.6909869
51
87.5079243
0
ARC
8
back_labelLayer
10
117.4006502
20
386.6410099
40
7.4027727
50
87.6749863
51
89.9747992
0
ARC
8
back_labelLayer
10
117.2383594
20
386.6382353
40
7.4073968
50
88.7193985
51
112.5667654
0
ARC
8
back_labelLayer
10
116.7120141
20
388.3784698
40
5.6013673
50
114.4265746
51
161.6632815
0
ARC
8
back_labelLayer
10
121.9407368
20
386.3318925
40
11.2124045
50
160.141846
51
175.136817
0
ARC
8
back_labelLayer
10
129.1373494
20
385.5237648
40
18.4526512
50
174.5309753
51
180.1549553
0
ARC
8
back_labelLayer
10
126.8574022
20
385.3903446
40
16.1728522
50
179.7041272
51
188.074362
0
ARC
8
back_labelLayer
10
121.03214
20
384.5380474
40
10.2856577
50
187.9315239
51
200.3885385
0
ARC
8
back_labelLayer
10
117.8823697
20
383.3712195
40
6.9267113
50
200.4183428
51
216.6392657
0
ARC
8
back_labelLayer
10
116.5619079
20
382.4272548
40
5.303915
50
216.9695332
51
261.3103018
0
ARC
8
back_labelLayer
10
117.1446527
20
385.1441075
40
8.0793208
50
260.1359477
51
270.2692323
0
ARC
8
back_labelLayer
10
117.1177553
20
391.0440769
40
13.9793517
50
270.2658439
51
286.2891455
0
ARC
8
back_labelLayer
10
116.2679203
20
394.2134029
40
17.2599773
50
286.0460635
51
292.3653942
0
ARC
8
back_labelLayer
10
118.531162
20
383.7623138
40
9.4989752
50
282.0344214
51
296.9454527
0
ARC
8
back_labelLayer
10
117.5542481
20
388.1648837
40
14.0085238
50
272.5980555
51
282.1878445
0
ARC
8
back_labelLayer
10
117.2741065
20
392.4614291
40
18.3135489
50
269.9655211
51
272.8642851
0
LINE
8
back_labelLayer
10
131.2042969
20
385.8359694
11
131.3652344
21
385.8359694
0
LINE
8
back_labelLayer
10
134.0005859
20
389.0547194
11
141.1220703
21
396.5986648
0
LINE
8
back_labelLayer
10
141.1220703
20
396.5986648
11
145.0851563
21
396.5986648
0
LINE
8
back_labelLayer
10
145.0851563
20
396.5986648
11
136.153125
21
387.2039382
0
LINE
8
back_labelLayer
10
136.153125
20
387.2039382
11
145.7087891
21
374.5502273
0
LINE
8
back_labelLayer
10
145.7087891
20
374.5502273
11
141.6652344
21
374.5502273
0
LINE
8
back_labelLayer
10
141.6652344
20
374.5502273
11
133.8798828
21
384.9709304
0
LINE
8
back_labelLayer
10
133.8798828
20
384.9709304
11
131.3652344
21
382.7982741
0
LINE
8
back_labelLayer
10
131.3652344
20
382.7982741
11
131.3652344
21
374.5502273
0
LINE
8
back_labelLayer
10
131.3652344
20
374.5502273
11
128.0660156
21
374.5502273
0
LINE
8
back_labelLayer
10
128.0660156
20
374.5502273
11
128.0660156
21
405.852571
0
LINE
8
back_labelLayer
10
128.0660156
20
405.852571
11
131.3652344
21
405.852571
0
LINE
8
back_labelLayer
10
131.3652344
20
405.852571
11
131.3652344
21
389.2558913
0
ARC
8
back_labelLayer
10
147.5010931
20
374.4143282
40
19.7691635
50
142.3233817
51
144.7075302
0
ARC
8
back_labelLayer
10
158.0291458
20
366.2937886
40
33.0651411
50
140.433139
51
142.3365527
0
ARC
8
back_labelLayer
10
171.7490913
20
354.9998088
40
50.8356272
50
139.2799143
51
140.4703138
0
ARC
8
back_labelLayer
10
187.6076354
20
341.3625885
40
71.7513422
50
138.3417397
51
139.2877548
0
ARC
8
back_labelLayer
10
109.1121469
20
389.2975293
40
22.2531265
50
358.2738974
51
359.8927933
0
ARC
8
back_labelLayer
10
91.7990889
20
389.7799959
40
39.5728806
50
357.5041552
51
358.3307252
0
ARC
8
back_labelLayer
10
65.8871476
20
390.9244835
40
65.5100819
50
356.6325133
51
357.4910219
0
ARC
8
back_labelLayer
10
22.81528
20
393.4365682
40
108.6551402
50
356.0329203
51
356.6442672
0
ARC
8
back_labelLayer
10
-6.9324882
20
395.4457588
40
138.4706446
50
356.0205045
51
356.0551285
0
LINE
8
right_outsideCutPath
10
212
20
518
11
212
21
486
0
LINE
8
right_outsideCutPath
10
212
20
486
11
209
21
486
0
LINE
8
right_outsideCutPath
10
209
20
486
11
209
21
455.375
0
LINE
8
right_outsideCutPath
10
209
20
455.375
11
211.75
21
455.375
0
LINE
8
right_outsideCutPath
10
211.75
20
455.375
11
211.75
21
454
0
LINE
8
right_outsideCutPath
10
211.75
20
454
11
211.75
21
454
0
LINE
8
right_outsideCutPath
10
211.75
20
454
11
211.75
21
452.625
0
LINE
8
right_outsideCutPath
10
211.75
20
452.625
11
209
21
452.625
0
LINE
8
right_outsideCutPath
10
209
20
452.625
11
209
21
422
0
LINE
8
right_outsideCutPath
10
209
20
422
11
212
21
422
0
LINE
8
right_outsideCutPath
10
212
20
422
11
212
21
358
0
LINE
8
right_outsideCutPath
10
212
20
358
11
209
21
358
0
LINE
8
right_outsideCutPath
10
209
20
358
11
209
21
327.375
0
LINE
8
right_outsideCutPath
10
209
20
327.375
11
211.75
21
327.375
0
LINE
8
right_outsideCutPath
10
211.75
20
327.375
11
211.75
21
326
0
LINE
8
right_outsideCutPath
10
211.75
20
326
11
211.75
21
326
0
LINE
8
right_outsideCutPath
10
211.75
20
326
11
211.75
21
324.625
0
LINE
8
right_outsideCutPath
10
211.75
20
324.625
11
209
21
324.625
0
LINE
8
right_outsideCutPath
10
209
20
324.625
11
209
21
294
0
LINE
8
right_outsideCutPath
10
209
20
294
11
212
21
294
0
LINE
8
right_outsideCutPath
10
212
20
294
11
212
21
262
0
LINE
8
right_outsideCutPath
10
212
20
262
11
234.75
21
262
0
LINE
8
right_outsideCutPath
10
234.75
20
262
11
234.75
21
265
0
LINE
8
right_outsideCutPath
10
234.75
20
265
11
259.125
21
265
0
LINE
8
right_outsideCutPath
10
259.125
20
265
11
259.125
21
267.75
0
LINE
8
right_outsideCutPath
10
259.125
20
267.75
11
257.875
21
267.75
0
LINE
8
right_outsideCutPath
10
257.875
20
267.75
11
257.875
21
270
0
LINE
8
right_outsideCutPath
10
257.875
20
270
11
259.125
21
270
0
LINE
8
right_outsideCutPath
10
259.125
20
270
11
259.125
21
272.25
0
LINE
8
right_outsideCutPath
10
259.125
20
272.25
11
261.875
21
272.25
0
LINE
8
right_outsideCutPath
10
261.875
20
272.25
11
261.875
21
270
0
LINE
8
right_outsideCutPath
10
261.875
20
270
11
263.125
21
270
0
LINE
8
right_outsideCutPath
10
263.125
20
270
11
263.125
21
267.75
0
LINE
8
right_outsideCutPath
10
263.125
20
267.75
11
261.875
21
267.75
0
LINE
8
right_outsideCutPath
10
261.875
20
267.75
11
261.875
21
265
0
LINE
8
right_outsideCutPath
10
261.875
20
265
11
286.25
21
265
0
LINE
8
right_outsideCutPath
10
286.25
20
265
11
286.25
21
262
0
LINE
8
right_outsideCutPath
10
286.25
20
262
11
337.75
21
262
0
LINE
8
right_outsideCutPath
10
337.75
20
262
11
337.75
21
265
0
LINE
8
right_outsideCutPath
10
337.75
20
265
11
362.125
21
265
0
LINE
8
right_outsideCutPath
10
362.125
20
265
11
362.125
21
267.75
0
LINE
8
right_outsideCutPath
10
362.125
20
267.75
11
360.875
21
267.75
0
LINE
8
right_outsideCutPath
10
360.875
20
267.75
11
360.875
21
270
0
LINE
8
right_outsideCutPath
10
360.875
20
270
11
362.125
21
270
0
LINE
8
right_outsideCutPath
10
362.125
20
270
11
362.125
21
272.25
0
LINE
8
right_outsideCutPath
10
362.125
20
272.25
11
364.875
21
272.25
0
LINE
8
right_outsideCutPath
10
364.875
20
272.25
11
364.875
21
270
0
LINE
8
right_outsideCutPath
10
364.875
20
270
11
366.125
21
270
0
LINE
8
right_outsideCutPath
10
366.125
20
270
11
366.125
21
267.75
0
LINE
8
right_outsideCutPath
10
366.125
20
267.75
11
364.875
21
267.75
0
LINE
8
right_outsideCutPath
10
364.875
20
267.75
11
364.875
21
265
0
LINE
8
right_outsideCutPath
10
364.875
20
265
11
389.25
21
265
0
LINE
8
right_outsideCutPath
10
389.25
20
265
11
389.25
21
262
0
LINE
8
right_outsideCutPath
10
389.25
20
262
11
412
21
262
0
LINE
8
right_outsideCutPath
10
412
20
262
11
412
21
294
0
LINE
8
right_outsideCutPath
10
412
20
294
11
415
21
294
0
LINE
8
right_outsideCutPath
10
415
20
294
11
415
21
324.625
0
LINE
8
right_outsideCutPath
10
415
20
324.625
11
412.25
21
324.625
0
LINE
8
right_outsideCutPath
10
412.25
20
324.625
11
412.25
21
326
0
LINE
8
right_outsideCutPath
10
412.25
20
326
11
412.25
21
326
0
LINE
8
right_outsideCutPath
10
412.25
20
326
11
412.25
21
327.375
0
LINE
8
right_outsideCutPath
10
412.25
20
327.375
11
415
21
327.375
0
LINE
8
right_outsideCutPath
10
415
20
327.375
11
415
21
358
0
LINE
8
right_outsideCutPath
10
415
20
358
11
412
21
358
0
LINE
8
right_outsideCutPath
10
412
20
358
11
412
21
422
0
LINE
8
right_outsideCutPath
10
412
20
422
11
415
21
422
0
LINE
8
right_outsideCutPath
10
415
20
422
11
415
21
452.625
0
LINE
8
right_outsideCutPath
10
415
20
452.625
11
412.25
21
452.625
0
LINE
8
right_outsideCutPath
10
412.25
20
452.625
11
412.25
21
454
0
LINE
8
right_outsideCutPath
10
412.25
20
454
11
412.25
21
454
0
LINE
8
right_outsideCutPath
10
412.25
20
454
11
412.25
21
455.375
0
LINE
8
right_outsideCutPath
10
412.25
20
455.375
11
415
21
455.375
0
LINE
8
right_outsideCutPath
10
415
20
455.375
11
415
21
486
0
LINE
8
right_outsideCutPath
10
415
20
486
11
412
21
486
0
LINE
8
right_outsideCutPath
10
412
20
486
11
412
21
518
0
LINE
8
right_outsideCutPath
10
412
20
518
11
389.25
21
518
0
LINE
8
right_outsideCutPath
10
389.25
20
518
11
389.25
21
515
0
LINE
8
right_outsideCutPath
10
389.25
20
515
11
364.875
21
515
0
LINE
8
right_outsideCutPath
10
364.875
20
515
11
364.875
21
512.25
0
LINE
8
right_outsideCutPath
10
364.875
20
512.25
11
366.125
21
512.25
0
LINE
8
right_outsideCutPath
10
366.125
20
512.25
11
366.125
21
510
0
LINE
8
right_outsideCutPath
10
366.125
20
510
11
364.875
21
510
0
LINE
8
right_outsideCutPath
10
364.875
20
510
11
364.875
21
507.75
0
LINE
8
right_outsideCutPath
10
364.875
20
507.75
11
362.125
21
507.75
0
LINE
8
right_outsideCutPath
10
362.125
20
507.75
11
362.125
21
510
0
LINE
8
right_outsideCutPath
10
362.125
20
510
11
360.875
21
510
0
LINE
8
right_outsideCutPath
10
360.875
20
510
11
360.875
21
512.25
0
LINE
8
right_outsideCutPath
10
360.875
20
512.25
11
362.125
21
512.25
0
LINE
8
right_outsideCutPath
10
362.125
20
512.25
11
362.125
21
515
0
LINE
8
right_outsideCutPath
10
362.125
20
515
11
337.75
21
515
0
LINE
8
right_outsideCutPath
10
337.75
20
515
11
337.75
21
518
0
LINE
8
right_outsideCutPath
10
337.75
20
518
11
286.25
21
518
0
LINE
8
right_outsideCutPath
10
286.25
20
518
11
286.25
21
515
0
LINE
8
right_outsideCutPath
10
286.25
20
515
11
261.875
21
515
0
LINE
8
right_outsideCutPath
10
261.875
20
515
11
261.875
21
512.25
0
LINE
8
right_outsideCutPath
10
261.875
20
512.25
11
263.125
21
512.25
0
LINE
8
right_outsideCutPath
10
263.125
20
512.25
11
263.125
21
510
0
LINE
8
right_outsideCutPath
10
263.125
20
510
11
261.875
21
510
0
LINE
8
right_outsideCutPath
10
261.875
20
510
11
261.875
21
507.75
0
LINE
8
right_outsideCutPath
10
261.875
20
507.75
11
259.125
21
507.75
0
LINE
8
right_outsideCutPath
10
259.125
20
507.75
11
259.125
21
510
0
LINE
8
right_outsideCutPath
10
259.125
20
510
11
257.875
21
510
0
LINE
8
right_outsideCutPath
10
257.875
20
510
11
257.875
21
512.25
0
LINE
8
right_outsideCutPath
10
257.875
20
512.25
11
259.125
21
512.25
0
LINE
8
right_outsideCutPath
10
259.125
20
512.25
11
259.125
21
515
0
LINE
8
right_outsideCutPath
10
259.125
20
515
11
234.75
21
515
0
LINE
8
right_outsideCutPath
10
234.75
20
515
11
234.75
21
518
0
LINE
8
right_outsideCutPath
10
234.75
20
518
11
212
21
518
0
LINE
8
right_labelLayer
10
282.0756836
20
401.5071528
11
281.6129883
21
398.4091059
0
LINE
8
right_labelLayer
10
272.7211914
20
391.126684
11
272.7211914
21
379.2977778
0
LINE
8
right_labelLayer
10
272.7211914
20
379.2977778
11
269.3817383
21
379.2977778
0
LINE
8
right_labelLayer
10
269.3817383
20
379.2977778
11
269.3817383
21
401.3462153
0
LINE
8
right_labelLayer
10
269.3817383
20
401.3462153
11
272.137793
21
401.3462153
0
LINE
8
right_labelLayer
10
272.137793
20
401.3462153
11
272.5200195
21
397.2624262
0
LINE
8
right_labelLayer
10
272.5200195
20
397.2624262
11
272.680957
21
397.2624262
0
ARC
8
right_labelLayer
10
279.474611
20
386.4177099
40
15.3308874
50
84.9922932
51
90.1281102
0
ARC
8
right_labelLayer
10
279.8427881
20
390.5427092
40
11.1894972
50
78.4891907
51
85.0266089
0
ARC
8
right_labelLayer
10
278.4137425
20
384.0430465
40
14.7179767
50
77.445396
51
81.6360185
0
ARC
8
right_labelLayer
10
279.0550032
20
388.4631618
40
10.2515988
50
81.5884307
51
87.1916669
0
ARC
8
right_labelLayer
10
279.1942708
20
390.8781086
40
7.8327565
50
87.3436701
51
89.9659495
0
ARC
8
right_labelLayer
10
279.161917
20
392.9246985
40
5.7862835
50
89.6335366
51
137.0880802
0
ARC
8
right_labelLayer
10
280.5819742
20
391.3278075
40
7.9162107
50
135.6209231
51
138.8377424
0
ARC
8
right_labelLayer
10
280.3738939
20
391.5309112
40
7.625893
50
138.957574
51
174.5422232
0
ARC
8
right_labelLayer
10
282.8574717
20
391.1423027
40
10.1362922
50
173.6907602
51
180.0882855
0
ARC
8
right_labelLayer
10
282.5063508
20
391.7268426
40
11.2774575
50
139.4139389
51
150.603281
0
ARC
8
right_labelLayer
10
280.4842838
20
393.4595393
40
8.6145657
50
124.23214
51
139.4161053
0
ARC
8
right_labelLayer
10
279.4031128
20
395.0915636
40
6.6570994
50
89.6796633
51
124.4405628
0
LINE
8
right_labelLayer
10
289.5391601
20
401.3462153
11
289.5391601
21
379.2977778
0
LINE
8
right_labelLayer
10
289.5391601
20
379.2977778
11
286.199707
21
379.2977778
0
LINE
8
right_labelLayer
10
286.199707
20
379.2977778
11
286.199707
21
401.3462153
0
LINE
8
right_labelLayer
10
286.199707
20
401.3462153
11
289.5391601
21
401.3462153
0
ARC
8
right_labelLayer
10
289.6185196
20
407.3439131
40
3.700524
50
170.8451952
51
180.3544604
0
ARC
8
right_labelLayer
10
288.2332015
20
407.5755406
40
2.2960144
50
155.9679077
51
171.0515564
0
ARC
8
right_labelLayer
10
287.5622086
20
407.873222
40
1.5619553
50
133.788024
51
155.917176
0
ARC
8
right_labelLayer
10
287.8099347
20
407.5993485
40
1.9311199
50
92.6446163
51
133.4710401
0
ARC
8
right_labelLayer
10
287.8881857
20
406.9847253
40
2.5491857
50
89.9693177
51
93.7641865
0
ARC
8
right_labelLayer
10
287.9200408
20
407.5665818
40
1.967565
50
46.3708527
51
90.8879098
0
ARC
8
right_labelLayer
10
288.1158629
20
407.7687428
40
1.6861232
50
17.72517
51
46.4473594
0
ARC
8
right_labelLayer
10
287.2027066
20
407.4542866
40
2.6517539
50
4.9427763
51
18.1900766
0
ARC
8
right_labelLayer
10
286.0409513
20
407.3287
40
3.8200915
50
359.8848099
51
5.3180693
0
ARC
8
right_labelLayer
10
286.4059562
20
407.2975559
40
3.4551586
50
349.8344806
51
0.3890994
0
ARC
8
right_labelLayer
10
287.6638201
20
407.0629051
40
2.1756449
50
332.6322515
51
350.0705435
0
ARC
8
right_labelLayer
10
288.1534188
20
406.8211455
40
1.629741
50
313.6153826
51
332.2677504
0
ARC
8
right_labelLayer
10
287.9174714
20
407.0359854
40
1.9481732
50
269.1788269
51
314.2807455
0
ARC
8
right_labelLayer
10
287.8674171
20
407.2091765
40
2.1212799
50
250.5000302
51
270.5978409
0
ARC
8
right_labelLayer
10
287.8032219
20
406.9691254
40
1.8736715
50
225.1300919
51
249.9001271
0
ARC
8
right_labelLayer
10
287.7027101
20
406.8580947
40
1.7240865
50
197.7933688
51
224.8941933
0
ARC
8
right_labelLayer
10
288.6434305
20
407.1804701
40
2.7183904
50
184.9925373
51
198.2040474
0
ARC
8
right_labelLayer
10
289.8608345
20
407.3128
40
3.9427766
50
179.8805495
51
185.3686535
0
LINE
8
right_labelLayer
10
307.0411133
20
401.3462153
11
314.6655273
21
401.3462153
0
LINE
8
right_labelLayer
10
314.6655273
20
401.3462153
11
314.6655273
21
399.2339106
0
LINE
8
right_labelLayer
10
314.6655273
20
399.2339106
11
310.5817383
21
398.7510981
0
LINE
8
right_labelLayer
10
303.0579101
20
382.7981684
11
306.9606445
21
382.7981684
0
LINE
8
right_labelLayer
10
305.8944336
20
379.8007074
11
301.8911133
21
379.8007074
0
ARC
8
right_labelLayer
10
306.3261209
20
395.3832514
40
5.4270315
50
29.4584357
51
38.3576872
0
ARC
8
right_labelLayer
10
304.1084422
20
394.1172691
40
7.980601
50
23.1845495
51
29.5422193
0
ARC
8
right_labelLayer
10
301.9930128
20
393.179133
40
10.2945726
50
21.2505828
51
23.3489681
0
ARC
8
right_labelLayer
10
305.5891578
20
394.6093294
40
6.4246474
50
6.8504859
51
20.9871842
0
ARC
8
right_labelLayer
10
303.7797394
20
394.363999
40
8.2504573
50
359.871074
51
7.043222
0
ARC
8
right_labelLayer
10
304.3750535
20
394.265832
40
7.6555362
50
342.5649747
51
0.59577
0
ARC
8
right_labelLayer
10
305.7869618
20
393.8759517
40
6.1918877
50
310.6097796
51
342.0923677
0
ARC
8
right_labelLayer
10
304.9952141
20
394.7968989
40
7.4063861
50
284.9315813
51
310.6222761
0
ARC
8
right_labelLayer
10
304.0044334
20
398.2687254
40
11.0164521
50
272.5334911
51
285.2579751
0
ARC
8
right_labelLayer
10
303.7496933
20
401.7484601
40
14.5043953
50
269.9691929
51
272.931185
0
ARC
8
right_labelLayer
10
303.7180772
20
397.9765207
40
10.7324803
50
263.4836891
51
270.1271496
0
ARC
8
right_labelLayer
10
303.5432466
20
396.315951
40
9.0628095
50
259.4963511
51
263.3904363
0
ARC
8
right_labelLayer
10
304.6252197
20
382.1289172
40
5.9424266
50
117.393517
51
128.4095366
0
ARC
8
right_labelLayer
10
303.0954065
20
384.0267625
40
3.5049094
50
128.0882048
51
147.1400288
0
ARC
8
right_labelLayer
10
302.2712324
20
384.579848
40
2.5125667
50
147.536921
51
180.2592141
0
ARC
8
right_labelLayer
10
301.4893543
20
384.5470903
40
1.7307951
50
179.2918754
51
198.3580918
0
ARC
8
right_labelLayer
10
301.1652994
20
384.4619251
40
1.3965707
50
199.2291803
51
239.56908
0
ARC
8
right_labelLayer
10
301.4337378
20
384.8327688
40
1.8528046
50
238.2198621
51
239.8460479
0
ARC
8
right_labelLayer
10
301.6483527
20
385.2741629
40
2.3425542
50
240.7302719
51
254.5026314
0
ARC
8
right_labelLayer
10
302.2876922
20
387.4773099
40
4.6365095
50
254.1637011
51
262.2123376
0
ARC
8
right_labelLayer
10
302.7941311
20
391.014586
40
8.2098159
50
262.0555955
51
267.2083097
0
ARC
8
right_labelLayer
10
303.0387675
20
395.5015704
40
12.7034164
50
267.0919092
51
270.0863383
0
ARC
8
right_labelLayer
10
307.0336451
20
369.1285716
40
13.6697917
50
81.5744295
51
90.3059772
0
ARC
8
right_labelLayer
10
307.7834639
20
374.0187466
40
8.7225656
50
68.3671464
51
81.7399312
0
ARC
8
right_labelLayer
10
308.762801
20
376.5215745
40
6.0349962
50
52.1879537
51
68.2500969
0
ARC
8
right_labelLayer
10
309.4480633
20
377.4449188
40
4.8854767
50
8.6201363
51
51.8982469
0
ARC
8
right_labelLayer
10
307.046333
20
376.9367362
40
7.3376275
50
359.7430704
51
9.7326342
0
ARC
8
right_labelLayer
10
307.1539012
20
376.8129539
40
7.2305566
50
340.5268855
51
0.7201508
0
ARC
8
right_labelLayer
10
308.216248
20
376.5484429
40
6.1416932
50
302.9903667
51
339.549457
0
ARC
8
right_labelLayer
10
307.1009391
20
377.9657501
40
7.9394493
50
303.186959
51
304.1722247
0
ARC
8
right_labelLayer
10
306.0617392
20
379.7650212
40
10.0147314
50
286.2542335
51
302.5279988
0
ARC
8
right_labelLayer
10
304.1703671
20
386.0036461
40
16.5335346
50
276.4939834
51
286.4953644
0
ARC
8
right_labelLayer
10
302.9902634
20
395.8686309
40
26.4687524
50
269.75451
51
276.6169645
0
ARC
8
right_labelLayer
10
302.7887216
20
388.1099901
40
18.7100761
50
262.5634742
51
270.2698928
0
ARC
8
right_labelLayer
10
301.8723324
20
381.3177553
40
11.8564027
50
251.2101857
51
262.7064075
0
ARC
8
right_labelLayer
10
300.5515201
20
377.4409792
40
7.7608033
50
235.9668119
51
251.2229
0
ARC
8
right_labelLayer
10
299.1515695
20
375.4437976
40
5.3223662
50
208.9036293
51
236.4231415
0
ARC
8
right_labelLayer
10
299.2800893
20
375.3899222
40
5.4099405
50
182.2079906
51
207.7461547
0
ARC
8
right_labelLayer
10
300.9158594
20
375.5533238
40
7.0515043
50
179.9784104
51
183.0226526
0
ARC
8
right_labelLayer
10
298.9697551
20
375.6455652
40
5.1061856
50
138.391616
51
181.0052646
0
ARC
8
right_labelLayer
10
299.5089764
20
375.1609653
40
5.831155
50
113.8121461
51
138.3496241
0
ARC
8
right_labelLayer
10
300.5318144
20
372.9522267
40
8.2649497
50
102.2870852
51
114.1172659
0
ARC
8
right_labelLayer
10
300.210413
20
384.1816263
40
3.4659155
50
216.5861447
51
245.4968746
0
ARC
8
right_labelLayer
10
300.7060393
20
384.6021777
40
4.1147632
50
215.4649911
51
217.1748538
0
ARC
8
right_labelLayer
10
299.8801444
20
384.0056447
40
3.0959918
50
182.1767379
51
215.3415583
0
ARC
8
right_labelLayer
10
300.6158868
20
384.0845767
40
3.8345394
50
179.9836881
51
182.9377583
0
ARC
8
right_labelLayer
10
300.6000675
20
384.1179492
40
3.8188563
50
161.7225947
51
180.484328
0
ARC
8
right_labelLayer
10
300.180185
20
384.2325223
40
3.3843024
50
144.4963322
51
161.3350672
0
ARC
8
right_labelLayer
10
301.2994534
20
383.3983455
40
4.7800154
50
132.7259166
51
144.147948
0
ARC
8
right_labelLayer
10
303.0932888
20
381.4827448
40
7.4043555
50
125.2212616
51
132.8655566
0
ARC
8
right_labelLayer
10
304.8967318
20
378.9784508
40
10.4903403
50
121.2352449
51
125.379506
0
ARC
8
right_labelLayer
10
301.6996696
20
393.3558787
40
5.8543313
50
215.1640792
51
247.4747813
0
ARC
8
right_labelLayer
10
302.7924259
20
394.2377852
40
7.2561524
50
212.4713904
51
215.8875759
0
ARC
8
right_labelLayer
10
302.5051038
20
394.032225
40
6.9034161
50
183.0160786
51
212.3123214
0
ARC
8
right_labelLayer
10
304.0200015
20
394.2010762
40
8.4255687
50
179.9759445
51
183.6206922
0
ARC
8
right_labelLayer
10
305.2423395
20
394.286104
40
9.6482501
50
166.8195815
51
180.4839327
0
ARC
8
right_labelLayer
10
302.0416283
20
395.0942139
40
6.3478478
50
132.3287764
51
167.3340861
0
ARC
8
right_labelLayer
10
302.469839
20
394.4786966
40
7.0919214
50
106.2188959
51
131.5377643
0
ARC
8
right_labelLayer
10
303.5532965
20
390.9705384
40
10.7632486
50
93.6329799
51
106.5408584
0
ARC
8
right_labelLayer
10
303.9069966
20
386.9995866
40
14.748981
50
89.9380283
51
94.026778
0
ARC
8
right_labelLayer
10
303.9642705
20
388.9483241
40
12.8003016
50
82.585221
51
90.1849595
0
ARC
8
right_labelLayer
10
304.3553891
20
391.9744856
40
9.7489709
50
74.008904
51
82.5694571
0
ARC
8
right_labelLayer
10
300.4367217
20
375.5506021
40
3.3539264
50
179.2207569
51
200.9355529
0
ARC
8
right_labelLayer
10
300.0378759
20
375.4582497
40
2.9489489
50
202.0286891
51
236.1457406
0
ARC
8
right_labelLayer
10
300.6389085
20
376.2213702
40
3.9182116
50
235.0634188
51
238.5042179
0
ARC
8
right_labelLayer
10
301.3378065
20
377.4696834
40
5.3480465
50
239.1066232
51
254.4862886
0
ARC
8
right_labelLayer
10
302.2695422
20
380.6822839
40
8.6928964
50
254.2324096
51
263.4937279
0
ARC
8
right_labelLayer
10
302.8548063
20
385.6393577
40
13.6843757
50
263.410831
51
270.1457508
0
ARC
8
right_labelLayer
10
302.9171988
20
389.0888942
40
17.1338901
50
269.9077663
51
269.9996355
0
ARC
8
right_labelLayer
10
302.9971246
20
394.4043299
40
22.4494683
50
269.7957339
51
275.3991138
0
ARC
8
right_labelLayer
10
303.8373413
20
385.7787291
40
13.7830995
50
275.2956843
51
283.3516065
0
ARC
8
right_labelLayer
10
305.2062227
20
380.140576
40
7.9812838
50
283.1370683
51
295.8572969
0
ARC
8
right_labelLayer
10
306.2205739
20
377.9261299
40
5.5464042
50
296.4047212
51
301.8009198
0
ARC
8
right_labelLayer
10
306.6182097
20
377.3780607
40
4.8713145
50
301.2230653
51
318.6238167
0
ARC
8
right_labelLayer
10
307.5151572
20
376.5495151
40
3.650703
50
319.0765523
51
1.1406958
0
ARC
8
right_labelLayer
10
306.6470865
20
376.6579854
40
4.518192
50
359.5460918
51
10.9904569
0
ARC
8
right_labelLayer
10
308.3923083
20
377.01296
40
2.7373502
50
10.6608886
51
30.9361707
0
ARC
8
right_labelLayer
10
308.9456634
20
377.3200535
40
2.1049489
50
31.5095291
51
58.0778018
0
ARC
8
right_labelLayer
10
308.4270386
20
376.3914383
40
3.1677664
50
58.997205
51
73.8586263
0
ARC
8
right_labelLayer
10
307.3787746
20
372.9597263
40
6.7558288
50
73.4100186
51
81.5906986
0
ARC
8
right_labelLayer
10
306.4905982
20
367.2120126
40
12.5716944
50
81.4172357
51
86.5756612
0
ARC
8
right_labelLayer
10
305.9463265
20
358.5521669
40
21.2486038
50
86.5054355
51
90.1399268
0
ARC
8
right_labelLayer
10
301.8433527
20
372.1244144
40
7.6764417
50
89.6435204
51
100.0209011
0
ARC
8
right_labelLayer
10
301.3608756
20
374.7490632
40
5.0079128
50
99.8102908
51
116.8229635
0
ARC
8
right_labelLayer
10
300.8908931
20
375.7401932
40
3.9114497
50
117.2304514
51
130.5023377
0
ARC
8
right_labelLayer
10
300.6495831
20
376.0503324
40
3.5189463
50
130.7944685
51
169.041353
0
ARC
8
right_labelLayer
10
302.4265784
20
375.6318435
40
5.3435919
50
168.2580619
51
180.3820204
0
ARC
8
right_labelLayer
10
305.4119903
20
394.2352243
40
6.5185287
50
179.5617591
51
191.6529026
0
ARC
8
right_labelLayer
10
303.1455738
20
393.7455565
40
4.1999772
50
191.3555153
51
213.366035
0
ARC
8
right_labelLayer
10
302.6012991
20
393.431289
40
3.5727607
50
213.957409
51
227.7971274
0
ARC
8
right_labelLayer
10
303.0748276
20
394.0056073
40
4.3164375
50
228.2620708
51
254.7341381
0
ARC
8
right_labelLayer
10
303.6798006
20
396.0794681
40
6.4765184
50
254.401658
51
267.4348698
0
ARC
8
right_labelLayer
10
303.8376366
20
398.1962847
40
8.5985083
50
267.0154703
51
270.0322768
0
ARC
8
right_labelLayer
10
303.9407977
20
396.8722783
40
7.2751649
50
269.2256761
51
284.3773167
0
ARC
8
right_labelLayer
10
304.9323905
20
393.4175567
40
3.6838529
50
282.7796669
51
346.4828503
0
ARC
8
right_labelLayer
10
301.9677897
20
394.2573004
40
6.7637414
50
345.4362168
51
0.7466021
0
ARC
8
right_labelLayer
10
301.551057
20
394.4481177
40
7.1806342
50
359.1806372
51
15.0431694
0
ARC
8
right_labelLayer
10
304.8047321
20
395.3972486
40
3.7928029
50
13.9535677
51
77.6673822
0
ARC
8
right_labelLayer
10
303.8712219
20
392.0519452
40
7.2629804
50
76.1095053
51
90.7028497
0
ARC
8
right_labelLayer
10
303.7314912
20
392.3074423
40
7.00712
50
89.5859421
51
101.333408
0
ARC
8
right_labelLayer
10
303.2307402
20
394.6958116
40
4.5669682
50
101.0620544
51
121.9739038
0
ARC
8
right_labelLayer
10
302.8788141
20
395.3289032
40
3.8437421
50
122.5210871
51
134.9966874
0
ARC
8
right_labelLayer
10
303.0237148
20
395.242086
40
4.0077996
50
135.5839897
51
163.0015861
0
ARC
8
right_labelLayer
10
305.1401307
20
394.5483995
40
6.2347111
50
162.5911919
51
175.7343178
0
ARC
8
right_labelLayer
10
307.678612
20
394.2983294
40
8.7849698
50
175.3393308
51
180.0863968
0
LINE
8
right_labelLayer
10
337.6192383
20
379.2977778
11
334.2797851
21
379.2977778
0
LINE
8
right_labelLayer
10
334.2797851
20
379.2977778
11
334.2797851
21
393.5608637
0
LINE
8
right_labelLayer
10
322.5313476
20
390.8249262
11
322.5313476
21
379.2977778
0
LINE
8
right_labelLayer
10
322.5313476
20
379.2977778
11
319.1918945
21
379.2977778
0
LINE
8
right_labelLayer
10
319.1918945
20
379.2977778
11
319.1918945
21
410.6001215
0
LINE
8
right_labelLayer
10
319.1918945
20
410.6001215
11
322.5313476
21
410.6001215
0
LINE
8
right_labelLayer
10
322.5313476
20
410.6001215
11
322.5313476
21
401.1249262
0
LINE
8
right_labelLayer
10
322.3704101
20
398.2884028
11
322.571582
21
398.2884028
0
LINE
8
right_labelLayer
10
337.6192383
20
393.6815668
11
337.6192383
21
379.2977778
0
ARC
8
right_labelLayer
10
324.8401497
20
393.6150002
40
9.4397906
50
359.6714109
51
8.6877265
0
ARC
8
right_labelLayer
10
328.3387971
20
394.1698632
40
5.8975083
50
8.4931378
51
22.6579757
0
ARC
8
right_labelLayer
10
330.1163588
20
394.9085611
40
3.9725701
50
22.7024405
51
42.3419531
0
ARC
8
right_labelLayer
10
330.3161663
20
394.9984405
40
3.764963
50
43.379094
51
71.5386036
0
ARC
8
right_labelLayer
10
329.5689927
20
392.910645
40
5.9821082
50
71.0827995
51
84.3691118
0
ARC
8
right_labelLayer
10
329.2335973
20
390.0590112
40
8.8530551
50
84.0197821
51
90.1510756
0
ARC
8
right_labelLayer
10
329.1382836
20
388.8066128
40
10.1056791
50
89.5919492
51
100.3595085
0
ARC
8
right_labelLayer
10
328.4227099
20
392.5670562
40
6.277919
50
100.1067846
51
118.0847277
0
ARC
8
right_labelLayer
10
327.6949145
20
393.9951711
40
4.6754297
50
118.4551151
51
139.6706098
0
ARC
8
right_labelLayer
10
328.4255806
20
393.4957508
40
5.5564224
50
140.6208376
51
160.5048947
0
ARC
8
right_labelLayer
10
332.2769607
20
392.0699814
40
9.6629983
50
160.1566995
51
171.5312751
0
ARC
8
right_labelLayer
10
338.5085803
20
391.0826562
40
15.9721819
50
171.3202309
51
178.340674
0
ARC
8
right_labelLayer
10
344.0844649
20
390.8335572
40
21.5531191
50
178.1079729
51
180.0229443
0
ARC
8
right_labelLayer
10
292.4906355
20
401.0891123
40
30.0407335
50
357.8674198
51
0.0683068
0
ARC
8
right_labelLayer
10
302.6959272
20
400.6997612
40
19.8280236
50
354.982847
51
357.8943587
0
ARC
8
right_labelLayer
10
309.4357625
20
400.1128612
40
13.0626858
50
351.9712794
51
354.9619067
0
ARC
8
right_labelLayer
10
328.2280516
20
394.7500833
40
6.6719827
50
119.8315967
51
147.9725817
0
ARC
8
right_labelLayer
10
329.0359157
20
393.5090657
40
8.150856
50
116.6657902
51
120.4183369
0
ARC
8
right_labelLayer
10
329.1868086
20
393.1127343
40
8.5728598
50
96.6652575
51
116.3782429
0
ARC
8
right_labelLayer
10
329.5118391
20
390.870199
40
10.8381446
50
89.8927379
51
96.9959084
0
ARC
8
right_labelLayer
10
329.6157719
20
388.1599534
40
13.5486294
50
80.6862989
51
90.35372
0
ARC
8
right_labelLayer
10
330.4594004
20
393.1220363
40
8.5154797
50
65.6022822
51
80.8844141
0
ARC
8
right_labelLayer
10
331.4724383
20
395.4036251
40
6.0192154
50
46.740086
51
65.413068
0
ARC
8
right_labelLayer
10
331.5412902
20
395.6210205
40
5.8145521
50
19.2204376
51
45.7660694
0
ARC
8
right_labelLayer
10
328.1885672
20
394.3781411
40
9.389811
50
6.4733902
51
19.6467935
0
ARC
8
right_labelLayer
10
323.1787755
20
393.7333544
40
14.4405557
50
359.7945221
51
6.7743935
0
LINE
8
right_labelLayer
10
354.6182617
20
382.0538324
11
354.6182617
21
379.4989496
0
LINE
8
right_labelLayer
10
344.7206055
20
385.6346918
11
344.7206055
21
398.7510981
0
LINE
8
right_labelLayer
10
344.7206055
20
398.7510981
11
341.562207
21
398.7510981
0
LINE
8
right_labelLayer
10
341.562207
20
398.7510981
11
341.562207
21
400.3604731
0
LINE
8
right_labelLayer
10
341.562207
20
400.3604731
11
344.7206055
21
401.748559
0
LINE
8
right_labelLayer
10
344.7206055
20
401.748559
11
346.1288086
21
406.4559809
0
LINE
8
right_labelLayer
10
346.1288086
20
406.4559809
11
348.0600586
21
406.4559809
0
LINE
8
right_labelLayer
10
348.0600586
20
406.4559809
11
348.0600586
21
401.3462153
0
LINE
8
right_labelLayer
10
348.0600586
20
401.3462153
11
354.4573242
21
401.3462153
0
LINE
8
right_labelLayer
10
354.4573242
20
401.3462153
11
354.4573242
21
398.7510981
0
LINE
8
right_labelLayer
10
354.4573242
20
398.7510981
11
348.0600586
21
398.7510981
0
LINE
8
right_labelLayer
10
348.0600586
20
398.7510981
11
348.0600586
21
385.7755121
0
ARC
8
right_labelLayer
10
351.6235852
20
392.6187014
40
10.9672366
50
269.8803556
51
278.3028212
0
ARC
8
right_labelLayer
10
351.7280706
20
391.7650046
40
10.107419
50
278.4155589
51
279.0081799
0
ARC
8
right_labelLayer
10
350.4974705
20
399.6266155
40
18.0647533
50
278.9589757
51
280.5104496
0
ARC
8
right_labelLayer
10
351.6700832
20
393.334814
40
11.6646172
50
280.4848084
51
282.6267838
0
ARC
8
right_labelLayer
10
352.6986842
20
388.7649906
40
6.9804664
50
282.5876873
51
285.5794965
0
ARC
8
right_labelLayer
10
353.2134217
20
386.8716781
40
5.0184869
50
285.7241644
51
286.2562045
0
ARC
8
right_labelLayer
10
353.2142812
20
382.4684419
40
3.2846682
50
287.988778
51
295.304856
0
ARC
8
right_labelLayer
10
352.4220315
20
384.8653524
40
5.8090968
50
283.3069154
51
288.1197863
0
ARC
8
right_labelLayer
10
351.5851246
20
388.356333
40
9.3989833
50
280.0069729
51
283.37353
0
ARC
8
right_labelLayer
10
351.0248615
20
391.3969099
40
12.4906806
50
279.1863334
51
280.1142395
0
ARC
8
right_labelLayer
10
350.6813917
20
393.3504678
40
14.474042
50
275.526042
51
279.2939556
0
ARC
8
right_labelLayer
10
351.0687343
20
389.3046943
40
10.4097713
50
270.8932558
51
275.5483779
0
ARC
8
right_labelLayer
10
351.1173852
20
387.4561114
40
8.5606776
50
270.0032517
51
270.7605603
0
ARC
8
right_labelLayer
10
350.9831133
20
387.6165543
40
8.7221614
50
253.7847964
51
270.8852578
0
ARC
8
right_labelLayer
10
349.9497699
20
384.0924586
40
5.0497051
50
190.3817663
51
253.8772375
0
ARC
8
right_labelLayer
10
355.216717
20
385.5165464
40
10.4967764
50
179.3550997
51
192.8477548
0
ARC
8
right_labelLayer
10
354.7844796
20
385.733454
40
6.7245526
50
179.6416463
51
189.750578
0
ARC
8
right_labelLayer
10
352.4105873
20
385.3100434
40
4.3132708
50
189.5479619
51
205.7873507
0
ARC
8
right_labelLayer
10
351.4350098
20
384.8601749
40
3.2391968
50
206.1294334
51
221.4083953
0
ARC
8
right_labelLayer
10
351.3256228
20
384.7771744
40
3.102273
50
221.5949212
51
262.3505178
0
ARC
8
right_labelLayer
10
351.585781
20
386.1150196
40
4.4635558
50
261.3266451
51
270.1912951
0
LINE
8
bottom_outsideCutPath
10
421
20
415
11
421
21
392.25
0
LINE
8
bottom_outsideCutPath
10
421
20
392.25
11
418
21
392.25
0
LINE
8
bottom_outsideCutPath
10
418
20
392.25
11
418
21
367.875
0
LINE
8
bottom_outsideCutPath
10
418
20
367.875
11
420.75
21
367.875
0
LINE
8
bottom_outsideCutPath
10
420.75
20
367.875
11
420.75
21
366.5
0
LINE
8
bottom_outsideCutPath
10
420.75
20
366.5
11
420.75
21
366.5
0
LINE
8
bottom_outsideCutPath
10
420.75
20
366.5
11
420.75
21
365.125
0
LINE
8
bottom_outsideCutPath
10
420.75
20
365.125
11
418
21
365.125
0
LINE
8
bottom_outsideCutPath
10
418
20
365.125
11
418
21
340.75
0
LINE
8
bottom_outsideCutPath
10
418
20
340.75
11
421
21
340.75
0
LINE
8
bottom_outsideCutPath
10
421
20
340.75
11
421
21
289.25
0
LINE
8
bottom_outsideCutPath
10
421
20
289.25
11
418
21
289.25
0
LINE
8
bottom_outsideCutPath
10
418
20
289.25
11
418
21
264.875
0
LINE
8
bottom_outsideCutPath
10
418
20
264.875
11
420.75
21
264.875
0
LINE
8
bottom_outsideCutPath
10
420.75
20
264.875
11
420.75
21
263.5
0
LINE
8
bottom_outsideCutPath
10
420.75
20
263.5
11
420.75
21
263.5
0
LINE
8
bottom_outsideCutPath
10
420.75
20
263.5
11
420.75
21
262.125
0
LINE
8
bottom_outsideCutPath
10
420.75
20
262.125
11
418
21
262.125
0
LINE
8
bottom_outsideCutPath
10
418
20
262.125
11
418
21
237.75
0
LINE
8
bottom_outsideCutPath
10
418
20
237.75
11
421
21
237.75
0
LINE
8
bottom_outsideCutPath
10
421
20
237.75
11
421
21
215
0
LINE
8
bottom_outsideCutPath
10
421
20
215
11
443.75
21
215
0
LINE
8
bottom_outsideCutPath
10
443.75
20
215
11
443.75
21
212
0
LINE
8
bottom_outsideCutPath
10
443.75
20
212
11
468.125
21
212
0
LINE
8
bottom_outsideCutPath
10
468.125
20
212
11
468.125
21
214.75
0
LINE
8
bottom_outsideCutPath
10
468.125
20
214.75
11
469.5
21
214.75
0
LINE
8
bottom_outsideCutPath
10
469.5
20
214.75
11
469.5
21
214.75
0
LINE
8
bottom_outsideCutPath
10
469.5
20
214.75
11
470.875
21
214.75
0
LINE
8
bottom_outsideCutPath
10
470.875
20
214.75
11
470.875
21
212
0
LINE
8
bottom_outsideCutPath
10
470.875
20
212
11
495.25
21
212
0
LINE
8
bottom_outsideCutPath
10
495.25
20
212
11
495.25
21
215
0
LINE
8
bottom_outsideCutPath
10
495.25
20
215
11
546.75
21
215
0
LINE
8
bottom_outsideCutPath
10
546.75
20
215
11
546.75
21
212
0
LINE
8
bottom_outsideCutPath
10
546.75
20
212
11
571.125
21
212
0
LINE
8
bottom_outsideCutPath
10
571.125
20
212
11
571.125
21
214.75
0
LINE
8
bottom_outsideCutPath
10
571.125
20
214.75
11
572.5
21
214.75
0
LINE
8
bottom_outsideCutPath
10
572.5
20
214.75
11
572.5
21
214.75
0
LINE
8
bottom_outsideCutPath
10
572.5
20
214.75
11
573.875
21
214.75
0
LINE
8
bottom_outsideCutPath
10
573.875
20
214.75
11
573.875
21
212
0
LINE
8
bottom_outsideCutPath
10
573.875
20
212
11
598.25
21
212
0
LINE
8
bottom_outsideCutPath
10
598.25
20
212
11
598.25
21
215
0
LINE
8
bottom_outsideCutPath
10
598.25
20
215
11
621
21
215
0
LINE
8
bottom_outsideCutPath
10
621
20
215
11
621
21
237.75
0
LINE
8
bottom_outsideCutPath
10
621
20
237.75
11
624
21
237.75
0
LINE
8
bottom_outsideCutPath
10
624
20
237.75
11
624
21
262.125
0
LINE
8
bottom_outsideCutPath
10
624
20
262.125
11
621.25
21
262.125
0
LINE
8
bottom_outsideCutPath
10
621.25
20
262.125
11
621.25
21
263.5
0
LINE
8
bottom_outsideCutPath
10
621.25
20
263.5
11
621.25
21
263.5
0
LINE
8
bottom_outsideCutPath
10
621.25
20
263.5
11
621.25
21
264.875
0
LINE
8
bottom_outsideCutPath
10
621.25
20
264.875
11
624
21
264.875
0
LINE
8
bottom_outsideCutPath
10
624
20
264.875
11
624
21
289.25
0
LINE
8
bottom_outsideCutPath
10
624
20
289.25
11
621
21
289.25
0
LINE
8
bottom_outsideCutPath
10
621
20
289.25
11
621
21
340.75
0
LINE
8
bottom_outsideCutPath
10
621
20
340.75
11
624
21
340.75
0
LINE
8
bottom_outsideCutPath
10
624
20
340.75
11
624
21
365.125
0
LINE
8
bottom_outsideCutPath
10
624
20
365.125
11
621.25
21
365.125
0
LINE
8
bottom_outsideCutPath
10
621.25
20
365.125
11
621.25
21
366.5
0
LINE
8
bottom_outsideCutPath
10
621.25
20
366.5
11
621.25
21
366.5
0
LINE
8
bottom_outsideCutPath
10
621.25
20
366.5
11
621.25
21
367.875
0
LINE
8
bottom_outsideCutPath
10
621.25
20
367.875
11
624
21
367.875
0
LINE
8
bottom_outsideCutPath
10
624
20
367.875
11
624
21
392.25
0
LINE
8
bottom_outsideCutPath
10
624
20
392.25
11
621
21
392.25
0
LINE
8
bottom_outsideCutPath
10
621
20
392.25
11
621
21
415
0
LINE
8
bottom_outsideCutPath
10
621
20
415
11
598.25
21
415
0
LINE
8
bottom_outsideCutPath
10
598.25
20
415
11
598.25
21
418
0
LINE
8
bottom_outsideCutPath
10
598.25
20
418
11
573.875
21
418
0
LINE
8
bottom_outsideCutPath
10
573.875
20
418
11
573.875
21
415.25
0
LINE
8
bottom_outsideCutPath
10
573.875
20
415.25
11
572.5
21
415.25
0
LINE
8
bottom_outsideCutPath
10
572.5
20
415.25
11
572.5
21
415.25
0
LINE
8
bottom_outsideCutPath
10
572.5
20
415.25
11
571.125
21
415.25
0
LINE
8
bottom_outsideCutPath
10
571.125
20
415.25
11
571.125
21
418
0
LINE
8
bottom_outsideCutPath
10
571.125
20
418
11
546.75
21
418
0
LINE
8
bottom_outsideCutPath
10
546.75
20
418
11
546.75
21
415
0
LINE
8
bottom_outsideCutPath
10
546.75
20
415
11
495.25
21
415
0
LINE
8
bottom_outsideCutPath
10
495.25
20
415
11
495.25
21
418
0
LINE
8
bottom_outsideCutPath
10
495.25
20
418
11
470.875
21
418
0
LINE
8
bottom_outsideCutPath
10
470.875
20
418
11
470.875
21
415.25
0
LINE
8
bottom_outsideCutPath
10
470.875
20
415.25
11
469.5
21
415.25
0
LINE
8
bottom_outsideCutPath
10
469.5
20
415.25
11
469.5
21
415.25
0
LINE
8
bottom_outsideCutPath
10
469.5
20
415.25
11
468.125
21
415.25
0
LINE
8
bottom_outsideCutPath
10
468.125
20
415.25
11
468.125
21
418
0
LINE
8
bottom_outsideCutPath
10
468.125
20
418
11
443.75
21
418
0
LINE
8
bottom_outsideCutPath
10
443.75
20
418
11
443.75
21
415
0
LINE
8
bottom_outsideCutPath
10
443.75
20
415
11
421
21
415
0
LINE
8
bottom_labelLayer
10
456.5645508
20
302.387044
11
456.3231446
21
302.387044
0
LINE
8
bottom_labelLayer
10
456.3231446
20
302.387044
11
455.619043
21
299.5505205
0
LINE
8
bottom_labelLayer
10
455.619043
20
299.5505205
11
453.2250977
21
299.5505205
0
LINE
8
bottom_labelLayer
10
453.2250977
20
299.5505205
11
453.2250977
21
330.8528643
0
LINE
8
bottom_labelLayer
10
453.2250977
20
330.8528643
11
456.5645508
21
330.8528643
0
LINE
8
bottom_labelLayer
10
456.5645508
20
330.8528643
11
456.5645508
21
323.2485674
0
LINE
8
bottom_labelLayer
10
456.4036133
20
318.6618487
11
456.5645508
21
318.6618487
0
ARC
8
bottom_labelLayer
10
463.5850416
20
311.755029
40
10.20653
50
74.2393308
51
90.5623738
0
ARC
8
bottom_labelLayer
10
464.2599336
20
314.2308963
40
7.6404646
50
38.5631246
51
74.0670409
0
ARC
8
bottom_labelLayer
10
462.5231378
20
312.8804357
40
9.8403849
50
16.4709274
51
38.4075294
0
ARC
8
bottom_labelLayer
10
457.5196856
20
311.3115004
40
15.0835971
50
5.1338433
51
16.7973357
0
ARC
8
bottom_labelLayer
10
451.2032617
20
310.6405244
40
21.4349706
50
359.8779294
51
5.4093621
0
ARC
8
bottom_labelLayer
10
453.0585463
20
310.4793384
40
19.5799781
50
350.6562783
51
0.3380359
0
ARC
8
bottom_labelLayer
10
459.8844366
20
309.3183279
40
12.6562101
50
335.8305976
51
350.8254849
0
ARC
8
bottom_labelLayer
10
462.8870341
20
308.0223642
40
9.3863272
50
321.3161437
51
335.5436205
0
ARC
8
bottom_labelLayer
10
464.0349416
20
307.0869932
40
7.9056451
50
274.064006
51
321.4081026
0
ARC
8
bottom_labelLayer
10
463.5001666
20
310.4744744
40
11.3263081
50
269.9225858
51
275.5481594
0
ARC
8
bottom_labelLayer
10
463.4285473
20
309.2773034
40
10.1292832
50
255.7755407
51
270.3185501
0
ARC
8
bottom_labelLayer
10
463.1394937
20
307.9930551
40
8.8134535
50
245.9801725
51
255.545565
0
ARC
8
bottom_labelLayer
10
462.5796017
20
306.6910192
40
7.3962856
50
215.5850199
51
245.8361688
0
ARC
8
bottom_labelLayer
10
386.9391561
20
323.1897123
40
69.6254196
50
358.1123277
51
0.0484327
0
ARC
8
bottom_labelLayer
10
406.3170654
20
322.5391533
40
50.236598
50
355.7238727
51
358.1258941
0
ARC
8
bottom_labelLayer
10
414.7814728
20
321.9582871
40
41.7524739
50
355.4716747
51
355.6526732
0
ARC
8
bottom_labelLayer
10
462.7924852
20
314.3189425
40
7.5926281
50
95.1835128
51
145.1108993
0
ARC
8
bottom_labelLayer
10
463.4598483
20
310.5556108
40
11.4054839
50
89.8743365
51
96.8145308
0
ARC
8
bottom_labelLayer
10
462.9321376
20
309.7809015
40
9.3841373
50
89.5731338
51
100.7324325
0
ARC
8
bottom_labelLayer
10
462.2374503
20
313.2906985
40
5.8064408
50
100.4469486
51
119.6700713
0
ARC
8
bottom_labelLayer
10
461.5932656
20
314.4950797
40
4.4412408
50
120.1402972
51
142.4248878
0
ARC
8
bottom_labelLayer
10
462.6590176
20
313.7900522
40
5.7165602
50
143.3382393
51
161.255991
0
ARC
8
bottom_labelLayer
10
467.1157971
20
312.2077464
40
10.4456377
50
160.8926382
51
171.2334242
0
ARC
8
bottom_labelLayer
10
474.5558581
20
311.0074893
40
17.9817862
50
171.0667778
51
177.8456853
0
ARC
8
bottom_labelLayer
10
482.2935165
20
310.6139568
40
25.7289727
50
177.6176775
51
180.0425344
0
ARC
8
bottom_labelLayer
10
478.6445629
20
310.5086355
40
22.0801804
50
179.7762648
51
185.7075258
0
ARC
8
bottom_labelLayer
10
469.9391639
20
309.6116722
40
13.3287617
50
185.5924902
51
194.2050607
0
ARC
8
bottom_labelLayer
10
464.3625259
20
308.1643422
40
7.5675512
50
193.9430347
51
208.0218414
0
ARC
8
bottom_labelLayer
10
462.1062066
20
307.0164907
40
5.0366904
50
208.5536607
51
217.5605586
0
ARC
8
bottom_labelLayer
10
461.9223876
20
306.9400366
40
4.8446424
50
218.1690514
51
253.804712
0
ARC
8
bottom_labelLayer
10
462.8209744
20
309.7104733
40
7.7562903
50
253.1382454
51
266.8483101
0
ARC
8
bottom_labelLayer
10
463.0729523
20
312.6820477
40
10.7375862
50
266.377559
51
270.051051
0
ARC
8
bottom_labelLayer
10
463.1537544
20
308.6012573
40
6.6571726
50
269.3868968
51
285.8630581
0
ARC
8
bottom_labelLayer
10
463.6483402
20
306.8137524
40
4.8025674
50
286.0162908
51
326.8497324
0
ARC
8
bottom_labelLayer
10
461.2612138
20
308.3951368
40
7.6659451
50
326.7104999
51
343.6661737
0
ARC
8
bottom_labelLayer
10
456.7926519
20
309.7605843
40
12.338279
50
343.4171347
51
353.6369104
0
ARC
8
bottom_labelLayer
10
450.0433506
20
310.5614365
40
19.1348186
50
353.4934758
51
0.2205454
0
ARC
8
bottom_labelLayer
10
449.4484175
20
310.7149537
40
19.7297715
50
359.7680757
51
6.3095217
0
ARC
8
bottom_labelLayer
10
456.8802154
20
311.5677967
40
12.2493021
50
6.1648645
51
16.039642
0
ARC
8
bottom_labelLayer
10
461.6676668
20
312.9786581
40
7.2584739
50
15.7779398
51
32.0151274
0
ARC
8
bottom_labelLayer
10
463.160414
20
313.8334844
40
5.5399807
50
32.7034765
51
35.5242163
0
ARC
8
bottom_labelLayer
10
463.7065756
20
314.2216703
40
4.8699223
50
35.5408375
51
79.8011249
0
ARC
8
bottom_labelLayer
10
463.0525936
20
311.4414576
40
7.7234861
50
78.6781397
51
90.3749483
0
ARC
8
bottom_labelLayer
10
480.253778
20
310.4785675
40
17.2496413
50
349.1761908
51
0.386264
0
ARC
8
bottom_labelLayer
10
486.0613257
20
309.3208213
40
11.3280971
50
330.2507037
51
349.4116481
0
ARC
8
bottom_labelLayer
10
487.8485787
20
308.3918806
40
9.3157959
50
318.1439838
51
329.7566089
0
ARC
8
bottom_labelLayer
10
488.1711701
20
308.1333562
40
8.9030478
50
278.8959155
51
317.9979136
0
ARC
8
bottom_labelLayer
10
487.3400122
20
312.1155125
40
12.9674588
50
269.7502871
51
279.803319
0
ARC
8
bottom_labelLayer
10
487.2052153
20
309.871814
40
10.723923
50
253.5436936
51
270.4182423
0
ARC
8
bottom_labelLayer
10
486.8482379
20
308.4909345
40
9.298612
50
238.8115568
51
253.2428324
0
ARC
8
bottom_labelLayer
10
486.7330277
20
308.2592471
40
9.0407739
50
207.7947053
51
238.6757975
0
ARC
8
bottom_labelLayer
10
488.3862138
20
309.271741
40
10.9760621
50
205.6560151
51
208.4461195
0
ARC
8
bottom_labelLayer
10
489.6595466
20
309.8022944
40
12.353785
50
188.9102465
51
205.3171423
0
ARC
8
bottom_labelLayer
10
493.9508235
20
310.5290968
40
16.7059332
50
179.7744658
51
189.0932821
0
ARC
8
bottom_labelLayer
10
494.5838514
20
310.7122981
40
17.3392296
50
169.244298
51
180.3880772
0
ARC
8
bottom_labelLayer
10
488.6955849
20
311.876194
40
11.3372883
50
150.7111496
51
169.4695413
0
ARC
8
bottom_labelLayer
10
486.8158664
20
312.8414987
40
9.2259523
50
138.1759464
51
150.2287433
0
ARC
8
bottom_labelLayer
10
486.5031896
20
313.0814411
40
8.8329921
50
99.1759375
51
137.983276
0
ARC
8
bottom_labelLayer
10
487.3637928
20
309.0313392
40
12.9701037
50
89.7326344
51
100.0759766
0
ARC
8
bottom_labelLayer
10
487.5357975
20
310.7804473
40
11.2214083
50
73.5222712
51
90.5692243
0
ARC
8
bottom_labelLayer
10
488.1938677
20
313.1713869
40
8.7421348
50
41.144565
51
73.2133871
0
ARC
8
bottom_labelLayer
10
486.9376646
20
312.0916978
40
10.398523
50
13.5014371
51
41.0703399
0
ARC
8
bottom_labelLayer
10
482.084361
20
310.8216512
40
15.414555
50
1.1277153
51
13.8800084
0
ARC
8
bottom_labelLayer
10
477.9042868
20
310.5976345
40
19.5987407
50
359.9918785
51
1.5419849
0
ARC
8
bottom_labelLayer
10
497.6158777
20
310.5080715
40
16.9109246
50
179.705963
51
187.9160788
0
ARC
8
bottom_labelLayer
10
491.4134883
20
309.6171056
40
10.6449702
50
187.7639329
51
200.0976814
0
ARC
8
bottom_labelLayer
10
487.996606
20
308.3651577
40
7.0059518
50
200.0845999
51
216.9131532
0
ARC
8
bottom_labelLayer
10
486.7488761
20
307.4742209
40
5.4733588
50
217.3009535
51
261.7099084
0
ARC
8
bottom_labelLayer
10
487.3281121
20
310.2382868
40
8.2938983
50
260.5033298
51
270.2476781
0
ARC
8
bottom_labelLayer
10
487.4386705
20
309.7008024
40
7.7566963
50
269.4481694
51
284.7255668
0
ARC
8
bottom_labelLayer
10
488.0527223
20
307.4234799
40
5.3981092
50
284.5662354
51
322.633383
0
ARC
8
bottom_labelLayer
10
486.6170442
20
308.4606947
40
7.1687938
50
323.0089162
51
342.6390554
0
ARC
8
bottom_labelLayer
10
482.5106577
20
309.8027788
40
11.488709
50
342.3615784
51
353.7537496
0
ARC
8
bottom_labelLayer
10
476.4524169
20
310.5330169
40
17.5905627
50
353.5363142
51
0.2014234
0
ARC
8
bottom_labelLayer
10
477.3806383
20
310.6799008
40
16.6624499
50
359.707564
51
7.8972736
0
ARC
8
bottom_labelLayer
10
483.4828909
20
311.554716
40
10.4979113
50
7.7439914
51
20.0690221
0
ARC
8
bottom_labelLayer
10
486.8833068
20
312.8025419
40
6.8757771
50
20.0257026
51
37.4350512
0
ARC
8
bottom_labelLayer
10
488.0115376
20
313.6031175
40
5.4935027
50
37.9577645
51
80.4006177
0
ARC
8
bottom_labelLayer
10
487.3703999
20
310.7424271
40
8.4224807
50
79.3453405
51
90.3174806
0
ARC
8
bottom_labelLayer
10
487.251685
20
311.2175887
40
7.9475162
50
89.4805975
51
103.8804956
0
ARC
8
bottom_labelLayer
10
486.5838884
20
313.7605602
40
5.3187387
50
103.4685222
51
142.3118903
0
ARC
8
bottom_labelLayer
10
487.8821369
20
312.8475391
40
6.9046622
50
142.9025715
51
162.3749602
0
ARC
8
bottom_labelLayer
10
491.9729295
20
311.4842943
40
11.2163623
50
162.0653208
51
173.1674851
0
ARC
8
bottom_labelLayer
10
498.3515017
20
310.6707416
40
17.6464891
50
173.0086078
51
180.2463897
0
LINE
8
bottom_labelLayer
10
513.4961914
20
302.3065752
11
513.4961914
21
299.7516924
0
LINE
8
bottom_labelLayer
10
503.5985352
20
305.8874346
11
503.5985352
21
319.0038408
0
LINE
8
bottom_labelLayer
10
503.5985352
20
319.0038408
11
500.4401367
21
319.0038408
0
LINE
8
bottom_labelLayer
10
500.4401367
20
319.0038408
11
500.4401367
21
320.6132158
0
LINE
8
bottom_labelLayer
10
500.4401367
20
320.6132158
11
503.5985352
21
322.0013018
0
LINE
8
bottom_labelLayer
10
503.5985352
20
322.0013018
11
505.0067383
21
326.7087237
0
LINE
8
bottom_labelLayer
10
505.0067383
20
326.7087237
11
506.9379883
21
326.7087237
0
LINE
8
bottom_labelLayer
10
506.9379883
20
326.7087237
11
506.9379883
21
321.598958
0
LINE
8
bottom_labelLayer
10
506.9379883
20
321.598958
11
513.3352539
21
321.598958
0
LINE
8
bottom_labelLayer
10
513.3352539
20
321.598958
11
513.3352539
21
319.0038408
0
LINE
8
bottom_labelLayer
10
513.3352539
20
319.0038408
11
506.9379883
21
319.0038408
0
LINE
8
bottom_labelLayer
10
506.9379883
20
319.0038408
11
506.9379883
21
306.0282549
0
ARC
8
bottom_labelLayer
10
510.5015149
20
312.8714442
40
10.9672366
50
269.8803556
51
278.3028212
0
ARC
8
bottom_labelLayer
10
510.6060003
20
312.0177474
40
10.107419
50
278.4155589
51
279.0081799
0
ARC
8
bottom_labelLayer
10
509.3754002
20
319.8793583
40
18.0647533
50
278.9589757
51
280.5104496
0
ARC
8
bottom_labelLayer
10
510.548013
20
313.5875568
40
11.6646172
50
280.4848084
51
282.6267838
0
ARC
8
bottom_labelLayer
10
511.576614
20
309.0177334
40
6.9804664
50
282.5876873
51
285.5794965
0
ARC
8
bottom_labelLayer
10
512.0913514
20
307.1244209
40
5.0184869
50
285.7241644
51
286.2562045
0
ARC
8
bottom_labelLayer
10
512.092211
20
302.7211846
40
3.2846682
50
287.988778
51
295.304856
0
ARC
8
bottom_labelLayer
10
511.2999612
20
305.1180952
40
5.8090968
50
283.3069154
51
288.1197863
0
ARC
8
bottom_labelLayer
10
510.4630543
20
308.6090757
40
9.3989833
50
280.0069729
51
283.37353
0
ARC
8
bottom_labelLayer
10
509.9027913
20
311.6496527
40
12.4906806
50
279.1863334
51
280.1142395
0
ARC
8
bottom_labelLayer
10
509.5593214
20
313.6032106
40
14.474042
50
275.526042
51
279.2939556
0
ARC
8
bottom_labelLayer
10
509.9466641
20
309.557437
40
10.4097713
50
270.8932558
51
275.5483779
0
ARC
8
bottom_labelLayer
10
509.995315
20
307.7088542
40
8.5606776
50
270.0032517
51
270.7605603
0
ARC
8
bottom_labelLayer
10
509.861043
20
307.8692971
40
8.7221614
50
253.7847964
51
270.8852578
0
ARC
8
bottom_labelLayer
10
508.8276997
20
304.3452014
40
5.0497051
50
190.3817663
51
253.8772375
0
ARC
8
bottom_labelLayer
10
514.0946467
20
305.7692892
40
10.4967764
50
179.3550997
51
192.8477548
0
ARC
8
bottom_labelLayer
10
513.6624093
20
305.9861968
40
6.7245526
50
179.6416463
51
189.750578
0
ARC
8
bottom_labelLayer
10
511.288517
20
305.5627862
40
4.3132708
50
189.5479619
51
205.7873507
0
ARC
8
bottom_labelLayer
10
510.3129395
20
305.1129176
40
3.2391968
50
206.1294334
51
221.4083953
0
ARC
8
bottom_labelLayer
10
510.2035525
20
305.0299171
40
3.102273
50
221.5949212
51
262.3505178
0
ARC
8
bottom_labelLayer
10
510.4637107
20
306.3677624
40
4.4635558
50
261.3266451
51
270.1912951
0
LINE
8
bottom_labelLayer
10
528.040918
20
302.3065752
11
528.040918
21
299.7516924
0
LINE
8
bottom_labelLayer
10
518.1432617
20
305.8874346
11
518.1432617
21
319.0038408
0
LINE
8
bottom_labelLayer
10
518.1432617
20
319.0038408
11
514.9848633
21
319.0038408
0
LINE
8
bottom_labelLayer
10
514.9848633
20
319.0038408
11
514.9848633
21
320.6132158
0
LINE
8
bottom_labelLayer
10
514.9848633
20
320.6132158
11
518.1432617
21
322.0013018
0
LINE
8
bottom_labelLayer
10
518.1432617
20
322.0013018
11
519.5514649
21
326.7087237
0
LINE
8
bottom_labelLayer
10
519.5514649
20
326.7087237
11
521.4827149
21
326.7087237
0
LINE
8
bottom_labelLayer
10
521.4827149
20
326.7087237
11
521.4827149
21
321.598958
0
LINE
8
bottom_labelLayer
10
521.4827149
20
321.598958
11
527.8799805
21
321.598958
0
LINE
8
bottom_labelLayer
10
527.8799805
20
321.598958
11
527.8799805
21
319.0038408
0
LINE
8
bottom_labelLayer
10
527.8799805
20
319.0038408
11
521.4827149
21
319.0038408
0
LINE
8
bottom_labelLayer
10
521.4827149
20
319.0038408
11
521.4827149
21
306.0282549
0
ARC
8
bottom_labelLayer
10
525.0462415
20
312.8714442
40
10.9672366
50
269.8803556
51
278.3028212
0
ARC
8
bottom_labelLayer
10
525.1507269
20
312.0177474
40
10.107419
50
278.4155589
51
279.0081799
0
ARC
8
bottom_labelLayer
10
523.9201268
20
319.8793583
40
18.0647533
50
278.9589757
51
280.5104496
0
ARC
8
bottom_labelLayer
10
525.0927395
20
313.5875568
40
11.6646172
50
280.4848084
51
282.6267838
0
ARC
8
bottom_labelLayer
10
526.1213405
20
309.0177334
40
6.9804664
50
282.5876873
51
285.5794965
0
ARC
8
bottom_labelLayer
10
526.636078
20
307.1244209
40
5.0184869
50
285.7241644
51
286.2562045
0
ARC
8
bottom_labelLayer
10
526.6369375
20
302.7211846
40
3.2846682
50
287.988778
51
295.304856
0
ARC
8
bottom_labelLayer
10
525.8446878
20
305.1180952
40
5.8090968
50
283.3069154
51
288.1197863
0
ARC
8
bottom_labelLayer
10
525.0077809
20
308.6090757
40
9.3989833
50
280.0069729
51
283.37353
0
ARC
8
bottom_labelLayer
10
524.4475178
20
311.6496527
40
12.4906806
50
279.1863334
51
280.1142395
0
ARC
8
bottom_labelLayer
10
524.104048
20
313.6032106
40
14.474042
50
275.526042
51
279.2939556
0
ARC
8
bottom_labelLayer
10
524.4913906
20
309.557437
40
10.4097713
50
270.8932558
51
275.5483779
0
ARC
8
bottom_labelLayer
10
524.5400415
20
307.7088542
40
8.5606776
50
270.0032517
51
270.7605603
0
ARC
8
bottom_labelLayer
10
524.4057695
20
307.8692971
40
8.7221614
50
253.7847964
51
270.8852578
0
ARC
8
bottom_labelLayer
10
523.3724262
20
304.3452014
40
5.0497051
50
190.3817663
51
253.8772375
0
ARC
8
bottom_labelLayer
10
528.6393733
20
305.7692892
40
10.4967764
50
179.3550997
51
192.8477548
0
ARC
8
bottom_labelLayer
10
528.2071359
20
305.9861968
40
6.7245526
50
179.6416463
51
189.750578
0
ARC
8
bottom_labelLayer
10
525.8332435
20
305.5627862
40
4.3132708
50
189.5479619
51
205.7873507
0
ARC
8
bottom_labelLayer
10
524.8576661
20
305.1129176
40
3.2391968
50
206.1294334
51
221.4083953
0
ARC
8
bottom_labelLayer
10
524.7482791
20
305.0299171
40
3.102273
50
221.5949212
51
262.3505178
0
ARC
8
bottom_labelLayer
10
525.0084373
20
306.3677624
40
4.4635558
50
261.3266451
51
270.1912951
0
ARC
8
bottom_labelLayer
10
534.2281921
20
310.4785675
40
17.2496413
50
349.1761908
51
0.386264
0
ARC
8
bottom_labelLayer
10
540.0357398
20
309.3208213
40
11.3280971
50
330.2507037
51
349.4116481
0
ARC
8
bottom_labelLayer
10
541.8229928
20
308.3918806
40
9.3157959
50
318.1439838
51
329.7566089
0
ARC
8
bottom_labelLayer
10
542.1455842
20
308.1333562
40
8.9030478
50
278.8959155
51
317.9979136
0
ARC
8
bottom_labelLayer
10
541.3144262
20
312.1155125
40
12.9674588
50
269.7502871
51
279.803319
0
ARC
8
bottom_labelLayer
10
541.1796294
20
309.871814
40
10.723923
50
253.5436936
51
270.4182423
0
ARC
8
bottom_labelLayer
10
540.822652
20
308.4909345
40
9.298612
50
238.8115568
51
253.2428324
0
ARC
8
bottom_labelLayer
10
540.7074418
20
308.2592471
40
9.0407739
50
207.7947053
51
238.6757975
0
ARC
8
bottom_labelLayer
10
542.3606278
20
309.271741
40
10.9760621
50
205.6560151
51
208.4461195
0
ARC
8
bottom_labelLayer
10
543.6339606
20
309.8022944
40
12.353785
50
188.9102465
51
205.3171423
0
ARC
8
bottom_labelLayer
10
547.9252376
20
310.5290968
40
16.7059332
50
179.7744658
51
189.0932821
0
ARC
8
bottom_labelLayer
10
548.5582654
20
310.7122981
40
17.3392296
50
169.244298
51
180.3880772
0
ARC
8
bottom_labelLayer
10
542.669999
20
311.876194
40
11.3372883
50
150.7111496
51
169.4695413
0
ARC
8
bottom_labelLayer
10
540.7902805
20
312.8414987
40
9.2259523
50
138.1759464
51
150.2287433
0
ARC
8
bottom_labelLayer
10
540.4776037
20
313.0814411
40
8.8329921
50
99.1759375
51
137.983276
0
ARC
8
bottom_labelLayer
10
541.3382069
20
309.0313392
40
12.9701037
50
89.7326344
51
100.0759766
0
ARC
8
bottom_labelLayer
10
541.5102115
20
310.7804473
40
11.2214083
50
73.5222712
51
90.5692243
0
ARC
8
bottom_labelLayer
10
542.1682818
20
313.1713869
40
8.7421348
50
41.144565
51
73.2133871
0
ARC
8
bottom_labelLayer
10
540.9120787
20
312.0916978
40
10.398523
50
13.5014371
51
41.0703399
0
ARC
8
bottom_labelLayer
10
536.058775
20
310.8216512
40
15.414555
50
1.1277153
51
13.8800084
0
ARC
8
bottom_labelLayer
10
531.8787008
20
310.5976345
40
19.5987407
50
359.9918785
51
1.5419849
0
ARC
8
bottom_labelLayer
10
551.5902918
20
310.5080715
40
16.9109246
50
179.705963
51
187.9160788
0
ARC
8
bottom_labelLayer
10
545.3879024
20
309.6171056
40
10.6449702
50
187.7639329
51
200.0976814
0
ARC
8
bottom_labelLayer
10
541.97102
20
308.3651577
40
7.0059518
50
200.0845999
51
216.9131532
0
ARC
8
bottom_labelLayer
10
540.7232902
20
307.4742209
40
5.4733588
50
217.3009535
51
261.7099084
0
ARC
8
bottom_labelLayer
10
541.3025262
20
310.2382868
40
8.2938983
50
260.5033298
51
270.2476781
0
ARC
8
bottom_labelLayer
10
541.4130845
20
309.7008024
40
7.7566963
50
269.4481694
51
284.7255668
0
ARC
8
bottom_labelLayer
10
542.0271363
20
307.4234799
40
5.3981092
50
284.5662354
51
322.633383
0
ARC
8
bottom_labelLayer
10
540.5914582
20
308.4606947
40
7.1687938
50
323.0089162
51
342.6390554
0
ARC
8
bottom_labelLayer
10
536.4850718
20
309.8027788
40
11.488709
50
342.3615784
51
353.7537496
0
ARC
8
bottom_labelLayer
10
530.4268309
20
310.5330169
40
17.5905627
50
353.5363142
51
0.2014234
0
ARC
8
bottom_labelLayer
10
531.3550523
20
310.6799008
40
16.6624499
50
359.707564
51
7.8972736
0
ARC
8
bottom_labelLayer
10
537.4573049
20
311.554716
40
10.4979113
50
7.7439914
51
20.0690221
0
ARC
8
bottom_labelLayer
10
540.8577209
20
312.8025419
40
6.8757771
50
20.0257026
51
37.4350512
0
ARC
8
bottom_labelLayer
10
541.9859516
20
313.6031175
40
5.4935027
50
37.9577645
51
80.4006177
0
ARC
8
bottom_labelLayer
10
541.344814
20
310.7424271
40
8.4224807
50
79.3453405
51
90.3174806
0
ARC
8
bottom_labelLayer
10
541.226099
20
311.2175887
40
7.9475162
50
89.4805975
51
103.8804956
0
ARC
8
bottom_labelLayer
10
540.5583025
20
313.7605602
40
5.3187387
50
103.4685222
51
142.3118903
0
ARC
8
bottom_labelLayer
10
541.8565509
20
312.8475391
40
6.9046622
50
142.9025715
51
162.3749602
0
ARC
8
bottom_labelLayer
10
545.9473436
20
311.4842943
40
11.2163623
50
162.0653208
51
173.1674851
0
ARC
8
bottom_labelLayer
10
552.3259157
20
310.6707416
40
17.6464891
50
173.0086078
51
180.2463897
0
LINE
8
bottom_labelLayer
10
588.7747071
20
299.5505205
11
585.4352539
21
299.5505205
0
LINE
8
bottom_labelLayer
10
585.4352539
20
299.5505205
11
585.4352539
21
313.8940752
0
LINE
8
bottom_labelLayer
10
574.712793
20
311.8622393
11
574.712793
21
299.5505205
0
LINE
8
bottom_labelLayer
10
574.712793
20
299.5505205
11
571.3733399
21
299.5505205
0
LINE
8
bottom_labelLayer
10
571.3733399
20
299.5505205
11
571.3733399
21
313.8940752
0
LINE
8
bottom_labelLayer
10
560.6709961
20
311.1179033
11
560.6709961
21
299.5505205
0
LINE
8
bottom_labelLayer
10
560.6709961
20
299.5505205
11
557.331543
21
299.5505205
0
LINE
8
bottom_labelLayer
10
557.331543
20
299.5505205
11
557.331543
21
321.598958
0
LINE
8
bottom_labelLayer
10
557.331543
20
321.598958
11
560.0473633
21
321.598958
0
LINE
8
bottom_labelLayer
10
560.0473633
20
321.598958
11
560.5905274
21
318.5813799
0
LINE
8
bottom_labelLayer
10
560.5905274
20
318.5813799
11
560.7514649
21
318.5813799
0
LINE
8
bottom_labelLayer
10
574.0288086
20
318.2595049
11
574.1897461
21
318.2595049
0
LINE
8
bottom_labelLayer
10
588.7747071
20
313.9343096
11
588.7747071
21
299.5505205
0
ARC
8
bottom_labelLayer
10
575.5837376
20
313.9465457
40
9.851656
50
359.694838
51
8.1471511
0
ARC
8
bottom_labelLayer
10
579.2124262
20
314.4835516
40
6.1835126
50
7.9864504
51
20.794972
0
ARC
8
bottom_labelLayer
10
581.21824
20
315.2519059
40
4.0355837
50
20.7071267
51
40.0217525
0
ARC
8
bottom_labelLayer
10
581.658276
20
315.5398152
40
3.5140115
50
41.0408104
51
73.1792608
0
ARC
8
bottom_labelLayer
10
581.0215508
20
313.6140296
40
5.5419022
50
72.6395518
51
86.2568004
0
ARC
8
bottom_labelLayer
10
580.8175748
20
311.412945
40
7.7518387
50
85.8144762
51
90.0685467
0
ARC
8
bottom_labelLayer
10
580.7426327
20
310.5720894
40
8.5929399
50
89.5621358
51
101.2961695
0
ARC
8
bottom_labelLayer
10
580.0954387
20
313.6704288
40
5.4279205
50
101.0032266
51
121.7840539
0
ARC
8
bottom_labelLayer
10
579.6034163
20
314.5488308
40
4.4223098
50
122.3597386
51
140.2884032
0
ARC
8
bottom_labelLayer
10
580.4886191
20
313.8997703
40
5.518368
50
140.9765249
51
161.1699555
0
ARC
8
bottom_labelLayer
10
583.8233896
20
312.7129983
40
9.0578287
50
160.8731668
51
172.5272574
0
ARC
8
bottom_labelLayer
10
589.3957213
20
311.9434152
40
14.6829714
50
172.3776474
51
180.1829681
0
ARC
8
bottom_labelLayer
10
593.2920568
20
311.8621516
40
18.579264
50
179.8939919
51
179.9997296
0
ARC
8
bottom_labelLayer
10
561.5218236
20
313.9465457
40
9.851656
50
359.694838
51
8.1471511
0
ARC
8
bottom_labelLayer
10
565.1505121
20
314.4835516
40
6.1835126
50
7.9864504
51
20.794972
0
ARC
8
bottom_labelLayer
10
567.156326
20
315.2519059
40
4.0355837
50
20.7071267
51
40.0217525
0
ARC
8
bottom_labelLayer
10
567.6055113
20
315.5461372
40
3.5029599
50
41.0610769
51
72.8993528
0
ARC
8
bottom_labelLayer
10
566.9567247
20
313.6146257
40
5.5401004
50
72.3601082
51
85.9561815
0
ARC
8
bottom_labelLayer
10
566.7370995
20
311.3448517
40
7.8199342
50
85.5237779
51
90.0793498
0
ARC
8
bottom_labelLayer
10
566.6621876
20
310.8707754
40
8.2942505
50
89.5573243
51
101.4832051
0
ARC
8
bottom_labelLayer
10
566.0255761
20
313.8534503
40
5.2446286
50
101.1546389
51
123.0655719
0
ARC
8
bottom_labelLayer
10
565.5928455
20
314.6072501
40
4.3770822
50
123.7020649
51
142.3022003
0
ARC
8
bottom_labelLayer
10
566.6064897
20
313.9195811
40
5.6001445
50
143.0769659
51
161.3913951
0
ARC
8
bottom_labelLayer
10
570.6924703
20
312.4765061
40
9.9332045
50
161.0234527
51
171.4469161
0
ARC
8
bottom_labelLayer
10
577.4567085
20
311.4169086
40
16.7798558
50
171.3041963
51
178.3501648
0
ARC
8
bottom_labelLayer
10
583.9217793
20
311.1281721
40
23.2507855
50
178.0976263
51
180.0253047
0
ARC
8
bottom_labelLayer
10
566.40895
20
315.2544992
40
6.5631756
50
117.1209542
51
149.5423687
0
ARC
8
bottom_labelLayer
10
567.0787779
20
314.0639648
40
7.9283411
50
93.8343267
51
117.5072123
0
ARC
8
bottom_labelLayer
10
567.2637814
20
312.4253264
40
9.5759769
50
89.9661812
51
94.2831425
0
ARC
8
bottom_labelLayer
10
567.3746332
20
311.0684206
40
10.9333873
50
77.5572213
51
90.5513006
0
ARC
8
bottom_labelLayer
10
568.3891321
20
315.4319647
40
6.4539445
50
52.7027073
51
78.0053809
0
ARC
8
bottom_labelLayer
10
568.7505798
20
316.1044478
40
5.7012253
50
22.2097868
51
51.4970597
0
ARC
8
bottom_labelLayer
10
580.2393108
20
314.7924864
40
6.9726214
50
119.4041755
51
150.1828854
0
ARC
8
bottom_labelLayer
10
581.0123969
20
313.6169061
40
8.3768749
50
118.2583118
51
120.0630239
0
ARC
8
bottom_labelLayer
10
581.010406
20
313.5305675
40
8.4520889
50
95.8635143
51
117.969324
0
ARC
8
bottom_labelLayer
10
581.29646
20
311.4621609
40
10.5391512
50
89.9197008
51
96.2617437
0
ARC
8
bottom_labelLayer
10
581.3882933
20
310.3934381
40
11.6081195
50
79.9360997
51
90.380372
0
ARC
8
bottom_labelLayer
10
582.1617595
20
314.5824408
40
7.3484699
50
62.9723301
51
80.1665177
0
ARC
8
bottom_labelLayer
10
582.9703137
20
316.2412851
40
5.5034711
50
44.2290118
51
62.6229033
0
ARC
8
bottom_labelLayer
10
582.7298325
20
316.1350524
40
5.7506198
50
19.5612014
51
43.3161198
0
ARC
8
bottom_labelLayer
10
579.2372254
20
314.823225
40
9.4811016
50
7.5041931
51
19.9645387
0
ARC
8
bottom_labelLayer
10
573.4579079
20
314.011637
40
15.3169944
50
359.7107426
51
7.6907231
0
ENDSEC
0
EOF