  0
SECTION
  2
HEADER
  9
$ACADVER
  1
AC1009
  9
$EXTMIN
 10
0.0
 20
0.0
 30
0.0
  9
$EXTMAX
 10
1000.0
 20
1000.0
 30
0.0
  9
$FILLMODE
 70
 0
  9
$SPLFRAME
 70
 1
  0
ENDSEC
  0
SECTION
  2
TABLES
  0
TABLE
  2
LAYER
 70
1
  0
LAYER
  2
0
 70
     0
 62
     7
  6
CONTINUOUS
  0
ENDTAB
  0
ENDSEC
  0
SECTION
  2
ENTITIES
  0
POLYLINE
  8
0
 62
     0
 66
     1
 10
0
 20
0
 30
0.0
 70
     1
 40
0.566929
 41
0.566929
  0
VERTEX
  8
0
 10
0.850251
 20
11.0422
 30
0.0
 40
0.2
 41
0.2
  0
VERTEX
  8
0
 10
100.85
 20
11.0422
 30
0.0
 40
0.2
 41
0.2
  0
VERTEX
  8
0
 10
100.85
 20
1.0418
 30
0.0
 40
0.2
 41
0.2
  0
VERTEX
  8
0
 10
0.850251
 20
1.0418
 30
0.0
 40
0.2
 41
0.2
  0
VERTEX
  8
0
 10
0.850251
 20
11.0422
 30
0.0
 40
0.2
 41
0.2
  0
SEQEND
 8
0
  0
POLYLINE
  8
0
 62
     7
 66
     1
 10
0
 20
0
 30
0.0
 70
     1
 40
0.566929
 41
0.566929
  0
VERTEX
  8
0
 10
35.0449
 20
9.77166
 30
0.0
 40
0.2
 41
0.2
  0
VERTEX
  8
0
 10
66.6542
 20
9.77166
 30
0.0
 40
0.2
 41
0.2
  0
VERTEX
  8
0
 10
66.6542
 20
2.31235
 30
0.0
 40
0.2
 41
0.2
  0
VERTEX
  8
0
 10
35.0449
 20
2.31235
 30
0.0
 40
0.2
 41
0.2
  0
VERTEX
  8
0
 10
35.0449
 20
9.77166
 30
0.0
 40
0.2
 41
0.2
  0
SEQEND
 8
0
  0
TEXT
  8
0
 62
     0
 10
35.045
 20
2.31166
 30
0
 40
10
  1
100mm
 50
0
  7
f-0-0
  0
POLYLINE
  8
0
 62
     0
 66
     1
 10
0
 20
0
 30
0.0
 40
0.566929
 41
0.566929
  0
VERTEX
  8
0
 10
3.85025
 20
12.7413
 30
0.0
 40
0.2
 41
0.2
  0
VERTEX
  8
0
 10
19.8506
 20
12.7413
 30
0.0
 40
0.2
 41
0.2
  0
SEQEND
 8
0
  0
POLYLINE
  8
0
 62
     0
 66
     1
 10
0
 20
0
 30
0.0
 40
0.566929
 41
0.566929
  0
VERTEX
  8
0
 10
19.8506
 20
12.7413
 30
0.0
 40
0.2
 41
0.2
  0
VERTEX
  8
0
 10
19.8672
 20
12.7413
 30
0.0
 40
0.2
 41
0.2
  0
VERTEX
  8
0
 10
19.9209
 20
12.7716
 30
0.0
 40
0.2
 41
0.2
  0
VERTEX
  8
0
 10
19.9512
 20
12.8254
 30
0.0
 40
0.2
 41
0.2
  0
VERTEX
  8
0
 10
19.9512
 20
12.8419
 30
0.0
 40
0.2
 41
0.2
  0
SEQEND
 8
0
  0
POLYLINE
  8
0
 62
     0
 66
     1
 10
0
 20
0
 30
0.0
 40
0.566929
 41
0.566929
  0
VERTEX
  8
0
 10
19.9512
 20
12.8419
 30
0.0
 40
0.2
 41
0.2
  0
VERTEX
  8
0
 10
19.9512
 20
15.8419
 30
0.0
 40
0.2
 41
0.2
  0
VERTEX
  8
0
 10
19.9512
 20
15.8254
 30
0.0
 40
0.2
 41
0.2
  0
VERTEX
  8
0
 10
19.9209
 20
15.7716
 30
0.0
 40
0.2
 41
0.2
  0
VERTEX
  8
0
 10
19.8672
 20
15.7413
 30
0.0
 40
0.2
 41
0.2
  0
VERTEX
  8
0
 10
19.8506
 20
15.7413
 30
0.0
 40
0.2
 41
0.2
  0
SEQEND
 8
0
  0
POLYLINE
  8
0
 62
     0
 66
     1
 10
0
 20
0
 30
0.0
 40
0.566929
 41
0.566929
  0
VERTEX
  8
0
 10
19.8506
 20
15.7413
 30
0.0
 40
0.2
 41
0.2
  0
VERTEX
  8
0
 10
40.8506
 20
15.7413
 30
0.0
 40
0.2
 41
0.2
  0
VERTEX
  8
0
 10
40.8326
 20
15.7413
 30
0.0
 40
0.2
 41
0.2
  0
VERTEX
  8
0
 10
40.779
 20
15.7716
 30
0.0
 40
0.2
 41
0.2
  0
VERTEX
  8
0
 10
40.7501
 20
15.8254
 30
0.0
 40
0.2
 41
0.2
  0
VERTEX
  8
0
 10
40.7501
 20
15.8419
 30
0.0
 40
0.2
 41
0.2
  0
SEQEND
 8
0
  0
POLYLINE
  8
0
 62
     0
 66
     1
 10
0
 20
0
 30
0.0
 40
0.566929
 41
0.566929
  0
VERTEX
  8
0
 10
40.7501
 20
15.8419
 30
0.0
 40
0.2
 41
0.2
  0
VERTEX
  8
0
 10
40.7501
 20
12.8419
 30
0.0
 40
0.2
 41
0.2
  0
VERTEX
  8
0
 10
40.7501
 20
12.8254
 30
0.0
 40
0.2
 41
0.2
  0
VERTEX
  8
0
 10
40.779
 20
12.7716
 30
0.0
 40
0.2
 41
0.2
  0
VERTEX
  8
0
 10
40.8326
 20
12.7413
 30
0.0
 40
0.2
 41
0.2
  0
VERTEX
  8
0
 10
40.8506
 20
12.7413
 30
0.0
 40
0.2
 41
0.2
  0
SEQEND
 8
0
  0
POLYLINE
  8
0
 62
     0
 66
     1
 10
0
 20
0
 30
0.0
 40
0.566929
 41
0.566929
  0
VERTEX
  8
0
 10
40.8506
 20
12.7413
 30
0.0
 40
0.2
 41
0.2
  0
VERTEX
  8
0
 10
46.8507
 20
12.7413
 30
0.0
 40
0.2
 41
0.2
  0
SEQEND
 8
0
  0
POLYLINE
  8
0
 62
     0
 66
     1
 10
0
 20
0
 30
0.0
 40
0.566929
 41
0.566929
  0
VERTEX
  8
0
 10
46.8507
 20
12.7413
 30
0.0
 40
0.2
 41
0.2
  0
VERTEX
  8
0
 10
46.8672
 20
12.7413
 30
0.0
 40
0.2
 41
0.2
  0
VERTEX
  8
0
 10
46.9209
 20
12.7716
 30
0.0
 40
0.2
 41
0.2
  0
VERTEX
  8
0
 10
46.9512
 20
12.8254
 30
0.0
 40
0.2
 41
0.2
  0
VERTEX
  8
0
 10
46.9512
 20
12.8419
 30
0.0
 40
0.2
 41
0.2
  0
SEQEND
 8
0
  0
POLYLINE
  8
0
 62
     0
 66
     1
 10
0
 20
0
 30
0.0
 40
0.566929
 41
0.566929
  0
VERTEX
  8
0
 10
46.9512
 20
12.8419
 30
0.0
 40
0.2
 41
0.2
  0
VERTEX
  8
0
 10
46.9512
 20
15.8419
 30
0.0
 40
0.2
 41
0.2
  0
VERTEX
  8
0
 10
46.9512
 20
15.8254
 30
0.0
 40
0.2
 41
0.2
  0
VERTEX
  8
0
 10
46.9209
 20
15.7716
 30
0.0
 40
0.2
 41
0.2
  0
VERTEX
  8
0
 10
46.8672
 20
15.7413
 30
0.0
 40
0.2
 41
0.2
  0
VERTEX
  8
0
 10
46.8507
 20
15.7413
 30
0.0
 40
0.2
 41
0.2
  0
SEQEND
 8
0
  0
POLYLINE
  8
0
 62
     0
 66
     1
 10
0
 20
0
 30
0.0
 40
0.566929
 41
0.566929
  0
VERTEX
  8
0
 10
46.8507
 20
15.7413
 30
0.0
 40
0.2
 41
0.2
  0
VERTEX
  8
0
 10
67.8505
 20
15.7413
 30
0.0
 40
0.2
 41
0.2
  0
VERTEX
  8
0
 10
67.8325
 20
15.7413
 30
0.0
 40
0.2
 41
0.2
  0
VERTEX
  8
0
 10
67.7788
 20
15.7716
 30
0.0
 40
0.2
 41
0.2
  0
VERTEX
  8
0
 10
67.7499
 20
15.8254
 30
0.0
 40
0.2
 41
0.2
  0
VERTEX
  8
0
 10
67.7499
 20
15.8419
 30
0.0
 40
0.2
 41
0.2
  0
SEQEND
 8
0
  0
POLYLINE
  8
0
 62
     0
 66
     1
 10
0
 20
0
 30
0.0
 40
0.566929
 41
0.566929
  0
VERTEX
  8
0
 10
67.7499
 20
15.8419
 30
0.0
 40
0.2
 41
0.2
  0
VERTEX
  8
0
 10
67.7499
 20
12.8419
 30
0.0
 40
0.2
 41
0.2
  0
VERTEX
  8
0
 10
67.7499
 20
12.8254
 30
0.0
 40
0.2
 41
0.2
  0
VERTEX
  8
0
 10
67.7788
 20
12.7716
 30
0.0
 40
0.2
 41
0.2
  0
VERTEX
  8
0
 10
67.8325
 20
12.7413
 30
0.0
 40
0.2
 41
0.2
  0
VERTEX
  8
0
 10
67.8505
 20
12.7413
 30
0.0
 40
0.2
 41
0.2
  0
SEQEND
 8
0
  0
POLYLINE
  8
0
 62
     0
 66
     1
 10
0
 20
0
 30
0.0
 40
0.566929
 41
0.566929
  0
VERTEX
  8
0
 10
67.8505
 20
12.7413
 30
0.0
 40
0.2
 41
0.2
  0
VERTEX
  8
0
 10
83.851
 20
12.7413
 30
0.0
 40
0.2
 41
0.2
  0
SEQEND
 8
0
  0
POLYLINE
  8
0
 62
     0
 66
     1
 10
0
 20
0
 30
0.0
 40
0.566929
 41
0.566929
  0
VERTEX
  8
0
 10
83.851
 20
12.7413
 30
0.0
 40
0.2
 41
0.2
  0
VERTEX
  8
0
 10
86.8507
 20
12.7413
 30
0.0
 40
0.2
 41
0.2
  0
VERTEX
  8
0
 10
86.8673
 20
12.7413
 30
0.0
 40
0.2
 41
0.2
  0
VERTEX
  8
0
 10
86.9213
 20
12.7716
 30
0.0
 40
0.2
 41
0.2
  0
VERTEX
  8
0
 10
86.9516
 20
12.8254
 30
0.0
 40
0.2
 41
0.2
  0
VERTEX
  8
0
 10
86.9516
 20
12.8419
 30
0.0
 40
0.2
 41
0.2
  0
SEQEND
 8
0
  0
POLYLINE
  8
0
 62
     0
 66
     1
 10
0
 20
0
 30
0.0
 40
0.566929
 41
0.566929
  0
VERTEX
  8
0
 10
86.9516
 20
12.8419
 30
0.0
 40
0.2
 41
0.2
  0
VERTEX
  8
0
 10
86.9516
 20
15.8419
 30
0.0
 40
0.2
 41
0.2
  0
SEQEND
 8
0
  0
POLYLINE
  8
0
 62
     0
 66
     1
 10
0
 20
0
 30
0.0
 40
0.566929
 41
0.566929
  0
VERTEX
  8
0
 10
86.9516
 20
15.8419
 30
0.0
 40
0.2
 41
0.2
  0
VERTEX
  8
0
 10
86.9516
 20
26.3426
 30
0.0
 40
0.2
 41
0.2
  0
SEQEND
 8
0
  0
POLYLINE
  8
0
 62
     0
 66
     1
 10
0
 20
0
 30
0.0
 40
0.566929
 41
0.566929
  0
VERTEX
  8
0
 10
86.9516
 20
26.3426
 30
0.0
 40
0.2
 41
0.2
  0
VERTEX
  8
0
 10
86.9516
 20
26.3605
 30
0.0
 40
0.2
 41
0.2
  0
VERTEX
  8
0
 10
86.9213
 20
26.4142
 30
0.0
 40
0.2
 41
0.2
  0
VERTEX
  8
0
 10
86.8673
 20
26.4432
 30
0.0
 40
0.2
 41
0.2
  0
VERTEX
  8
0
 10
86.8507
 20
26.4432
 30
0.0
 40
0.2
 41
0.2
  0
SEQEND
 8
0
  0
POLYLINE
  8
0
 62
     0
 66
     1
 10
0
 20
0
 30
0.0
 40
0.566929
 41
0.566929
  0
VERTEX
  8
0
 10
86.8507
 20
26.4432
 30
0.0
 40
0.2
 41
0.2
  0
VERTEX
  8
0
 10
83.851
 20
26.4432
 30
0.0
 40
0.2
 41
0.2
  0
VERTEX
  8
0
 10
83.8673
 20
26.4432
 30
0.0
 40
0.2
 41
0.2
  0
VERTEX
  8
0
 10
83.9212
 20
26.4142
 30
0.0
 40
0.2
 41
0.2
  0
VERTEX
  8
0
 10
83.9516
 20
26.3605
 30
0.0
 40
0.2
 41
0.2
  0
VERTEX
  8
0
 10
83.9516
 20
26.3426
 30
0.0
 40
0.2
 41
0.2
  0
SEQEND
 8
0
  0
POLYLINE
  8
0
 62
     0
 66
     1
 10
0
 20
0
 30
0.0
 40
0.566929
 41
0.566929
  0
VERTEX
  8
0
 10
83.9516
 20
26.3426
 30
0.0
 40
0.2
 41
0.2
  0
VERTEX
  8
0
 10
83.9516
 20
47.3424
 30
0.0
 40
0.2
 41
0.2
  0
VERTEX
  8
0
 10
83.9516
 20
47.3258
 30
0.0
 40
0.2
 41
0.2
  0
VERTEX
  8
0
 10
83.9212
 20
47.2722
 30
0.0
 40
0.2
 41
0.2
  0
VERTEX
  8
0
 10
83.8673
 20
47.2419
 30
0.0
 40
0.2
 41
0.2
  0
VERTEX
  8
0
 10
83.851
 20
47.2419
 30
0.0
 40
0.2
 41
0.2
  0
SEQEND
 8
0
  0
POLYLINE
  8
0
 62
     0
 66
     1
 10
0
 20
0
 30
0.0
 40
0.566929
 41
0.566929
  0
VERTEX
  8
0
 10
83.851
 20
47.2419
 30
0.0
 40
0.2
 41
0.2
  0
VERTEX
  8
0
 10
86.8507
 20
47.2419
 30
0.0
 40
0.2
 41
0.2
  0
VERTEX
  8
0
 10
86.8673
 20
47.2419
 30
0.0
 40
0.2
 41
0.2
  0
VERTEX
  8
0
 10
86.9213
 20
47.2722
 30
0.0
 40
0.2
 41
0.2
  0
VERTEX
  8
0
 10
86.9516
 20
47.3258
 30
0.0
 40
0.2
 41
0.2
  0
VERTEX
  8
0
 10
86.9516
 20
47.3424
 30
0.0
 40
0.2
 41
0.2
  0
SEQEND
 8
0
  0
POLYLINE
  8
0
 62
     0
 66
     1
 10
0
 20
0
 30
0.0
 40
0.566929
 41
0.566929
  0
VERTEX
  8
0
 10
86.9516
 20
47.3424
 30
0.0
 40
0.2
 41
0.2
  0
VERTEX
  8
0
 10
86.9516
 20
53.3425
 30
0.0
 40
0.2
 41
0.2
  0
SEQEND
 8
0
  0
POLYLINE
  8
0
 62
     0
 66
     1
 10
0
 20
0
 30
0.0
 40
0.566929
 41
0.566929
  0
VERTEX
  8
0
 10
86.9516
 20
53.3425
 30
0.0
 40
0.2
 41
0.2
  0
VERTEX
  8
0
 10
86.9516
 20
53.3605
 30
0.0
 40
0.2
 41
0.2
  0
VERTEX
  8
0
 10
86.9213
 20
53.4141
 30
0.0
 40
0.2
 41
0.2
  0
VERTEX
  8
0
 10
86.8673
 20
53.443
 30
0.0
 40
0.2
 41
0.2
  0
VERTEX
  8
0
 10
86.8507
 20
53.443
 30
0.0
 40
0.2
 41
0.2
  0
SEQEND
 8
0
  0
POLYLINE
  8
0
 62
     0
 66
     1
 10
0
 20
0
 30
0.0
 40
0.566929
 41
0.566929
  0
VERTEX
  8
0
 10
86.8507
 20
53.443
 30
0.0
 40
0.2
 41
0.2
  0
VERTEX
  8
0
 10
83.851
 20
53.443
 30
0.0
 40
0.2
 41
0.2
  0
VERTEX
  8
0
 10
83.8673
 20
53.443
 30
0.0
 40
0.2
 41
0.2
  0
VERTEX
  8
0
 10
83.9212
 20
53.4141
 30
0.0
 40
0.2
 41
0.2
  0
VERTEX
  8
0
 10
83.9516
 20
53.3605
 30
0.0
 40
0.2
 41
0.2
  0
VERTEX
  8
0
 10
83.9516
 20
53.3425
 30
0.0
 40
0.2
 41
0.2
  0
SEQEND
 8
0
  0
POLYLINE
  8
0
 62
     0
 66
     1
 10
0
 20
0
 30
0.0
 40
0.566929
 41
0.566929
  0
VERTEX
  8
0
 10
83.9516
 20
53.3425
 30
0.0
 40
0.2
 41
0.2
  0
VERTEX
  8
0
 10
83.9516
 20
74.3423
 30
0.0
 40
0.2
 41
0.2
  0
VERTEX
  8
0
 10
83.9516
 20
74.326
 30
0.0
 40
0.2
 41
0.2
  0
VERTEX
  8
0
 10
83.9212
 20
74.2721
 30
0.0
 40
0.2
 41
0.2
  0
VERTEX
  8
0
 10
83.8673
 20
74.2417
 30
0.0
 40
0.2
 41
0.2
  0
VERTEX
  8
0
 10
83.851
 20
74.2417
 30
0.0
 40
0.2
 41
0.2
  0
SEQEND
 8
0
  0
POLYLINE
  8
0
 62
     0
 66
     1
 10
0
 20
0
 30
0.0
 40
0.566929
 41
0.566929
  0
VERTEX
  8
0
 10
83.851
 20
74.2417
 30
0.0
 40
0.2
 41
0.2
  0
VERTEX
  8
0
 10
86.8507
 20
74.2417
 30
0.0
 40
0.2
 41
0.2
  0
VERTEX
  8
0
 10
86.8673
 20
74.2417
 30
0.0
 40
0.2
 41
0.2
  0
VERTEX
  8
0
 10
86.9213
 20
74.2721
 30
0.0
 40
0.2
 41
0.2
  0
VERTEX
  8
0
 10
86.9516
 20
74.326
 30
0.0
 40
0.2
 41
0.2
  0
VERTEX
  8
0
 10
86.9516
 20
74.3423
 30
0.0
 40
0.2
 41
0.2
  0
SEQEND
 8
0
  0
POLYLINE
  8
0
 62
     0
 66
     1
 10
0
 20
0
 30
0.0
 40
0.566929
 41
0.566929
  0
VERTEX
  8
0
 10
86.9516
 20
74.3423
 30
0.0
 40
0.2
 41
0.2
  0
VERTEX
  8
0
 10
86.9516
 20
80.3423
 30
0.0
 40
0.2
 41
0.2
  0
SEQEND
 8
0
  0
POLYLINE
  8
0
 62
     0
 66
     1
 10
0
 20
0
 30
0.0
 40
0.566929
 41
0.566929
  0
VERTEX
  8
0
 10
86.9516
 20
80.3423
 30
0.0
 40
0.2
 41
0.2
  0
VERTEX
  8
0
 10
86.9516
 20
80.3603
 30
0.0
 40
0.2
 41
0.2
  0
VERTEX
  8
0
 10
86.9213
 20
80.4139
 30
0.0
 40
0.2
 41
0.2
  0
VERTEX
  8
0
 10
86.8673
 20
80.4429
 30
0.0
 40
0.2
 41
0.2
  0
VERTEX
  8
0
 10
86.8507
 20
80.4429
 30
0.0
 40
0.2
 41
0.2
  0
SEQEND
 8
0
  0
POLYLINE
  8
0
 62
     0
 66
     1
 10
0
 20
0
 30
0.0
 40
0.566929
 41
0.566929
  0
VERTEX
  8
0
 10
86.8507
 20
80.4429
 30
0.0
 40
0.2
 41
0.2
  0
VERTEX
  8
0
 10
83.851
 20
80.4429
 30
0.0
 40
0.2
 41
0.2
  0
VERTEX
  8
0
 10
83.8673
 20
80.4429
 30
0.0
 40
0.2
 41
0.2
  0
VERTEX
  8
0
 10
83.9212
 20
80.4139
 30
0.0
 40
0.2
 41
0.2
  0
VERTEX
  8
0
 10
83.9516
 20
80.3603
 30
0.0
 40
0.2
 41
0.2
  0
VERTEX
  8
0
 10
83.9516
 20
80.3423
 30
0.0
 40
0.2
 41
0.2
  0
SEQEND
 8
0
  0
POLYLINE
  8
0
 62
     0
 66
     1
 10
0
 20
0
 30
0.0
 40
0.566929
 41
0.566929
  0
VERTEX
  8
0
 10
83.9516
 20
80.3423
 30
0.0
 40
0.2
 41
0.2
  0
VERTEX
  8
0
 10
83.9516
 20
101.342
 30
0.0
 40
0.2
 41
0.2
  0
VERTEX
  8
0
 10
83.9516
 20
101.326
 30
0.0
 40
0.2
 41
0.2
  0
VERTEX
  8
0
 10
83.9212
 20
101.272
 30
0.0
 40
0.2
 41
0.2
  0
VERTEX
  8
0
 10
83.8673
 20
101.242
 30
0.0
 40
0.2
 41
0.2
  0
VERTEX
  8
0
 10
83.851
 20
101.242
 30
0.0
 40
0.2
 41
0.2
  0
SEQEND
 8
0
  0
POLYLINE
  8
0
 62
     0
 66
     1
 10
0
 20
0
 30
0.0
 40
0.566929
 41
0.566929
  0
VERTEX
  8
0
 10
83.851
 20
101.242
 30
0.0
 40
0.2
 41
0.2
  0
VERTEX
  8
0
 10
86.8507
 20
101.242
 30
0.0
 40
0.2
 41
0.2
  0
VERTEX
  8
0
 10
86.8673
 20
101.242
 30
0.0
 40
0.2
 41
0.2
  0
VERTEX
  8
0
 10
86.9213
 20
101.272
 30
0.0
 40
0.2
 41
0.2
  0
VERTEX
  8
0
 10
86.9516
 20
101.326
 30
0.0
 40
0.2
 41
0.2
  0
VERTEX
  8
0
 10
86.9516
 20
101.342
 30
0.0
 40
0.2
 41
0.2
  0
SEQEND
 8
0
  0
POLYLINE
  8
0
 62
     0
 66
     1
 10
0
 20
0
 30
0.0
 40
0.566929
 41
0.566929
  0
VERTEX
  8
0
 10
86.9516
 20
101.342
 30
0.0
 40
0.2
 41
0.2
  0
VERTEX
  8
0
 10
86.9516
 20
107.342
 30
0.0
 40
0.2
 41
0.2
  0
SEQEND
 8
0
  0
POLYLINE
  8
0
 62
     0
 66
     1
 10
0
 20
0
 30
0.0
 40
0.566929
 41
0.566929
  0
VERTEX
  8
0
 10
86.9516
 20
107.342
 30
0.0
 40
0.2
 41
0.2
  0
VERTEX
  8
0
 10
86.9516
 20
107.36
 30
0.0
 40
0.2
 41
0.2
  0
VERTEX
  8
0
 10
86.9213
 20
107.414
 30
0.0
 40
0.2
 41
0.2
  0
VERTEX
  8
0
 10
86.8673
 20
107.443
 30
0.0
 40
0.2
 41
0.2
  0
VERTEX
  8
0
 10
86.8507
 20
107.443
 30
0.0
 40
0.2
 41
0.2
  0
SEQEND
 8
0
  0
POLYLINE
  8
0
 62
     0
 66
     1
 10
0
 20
0
 30
0.0
 40
0.566929
 41
0.566929
  0
VERTEX
  8
0
 10
86.8507
 20
107.443
 30
0.0
 40
0.2
 41
0.2
  0
VERTEX
  8
0
 10
83.851
 20
107.443
 30
0.0
 40
0.2
 41
0.2
  0
VERTEX
  8
0
 10
83.8673
 20
107.443
 30
0.0
 40
0.2
 41
0.2
  0
VERTEX
  8
0
 10
83.9212
 20
107.414
 30
0.0
 40
0.2
 41
0.2
  0
VERTEX
  8
0
 10
83.9516
 20
107.36
 30
0.0
 40
0.2
 41
0.2
  0
VERTEX
  8
0
 10
83.9516
 20
107.342
 30
0.0
 40
0.2
 41
0.2
  0
SEQEND
 8
0
  0
POLYLINE
  8
0
 62
     0
 66
     1
 10
0
 20
0
 30
0.0
 40
0.566929
 41
0.566929
  0
VERTEX
  8
0
 10
83.9516
 20
107.342
 30
0.0
 40
0.2
 41
0.2
  0
VERTEX
  8
0
 10
83.9516
 20
128.342
 30
0.0
 40
0.2
 41
0.2
  0
VERTEX
  8
0
 10
83.9516
 20
128.326
 30
0.0
 40
0.2
 41
0.2
  0
VERTEX
  8
0
 10
83.9212
 20
128.272
 30
0.0
 40
0.2
 41
0.2
  0
VERTEX
  8
0
 10
83.8673
 20
128.242
 30
0.0
 40
0.2
 41
0.2
  0
VERTEX
  8
0
 10
83.851
 20
128.242
 30
0.0
 40
0.2
 41
0.2
  0
SEQEND
 8
0
  0
POLYLINE
  8
0
 62
     0
 66
     1
 10
0
 20
0
 30
0.0
 40
0.566929
 41
0.566929
  0
VERTEX
  8
0
 10
83.851
 20
128.242
 30
0.0
 40
0.2
 41
0.2
  0
VERTEX
  8
0
 10
86.8507
 20
128.242
 30
0.0
 40
0.2
 41
0.2
  0
VERTEX
  8
0
 10
86.8673
 20
128.242
 30
0.0
 40
0.2
 41
0.2
  0
VERTEX
  8
0
 10
86.9213
 20
128.272
 30
0.0
 40
0.2
 41
0.2
  0
VERTEX
  8
0
 10
86.9516
 20
128.326
 30
0.0
 40
0.2
 41
0.2
  0
VERTEX
  8
0
 10
86.9516
 20
128.342
 30
0.0
 40
0.2
 41
0.2
  0
SEQEND
 8
0
  0
POLYLINE
  8
0
 62
     0
 66
     1
 10
0
 20
0
 30
0.0
 40
0.566929
 41
0.566929
  0
VERTEX
  8
0
 10
86.9516
 20
128.342
 30
0.0
 40
0.2
 41
0.2
  0
VERTEX
  8
0
 10
86.9516
 20
134.342
 30
0.0
 40
0.2
 41
0.2
  0
SEQEND
 8
0
  0
POLYLINE
  8
0
 62
     0
 66
     1
 10
0
 20
0
 30
0.0
 40
0.566929
 41
0.566929
  0
VERTEX
  8
0
 10
86.9516
 20
134.342
 30
0.0
 40
0.2
 41
0.2
  0
VERTEX
  8
0
 10
86.9516
 20
134.36
 30
0.0
 40
0.2
 41
0.2
  0
VERTEX
  8
0
 10
86.9213
 20
134.414
 30
0.0
 40
0.2
 41
0.2
  0
VERTEX
  8
0
 10
86.8673
 20
134.443
 30
0.0
 40
0.2
 41
0.2
  0
VERTEX
  8
0
 10
86.8507
 20
134.443
 30
0.0
 40
0.2
 41
0.2
  0
SEQEND
 8
0
  0
POLYLINE
  8
0
 62
     0
 66
     1
 10
0
 20
0
 30
0.0
 40
0.566929
 41
0.566929
  0
VERTEX
  8
0
 10
86.8507
 20
134.443
 30
0.0
 40
0.2
 41
0.2
  0
VERTEX
  8
0
 10
83.851
 20
134.443
 30
0.0
 40
0.2
 41
0.2
  0
VERTEX
  8
0
 10
83.8673
 20
134.443
 30
0.0
 40
0.2
 41
0.2
  0
VERTEX
  8
0
 10
83.9212
 20
134.414
 30
0.0
 40
0.2
 41
0.2
  0
VERTEX
  8
0
 10
83.9516
 20
134.36
 30
0.0
 40
0.2
 41
0.2
  0
VERTEX
  8
0
 10
83.9516
 20
134.342
 30
0.0
 40
0.2
 41
0.2
  0
SEQEND
 8
0
  0
POLYLINE
  8
0
 62
     0
 66
     1
 10
0
 20
0
 30
0.0
 40
0.566929
 41
0.566929
  0
VERTEX
  8
0
 10
83.9516
 20
134.342
 30
0.0
 40
0.2
 41
0.2
  0
VERTEX
  8
0
 10
83.9516
 20
155.342
 30
0.0
 40
0.2
 41
0.2
  0
VERTEX
  8
0
 10
83.9516
 20
155.326
 30
0.0
 40
0.2
 41
0.2
  0
VERTEX
  8
0
 10
83.9212
 20
155.272
 30
0.0
 40
0.2
 41
0.2
  0
VERTEX
  8
0
 10
83.8673
 20
155.242
 30
0.0
 40
0.2
 41
0.2
  0
VERTEX
  8
0
 10
83.851
 20
155.242
 30
0.0
 40
0.2
 41
0.2
  0
SEQEND
 8
0
  0
POLYLINE
  8
0
 62
     0
 66
     1
 10
0
 20
0
 30
0.0
 40
0.566929
 41
0.566929
  0
VERTEX
  8
0
 10
83.851
 20
155.242
 30
0.0
 40
0.2
 41
0.2
  0
VERTEX
  8
0
 10
86.8507
 20
155.242
 30
0.0
 40
0.2
 41
0.2
  0
VERTEX
  8
0
 10
86.8673
 20
155.242
 30
0.0
 40
0.2
 41
0.2
  0
VERTEX
  8
0
 10
86.9213
 20
155.272
 30
0.0
 40
0.2
 41
0.2
  0
VERTEX
  8
0
 10
86.9516
 20
155.326
 30
0.0
 40
0.2
 41
0.2
  0
VERTEX
  8
0
 10
86.9516
 20
155.342
 30
0.0
 40
0.2
 41
0.2
  0
SEQEND
 8
0
  0
POLYLINE
  8
0
 62
     0
 66
     1
 10
0
 20
0
 30
0.0
 40
0.566929
 41
0.566929
  0
VERTEX
  8
0
 10
86.9516
 20
155.342
 30
0.0
 40
0.2
 41
0.2
  0
VERTEX
  8
0
 10
86.9516
 20
165.843
 30
0.0
 40
0.2
 41
0.2
  0
SEQEND
 8
0
  0
POLYLINE
  8
0
 62
     0
 66
     1
 10
0
 20
0
 30
0.0
 40
0.566929
 41
0.566929
  0
VERTEX
  8
0
 10
86.9516
 20
165.843
 30
0.0
 40
0.2
 41
0.2
  0
VERTEX
  8
0
 10
86.9516
 20
168.843
 30
0.0
 40
0.2
 41
0.2
  0
VERTEX
  8
0
 10
86.9516
 20
168.861
 30
0.0
 40
0.2
 41
0.2
  0
VERTEX
  8
0
 10
86.9213
 20
168.915
 30
0.0
 40
0.2
 41
0.2
  0
VERTEX
  8
0
 10
86.8673
 20
168.944
 30
0.0
 40
0.2
 41
0.2
  0
VERTEX
  8
0
 10
86.8507
 20
168.944
 30
0.0
 40
0.2
 41
0.2
  0
SEQEND
 8
0
  0
POLYLINE
  8
0
 62
     0
 66
     1
 10
0
 20
0
 30
0.0
 40
0.566929
 41
0.566929
  0
VERTEX
  8
0
 10
86.8507
 20
168.944
 30
0.0
 40
0.2
 41
0.2
  0
VERTEX
  8
0
 10
83.851
 20
168.944
 30
0.0
 40
0.2
 41
0.2
  0
SEQEND
 8
0
  0
POLYLINE
  8
0
 62
     0
 66
     1
 10
0
 20
0
 30
0.0
 40
0.566929
 41
0.566929
  0
VERTEX
  8
0
 10
83.851
 20
168.944
 30
0.0
 40
0.2
 41
0.2
  0
VERTEX
  8
0
 10
67.8505
 20
168.944
 30
0.0
 40
0.2
 41
0.2
  0
SEQEND
 8
0
  0
POLYLINE
  8
0
 62
     0
 66
     1
 10
0
 20
0
 30
0.0
 40
0.566929
 41
0.566929
  0
VERTEX
  8
0
 10
67.8505
 20
168.944
 30
0.0
 40
0.2
 41
0.2
  0
VERTEX
  8
0
 10
67.8325
 20
168.944
 30
0.0
 40
0.2
 41
0.2
  0
VERTEX
  8
0
 10
67.7788
 20
168.915
 30
0.0
 40
0.2
 41
0.2
  0
VERTEX
  8
0
 10
67.7499
 20
168.861
 30
0.0
 40
0.2
 41
0.2
  0
VERTEX
  8
0
 10
67.7499
 20
168.843
 30
0.0
 40
0.2
 41
0.2
  0
SEQEND
 8
0
  0
POLYLINE
  8
0
 62
     0
 66
     1
 10
0
 20
0
 30
0.0
 40
0.566929
 41
0.566929
  0
VERTEX
  8
0
 10
67.7499
 20
168.843
 30
0.0
 40
0.2
 41
0.2
  0
VERTEX
  8
0
 10
67.7499
 20
165.843
 30
0.0
 40
0.2
 41
0.2
  0
VERTEX
  8
0
 10
67.7499
 20
165.861
 30
0.0
 40
0.2
 41
0.2
  0
VERTEX
  8
0
 10
67.7788
 20
165.915
 30
0.0
 40
0.2
 41
0.2
  0
VERTEX
  8
0
 10
67.8325
 20
165.943
 30
0.0
 40
0.2
 41
0.2
  0
VERTEX
  8
0
 10
67.8505
 20
165.943
 30
0.0
 40
0.2
 41
0.2
  0
SEQEND
 8
0
  0
POLYLINE
  8
0
 62
     0
 66
     1
 10
0
 20
0
 30
0.0
 40
0.566929
 41
0.566929
  0
VERTEX
  8
0
 10
67.8505
 20
165.943
 30
0.0
 40
0.2
 41
0.2
  0
VERTEX
  8
0
 10
46.8507
 20
165.943
 30
0.0
 40
0.2
 41
0.2
  0
VERTEX
  8
0
 10
46.8672
 20
165.943
 30
0.0
 40
0.2
 41
0.2
  0
VERTEX
  8
0
 10
46.9209
 20
165.915
 30
0.0
 40
0.2
 41
0.2
  0
VERTEX
  8
0
 10
46.9512
 20
165.861
 30
0.0
 40
0.2
 41
0.2
  0
VERTEX
  8
0
 10
46.9512
 20
165.843
 30
0.0
 40
0.2
 41
0.2
  0
SEQEND
 8
0
  0
POLYLINE
  8
0
 62
     0
 66
     1
 10
0
 20
0
 30
0.0
 40
0.566929
 41
0.566929
  0
VERTEX
  8
0
 10
46.9512
 20
165.843
 30
0.0
 40
0.2
 41
0.2
  0
VERTEX
  8
0
 10
46.9512
 20
168.843
 30
0.0
 40
0.2
 41
0.2
  0
VERTEX
  8
0
 10
46.9512
 20
168.861
 30
0.0
 40
0.2
 41
0.2
  0
VERTEX
  8
0
 10
46.9209
 20
168.915
 30
0.0
 40
0.2
 41
0.2
  0
VERTEX
  8
0
 10
46.8672
 20
168.944
 30
0.0
 40
0.2
 41
0.2
  0
VERTEX
  8
0
 10
46.8507
 20
168.944
 30
0.0
 40
0.2
 41
0.2
  0
SEQEND
 8
0
  0
POLYLINE
  8
0
 62
     0
 66
     1
 10
0
 20
0
 30
0.0
 40
0.566929
 41
0.566929
  0
VERTEX
  8
0
 10
46.8507
 20
168.944
 30
0.0
 40
0.2
 41
0.2
  0
VERTEX
  8
0
 10
40.8506
 20
168.944
 30
0.0
 40
0.2
 41
0.2
  0
SEQEND
 8
0
  0
POLYLINE
  8
0
 62
     0
 66
     1
 10
0
 20
0
 30
0.0
 40
0.566929
 41
0.566929
  0
VERTEX
  8
0
 10
40.8506
 20
168.944
 30
0.0
 40
0.2
 41
0.2
  0
VERTEX
  8
0
 10
40.8326
 20
168.944
 30
0.0
 40
0.2
 41
0.2
  0
VERTEX
  8
0
 10
40.779
 20
168.915
 30
0.0
 40
0.2
 41
0.2
  0
VERTEX
  8
0
 10
40.7501
 20
168.861
 30
0.0
 40
0.2
 41
0.2
  0
VERTEX
  8
0
 10
40.7501
 20
168.843
 30
0.0
 40
0.2
 41
0.2
  0
SEQEND
 8
0
  0
POLYLINE
  8
0
 62
     0
 66
     1
 10
0
 20
0
 30
0.0
 40
0.566929
 41
0.566929
  0
VERTEX
  8
0
 10
40.7501
 20
168.843
 30
0.0
 40
0.2
 41
0.2
  0
VERTEX
  8
0
 10
40.7501
 20
165.843
 30
0.0
 40
0.2
 41
0.2
  0
VERTEX
  8
0
 10
40.7501
 20
165.861
 30
0.0
 40
0.2
 41
0.2
  0
VERTEX
  8
0
 10
40.779
 20
165.915
 30
0.0
 40
0.2
 41
0.2
  0
VERTEX
  8
0
 10
40.8326
 20
165.943
 30
0.0
 40
0.2
 41
0.2
  0
VERTEX
  8
0
 10
40.8506
 20
165.943
 30
0.0
 40
0.2
 41
0.2
  0
SEQEND
 8
0
  0
POLYLINE
  8
0
 62
     0
 66
     1
 10
0
 20
0
 30
0.0
 40
0.566929
 41
0.566929
  0
VERTEX
  8
0
 10
40.8506
 20
165.943
 30
0.0
 40
0.2
 41
0.2
  0
VERTEX
  8
0
 10
19.8506
 20
165.943
 30
0.0
 40
0.2
 41
0.2
  0
VERTEX
  8
0
 10
19.8672
 20
165.943
 30
0.0
 40
0.2
 41
0.2
  0
VERTEX
  8
0
 10
19.9209
 20
165.915
 30
0.0
 40
0.2
 41
0.2
  0
VERTEX
  8
0
 10
19.9512
 20
165.861
 30
0.0
 40
0.2
 41
0.2
  0
VERTEX
  8
0
 10
19.9512
 20
165.843
 30
0.0
 40
0.2
 41
0.2
  0
SEQEND
 8
0
  0
POLYLINE
  8
0
 62
     0
 66
     1
 10
0
 20
0
 30
0.0
 40
0.566929
 41
0.566929
  0
VERTEX
  8
0
 10
19.9512
 20
165.843
 30
0.0
 40
0.2
 41
0.2
  0
VERTEX
  8
0
 10
19.9512
 20
168.843
 30
0.0
 40
0.2
 41
0.2
  0
VERTEX
  8
0
 10
19.9512
 20
168.861
 30
0.0
 40
0.2
 41
0.2
  0
VERTEX
  8
0
 10
19.9209
 20
168.915
 30
0.0
 40
0.2
 41
0.2
  0
VERTEX
  8
0
 10
19.8672
 20
168.944
 30
0.0
 40
0.2
 41
0.2
  0
VERTEX
  8
0
 10
19.8506
 20
168.944
 30
0.0
 40
0.2
 41
0.2
  0
SEQEND
 8
0
  0
POLYLINE
  8
0
 62
     0
 66
     1
 10
0
 20
0
 30
0.0
 40
0.566929
 41
0.566929
  0
VERTEX
  8
0
 10
19.8506
 20
168.944
 30
0.0
 40
0.2
 41
0.2
  0
VERTEX
  8
0
 10
3.85025
 20
168.944
 30
0.0
 40
0.2
 41
0.2
  0
SEQEND
 8
0
  0
POLYLINE
  8
0
 62
     0
 66
     1
 10
0
 20
0
 30
0.0
 40
0.566929
 41
0.566929
  0
VERTEX
  8
0
 10
3.85025
 20
168.944
 30
0.0
 40
0.2
 41
0.2
  0
VERTEX
  8
0
 10
0.850251
 20
168.944
 30
0.0
 40
0.2
 41
0.2
  0
VERTEX
  8
0
 10
0.832337
 20
168.944
 30
0.0
 40
0.2
 41
0.2
  0
VERTEX
  8
0
 10
0.778591
 20
168.915
 30
0.0
 40
0.2
 41
0.2
  0
VERTEX
  8
0
 10
0.749653
 20
168.861
 30
0.0
 40
0.2
 41
0.2
  0
VERTEX
  8
0
 10
0.749653
 20
168.843
 30
0.0
 40
0.2
 41
0.2
  0
SEQEND
 8
0
  0
POLYLINE
  8
0
 62
     0
 66
     1
 10
0
 20
0
 30
0.0
 40
0.566929
 41
0.566929
  0
VERTEX
  8
0
 10
0.749653
 20
168.843
 30
0.0
 40
0.2
 41
0.2
  0
VERTEX
  8
0
 10
0.749653
 20
165.843
 30
0.0
 40
0.2
 41
0.2
  0
SEQEND
 8
0
  0
POLYLINE
  8
0
 62
     0
 66
     1
 10
0
 20
0
 30
0.0
 40
0.566929
 41
0.566929
  0
VERTEX
  8
0
 10
0.749653
 20
165.843
 30
0.0
 40
0.2
 41
0.2
  0
VERTEX
  8
0
 10
0.749653
 20
155.342
 30
0.0
 40
0.2
 41
0.2
  0
SEQEND
 8
0
  0
POLYLINE
  8
0
 62
     0
 66
     1
 10
0
 20
0
 30
0.0
 40
0.566929
 41
0.566929
  0
VERTEX
  8
0
 10
0.749653
 20
155.342
 30
0.0
 40
0.2
 41
0.2
  0
VERTEX
  8
0
 10
0.749653
 20
155.326
 30
0.0
 40
0.2
 41
0.2
  0
VERTEX
  8
0
 10
0.778591
 20
155.272
 30
0.0
 40
0.2
 41
0.2
  0
VERTEX
  8
0
 10
0.832337
 20
155.242
 30
0.0
 40
0.2
 41
0.2
  0
VERTEX
  8
0
 10
0.850251
 20
155.242
 30
0.0
 40
0.2
 41
0.2
  0
SEQEND
 8
0
  0
POLYLINE
  8
0
 62
     0
 66
     1
 10
0
 20
0
 30
0.0
 40
0.566929
 41
0.566929
  0
VERTEX
  8
0
 10
0.850251
 20
155.242
 30
0.0
 40
0.2
 41
0.2
  0
VERTEX
  8
0
 10
3.85025
 20
155.242
 30
0.0
 40
0.2
 41
0.2
  0
VERTEX
  8
0
 10
3.83233
 20
155.242
 30
0.0
 40
0.2
 41
0.2
  0
VERTEX
  8
0
 10
3.77857
 20
155.272
 30
0.0
 40
0.2
 41
0.2
  0
VERTEX
  8
0
 10
3.74964
 20
155.326
 30
0.0
 40
0.2
 41
0.2
  0
VERTEX
  8
0
 10
3.74964
 20
155.342
 30
0.0
 40
0.2
 41
0.2
  0
SEQEND
 8
0
  0
POLYLINE
  8
0
 62
     0
 66
     1
 10
0
 20
0
 30
0.0
 40
0.566929
 41
0.566929
  0
VERTEX
  8
0
 10
3.74964
 20
155.342
 30
0.0
 40
0.2
 41
0.2
  0
VERTEX
  8
0
 10
3.74964
 20
134.342
 30
0.0
 40
0.2
 41
0.2
  0
VERTEX
  8
0
 10
3.74964
 20
134.36
 30
0.0
 40
0.2
 41
0.2
  0
VERTEX
  8
0
 10
3.77857
 20
134.414
 30
0.0
 40
0.2
 41
0.2
  0
VERTEX
  8
0
 10
3.83233
 20
134.443
 30
0.0
 40
0.2
 41
0.2
  0
VERTEX
  8
0
 10
3.85025
 20
134.443
 30
0.0
 40
0.2
 41
0.2
  0
SEQEND
 8
0
  0
POLYLINE
  8
0
 62
     0
 66
     1
 10
0
 20
0
 30
0.0
 40
0.566929
 41
0.566929
  0
VERTEX
  8
0
 10
3.85025
 20
134.443
 30
0.0
 40
0.2
 41
0.2
  0
VERTEX
  8
0
 10
0.850251
 20
134.443
 30
0.0
 40
0.2
 41
0.2
  0
VERTEX
  8
0
 10
0.832337
 20
134.443
 30
0.0
 40
0.2
 41
0.2
  0
VERTEX
  8
0
 10
0.778591
 20
134.414
 30
0.0
 40
0.2
 41
0.2
  0
VERTEX
  8
0
 10
0.749653
 20
134.36
 30
0.0
 40
0.2
 41
0.2
  0
VERTEX
  8
0
 10
0.749653
 20
134.342
 30
0.0
 40
0.2
 41
0.2
  0
SEQEND
 8
0
  0
POLYLINE
  8
0
 62
     0
 66
     1
 10
0
 20
0
 30
0.0
 40
0.566929
 41
0.566929
  0
VERTEX
  8
0
 10
0.749653
 20
134.342
 30
0.0
 40
0.2
 41
0.2
  0
VERTEX
  8
0
 10
0.749653
 20
128.342
 30
0.0
 40
0.2
 41
0.2
  0
SEQEND
 8
0
  0
POLYLINE
  8
0
 62
     0
 66
     1
 10
0
 20
0
 30
0.0
 40
0.566929
 41
0.566929
  0
VERTEX
  8
0
 10
0.749653
 20
128.342
 30
0.0
 40
0.2
 41
0.2
  0
VERTEX
  8
0
 10
0.749653
 20
128.326
 30
0.0
 40
0.2
 41
0.2
  0
VERTEX
  8
0
 10
0.778591
 20
128.272
 30
0.0
 40
0.2
 41
0.2
  0
VERTEX
  8
0
 10
0.832337
 20
128.242
 30
0.0
 40
0.2
 41
0.2
  0
VERTEX
  8
0
 10
0.850251
 20
128.242
 30
0.0
 40
0.2
 41
0.2
  0
SEQEND
 8
0
  0
POLYLINE
  8
0
 62
     0
 66
     1
 10
0
 20
0
 30
0.0
 40
0.566929
 41
0.566929
  0
VERTEX
  8
0
 10
0.850251
 20
128.242
 30
0.0
 40
0.2
 41
0.2
  0
VERTEX
  8
0
 10
3.85025
 20
128.242
 30
0.0
 40
0.2
 41
0.2
  0
VERTEX
  8
0
 10
3.83233
 20
128.242
 30
0.0
 40
0.2
 41
0.2
  0
VERTEX
  8
0
 10
3.77857
 20
128.272
 30
0.0
 40
0.2
 41
0.2
  0
VERTEX
  8
0
 10
3.74964
 20
128.326
 30
0.0
 40
0.2
 41
0.2
  0
VERTEX
  8
0
 10
3.74964
 20
128.342
 30
0.0
 40
0.2
 41
0.2
  0
SEQEND
 8
0
  0
POLYLINE
  8
0
 62
     0
 66
     1
 10
0
 20
0
 30
0.0
 40
0.566929
 41
0.566929
  0
VERTEX
  8
0
 10
3.74964
 20
128.342
 30
0.0
 40
0.2
 41
0.2
  0
VERTEX
  8
0
 10
3.74964
 20
107.342
 30
0.0
 40
0.2
 41
0.2
  0
VERTEX
  8
0
 10
3.74964
 20
107.36
 30
0.0
 40
0.2
 41
0.2
  0
VERTEX
  8
0
 10
3.77857
 20
107.414
 30
0.0
 40
0.2
 41
0.2
  0
VERTEX
  8
0
 10
3.83233
 20
107.443
 30
0.0
 40
0.2
 41
0.2
  0
VERTEX
  8
0
 10
3.85025
 20
107.443
 30
0.0
 40
0.2
 41
0.2
  0
SEQEND
 8
0
  0
POLYLINE
  8
0
 62
     0
 66
     1
 10
0
 20
0
 30
0.0
 40
0.566929
 41
0.566929
  0
VERTEX
  8
0
 10
3.85025
 20
107.443
 30
0.0
 40
0.2
 41
0.2
  0
VERTEX
  8
0
 10
0.850251
 20
107.443
 30
0.0
 40
0.2
 41
0.2
  0
VERTEX
  8
0
 10
0.832337
 20
107.443
 30
0.0
 40
0.2
 41
0.2
  0
VERTEX
  8
0
 10
0.778591
 20
107.414
 30
0.0
 40
0.2
 41
0.2
  0
VERTEX
  8
0
 10
0.749653
 20
107.36
 30
0.0
 40
0.2
 41
0.2
  0
VERTEX
  8
0
 10
0.749653
 20
107.342
 30
0.0
 40
0.2
 41
0.2
  0
SEQEND
 8
0
  0
POLYLINE
  8
0
 62
     0
 66
     1
 10
0
 20
0
 30
0.0
 40
0.566929
 41
0.566929
  0
VERTEX
  8
0
 10
0.749653
 20
107.342
 30
0.0
 40
0.2
 41
0.2
  0
VERTEX
  8
0
 10
0.749653
 20
101.342
 30
0.0
 40
0.2
 41
0.2
  0
SEQEND
 8
0
  0
POLYLINE
  8
0
 62
     0
 66
     1
 10
0
 20
0
 30
0.0
 40
0.566929
 41
0.566929
  0
VERTEX
  8
0
 10
0.749653
 20
101.342
 30
0.0
 40
0.2
 41
0.2
  0
VERTEX
  8
0
 10
0.749653
 20
101.326
 30
0.0
 40
0.2
 41
0.2
  0
VERTEX
  8
0
 10
0.778591
 20
101.272
 30
0.0
 40
0.2
 41
0.2
  0
VERTEX
  8
0
 10
0.832337
 20
101.242
 30
0.0
 40
0.2
 41
0.2
  0
VERTEX
  8
0
 10
0.850251
 20
101.242
 30
0.0
 40
0.2
 41
0.2
  0
SEQEND
 8
0
  0
POLYLINE
  8
0
 62
     0
 66
     1
 10
0
 20
0
 30
0.0
 40
0.566929
 41
0.566929
  0
VERTEX
  8
0
 10
0.850251
 20
101.242
 30
0.0
 40
0.2
 41
0.2
  0
VERTEX
  8
0
 10
3.85025
 20
101.242
 30
0.0
 40
0.2
 41
0.2
  0
VERTEX
  8
0
 10
3.83233
 20
101.242
 30
0.0
 40
0.2
 41
0.2
  0
VERTEX
  8
0
 10
3.77857
 20
101.272
 30
0.0
 40
0.2
 41
0.2
  0
VERTEX
  8
0
 10
3.74964
 20
101.326
 30
0.0
 40
0.2
 41
0.2
  0
VERTEX
  8
0
 10
3.74964
 20
101.342
 30
0.0
 40
0.2
 41
0.2
  0
SEQEND
 8
0
  0
POLYLINE
  8
0
 62
     0
 66
     1
 10
0
 20
0
 30
0.0
 40
0.566929
 41
0.566929
  0
VERTEX
  8
0
 10
3.74964
 20
101.342
 30
0.0
 40
0.2
 41
0.2
  0
VERTEX
  8
0
 10
3.74964
 20
80.3423
 30
0.0
 40
0.2
 41
0.2
  0
VERTEX
  8
0
 10
3.74964
 20
80.3603
 30
0.0
 40
0.2
 41
0.2
  0
VERTEX
  8
0
 10
3.77857
 20
80.4139
 30
0.0
 40
0.2
 41
0.2
  0
VERTEX
  8
0
 10
3.83233
 20
80.4429
 30
0.0
 40
0.2
 41
0.2
  0
VERTEX
  8
0
 10
3.85025
 20
80.4429
 30
0.0
 40
0.2
 41
0.2
  0
SEQEND
 8
0
  0
POLYLINE
  8
0
 62
     0
 66
     1
 10
0
 20
0
 30
0.0
 40
0.566929
 41
0.566929
  0
VERTEX
  8
0
 10
3.85025
 20
80.4429
 30
0.0
 40
0.2
 41
0.2
  0
VERTEX
  8
0
 10
0.850251
 20
80.4429
 30
0.0
 40
0.2
 41
0.2
  0
VERTEX
  8
0
 10
0.832337
 20
80.4429
 30
0.0
 40
0.2
 41
0.2
  0
VERTEX
  8
0
 10
0.778591
 20
80.4139
 30
0.0
 40
0.2
 41
0.2
  0
VERTEX
  8
0
 10
0.749653
 20
80.3603
 30
0.0
 40
0.2
 41
0.2
  0
VERTEX
  8
0
 10
0.749653
 20
80.3423
 30
0.0
 40
0.2
 41
0.2
  0
SEQEND
 8
0
  0
POLYLINE
  8
0
 62
     0
 66
     1
 10
0
 20
0
 30
0.0
 40
0.566929
 41
0.566929
  0
VERTEX
  8
0
 10
0.749653
 20
80.3423
 30
0.0
 40
0.2
 41
0.2
  0
VERTEX
  8
0
 10
0.749653
 20
74.3423
 30
0.0
 40
0.2
 41
0.2
  0
SEQEND
 8
0
  0
POLYLINE
  8
0
 62
     0
 66
     1
 10
0
 20
0
 30
0.0
 40
0.566929
 41
0.566929
  0
VERTEX
  8
0
 10
0.749653
 20
74.3423
 30
0.0
 40
0.2
 41
0.2
  0
VERTEX
  8
0
 10
0.749653
 20
74.326
 30
0.0
 40
0.2
 41
0.2
  0
VERTEX
  8
0
 10
0.778591
 20
74.2721
 30
0.0
 40
0.2
 41
0.2
  0
VERTEX
  8
0
 10
0.832337
 20
74.2417
 30
0.0
 40
0.2
 41
0.2
  0
VERTEX
  8
0
 10
0.850251
 20
74.2417
 30
0.0
 40
0.2
 41
0.2
  0
SEQEND
 8
0
  0
POLYLINE
  8
0
 62
     0
 66
     1
 10
0
 20
0
 30
0.0
 40
0.566929
 41
0.566929
  0
VERTEX
  8
0
 10
0.850251
 20
74.2417
 30
0.0
 40
0.2
 41
0.2
  0
VERTEX
  8
0
 10
3.85025
 20
74.2417
 30
0.0
 40
0.2
 41
0.2
  0
VERTEX
  8
0
 10
3.83233
 20
74.2417
 30
0.0
 40
0.2
 41
0.2
  0
VERTEX
  8
0
 10
3.77857
 20
74.2721
 30
0.0
 40
0.2
 41
0.2
  0
VERTEX
  8
0
 10
3.74964
 20
74.326
 30
0.0
 40
0.2
 41
0.2
  0
VERTEX
  8
0
 10
3.74964
 20
74.3423
 30
0.0
 40
0.2
 41
0.2
  0
SEQEND
 8
0
  0
POLYLINE
  8
0
 62
     0
 66
     1
 10
0
 20
0
 30
0.0
 40
0.566929
 41
0.566929
  0
VERTEX
  8
0
 10
3.74964
 20
74.3423
 30
0.0
 40
0.2
 41
0.2
  0
VERTEX
  8
0
 10
3.74964
 20
53.3425
 30
0.0
 40
0.2
 41
0.2
  0
VERTEX
  8
0
 10
3.74964
 20
53.3605
 30
0.0
 40
0.2
 41
0.2
  0
VERTEX
  8
0
 10
3.77857
 20
53.4141
 30
0.0
 40
0.2
 41
0.2
  0
VERTEX
  8
0
 10
3.83233
 20
53.443
 30
0.0
 40
0.2
 41
0.2
  0
VERTEX
  8
0
 10
3.85025
 20
53.443
 30
0.0
 40
0.2
 41
0.2
  0
SEQEND
 8
0
  0
POLYLINE
  8
0
 62
     0
 66
     1
 10
0
 20
0
 30
0.0
 40
0.566929
 41
0.566929
  0
VERTEX
  8
0
 10
3.85025
 20
53.443
 30
0.0
 40
0.2
 41
0.2
  0
VERTEX
  8
0
 10
0.850251
 20
53.443
 30
0.0
 40
0.2
 41
0.2
  0
VERTEX
  8
0
 10
0.832337
 20
53.443
 30
0.0
 40
0.2
 41
0.2
  0
VERTEX
  8
0
 10
0.778591
 20
53.4141
 30
0.0
 40
0.2
 41
0.2
  0
VERTEX
  8
0
 10
0.749653
 20
53.3605
 30
0.0
 40
0.2
 41
0.2
  0
VERTEX
  8
0
 10
0.749653
 20
53.3425
 30
0.0
 40
0.2
 41
0.2
  0
SEQEND
 8
0
  0
POLYLINE
  8
0
 62
     0
 66
     1
 10
0
 20
0
 30
0.0
 40
0.566929
 41
0.566929
  0
VERTEX
  8
0
 10
0.749653
 20
53.3425
 30
0.0
 40
0.2
 41
0.2
  0
VERTEX
  8
0
 10
0.749653
 20
47.3424
 30
0.0
 40
0.2
 41
0.2
  0
SEQEND
 8
0
  0
POLYLINE
  8
0
 62
     0
 66
     1
 10
0
 20
0
 30
0.0
 40
0.566929
 41
0.566929
  0
VERTEX
  8
0
 10
0.749653
 20
47.3424
 30
0.0
 40
0.2
 41
0.2
  0
VERTEX
  8
0
 10
0.749653
 20
47.3258
 30
0.0
 40
0.2
 41
0.2
  0
VERTEX
  8
0
 10
0.778591
 20
47.2722
 30
0.0
 40
0.2
 41
0.2
  0
VERTEX
  8
0
 10
0.832337
 20
47.2419
 30
0.0
 40
0.2
 41
0.2
  0
VERTEX
  8
0
 10
0.850251
 20
47.2419
 30
0.0
 40
0.2
 41
0.2
  0
SEQEND
 8
0
  0
POLYLINE
  8
0
 62
     0
 66
     1
 10
0
 20
0
 30
0.0
 40
0.566929
 41
0.566929
  0
VERTEX
  8
0
 10
0.850251
 20
47.2419
 30
0.0
 40
0.2
 41
0.2
  0
VERTEX
  8
0
 10
3.85025
 20
47.2419
 30
0.0
 40
0.2
 41
0.2
  0
VERTEX
  8
0
 10
3.83233
 20
47.2419
 30
0.0
 40
0.2
 41
0.2
  0
VERTEX
  8
0
 10
3.77857
 20
47.2722
 30
0.0
 40
0.2
 41
0.2
  0
VERTEX
  8
0
 10
3.74964
 20
47.3258
 30
0.0
 40
0.2
 41
0.2
  0
VERTEX
  8
0
 10
3.74964
 20
47.3424
 30
0.0
 40
0.2
 41
0.2
  0
SEQEND
 8
0
  0
POLYLINE
  8
0
 62
     0
 66
     1
 10
0
 20
0
 30
0.0
 40
0.566929
 41
0.566929
  0
VERTEX
  8
0
 10
3.74964
 20
47.3424
 30
0.0
 40
0.2
 41
0.2
  0
VERTEX
  8
0
 10
3.74964
 20
26.3426
 30
0.0
 40
0.2
 41
0.2
  0
VERTEX
  8
0
 10
3.74964
 20
26.3605
 30
0.0
 40
0.2
 41
0.2
  0
VERTEX
  8
0
 10
3.77857
 20
26.4142
 30
0.0
 40
0.2
 41
0.2
  0
VERTEX
  8
0
 10
3.83233
 20
26.4432
 30
0.0
 40
0.2
 41
0.2
  0
VERTEX
  8
0
 10
3.85025
 20
26.4432
 30
0.0
 40
0.2
 41
0.2
  0
SEQEND
 8
0
  0
POLYLINE
  8
0
 62
     0
 66
     1
 10
0
 20
0
 30
0.0
 40
0.566929
 41
0.566929
  0
VERTEX
  8
0
 10
3.85025
 20
26.4432
 30
0.0
 40
0.2
 41
0.2
  0
VERTEX
  8
0
 10
0.850251
 20
26.4432
 30
0.0
 40
0.2
 41
0.2
  0
VERTEX
  8
0
 10
0.832337
 20
26.4432
 30
0.0
 40
0.2
 41
0.2
  0
VERTEX
  8
0
 10
0.778591
 20
26.4142
 30
0.0
 40
0.2
 41
0.2
  0
VERTEX
  8
0
 10
0.749653
 20
26.3605
 30
0.0
 40
0.2
 41
0.2
  0
VERTEX
  8
0
 10
0.749653
 20
26.3426
 30
0.0
 40
0.2
 41
0.2
  0
SEQEND
 8
0
  0
POLYLINE
  8
0
 62
     0
 66
     1
 10
0
 20
0
 30
0.0
 40
0.566929
 41
0.566929
  0
VERTEX
  8
0
 10
0.749653
 20
26.3426
 30
0.0
 40
0.2
 41
0.2
  0
VERTEX
  8
0
 10
0.749653
 20
15.8419
 30
0.0
 40
0.2
 41
0.2
  0
SEQEND
 8
0
  0
POLYLINE
  8
0
 62
     0
 66
     1
 10
0
 20
0
 30
0.0
 40
0.566929
 41
0.566929
  0
VERTEX
  8
0
 10
0.749653
 20
15.8419
 30
0.0
 40
0.2
 41
0.2
  0
VERTEX
  8
0
 10
0.749653
 20
12.8419
 30
0.0
 40
0.2
 41
0.2
  0
VERTEX
  8
0
 10
0.749653
 20
12.8254
 30
0.0
 40
0.2
 41
0.2
  0
VERTEX
  8
0
 10
0.778591
 20
12.7716
 30
0.0
 40
0.2
 41
0.2
  0
VERTEX
  8
0
 10
0.832337
 20
12.7413
 30
0.0
 40
0.2
 41
0.2
  0
VERTEX
  8
0
 10
0.850251
 20
12.7413
 30
0.0
 40
0.2
 41
0.2
  0
SEQEND
 8
0
  0
POLYLINE
  8
0
 62
     0
 66
     1
 10
0
 20
0
 30
0.0
 40
0.566929
 41
0.566929
  0
VERTEX
  8
0
 10
0.850251
 20
12.7413
 30
0.0
 40
0.2
 41
0.2
  0
VERTEX
  8
0
 10
3.85025
 20
12.7413
 30
0.0
 40
0.2
 41
0.2
  0
SEQEND
 8
0
  0
POLYLINE
  8
0
 62
     0
 66
     1
 10
0
 20
0
 30
0.0
 40
0.566929
 41
0.566929
  0
VERTEX
  8
0
 10
91.5501
 20
12.7413
 30
0.0
 40
0.2
 41
0.2
  0
VERTEX
  8
0
 10
107.55
 20
12.7413
 30
0.0
 40
0.2
 41
0.2
  0
SEQEND
 8
0
  0
POLYLINE
  8
0
 62
     0
 66
     1
 10
0
 20
0
 30
0.0
 40
0.566929
 41
0.566929
  0
VERTEX
  8
0
 10
107.55
 20
12.7413
 30
0.0
 40
0.2
 41
0.2
  0
VERTEX
  8
0
 10
107.567
 20
12.7413
 30
0.0
 40
0.2
 41
0.2
  0
VERTEX
  8
0
 10
107.621
 20
12.7716
 30
0.0
 40
0.2
 41
0.2
  0
VERTEX
  8
0
 10
107.651
 20
12.8254
 30
0.0
 40
0.2
 41
0.2
  0
VERTEX
  8
0
 10
107.651
 20
12.8419
 30
0.0
 40
0.2
 41
0.2
  0
SEQEND
 8
0
  0
POLYLINE
  8
0
 62
     0
 66
     1
 10
0
 20
0
 30
0.0
 40
0.566929
 41
0.566929
  0
VERTEX
  8
0
 10
107.651
 20
12.8419
 30
0.0
 40
0.2
 41
0.2
  0
VERTEX
  8
0
 10
107.651
 20
15.8419
 30
0.0
 40
0.2
 41
0.2
  0
VERTEX
  8
0
 10
107.651
 20
15.8254
 30
0.0
 40
0.2
 41
0.2
  0
VERTEX
  8
0
 10
107.621
 20
15.7716
 30
0.0
 40
0.2
 41
0.2
  0
VERTEX
  8
0
 10
107.567
 20
15.7413
 30
0.0
 40
0.2
 41
0.2
  0
VERTEX
  8
0
 10
107.55
 20
15.7413
 30
0.0
 40
0.2
 41
0.2
  0
SEQEND
 8
0
  0
POLYLINE
  8
0
 62
     0
 66
     1
 10
0
 20
0
 30
0.0
 40
0.566929
 41
0.566929
  0
VERTEX
  8
0
 10
107.55
 20
15.7413
 30
0.0
 40
0.2
 41
0.2
  0
VERTEX
  8
0
 10
128.55
 20
15.7413
 30
0.0
 40
0.2
 41
0.2
  0
VERTEX
  8
0
 10
128.532
 20
15.7413
 30
0.0
 40
0.2
 41
0.2
  0
VERTEX
  8
0
 10
128.478
 20
15.7716
 30
0.0
 40
0.2
 41
0.2
  0
VERTEX
  8
0
 10
128.45
 20
15.8254
 30
0.0
 40
0.2
 41
0.2
  0
VERTEX
  8
0
 10
128.45
 20
15.8419
 30
0.0
 40
0.2
 41
0.2
  0
SEQEND
 8
0
  0
POLYLINE
  8
0
 62
     0
 66
     1
 10
0
 20
0
 30
0.0
 40
0.566929
 41
0.566929
  0
VERTEX
  8
0
 10
128.45
 20
15.8419
 30
0.0
 40
0.2
 41
0.2
  0
VERTEX
  8
0
 10
128.45
 20
12.8419
 30
0.0
 40
0.2
 41
0.2
  0
VERTEX
  8
0
 10
128.45
 20
12.8254
 30
0.0
 40
0.2
 41
0.2
  0
VERTEX
  8
0
 10
128.478
 20
12.7716
 30
0.0
 40
0.2
 41
0.2
  0
VERTEX
  8
0
 10
128.532
 20
12.7413
 30
0.0
 40
0.2
 41
0.2
  0
VERTEX
  8
0
 10
128.55
 20
12.7413
 30
0.0
 40
0.2
 41
0.2
  0
SEQEND
 8
0
  0
POLYLINE
  8
0
 62
     0
 66
     1
 10
0
 20
0
 30
0.0
 40
0.566929
 41
0.566929
  0
VERTEX
  8
0
 10
128.55
 20
12.7413
 30
0.0
 40
0.2
 41
0.2
  0
VERTEX
  8
0
 10
134.55
 20
12.7413
 30
0.0
 40
0.2
 41
0.2
  0
SEQEND
 8
0
  0
POLYLINE
  8
0
 62
     0
 66
     1
 10
0
 20
0
 30
0.0
 40
0.566929
 41
0.566929
  0
VERTEX
  8
0
 10
134.55
 20
12.7413
 30
0.0
 40
0.2
 41
0.2
  0
VERTEX
  8
0
 10
134.567
 20
12.7413
 30
0.0
 40
0.2
 41
0.2
  0
VERTEX
  8
0
 10
134.621
 20
12.7716
 30
0.0
 40
0.2
 41
0.2
  0
VERTEX
  8
0
 10
134.651
 20
12.8254
 30
0.0
 40
0.2
 41
0.2
  0
VERTEX
  8
0
 10
134.651
 20
12.8419
 30
0.0
 40
0.2
 41
0.2
  0
SEQEND
 8
0
  0
POLYLINE
  8
0
 62
     0
 66
     1
 10
0
 20
0
 30
0.0
 40
0.566929
 41
0.566929
  0
VERTEX
  8
0
 10
134.651
 20
12.8419
 30
0.0
 40
0.2
 41
0.2
  0
VERTEX
  8
0
 10
134.651
 20
15.8419
 30
0.0
 40
0.2
 41
0.2
  0
VERTEX
  8
0
 10
134.651
 20
15.8254
 30
0.0
 40
0.2
 41
0.2
  0
VERTEX
  8
0
 10
134.621
 20
15.7716
 30
0.0
 40
0.2
 41
0.2
  0
VERTEX
  8
0
 10
134.567
 20
15.7413
 30
0.0
 40
0.2
 41
0.2
  0
VERTEX
  8
0
 10
134.55
 20
15.7413
 30
0.0
 40
0.2
 41
0.2
  0
SEQEND
 8
0
  0
POLYLINE
  8
0
 62
     0
 66
     1
 10
0
 20
0
 30
0.0
 40
0.566929
 41
0.566929
  0
VERTEX
  8
0
 10
134.55
 20
15.7413
 30
0.0
 40
0.2
 41
0.2
  0
VERTEX
  8
0
 10
155.55
 20
15.7413
 30
0.0
 40
0.2
 41
0.2
  0
VERTEX
  8
0
 10
155.532
 20
15.7413
 30
0.0
 40
0.2
 41
0.2
  0
VERTEX
  8
0
 10
155.479
 20
15.7716
 30
0.0
 40
0.2
 41
0.2
  0
VERTEX
  8
0
 10
155.45
 20
15.8254
 30
0.0
 40
0.2
 41
0.2
  0
VERTEX
  8
0
 10
155.45
 20
15.8419
 30
0.0
 40
0.2
 41
0.2
  0
SEQEND
 8
0
  0
POLYLINE
  8
0
 62
     0
 66
     1
 10
0
 20
0
 30
0.0
 40
0.566929
 41
0.566929
  0
VERTEX
  8
0
 10
155.45
 20
15.8419
 30
0.0
 40
0.2
 41
0.2
  0
VERTEX
  8
0
 10
155.45
 20
12.8419
 30
0.0
 40
0.2
 41
0.2
  0
VERTEX
  8
0
 10
155.45
 20
12.8254
 30
0.0
 40
0.2
 41
0.2
  0
VERTEX
  8
0
 10
155.479
 20
12.7716
 30
0.0
 40
0.2
 41
0.2
  0
VERTEX
  8
0
 10
155.532
 20
12.7413
 30
0.0
 40
0.2
 41
0.2
  0
VERTEX
  8
0
 10
155.55
 20
12.7413
 30
0.0
 40
0.2
 41
0.2
  0
SEQEND
 8
0
  0
POLYLINE
  8
0
 62
     0
 66
     1
 10
0
 20
0
 30
0.0
 40
0.566929
 41
0.566929
  0
VERTEX
  8
0
 10
155.55
 20
12.7413
 30
0.0
 40
0.2
 41
0.2
  0
VERTEX
  8
0
 10
171.551
 20
12.7413
 30
0.0
 40
0.2
 41
0.2
  0
SEQEND
 8
0
  0
POLYLINE
  8
0
 62
     0
 66
     1
 10
0
 20
0
 30
0.0
 40
0.566929
 41
0.566929
  0
VERTEX
  8
0
 10
171.551
 20
12.7413
 30
0.0
 40
0.2
 41
0.2
  0
VERTEX
  8
0
 10
171.567
 20
12.7413
 30
0.0
 40
0.2
 41
0.2
  0
VERTEX
  8
0
 10
171.621
 20
12.7716
 30
0.0
 40
0.2
 41
0.2
  0
VERTEX
  8
0
 10
171.651
 20
12.8254
 30
0.0
 40
0.2
 41
0.2
  0
VERTEX
  8
0
 10
171.651
 20
12.8419
 30
0.0
 40
0.2
 41
0.2
  0
SEQEND
 8
0
  0
POLYLINE
  8
0
 62
     0
 66
     1
 10
0
 20
0
 30
0.0
 40
0.566929
 41
0.566929
  0
VERTEX
  8
0
 10
171.651
 20
12.8419
 30
0.0
 40
0.2
 41
0.2
  0
VERTEX
  8
0
 10
171.651
 20
15.8419
 30
0.0
 40
0.2
 41
0.2
  0
SEQEND
 8
0
  0
POLYLINE
  8
0
 62
     0
 66
     1
 10
0
 20
0
 30
0.0
 40
0.566929
 41
0.566929
  0
VERTEX
  8
0
 10
171.651
 20
15.8419
 30
0.0
 40
0.2
 41
0.2
  0
VERTEX
  8
0
 10
171.651
 20
26.3426
 30
0.0
 40
0.2
 41
0.2
  0
SEQEND
 8
0
  0
POLYLINE
  8
0
 62
     0
 66
     1
 10
0
 20
0
 30
0.0
 40
0.566929
 41
0.566929
  0
VERTEX
  8
0
 10
171.651
 20
26.3426
 30
0.0
 40
0.2
 41
0.2
  0
VERTEX
  8
0
 10
171.651
 20
26.326
 30
0.0
 40
0.2
 41
0.2
  0
VERTEX
  8
0
 10
171.621
 20
26.2723
 30
0.0
 40
0.2
 41
0.2
  0
VERTEX
  8
0
 10
171.567
 20
26.242
 30
0.0
 40
0.2
 41
0.2
  0
VERTEX
  8
0
 10
171.551
 20
26.242
 30
0.0
 40
0.2
 41
0.2
  0
SEQEND
 8
0
  0
POLYLINE
  8
0
 62
     0
 66
     1
 10
0
 20
0
 30
0.0
 40
0.566929
 41
0.566929
  0
VERTEX
  8
0
 10
171.551
 20
26.242
 30
0.0
 40
0.2
 41
0.2
  0
VERTEX
  8
0
 10
174.551
 20
26.242
 30
0.0
 40
0.2
 41
0.2
  0
VERTEX
  8
0
 10
174.567
 20
26.242
 30
0.0
 40
0.2
 41
0.2
  0
VERTEX
  8
0
 10
174.621
 20
26.2723
 30
0.0
 40
0.2
 41
0.2
  0
VERTEX
  8
0
 10
174.651
 20
26.326
 30
0.0
 40
0.2
 41
0.2
  0
VERTEX
  8
0
 10
174.651
 20
26.3426
 30
0.0
 40
0.2
 41
0.2
  0
SEQEND
 8
0
  0
POLYLINE
  8
0
 62
     0
 66
     1
 10
0
 20
0
 30
0.0
 40
0.566929
 41
0.566929
  0
VERTEX
  8
0
 10
174.651
 20
26.3426
 30
0.0
 40
0.2
 41
0.2
  0
VERTEX
  8
0
 10
174.651
 20
47.3424
 30
0.0
 40
0.2
 41
0.2
  0
VERTEX
  8
0
 10
174.651
 20
47.3604
 30
0.0
 40
0.2
 41
0.2
  0
VERTEX
  8
0
 10
174.621
 20
47.414
 30
0.0
 40
0.2
 41
0.2
  0
VERTEX
  8
0
 10
174.567
 20
47.443
 30
0.0
 40
0.2
 41
0.2
  0
VERTEX
  8
0
 10
174.551
 20
47.443
 30
0.0
 40
0.2
 41
0.2
  0
SEQEND
 8
0
  0
POLYLINE
  8
0
 62
     0
 66
     1
 10
0
 20
0
 30
0.0
 40
0.566929
 41
0.566929
  0
VERTEX
  8
0
 10
174.551
 20
47.443
 30
0.0
 40
0.2
 41
0.2
  0
VERTEX
  8
0
 10
171.551
 20
47.443
 30
0.0
 40
0.2
 41
0.2
  0
VERTEX
  8
0
 10
171.567
 20
47.443
 30
0.0
 40
0.2
 41
0.2
  0
VERTEX
  8
0
 10
171.621
 20
47.414
 30
0.0
 40
0.2
 41
0.2
  0
VERTEX
  8
0
 10
171.651
 20
47.3604
 30
0.0
 40
0.2
 41
0.2
  0
VERTEX
  8
0
 10
171.651
 20
47.3424
 30
0.0
 40
0.2
 41
0.2
  0
SEQEND
 8
0
  0
POLYLINE
  8
0
 62
     0
 66
     1
 10
0
 20
0
 30
0.0
 40
0.566929
 41
0.566929
  0
VERTEX
  8
0
 10
171.651
 20
47.3424
 30
0.0
 40
0.2
 41
0.2
  0
VERTEX
  8
0
 10
171.651
 20
53.3425
 30
0.0
 40
0.2
 41
0.2
  0
SEQEND
 8
0
  0
POLYLINE
  8
0
 62
     0
 66
     1
 10
0
 20
0
 30
0.0
 40
0.566929
 41
0.566929
  0
VERTEX
  8
0
 10
171.651
 20
53.3425
 30
0.0
 40
0.2
 41
0.2
  0
VERTEX
  8
0
 10
171.651
 20
53.3259
 30
0.0
 40
0.2
 41
0.2
  0
VERTEX
  8
0
 10
171.621
 20
53.2723
 30
0.0
 40
0.2
 41
0.2
  0
VERTEX
  8
0
 10
171.567
 20
53.2419
 30
0.0
 40
0.2
 41
0.2
  0
VERTEX
  8
0
 10
171.551
 20
53.2419
 30
0.0
 40
0.2
 41
0.2
  0
SEQEND
 8
0
  0
POLYLINE
  8
0
 62
     0
 66
     1
 10
0
 20
0
 30
0.0
 40
0.566929
 41
0.566929
  0
VERTEX
  8
0
 10
171.551
 20
53.2419
 30
0.0
 40
0.2
 41
0.2
  0
VERTEX
  8
0
 10
174.551
 20
53.2419
 30
0.0
 40
0.2
 41
0.2
  0
VERTEX
  8
0
 10
174.567
 20
53.2419
 30
0.0
 40
0.2
 41
0.2
  0
VERTEX
  8
0
 10
174.621
 20
53.2723
 30
0.0
 40
0.2
 41
0.2
  0
VERTEX
  8
0
 10
174.651
 20
53.3259
 30
0.0
 40
0.2
 41
0.2
  0
VERTEX
  8
0
 10
174.651
 20
53.3425
 30
0.0
 40
0.2
 41
0.2
  0
SEQEND
 8
0
  0
POLYLINE
  8
0
 62
     0
 66
     1
 10
0
 20
0
 30
0.0
 40
0.566929
 41
0.566929
  0
VERTEX
  8
0
 10
174.651
 20
53.3425
 30
0.0
 40
0.2
 41
0.2
  0
VERTEX
  8
0
 10
174.651
 20
74.3423
 30
0.0
 40
0.2
 41
0.2
  0
VERTEX
  8
0
 10
174.651
 20
74.3603
 30
0.0
 40
0.2
 41
0.2
  0
VERTEX
  8
0
 10
174.621
 20
74.4142
 30
0.0
 40
0.2
 41
0.2
  0
VERTEX
  8
0
 10
174.567
 20
74.4432
 30
0.0
 40
0.2
 41
0.2
  0
VERTEX
  8
0
 10
174.551
 20
74.4432
 30
0.0
 40
0.2
 41
0.2
  0
SEQEND
 8
0
  0
POLYLINE
  8
0
 62
     0
 66
     1
 10
0
 20
0
 30
0.0
 40
0.566929
 41
0.566929
  0
VERTEX
  8
0
 10
174.551
 20
74.4432
 30
0.0
 40
0.2
 41
0.2
  0
VERTEX
  8
0
 10
171.551
 20
74.4432
 30
0.0
 40
0.2
 41
0.2
  0
VERTEX
  8
0
 10
171.567
 20
74.4432
 30
0.0
 40
0.2
 41
0.2
  0
VERTEX
  8
0
 10
171.621
 20
74.4142
 30
0.0
 40
0.2
 41
0.2
  0
VERTEX
  8
0
 10
171.651
 20
74.3603
 30
0.0
 40
0.2
 41
0.2
  0
VERTEX
  8
0
 10
171.651
 20
74.3423
 30
0.0
 40
0.2
 41
0.2
  0
SEQEND
 8
0
  0
POLYLINE
  8
0
 62
     0
 66
     1
 10
0
 20
0
 30
0.0
 40
0.566929
 41
0.566929
  0
VERTEX
  8
0
 10
171.651
 20
74.3423
 30
0.0
 40
0.2
 41
0.2
  0
VERTEX
  8
0
 10
171.651
 20
80.3423
 30
0.0
 40
0.2
 41
0.2
  0
SEQEND
 8
0
  0
POLYLINE
  8
0
 62
     0
 66
     1
 10
0
 20
0
 30
0.0
 40
0.566929
 41
0.566929
  0
VERTEX
  8
0
 10
171.651
 20
80.3423
 30
0.0
 40
0.2
 41
0.2
  0
VERTEX
  8
0
 10
171.651
 20
80.3257
 30
0.0
 40
0.2
 41
0.2
  0
VERTEX
  8
0
 10
171.621
 20
80.2721
 30
0.0
 40
0.2
 41
0.2
  0
VERTEX
  8
0
 10
171.567
 20
80.2418
 30
0.0
 40
0.2
 41
0.2
  0
VERTEX
  8
0
 10
171.551
 20
80.2418
 30
0.0
 40
0.2
 41
0.2
  0
SEQEND
 8
0
  0
POLYLINE
  8
0
 62
     0
 66
     1
 10
0
 20
0
 30
0.0
 40
0.566929
 41
0.566929
  0
VERTEX
  8
0
 10
171.551
 20
80.2418
 30
0.0
 40
0.2
 41
0.2
  0
VERTEX
  8
0
 10
174.551
 20
80.2418
 30
0.0
 40
0.2
 41
0.2
  0
VERTEX
  8
0
 10
174.567
 20
80.2418
 30
0.0
 40
0.2
 41
0.2
  0
VERTEX
  8
0
 10
174.621
 20
80.2721
 30
0.0
 40
0.2
 41
0.2
  0
VERTEX
  8
0
 10
174.651
 20
80.3257
 30
0.0
 40
0.2
 41
0.2
  0
VERTEX
  8
0
 10
174.651
 20
80.3423
 30
0.0
 40
0.2
 41
0.2
  0
SEQEND
 8
0
  0
POLYLINE
  8
0
 62
     0
 66
     1
 10
0
 20
0
 30
0.0
 40
0.566929
 41
0.566929
  0
VERTEX
  8
0
 10
174.651
 20
80.3423
 30
0.0
 40
0.2
 41
0.2
  0
VERTEX
  8
0
 10
174.651
 20
101.342
 30
0.0
 40
0.2
 41
0.2
  0
VERTEX
  8
0
 10
174.651
 20
101.36
 30
0.0
 40
0.2
 41
0.2
  0
VERTEX
  8
0
 10
174.621
 20
101.414
 30
0.0
 40
0.2
 41
0.2
  0
VERTEX
  8
0
 10
174.567
 20
101.443
 30
0.0
 40
0.2
 41
0.2
  0
VERTEX
  8
0
 10
174.551
 20
101.443
 30
0.0
 40
0.2
 41
0.2
  0
SEQEND
 8
0
  0
POLYLINE
  8
0
 62
     0
 66
     1
 10
0
 20
0
 30
0.0
 40
0.566929
 41
0.566929
  0
VERTEX
  8
0
 10
174.551
 20
101.443
 30
0.0
 40
0.2
 41
0.2
  0
VERTEX
  8
0
 10
171.551
 20
101.443
 30
0.0
 40
0.2
 41
0.2
  0
VERTEX
  8
0
 10
171.567
 20
101.443
 30
0.0
 40
0.2
 41
0.2
  0
VERTEX
  8
0
 10
171.621
 20
101.414
 30
0.0
 40
0.2
 41
0.2
  0
VERTEX
  8
0
 10
171.651
 20
101.36
 30
0.0
 40
0.2
 41
0.2
  0
VERTEX
  8
0
 10
171.651
 20
101.342
 30
0.0
 40
0.2
 41
0.2
  0
SEQEND
 8
0
  0
POLYLINE
  8
0
 62
     0
 66
     1
 10
0
 20
0
 30
0.0
 40
0.566929
 41
0.566929
  0
VERTEX
  8
0
 10
171.651
 20
101.342
 30
0.0
 40
0.2
 41
0.2
  0
VERTEX
  8
0
 10
171.651
 20
107.342
 30
0.0
 40
0.2
 41
0.2
  0
SEQEND
 8
0
  0
POLYLINE
  8
0
 62
     0
 66
     1
 10
0
 20
0
 30
0.0
 40
0.566929
 41
0.566929
  0
VERTEX
  8
0
 10
171.651
 20
107.342
 30
0.0
 40
0.2
 41
0.2
  0
VERTEX
  8
0
 10
171.651
 20
107.326
 30
0.0
 40
0.2
 41
0.2
  0
VERTEX
  8
0
 10
171.621
 20
107.272
 30
0.0
 40
0.2
 41
0.2
  0
VERTEX
  8
0
 10
171.567
 20
107.242
 30
0.0
 40
0.2
 41
0.2
  0
VERTEX
  8
0
 10
171.551
 20
107.242
 30
0.0
 40
0.2
 41
0.2
  0
SEQEND
 8
0
  0
POLYLINE
  8
0
 62
     0
 66
     1
 10
0
 20
0
 30
0.0
 40
0.566929
 41
0.566929
  0
VERTEX
  8
0
 10
171.551
 20
107.242
 30
0.0
 40
0.2
 41
0.2
  0
VERTEX
  8
0
 10
174.551
 20
107.242
 30
0.0
 40
0.2
 41
0.2
  0
VERTEX
  8
0
 10
174.567
 20
107.242
 30
0.0
 40
0.2
 41
0.2
  0
VERTEX
  8
0
 10
174.621
 20
107.272
 30
0.0
 40
0.2
 41
0.2
  0
VERTEX
  8
0
 10
174.651
 20
107.326
 30
0.0
 40
0.2
 41
0.2
  0
VERTEX
  8
0
 10
174.651
 20
107.342
 30
0.0
 40
0.2
 41
0.2
  0
SEQEND
 8
0
  0
POLYLINE
  8
0
 62
     0
 66
     1
 10
0
 20
0
 30
0.0
 40
0.566929
 41
0.566929
  0
VERTEX
  8
0
 10
174.651
 20
107.342
 30
0.0
 40
0.2
 41
0.2
  0
VERTEX
  8
0
 10
174.651
 20
128.342
 30
0.0
 40
0.2
 41
0.2
  0
VERTEX
  8
0
 10
174.651
 20
128.36
 30
0.0
 40
0.2
 41
0.2
  0
VERTEX
  8
0
 10
174.621
 20
128.414
 30
0.0
 40
0.2
 41
0.2
  0
VERTEX
  8
0
 10
174.567
 20
128.443
 30
0.0
 40
0.2
 41
0.2
  0
VERTEX
  8
0
 10
174.551
 20
128.443
 30
0.0
 40
0.2
 41
0.2
  0
SEQEND
 8
0
  0
POLYLINE
  8
0
 62
     0
 66
     1
 10
0
 20
0
 30
0.0
 40
0.566929
 41
0.566929
  0
VERTEX
  8
0
 10
174.551
 20
128.443
 30
0.0
 40
0.2
 41
0.2
  0
VERTEX
  8
0
 10
171.551
 20
128.443
 30
0.0
 40
0.2
 41
0.2
  0
VERTEX
  8
0
 10
171.567
 20
128.443
 30
0.0
 40
0.2
 41
0.2
  0
VERTEX
  8
0
 10
171.621
 20
128.414
 30
0.0
 40
0.2
 41
0.2
  0
VERTEX
  8
0
 10
171.651
 20
128.36
 30
0.0
 40
0.2
 41
0.2
  0
VERTEX
  8
0
 10
171.651
 20
128.342
 30
0.0
 40
0.2
 41
0.2
  0
SEQEND
 8
0
  0
POLYLINE
  8
0
 62
     0
 66
     1
 10
0
 20
0
 30
0.0
 40
0.566929
 41
0.566929
  0
VERTEX
  8
0
 10
171.651
 20
128.342
 30
0.0
 40
0.2
 41
0.2
  0
VERTEX
  8
0
 10
171.651
 20
134.342
 30
0.0
 40
0.2
 41
0.2
  0
SEQEND
 8
0
  0
POLYLINE
  8
0
 62
     0
 66
     1
 10
0
 20
0
 30
0.0
 40
0.566929
 41
0.566929
  0
VERTEX
  8
0
 10
171.651
 20
134.342
 30
0.0
 40
0.2
 41
0.2
  0
VERTEX
  8
0
 10
171.651
 20
134.326
 30
0.0
 40
0.2
 41
0.2
  0
VERTEX
  8
0
 10
171.621
 20
134.272
 30
0.0
 40
0.2
 41
0.2
  0
VERTEX
  8
0
 10
171.567
 20
134.241
 30
0.0
 40
0.2
 41
0.2
  0
VERTEX
  8
0
 10
171.551
 20
134.241
 30
0.0
 40
0.2
 41
0.2
  0
SEQEND
 8
0
  0
POLYLINE
  8
0
 62
     0
 66
     1
 10
0
 20
0
 30
0.0
 40
0.566929
 41
0.566929
  0
VERTEX
  8
0
 10
171.551
 20
134.241
 30
0.0
 40
0.2
 41
0.2
  0
VERTEX
  8
0
 10
174.551
 20
134.241
 30
0.0
 40
0.2
 41
0.2
  0
VERTEX
  8
0
 10
174.567
 20
134.241
 30
0.0
 40
0.2
 41
0.2
  0
VERTEX
  8
0
 10
174.621
 20
134.272
 30
0.0
 40
0.2
 41
0.2
  0
VERTEX
  8
0
 10
174.651
 20
134.326
 30
0.0
 40
0.2
 41
0.2
  0
VERTEX
  8
0
 10
174.651
 20
134.342
 30
0.0
 40
0.2
 41
0.2
  0
SEQEND
 8
0
  0
POLYLINE
  8
0
 62
     0
 66
     1
 10
0
 20
0
 30
0.0
 40
0.566929
 41
0.566929
  0
VERTEX
  8
0
 10
174.651
 20
134.342
 30
0.0
 40
0.2
 41
0.2
  0
VERTEX
  8
0
 10
174.651
 20
155.342
 30
0.0
 40
0.2
 41
0.2
  0
VERTEX
  8
0
 10
174.651
 20
155.36
 30
0.0
 40
0.2
 41
0.2
  0
VERTEX
  8
0
 10
174.621
 20
155.414
 30
0.0
 40
0.2
 41
0.2
  0
VERTEX
  8
0
 10
174.567
 20
155.443
 30
0.0
 40
0.2
 41
0.2
  0
VERTEX
  8
0
 10
174.551
 20
155.443
 30
0.0
 40
0.2
 41
0.2
  0
SEQEND
 8
0
  0
POLYLINE
  8
0
 62
     0
 66
     1
 10
0
 20
0
 30
0.0
 40
0.566929
 41
0.566929
  0
VERTEX
  8
0
 10
174.551
 20
155.443
 30
0.0
 40
0.2
 41
0.2
  0
VERTEX
  8
0
 10
171.551
 20
155.443
 30
0.0
 40
0.2
 41
0.2
  0
VERTEX
  8
0
 10
171.567
 20
155.443
 30
0.0
 40
0.2
 41
0.2
  0
VERTEX
  8
0
 10
171.621
 20
155.414
 30
0.0
 40
0.2
 41
0.2
  0
VERTEX
  8
0
 10
171.651
 20
155.36
 30
0.0
 40
0.2
 41
0.2
  0
VERTEX
  8
0
 10
171.651
 20
155.342
 30
0.0
 40
0.2
 41
0.2
  0
SEQEND
 8
0
  0
POLYLINE
  8
0
 62
     0
 66
     1
 10
0
 20
0
 30
0.0
 40
0.566929
 41
0.566929
  0
VERTEX
  8
0
 10
171.651
 20
155.342
 30
0.0
 40
0.2
 41
0.2
  0
VERTEX
  8
0
 10
171.651
 20
165.843
 30
0.0
 40
0.2
 41
0.2
  0
SEQEND
 8
0
  0
POLYLINE
  8
0
 62
     0
 66
     1
 10
0
 20
0
 30
0.0
 40
0.566929
 41
0.566929
  0
VERTEX
  8
0
 10
171.651
 20
165.843
 30
0.0
 40
0.2
 41
0.2
  0
VERTEX
  8
0
 10
171.651
 20
168.843
 30
0.0
 40
0.2
 41
0.2
  0
VERTEX
  8
0
 10
171.651
 20
168.861
 30
0.0
 40
0.2
 41
0.2
  0
VERTEX
  8
0
 10
171.621
 20
168.915
 30
0.0
 40
0.2
 41
0.2
  0
VERTEX
  8
0
 10
171.567
 20
168.944
 30
0.0
 40
0.2
 41
0.2
  0
VERTEX
  8
0
 10
171.551
 20
168.944
 30
0.0
 40
0.2
 41
0.2
  0
SEQEND
 8
0
  0
POLYLINE
  8
0
 62
     0
 66
     1
 10
0
 20
0
 30
0.0
 40
0.566929
 41
0.566929
  0
VERTEX
  8
0
 10
171.551
 20
168.944
 30
0.0
 40
0.2
 41
0.2
  0
VERTEX
  8
0
 10
155.55
 20
168.944
 30
0.0
 40
0.2
 41
0.2
  0
SEQEND
 8
0
  0
POLYLINE
  8
0
 62
     0
 66
     1
 10
0
 20
0
 30
0.0
 40
0.566929
 41
0.566929
  0
VERTEX
  8
0
 10
155.55
 20
168.944
 30
0.0
 40
0.2
 41
0.2
  0
VERTEX
  8
0
 10
155.532
 20
168.944
 30
0.0
 40
0.2
 41
0.2
  0
VERTEX
  8
0
 10
155.479
 20
168.915
 30
0.0
 40
0.2
 41
0.2
  0
VERTEX
  8
0
 10
155.45
 20
168.861
 30
0.0
 40
0.2
 41
0.2
  0
VERTEX
  8
0
 10
155.45
 20
168.843
 30
0.0
 40
0.2
 41
0.2
  0
SEQEND
 8
0
  0
POLYLINE
  8
0
 62
     0
 66
     1
 10
0
 20
0
 30
0.0
 40
0.566929
 41
0.566929
  0
VERTEX
  8
0
 10
155.45
 20
168.843
 30
0.0
 40
0.2
 41
0.2
  0
VERTEX
  8
0
 10
155.45
 20
165.843
 30
0.0
 40
0.2
 41
0.2
  0
VERTEX
  8
0
 10
155.45
 20
165.861
 30
0.0
 40
0.2
 41
0.2
  0
VERTEX
  8
0
 10
155.479
 20
165.915
 30
0.0
 40
0.2
 41
0.2
  0
VERTEX
  8
0
 10
155.532
 20
165.943
 30
0.0
 40
0.2
 41
0.2
  0
VERTEX
  8
0
 10
155.55
 20
165.943
 30
0.0
 40
0.2
 41
0.2
  0
SEQEND
 8
0
  0
POLYLINE
  8
0
 62
     0
 66
     1
 10
0
 20
0
 30
0.0
 40
0.566929
 41
0.566929
  0
VERTEX
  8
0
 10
155.55
 20
165.943
 30
0.0
 40
0.2
 41
0.2
  0
VERTEX
  8
0
 10
134.55
 20
165.943
 30
0.0
 40
0.2
 41
0.2
  0
VERTEX
  8
0
 10
134.567
 20
165.943
 30
0.0
 40
0.2
 41
0.2
  0
VERTEX
  8
0
 10
134.621
 20
165.915
 30
0.0
 40
0.2
 41
0.2
  0
VERTEX
  8
0
 10
134.651
 20
165.861
 30
0.0
 40
0.2
 41
0.2
  0
VERTEX
  8
0
 10
134.651
 20
165.843
 30
0.0
 40
0.2
 41
0.2
  0
SEQEND
 8
0
  0
POLYLINE
  8
0
 62
     0
 66
     1
 10
0
 20
0
 30
0.0
 40
0.566929
 41
0.566929
  0
VERTEX
  8
0
 10
134.651
 20
165.843
 30
0.0
 40
0.2
 41
0.2
  0
VERTEX
  8
0
 10
134.651
 20
168.843
 30
0.0
 40
0.2
 41
0.2
  0
VERTEX
  8
0
 10
134.651
 20
168.861
 30
0.0
 40
0.2
 41
0.2
  0
VERTEX
  8
0
 10
134.621
 20
168.915
 30
0.0
 40
0.2
 41
0.2
  0
VERTEX
  8
0
 10
134.567
 20
168.944
 30
0.0
 40
0.2
 41
0.2
  0
VERTEX
  8
0
 10
134.55
 20
168.944
 30
0.0
 40
0.2
 41
0.2
  0
SEQEND
 8
0
  0
POLYLINE
  8
0
 62
     0
 66
     1
 10
0
 20
0
 30
0.0
 40
0.566929
 41
0.566929
  0
VERTEX
  8
0
 10
134.55
 20
168.944
 30
0.0
 40
0.2
 41
0.2
  0
VERTEX
  8
0
 10
128.55
 20
168.944
 30
0.0
 40
0.2
 41
0.2
  0
SEQEND
 8
0
  0
POLYLINE
  8
0
 62
     0
 66
     1
 10
0
 20
0
 30
0.0
 40
0.566929
 41
0.566929
  0
VERTEX
  8
0
 10
128.55
 20
168.944
 30
0.0
 40
0.2
 41
0.2
  0
VERTEX
  8
0
 10
128.532
 20
168.944
 30
0.0
 40
0.2
 41
0.2
  0
VERTEX
  8
0
 10
128.478
 20
168.915
 30
0.0
 40
0.2
 41
0.2
  0
VERTEX
  8
0
 10
128.45
 20
168.861
 30
0.0
 40
0.2
 41
0.2
  0
VERTEX
  8
0
 10
128.45
 20
168.843
 30
0.0
 40
0.2
 41
0.2
  0
SEQEND
 8
0
  0
POLYLINE
  8
0
 62
     0
 66
     1
 10
0
 20
0
 30
0.0
 40
0.566929
 41
0.566929
  0
VERTEX
  8
0
 10
128.45
 20
168.843
 30
0.0
 40
0.2
 41
0.2
  0
VERTEX
  8
0
 10
128.45
 20
165.843
 30
0.0
 40
0.2
 41
0.2
  0
VERTEX
  8
0
 10
128.45
 20
165.861
 30
0.0
 40
0.2
 41
0.2
  0
VERTEX
  8
0
 10
128.478
 20
165.915
 30
0.0
 40
0.2
 41
0.2
  0
VERTEX
  8
0
 10
128.532
 20
165.943
 30
0.0
 40
0.2
 41
0.2
  0
VERTEX
  8
0
 10
128.55
 20
165.943
 30
0.0
 40
0.2
 41
0.2
  0
SEQEND
 8
0
  0
POLYLINE
  8
0
 62
     0
 66
     1
 10
0
 20
0
 30
0.0
 40
0.566929
 41
0.566929
  0
VERTEX
  8
0
 10
128.55
 20
165.943
 30
0.0
 40
0.2
 41
0.2
  0
VERTEX
  8
0
 10
107.55
 20
165.943
 30
0.0
 40
0.2
 41
0.2
  0
VERTEX
  8
0
 10
107.567
 20
165.943
 30
0.0
 40
0.2
 41
0.2
  0
VERTEX
  8
0
 10
107.621
 20
165.915
 30
0.0
 40
0.2
 41
0.2
  0
VERTEX
  8
0
 10
107.651
 20
165.861
 30
0.0
 40
0.2
 41
0.2
  0
VERTEX
  8
0
 10
107.651
 20
165.843
 30
0.0
 40
0.2
 41
0.2
  0
SEQEND
 8
0
  0
POLYLINE
  8
0
 62
     0
 66
     1
 10
0
 20
0
 30
0.0
 40
0.566929
 41
0.566929
  0
VERTEX
  8
0
 10
107.651
 20
165.843
 30
0.0
 40
0.2
 41
0.2
  0
VERTEX
  8
0
 10
107.651
 20
168.843
 30
0.0
 40
0.2
 41
0.2
  0
VERTEX
  8
0
 10
107.651
 20
168.861
 30
0.0
 40
0.2
 41
0.2
  0
VERTEX
  8
0
 10
107.621
 20
168.915
 30
0.0
 40
0.2
 41
0.2
  0
VERTEX
  8
0
 10
107.567
 20
168.944
 30
0.0
 40
0.2
 41
0.2
  0
VERTEX
  8
0
 10
107.55
 20
168.944
 30
0.0
 40
0.2
 41
0.2
  0
SEQEND
 8
0
  0
POLYLINE
  8
0
 62
     0
 66
     1
 10
0
 20
0
 30
0.0
 40
0.566929
 41
0.566929
  0
VERTEX
  8
0
 10
107.55
 20
168.944
 30
0.0
 40
0.2
 41
0.2
  0
VERTEX
  8
0
 10
91.5501
 20
168.944
 30
0.0
 40
0.2
 41
0.2
  0
SEQEND
 8
0
  0
POLYLINE
  8
0
 62
     0
 66
     1
 10
0
 20
0
 30
0.0
 40
0.566929
 41
0.566929
  0
VERTEX
  8
0
 10
91.5501
 20
168.944
 30
0.0
 40
0.2
 41
0.2
  0
VERTEX
  8
0
 10
91.5321
 20
168.944
 30
0.0
 40
0.2
 41
0.2
  0
VERTEX
  8
0
 10
91.4784
 20
168.915
 30
0.0
 40
0.2
 41
0.2
  0
VERTEX
  8
0
 10
91.4495
 20
168.861
 30
0.0
 40
0.2
 41
0.2
  0
VERTEX
  8
0
 10
91.4495
 20
168.843
 30
0.0
 40
0.2
 41
0.2
  0
SEQEND
 8
0
  0
POLYLINE
  8
0
 62
     0
 66
     1
 10
0
 20
0
 30
0.0
 40
0.566929
 41
0.566929
  0
VERTEX
  8
0
 10
91.4495
 20
168.843
 30
0.0
 40
0.2
 41
0.2
  0
VERTEX
  8
0
 10
91.4495
 20
165.843
 30
0.0
 40
0.2
 41
0.2
  0
SEQEND
 8
0
  0
POLYLINE
  8
0
 62
     0
 66
     1
 10
0
 20
0
 30
0.0
 40
0.566929
 41
0.566929
  0
VERTEX
  8
0
 10
91.4495
 20
165.843
 30
0.0
 40
0.2
 41
0.2
  0
VERTEX
  8
0
 10
91.4495
 20
155.342
 30
0.0
 40
0.2
 41
0.2
  0
SEQEND
 8
0
  0
POLYLINE
  8
0
 62
     0
 66
     1
 10
0
 20
0
 30
0.0
 40
0.566929
 41
0.566929
  0
VERTEX
  8
0
 10
91.4495
 20
155.342
 30
0.0
 40
0.2
 41
0.2
  0
VERTEX
  8
0
 10
91.4495
 20
155.36
 30
0.0
 40
0.2
 41
0.2
  0
VERTEX
  8
0
 10
91.4784
 20
155.414
 30
0.0
 40
0.2
 41
0.2
  0
VERTEX
  8
0
 10
91.5321
 20
155.443
 30
0.0
 40
0.2
 41
0.2
  0
VERTEX
  8
0
 10
91.5501
 20
155.443
 30
0.0
 40
0.2
 41
0.2
  0
SEQEND
 8
0
  0
POLYLINE
  8
0
 62
     0
 66
     1
 10
0
 20
0
 30
0.0
 40
0.566929
 41
0.566929
  0
VERTEX
  8
0
 10
91.5501
 20
155.443
 30
0.0
 40
0.2
 41
0.2
  0
VERTEX
  8
0
 10
88.55
 20
155.443
 30
0.0
 40
0.2
 41
0.2
  0
VERTEX
  8
0
 10
88.5321
 20
155.443
 30
0.0
 40
0.2
 41
0.2
  0
VERTEX
  8
0
 10
88.4784
 20
155.414
 30
0.0
 40
0.2
 41
0.2
  0
VERTEX
  8
0
 10
88.4495
 20
155.36
 30
0.0
 40
0.2
 41
0.2
  0
VERTEX
  8
0
 10
88.4495
 20
155.342
 30
0.0
 40
0.2
 41
0.2
  0
SEQEND
 8
0
  0
POLYLINE
  8
0
 62
     0
 66
     1
 10
0
 20
0
 30
0.0
 40
0.566929
 41
0.566929
  0
VERTEX
  8
0
 10
88.4495
 20
155.342
 30
0.0
 40
0.2
 41
0.2
  0
VERTEX
  8
0
 10
88.4495
 20
134.342
 30
0.0
 40
0.2
 41
0.2
  0
VERTEX
  8
0
 10
88.4495
 20
134.326
 30
0.0
 40
0.2
 41
0.2
  0
VERTEX
  8
0
 10
88.4784
 20
134.272
 30
0.0
 40
0.2
 41
0.2
  0
VERTEX
  8
0
 10
88.5321
 20
134.241
 30
0.0
 40
0.2
 41
0.2
  0
VERTEX
  8
0
 10
88.55
 20
134.241
 30
0.0
 40
0.2
 41
0.2
  0
SEQEND
 8
0
  0
POLYLINE
  8
0
 62
     0
 66
     1
 10
0
 20
0
 30
0.0
 40
0.566929
 41
0.566929
  0
VERTEX
  8
0
 10
88.55
 20
134.241
 30
0.0
 40
0.2
 41
0.2
  0
VERTEX
  8
0
 10
91.5501
 20
134.241
 30
0.0
 40
0.2
 41
0.2
  0
VERTEX
  8
0
 10
91.5321
 20
134.241
 30
0.0
 40
0.2
 41
0.2
  0
VERTEX
  8
0
 10
91.4784
 20
134.272
 30
0.0
 40
0.2
 41
0.2
  0
VERTEX
  8
0
 10
91.4495
 20
134.326
 30
0.0
 40
0.2
 41
0.2
  0
VERTEX
  8
0
 10
91.4495
 20
134.342
 30
0.0
 40
0.2
 41
0.2
  0
SEQEND
 8
0
  0
POLYLINE
  8
0
 62
     0
 66
     1
 10
0
 20
0
 30
0.0
 40
0.566929
 41
0.566929
  0
VERTEX
  8
0
 10
91.4495
 20
134.342
 30
0.0
 40
0.2
 41
0.2
  0
VERTEX
  8
0
 10
91.4495
 20
128.342
 30
0.0
 40
0.2
 41
0.2
  0
SEQEND
 8
0
  0
POLYLINE
  8
0
 62
     0
 66
     1
 10
0
 20
0
 30
0.0
 40
0.566929
 41
0.566929
  0
VERTEX
  8
0
 10
91.4495
 20
128.342
 30
0.0
 40
0.2
 41
0.2
  0
VERTEX
  8
0
 10
91.4495
 20
128.36
 30
0.0
 40
0.2
 41
0.2
  0
VERTEX
  8
0
 10
91.4784
 20
128.414
 30
0.0
 40
0.2
 41
0.2
  0
VERTEX
  8
0
 10
91.5321
 20
128.443
 30
0.0
 40
0.2
 41
0.2
  0
VERTEX
  8
0
 10
91.5501
 20
128.443
 30
0.0
 40
0.2
 41
0.2
  0
SEQEND
 8
0
  0
POLYLINE
  8
0
 62
     0
 66
     1
 10
0
 20
0
 30
0.0
 40
0.566929
 41
0.566929
  0
VERTEX
  8
0
 10
91.5501
 20
128.443
 30
0.0
 40
0.2
 41
0.2
  0
VERTEX
  8
0
 10
88.55
 20
128.443
 30
0.0
 40
0.2
 41
0.2
  0
VERTEX
  8
0
 10
88.5321
 20
128.443
 30
0.0
 40
0.2
 41
0.2
  0
VERTEX
  8
0
 10
88.4784
 20
128.414
 30
0.0
 40
0.2
 41
0.2
  0
VERTEX
  8
0
 10
88.4495
 20
128.36
 30
0.0
 40
0.2
 41
0.2
  0
VERTEX
  8
0
 10
88.4495
 20
128.342
 30
0.0
 40
0.2
 41
0.2
  0
SEQEND
 8
0
  0
POLYLINE
  8
0
 62
     0
 66
     1
 10
0
 20
0
 30
0.0
 40
0.566929
 41
0.566929
  0
VERTEX
  8
0
 10
88.4495
 20
128.342
 30
0.0
 40
0.2
 41
0.2
  0
VERTEX
  8
0
 10
88.4495
 20
107.342
 30
0.0
 40
0.2
 41
0.2
  0
VERTEX
  8
0
 10
88.4495
 20
107.326
 30
0.0
 40
0.2
 41
0.2
  0
VERTEX
  8
0
 10
88.4784
 20
107.272
 30
0.0
 40
0.2
 41
0.2
  0
VERTEX
  8
0
 10
88.5321
 20
107.242
 30
0.0
 40
0.2
 41
0.2
  0
VERTEX
  8
0
 10
88.55
 20
107.242
 30
0.0
 40
0.2
 41
0.2
  0
SEQEND
 8
0
  0
POLYLINE
  8
0
 62
     0
 66
     1
 10
0
 20
0
 30
0.0
 40
0.566929
 41
0.566929
  0
VERTEX
  8
0
 10
88.55
 20
107.242
 30
0.0
 40
0.2
 41
0.2
  0
VERTEX
  8
0
 10
91.5501
 20
107.242
 30
0.0
 40
0.2
 41
0.2
  0
VERTEX
  8
0
 10
91.5321
 20
107.242
 30
0.0
 40
0.2
 41
0.2
  0
VERTEX
  8
0
 10
91.4784
 20
107.272
 30
0.0
 40
0.2
 41
0.2
  0
VERTEX
  8
0
 10
91.4495
 20
107.326
 30
0.0
 40
0.2
 41
0.2
  0
VERTEX
  8
0
 10
91.4495
 20
107.342
 30
0.0
 40
0.2
 41
0.2
  0
SEQEND
 8
0
  0
POLYLINE
  8
0
 62
     0
 66
     1
 10
0
 20
0
 30
0.0
 40
0.566929
 41
0.566929
  0
VERTEX
  8
0
 10
91.4495
 20
107.342
 30
0.0
 40
0.2
 41
0.2
  0
VERTEX
  8
0
 10
91.4495
 20
101.342
 30
0.0
 40
0.2
 41
0.2
  0
SEQEND
 8
0
  0
POLYLINE
  8
0
 62
     0
 66
     1
 10
0
 20
0
 30
0.0
 40
0.566929
 41
0.566929
  0
VERTEX
  8
0
 10
91.4495
 20
101.342
 30
0.0
 40
0.2
 41
0.2
  0
VERTEX
  8
0
 10
91.4495
 20
101.36
 30
0.0
 40
0.2
 41
0.2
  0
VERTEX
  8
0
 10
91.4784
 20
101.414
 30
0.0
 40
0.2
 41
0.2
  0
VERTEX
  8
0
 10
91.5321
 20
101.443
 30
0.0
 40
0.2
 41
0.2
  0
VERTEX
  8
0
 10
91.5501
 20
101.443
 30
0.0
 40
0.2
 41
0.2
  0
SEQEND
 8
0
  0
POLYLINE
  8
0
 62
     0
 66
     1
 10
0
 20
0
 30
0.0
 40
0.566929
 41
0.566929
  0
VERTEX
  8
0
 10
91.5501
 20
101.443
 30
0.0
 40
0.2
 41
0.2
  0
VERTEX
  8
0
 10
88.55
 20
101.443
 30
0.0
 40
0.2
 41
0.2
  0
VERTEX
  8
0
 10
88.5321
 20
101.443
 30
0.0
 40
0.2
 41
0.2
  0
VERTEX
  8
0
 10
88.4784
 20
101.414
 30
0.0
 40
0.2
 41
0.2
  0
VERTEX
  8
0
 10
88.4495
 20
101.36
 30
0.0
 40
0.2
 41
0.2
  0
VERTEX
  8
0
 10
88.4495
 20
101.342
 30
0.0
 40
0.2
 41
0.2
  0
SEQEND
 8
0
  0
POLYLINE
  8
0
 62
     0
 66
     1
 10
0
 20
0
 30
0.0
 40
0.566929
 41
0.566929
  0
VERTEX
  8
0
 10
88.4495
 20
101.342
 30
0.0
 40
0.2
 41
0.2
  0
VERTEX
  8
0
 10
88.4495
 20
80.3423
 30
0.0
 40
0.2
 41
0.2
  0
VERTEX
  8
0
 10
88.4495
 20
80.3257
 30
0.0
 40
0.2
 41
0.2
  0
VERTEX
  8
0
 10
88.4784
 20
80.2721
 30
0.0
 40
0.2
 41
0.2
  0
VERTEX
  8
0
 10
88.5321
 20
80.2418
 30
0.0
 40
0.2
 41
0.2
  0
VERTEX
  8
0
 10
88.55
 20
80.2418
 30
0.0
 40
0.2
 41
0.2
  0
SEQEND
 8
0
  0
POLYLINE
  8
0
 62
     0
 66
     1
 10
0
 20
0
 30
0.0
 40
0.566929
 41
0.566929
  0
VERTEX
  8
0
 10
88.55
 20
80.2418
 30
0.0
 40
0.2
 41
0.2
  0
VERTEX
  8
0
 10
91.5501
 20
80.2418
 30
0.0
 40
0.2
 41
0.2
  0
VERTEX
  8
0
 10
91.5321
 20
80.2418
 30
0.0
 40
0.2
 41
0.2
  0
VERTEX
  8
0
 10
91.4784
 20
80.2721
 30
0.0
 40
0.2
 41
0.2
  0
VERTEX
  8
0
 10
91.4495
 20
80.3257
 30
0.0
 40
0.2
 41
0.2
  0
VERTEX
  8
0
 10
91.4495
 20
80.3423
 30
0.0
 40
0.2
 41
0.2
  0
SEQEND
 8
0
  0
POLYLINE
  8
0
 62
     0
 66
     1
 10
0
 20
0
 30
0.0
 40
0.566929
 41
0.566929
  0
VERTEX
  8
0
 10
91.4495
 20
80.3423
 30
0.0
 40
0.2
 41
0.2
  0
VERTEX
  8
0
 10
91.4495
 20
74.3423
 30
0.0
 40
0.2
 41
0.2
  0
SEQEND
 8
0
  0
POLYLINE
  8
0
 62
     0
 66
     1
 10
0
 20
0
 30
0.0
 40
0.566929
 41
0.566929
  0
VERTEX
  8
0
 10
91.4495
 20
74.3423
 30
0.0
 40
0.2
 41
0.2
  0
VERTEX
  8
0
 10
91.4495
 20
74.3603
 30
0.0
 40
0.2
 41
0.2
  0
VERTEX
  8
0
 10
91.4784
 20
74.4142
 30
0.0
 40
0.2
 41
0.2
  0
VERTEX
  8
0
 10
91.5321
 20
74.4432
 30
0.0
 40
0.2
 41
0.2
  0
VERTEX
  8
0
 10
91.5501
 20
74.4432
 30
0.0
 40
0.2
 41
0.2
  0
SEQEND
 8
0
  0
POLYLINE
  8
0
 62
     0
 66
     1
 10
0
 20
0
 30
0.0
 40
0.566929
 41
0.566929
  0
VERTEX
  8
0
 10
91.5501
 20
74.4432
 30
0.0
 40
0.2
 41
0.2
  0
VERTEX
  8
0
 10
88.55
 20
74.4432
 30
0.0
 40
0.2
 41
0.2
  0
VERTEX
  8
0
 10
88.5321
 20
74.4432
 30
0.0
 40
0.2
 41
0.2
  0
VERTEX
  8
0
 10
88.4784
 20
74.4142
 30
0.0
 40
0.2
 41
0.2
  0
VERTEX
  8
0
 10
88.4495
 20
74.3603
 30
0.0
 40
0.2
 41
0.2
  0
VERTEX
  8
0
 10
88.4495
 20
74.3423
 30
0.0
 40
0.2
 41
0.2
  0
SEQEND
 8
0
  0
POLYLINE
  8
0
 62
     0
 66
     1
 10
0
 20
0
 30
0.0
 40
0.566929
 41
0.566929
  0
VERTEX
  8
0
 10
88.4495
 20
74.3423
 30
0.0
 40
0.2
 41
0.2
  0
VERTEX
  8
0
 10
88.4495
 20
53.3425
 30
0.0
 40
0.2
 41
0.2
  0
VERTEX
  8
0
 10
88.4495
 20
53.3259
 30
0.0
 40
0.2
 41
0.2
  0
VERTEX
  8
0
 10
88.4784
 20
53.2723
 30
0.0
 40
0.2
 41
0.2
  0
VERTEX
  8
0
 10
88.5321
 20
53.2419
 30
0.0
 40
0.2
 41
0.2
  0
VERTEX
  8
0
 10
88.55
 20
53.2419
 30
0.0
 40
0.2
 41
0.2
  0
SEQEND
 8
0
  0
POLYLINE
  8
0
 62
     0
 66
     1
 10
0
 20
0
 30
0.0
 40
0.566929
 41
0.566929
  0
VERTEX
  8
0
 10
88.55
 20
53.2419
 30
0.0
 40
0.2
 41
0.2
  0
VERTEX
  8
0
 10
91.5501
 20
53.2419
 30
0.0
 40
0.2
 41
0.2
  0
VERTEX
  8
0
 10
91.5321
 20
53.2419
 30
0.0
 40
0.2
 41
0.2
  0
VERTEX
  8
0
 10
91.4784
 20
53.2723
 30
0.0
 40
0.2
 41
0.2
  0
VERTEX
  8
0
 10
91.4495
 20
53.3259
 30
0.0
 40
0.2
 41
0.2
  0
VERTEX
  8
0
 10
91.4495
 20
53.3425
 30
0.0
 40
0.2
 41
0.2
  0
SEQEND
 8
0
  0
POLYLINE
  8
0
 62
     0
 66
     1
 10
0
 20
0
 30
0.0
 40
0.566929
 41
0.566929
  0
VERTEX
  8
0
 10
91.4495
 20
53.3425
 30
0.0
 40
0.2
 41
0.2
  0
VERTEX
  8
0
 10
91.4495
 20
47.3424
 30
0.0
 40
0.2
 41
0.2
  0
SEQEND
 8
0
  0
POLYLINE
  8
0
 62
     0
 66
     1
 10
0
 20
0
 30
0.0
 40
0.566929
 41
0.566929
  0
VERTEX
  8
0
 10
91.4495
 20
47.3424
 30
0.0
 40
0.2
 41
0.2
  0
VERTEX
  8
0
 10
91.4495
 20
47.3604
 30
0.0
 40
0.2
 41
0.2
  0
VERTEX
  8
0
 10
91.4784
 20
47.414
 30
0.0
 40
0.2
 41
0.2
  0
VERTEX
  8
0
 10
91.5321
 20
47.443
 30
0.0
 40
0.2
 41
0.2
  0
VERTEX
  8
0
 10
91.5501
 20
47.443
 30
0.0
 40
0.2
 41
0.2
  0
SEQEND
 8
0
  0
POLYLINE
  8
0
 62
     0
 66
     1
 10
0
 20
0
 30
0.0
 40
0.566929
 41
0.566929
  0
VERTEX
  8
0
 10
91.5501
 20
47.443
 30
0.0
 40
0.2
 41
0.2
  0
VERTEX
  8
0
 10
88.55
 20
47.443
 30
0.0
 40
0.2
 41
0.2
  0
VERTEX
  8
0
 10
88.5321
 20
47.443
 30
0.0
 40
0.2
 41
0.2
  0
VERTEX
  8
0
 10
88.4784
 20
47.414
 30
0.0
 40
0.2
 41
0.2
  0
VERTEX
  8
0
 10
88.4495
 20
47.3604
 30
0.0
 40
0.2
 41
0.2
  0
VERTEX
  8
0
 10
88.4495
 20
47.3424
 30
0.0
 40
0.2
 41
0.2
  0
SEQEND
 8
0
  0
POLYLINE
  8
0
 62
     0
 66
     1
 10
0
 20
0
 30
0.0
 40
0.566929
 41
0.566929
  0
VERTEX
  8
0
 10
88.4495
 20
47.3424
 30
0.0
 40
0.2
 41
0.2
  0
VERTEX
  8
0
 10
88.4495
 20
26.3426
 30
0.0
 40
0.2
 41
0.2
  0
VERTEX
  8
0
 10
88.4495
 20
26.326
 30
0.0
 40
0.2
 41
0.2
  0
VERTEX
  8
0
 10
88.4784
 20
26.2723
 30
0.0
 40
0.2
 41
0.2
  0
VERTEX
  8
0
 10
88.5321
 20
26.242
 30
0.0
 40
0.2
 41
0.2
  0
VERTEX
  8
0
 10
88.55
 20
26.242
 30
0.0
 40
0.2
 41
0.2
  0
SEQEND
 8
0
  0
POLYLINE
  8
0
 62
     0
 66
     1
 10
0
 20
0
 30
0.0
 40
0.566929
 41
0.566929
  0
VERTEX
  8
0
 10
88.55
 20
26.242
 30
0.0
 40
0.2
 41
0.2
  0
VERTEX
  8
0
 10
91.5501
 20
26.242
 30
0.0
 40
0.2
 41
0.2
  0
VERTEX
  8
0
 10
91.5321
 20
26.242
 30
0.0
 40
0.2
 41
0.2
  0
VERTEX
  8
0
 10
91.4784
 20
26.2723
 30
0.0
 40
0.2
 41
0.2
  0
VERTEX
  8
0
 10
91.4495
 20
26.326
 30
0.0
 40
0.2
 41
0.2
  0
VERTEX
  8
0
 10
91.4495
 20
26.3426
 30
0.0
 40
0.2
 41
0.2
  0
SEQEND
 8
0
  0
POLYLINE
  8
0
 62
     0
 66
     1
 10
0
 20
0
 30
0.0
 40
0.566929
 41
0.566929
  0
VERTEX
  8
0
 10
91.4495
 20
26.3426
 30
0.0
 40
0.2
 41
0.2
  0
VERTEX
  8
0
 10
91.4495
 20
15.8419
 30
0.0
 40
0.2
 41
0.2
  0
SEQEND
 8
0
  0
POLYLINE
  8
0
 62
     0
 66
     1
 10
0
 20
0
 30
0.0
 40
0.566929
 41
0.566929
  0
VERTEX
  8
0
 10
91.4495
 20
15.8419
 30
0.0
 40
0.2
 41
0.2
  0
VERTEX
  8
0
 10
91.4495
 20
12.8419
 30
0.0
 40
0.2
 41
0.2
  0
VERTEX
  8
0
 10
91.4495
 20
12.8254
 30
0.0
 40
0.2
 41
0.2
  0
VERTEX
  8
0
 10
91.4784
 20
12.7716
 30
0.0
 40
0.2
 41
0.2
  0
VERTEX
  8
0
 10
91.5321
 20
12.7413
 30
0.0
 40
0.2
 41
0.2
  0
VERTEX
  8
0
 10
91.5501
 20
12.7413
 30
0.0
 40
0.2
 41
0.2
  0
SEQEND
 8
0
  0
POLYLINE
  8
0
 62
     0
 66
     1
 10
0
 20
0
 30
0.0
 40
0.566929
 41
0.566929
  0
VERTEX
  8
0
 10
91.5501
 20
170.441
 30
0.0
 40
0.2
 41
0.2
  0
VERTEX
  8
0
 10
107.55
 20
170.441
 30
0.0
 40
0.2
 41
0.2
  0
SEQEND
 8
0
  0
POLYLINE
  8
0
 62
     0
 66
     1
 10
0
 20
0
 30
0.0
 40
0.566929
 41
0.566929
  0
VERTEX
  8
0
 10
107.55
 20
170.441
 30
0.0
 40
0.2
 41
0.2
  0
VERTEX
  8
0
 10
107.567
 20
170.441
 30
0.0
 40
0.2
 41
0.2
  0
VERTEX
  8
0
 10
107.621
 20
170.472
 30
0.0
 40
0.2
 41
0.2
  0
VERTEX
  8
0
 10
107.651
 20
170.525
 30
0.0
 40
0.2
 41
0.2
  0
VERTEX
  8
0
 10
107.651
 20
170.542
 30
0.0
 40
0.2
 41
0.2
  0
SEQEND
 8
0
  0
POLYLINE
  8
0
 62
     0
 66
     1
 10
0
 20
0
 30
0.0
 40
0.566929
 41
0.566929
  0
VERTEX
  8
0
 10
107.651
 20
170.542
 30
0.0
 40
0.2
 41
0.2
  0
VERTEX
  8
0
 10
107.651
 20
173.542
 30
0.0
 40
0.2
 41
0.2
  0
VERTEX
  8
0
 10
107.651
 20
173.525
 30
0.0
 40
0.2
 41
0.2
  0
VERTEX
  8
0
 10
107.621
 20
173.471
 30
0.0
 40
0.2
 41
0.2
  0
VERTEX
  8
0
 10
107.567
 20
173.441
 30
0.0
 40
0.2
 41
0.2
  0
VERTEX
  8
0
 10
107.55
 20
173.441
 30
0.0
 40
0.2
 41
0.2
  0
SEQEND
 8
0
  0
POLYLINE
  8
0
 62
     0
 66
     1
 10
0
 20
0
 30
0.0
 40
0.566929
 41
0.566929
  0
VERTEX
  8
0
 10
107.55
 20
173.441
 30
0.0
 40
0.2
 41
0.2
  0
VERTEX
  8
0
 10
128.55
 20
173.441
 30
0.0
 40
0.2
 41
0.2
  0
VERTEX
  8
0
 10
128.532
 20
173.441
 30
0.0
 40
0.2
 41
0.2
  0
VERTEX
  8
0
 10
128.478
 20
173.471
 30
0.0
 40
0.2
 41
0.2
  0
VERTEX
  8
0
 10
128.45
 20
173.525
 30
0.0
 40
0.2
 41
0.2
  0
VERTEX
  8
0
 10
128.45
 20
173.542
 30
0.0
 40
0.2
 41
0.2
  0
SEQEND
 8
0
  0
POLYLINE
  8
0
 62
     0
 66
     1
 10
0
 20
0
 30
0.0
 40
0.566929
 41
0.566929
  0
VERTEX
  8
0
 10
128.45
 20
173.542
 30
0.0
 40
0.2
 41
0.2
  0
VERTEX
  8
0
 10
128.45
 20
170.542
 30
0.0
 40
0.2
 41
0.2
  0
VERTEX
  8
0
 10
128.45
 20
170.525
 30
0.0
 40
0.2
 41
0.2
  0
VERTEX
  8
0
 10
128.478
 20
170.472
 30
0.0
 40
0.2
 41
0.2
  0
VERTEX
  8
0
 10
128.532
 20
170.441
 30
0.0
 40
0.2
 41
0.2
  0
VERTEX
  8
0
 10
128.55
 20
170.441
 30
0.0
 40
0.2
 41
0.2
  0
SEQEND
 8
0
  0
POLYLINE
  8
0
 62
     0
 66
     1
 10
0
 20
0
 30
0.0
 40
0.566929
 41
0.566929
  0
VERTEX
  8
0
 10
128.55
 20
170.441
 30
0.0
 40
0.2
 41
0.2
  0
VERTEX
  8
0
 10
134.55
 20
170.441
 30
0.0
 40
0.2
 41
0.2
  0
SEQEND
 8
0
  0
POLYLINE
  8
0
 62
     0
 66
     1
 10
0
 20
0
 30
0.0
 40
0.566929
 41
0.566929
  0
VERTEX
  8
0
 10
134.55
 20
170.441
 30
0.0
 40
0.2
 41
0.2
  0
VERTEX
  8
0
 10
134.567
 20
170.441
 30
0.0
 40
0.2
 41
0.2
  0
VERTEX
  8
0
 10
134.621
 20
170.472
 30
0.0
 40
0.2
 41
0.2
  0
VERTEX
  8
0
 10
134.651
 20
170.525
 30
0.0
 40
0.2
 41
0.2
  0
VERTEX
  8
0
 10
134.651
 20
170.542
 30
0.0
 40
0.2
 41
0.2
  0
SEQEND
 8
0
  0
POLYLINE
  8
0
 62
     0
 66
     1
 10
0
 20
0
 30
0.0
 40
0.566929
 41
0.566929
  0
VERTEX
  8
0
 10
134.651
 20
170.542
 30
0.0
 40
0.2
 41
0.2
  0
VERTEX
  8
0
 10
134.651
 20
173.542
 30
0.0
 40
0.2
 41
0.2
  0
VERTEX
  8
0
 10
134.651
 20
173.525
 30
0.0
 40
0.2
 41
0.2
  0
VERTEX
  8
0
 10
134.621
 20
173.471
 30
0.0
 40
0.2
 41
0.2
  0
VERTEX
  8
0
 10
134.567
 20
173.441
 30
0.0
 40
0.2
 41
0.2
  0
VERTEX
  8
0
 10
134.55
 20
173.441
 30
0.0
 40
0.2
 41
0.2
  0
SEQEND
 8
0
  0
POLYLINE
  8
0
 62
     0
 66
     1
 10
0
 20
0
 30
0.0
 40
0.566929
 41
0.566929
  0
VERTEX
  8
0
 10
134.55
 20
173.441
 30
0.0
 40
0.2
 41
0.2
  0
VERTEX
  8
0
 10
155.55
 20
173.441
 30
0.0
 40
0.2
 41
0.2
  0
VERTEX
  8
0
 10
155.532
 20
173.441
 30
0.0
 40
0.2
 41
0.2
  0
VERTEX
  8
0
 10
155.479
 20
173.471
 30
0.0
 40
0.2
 41
0.2
  0
VERTEX
  8
0
 10
155.45
 20
173.525
 30
0.0
 40
0.2
 41
0.2
  0
VERTEX
  8
0
 10
155.45
 20
173.542
 30
0.0
 40
0.2
 41
0.2
  0
SEQEND
 8
0
  0
POLYLINE
  8
0
 62
     0
 66
     1
 10
0
 20
0
 30
0.0
 40
0.566929
 41
0.566929
  0
VERTEX
  8
0
 10
155.45
 20
173.542
 30
0.0
 40
0.2
 41
0.2
  0
VERTEX
  8
0
 10
155.45
 20
170.542
 30
0.0
 40
0.2
 41
0.2
  0
VERTEX
  8
0
 10
155.45
 20
170.525
 30
0.0
 40
0.2
 41
0.2
  0
VERTEX
  8
0
 10
155.479
 20
170.472
 30
0.0
 40
0.2
 41
0.2
  0
VERTEX
  8
0
 10
155.532
 20
170.441
 30
0.0
 40
0.2
 41
0.2
  0
VERTEX
  8
0
 10
155.55
 20
170.441
 30
0.0
 40
0.2
 41
0.2
  0
SEQEND
 8
0
  0
POLYLINE
  8
0
 62
     0
 66
     1
 10
0
 20
0
 30
0.0
 40
0.566929
 41
0.566929
  0
VERTEX
  8
0
 10
155.55
 20
170.441
 30
0.0
 40
0.2
 41
0.2
  0
VERTEX
  8
0
 10
171.551
 20
170.441
 30
0.0
 40
0.2
 41
0.2
  0
SEQEND
 8
0
  0
POLYLINE
  8
0
 62
     0
 66
     1
 10
0
 20
0
 30
0.0
 40
0.566929
 41
0.566929
  0
VERTEX
  8
0
 10
171.551
 20
170.441
 30
0.0
 40
0.2
 41
0.2
  0
VERTEX
  8
0
 10
171.567
 20
170.441
 30
0.0
 40
0.2
 41
0.2
  0
VERTEX
  8
0
 10
171.621
 20
170.472
 30
0.0
 40
0.2
 41
0.2
  0
VERTEX
  8
0
 10
171.651
 20
170.525
 30
0.0
 40
0.2
 41
0.2
  0
VERTEX
  8
0
 10
171.651
 20
170.542
 30
0.0
 40
0.2
 41
0.2
  0
SEQEND
 8
0
  0
POLYLINE
  8
0
 62
     0
 66
     1
 10
0
 20
0
 30
0.0
 40
0.566929
 41
0.566929
  0
VERTEX
  8
0
 10
171.651
 20
170.542
 30
0.0
 40
0.2
 41
0.2
  0
VERTEX
  8
0
 10
171.651
 20
173.542
 30
0.0
 40
0.2
 41
0.2
  0
SEQEND
 8
0
  0
POLYLINE
  8
0
 62
     0
 66
     1
 10
0
 20
0
 30
0.0
 40
0.566929
 41
0.566929
  0
VERTEX
  8
0
 10
171.651
 20
173.542
 30
0.0
 40
0.2
 41
0.2
  0
VERTEX
  8
0
 10
171.651
 20
184.042
 30
0.0
 40
0.2
 41
0.2
  0
SEQEND
 8
0
  0
POLYLINE
  8
0
 62
     0
 66
     1
 10
0
 20
0
 30
0.0
 40
0.566929
 41
0.566929
  0
VERTEX
  8
0
 10
171.651
 20
184.042
 30
0.0
 40
0.2
 41
0.2
  0
VERTEX
  8
0
 10
171.651
 20
184.026
 30
0.0
 40
0.2
 41
0.2
  0
VERTEX
  8
0
 10
171.621
 20
183.972
 30
0.0
 40
0.2
 41
0.2
  0
VERTEX
  8
0
 10
171.567
 20
183.942
 30
0.0
 40
0.2
 41
0.2
  0
VERTEX
  8
0
 10
171.551
 20
183.942
 30
0.0
 40
0.2
 41
0.2
  0
SEQEND
 8
0
  0
POLYLINE
  8
0
 62
     0
 66
     1
 10
0
 20
0
 30
0.0
 40
0.566929
 41
0.566929
  0
VERTEX
  8
0
 10
171.551
 20
183.942
 30
0.0
 40
0.2
 41
0.2
  0
VERTEX
  8
0
 10
174.551
 20
183.942
 30
0.0
 40
0.2
 41
0.2
  0
VERTEX
  8
0
 10
174.567
 20
183.942
 30
0.0
 40
0.2
 41
0.2
  0
VERTEX
  8
0
 10
174.621
 20
183.972
 30
0.0
 40
0.2
 41
0.2
  0
VERTEX
  8
0
 10
174.651
 20
184.026
 30
0.0
 40
0.2
 41
0.2
  0
VERTEX
  8
0
 10
174.651
 20
184.042
 30
0.0
 40
0.2
 41
0.2
  0
SEQEND
 8
0
  0
POLYLINE
  8
0
 62
     0
 66
     1
 10
0
 20
0
 30
0.0
 40
0.566929
 41
0.566929
  0
VERTEX
  8
0
 10
174.651
 20
184.042
 30
0.0
 40
0.2
 41
0.2
  0
VERTEX
  8
0
 10
174.651
 20
205.043
 30
0.0
 40
0.2
 41
0.2
  0
VERTEX
  8
0
 10
174.651
 20
205.06
 30
0.0
 40
0.2
 41
0.2
  0
VERTEX
  8
0
 10
174.621
 20
205.114
 30
0.0
 40
0.2
 41
0.2
  0
VERTEX
  8
0
 10
174.567
 20
205.143
 30
0.0
 40
0.2
 41
0.2
  0
VERTEX
  8
0
 10
174.551
 20
205.143
 30
0.0
 40
0.2
 41
0.2
  0
SEQEND
 8
0
  0
POLYLINE
  8
0
 62
     0
 66
     1
 10
0
 20
0
 30
0.0
 40
0.566929
 41
0.566929
  0
VERTEX
  8
0
 10
174.551
 20
205.143
 30
0.0
 40
0.2
 41
0.2
  0
VERTEX
  8
0
 10
171.551
 20
205.143
 30
0.0
 40
0.2
 41
0.2
  0
VERTEX
  8
0
 10
171.567
 20
205.143
 30
0.0
 40
0.2
 41
0.2
  0
VERTEX
  8
0
 10
171.621
 20
205.114
 30
0.0
 40
0.2
 41
0.2
  0
VERTEX
  8
0
 10
171.651
 20
205.06
 30
0.0
 40
0.2
 41
0.2
  0
VERTEX
  8
0
 10
171.651
 20
205.043
 30
0.0
 40
0.2
 41
0.2
  0
SEQEND
 8
0
  0
POLYLINE
  8
0
 62
     0
 66
     1
 10
0
 20
0
 30
0.0
 40
0.566929
 41
0.566929
  0
VERTEX
  8
0
 10
171.651
 20
205.043
 30
0.0
 40
0.2
 41
0.2
  0
VERTEX
  8
0
 10
171.651
 20
211.042
 30
0.0
 40
0.2
 41
0.2
  0
SEQEND
 8
0
  0
POLYLINE
  8
0
 62
     0
 66
     1
 10
0
 20
0
 30
0.0
 40
0.566929
 41
0.566929
  0
VERTEX
  8
0
 10
171.651
 20
211.042
 30
0.0
 40
0.2
 41
0.2
  0
VERTEX
  8
0
 10
171.651
 20
211.026
 30
0.0
 40
0.2
 41
0.2
  0
VERTEX
  8
0
 10
171.621
 20
210.972
 30
0.0
 40
0.2
 41
0.2
  0
VERTEX
  8
0
 10
171.567
 20
210.942
 30
0.0
 40
0.2
 41
0.2
  0
VERTEX
  8
0
 10
171.551
 20
210.942
 30
0.0
 40
0.2
 41
0.2
  0
SEQEND
 8
0
  0
POLYLINE
  8
0
 62
     0
 66
     1
 10
0
 20
0
 30
0.0
 40
0.566929
 41
0.566929
  0
VERTEX
  8
0
 10
171.551
 20
210.942
 30
0.0
 40
0.2
 41
0.2
  0
VERTEX
  8
0
 10
174.551
 20
210.942
 30
0.0
 40
0.2
 41
0.2
  0
VERTEX
  8
0
 10
174.567
 20
210.942
 30
0.0
 40
0.2
 41
0.2
  0
VERTEX
  8
0
 10
174.621
 20
210.972
 30
0.0
 40
0.2
 41
0.2
  0
VERTEX
  8
0
 10
174.651
 20
211.026
 30
0.0
 40
0.2
 41
0.2
  0
VERTEX
  8
0
 10
174.651
 20
211.042
 30
0.0
 40
0.2
 41
0.2
  0
SEQEND
 8
0
  0
POLYLINE
  8
0
 62
     0
 66
     1
 10
0
 20
0
 30
0.0
 40
0.566929
 41
0.566929
  0
VERTEX
  8
0
 10
174.651
 20
211.042
 30
0.0
 40
0.2
 41
0.2
  0
VERTEX
  8
0
 10
174.651
 20
232.042
 30
0.0
 40
0.2
 41
0.2
  0
VERTEX
  8
0
 10
174.651
 20
232.06
 30
0.0
 40
0.2
 41
0.2
  0
VERTEX
  8
0
 10
174.621
 20
232.114
 30
0.0
 40
0.2
 41
0.2
  0
VERTEX
  8
0
 10
174.567
 20
232.143
 30
0.0
 40
0.2
 41
0.2
  0
VERTEX
  8
0
 10
174.551
 20
232.143
 30
0.0
 40
0.2
 41
0.2
  0
SEQEND
 8
0
  0
POLYLINE
  8
0
 62
     0
 66
     1
 10
0
 20
0
 30
0.0
 40
0.566929
 41
0.566929
  0
VERTEX
  8
0
 10
174.551
 20
232.143
 30
0.0
 40
0.2
 41
0.2
  0
VERTEX
  8
0
 10
171.551
 20
232.143
 30
0.0
 40
0.2
 41
0.2
  0
VERTEX
  8
0
 10
171.567
 20
232.143
 30
0.0
 40
0.2
 41
0.2
  0
VERTEX
  8
0
 10
171.621
 20
232.114
 30
0.0
 40
0.2
 41
0.2
  0
VERTEX
  8
0
 10
171.651
 20
232.06
 30
0.0
 40
0.2
 41
0.2
  0
VERTEX
  8
0
 10
171.651
 20
232.042
 30
0.0
 40
0.2
 41
0.2
  0
SEQEND
 8
0
  0
POLYLINE
  8
0
 62
     0
 66
     1
 10
0
 20
0
 30
0.0
 40
0.566929
 41
0.566929
  0
VERTEX
  8
0
 10
171.651
 20
232.042
 30
0.0
 40
0.2
 41
0.2
  0
VERTEX
  8
0
 10
171.651
 20
238.042
 30
0.0
 40
0.2
 41
0.2
  0
SEQEND
 8
0
  0
POLYLINE
  8
0
 62
     0
 66
     1
 10
0
 20
0
 30
0.0
 40
0.566929
 41
0.566929
  0
VERTEX
  8
0
 10
171.651
 20
238.042
 30
0.0
 40
0.2
 41
0.2
  0
VERTEX
  8
0
 10
171.651
 20
238.026
 30
0.0
 40
0.2
 41
0.2
  0
VERTEX
  8
0
 10
171.621
 20
237.972
 30
0.0
 40
0.2
 41
0.2
  0
VERTEX
  8
0
 10
171.567
 20
237.942
 30
0.0
 40
0.2
 41
0.2
  0
VERTEX
  8
0
 10
171.551
 20
237.942
 30
0.0
 40
0.2
 41
0.2
  0
SEQEND
 8
0
  0
POLYLINE
  8
0
 62
     0
 66
     1
 10
0
 20
0
 30
0.0
 40
0.566929
 41
0.566929
  0
VERTEX
  8
0
 10
171.551
 20
237.942
 30
0.0
 40
0.2
 41
0.2
  0
VERTEX
  8
0
 10
174.551
 20
237.942
 30
0.0
 40
0.2
 41
0.2
  0
VERTEX
  8
0
 10
174.567
 20
237.942
 30
0.0
 40
0.2
 41
0.2
  0
VERTEX
  8
0
 10
174.621
 20
237.972
 30
0.0
 40
0.2
 41
0.2
  0
VERTEX
  8
0
 10
174.651
 20
238.026
 30
0.0
 40
0.2
 41
0.2
  0
VERTEX
  8
0
 10
174.651
 20
238.042
 30
0.0
 40
0.2
 41
0.2
  0
SEQEND
 8
0
  0
POLYLINE
  8
0
 62
     0
 66
     1
 10
0
 20
0
 30
0.0
 40
0.566929
 41
0.566929
  0
VERTEX
  8
0
 10
174.651
 20
238.042
 30
0.0
 40
0.2
 41
0.2
  0
VERTEX
  8
0
 10
174.651
 20
259.042
 30
0.0
 40
0.2
 41
0.2
  0
VERTEX
  8
0
 10
174.651
 20
259.06
 30
0.0
 40
0.2
 41
0.2
  0
VERTEX
  8
0
 10
174.621
 20
259.114
 30
0.0
 40
0.2
 41
0.2
  0
VERTEX
  8
0
 10
174.567
 20
259.143
 30
0.0
 40
0.2
 41
0.2
  0
VERTEX
  8
0
 10
174.551
 20
259.143
 30
0.0
 40
0.2
 41
0.2
  0
SEQEND
 8
0
  0
POLYLINE
  8
0
 62
     0
 66
     1
 10
0
 20
0
 30
0.0
 40
0.566929
 41
0.566929
  0
VERTEX
  8
0
 10
174.551
 20
259.143
 30
0.0
 40
0.2
 41
0.2
  0
VERTEX
  8
0
 10
171.551
 20
259.143
 30
0.0
 40
0.2
 41
0.2
  0
VERTEX
  8
0
 10
171.567
 20
259.143
 30
0.0
 40
0.2
 41
0.2
  0
VERTEX
  8
0
 10
171.621
 20
259.114
 30
0.0
 40
0.2
 41
0.2
  0
VERTEX
  8
0
 10
171.651
 20
259.06
 30
0.0
 40
0.2
 41
0.2
  0
VERTEX
  8
0
 10
171.651
 20
259.042
 30
0.0
 40
0.2
 41
0.2
  0
SEQEND
 8
0
  0
POLYLINE
  8
0
 62
     0
 66
     1
 10
0
 20
0
 30
0.0
 40
0.566929
 41
0.566929
  0
VERTEX
  8
0
 10
171.651
 20
259.042
 30
0.0
 40
0.2
 41
0.2
  0
VERTEX
  8
0
 10
171.651
 20
265.042
 30
0.0
 40
0.2
 41
0.2
  0
SEQEND
 8
0
  0
POLYLINE
  8
0
 62
     0
 66
     1
 10
0
 20
0
 30
0.0
 40
0.566929
 41
0.566929
  0
VERTEX
  8
0
 10
171.651
 20
265.042
 30
0.0
 40
0.2
 41
0.2
  0
VERTEX
  8
0
 10
171.651
 20
265.026
 30
0.0
 40
0.2
 41
0.2
  0
VERTEX
  8
0
 10
171.621
 20
264.972
 30
0.0
 40
0.2
 41
0.2
  0
VERTEX
  8
0
 10
171.567
 20
264.942
 30
0.0
 40
0.2
 41
0.2
  0
VERTEX
  8
0
 10
171.551
 20
264.942
 30
0.0
 40
0.2
 41
0.2
  0
SEQEND
 8
0
  0
POLYLINE
  8
0
 62
     0
 66
     1
 10
0
 20
0
 30
0.0
 40
0.566929
 41
0.566929
  0
VERTEX
  8
0
 10
171.551
 20
264.942
 30
0.0
 40
0.2
 41
0.2
  0
VERTEX
  8
0
 10
174.551
 20
264.942
 30
0.0
 40
0.2
 41
0.2
  0
VERTEX
  8
0
 10
174.567
 20
264.942
 30
0.0
 40
0.2
 41
0.2
  0
VERTEX
  8
0
 10
174.621
 20
264.972
 30
0.0
 40
0.2
 41
0.2
  0
VERTEX
  8
0
 10
174.651
 20
265.026
 30
0.0
 40
0.2
 41
0.2
  0
VERTEX
  8
0
 10
174.651
 20
265.042
 30
0.0
 40
0.2
 41
0.2
  0
SEQEND
 8
0
  0
POLYLINE
  8
0
 62
     0
 66
     1
 10
0
 20
0
 30
0.0
 40
0.566929
 41
0.566929
  0
VERTEX
  8
0
 10
174.651
 20
265.042
 30
0.0
 40
0.2
 41
0.2
  0
VERTEX
  8
0
 10
174.651
 20
286.042
 30
0.0
 40
0.2
 41
0.2
  0
VERTEX
  8
0
 10
174.651
 20
286.06
 30
0.0
 40
0.2
 41
0.2
  0
VERTEX
  8
0
 10
174.621
 20
286.114
 30
0.0
 40
0.2
 41
0.2
  0
VERTEX
  8
0
 10
174.567
 20
286.143
 30
0.0
 40
0.2
 41
0.2
  0
VERTEX
  8
0
 10
174.551
 20
286.143
 30
0.0
 40
0.2
 41
0.2
  0
SEQEND
 8
0
  0
POLYLINE
  8
0
 62
     0
 66
     1
 10
0
 20
0
 30
0.0
 40
0.566929
 41
0.566929
  0
VERTEX
  8
0
 10
174.551
 20
286.143
 30
0.0
 40
0.2
 41
0.2
  0
VERTEX
  8
0
 10
171.551
 20
286.143
 30
0.0
 40
0.2
 41
0.2
  0
VERTEX
  8
0
 10
171.567
 20
286.143
 30
0.0
 40
0.2
 41
0.2
  0
VERTEX
  8
0
 10
171.621
 20
286.114
 30
0.0
 40
0.2
 41
0.2
  0
VERTEX
  8
0
 10
171.651
 20
286.06
 30
0.0
 40
0.2
 41
0.2
  0
VERTEX
  8
0
 10
171.651
 20
286.042
 30
0.0
 40
0.2
 41
0.2
  0
SEQEND
 8
0
  0
POLYLINE
  8
0
 62
     0
 66
     1
 10
0
 20
0
 30
0.0
 40
0.566929
 41
0.566929
  0
VERTEX
  8
0
 10
171.651
 20
286.042
 30
0.0
 40
0.2
 41
0.2
  0
VERTEX
  8
0
 10
171.651
 20
292.042
 30
0.0
 40
0.2
 41
0.2
  0
SEQEND
 8
0
  0
POLYLINE
  8
0
 62
     0
 66
     1
 10
0
 20
0
 30
0.0
 40
0.566929
 41
0.566929
  0
VERTEX
  8
0
 10
171.651
 20
292.042
 30
0.0
 40
0.2
 41
0.2
  0
VERTEX
  8
0
 10
171.651
 20
292.026
 30
0.0
 40
0.2
 41
0.2
  0
VERTEX
  8
0
 10
171.621
 20
291.972
 30
0.0
 40
0.2
 41
0.2
  0
VERTEX
  8
0
 10
171.567
 20
291.942
 30
0.0
 40
0.2
 41
0.2
  0
VERTEX
  8
0
 10
171.551
 20
291.942
 30
0.0
 40
0.2
 41
0.2
  0
SEQEND
 8
0
  0
POLYLINE
  8
0
 62
     0
 66
     1
 10
0
 20
0
 30
0.0
 40
0.566929
 41
0.566929
  0
VERTEX
  8
0
 10
171.551
 20
291.942
 30
0.0
 40
0.2
 41
0.2
  0
VERTEX
  8
0
 10
174.551
 20
291.942
 30
0.0
 40
0.2
 41
0.2
  0
VERTEX
  8
0
 10
174.567
 20
291.942
 30
0.0
 40
0.2
 41
0.2
  0
VERTEX
  8
0
 10
174.621
 20
291.972
 30
0.0
 40
0.2
 41
0.2
  0
VERTEX
  8
0
 10
174.651
 20
292.026
 30
0.0
 40
0.2
 41
0.2
  0
VERTEX
  8
0
 10
174.651
 20
292.042
 30
0.0
 40
0.2
 41
0.2
  0
SEQEND
 8
0
  0
POLYLINE
  8
0
 62
     0
 66
     1
 10
0
 20
0
 30
0.0
 40
0.566929
 41
0.566929
  0
VERTEX
  8
0
 10
174.651
 20
292.042
 30
0.0
 40
0.2
 41
0.2
  0
VERTEX
  8
0
 10
174.651
 20
313.042
 30
0.0
 40
0.2
 41
0.2
  0
VERTEX
  8
0
 10
174.651
 20
313.06
 30
0.0
 40
0.2
 41
0.2
  0
VERTEX
  8
0
 10
174.621
 20
313.114
 30
0.0
 40
0.2
 41
0.2
  0
VERTEX
  8
0
 10
174.567
 20
313.142
 30
0.0
 40
0.2
 41
0.2
  0
VERTEX
  8
0
 10
174.551
 20
313.142
 30
0.0
 40
0.2
 41
0.2
  0
SEQEND
 8
0
  0
POLYLINE
  8
0
 62
     0
 66
     1
 10
0
 20
0
 30
0.0
 40
0.566929
 41
0.566929
  0
VERTEX
  8
0
 10
174.551
 20
313.142
 30
0.0
 40
0.2
 41
0.2
  0
VERTEX
  8
0
 10
171.551
 20
313.142
 30
0.0
 40
0.2
 41
0.2
  0
VERTEX
  8
0
 10
171.567
 20
313.142
 30
0.0
 40
0.2
 41
0.2
  0
VERTEX
  8
0
 10
171.621
 20
313.114
 30
0.0
 40
0.2
 41
0.2
  0
VERTEX
  8
0
 10
171.651
 20
313.06
 30
0.0
 40
0.2
 41
0.2
  0
VERTEX
  8
0
 10
171.651
 20
313.042
 30
0.0
 40
0.2
 41
0.2
  0
SEQEND
 8
0
  0
POLYLINE
  8
0
 62
     0
 66
     1
 10
0
 20
0
 30
0.0
 40
0.566929
 41
0.566929
  0
VERTEX
  8
0
 10
171.651
 20
313.042
 30
0.0
 40
0.2
 41
0.2
  0
VERTEX
  8
0
 10
171.651
 20
323.543
 30
0.0
 40
0.2
 41
0.2
  0
SEQEND
 8
0
  0
POLYLINE
  8
0
 62
     0
 66
     1
 10
0
 20
0
 30
0.0
 40
0.566929
 41
0.566929
  0
VERTEX
  8
0
 10
171.651
 20
323.543
 30
0.0
 40
0.2
 41
0.2
  0
VERTEX
  8
0
 10
171.651
 20
326.543
 30
0.0
 40
0.2
 41
0.2
  0
VERTEX
  8
0
 10
171.651
 20
326.561
 30
0.0
 40
0.2
 41
0.2
  0
VERTEX
  8
0
 10
171.621
 20
326.614
 30
0.0
 40
0.2
 41
0.2
  0
VERTEX
  8
0
 10
171.567
 20
326.643
 30
0.0
 40
0.2
 41
0.2
  0
VERTEX
  8
0
 10
171.551
 20
326.643
 30
0.0
 40
0.2
 41
0.2
  0
SEQEND
 8
0
  0
POLYLINE
  8
0
 62
     0
 66
     1
 10
0
 20
0
 30
0.0
 40
0.566929
 41
0.566929
  0
VERTEX
  8
0
 10
171.551
 20
326.643
 30
0.0
 40
0.2
 41
0.2
  0
VERTEX
  8
0
 10
155.55
 20
326.643
 30
0.0
 40
0.2
 41
0.2
  0
SEQEND
 8
0
  0
POLYLINE
  8
0
 62
     0
 66
     1
 10
0
 20
0
 30
0.0
 40
0.566929
 41
0.566929
  0
VERTEX
  8
0
 10
155.55
 20
326.643
 30
0.0
 40
0.2
 41
0.2
  0
VERTEX
  8
0
 10
155.532
 20
326.643
 30
0.0
 40
0.2
 41
0.2
  0
VERTEX
  8
0
 10
155.479
 20
326.614
 30
0.0
 40
0.2
 41
0.2
  0
VERTEX
  8
0
 10
155.45
 20
326.561
 30
0.0
 40
0.2
 41
0.2
  0
VERTEX
  8
0
 10
155.45
 20
326.543
 30
0.0
 40
0.2
 41
0.2
  0
SEQEND
 8
0
  0
POLYLINE
  8
0
 62
     0
 66
     1
 10
0
 20
0
 30
0.0
 40
0.566929
 41
0.566929
  0
VERTEX
  8
0
 10
155.45
 20
326.543
 30
0.0
 40
0.2
 41
0.2
  0
VERTEX
  8
0
 10
155.45
 20
323.543
 30
0.0
 40
0.2
 41
0.2
  0
VERTEX
  8
0
 10
155.45
 20
323.561
 30
0.0
 40
0.2
 41
0.2
  0
VERTEX
  8
0
 10
155.479
 20
323.614
 30
0.0
 40
0.2
 41
0.2
  0
VERTEX
  8
0
 10
155.532
 20
323.643
 30
0.0
 40
0.2
 41
0.2
  0
VERTEX
  8
0
 10
155.55
 20
323.643
 30
0.0
 40
0.2
 41
0.2
  0
SEQEND
 8
0
  0
POLYLINE
  8
0
 62
     0
 66
     1
 10
0
 20
0
 30
0.0
 40
0.566929
 41
0.566929
  0
VERTEX
  8
0
 10
155.55
 20
323.643
 30
0.0
 40
0.2
 41
0.2
  0
VERTEX
  8
0
 10
134.55
 20
323.643
 30
0.0
 40
0.2
 41
0.2
  0
VERTEX
  8
0
 10
134.567
 20
323.643
 30
0.0
 40
0.2
 41
0.2
  0
VERTEX
  8
0
 10
134.621
 20
323.614
 30
0.0
 40
0.2
 41
0.2
  0
VERTEX
  8
0
 10
134.651
 20
323.561
 30
0.0
 40
0.2
 41
0.2
  0
VERTEX
  8
0
 10
134.651
 20
323.543
 30
0.0
 40
0.2
 41
0.2
  0
SEQEND
 8
0
  0
POLYLINE
  8
0
 62
     0
 66
     1
 10
0
 20
0
 30
0.0
 40
0.566929
 41
0.566929
  0
VERTEX
  8
0
 10
134.651
 20
323.543
 30
0.0
 40
0.2
 41
0.2
  0
VERTEX
  8
0
 10
134.651
 20
326.543
 30
0.0
 40
0.2
 41
0.2
  0
VERTEX
  8
0
 10
134.651
 20
326.561
 30
0.0
 40
0.2
 41
0.2
  0
VERTEX
  8
0
 10
134.621
 20
326.614
 30
0.0
 40
0.2
 41
0.2
  0
VERTEX
  8
0
 10
134.567
 20
326.643
 30
0.0
 40
0.2
 41
0.2
  0
VERTEX
  8
0
 10
134.55
 20
326.643
 30
0.0
 40
0.2
 41
0.2
  0
SEQEND
 8
0
  0
POLYLINE
  8
0
 62
     0
 66
     1
 10
0
 20
0
 30
0.0
 40
0.566929
 41
0.566929
  0
VERTEX
  8
0
 10
134.55
 20
326.643
 30
0.0
 40
0.2
 41
0.2
  0
VERTEX
  8
0
 10
128.55
 20
326.643
 30
0.0
 40
0.2
 41
0.2
  0
SEQEND
 8
0
  0
POLYLINE
  8
0
 62
     0
 66
     1
 10
0
 20
0
 30
0.0
 40
0.566929
 41
0.566929
  0
VERTEX
  8
0
 10
128.55
 20
326.643
 30
0.0
 40
0.2
 41
0.2
  0
VERTEX
  8
0
 10
128.532
 20
326.643
 30
0.0
 40
0.2
 41
0.2
  0
VERTEX
  8
0
 10
128.478
 20
326.614
 30
0.0
 40
0.2
 41
0.2
  0
VERTEX
  8
0
 10
128.45
 20
326.561
 30
0.0
 40
0.2
 41
0.2
  0
VERTEX
  8
0
 10
128.45
 20
326.543
 30
0.0
 40
0.2
 41
0.2
  0
SEQEND
 8
0
  0
POLYLINE
  8
0
 62
     0
 66
     1
 10
0
 20
0
 30
0.0
 40
0.566929
 41
0.566929
  0
VERTEX
  8
0
 10
128.45
 20
326.543
 30
0.0
 40
0.2
 41
0.2
  0
VERTEX
  8
0
 10
128.45
 20
323.543
 30
0.0
 40
0.2
 41
0.2
  0
VERTEX
  8
0
 10
128.45
 20
323.561
 30
0.0
 40
0.2
 41
0.2
  0
VERTEX
  8
0
 10
128.478
 20
323.614
 30
0.0
 40
0.2
 41
0.2
  0
VERTEX
  8
0
 10
128.532
 20
323.643
 30
0.0
 40
0.2
 41
0.2
  0
VERTEX
  8
0
 10
128.55
 20
323.643
 30
0.0
 40
0.2
 41
0.2
  0
SEQEND
 8
0
  0
POLYLINE
  8
0
 62
     0
 66
     1
 10
0
 20
0
 30
0.0
 40
0.566929
 41
0.566929
  0
VERTEX
  8
0
 10
128.55
 20
323.643
 30
0.0
 40
0.2
 41
0.2
  0
VERTEX
  8
0
 10
107.55
 20
323.643
 30
0.0
 40
0.2
 41
0.2
  0
VERTEX
  8
0
 10
107.567
 20
323.643
 30
0.0
 40
0.2
 41
0.2
  0
VERTEX
  8
0
 10
107.621
 20
323.614
 30
0.0
 40
0.2
 41
0.2
  0
VERTEX
  8
0
 10
107.651
 20
323.561
 30
0.0
 40
0.2
 41
0.2
  0
VERTEX
  8
0
 10
107.651
 20
323.543
 30
0.0
 40
0.2
 41
0.2
  0
SEQEND
 8
0
  0
POLYLINE
  8
0
 62
     0
 66
     1
 10
0
 20
0
 30
0.0
 40
0.566929
 41
0.566929
  0
VERTEX
  8
0
 10
107.651
 20
323.543
 30
0.0
 40
0.2
 41
0.2
  0
VERTEX
  8
0
 10
107.651
 20
326.543
 30
0.0
 40
0.2
 41
0.2
  0
VERTEX
  8
0
 10
107.651
 20
326.561
 30
0.0
 40
0.2
 41
0.2
  0
VERTEX
  8
0
 10
107.621
 20
326.614
 30
0.0
 40
0.2
 41
0.2
  0
VERTEX
  8
0
 10
107.567
 20
326.643
 30
0.0
 40
0.2
 41
0.2
  0
VERTEX
  8
0
 10
107.55
 20
326.643
 30
0.0
 40
0.2
 41
0.2
  0
SEQEND
 8
0
  0
POLYLINE
  8
0
 62
     0
 66
     1
 10
0
 20
0
 30
0.0
 40
0.566929
 41
0.566929
  0
VERTEX
  8
0
 10
107.55
 20
326.643
 30
0.0
 40
0.2
 41
0.2
  0
VERTEX
  8
0
 10
91.5501
 20
326.643
 30
0.0
 40
0.2
 41
0.2
  0
SEQEND
 8
0
  0
POLYLINE
  8
0
 62
     0
 66
     1
 10
0
 20
0
 30
0.0
 40
0.566929
 41
0.566929
  0
VERTEX
  8
0
 10
91.5501
 20
326.643
 30
0.0
 40
0.2
 41
0.2
  0
VERTEX
  8
0
 10
91.5321
 20
326.643
 30
0.0
 40
0.2
 41
0.2
  0
VERTEX
  8
0
 10
91.4784
 20
326.614
 30
0.0
 40
0.2
 41
0.2
  0
VERTEX
  8
0
 10
91.4495
 20
326.561
 30
0.0
 40
0.2
 41
0.2
  0
VERTEX
  8
0
 10
91.4495
 20
326.543
 30
0.0
 40
0.2
 41
0.2
  0
SEQEND
 8
0
  0
POLYLINE
  8
0
 62
     0
 66
     1
 10
0
 20
0
 30
0.0
 40
0.566929
 41
0.566929
  0
VERTEX
  8
0
 10
91.4495
 20
326.543
 30
0.0
 40
0.2
 41
0.2
  0
VERTEX
  8
0
 10
91.4495
 20
323.543
 30
0.0
 40
0.2
 41
0.2
  0
SEQEND
 8
0
  0
POLYLINE
  8
0
 62
     0
 66
     1
 10
0
 20
0
 30
0.0
 40
0.566929
 41
0.566929
  0
VERTEX
  8
0
 10
91.4495
 20
323.543
 30
0.0
 40
0.2
 41
0.2
  0
VERTEX
  8
0
 10
91.4495
 20
313.042
 30
0.0
 40
0.2
 41
0.2
  0
SEQEND
 8
0
  0
POLYLINE
  8
0
 62
     0
 66
     1
 10
0
 20
0
 30
0.0
 40
0.566929
 41
0.566929
  0
VERTEX
  8
0
 10
91.4495
 20
313.042
 30
0.0
 40
0.2
 41
0.2
  0
VERTEX
  8
0
 10
91.4495
 20
313.06
 30
0.0
 40
0.2
 41
0.2
  0
VERTEX
  8
0
 10
91.4784
 20
313.114
 30
0.0
 40
0.2
 41
0.2
  0
VERTEX
  8
0
 10
91.5321
 20
313.142
 30
0.0
 40
0.2
 41
0.2
  0
VERTEX
  8
0
 10
91.5501
 20
313.142
 30
0.0
 40
0.2
 41
0.2
  0
SEQEND
 8
0
  0
POLYLINE
  8
0
 62
     0
 66
     1
 10
0
 20
0
 30
0.0
 40
0.566929
 41
0.566929
  0
VERTEX
  8
0
 10
91.5501
 20
313.142
 30
0.0
 40
0.2
 41
0.2
  0
VERTEX
  8
0
 10
88.55
 20
313.142
 30
0.0
 40
0.2
 41
0.2
  0
VERTEX
  8
0
 10
88.5321
 20
313.142
 30
0.0
 40
0.2
 41
0.2
  0
VERTEX
  8
0
 10
88.4784
 20
313.114
 30
0.0
 40
0.2
 41
0.2
  0
VERTEX
  8
0
 10
88.4495
 20
313.06
 30
0.0
 40
0.2
 41
0.2
  0
VERTEX
  8
0
 10
88.4495
 20
313.042
 30
0.0
 40
0.2
 41
0.2
  0
SEQEND
 8
0
  0
POLYLINE
  8
0
 62
     0
 66
     1
 10
0
 20
0
 30
0.0
 40
0.566929
 41
0.566929
  0
VERTEX
  8
0
 10
88.4495
 20
313.042
 30
0.0
 40
0.2
 41
0.2
  0
VERTEX
  8
0
 10
88.4495
 20
292.042
 30
0.0
 40
0.2
 41
0.2
  0
VERTEX
  8
0
 10
88.4495
 20
292.026
 30
0.0
 40
0.2
 41
0.2
  0
VERTEX
  8
0
 10
88.4784
 20
291.972
 30
0.0
 40
0.2
 41
0.2
  0
VERTEX
  8
0
 10
88.5321
 20
291.942
 30
0.0
 40
0.2
 41
0.2
  0
VERTEX
  8
0
 10
88.55
 20
291.942
 30
0.0
 40
0.2
 41
0.2
  0
SEQEND
 8
0
  0
POLYLINE
  8
0
 62
     0
 66
     1
 10
0
 20
0
 30
0.0
 40
0.566929
 41
0.566929
  0
VERTEX
  8
0
 10
88.55
 20
291.942
 30
0.0
 40
0.2
 41
0.2
  0
VERTEX
  8
0
 10
91.5501
 20
291.942
 30
0.0
 40
0.2
 41
0.2
  0
VERTEX
  8
0
 10
91.5321
 20
291.942
 30
0.0
 40
0.2
 41
0.2
  0
VERTEX
  8
0
 10
91.4784
 20
291.972
 30
0.0
 40
0.2
 41
0.2
  0
VERTEX
  8
0
 10
91.4495
 20
292.026
 30
0.0
 40
0.2
 41
0.2
  0
VERTEX
  8
0
 10
91.4495
 20
292.042
 30
0.0
 40
0.2
 41
0.2
  0
SEQEND
 8
0
  0
POLYLINE
  8
0
 62
     0
 66
     1
 10
0
 20
0
 30
0.0
 40
0.566929
 41
0.566929
  0
VERTEX
  8
0
 10
91.4495
 20
292.042
 30
0.0
 40
0.2
 41
0.2
  0
VERTEX
  8
0
 10
91.4495
 20
286.042
 30
0.0
 40
0.2
 41
0.2
  0
SEQEND
 8
0
  0
POLYLINE
  8
0
 62
     0
 66
     1
 10
0
 20
0
 30
0.0
 40
0.566929
 41
0.566929
  0
VERTEX
  8
0
 10
91.4495
 20
286.042
 30
0.0
 40
0.2
 41
0.2
  0
VERTEX
  8
0
 10
91.4495
 20
286.06
 30
0.0
 40
0.2
 41
0.2
  0
VERTEX
  8
0
 10
91.4784
 20
286.114
 30
0.0
 40
0.2
 41
0.2
  0
VERTEX
  8
0
 10
91.5321
 20
286.143
 30
0.0
 40
0.2
 41
0.2
  0
VERTEX
  8
0
 10
91.5501
 20
286.143
 30
0.0
 40
0.2
 41
0.2
  0
SEQEND
 8
0
  0
POLYLINE
  8
0
 62
     0
 66
     1
 10
0
 20
0
 30
0.0
 40
0.566929
 41
0.566929
  0
VERTEX
  8
0
 10
91.5501
 20
286.143
 30
0.0
 40
0.2
 41
0.2
  0
VERTEX
  8
0
 10
88.55
 20
286.143
 30
0.0
 40
0.2
 41
0.2
  0
VERTEX
  8
0
 10
88.5321
 20
286.143
 30
0.0
 40
0.2
 41
0.2
  0
VERTEX
  8
0
 10
88.4784
 20
286.114
 30
0.0
 40
0.2
 41
0.2
  0
VERTEX
  8
0
 10
88.4495
 20
286.06
 30
0.0
 40
0.2
 41
0.2
  0
VERTEX
  8
0
 10
88.4495
 20
286.042
 30
0.0
 40
0.2
 41
0.2
  0
SEQEND
 8
0
  0
POLYLINE
  8
0
 62
     0
 66
     1
 10
0
 20
0
 30
0.0
 40
0.566929
 41
0.566929
  0
VERTEX
  8
0
 10
88.4495
 20
286.042
 30
0.0
 40
0.2
 41
0.2
  0
VERTEX
  8
0
 10
88.4495
 20
265.042
 30
0.0
 40
0.2
 41
0.2
  0
VERTEX
  8
0
 10
88.4495
 20
265.026
 30
0.0
 40
0.2
 41
0.2
  0
VERTEX
  8
0
 10
88.4784
 20
264.972
 30
0.0
 40
0.2
 41
0.2
  0
VERTEX
  8
0
 10
88.5321
 20
264.942
 30
0.0
 40
0.2
 41
0.2
  0
VERTEX
  8
0
 10
88.55
 20
264.942
 30
0.0
 40
0.2
 41
0.2
  0
SEQEND
 8
0
  0
POLYLINE
  8
0
 62
     0
 66
     1
 10
0
 20
0
 30
0.0
 40
0.566929
 41
0.566929
  0
VERTEX
  8
0
 10
88.55
 20
264.942
 30
0.0
 40
0.2
 41
0.2
  0
VERTEX
  8
0
 10
91.5501
 20
264.942
 30
0.0
 40
0.2
 41
0.2
  0
VERTEX
  8
0
 10
91.5321
 20
264.942
 30
0.0
 40
0.2
 41
0.2
  0
VERTEX
  8
0
 10
91.4784
 20
264.972
 30
0.0
 40
0.2
 41
0.2
  0
VERTEX
  8
0
 10
91.4495
 20
265.026
 30
0.0
 40
0.2
 41
0.2
  0
VERTEX
  8
0
 10
91.4495
 20
265.042
 30
0.0
 40
0.2
 41
0.2
  0
SEQEND
 8
0
  0
POLYLINE
  8
0
 62
     0
 66
     1
 10
0
 20
0
 30
0.0
 40
0.566929
 41
0.566929
  0
VERTEX
  8
0
 10
91.4495
 20
265.042
 30
0.0
 40
0.2
 41
0.2
  0
VERTEX
  8
0
 10
91.4495
 20
259.042
 30
0.0
 40
0.2
 41
0.2
  0
SEQEND
 8
0
  0
POLYLINE
  8
0
 62
     0
 66
     1
 10
0
 20
0
 30
0.0
 40
0.566929
 41
0.566929
  0
VERTEX
  8
0
 10
91.4495
 20
259.042
 30
0.0
 40
0.2
 41
0.2
  0
VERTEX
  8
0
 10
91.4495
 20
259.06
 30
0.0
 40
0.2
 41
0.2
  0
VERTEX
  8
0
 10
91.4784
 20
259.114
 30
0.0
 40
0.2
 41
0.2
  0
VERTEX
  8
0
 10
91.5321
 20
259.143
 30
0.0
 40
0.2
 41
0.2
  0
VERTEX
  8
0
 10
91.5501
 20
259.143
 30
0.0
 40
0.2
 41
0.2
  0
SEQEND
 8
0
  0
POLYLINE
  8
0
 62
     0
 66
     1
 10
0
 20
0
 30
0.0
 40
0.566929
 41
0.566929
  0
VERTEX
  8
0
 10
91.5501
 20
259.143
 30
0.0
 40
0.2
 41
0.2
  0
VERTEX
  8
0
 10
88.55
 20
259.143
 30
0.0
 40
0.2
 41
0.2
  0
VERTEX
  8
0
 10
88.5321
 20
259.143
 30
0.0
 40
0.2
 41
0.2
  0
VERTEX
  8
0
 10
88.4784
 20
259.114
 30
0.0
 40
0.2
 41
0.2
  0
VERTEX
  8
0
 10
88.4495
 20
259.06
 30
0.0
 40
0.2
 41
0.2
  0
VERTEX
  8
0
 10
88.4495
 20
259.042
 30
0.0
 40
0.2
 41
0.2
  0
SEQEND
 8
0
  0
POLYLINE
  8
0
 62
     0
 66
     1
 10
0
 20
0
 30
0.0
 40
0.566929
 41
0.566929
  0
VERTEX
  8
0
 10
88.4495
 20
259.042
 30
0.0
 40
0.2
 41
0.2
  0
VERTEX
  8
0
 10
88.4495
 20
238.042
 30
0.0
 40
0.2
 41
0.2
  0
VERTEX
  8
0
 10
88.4495
 20
238.026
 30
0.0
 40
0.2
 41
0.2
  0
VERTEX
  8
0
 10
88.4784
 20
237.972
 30
0.0
 40
0.2
 41
0.2
  0
VERTEX
  8
0
 10
88.5321
 20
237.942
 30
0.0
 40
0.2
 41
0.2
  0
VERTEX
  8
0
 10
88.55
 20
237.942
 30
0.0
 40
0.2
 41
0.2
  0
SEQEND
 8
0
  0
POLYLINE
  8
0
 62
     0
 66
     1
 10
0
 20
0
 30
0.0
 40
0.566929
 41
0.566929
  0
VERTEX
  8
0
 10
88.55
 20
237.942
 30
0.0
 40
0.2
 41
0.2
  0
VERTEX
  8
0
 10
91.5501
 20
237.942
 30
0.0
 40
0.2
 41
0.2
  0
VERTEX
  8
0
 10
91.5321
 20
237.942
 30
0.0
 40
0.2
 41
0.2
  0
VERTEX
  8
0
 10
91.4784
 20
237.972
 30
0.0
 40
0.2
 41
0.2
  0
VERTEX
  8
0
 10
91.4495
 20
238.026
 30
0.0
 40
0.2
 41
0.2
  0
VERTEX
  8
0
 10
91.4495
 20
238.042
 30
0.0
 40
0.2
 41
0.2
  0
SEQEND
 8
0
  0
POLYLINE
  8
0
 62
     0
 66
     1
 10
0
 20
0
 30
0.0
 40
0.566929
 41
0.566929
  0
VERTEX
  8
0
 10
91.4495
 20
238.042
 30
0.0
 40
0.2
 41
0.2
  0
VERTEX
  8
0
 10
91.4495
 20
232.042
 30
0.0
 40
0.2
 41
0.2
  0
SEQEND
 8
0
  0
POLYLINE
  8
0
 62
     0
 66
     1
 10
0
 20
0
 30
0.0
 40
0.566929
 41
0.566929
  0
VERTEX
  8
0
 10
91.4495
 20
232.042
 30
0.0
 40
0.2
 41
0.2
  0
VERTEX
  8
0
 10
91.4495
 20
232.06
 30
0.0
 40
0.2
 41
0.2
  0
VERTEX
  8
0
 10
91.4784
 20
232.114
 30
0.0
 40
0.2
 41
0.2
  0
VERTEX
  8
0
 10
91.5321
 20
232.143
 30
0.0
 40
0.2
 41
0.2
  0
VERTEX
  8
0
 10
91.5501
 20
232.143
 30
0.0
 40
0.2
 41
0.2
  0
SEQEND
 8
0
  0
POLYLINE
  8
0
 62
     0
 66
     1
 10
0
 20
0
 30
0.0
 40
0.566929
 41
0.566929
  0
VERTEX
  8
0
 10
91.5501
 20
232.143
 30
0.0
 40
0.2
 41
0.2
  0
VERTEX
  8
0
 10
88.55
 20
232.143
 30
0.0
 40
0.2
 41
0.2
  0
VERTEX
  8
0
 10
88.5321
 20
232.143
 30
0.0
 40
0.2
 41
0.2
  0
VERTEX
  8
0
 10
88.4784
 20
232.114
 30
0.0
 40
0.2
 41
0.2
  0
VERTEX
  8
0
 10
88.4495
 20
232.06
 30
0.0
 40
0.2
 41
0.2
  0
VERTEX
  8
0
 10
88.4495
 20
232.042
 30
0.0
 40
0.2
 41
0.2
  0
SEQEND
 8
0
  0
POLYLINE
  8
0
 62
     0
 66
     1
 10
0
 20
0
 30
0.0
 40
0.566929
 41
0.566929
  0
VERTEX
  8
0
 10
88.4495
 20
232.042
 30
0.0
 40
0.2
 41
0.2
  0
VERTEX
  8
0
 10
88.4495
 20
211.042
 30
0.0
 40
0.2
 41
0.2
  0
VERTEX
  8
0
 10
88.4495
 20
211.026
 30
0.0
 40
0.2
 41
0.2
  0
VERTEX
  8
0
 10
88.4784
 20
210.972
 30
0.0
 40
0.2
 41
0.2
  0
VERTEX
  8
0
 10
88.5321
 20
210.942
 30
0.0
 40
0.2
 41
0.2
  0
VERTEX
  8
0
 10
88.55
 20
210.942
 30
0.0
 40
0.2
 41
0.2
  0
SEQEND
 8
0
  0
POLYLINE
  8
0
 62
     0
 66
     1
 10
0
 20
0
 30
0.0
 40
0.566929
 41
0.566929
  0
VERTEX
  8
0
 10
88.55
 20
210.942
 30
0.0
 40
0.2
 41
0.2
  0
VERTEX
  8
0
 10
91.5501
 20
210.942
 30
0.0
 40
0.2
 41
0.2
  0
VERTEX
  8
0
 10
91.5321
 20
210.942
 30
0.0
 40
0.2
 41
0.2
  0
VERTEX
  8
0
 10
91.4784
 20
210.972
 30
0.0
 40
0.2
 41
0.2
  0
VERTEX
  8
0
 10
91.4495
 20
211.026
 30
0.0
 40
0.2
 41
0.2
  0
VERTEX
  8
0
 10
91.4495
 20
211.042
 30
0.0
 40
0.2
 41
0.2
  0
SEQEND
 8
0
  0
POLYLINE
  8
0
 62
     0
 66
     1
 10
0
 20
0
 30
0.0
 40
0.566929
 41
0.566929
  0
VERTEX
  8
0
 10
91.4495
 20
211.042
 30
0.0
 40
0.2
 41
0.2
  0
VERTEX
  8
0
 10
91.4495
 20
205.043
 30
0.0
 40
0.2
 41
0.2
  0
SEQEND
 8
0
  0
POLYLINE
  8
0
 62
     0
 66
     1
 10
0
 20
0
 30
0.0
 40
0.566929
 41
0.566929
  0
VERTEX
  8
0
 10
91.4495
 20
205.043
 30
0.0
 40
0.2
 41
0.2
  0
VERTEX
  8
0
 10
91.4495
 20
205.06
 30
0.0
 40
0.2
 41
0.2
  0
VERTEX
  8
0
 10
91.4784
 20
205.114
 30
0.0
 40
0.2
 41
0.2
  0
VERTEX
  8
0
 10
91.5321
 20
205.143
 30
0.0
 40
0.2
 41
0.2
  0
VERTEX
  8
0
 10
91.5501
 20
205.143
 30
0.0
 40
0.2
 41
0.2
  0
SEQEND
 8
0
  0
POLYLINE
  8
0
 62
     0
 66
     1
 10
0
 20
0
 30
0.0
 40
0.566929
 41
0.566929
  0
VERTEX
  8
0
 10
91.5501
 20
205.143
 30
0.0
 40
0.2
 41
0.2
  0
VERTEX
  8
0
 10
88.55
 20
205.143
 30
0.0
 40
0.2
 41
0.2
  0
VERTEX
  8
0
 10
88.5321
 20
205.143
 30
0.0
 40
0.2
 41
0.2
  0
VERTEX
  8
0
 10
88.4784
 20
205.114
 30
0.0
 40
0.2
 41
0.2
  0
VERTEX
  8
0
 10
88.4495
 20
205.06
 30
0.0
 40
0.2
 41
0.2
  0
VERTEX
  8
0
 10
88.4495
 20
205.043
 30
0.0
 40
0.2
 41
0.2
  0
SEQEND
 8
0
  0
POLYLINE
  8
0
 62
     0
 66
     1
 10
0
 20
0
 30
0.0
 40
0.566929
 41
0.566929
  0
VERTEX
  8
0
 10
88.4495
 20
205.043
 30
0.0
 40
0.2
 41
0.2
  0
VERTEX
  8
0
 10
88.4495
 20
184.042
 30
0.0
 40
0.2
 41
0.2
  0
VERTEX
  8
0
 10
88.4495
 20
184.026
 30
0.0
 40
0.2
 41
0.2
  0
VERTEX
  8
0
 10
88.4784
 20
183.972
 30
0.0
 40
0.2
 41
0.2
  0
VERTEX
  8
0
 10
88.5321
 20
183.942
 30
0.0
 40
0.2
 41
0.2
  0
VERTEX
  8
0
 10
88.55
 20
183.942
 30
0.0
 40
0.2
 41
0.2
  0
SEQEND
 8
0
  0
POLYLINE
  8
0
 62
     0
 66
     1
 10
0
 20
0
 30
0.0
 40
0.566929
 41
0.566929
  0
VERTEX
  8
0
 10
88.55
 20
183.942
 30
0.0
 40
0.2
 41
0.2
  0
VERTEX
  8
0
 10
91.5501
 20
183.942
 30
0.0
 40
0.2
 41
0.2
  0
VERTEX
  8
0
 10
91.5321
 20
183.942
 30
0.0
 40
0.2
 41
0.2
  0
VERTEX
  8
0
 10
91.4784
 20
183.972
 30
0.0
 40
0.2
 41
0.2
  0
VERTEX
  8
0
 10
91.4495
 20
184.026
 30
0.0
 40
0.2
 41
0.2
  0
VERTEX
  8
0
 10
91.4495
 20
184.042
 30
0.0
 40
0.2
 41
0.2
  0
SEQEND
 8
0
  0
POLYLINE
  8
0
 62
     0
 66
     1
 10
0
 20
0
 30
0.0
 40
0.566929
 41
0.566929
  0
VERTEX
  8
0
 10
91.4495
 20
184.042
 30
0.0
 40
0.2
 41
0.2
  0
VERTEX
  8
0
 10
91.4495
 20
173.542
 30
0.0
 40
0.2
 41
0.2
  0
SEQEND
 8
0
  0
POLYLINE
  8
0
 62
     0
 66
     1
 10
0
 20
0
 30
0.0
 40
0.566929
 41
0.566929
  0
VERTEX
  8
0
 10
91.4495
 20
173.542
 30
0.0
 40
0.2
 41
0.2
  0
VERTEX
  8
0
 10
91.4495
 20
170.542
 30
0.0
 40
0.2
 41
0.2
  0
VERTEX
  8
0
 10
91.4495
 20
170.525
 30
0.0
 40
0.2
 41
0.2
  0
VERTEX
  8
0
 10
91.4784
 20
170.472
 30
0.0
 40
0.2
 41
0.2
  0
VERTEX
  8
0
 10
91.5321
 20
170.441
 30
0.0
 40
0.2
 41
0.2
  0
VERTEX
  8
0
 10
91.5501
 20
170.441
 30
0.0
 40
0.2
 41
0.2
  0
SEQEND
 8
0
  0
POLYLINE
  8
0
 62
     0
 66
     1
 10
0
 20
0
 30
0.0
 40
0.566929
 41
0.566929
  0
VERTEX
  8
0
 10
3.85025
 20
170.441
 30
0.0
 40
0.2
 41
0.2
  0
VERTEX
  8
0
 10
19.8506
 20
170.441
 30
0.0
 40
0.2
 41
0.2
  0
SEQEND
 8
0
  0
POLYLINE
  8
0
 62
     0
 66
     1
 10
0
 20
0
 30
0.0
 40
0.566929
 41
0.566929
  0
VERTEX
  8
0
 10
19.8506
 20
170.441
 30
0.0
 40
0.2
 41
0.2
  0
VERTEX
  8
0
 10
19.8672
 20
170.441
 30
0.0
 40
0.2
 41
0.2
  0
VERTEX
  8
0
 10
19.9209
 20
170.472
 30
0.0
 40
0.2
 41
0.2
  0
VERTEX
  8
0
 10
19.9512
 20
170.525
 30
0.0
 40
0.2
 41
0.2
  0
VERTEX
  8
0
 10
19.9512
 20
170.542
 30
0.0
 40
0.2
 41
0.2
  0
SEQEND
 8
0
  0
POLYLINE
  8
0
 62
     0
 66
     1
 10
0
 20
0
 30
0.0
 40
0.566929
 41
0.566929
  0
VERTEX
  8
0
 10
19.9512
 20
170.542
 30
0.0
 40
0.2
 41
0.2
  0
VERTEX
  8
0
 10
19.9512
 20
173.542
 30
0.0
 40
0.2
 41
0.2
  0
VERTEX
  8
0
 10
19.9512
 20
173.525
 30
0.0
 40
0.2
 41
0.2
  0
VERTEX
  8
0
 10
19.9209
 20
173.471
 30
0.0
 40
0.2
 41
0.2
  0
VERTEX
  8
0
 10
19.8672
 20
173.441
 30
0.0
 40
0.2
 41
0.2
  0
VERTEX
  8
0
 10
19.8506
 20
173.441
 30
0.0
 40
0.2
 41
0.2
  0
SEQEND
 8
0
  0
POLYLINE
  8
0
 62
     0
 66
     1
 10
0
 20
0
 30
0.0
 40
0.566929
 41
0.566929
  0
VERTEX
  8
0
 10
19.8506
 20
173.441
 30
0.0
 40
0.2
 41
0.2
  0
VERTEX
  8
0
 10
40.8506
 20
173.441
 30
0.0
 40
0.2
 41
0.2
  0
VERTEX
  8
0
 10
40.8326
 20
173.441
 30
0.0
 40
0.2
 41
0.2
  0
VERTEX
  8
0
 10
40.779
 20
173.471
 30
0.0
 40
0.2
 41
0.2
  0
VERTEX
  8
0
 10
40.7501
 20
173.525
 30
0.0
 40
0.2
 41
0.2
  0
VERTEX
  8
0
 10
40.7501
 20
173.542
 30
0.0
 40
0.2
 41
0.2
  0
SEQEND
 8
0
  0
POLYLINE
  8
0
 62
     0
 66
     1
 10
0
 20
0
 30
0.0
 40
0.566929
 41
0.566929
  0
VERTEX
  8
0
 10
40.7501
 20
173.542
 30
0.0
 40
0.2
 41
0.2
  0
VERTEX
  8
0
 10
40.7501
 20
170.542
 30
0.0
 40
0.2
 41
0.2
  0
VERTEX
  8
0
 10
40.7501
 20
170.525
 30
0.0
 40
0.2
 41
0.2
  0
VERTEX
  8
0
 10
40.779
 20
170.472
 30
0.0
 40
0.2
 41
0.2
  0
VERTEX
  8
0
 10
40.8326
 20
170.441
 30
0.0
 40
0.2
 41
0.2
  0
VERTEX
  8
0
 10
40.8506
 20
170.441
 30
0.0
 40
0.2
 41
0.2
  0
SEQEND
 8
0
  0
POLYLINE
  8
0
 62
     0
 66
     1
 10
0
 20
0
 30
0.0
 40
0.566929
 41
0.566929
  0
VERTEX
  8
0
 10
40.8506
 20
170.441
 30
0.0
 40
0.2
 41
0.2
  0
VERTEX
  8
0
 10
46.8507
 20
170.441
 30
0.0
 40
0.2
 41
0.2
  0
SEQEND
 8
0
  0
POLYLINE
  8
0
 62
     0
 66
     1
 10
0
 20
0
 30
0.0
 40
0.566929
 41
0.566929
  0
VERTEX
  8
0
 10
46.8507
 20
170.441
 30
0.0
 40
0.2
 41
0.2
  0
VERTEX
  8
0
 10
46.8672
 20
170.441
 30
0.0
 40
0.2
 41
0.2
  0
VERTEX
  8
0
 10
46.9209
 20
170.472
 30
0.0
 40
0.2
 41
0.2
  0
VERTEX
  8
0
 10
46.9512
 20
170.525
 30
0.0
 40
0.2
 41
0.2
  0
VERTEX
  8
0
 10
46.9512
 20
170.542
 30
0.0
 40
0.2
 41
0.2
  0
SEQEND
 8
0
  0
POLYLINE
  8
0
 62
     0
 66
     1
 10
0
 20
0
 30
0.0
 40
0.566929
 41
0.566929
  0
VERTEX
  8
0
 10
46.9512
 20
170.542
 30
0.0
 40
0.2
 41
0.2
  0
VERTEX
  8
0
 10
46.9512
 20
173.542
 30
0.0
 40
0.2
 41
0.2
  0
VERTEX
  8
0
 10
46.9512
 20
173.525
 30
0.0
 40
0.2
 41
0.2
  0
VERTEX
  8
0
 10
46.9209
 20
173.471
 30
0.0
 40
0.2
 41
0.2
  0
VERTEX
  8
0
 10
46.8672
 20
173.441
 30
0.0
 40
0.2
 41
0.2
  0
VERTEX
  8
0
 10
46.8507
 20
173.441
 30
0.0
 40
0.2
 41
0.2
  0
SEQEND
 8
0
  0
POLYLINE
  8
0
 62
     0
 66
     1
 10
0
 20
0
 30
0.0
 40
0.566929
 41
0.566929
  0
VERTEX
  8
0
 10
46.8507
 20
173.441
 30
0.0
 40
0.2
 41
0.2
  0
VERTEX
  8
0
 10
67.8505
 20
173.441
 30
0.0
 40
0.2
 41
0.2
  0
VERTEX
  8
0
 10
67.8325
 20
173.441
 30
0.0
 40
0.2
 41
0.2
  0
VERTEX
  8
0
 10
67.7788
 20
173.471
 30
0.0
 40
0.2
 41
0.2
  0
VERTEX
  8
0
 10
67.7499
 20
173.525
 30
0.0
 40
0.2
 41
0.2
  0
VERTEX
  8
0
 10
67.7499
 20
173.542
 30
0.0
 40
0.2
 41
0.2
  0
SEQEND
 8
0
  0
POLYLINE
  8
0
 62
     0
 66
     1
 10
0
 20
0
 30
0.0
 40
0.566929
 41
0.566929
  0
VERTEX
  8
0
 10
67.7499
 20
173.542
 30
0.0
 40
0.2
 41
0.2
  0
VERTEX
  8
0
 10
67.7499
 20
170.542
 30
0.0
 40
0.2
 41
0.2
  0
VERTEX
  8
0
 10
67.7499
 20
170.525
 30
0.0
 40
0.2
 41
0.2
  0
VERTEX
  8
0
 10
67.7788
 20
170.472
 30
0.0
 40
0.2
 41
0.2
  0
VERTEX
  8
0
 10
67.8325
 20
170.441
 30
0.0
 40
0.2
 41
0.2
  0
VERTEX
  8
0
 10
67.8505
 20
170.441
 30
0.0
 40
0.2
 41
0.2
  0
SEQEND
 8
0
  0
POLYLINE
  8
0
 62
     0
 66
     1
 10
0
 20
0
 30
0.0
 40
0.566929
 41
0.566929
  0
VERTEX
  8
0
 10
67.8505
 20
170.441
 30
0.0
 40
0.2
 41
0.2
  0
VERTEX
  8
0
 10
83.851
 20
170.441
 30
0.0
 40
0.2
 41
0.2
  0
SEQEND
 8
0
  0
POLYLINE
  8
0
 62
     0
 66
     1
 10
0
 20
0
 30
0.0
 40
0.566929
 41
0.566929
  0
VERTEX
  8
0
 10
83.851
 20
170.441
 30
0.0
 40
0.2
 41
0.2
  0
VERTEX
  8
0
 10
86.8507
 20
170.441
 30
0.0
 40
0.2
 41
0.2
  0
VERTEX
  8
0
 10
86.8673
 20
170.441
 30
0.0
 40
0.2
 41
0.2
  0
VERTEX
  8
0
 10
86.9213
 20
170.472
 30
0.0
 40
0.2
 41
0.2
  0
VERTEX
  8
0
 10
86.9516
 20
170.525
 30
0.0
 40
0.2
 41
0.2
  0
VERTEX
  8
0
 10
86.9516
 20
170.542
 30
0.0
 40
0.2
 41
0.2
  0
SEQEND
 8
0
  0
POLYLINE
  8
0
 62
     0
 66
     1
 10
0
 20
0
 30
0.0
 40
0.566929
 41
0.566929
  0
VERTEX
  8
0
 10
86.9516
 20
170.542
 30
0.0
 40
0.2
 41
0.2
  0
VERTEX
  8
0
 10
86.9516
 20
173.542
 30
0.0
 40
0.2
 41
0.2
  0
SEQEND
 8
0
  0
POLYLINE
  8
0
 62
     0
 66
     1
 10
0
 20
0
 30
0.0
 40
0.566929
 41
0.566929
  0
VERTEX
  8
0
 10
86.9516
 20
173.542
 30
0.0
 40
0.2
 41
0.2
  0
VERTEX
  8
0
 10
86.9516
 20
184.042
 30
0.0
 40
0.2
 41
0.2
  0
SEQEND
 8
0
  0
POLYLINE
  8
0
 62
     0
 66
     1
 10
0
 20
0
 30
0.0
 40
0.566929
 41
0.566929
  0
VERTEX
  8
0
 10
86.9516
 20
184.042
 30
0.0
 40
0.2
 41
0.2
  0
VERTEX
  8
0
 10
86.9516
 20
184.06
 30
0.0
 40
0.2
 41
0.2
  0
VERTEX
  8
0
 10
86.9213
 20
184.114
 30
0.0
 40
0.2
 41
0.2
  0
VERTEX
  8
0
 10
86.8673
 20
184.143
 30
0.0
 40
0.2
 41
0.2
  0
VERTEX
  8
0
 10
86.8507
 20
184.143
 30
0.0
 40
0.2
 41
0.2
  0
SEQEND
 8
0
  0
POLYLINE
  8
0
 62
     0
 66
     1
 10
0
 20
0
 30
0.0
 40
0.566929
 41
0.566929
  0
VERTEX
  8
0
 10
86.8507
 20
184.143
 30
0.0
 40
0.2
 41
0.2
  0
VERTEX
  8
0
 10
83.851
 20
184.143
 30
0.0
 40
0.2
 41
0.2
  0
VERTEX
  8
0
 10
83.8673
 20
184.143
 30
0.0
 40
0.2
 41
0.2
  0
VERTEX
  8
0
 10
83.9212
 20
184.114
 30
0.0
 40
0.2
 41
0.2
  0
VERTEX
  8
0
 10
83.9516
 20
184.06
 30
0.0
 40
0.2
 41
0.2
  0
VERTEX
  8
0
 10
83.9516
 20
184.042
 30
0.0
 40
0.2
 41
0.2
  0
SEQEND
 8
0
  0
POLYLINE
  8
0
 62
     0
 66
     1
 10
0
 20
0
 30
0.0
 40
0.566929
 41
0.566929
  0
VERTEX
  8
0
 10
83.9516
 20
184.042
 30
0.0
 40
0.2
 41
0.2
  0
VERTEX
  8
0
 10
83.9516
 20
205.043
 30
0.0
 40
0.2
 41
0.2
  0
VERTEX
  8
0
 10
83.9516
 20
205.026
 30
0.0
 40
0.2
 41
0.2
  0
VERTEX
  8
0
 10
83.9212
 20
204.972
 30
0.0
 40
0.2
 41
0.2
  0
VERTEX
  8
0
 10
83.8673
 20
204.942
 30
0.0
 40
0.2
 41
0.2
  0
VERTEX
  8
0
 10
83.851
 20
204.942
 30
0.0
 40
0.2
 41
0.2
  0
SEQEND
 8
0
  0
POLYLINE
  8
0
 62
     0
 66
     1
 10
0
 20
0
 30
0.0
 40
0.566929
 41
0.566929
  0
VERTEX
  8
0
 10
83.851
 20
204.942
 30
0.0
 40
0.2
 41
0.2
  0
VERTEX
  8
0
 10
86.8507
 20
204.942
 30
0.0
 40
0.2
 41
0.2
  0
VERTEX
  8
0
 10
86.8673
 20
204.942
 30
0.0
 40
0.2
 41
0.2
  0
VERTEX
  8
0
 10
86.9213
 20
204.972
 30
0.0
 40
0.2
 41
0.2
  0
VERTEX
  8
0
 10
86.9516
 20
205.026
 30
0.0
 40
0.2
 41
0.2
  0
VERTEX
  8
0
 10
86.9516
 20
205.043
 30
0.0
 40
0.2
 41
0.2
  0
SEQEND
 8
0
  0
POLYLINE
  8
0
 62
     0
 66
     1
 10
0
 20
0
 30
0.0
 40
0.566929
 41
0.566929
  0
VERTEX
  8
0
 10
86.9516
 20
205.043
 30
0.0
 40
0.2
 41
0.2
  0
VERTEX
  8
0
 10
86.9516
 20
211.042
 30
0.0
 40
0.2
 41
0.2
  0
SEQEND
 8
0
  0
POLYLINE
  8
0
 62
     0
 66
     1
 10
0
 20
0
 30
0.0
 40
0.566929
 41
0.566929
  0
VERTEX
  8
0
 10
86.9516
 20
211.042
 30
0.0
 40
0.2
 41
0.2
  0
VERTEX
  8
0
 10
86.9516
 20
211.06
 30
0.0
 40
0.2
 41
0.2
  0
VERTEX
  8
0
 10
86.9213
 20
211.114
 30
0.0
 40
0.2
 41
0.2
  0
VERTEX
  8
0
 10
86.8673
 20
211.143
 30
0.0
 40
0.2
 41
0.2
  0
VERTEX
  8
0
 10
86.8507
 20
211.143
 30
0.0
 40
0.2
 41
0.2
  0
SEQEND
 8
0
  0
POLYLINE
  8
0
 62
     0
 66
     1
 10
0
 20
0
 30
0.0
 40
0.566929
 41
0.566929
  0
VERTEX
  8
0
 10
86.8507
 20
211.143
 30
0.0
 40
0.2
 41
0.2
  0
VERTEX
  8
0
 10
83.851
 20
211.143
 30
0.0
 40
0.2
 41
0.2
  0
VERTEX
  8
0
 10
83.8673
 20
211.143
 30
0.0
 40
0.2
 41
0.2
  0
VERTEX
  8
0
 10
83.9212
 20
211.114
 30
0.0
 40
0.2
 41
0.2
  0
VERTEX
  8
0
 10
83.9516
 20
211.06
 30
0.0
 40
0.2
 41
0.2
  0
VERTEX
  8
0
 10
83.9516
 20
211.042
 30
0.0
 40
0.2
 41
0.2
  0
SEQEND
 8
0
  0
POLYLINE
  8
0
 62
     0
 66
     1
 10
0
 20
0
 30
0.0
 40
0.566929
 41
0.566929
  0
VERTEX
  8
0
 10
83.9516
 20
211.042
 30
0.0
 40
0.2
 41
0.2
  0
VERTEX
  8
0
 10
83.9516
 20
232.042
 30
0.0
 40
0.2
 41
0.2
  0
VERTEX
  8
0
 10
83.9516
 20
232.026
 30
0.0
 40
0.2
 41
0.2
  0
VERTEX
  8
0
 10
83.9212
 20
231.972
 30
0.0
 40
0.2
 41
0.2
  0
VERTEX
  8
0
 10
83.8673
 20
231.942
 30
0.0
 40
0.2
 41
0.2
  0
VERTEX
  8
0
 10
83.851
 20
231.942
 30
0.0
 40
0.2
 41
0.2
  0
SEQEND
 8
0
  0
POLYLINE
  8
0
 62
     0
 66
     1
 10
0
 20
0
 30
0.0
 40
0.566929
 41
0.566929
  0
VERTEX
  8
0
 10
83.851
 20
231.942
 30
0.0
 40
0.2
 41
0.2
  0
VERTEX
  8
0
 10
86.8507
 20
231.942
 30
0.0
 40
0.2
 41
0.2
  0
VERTEX
  8
0
 10
86.8673
 20
231.942
 30
0.0
 40
0.2
 41
0.2
  0
VERTEX
  8
0
 10
86.9213
 20
231.972
 30
0.0
 40
0.2
 41
0.2
  0
VERTEX
  8
0
 10
86.9516
 20
232.026
 30
0.0
 40
0.2
 41
0.2
  0
VERTEX
  8
0
 10
86.9516
 20
232.042
 30
0.0
 40
0.2
 41
0.2
  0
SEQEND
 8
0
  0
POLYLINE
  8
0
 62
     0
 66
     1
 10
0
 20
0
 30
0.0
 40
0.566929
 41
0.566929
  0
VERTEX
  8
0
 10
86.9516
 20
232.042
 30
0.0
 40
0.2
 41
0.2
  0
VERTEX
  8
0
 10
86.9516
 20
238.042
 30
0.0
 40
0.2
 41
0.2
  0
SEQEND
 8
0
  0
POLYLINE
  8
0
 62
     0
 66
     1
 10
0
 20
0
 30
0.0
 40
0.566929
 41
0.566929
  0
VERTEX
  8
0
 10
86.9516
 20
238.042
 30
0.0
 40
0.2
 41
0.2
  0
VERTEX
  8
0
 10
86.9516
 20
238.06
 30
0.0
 40
0.2
 41
0.2
  0
VERTEX
  8
0
 10
86.9213
 20
238.114
 30
0.0
 40
0.2
 41
0.2
  0
VERTEX
  8
0
 10
86.8673
 20
238.143
 30
0.0
 40
0.2
 41
0.2
  0
VERTEX
  8
0
 10
86.8507
 20
238.143
 30
0.0
 40
0.2
 41
0.2
  0
SEQEND
 8
0
  0
POLYLINE
  8
0
 62
     0
 66
     1
 10
0
 20
0
 30
0.0
 40
0.566929
 41
0.566929
  0
VERTEX
  8
0
 10
86.8507
 20
238.143
 30
0.0
 40
0.2
 41
0.2
  0
VERTEX
  8
0
 10
83.851
 20
238.143
 30
0.0
 40
0.2
 41
0.2
  0
VERTEX
  8
0
 10
83.8673
 20
238.143
 30
0.0
 40
0.2
 41
0.2
  0
VERTEX
  8
0
 10
83.9212
 20
238.114
 30
0.0
 40
0.2
 41
0.2
  0
VERTEX
  8
0
 10
83.9516
 20
238.06
 30
0.0
 40
0.2
 41
0.2
  0
VERTEX
  8
0
 10
83.9516
 20
238.042
 30
0.0
 40
0.2
 41
0.2
  0
SEQEND
 8
0
  0
POLYLINE
  8
0
 62
     0
 66
     1
 10
0
 20
0
 30
0.0
 40
0.566929
 41
0.566929
  0
VERTEX
  8
0
 10
83.9516
 20
238.042
 30
0.0
 40
0.2
 41
0.2
  0
VERTEX
  8
0
 10
83.9516
 20
259.042
 30
0.0
 40
0.2
 41
0.2
  0
VERTEX
  8
0
 10
83.9516
 20
259.026
 30
0.0
 40
0.2
 41
0.2
  0
VERTEX
  8
0
 10
83.9212
 20
258.972
 30
0.0
 40
0.2
 41
0.2
  0
VERTEX
  8
0
 10
83.8673
 20
258.942
 30
0.0
 40
0.2
 41
0.2
  0
VERTEX
  8
0
 10
83.851
 20
258.942
 30
0.0
 40
0.2
 41
0.2
  0
SEQEND
 8
0
  0
POLYLINE
  8
0
 62
     0
 66
     1
 10
0
 20
0
 30
0.0
 40
0.566929
 41
0.566929
  0
VERTEX
  8
0
 10
83.851
 20
258.942
 30
0.0
 40
0.2
 41
0.2
  0
VERTEX
  8
0
 10
86.8507
 20
258.942
 30
0.0
 40
0.2
 41
0.2
  0
VERTEX
  8
0
 10
86.8673
 20
258.942
 30
0.0
 40
0.2
 41
0.2
  0
VERTEX
  8
0
 10
86.9213
 20
258.972
 30
0.0
 40
0.2
 41
0.2
  0
VERTEX
  8
0
 10
86.9516
 20
259.026
 30
0.0
 40
0.2
 41
0.2
  0
VERTEX
  8
0
 10
86.9516
 20
259.042
 30
0.0
 40
0.2
 41
0.2
  0
SEQEND
 8
0
  0
POLYLINE
  8
0
 62
     0
 66
     1
 10
0
 20
0
 30
0.0
 40
0.566929
 41
0.566929
  0
VERTEX
  8
0
 10
86.9516
 20
259.042
 30
0.0
 40
0.2
 41
0.2
  0
VERTEX
  8
0
 10
86.9516
 20
265.042
 30
0.0
 40
0.2
 41
0.2
  0
SEQEND
 8
0
  0
POLYLINE
  8
0
 62
     0
 66
     1
 10
0
 20
0
 30
0.0
 40
0.566929
 41
0.566929
  0
VERTEX
  8
0
 10
86.9516
 20
265.042
 30
0.0
 40
0.2
 41
0.2
  0
VERTEX
  8
0
 10
86.9516
 20
265.06
 30
0.0
 40
0.2
 41
0.2
  0
VERTEX
  8
0
 10
86.9213
 20
265.114
 30
0.0
 40
0.2
 41
0.2
  0
VERTEX
  8
0
 10
86.8673
 20
265.143
 30
0.0
 40
0.2
 41
0.2
  0
VERTEX
  8
0
 10
86.8507
 20
265.143
 30
0.0
 40
0.2
 41
0.2
  0
SEQEND
 8
0
  0
POLYLINE
  8
0
 62
     0
 66
     1
 10
0
 20
0
 30
0.0
 40
0.566929
 41
0.566929
  0
VERTEX
  8
0
 10
86.8507
 20
265.143
 30
0.0
 40
0.2
 41
0.2
  0
VERTEX
  8
0
 10
83.851
 20
265.143
 30
0.0
 40
0.2
 41
0.2
  0
VERTEX
  8
0
 10
83.8673
 20
265.143
 30
0.0
 40
0.2
 41
0.2
  0
VERTEX
  8
0
 10
83.9212
 20
265.114
 30
0.0
 40
0.2
 41
0.2
  0
VERTEX
  8
0
 10
83.9516
 20
265.06
 30
0.0
 40
0.2
 41
0.2
  0
VERTEX
  8
0
 10
83.9516
 20
265.042
 30
0.0
 40
0.2
 41
0.2
  0
SEQEND
 8
0
  0
POLYLINE
  8
0
 62
     0
 66
     1
 10
0
 20
0
 30
0.0
 40
0.566929
 41
0.566929
  0
VERTEX
  8
0
 10
83.9516
 20
265.042
 30
0.0
 40
0.2
 41
0.2
  0
VERTEX
  8
0
 10
83.9516
 20
286.042
 30
0.0
 40
0.2
 41
0.2
  0
VERTEX
  8
0
 10
83.9516
 20
286.026
 30
0.0
 40
0.2
 41
0.2
  0
VERTEX
  8
0
 10
83.9212
 20
285.972
 30
0.0
 40
0.2
 41
0.2
  0
VERTEX
  8
0
 10
83.8673
 20
285.942
 30
0.0
 40
0.2
 41
0.2
  0
VERTEX
  8
0
 10
83.851
 20
285.942
 30
0.0
 40
0.2
 41
0.2
  0
SEQEND
 8
0
  0
POLYLINE
  8
0
 62
     0
 66
     1
 10
0
 20
0
 30
0.0
 40
0.566929
 41
0.566929
  0
VERTEX
  8
0
 10
83.851
 20
285.942
 30
0.0
 40
0.2
 41
0.2
  0
VERTEX
  8
0
 10
86.8507
 20
285.942
 30
0.0
 40
0.2
 41
0.2
  0
VERTEX
  8
0
 10
86.8673
 20
285.942
 30
0.0
 40
0.2
 41
0.2
  0
VERTEX
  8
0
 10
86.9213
 20
285.972
 30
0.0
 40
0.2
 41
0.2
  0
VERTEX
  8
0
 10
86.9516
 20
286.026
 30
0.0
 40
0.2
 41
0.2
  0
VERTEX
  8
0
 10
86.9516
 20
286.042
 30
0.0
 40
0.2
 41
0.2
  0
SEQEND
 8
0
  0
POLYLINE
  8
0
 62
     0
 66
     1
 10
0
 20
0
 30
0.0
 40
0.566929
 41
0.566929
  0
VERTEX
  8
0
 10
86.9516
 20
286.042
 30
0.0
 40
0.2
 41
0.2
  0
VERTEX
  8
0
 10
86.9516
 20
292.042
 30
0.0
 40
0.2
 41
0.2
  0
SEQEND
 8
0
  0
POLYLINE
  8
0
 62
     0
 66
     1
 10
0
 20
0
 30
0.0
 40
0.566929
 41
0.566929
  0
VERTEX
  8
0
 10
86.9516
 20
292.042
 30
0.0
 40
0.2
 41
0.2
  0
VERTEX
  8
0
 10
86.9516
 20
292.06
 30
0.0
 40
0.2
 41
0.2
  0
VERTEX
  8
0
 10
86.9213
 20
292.114
 30
0.0
 40
0.2
 41
0.2
  0
VERTEX
  8
0
 10
86.8673
 20
292.143
 30
0.0
 40
0.2
 41
0.2
  0
VERTEX
  8
0
 10
86.8507
 20
292.143
 30
0.0
 40
0.2
 41
0.2
  0
SEQEND
 8
0
  0
POLYLINE
  8
0
 62
     0
 66
     1
 10
0
 20
0
 30
0.0
 40
0.566929
 41
0.566929
  0
VERTEX
  8
0
 10
86.8507
 20
292.143
 30
0.0
 40
0.2
 41
0.2
  0
VERTEX
  8
0
 10
83.851
 20
292.143
 30
0.0
 40
0.2
 41
0.2
  0
VERTEX
  8
0
 10
83.8673
 20
292.143
 30
0.0
 40
0.2
 41
0.2
  0
VERTEX
  8
0
 10
83.9212
 20
292.114
 30
0.0
 40
0.2
 41
0.2
  0
VERTEX
  8
0
 10
83.9516
 20
292.06
 30
0.0
 40
0.2
 41
0.2
  0
VERTEX
  8
0
 10
83.9516
 20
292.042
 30
0.0
 40
0.2
 41
0.2
  0
SEQEND
 8
0
  0
POLYLINE
  8
0
 62
     0
 66
     1
 10
0
 20
0
 30
0.0
 40
0.566929
 41
0.566929
  0
VERTEX
  8
0
 10
83.9516
 20
292.042
 30
0.0
 40
0.2
 41
0.2
  0
VERTEX
  8
0
 10
83.9516
 20
313.042
 30
0.0
 40
0.2
 41
0.2
  0
VERTEX
  8
0
 10
83.9516
 20
313.025
 30
0.0
 40
0.2
 41
0.2
  0
VERTEX
  8
0
 10
83.9212
 20
312.972
 30
0.0
 40
0.2
 41
0.2
  0
VERTEX
  8
0
 10
83.8673
 20
312.941
 30
0.0
 40
0.2
 41
0.2
  0
VERTEX
  8
0
 10
83.851
 20
312.941
 30
0.0
 40
0.2
 41
0.2
  0
SEQEND
 8
0
  0
POLYLINE
  8
0
 62
     0
 66
     1
 10
0
 20
0
 30
0.0
 40
0.566929
 41
0.566929
  0
VERTEX
  8
0
 10
83.851
 20
312.941
 30
0.0
 40
0.2
 41
0.2
  0
VERTEX
  8
0
 10
86.8507
 20
312.941
 30
0.0
 40
0.2
 41
0.2
  0
VERTEX
  8
0
 10
86.8673
 20
312.941
 30
0.0
 40
0.2
 41
0.2
  0
VERTEX
  8
0
 10
86.9213
 20
312.972
 30
0.0
 40
0.2
 41
0.2
  0
VERTEX
  8
0
 10
86.9516
 20
313.025
 30
0.0
 40
0.2
 41
0.2
  0
VERTEX
  8
0
 10
86.9516
 20
313.042
 30
0.0
 40
0.2
 41
0.2
  0
SEQEND
 8
0
  0
POLYLINE
  8
0
 62
     0
 66
     1
 10
0
 20
0
 30
0.0
 40
0.566929
 41
0.566929
  0
VERTEX
  8
0
 10
86.9516
 20
313.042
 30
0.0
 40
0.2
 41
0.2
  0
VERTEX
  8
0
 10
86.9516
 20
323.543
 30
0.0
 40
0.2
 41
0.2
  0
SEQEND
 8
0
  0
POLYLINE
  8
0
 62
     0
 66
     1
 10
0
 20
0
 30
0.0
 40
0.566929
 41
0.566929
  0
VERTEX
  8
0
 10
86.9516
 20
323.543
 30
0.0
 40
0.2
 41
0.2
  0
VERTEX
  8
0
 10
86.9516
 20
326.543
 30
0.0
 40
0.2
 41
0.2
  0
VERTEX
  8
0
 10
86.9516
 20
326.561
 30
0.0
 40
0.2
 41
0.2
  0
VERTEX
  8
0
 10
86.9213
 20
326.614
 30
0.0
 40
0.2
 41
0.2
  0
VERTEX
  8
0
 10
86.8673
 20
326.643
 30
0.0
 40
0.2
 41
0.2
  0
VERTEX
  8
0
 10
86.8507
 20
326.643
 30
0.0
 40
0.2
 41
0.2
  0
SEQEND
 8
0
  0
POLYLINE
  8
0
 62
     0
 66
     1
 10
0
 20
0
 30
0.0
 40
0.566929
 41
0.566929
  0
VERTEX
  8
0
 10
86.8507
 20
326.643
 30
0.0
 40
0.2
 41
0.2
  0
VERTEX
  8
0
 10
83.851
 20
326.643
 30
0.0
 40
0.2
 41
0.2
  0
SEQEND
 8
0
  0
POLYLINE
  8
0
 62
     0
 66
     1
 10
0
 20
0
 30
0.0
 40
0.566929
 41
0.566929
  0
VERTEX
  8
0
 10
83.851
 20
326.643
 30
0.0
 40
0.2
 41
0.2
  0
VERTEX
  8
0
 10
67.8505
 20
326.643
 30
0.0
 40
0.2
 41
0.2
  0
SEQEND
 8
0
  0
POLYLINE
  8
0
 62
     0
 66
     1
 10
0
 20
0
 30
0.0
 40
0.566929
 41
0.566929
  0
VERTEX
  8
0
 10
67.8505
 20
326.643
 30
0.0
 40
0.2
 41
0.2
  0
VERTEX
  8
0
 10
67.8325
 20
326.643
 30
0.0
 40
0.2
 41
0.2
  0
VERTEX
  8
0
 10
67.7788
 20
326.614
 30
0.0
 40
0.2
 41
0.2
  0
VERTEX
  8
0
 10
67.7499
 20
326.561
 30
0.0
 40
0.2
 41
0.2
  0
VERTEX
  8
0
 10
67.7499
 20
326.543
 30
0.0
 40
0.2
 41
0.2
  0
SEQEND
 8
0
  0
POLYLINE
  8
0
 62
     0
 66
     1
 10
0
 20
0
 30
0.0
 40
0.566929
 41
0.566929
  0
VERTEX
  8
0
 10
67.7499
 20
326.543
 30
0.0
 40
0.2
 41
0.2
  0
VERTEX
  8
0
 10
67.7499
 20
323.543
 30
0.0
 40
0.2
 41
0.2
  0
VERTEX
  8
0
 10
67.7499
 20
323.561
 30
0.0
 40
0.2
 41
0.2
  0
VERTEX
  8
0
 10
67.7788
 20
323.614
 30
0.0
 40
0.2
 41
0.2
  0
VERTEX
  8
0
 10
67.8325
 20
323.643
 30
0.0
 40
0.2
 41
0.2
  0
VERTEX
  8
0
 10
67.8505
 20
323.643
 30
0.0
 40
0.2
 41
0.2
  0
SEQEND
 8
0
  0
POLYLINE
  8
0
 62
     0
 66
     1
 10
0
 20
0
 30
0.0
 40
0.566929
 41
0.566929
  0
VERTEX
  8
0
 10
67.8505
 20
323.643
 30
0.0
 40
0.2
 41
0.2
  0
VERTEX
  8
0
 10
46.8507
 20
323.643
 30
0.0
 40
0.2
 41
0.2
  0
VERTEX
  8
0
 10
46.8672
 20
323.643
 30
0.0
 40
0.2
 41
0.2
  0
VERTEX
  8
0
 10
46.9209
 20
323.614
 30
0.0
 40
0.2
 41
0.2
  0
VERTEX
  8
0
 10
46.9512
 20
323.561
 30
0.0
 40
0.2
 41
0.2
  0
VERTEX
  8
0
 10
46.9512
 20
323.543
 30
0.0
 40
0.2
 41
0.2
  0
SEQEND
 8
0
  0
POLYLINE
  8
0
 62
     0
 66
     1
 10
0
 20
0
 30
0.0
 40
0.566929
 41
0.566929
  0
VERTEX
  8
0
 10
46.9512
 20
323.543
 30
0.0
 40
0.2
 41
0.2
  0
VERTEX
  8
0
 10
46.9512
 20
326.543
 30
0.0
 40
0.2
 41
0.2
  0
VERTEX
  8
0
 10
46.9512
 20
326.561
 30
0.0
 40
0.2
 41
0.2
  0
VERTEX
  8
0
 10
46.9209
 20
326.614
 30
0.0
 40
0.2
 41
0.2
  0
VERTEX
  8
0
 10
46.8672
 20
326.643
 30
0.0
 40
0.2
 41
0.2
  0
VERTEX
  8
0
 10
46.8507
 20
326.643
 30
0.0
 40
0.2
 41
0.2
  0
SEQEND
 8
0
  0
POLYLINE
  8
0
 62
     0
 66
     1
 10
0
 20
0
 30
0.0
 40
0.566929
 41
0.566929
  0
VERTEX
  8
0
 10
46.8507
 20
326.643
 30
0.0
 40
0.2
 41
0.2
  0
VERTEX
  8
0
 10
40.8506
 20
326.643
 30
0.0
 40
0.2
 41
0.2
  0
SEQEND
 8
0
  0
POLYLINE
  8
0
 62
     0
 66
     1
 10
0
 20
0
 30
0.0
 40
0.566929
 41
0.566929
  0
VERTEX
  8
0
 10
40.8506
 20
326.643
 30
0.0
 40
0.2
 41
0.2
  0
VERTEX
  8
0
 10
40.8326
 20
326.643
 30
0.0
 40
0.2
 41
0.2
  0
VERTEX
  8
0
 10
40.779
 20
326.614
 30
0.0
 40
0.2
 41
0.2
  0
VERTEX
  8
0
 10
40.7501
 20
326.561
 30
0.0
 40
0.2
 41
0.2
  0
VERTEX
  8
0
 10
40.7501
 20
326.543
 30
0.0
 40
0.2
 41
0.2
  0
SEQEND
 8
0
  0
POLYLINE
  8
0
 62
     0
 66
     1
 10
0
 20
0
 30
0.0
 40
0.566929
 41
0.566929
  0
VERTEX
  8
0
 10
40.7501
 20
326.543
 30
0.0
 40
0.2
 41
0.2
  0
VERTEX
  8
0
 10
40.7501
 20
323.543
 30
0.0
 40
0.2
 41
0.2
  0
VERTEX
  8
0
 10
40.7501
 20
323.561
 30
0.0
 40
0.2
 41
0.2
  0
VERTEX
  8
0
 10
40.779
 20
323.614
 30
0.0
 40
0.2
 41
0.2
  0
VERTEX
  8
0
 10
40.8326
 20
323.643
 30
0.0
 40
0.2
 41
0.2
  0
VERTEX
  8
0
 10
40.8506
 20
323.643
 30
0.0
 40
0.2
 41
0.2
  0
SEQEND
 8
0
  0
POLYLINE
  8
0
 62
     0
 66
     1
 10
0
 20
0
 30
0.0
 40
0.566929
 41
0.566929
  0
VERTEX
  8
0
 10
40.8506
 20
323.643
 30
0.0
 40
0.2
 41
0.2
  0
VERTEX
  8
0
 10
19.8506
 20
323.643
 30
0.0
 40
0.2
 41
0.2
  0
VERTEX
  8
0
 10
19.8672
 20
323.643
 30
0.0
 40
0.2
 41
0.2
  0
VERTEX
  8
0
 10
19.9209
 20
323.614
 30
0.0
 40
0.2
 41
0.2
  0
VERTEX
  8
0
 10
19.9512
 20
323.561
 30
0.0
 40
0.2
 41
0.2
  0
VERTEX
  8
0
 10
19.9512
 20
323.543
 30
0.0
 40
0.2
 41
0.2
  0
SEQEND
 8
0
  0
POLYLINE
  8
0
 62
     0
 66
     1
 10
0
 20
0
 30
0.0
 40
0.566929
 41
0.566929
  0
VERTEX
  8
0
 10
19.9512
 20
323.543
 30
0.0
 40
0.2
 41
0.2
  0
VERTEX
  8
0
 10
19.9512
 20
326.543
 30
0.0
 40
0.2
 41
0.2
  0
VERTEX
  8
0
 10
19.9512
 20
326.561
 30
0.0
 40
0.2
 41
0.2
  0
VERTEX
  8
0
 10
19.9209
 20
326.614
 30
0.0
 40
0.2
 41
0.2
  0
VERTEX
  8
0
 10
19.8672
 20
326.643
 30
0.0
 40
0.2
 41
0.2
  0
VERTEX
  8
0
 10
19.8506
 20
326.643
 30
0.0
 40
0.2
 41
0.2
  0
SEQEND
 8
0
  0
POLYLINE
  8
0
 62
     0
 66
     1
 10
0
 20
0
 30
0.0
 40
0.566929
 41
0.566929
  0
VERTEX
  8
0
 10
19.8506
 20
326.643
 30
0.0
 40
0.2
 41
0.2
  0
VERTEX
  8
0
 10
3.85025
 20
326.643
 30
0.0
 40
0.2
 41
0.2
  0
SEQEND
 8
0
  0
POLYLINE
  8
0
 62
     0
 66
     1
 10
0
 20
0
 30
0.0
 40
0.566929
 41
0.566929
  0
VERTEX
  8
0
 10
3.85025
 20
326.643
 30
0.0
 40
0.2
 41
0.2
  0
VERTEX
  8
0
 10
0.850251
 20
326.643
 30
0.0
 40
0.2
 41
0.2
  0
VERTEX
  8
0
 10
0.832337
 20
326.643
 30
0.0
 40
0.2
 41
0.2
  0
VERTEX
  8
0
 10
0.778591
 20
326.614
 30
0.0
 40
0.2
 41
0.2
  0
VERTEX
  8
0
 10
0.749653
 20
326.561
 30
0.0
 40
0.2
 41
0.2
  0
VERTEX
  8
0
 10
0.749653
 20
326.543
 30
0.0
 40
0.2
 41
0.2
  0
SEQEND
 8
0
  0
POLYLINE
  8
0
 62
     0
 66
     1
 10
0
 20
0
 30
0.0
 40
0.566929
 41
0.566929
  0
VERTEX
  8
0
 10
0.749653
 20
326.543
 30
0.0
 40
0.2
 41
0.2
  0
VERTEX
  8
0
 10
0.749653
 20
323.543
 30
0.0
 40
0.2
 41
0.2
  0
SEQEND
 8
0
  0
POLYLINE
  8
0
 62
     0
 66
     1
 10
0
 20
0
 30
0.0
 40
0.566929
 41
0.566929
  0
VERTEX
  8
0
 10
0.749653
 20
323.543
 30
0.0
 40
0.2
 41
0.2
  0
VERTEX
  8
0
 10
0.749653
 20
313.042
 30
0.0
 40
0.2
 41
0.2
  0
SEQEND
 8
0
  0
POLYLINE
  8
0
 62
     0
 66
     1
 10
0
 20
0
 30
0.0
 40
0.566929
 41
0.566929
  0
VERTEX
  8
0
 10
0.749653
 20
313.042
 30
0.0
 40
0.2
 41
0.2
  0
VERTEX
  8
0
 10
0.749653
 20
313.025
 30
0.0
 40
0.2
 41
0.2
  0
VERTEX
  8
0
 10
0.778591
 20
312.972
 30
0.0
 40
0.2
 41
0.2
  0
VERTEX
  8
0
 10
0.832337
 20
312.941
 30
0.0
 40
0.2
 41
0.2
  0
VERTEX
  8
0
 10
0.850251
 20
312.941
 30
0.0
 40
0.2
 41
0.2
  0
SEQEND
 8
0
  0
POLYLINE
  8
0
 62
     0
 66
     1
 10
0
 20
0
 30
0.0
 40
0.566929
 41
0.566929
  0
VERTEX
  8
0
 10
0.850251
 20
312.941
 30
0.0
 40
0.2
 41
0.2
  0
VERTEX
  8
0
 10
3.85025
 20
312.941
 30
0.0
 40
0.2
 41
0.2
  0
VERTEX
  8
0
 10
3.83233
 20
312.941
 30
0.0
 40
0.2
 41
0.2
  0
VERTEX
  8
0
 10
3.77857
 20
312.972
 30
0.0
 40
0.2
 41
0.2
  0
VERTEX
  8
0
 10
3.74964
 20
313.025
 30
0.0
 40
0.2
 41
0.2
  0
VERTEX
  8
0
 10
3.74964
 20
313.042
 30
0.0
 40
0.2
 41
0.2
  0
SEQEND
 8
0
  0
POLYLINE
  8
0
 62
     0
 66
     1
 10
0
 20
0
 30
0.0
 40
0.566929
 41
0.566929
  0
VERTEX
  8
0
 10
3.74964
 20
313.042
 30
0.0
 40
0.2
 41
0.2
  0
VERTEX
  8
0
 10
3.74964
 20
292.042
 30
0.0
 40
0.2
 41
0.2
  0
VERTEX
  8
0
 10
3.74964
 20
292.06
 30
0.0
 40
0.2
 41
0.2
  0
VERTEX
  8
0
 10
3.77857
 20
292.114
 30
0.0
 40
0.2
 41
0.2
  0
VERTEX
  8
0
 10
3.83233
 20
292.143
 30
0.0
 40
0.2
 41
0.2
  0
VERTEX
  8
0
 10
3.85025
 20
292.143
 30
0.0
 40
0.2
 41
0.2
  0
SEQEND
 8
0
  0
POLYLINE
  8
0
 62
     0
 66
     1
 10
0
 20
0
 30
0.0
 40
0.566929
 41
0.566929
  0
VERTEX
  8
0
 10
3.85025
 20
292.143
 30
0.0
 40
0.2
 41
0.2
  0
VERTEX
  8
0
 10
0.850251
 20
292.143
 30
0.0
 40
0.2
 41
0.2
  0
VERTEX
  8
0
 10
0.832337
 20
292.143
 30
0.0
 40
0.2
 41
0.2
  0
VERTEX
  8
0
 10
0.778591
 20
292.114
 30
0.0
 40
0.2
 41
0.2
  0
VERTEX
  8
0
 10
0.749653
 20
292.06
 30
0.0
 40
0.2
 41
0.2
  0
VERTEX
  8
0
 10
0.749653
 20
292.042
 30
0.0
 40
0.2
 41
0.2
  0
SEQEND
 8
0
  0
POLYLINE
  8
0
 62
     0
 66
     1
 10
0
 20
0
 30
0.0
 40
0.566929
 41
0.566929
  0
VERTEX
  8
0
 10
0.749653
 20
292.042
 30
0.0
 40
0.2
 41
0.2
  0
VERTEX
  8
0
 10
0.749653
 20
286.042
 30
0.0
 40
0.2
 41
0.2
  0
SEQEND
 8
0
  0
POLYLINE
  8
0
 62
     0
 66
     1
 10
0
 20
0
 30
0.0
 40
0.566929
 41
0.566929
  0
VERTEX
  8
0
 10
0.749653
 20
286.042
 30
0.0
 40
0.2
 41
0.2
  0
VERTEX
  8
0
 10
0.749653
 20
286.026
 30
0.0
 40
0.2
 41
0.2
  0
VERTEX
  8
0
 10
0.778591
 20
285.972
 30
0.0
 40
0.2
 41
0.2
  0
VERTEX
  8
0
 10
0.832337
 20
285.942
 30
0.0
 40
0.2
 41
0.2
  0
VERTEX
  8
0
 10
0.850251
 20
285.942
 30
0.0
 40
0.2
 41
0.2
  0
SEQEND
 8
0
  0
POLYLINE
  8
0
 62
     0
 66
     1
 10
0
 20
0
 30
0.0
 40
0.566929
 41
0.566929
  0
VERTEX
  8
0
 10
0.850251
 20
285.942
 30
0.0
 40
0.2
 41
0.2
  0
VERTEX
  8
0
 10
3.85025
 20
285.942
 30
0.0
 40
0.2
 41
0.2
  0
VERTEX
  8
0
 10
3.83233
 20
285.942
 30
0.0
 40
0.2
 41
0.2
  0
VERTEX
  8
0
 10
3.77857
 20
285.972
 30
0.0
 40
0.2
 41
0.2
  0
VERTEX
  8
0
 10
3.74964
 20
286.026
 30
0.0
 40
0.2
 41
0.2
  0
VERTEX
  8
0
 10
3.74964
 20
286.042
 30
0.0
 40
0.2
 41
0.2
  0
SEQEND
 8
0
  0
POLYLINE
  8
0
 62
     0
 66
     1
 10
0
 20
0
 30
0.0
 40
0.566929
 41
0.566929
  0
VERTEX
  8
0
 10
3.74964
 20
286.042
 30
0.0
 40
0.2
 41
0.2
  0
VERTEX
  8
0
 10
3.74964
 20
265.042
 30
0.0
 40
0.2
 41
0.2
  0
VERTEX
  8
0
 10
3.74964
 20
265.06
 30
0.0
 40
0.2
 41
0.2
  0
VERTEX
  8
0
 10
3.77857
 20
265.114
 30
0.0
 40
0.2
 41
0.2
  0
VERTEX
  8
0
 10
3.83233
 20
265.143
 30
0.0
 40
0.2
 41
0.2
  0
VERTEX
  8
0
 10
3.85025
 20
265.143
 30
0.0
 40
0.2
 41
0.2
  0
SEQEND
 8
0
  0
POLYLINE
  8
0
 62
     0
 66
     1
 10
0
 20
0
 30
0.0
 40
0.566929
 41
0.566929
  0
VERTEX
  8
0
 10
3.85025
 20
265.143
 30
0.0
 40
0.2
 41
0.2
  0
VERTEX
  8
0
 10
0.850251
 20
265.143
 30
0.0
 40
0.2
 41
0.2
  0
VERTEX
  8
0
 10
0.832337
 20
265.143
 30
0.0
 40
0.2
 41
0.2
  0
VERTEX
  8
0
 10
0.778591
 20
265.114
 30
0.0
 40
0.2
 41
0.2
  0
VERTEX
  8
0
 10
0.749653
 20
265.06
 30
0.0
 40
0.2
 41
0.2
  0
VERTEX
  8
0
 10
0.749653
 20
265.042
 30
0.0
 40
0.2
 41
0.2
  0
SEQEND
 8
0
  0
POLYLINE
  8
0
 62
     0
 66
     1
 10
0
 20
0
 30
0.0
 40
0.566929
 41
0.566929
  0
VERTEX
  8
0
 10
0.749653
 20
265.042
 30
0.0
 40
0.2
 41
0.2
  0
VERTEX
  8
0
 10
0.749653
 20
259.042
 30
0.0
 40
0.2
 41
0.2
  0
SEQEND
 8
0
  0
POLYLINE
  8
0
 62
     0
 66
     1
 10
0
 20
0
 30
0.0
 40
0.566929
 41
0.566929
  0
VERTEX
  8
0
 10
0.749653
 20
259.042
 30
0.0
 40
0.2
 41
0.2
  0
VERTEX
  8
0
 10
0.749653
 20
259.026
 30
0.0
 40
0.2
 41
0.2
  0
VERTEX
  8
0
 10
0.778591
 20
258.972
 30
0.0
 40
0.2
 41
0.2
  0
VERTEX
  8
0
 10
0.832337
 20
258.942
 30
0.0
 40
0.2
 41
0.2
  0
VERTEX
  8
0
 10
0.850251
 20
258.942
 30
0.0
 40
0.2
 41
0.2
  0
SEQEND
 8
0
  0
POLYLINE
  8
0
 62
     0
 66
     1
 10
0
 20
0
 30
0.0
 40
0.566929
 41
0.566929
  0
VERTEX
  8
0
 10
0.850251
 20
258.942
 30
0.0
 40
0.2
 41
0.2
  0
VERTEX
  8
0
 10
3.85025
 20
258.942
 30
0.0
 40
0.2
 41
0.2
  0
VERTEX
  8
0
 10
3.83233
 20
258.942
 30
0.0
 40
0.2
 41
0.2
  0
VERTEX
  8
0
 10
3.77857
 20
258.972
 30
0.0
 40
0.2
 41
0.2
  0
VERTEX
  8
0
 10
3.74964
 20
259.026
 30
0.0
 40
0.2
 41
0.2
  0
VERTEX
  8
0
 10
3.74964
 20
259.042
 30
0.0
 40
0.2
 41
0.2
  0
SEQEND
 8
0
  0
POLYLINE
  8
0
 62
     0
 66
     1
 10
0
 20
0
 30
0.0
 40
0.566929
 41
0.566929
  0
VERTEX
  8
0
 10
3.74964
 20
259.042
 30
0.0
 40
0.2
 41
0.2
  0
VERTEX
  8
0
 10
3.74964
 20
238.042
 30
0.0
 40
0.2
 41
0.2
  0
VERTEX
  8
0
 10
3.74964
 20
238.06
 30
0.0
 40
0.2
 41
0.2
  0
VERTEX
  8
0
 10
3.77857
 20
238.114
 30
0.0
 40
0.2
 41
0.2
  0
VERTEX
  8
0
 10
3.83233
 20
238.143
 30
0.0
 40
0.2
 41
0.2
  0
VERTEX
  8
0
 10
3.85025
 20
238.143
 30
0.0
 40
0.2
 41
0.2
  0
SEQEND
 8
0
  0
POLYLINE
  8
0
 62
     0
 66
     1
 10
0
 20
0
 30
0.0
 40
0.566929
 41
0.566929
  0
VERTEX
  8
0
 10
3.85025
 20
238.143
 30
0.0
 40
0.2
 41
0.2
  0
VERTEX
  8
0
 10
0.850251
 20
238.143
 30
0.0
 40
0.2
 41
0.2
  0
VERTEX
  8
0
 10
0.832337
 20
238.143
 30
0.0
 40
0.2
 41
0.2
  0
VERTEX
  8
0
 10
0.778591
 20
238.114
 30
0.0
 40
0.2
 41
0.2
  0
VERTEX
  8
0
 10
0.749653
 20
238.06
 30
0.0
 40
0.2
 41
0.2
  0
VERTEX
  8
0
 10
0.749653
 20
238.042
 30
0.0
 40
0.2
 41
0.2
  0
SEQEND
 8
0
  0
POLYLINE
  8
0
 62
     0
 66
     1
 10
0
 20
0
 30
0.0
 40
0.566929
 41
0.566929
  0
VERTEX
  8
0
 10
0.749653
 20
238.042
 30
0.0
 40
0.2
 41
0.2
  0
VERTEX
  8
0
 10
0.749653
 20
232.042
 30
0.0
 40
0.2
 41
0.2
  0
SEQEND
 8
0
  0
POLYLINE
  8
0
 62
     0
 66
     1
 10
0
 20
0
 30
0.0
 40
0.566929
 41
0.566929
  0
VERTEX
  8
0
 10
0.749653
 20
232.042
 30
0.0
 40
0.2
 41
0.2
  0
VERTEX
  8
0
 10
0.749653
 20
232.026
 30
0.0
 40
0.2
 41
0.2
  0
VERTEX
  8
0
 10
0.778591
 20
231.972
 30
0.0
 40
0.2
 41
0.2
  0
VERTEX
  8
0
 10
0.832337
 20
231.942
 30
0.0
 40
0.2
 41
0.2
  0
VERTEX
  8
0
 10
0.850251
 20
231.942
 30
0.0
 40
0.2
 41
0.2
  0
SEQEND
 8
0
  0
POLYLINE
  8
0
 62
     0
 66
     1
 10
0
 20
0
 30
0.0
 40
0.566929
 41
0.566929
  0
VERTEX
  8
0
 10
0.850251
 20
231.942
 30
0.0
 40
0.2
 41
0.2
  0
VERTEX
  8
0
 10
3.85025
 20
231.942
 30
0.0
 40
0.2
 41
0.2
  0
VERTEX
  8
0
 10
3.83233
 20
231.942
 30
0.0
 40
0.2
 41
0.2
  0
VERTEX
  8
0
 10
3.77857
 20
231.972
 30
0.0
 40
0.2
 41
0.2
  0
VERTEX
  8
0
 10
3.74964
 20
232.026
 30
0.0
 40
0.2
 41
0.2
  0
VERTEX
  8
0
 10
3.74964
 20
232.042
 30
0.0
 40
0.2
 41
0.2
  0
SEQEND
 8
0
  0
POLYLINE
  8
0
 62
     0
 66
     1
 10
0
 20
0
 30
0.0
 40
0.566929
 41
0.566929
  0
VERTEX
  8
0
 10
3.74964
 20
232.042
 30
0.0
 40
0.2
 41
0.2
  0
VERTEX
  8
0
 10
3.74964
 20
211.042
 30
0.0
 40
0.2
 41
0.2
  0
VERTEX
  8
0
 10
3.74964
 20
211.06
 30
0.0
 40
0.2
 41
0.2
  0
VERTEX
  8
0
 10
3.77857
 20
211.114
 30
0.0
 40
0.2
 41
0.2
  0
VERTEX
  8
0
 10
3.83233
 20
211.143
 30
0.0
 40
0.2
 41
0.2
  0
VERTEX
  8
0
 10
3.85025
 20
211.143
 30
0.0
 40
0.2
 41
0.2
  0
SEQEND
 8
0
  0
POLYLINE
  8
0
 62
     0
 66
     1
 10
0
 20
0
 30
0.0
 40
0.566929
 41
0.566929
  0
VERTEX
  8
0
 10
3.85025
 20
211.143
 30
0.0
 40
0.2
 41
0.2
  0
VERTEX
  8
0
 10
0.850251
 20
211.143
 30
0.0
 40
0.2
 41
0.2
  0
VERTEX
  8
0
 10
0.832337
 20
211.143
 30
0.0
 40
0.2
 41
0.2
  0
VERTEX
  8
0
 10
0.778591
 20
211.114
 30
0.0
 40
0.2
 41
0.2
  0
VERTEX
  8
0
 10
0.749653
 20
211.06
 30
0.0
 40
0.2
 41
0.2
  0
VERTEX
  8
0
 10
0.749653
 20
211.042
 30
0.0
 40
0.2
 41
0.2
  0
SEQEND
 8
0
  0
POLYLINE
  8
0
 62
     0
 66
     1
 10
0
 20
0
 30
0.0
 40
0.566929
 41
0.566929
  0
VERTEX
  8
0
 10
0.749653
 20
211.042
 30
0.0
 40
0.2
 41
0.2
  0
VERTEX
  8
0
 10
0.749653
 20
205.043
 30
0.0
 40
0.2
 41
0.2
  0
SEQEND
 8
0
  0
POLYLINE
  8
0
 62
     0
 66
     1
 10
0
 20
0
 30
0.0
 40
0.566929
 41
0.566929
  0
VERTEX
  8
0
 10
0.749653
 20
205.043
 30
0.0
 40
0.2
 41
0.2
  0
VERTEX
  8
0
 10
0.749653
 20
205.026
 30
0.0
 40
0.2
 41
0.2
  0
VERTEX
  8
0
 10
0.778591
 20
204.972
 30
0.0
 40
0.2
 41
0.2
  0
VERTEX
  8
0
 10
0.832337
 20
204.942
 30
0.0
 40
0.2
 41
0.2
  0
VERTEX
  8
0
 10
0.850251
 20
204.942
 30
0.0
 40
0.2
 41
0.2
  0
SEQEND
 8
0
  0
POLYLINE
  8
0
 62
     0
 66
     1
 10
0
 20
0
 30
0.0
 40
0.566929
 41
0.566929
  0
VERTEX
  8
0
 10
0.850251
 20
204.942
 30
0.0
 40
0.2
 41
0.2
  0
VERTEX
  8
0
 10
3.85025
 20
204.942
 30
0.0
 40
0.2
 41
0.2
  0
VERTEX
  8
0
 10
3.83233
 20
204.942
 30
0.0
 40
0.2
 41
0.2
  0
VERTEX
  8
0
 10
3.77857
 20
204.972
 30
0.0
 40
0.2
 41
0.2
  0
VERTEX
  8
0
 10
3.74964
 20
205.026
 30
0.0
 40
0.2
 41
0.2
  0
VERTEX
  8
0
 10
3.74964
 20
205.043
 30
0.0
 40
0.2
 41
0.2
  0
SEQEND
 8
0
  0
POLYLINE
  8
0
 62
     0
 66
     1
 10
0
 20
0
 30
0.0
 40
0.566929
 41
0.566929
  0
VERTEX
  8
0
 10
3.74964
 20
205.043
 30
0.0
 40
0.2
 41
0.2
  0
VERTEX
  8
0
 10
3.74964
 20
184.042
 30
0.0
 40
0.2
 41
0.2
  0
VERTEX
  8
0
 10
3.74964
 20
184.06
 30
0.0
 40
0.2
 41
0.2
  0
VERTEX
  8
0
 10
3.77857
 20
184.114
 30
0.0
 40
0.2
 41
0.2
  0
VERTEX
  8
0
 10
3.83233
 20
184.143
 30
0.0
 40
0.2
 41
0.2
  0
VERTEX
  8
0
 10
3.85025
 20
184.143
 30
0.0
 40
0.2
 41
0.2
  0
SEQEND
 8
0
  0
POLYLINE
  8
0
 62
     0
 66
     1
 10
0
 20
0
 30
0.0
 40
0.566929
 41
0.566929
  0
VERTEX
  8
0
 10
3.85025
 20
184.143
 30
0.0
 40
0.2
 41
0.2
  0
VERTEX
  8
0
 10
0.850251
 20
184.143
 30
0.0
 40
0.2
 41
0.2
  0
VERTEX
  8
0
 10
0.832337
 20
184.143
 30
0.0
 40
0.2
 41
0.2
  0
VERTEX
  8
0
 10
0.778591
 20
184.114
 30
0.0
 40
0.2
 41
0.2
  0
VERTEX
  8
0
 10
0.749653
 20
184.06
 30
0.0
 40
0.2
 41
0.2
  0
VERTEX
  8
0
 10
0.749653
 20
184.042
 30
0.0
 40
0.2
 41
0.2
  0
SEQEND
 8
0
  0
POLYLINE
  8
0
 62
     0
 66
     1
 10
0
 20
0
 30
0.0
 40
0.566929
 41
0.566929
  0
VERTEX
  8
0
 10
0.749653
 20
184.042
 30
0.0
 40
0.2
 41
0.2
  0
VERTEX
  8
0
 10
0.749653
 20
173.542
 30
0.0
 40
0.2
 41
0.2
  0
SEQEND
 8
0
  0
POLYLINE
  8
0
 62
     0
 66
     1
 10
0
 20
0
 30
0.0
 40
0.566929
 41
0.566929
  0
VERTEX
  8
0
 10
0.749653
 20
173.542
 30
0.0
 40
0.2
 41
0.2
  0
VERTEX
  8
0
 10
0.749653
 20
170.542
 30
0.0
 40
0.2
 41
0.2
  0
VERTEX
  8
0
 10
0.749653
 20
170.525
 30
0.0
 40
0.2
 41
0.2
  0
VERTEX
  8
0
 10
0.778591
 20
170.472
 30
0.0
 40
0.2
 41
0.2
  0
VERTEX
  8
0
 10
0.832337
 20
170.441
 30
0.0
 40
0.2
 41
0.2
  0
VERTEX
  8
0
 10
0.850251
 20
170.441
 30
0.0
 40
0.2
 41
0.2
  0
SEQEND
 8
0
  0
POLYLINE
  8
0
 62
     0
 66
     1
 10
0
 20
0
 30
0.0
 40
0.566929
 41
0.566929
  0
VERTEX
  8
0
 10
0.850251
 20
170.441
 30
0.0
 40
0.2
 41
0.2
  0
VERTEX
  8
0
 10
3.85025
 20
170.441
 30
0.0
 40
0.2
 41
0.2
  0
SEQEND
 8
0
  0
POLYLINE
  8
0
 62
     0
 66
     1
 10
0
 20
0
 30
0.0
 40
0.566929
 41
0.566929
  0
VERTEX
  8
0
 10
3.85025
 20
331.141
 30
0.0
 40
0.2
 41
0.2
  0
VERTEX
  8
0
 10
19.8506
 20
331.141
 30
0.0
 40
0.2
 41
0.2
  0
SEQEND
 8
0
  0
POLYLINE
  8
0
 62
     0
 66
     1
 10
0
 20
0
 30
0.0
 40
0.566929
 41
0.566929
  0
VERTEX
  8
0
 10
19.8506
 20
331.141
 30
0.0
 40
0.2
 41
0.2
  0
VERTEX
  8
0
 10
19.8327
 20
331.141
 30
0.0
 40
0.2
 41
0.2
  0
VERTEX
  8
0
 10
19.779
 20
331.172
 30
0.0
 40
0.2
 41
0.2
  0
VERTEX
  8
0
 10
19.7501
 20
331.225
 30
0.0
 40
0.2
 41
0.2
  0
VERTEX
  8
0
 10
19.7501
 20
331.242
 30
0.0
 40
0.2
 41
0.2
  0
SEQEND
 8
0
  0
POLYLINE
  8
0
 62
     0
 66
     1
 10
0
 20
0
 30
0.0
 40
0.566929
 41
0.566929
  0
VERTEX
  8
0
 10
19.7501
 20
331.242
 30
0.0
 40
0.2
 41
0.2
  0
VERTEX
  8
0
 10
19.7501
 20
328.242
 30
0.0
 40
0.2
 41
0.2
  0
VERTEX
  8
0
 10
19.7501
 20
328.225
 30
0.0
 40
0.2
 41
0.2
  0
VERTEX
  8
0
 10
19.779
 20
328.172
 30
0.0
 40
0.2
 41
0.2
  0
VERTEX
  8
0
 10
19.8327
 20
328.141
 30
0.0
 40
0.2
 41
0.2
  0
VERTEX
  8
0
 10
19.8506
 20
328.141
 30
0.0
 40
0.2
 41
0.2
  0
SEQEND
 8
0
  0
POLYLINE
  8
0
 62
     0
 66
     1
 10
0
 20
0
 30
0.0
 40
0.566929
 41
0.566929
  0
VERTEX
  8
0
 10
19.8506
 20
328.141
 30
0.0
 40
0.2
 41
0.2
  0
VERTEX
  8
0
 10
40.8506
 20
328.141
 30
0.0
 40
0.2
 41
0.2
  0
VERTEX
  8
0
 10
40.8672
 20
328.141
 30
0.0
 40
0.2
 41
0.2
  0
VERTEX
  8
0
 10
40.9208
 20
328.172
 30
0.0
 40
0.2
 41
0.2
  0
VERTEX
  8
0
 10
40.9512
 20
328.225
 30
0.0
 40
0.2
 41
0.2
  0
VERTEX
  8
0
 10
40.9512
 20
328.242
 30
0.0
 40
0.2
 41
0.2
  0
SEQEND
 8
0
  0
POLYLINE
  8
0
 62
     0
 66
     1
 10
0
 20
0
 30
0.0
 40
0.566929
 41
0.566929
  0
VERTEX
  8
0
 10
40.9512
 20
328.242
 30
0.0
 40
0.2
 41
0.2
  0
VERTEX
  8
0
 10
40.9512
 20
331.242
 30
0.0
 40
0.2
 41
0.2
  0
VERTEX
  8
0
 10
40.9512
 20
331.225
 30
0.0
 40
0.2
 41
0.2
  0
VERTEX
  8
0
 10
40.9208
 20
331.172
 30
0.0
 40
0.2
 41
0.2
  0
VERTEX
  8
0
 10
40.8672
 20
331.141
 30
0.0
 40
0.2
 41
0.2
  0
VERTEX
  8
0
 10
40.8506
 20
331.141
 30
0.0
 40
0.2
 41
0.2
  0
SEQEND
 8
0
  0
POLYLINE
  8
0
 62
     0
 66
     1
 10
0
 20
0
 30
0.0
 40
0.566929
 41
0.566929
  0
VERTEX
  8
0
 10
40.8506
 20
331.141
 30
0.0
 40
0.2
 41
0.2
  0
VERTEX
  8
0
 10
46.8507
 20
331.141
 30
0.0
 40
0.2
 41
0.2
  0
SEQEND
 8
0
  0
POLYLINE
  8
0
 62
     0
 66
     1
 10
0
 20
0
 30
0.0
 40
0.566929
 41
0.566929
  0
VERTEX
  8
0
 10
46.8507
 20
331.141
 30
0.0
 40
0.2
 41
0.2
  0
VERTEX
  8
0
 10
46.8327
 20
331.141
 30
0.0
 40
0.2
 41
0.2
  0
VERTEX
  8
0
 10
46.779
 20
331.172
 30
0.0
 40
0.2
 41
0.2
  0
VERTEX
  8
0
 10
46.7501
 20
331.225
 30
0.0
 40
0.2
 41
0.2
  0
VERTEX
  8
0
 10
46.7501
 20
331.242
 30
0.0
 40
0.2
 41
0.2
  0
SEQEND
 8
0
  0
POLYLINE
  8
0
 62
     0
 66
     1
 10
0
 20
0
 30
0.0
 40
0.566929
 41
0.566929
  0
VERTEX
  8
0
 10
46.7501
 20
331.242
 30
0.0
 40
0.2
 41
0.2
  0
VERTEX
  8
0
 10
46.7501
 20
328.242
 30
0.0
 40
0.2
 41
0.2
  0
VERTEX
  8
0
 10
46.7501
 20
328.225
 30
0.0
 40
0.2
 41
0.2
  0
VERTEX
  8
0
 10
46.779
 20
328.172
 30
0.0
 40
0.2
 41
0.2
  0
VERTEX
  8
0
 10
46.8327
 20
328.141
 30
0.0
 40
0.2
 41
0.2
  0
VERTEX
  8
0
 10
46.8507
 20
328.141
 30
0.0
 40
0.2
 41
0.2
  0
SEQEND
 8
0
  0
POLYLINE
  8
0
 62
     0
 66
     1
 10
0
 20
0
 30
0.0
 40
0.566929
 41
0.566929
  0
VERTEX
  8
0
 10
46.8507
 20
328.141
 30
0.0
 40
0.2
 41
0.2
  0
VERTEX
  8
0
 10
67.8505
 20
328.141
 30
0.0
 40
0.2
 41
0.2
  0
VERTEX
  8
0
 10
67.867
 20
328.141
 30
0.0
 40
0.2
 41
0.2
  0
VERTEX
  8
0
 10
67.9207
 20
328.172
 30
0.0
 40
0.2
 41
0.2
  0
VERTEX
  8
0
 10
67.951
 20
328.225
 30
0.0
 40
0.2
 41
0.2
  0
VERTEX
  8
0
 10
67.951
 20
328.242
 30
0.0
 40
0.2
 41
0.2
  0
SEQEND
 8
0
  0
POLYLINE
  8
0
 62
     0
 66
     1
 10
0
 20
0
 30
0.0
 40
0.566929
 41
0.566929
  0
VERTEX
  8
0
 10
67.951
 20
328.242
 30
0.0
 40
0.2
 41
0.2
  0
VERTEX
  8
0
 10
67.951
 20
331.242
 30
0.0
 40
0.2
 41
0.2
  0
VERTEX
  8
0
 10
67.951
 20
331.225
 30
0.0
 40
0.2
 41
0.2
  0
VERTEX
  8
0
 10
67.9207
 20
331.172
 30
0.0
 40
0.2
 41
0.2
  0
VERTEX
  8
0
 10
67.867
 20
331.141
 30
0.0
 40
0.2
 41
0.2
  0
VERTEX
  8
0
 10
67.8505
 20
331.141
 30
0.0
 40
0.2
 41
0.2
  0
SEQEND
 8
0
  0
POLYLINE
  8
0
 62
     0
 66
     1
 10
0
 20
0
 30
0.0
 40
0.566929
 41
0.566929
  0
VERTEX
  8
0
 10
67.8505
 20
331.141
 30
0.0
 40
0.2
 41
0.2
  0
VERTEX
  8
0
 10
83.851
 20
331.141
 30
0.0
 40
0.2
 41
0.2
  0
SEQEND
 8
0
  0
POLYLINE
  8
0
 62
     0
 66
     1
 10
0
 20
0
 30
0.0
 40
0.566929
 41
0.566929
  0
VERTEX
  8
0
 10
83.851
 20
331.141
 30
0.0
 40
0.2
 41
0.2
  0
VERTEX
  8
0
 10
83.8673
 20
331.141
 30
0.0
 40
0.2
 41
0.2
  0
VERTEX
  8
0
 10
83.9212
 20
331.172
 30
0.0
 40
0.2
 41
0.2
  0
VERTEX
  8
0
 10
83.9516
 20
331.225
 30
0.0
 40
0.2
 41
0.2
  0
VERTEX
  8
0
 10
83.9516
 20
331.242
 30
0.0
 40
0.2
 41
0.2
  0
SEQEND
 8
0
  0
POLYLINE
  8
0
 62
     0
 66
     1
 10
0
 20
0
 30
0.0
 40
0.566929
 41
0.566929
  0
VERTEX
  8
0
 10
83.9516
 20
331.242
 30
0.0
 40
0.2
 41
0.2
  0
VERTEX
  8
0
 10
83.9516
 20
347.242
 30
0.0
 40
0.2
 41
0.2
  0
SEQEND
 8
0
  0
POLYLINE
  8
0
 62
     0
 66
     1
 10
0
 20
0
 30
0.0
 40
0.566929
 41
0.566929
  0
VERTEX
  8
0
 10
83.9516
 20
347.242
 30
0.0
 40
0.2
 41
0.2
  0
VERTEX
  8
0
 10
83.9516
 20
347.226
 30
0.0
 40
0.2
 41
0.2
  0
VERTEX
  8
0
 10
83.9212
 20
347.172
 30
0.0
 40
0.2
 41
0.2
  0
VERTEX
  8
0
 10
83.8673
 20
347.141
 30
0.0
 40
0.2
 41
0.2
  0
VERTEX
  8
0
 10
83.851
 20
347.141
 30
0.0
 40
0.2
 41
0.2
  0
SEQEND
 8
0
  0
POLYLINE
  8
0
 62
     0
 66
     1
 10
0
 20
0
 30
0.0
 40
0.566929
 41
0.566929
  0
VERTEX
  8
0
 10
83.851
 20
347.141
 30
0.0
 40
0.2
 41
0.2
  0
VERTEX
  8
0
 10
86.8507
 20
347.141
 30
0.0
 40
0.2
 41
0.2
  0
VERTEX
  8
0
 10
86.8673
 20
347.141
 30
0.0
 40
0.2
 41
0.2
  0
VERTEX
  8
0
 10
86.9213
 20
347.172
 30
0.0
 40
0.2
 41
0.2
  0
VERTEX
  8
0
 10
86.9516
 20
347.226
 30
0.0
 40
0.2
 41
0.2
  0
VERTEX
  8
0
 10
86.9516
 20
347.242
 30
0.0
 40
0.2
 41
0.2
  0
SEQEND
 8
0
  0
POLYLINE
  8
0
 62
     0
 66
     1
 10
0
 20
0
 30
0.0
 40
0.566929
 41
0.566929
  0
VERTEX
  8
0
 10
86.9516
 20
347.242
 30
0.0
 40
0.2
 41
0.2
  0
VERTEX
  8
0
 10
86.9516
 20
368.244
 30
0.0
 40
0.2
 41
0.2
  0
VERTEX
  8
0
 10
86.9516
 20
368.261
 30
0.0
 40
0.2
 41
0.2
  0
VERTEX
  8
0
 10
86.9213
 20
368.314
 30
0.0
 40
0.2
 41
0.2
  0
VERTEX
  8
0
 10
86.8673
 20
368.342
 30
0.0
 40
0.2
 41
0.2
  0
VERTEX
  8
0
 10
86.8507
 20
368.342
 30
0.0
 40
0.2
 41
0.2
  0
SEQEND
 8
0
  0
POLYLINE
  8
0
 62
     0
 66
     1
 10
0
 20
0
 30
0.0
 40
0.566929
 41
0.566929
  0
VERTEX
  8
0
 10
86.8507
 20
368.342
 30
0.0
 40
0.2
 41
0.2
  0
VERTEX
  8
0
 10
83.851
 20
368.342
 30
0.0
 40
0.2
 41
0.2
  0
VERTEX
  8
0
 10
83.8673
 20
368.342
 30
0.0
 40
0.2
 41
0.2
  0
VERTEX
  8
0
 10
83.9212
 20
368.314
 30
0.0
 40
0.2
 41
0.2
  0
VERTEX
  8
0
 10
83.9516
 20
368.261
 30
0.0
 40
0.2
 41
0.2
  0
VERTEX
  8
0
 10
83.9516
 20
368.244
 30
0.0
 40
0.2
 41
0.2
  0
SEQEND
 8
0
  0
POLYLINE
  8
0
 62
     0
 66
     1
 10
0
 20
0
 30
0.0
 40
0.566929
 41
0.566929
  0
VERTEX
  8
0
 10
83.9516
 20
368.244
 30
0.0
 40
0.2
 41
0.2
  0
VERTEX
  8
0
 10
83.9516
 20
374.241
 30
0.0
 40
0.2
 41
0.2
  0
SEQEND
 8
0
  0
POLYLINE
  8
0
 62
     0
 66
     1
 10
0
 20
0
 30
0.0
 40
0.566929
 41
0.566929
  0
VERTEX
  8
0
 10
83.9516
 20
374.241
 30
0.0
 40
0.2
 41
0.2
  0
VERTEX
  8
0
 10
83.9516
 20
374.227
 30
0.0
 40
0.2
 41
0.2
  0
VERTEX
  8
0
 10
83.9212
 20
374.17
 30
0.0
 40
0.2
 41
0.2
  0
VERTEX
  8
0
 10
83.8673
 20
374.142
 30
0.0
 40
0.2
 41
0.2
  0
VERTEX
  8
0
 10
83.851
 20
374.142
 30
0.0
 40
0.2
 41
0.2
  0
SEQEND
 8
0
  0
POLYLINE
  8
0
 62
     0
 66
     1
 10
0
 20
0
 30
0.0
 40
0.566929
 41
0.566929
  0
VERTEX
  8
0
 10
83.851
 20
374.142
 30
0.0
 40
0.2
 41
0.2
  0
VERTEX
  8
0
 10
86.8507
 20
374.142
 30
0.0
 40
0.2
 41
0.2
  0
VERTEX
  8
0
 10
86.8673
 20
374.142
 30
0.0
 40
0.2
 41
0.2
  0
VERTEX
  8
0
 10
86.9213
 20
374.17
 30
0.0
 40
0.2
 41
0.2
  0
VERTEX
  8
0
 10
86.9516
 20
374.227
 30
0.0
 40
0.2
 41
0.2
  0
VERTEX
  8
0
 10
86.9516
 20
374.241
 30
0.0
 40
0.2
 41
0.2
  0
SEQEND
 8
0
  0
POLYLINE
  8
0
 62
     0
 66
     1
 10
0
 20
0
 30
0.0
 40
0.566929
 41
0.566929
  0
VERTEX
  8
0
 10
86.9516
 20
374.241
 30
0.0
 40
0.2
 41
0.2
  0
VERTEX
  8
0
 10
86.9516
 20
395.242
 30
0.0
 40
0.2
 41
0.2
  0
VERTEX
  8
0
 10
86.9516
 20
395.259
 30
0.0
 40
0.2
 41
0.2
  0
VERTEX
  8
0
 10
86.9213
 20
395.312
 30
0.0
 40
0.2
 41
0.2
  0
VERTEX
  8
0
 10
86.8673
 20
395.344
 30
0.0
 40
0.2
 41
0.2
  0
VERTEX
  8
0
 10
86.8507
 20
395.344
 30
0.0
 40
0.2
 41
0.2
  0
SEQEND
 8
0
  0
POLYLINE
  8
0
 62
     0
 66
     1
 10
0
 20
0
 30
0.0
 40
0.566929
 41
0.566929
  0
VERTEX
  8
0
 10
86.8507
 20
395.344
 30
0.0
 40
0.2
 41
0.2
  0
VERTEX
  8
0
 10
83.851
 20
395.344
 30
0.0
 40
0.2
 41
0.2
  0
VERTEX
  8
0
 10
83.8673
 20
395.344
 30
0.0
 40
0.2
 41
0.2
  0
VERTEX
  8
0
 10
83.9212
 20
395.312
 30
0.0
 40
0.2
 41
0.2
  0
VERTEX
  8
0
 10
83.9516
 20
395.259
 30
0.0
 40
0.2
 41
0.2
  0
VERTEX
  8
0
 10
83.9516
 20
395.242
 30
0.0
 40
0.2
 41
0.2
  0
SEQEND
 8
0
  0
POLYLINE
  8
0
 62
     0
 66
     1
 10
0
 20
0
 30
0.0
 40
0.566929
 41
0.566929
  0
VERTEX
  8
0
 10
83.9516
 20
395.242
 30
0.0
 40
0.2
 41
0.2
  0
VERTEX
  8
0
 10
83.9516
 20
411.244
 30
0.0
 40
0.2
 41
0.2
  0
SEQEND
 8
0
  0
POLYLINE
  8
0
 62
     0
 66
     1
 10
0
 20
0
 30
0.0
 40
0.566929
 41
0.566929
  0
VERTEX
  8
0
 10
83.9516
 20
411.244
 30
0.0
 40
0.2
 41
0.2
  0
VERTEX
  8
0
 10
83.9516
 20
411.261
 30
0.0
 40
0.2
 41
0.2
  0
VERTEX
  8
0
 10
83.9212
 20
411.314
 30
0.0
 40
0.2
 41
0.2
  0
VERTEX
  8
0
 10
83.8673
 20
411.342
 30
0.0
 40
0.2
 41
0.2
  0
VERTEX
  8
0
 10
83.851
 20
411.342
 30
0.0
 40
0.2
 41
0.2
  0
SEQEND
 8
0
  0
POLYLINE
  8
0
 62
     0
 66
     1
 10
0
 20
0
 30
0.0
 40
0.566929
 41
0.566929
  0
VERTEX
  8
0
 10
83.851
 20
411.342
 30
0.0
 40
0.2
 41
0.2
  0
VERTEX
  8
0
 10
67.8505
 20
411.342
 30
0.0
 40
0.2
 41
0.2
  0
SEQEND
 8
0
  0
POLYLINE
  8
0
 62
     0
 66
     1
 10
0
 20
0
 30
0.0
 40
0.566929
 41
0.566929
  0
VERTEX
  8
0
 10
67.8505
 20
411.342
 30
0.0
 40
0.2
 41
0.2
  0
VERTEX
  8
0
 10
67.867
 20
411.342
 30
0.0
 40
0.2
 41
0.2
  0
VERTEX
  8
0
 10
67.9207
 20
411.314
 30
0.0
 40
0.2
 41
0.2
  0
VERTEX
  8
0
 10
67.951
 20
411.261
 30
0.0
 40
0.2
 41
0.2
  0
VERTEX
  8
0
 10
67.951
 20
411.244
 30
0.0
 40
0.2
 41
0.2
  0
SEQEND
 8
0
  0
POLYLINE
  8
0
 62
     0
 66
     1
 10
0
 20
0
 30
0.0
 40
0.566929
 41
0.566929
  0
VERTEX
  8
0
 10
67.951
 20
411.244
 30
0.0
 40
0.2
 41
0.2
  0
VERTEX
  8
0
 10
67.951
 20
414.242
 30
0.0
 40
0.2
 41
0.2
  0
VERTEX
  8
0
 10
67.951
 20
414.26
 30
0.0
 40
0.2
 41
0.2
  0
VERTEX
  8
0
 10
67.9207
 20
414.313
 30
0.0
 40
0.2
 41
0.2
  0
VERTEX
  8
0
 10
67.867
 20
414.345
 30
0.0
 40
0.2
 41
0.2
  0
VERTEX
  8
0
 10
67.8505
 20
414.345
 30
0.0
 40
0.2
 41
0.2
  0
SEQEND
 8
0
  0
POLYLINE
  8
0
 62
     0
 66
     1
 10
0
 20
0
 30
0.0
 40
0.566929
 41
0.566929
  0
VERTEX
  8
0
 10
67.8505
 20
414.345
 30
0.0
 40
0.2
 41
0.2
  0
VERTEX
  8
0
 10
46.8507
 20
414.345
 30
0.0
 40
0.2
 41
0.2
  0
VERTEX
  8
0
 10
46.8327
 20
414.345
 30
0.0
 40
0.2
 41
0.2
  0
VERTEX
  8
0
 10
46.779
 20
414.313
 30
0.0
 40
0.2
 41
0.2
  0
VERTEX
  8
0
 10
46.7501
 20
414.26
 30
0.0
 40
0.2
 41
0.2
  0
VERTEX
  8
0
 10
46.7501
 20
414.242
 30
0.0
 40
0.2
 41
0.2
  0
SEQEND
 8
0
  0
POLYLINE
  8
0
 62
     0
 66
     1
 10
0
 20
0
 30
0.0
 40
0.566929
 41
0.566929
  0
VERTEX
  8
0
 10
46.7501
 20
414.242
 30
0.0
 40
0.2
 41
0.2
  0
VERTEX
  8
0
 10
46.7501
 20
411.244
 30
0.0
 40
0.2
 41
0.2
  0
VERTEX
  8
0
 10
46.7501
 20
411.261
 30
0.0
 40
0.2
 41
0.2
  0
VERTEX
  8
0
 10
46.779
 20
411.314
 30
0.0
 40
0.2
 41
0.2
  0
VERTEX
  8
0
 10
46.8327
 20
411.342
 30
0.0
 40
0.2
 41
0.2
  0
VERTEX
  8
0
 10
46.8507
 20
411.342
 30
0.0
 40
0.2
 41
0.2
  0
SEQEND
 8
0
  0
POLYLINE
  8
0
 62
     0
 66
     1
 10
0
 20
0
 30
0.0
 40
0.566929
 41
0.566929
  0
VERTEX
  8
0
 10
46.8507
 20
411.342
 30
0.0
 40
0.2
 41
0.2
  0
VERTEX
  8
0
 10
40.8506
 20
411.342
 30
0.0
 40
0.2
 41
0.2
  0
SEQEND
 8
0
  0
POLYLINE
  8
0
 62
     0
 66
     1
 10
0
 20
0
 30
0.0
 40
0.566929
 41
0.566929
  0
VERTEX
  8
0
 10
40.8506
 20
411.342
 30
0.0
 40
0.2
 41
0.2
  0
VERTEX
  8
0
 10
40.8672
 20
411.342
 30
0.0
 40
0.2
 41
0.2
  0
VERTEX
  8
0
 10
40.9208
 20
411.314
 30
0.0
 40
0.2
 41
0.2
  0
VERTEX
  8
0
 10
40.9512
 20
411.261
 30
0.0
 40
0.2
 41
0.2
  0
VERTEX
  8
0
 10
40.9512
 20
411.244
 30
0.0
 40
0.2
 41
0.2
  0
SEQEND
 8
0
  0
POLYLINE
  8
0
 62
     0
 66
     1
 10
0
 20
0
 30
0.0
 40
0.566929
 41
0.566929
  0
VERTEX
  8
0
 10
40.9512
 20
411.244
 30
0.0
 40
0.2
 41
0.2
  0
VERTEX
  8
0
 10
40.9512
 20
414.242
 30
0.0
 40
0.2
 41
0.2
  0
VERTEX
  8
0
 10
40.9512
 20
414.26
 30
0.0
 40
0.2
 41
0.2
  0
VERTEX
  8
0
 10
40.9208
 20
414.313
 30
0.0
 40
0.2
 41
0.2
  0
VERTEX
  8
0
 10
40.8672
 20
414.345
 30
0.0
 40
0.2
 41
0.2
  0
VERTEX
  8
0
 10
40.8506
 20
414.345
 30
0.0
 40
0.2
 41
0.2
  0
SEQEND
 8
0
  0
POLYLINE
  8
0
 62
     0
 66
     1
 10
0
 20
0
 30
0.0
 40
0.566929
 41
0.566929
  0
VERTEX
  8
0
 10
40.8506
 20
414.345
 30
0.0
 40
0.2
 41
0.2
  0
VERTEX
  8
0
 10
19.8506
 20
414.345
 30
0.0
 40
0.2
 41
0.2
  0
VERTEX
  8
0
 10
19.8327
 20
414.345
 30
0.0
 40
0.2
 41
0.2
  0
VERTEX
  8
0
 10
19.779
 20
414.313
 30
0.0
 40
0.2
 41
0.2
  0
VERTEX
  8
0
 10
19.7501
 20
414.26
 30
0.0
 40
0.2
 41
0.2
  0
VERTEX
  8
0
 10
19.7501
 20
414.242
 30
0.0
 40
0.2
 41
0.2
  0
SEQEND
 8
0
  0
POLYLINE
  8
0
 62
     0
 66
     1
 10
0
 20
0
 30
0.0
 40
0.566929
 41
0.566929
  0
VERTEX
  8
0
 10
19.7501
 20
414.242
 30
0.0
 40
0.2
 41
0.2
  0
VERTEX
  8
0
 10
19.7501
 20
411.244
 30
0.0
 40
0.2
 41
0.2
  0
VERTEX
  8
0
 10
19.7501
 20
411.261
 30
0.0
 40
0.2
 41
0.2
  0
VERTEX
  8
0
 10
19.779
 20
411.314
 30
0.0
 40
0.2
 41
0.2
  0
VERTEX
  8
0
 10
19.8327
 20
411.342
 30
0.0
 40
0.2
 41
0.2
  0
VERTEX
  8
0
 10
19.8506
 20
411.342
 30
0.0
 40
0.2
 41
0.2
  0
SEQEND
 8
0
  0
POLYLINE
  8
0
 62
     0
 66
     1
 10
0
 20
0
 30
0.0
 40
0.566929
 41
0.566929
  0
VERTEX
  8
0
 10
19.8506
 20
411.342
 30
0.0
 40
0.2
 41
0.2
  0
VERTEX
  8
0
 10
3.85025
 20
411.342
 30
0.0
 40
0.2
 41
0.2
  0
SEQEND
 8
0
  0
POLYLINE
  8
0
 62
     0
 66
     1
 10
0
 20
0
 30
0.0
 40
0.566929
 41
0.566929
  0
VERTEX
  8
0
 10
3.85025
 20
411.342
 30
0.0
 40
0.2
 41
0.2
  0
VERTEX
  8
0
 10
3.83233
 20
411.342
 30
0.0
 40
0.2
 41
0.2
  0
VERTEX
  8
0
 10
3.77857
 20
411.314
 30
0.0
 40
0.2
 41
0.2
  0
VERTEX
  8
0
 10
3.74964
 20
411.261
 30
0.0
 40
0.2
 41
0.2
  0
VERTEX
  8
0
 10
3.74964
 20
411.244
 30
0.0
 40
0.2
 41
0.2
  0
SEQEND
 8
0
  0
POLYLINE
  8
0
 62
     0
 66
     1
 10
0
 20
0
 30
0.0
 40
0.566929
 41
0.566929
  0
VERTEX
  8
0
 10
3.74964
 20
411.244
 30
0.0
 40
0.2
 41
0.2
  0
VERTEX
  8
0
 10
3.74964
 20
395.242
 30
0.0
 40
0.2
 41
0.2
  0
SEQEND
 8
0
  0
POLYLINE
  8
0
 62
     0
 66
     1
 10
0
 20
0
 30
0.0
 40
0.566929
 41
0.566929
  0
VERTEX
  8
0
 10
3.74964
 20
395.242
 30
0.0
 40
0.2
 41
0.2
  0
VERTEX
  8
0
 10
3.74964
 20
395.259
 30
0.0
 40
0.2
 41
0.2
  0
VERTEX
  8
0
 10
3.77857
 20
395.312
 30
0.0
 40
0.2
 41
0.2
  0
VERTEX
  8
0
 10
3.83233
 20
395.344
 30
0.0
 40
0.2
 41
0.2
  0
VERTEX
  8
0
 10
3.85025
 20
395.344
 30
0.0
 40
0.2
 41
0.2
  0
SEQEND
 8
0
  0
POLYLINE
  8
0
 62
     0
 66
     1
 10
0
 20
0
 30
0.0
 40
0.566929
 41
0.566929
  0
VERTEX
  8
0
 10
3.85025
 20
395.344
 30
0.0
 40
0.2
 41
0.2
  0
VERTEX
  8
0
 10
0.850251
 20
395.344
 30
0.0
 40
0.2
 41
0.2
  0
VERTEX
  8
0
 10
0.832337
 20
395.344
 30
0.0
 40
0.2
 41
0.2
  0
VERTEX
  8
0
 10
0.778591
 20
395.312
 30
0.0
 40
0.2
 41
0.2
  0
VERTEX
  8
0
 10
0.749653
 20
395.259
 30
0.0
 40
0.2
 41
0.2
  0
VERTEX
  8
0
 10
0.749653
 20
395.242
 30
0.0
 40
0.2
 41
0.2
  0
SEQEND
 8
0
  0
POLYLINE
  8
0
 62
     0
 66
     1
 10
0
 20
0
 30
0.0
 40
0.566929
 41
0.566929
  0
VERTEX
  8
0
 10
0.749653
 20
395.242
 30
0.0
 40
0.2
 41
0.2
  0
VERTEX
  8
0
 10
0.749653
 20
374.241
 30
0.0
 40
0.2
 41
0.2
  0
VERTEX
  8
0
 10
0.749653
 20
374.227
 30
0.0
 40
0.2
 41
0.2
  0
VERTEX
  8
0
 10
0.778591
 20
374.17
 30
0.0
 40
0.2
 41
0.2
  0
VERTEX
  8
0
 10
0.832337
 20
374.142
 30
0.0
 40
0.2
 41
0.2
  0
VERTEX
  8
0
 10
0.850251
 20
374.142
 30
0.0
 40
0.2
 41
0.2
  0
SEQEND
 8
0
  0
POLYLINE
  8
0
 62
     0
 66
     1
 10
0
 20
0
 30
0.0
 40
0.566929
 41
0.566929
  0
VERTEX
  8
0
 10
0.850251
 20
374.142
 30
0.0
 40
0.2
 41
0.2
  0
VERTEX
  8
0
 10
3.85025
 20
374.142
 30
0.0
 40
0.2
 41
0.2
  0
VERTEX
  8
0
 10
3.83233
 20
374.142
 30
0.0
 40
0.2
 41
0.2
  0
VERTEX
  8
0
 10
3.77857
 20
374.17
 30
0.0
 40
0.2
 41
0.2
  0
VERTEX
  8
0
 10
3.74964
 20
374.227
 30
0.0
 40
0.2
 41
0.2
  0
VERTEX
  8
0
 10
3.74964
 20
374.241
 30
0.0
 40
0.2
 41
0.2
  0
SEQEND
 8
0
  0
POLYLINE
  8
0
 62
     0
 66
     1
 10
0
 20
0
 30
0.0
 40
0.566929
 41
0.566929
  0
VERTEX
  8
0
 10
3.74964
 20
374.241
 30
0.0
 40
0.2
 41
0.2
  0
VERTEX
  8
0
 10
3.74964
 20
368.244
 30
0.0
 40
0.2
 41
0.2
  0
SEQEND
 8
0
  0
POLYLINE
  8
0
 62
     0
 66
     1
 10
0
 20
0
 30
0.0
 40
0.566929
 41
0.566929
  0
VERTEX
  8
0
 10
3.74964
 20
368.244
 30
0.0
 40
0.2
 41
0.2
  0
VERTEX
  8
0
 10
3.74964
 20
368.261
 30
0.0
 40
0.2
 41
0.2
  0
VERTEX
  8
0
 10
3.77857
 20
368.314
 30
0.0
 40
0.2
 41
0.2
  0
VERTEX
  8
0
 10
3.83233
 20
368.342
 30
0.0
 40
0.2
 41
0.2
  0
VERTEX
  8
0
 10
3.85025
 20
368.342
 30
0.0
 40
0.2
 41
0.2
  0
SEQEND
 8
0
  0
POLYLINE
  8
0
 62
     0
 66
     1
 10
0
 20
0
 30
0.0
 40
0.566929
 41
0.566929
  0
VERTEX
  8
0
 10
3.85025
 20
368.342
 30
0.0
 40
0.2
 41
0.2
  0
VERTEX
  8
0
 10
0.850251
 20
368.342
 30
0.0
 40
0.2
 41
0.2
  0
VERTEX
  8
0
 10
0.832337
 20
368.342
 30
0.0
 40
0.2
 41
0.2
  0
VERTEX
  8
0
 10
0.778591
 20
368.314
 30
0.0
 40
0.2
 41
0.2
  0
VERTEX
  8
0
 10
0.749653
 20
368.261
 30
0.0
 40
0.2
 41
0.2
  0
VERTEX
  8
0
 10
0.749653
 20
368.244
 30
0.0
 40
0.2
 41
0.2
  0
SEQEND
 8
0
  0
POLYLINE
  8
0
 62
     0
 66
     1
 10
0
 20
0
 30
0.0
 40
0.566929
 41
0.566929
  0
VERTEX
  8
0
 10
0.749653
 20
368.244
 30
0.0
 40
0.2
 41
0.2
  0
VERTEX
  8
0
 10
0.749653
 20
347.242
 30
0.0
 40
0.2
 41
0.2
  0
VERTEX
  8
0
 10
0.749653
 20
347.226
 30
0.0
 40
0.2
 41
0.2
  0
VERTEX
  8
0
 10
0.778591
 20
347.172
 30
0.0
 40
0.2
 41
0.2
  0
VERTEX
  8
0
 10
0.832337
 20
347.141
 30
0.0
 40
0.2
 41
0.2
  0
VERTEX
  8
0
 10
0.850251
 20
347.141
 30
0.0
 40
0.2
 41
0.2
  0
SEQEND
 8
0
  0
POLYLINE
  8
0
 62
     0
 66
     1
 10
0
 20
0
 30
0.0
 40
0.566929
 41
0.566929
  0
VERTEX
  8
0
 10
0.850251
 20
347.141
 30
0.0
 40
0.2
 41
0.2
  0
VERTEX
  8
0
 10
3.85025
 20
347.141
 30
0.0
 40
0.2
 41
0.2
  0
VERTEX
  8
0
 10
3.83233
 20
347.141
 30
0.0
 40
0.2
 41
0.2
  0
VERTEX
  8
0
 10
3.77857
 20
347.172
 30
0.0
 40
0.2
 41
0.2
  0
VERTEX
  8
0
 10
3.74964
 20
347.226
 30
0.0
 40
0.2
 41
0.2
  0
VERTEX
  8
0
 10
3.74964
 20
347.242
 30
0.0
 40
0.2
 41
0.2
  0
SEQEND
 8
0
  0
POLYLINE
  8
0
 62
     0
 66
     1
 10
0
 20
0
 30
0.0
 40
0.566929
 41
0.566929
  0
VERTEX
  8
0
 10
3.74964
 20
347.242
 30
0.0
 40
0.2
 41
0.2
  0
VERTEX
  8
0
 10
3.74964
 20
331.242
 30
0.0
 40
0.2
 41
0.2
  0
SEQEND
 8
0
  0
POLYLINE
  8
0
 62
     0
 66
     1
 10
0
 20
0
 30
0.0
 40
0.566929
 41
0.566929
  0
VERTEX
  8
0
 10
3.74964
 20
331.242
 30
0.0
 40
0.2
 41
0.2
  0
VERTEX
  8
0
 10
3.74964
 20
331.225
 30
0.0
 40
0.2
 41
0.2
  0
VERTEX
  8
0
 10
3.77857
 20
331.172
 30
0.0
 40
0.2
 41
0.2
  0
VERTEX
  8
0
 10
3.83233
 20
331.141
 30
0.0
 40
0.2
 41
0.2
  0
VERTEX
  8
0
 10
3.85025
 20
331.141
 30
0.0
 40
0.2
 41
0.2
  0
SEQEND
 8
0
  0
POLYLINE
  8
0
 62
     0
 66
     1
 10
0
 20
0
 30
0.0
 40
0.566929
 41
0.566929
  0
VERTEX
  8
0
 10
91.5501
 20
331.141
 30
0.0
 40
0.2
 41
0.2
  0
VERTEX
  8
0
 10
107.55
 20
331.141
 30
0.0
 40
0.2
 41
0.2
  0
SEQEND
 8
0
  0
POLYLINE
  8
0
 62
     0
 66
     1
 10
0
 20
0
 30
0.0
 40
0.566929
 41
0.566929
  0
VERTEX
  8
0
 10
107.55
 20
331.141
 30
0.0
 40
0.2
 41
0.2
  0
VERTEX
  8
0
 10
107.532
 20
331.141
 30
0.0
 40
0.2
 41
0.2
  0
VERTEX
  8
0
 10
107.479
 20
331.172
 30
0.0
 40
0.2
 41
0.2
  0
VERTEX
  8
0
 10
107.45
 20
331.225
 30
0.0
 40
0.2
 41
0.2
  0
VERTEX
  8
0
 10
107.45
 20
331.242
 30
0.0
 40
0.2
 41
0.2
  0
SEQEND
 8
0
  0
POLYLINE
  8
0
 62
     0
 66
     1
 10
0
 20
0
 30
0.0
 40
0.566929
 41
0.566929
  0
VERTEX
  8
0
 10
107.45
 20
331.242
 30
0.0
 40
0.2
 41
0.2
  0
VERTEX
  8
0
 10
107.45
 20
328.242
 30
0.0
 40
0.2
 41
0.2
  0
VERTEX
  8
0
 10
107.45
 20
328.225
 30
0.0
 40
0.2
 41
0.2
  0
VERTEX
  8
0
 10
107.479
 20
328.172
 30
0.0
 40
0.2
 41
0.2
  0
VERTEX
  8
0
 10
107.532
 20
328.141
 30
0.0
 40
0.2
 41
0.2
  0
VERTEX
  8
0
 10
107.55
 20
328.141
 30
0.0
 40
0.2
 41
0.2
  0
SEQEND
 8
0
  0
POLYLINE
  8
0
 62
     0
 66
     1
 10
0
 20
0
 30
0.0
 40
0.566929
 41
0.566929
  0
VERTEX
  8
0
 10
107.55
 20
328.141
 30
0.0
 40
0.2
 41
0.2
  0
VERTEX
  8
0
 10
128.55
 20
328.141
 30
0.0
 40
0.2
 41
0.2
  0
VERTEX
  8
0
 10
128.567
 20
328.141
 30
0.0
 40
0.2
 41
0.2
  0
VERTEX
  8
0
 10
128.621
 20
328.172
 30
0.0
 40
0.2
 41
0.2
  0
VERTEX
  8
0
 10
128.651
 20
328.225
 30
0.0
 40
0.2
 41
0.2
  0
VERTEX
  8
0
 10
128.651
 20
328.242
 30
0.0
 40
0.2
 41
0.2
  0
SEQEND
 8
0
  0
POLYLINE
  8
0
 62
     0
 66
     1
 10
0
 20
0
 30
0.0
 40
0.566929
 41
0.566929
  0
VERTEX
  8
0
 10
128.651
 20
328.242
 30
0.0
 40
0.2
 41
0.2
  0
VERTEX
  8
0
 10
128.651
 20
331.242
 30
0.0
 40
0.2
 41
0.2
  0
VERTEX
  8
0
 10
128.651
 20
331.225
 30
0.0
 40
0.2
 41
0.2
  0
VERTEX
  8
0
 10
128.621
 20
331.172
 30
0.0
 40
0.2
 41
0.2
  0
VERTEX
  8
0
 10
128.567
 20
331.141
 30
0.0
 40
0.2
 41
0.2
  0
VERTEX
  8
0
 10
128.55
 20
331.141
 30
0.0
 40
0.2
 41
0.2
  0
SEQEND
 8
0
  0
POLYLINE
  8
0
 62
     0
 66
     1
 10
0
 20
0
 30
0.0
 40
0.566929
 41
0.566929
  0
VERTEX
  8
0
 10
128.55
 20
331.141
 30
0.0
 40
0.2
 41
0.2
  0
VERTEX
  8
0
 10
134.55
 20
331.141
 30
0.0
 40
0.2
 41
0.2
  0
SEQEND
 8
0
  0
POLYLINE
  8
0
 62
     0
 66
     1
 10
0
 20
0
 30
0.0
 40
0.566929
 41
0.566929
  0
VERTEX
  8
0
 10
134.55
 20
331.141
 30
0.0
 40
0.2
 41
0.2
  0
VERTEX
  8
0
 10
134.533
 20
331.141
 30
0.0
 40
0.2
 41
0.2
  0
VERTEX
  8
0
 10
134.479
 20
331.172
 30
0.0
 40
0.2
 41
0.2
  0
VERTEX
  8
0
 10
134.45
 20
331.225
 30
0.0
 40
0.2
 41
0.2
  0
VERTEX
  8
0
 10
134.45
 20
331.242
 30
0.0
 40
0.2
 41
0.2
  0
SEQEND
 8
0
  0
POLYLINE
  8
0
 62
     0
 66
     1
 10
0
 20
0
 30
0.0
 40
0.566929
 41
0.566929
  0
VERTEX
  8
0
 10
134.45
 20
331.242
 30
0.0
 40
0.2
 41
0.2
  0
VERTEX
  8
0
 10
134.45
 20
328.242
 30
0.0
 40
0.2
 41
0.2
  0
VERTEX
  8
0
 10
134.45
 20
328.225
 30
0.0
 40
0.2
 41
0.2
  0
VERTEX
  8
0
 10
134.479
 20
328.172
 30
0.0
 40
0.2
 41
0.2
  0
VERTEX
  8
0
 10
134.533
 20
328.141
 30
0.0
 40
0.2
 41
0.2
  0
VERTEX
  8
0
 10
134.55
 20
328.141
 30
0.0
 40
0.2
 41
0.2
  0
SEQEND
 8
0
  0
POLYLINE
  8
0
 62
     0
 66
     1
 10
0
 20
0
 30
0.0
 40
0.566929
 41
0.566929
  0
VERTEX
  8
0
 10
134.55
 20
328.141
 30
0.0
 40
0.2
 41
0.2
  0
VERTEX
  8
0
 10
155.55
 20
328.141
 30
0.0
 40
0.2
 41
0.2
  0
VERTEX
  8
0
 10
155.567
 20
328.141
 30
0.0
 40
0.2
 41
0.2
  0
VERTEX
  8
0
 10
155.621
 20
328.172
 30
0.0
 40
0.2
 41
0.2
  0
VERTEX
  8
0
 10
155.651
 20
328.225
 30
0.0
 40
0.2
 41
0.2
  0
VERTEX
  8
0
 10
155.651
 20
328.242
 30
0.0
 40
0.2
 41
0.2
  0
SEQEND
 8
0
  0
POLYLINE
  8
0
 62
     0
 66
     1
 10
0
 20
0
 30
0.0
 40
0.566929
 41
0.566929
  0
VERTEX
  8
0
 10
155.651
 20
328.242
 30
0.0
 40
0.2
 41
0.2
  0
VERTEX
  8
0
 10
155.651
 20
331.242
 30
0.0
 40
0.2
 41
0.2
  0
VERTEX
  8
0
 10
155.651
 20
331.225
 30
0.0
 40
0.2
 41
0.2
  0
VERTEX
  8
0
 10
155.621
 20
331.172
 30
0.0
 40
0.2
 41
0.2
  0
VERTEX
  8
0
 10
155.567
 20
331.141
 30
0.0
 40
0.2
 41
0.2
  0
VERTEX
  8
0
 10
155.55
 20
331.141
 30
0.0
 40
0.2
 41
0.2
  0
SEQEND
 8
0
  0
POLYLINE
  8
0
 62
     0
 66
     1
 10
0
 20
0
 30
0.0
 40
0.566929
 41
0.566929
  0
VERTEX
  8
0
 10
155.55
 20
331.141
 30
0.0
 40
0.2
 41
0.2
  0
VERTEX
  8
0
 10
171.551
 20
331.141
 30
0.0
 40
0.2
 41
0.2
  0
SEQEND
 8
0
  0
POLYLINE
  8
0
 62
     0
 66
     1
 10
0
 20
0
 30
0.0
 40
0.566929
 41
0.566929
  0
VERTEX
  8
0
 10
171.551
 20
331.141
 30
0.0
 40
0.2
 41
0.2
  0
VERTEX
  8
0
 10
171.567
 20
331.141
 30
0.0
 40
0.2
 41
0.2
  0
VERTEX
  8
0
 10
171.621
 20
331.172
 30
0.0
 40
0.2
 41
0.2
  0
VERTEX
  8
0
 10
171.651
 20
331.225
 30
0.0
 40
0.2
 41
0.2
  0
VERTEX
  8
0
 10
171.651
 20
331.242
 30
0.0
 40
0.2
 41
0.2
  0
SEQEND
 8
0
  0
POLYLINE
  8
0
 62
     0
 66
     1
 10
0
 20
0
 30
0.0
 40
0.566929
 41
0.566929
  0
VERTEX
  8
0
 10
171.651
 20
331.242
 30
0.0
 40
0.2
 41
0.2
  0
VERTEX
  8
0
 10
171.651
 20
347.242
 30
0.0
 40
0.2
 41
0.2
  0
SEQEND
 8
0
  0
POLYLINE
  8
0
 62
     0
 66
     1
 10
0
 20
0
 30
0.0
 40
0.566929
 41
0.566929
  0
VERTEX
  8
0
 10
171.651
 20
347.242
 30
0.0
 40
0.2
 41
0.2
  0
VERTEX
  8
0
 10
171.651
 20
347.226
 30
0.0
 40
0.2
 41
0.2
  0
VERTEX
  8
0
 10
171.621
 20
347.172
 30
0.0
 40
0.2
 41
0.2
  0
VERTEX
  8
0
 10
171.567
 20
347.141
 30
0.0
 40
0.2
 41
0.2
  0
VERTEX
  8
0
 10
171.551
 20
347.141
 30
0.0
 40
0.2
 41
0.2
  0
SEQEND
 8
0
  0
POLYLINE
  8
0
 62
     0
 66
     1
 10
0
 20
0
 30
0.0
 40
0.566929
 41
0.566929
  0
VERTEX
  8
0
 10
171.551
 20
347.141
 30
0.0
 40
0.2
 41
0.2
  0
VERTEX
  8
0
 10
174.551
 20
347.141
 30
0.0
 40
0.2
 41
0.2
  0
VERTEX
  8
0
 10
174.567
 20
347.141
 30
0.0
 40
0.2
 41
0.2
  0
VERTEX
  8
0
 10
174.621
 20
347.172
 30
0.0
 40
0.2
 41
0.2
  0
VERTEX
  8
0
 10
174.651
 20
347.226
 30
0.0
 40
0.2
 41
0.2
  0
VERTEX
  8
0
 10
174.651
 20
347.242
 30
0.0
 40
0.2
 41
0.2
  0
SEQEND
 8
0
  0
POLYLINE
  8
0
 62
     0
 66
     1
 10
0
 20
0
 30
0.0
 40
0.566929
 41
0.566929
  0
VERTEX
  8
0
 10
174.651
 20
347.242
 30
0.0
 40
0.2
 41
0.2
  0
VERTEX
  8
0
 10
174.651
 20
368.244
 30
0.0
 40
0.2
 41
0.2
  0
VERTEX
  8
0
 10
174.651
 20
368.261
 30
0.0
 40
0.2
 41
0.2
  0
VERTEX
  8
0
 10
174.621
 20
368.314
 30
0.0
 40
0.2
 41
0.2
  0
VERTEX
  8
0
 10
174.567
 20
368.342
 30
0.0
 40
0.2
 41
0.2
  0
VERTEX
  8
0
 10
174.551
 20
368.342
 30
0.0
 40
0.2
 41
0.2
  0
SEQEND
 8
0
  0
POLYLINE
  8
0
 62
     0
 66
     1
 10
0
 20
0
 30
0.0
 40
0.566929
 41
0.566929
  0
VERTEX
  8
0
 10
174.551
 20
368.342
 30
0.0
 40
0.2
 41
0.2
  0
VERTEX
  8
0
 10
171.551
 20
368.342
 30
0.0
 40
0.2
 41
0.2
  0
VERTEX
  8
0
 10
171.567
 20
368.342
 30
0.0
 40
0.2
 41
0.2
  0
VERTEX
  8
0
 10
171.621
 20
368.314
 30
0.0
 40
0.2
 41
0.2
  0
VERTEX
  8
0
 10
171.651
 20
368.261
 30
0.0
 40
0.2
 41
0.2
  0
VERTEX
  8
0
 10
171.651
 20
368.244
 30
0.0
 40
0.2
 41
0.2
  0
SEQEND
 8
0
  0
POLYLINE
  8
0
 62
     0
 66
     1
 10
0
 20
0
 30
0.0
 40
0.566929
 41
0.566929
  0
VERTEX
  8
0
 10
171.651
 20
368.244
 30
0.0
 40
0.2
 41
0.2
  0
VERTEX
  8
0
 10
171.651
 20
374.241
 30
0.0
 40
0.2
 41
0.2
  0
SEQEND
 8
0
  0
POLYLINE
  8
0
 62
     0
 66
     1
 10
0
 20
0
 30
0.0
 40
0.566929
 41
0.566929
  0
VERTEX
  8
0
 10
171.651
 20
374.241
 30
0.0
 40
0.2
 41
0.2
  0
VERTEX
  8
0
 10
171.651
 20
374.227
 30
0.0
 40
0.2
 41
0.2
  0
VERTEX
  8
0
 10
171.621
 20
374.17
 30
0.0
 40
0.2
 41
0.2
  0
VERTEX
  8
0
 10
171.567
 20
374.142
 30
0.0
 40
0.2
 41
0.2
  0
VERTEX
  8
0
 10
171.551
 20
374.142
 30
0.0
 40
0.2
 41
0.2
  0
SEQEND
 8
0
  0
POLYLINE
  8
0
 62
     0
 66
     1
 10
0
 20
0
 30
0.0
 40
0.566929
 41
0.566929
  0
VERTEX
  8
0
 10
171.551
 20
374.142
 30
0.0
 40
0.2
 41
0.2
  0
VERTEX
  8
0
 10
174.551
 20
374.142
 30
0.0
 40
0.2
 41
0.2
  0
VERTEX
  8
0
 10
174.567
 20
374.142
 30
0.0
 40
0.2
 41
0.2
  0
VERTEX
  8
0
 10
174.621
 20
374.17
 30
0.0
 40
0.2
 41
0.2
  0
VERTEX
  8
0
 10
174.651
 20
374.227
 30
0.0
 40
0.2
 41
0.2
  0
VERTEX
  8
0
 10
174.651
 20
374.241
 30
0.0
 40
0.2
 41
0.2
  0
SEQEND
 8
0
  0
POLYLINE
  8
0
 62
     0
 66
     1
 10
0
 20
0
 30
0.0
 40
0.566929
 41
0.566929
  0
VERTEX
  8
0
 10
174.651
 20
374.241
 30
0.0
 40
0.2
 41
0.2
  0
VERTEX
  8
0
 10
174.651
 20
395.242
 30
0.0
 40
0.2
 41
0.2
  0
VERTEX
  8
0
 10
174.651
 20
395.259
 30
0.0
 40
0.2
 41
0.2
  0
VERTEX
  8
0
 10
174.621
 20
395.312
 30
0.0
 40
0.2
 41
0.2
  0
VERTEX
  8
0
 10
174.567
 20
395.344
 30
0.0
 40
0.2
 41
0.2
  0
VERTEX
  8
0
 10
174.551
 20
395.344
 30
0.0
 40
0.2
 41
0.2
  0
SEQEND
 8
0
  0
POLYLINE
  8
0
 62
     0
 66
     1
 10
0
 20
0
 30
0.0
 40
0.566929
 41
0.566929
  0
VERTEX
  8
0
 10
174.551
 20
395.344
 30
0.0
 40
0.2
 41
0.2
  0
VERTEX
  8
0
 10
171.551
 20
395.344
 30
0.0
 40
0.2
 41
0.2
  0
VERTEX
  8
0
 10
171.567
 20
395.344
 30
0.0
 40
0.2
 41
0.2
  0
VERTEX
  8
0
 10
171.621
 20
395.312
 30
0.0
 40
0.2
 41
0.2
  0
VERTEX
  8
0
 10
171.651
 20
395.259
 30
0.0
 40
0.2
 41
0.2
  0
VERTEX
  8
0
 10
171.651
 20
395.242
 30
0.0
 40
0.2
 41
0.2
  0
SEQEND
 8
0
  0
POLYLINE
  8
0
 62
     0
 66
     1
 10
0
 20
0
 30
0.0
 40
0.566929
 41
0.566929
  0
VERTEX
  8
0
 10
171.651
 20
395.242
 30
0.0
 40
0.2
 41
0.2
  0
VERTEX
  8
0
 10
171.651
 20
411.244
 30
0.0
 40
0.2
 41
0.2
  0
SEQEND
 8
0
  0
POLYLINE
  8
0
 62
     0
 66
     1
 10
0
 20
0
 30
0.0
 40
0.566929
 41
0.566929
  0
VERTEX
  8
0
 10
171.651
 20
411.244
 30
0.0
 40
0.2
 41
0.2
  0
VERTEX
  8
0
 10
171.651
 20
411.261
 30
0.0
 40
0.2
 41
0.2
  0
VERTEX
  8
0
 10
171.621
 20
411.314
 30
0.0
 40
0.2
 41
0.2
  0
VERTEX
  8
0
 10
171.567
 20
411.342
 30
0.0
 40
0.2
 41
0.2
  0
VERTEX
  8
0
 10
171.551
 20
411.342
 30
0.0
 40
0.2
 41
0.2
  0
SEQEND
 8
0
  0
POLYLINE
  8
0
 62
     0
 66
     1
 10
0
 20
0
 30
0.0
 40
0.566929
 41
0.566929
  0
VERTEX
  8
0
 10
171.551
 20
411.342
 30
0.0
 40
0.2
 41
0.2
  0
VERTEX
  8
0
 10
155.55
 20
411.342
 30
0.0
 40
0.2
 41
0.2
  0
SEQEND
 8
0
  0
POLYLINE
  8
0
 62
     0
 66
     1
 10
0
 20
0
 30
0.0
 40
0.566929
 41
0.566929
  0
VERTEX
  8
0
 10
155.55
 20
411.342
 30
0.0
 40
0.2
 41
0.2
  0
VERTEX
  8
0
 10
155.567
 20
411.342
 30
0.0
 40
0.2
 41
0.2
  0
VERTEX
  8
0
 10
155.621
 20
411.314
 30
0.0
 40
0.2
 41
0.2
  0
VERTEX
  8
0
 10
155.651
 20
411.261
 30
0.0
 40
0.2
 41
0.2
  0
VERTEX
  8
0
 10
155.651
 20
411.244
 30
0.0
 40
0.2
 41
0.2
  0
SEQEND
 8
0
  0
POLYLINE
  8
0
 62
     0
 66
     1
 10
0
 20
0
 30
0.0
 40
0.566929
 41
0.566929
  0
VERTEX
  8
0
 10
155.651
 20
411.244
 30
0.0
 40
0.2
 41
0.2
  0
VERTEX
  8
0
 10
155.651
 20
414.242
 30
0.0
 40
0.2
 41
0.2
  0
VERTEX
  8
0
 10
155.651
 20
414.26
 30
0.0
 40
0.2
 41
0.2
  0
VERTEX
  8
0
 10
155.621
 20
414.313
 30
0.0
 40
0.2
 41
0.2
  0
VERTEX
  8
0
 10
155.567
 20
414.345
 30
0.0
 40
0.2
 41
0.2
  0
VERTEX
  8
0
 10
155.55
 20
414.345
 30
0.0
 40
0.2
 41
0.2
  0
SEQEND
 8
0
  0
POLYLINE
  8
0
 62
     0
 66
     1
 10
0
 20
0
 30
0.0
 40
0.566929
 41
0.566929
  0
VERTEX
  8
0
 10
155.55
 20
414.345
 30
0.0
 40
0.2
 41
0.2
  0
VERTEX
  8
0
 10
134.55
 20
414.345
 30
0.0
 40
0.2
 41
0.2
  0
VERTEX
  8
0
 10
134.533
 20
414.345
 30
0.0
 40
0.2
 41
0.2
  0
VERTEX
  8
0
 10
134.479
 20
414.313
 30
0.0
 40
0.2
 41
0.2
  0
VERTEX
  8
0
 10
134.45
 20
414.26
 30
0.0
 40
0.2
 41
0.2
  0
VERTEX
  8
0
 10
134.45
 20
414.242
 30
0.0
 40
0.2
 41
0.2
  0
SEQEND
 8
0
  0
POLYLINE
  8
0
 62
     0
 66
     1
 10
0
 20
0
 30
0.0
 40
0.566929
 41
0.566929
  0
VERTEX
  8
0
 10
134.45
 20
414.242
 30
0.0
 40
0.2
 41
0.2
  0
VERTEX
  8
0
 10
134.45
 20
411.244
 30
0.0
 40
0.2
 41
0.2
  0
VERTEX
  8
0
 10
134.45
 20
411.261
 30
0.0
 40
0.2
 41
0.2
  0
VERTEX
  8
0
 10
134.479
 20
411.314
 30
0.0
 40
0.2
 41
0.2
  0
VERTEX
  8
0
 10
134.533
 20
411.342
 30
0.0
 40
0.2
 41
0.2
  0
VERTEX
  8
0
 10
134.55
 20
411.342
 30
0.0
 40
0.2
 41
0.2
  0
SEQEND
 8
0
  0
POLYLINE
  8
0
 62
     0
 66
     1
 10
0
 20
0
 30
0.0
 40
0.566929
 41
0.566929
  0
VERTEX
  8
0
 10
134.55
 20
411.342
 30
0.0
 40
0.2
 41
0.2
  0
VERTEX
  8
0
 10
128.55
 20
411.342
 30
0.0
 40
0.2
 41
0.2
  0
SEQEND
 8
0
  0
POLYLINE
  8
0
 62
     0
 66
     1
 10
0
 20
0
 30
0.0
 40
0.566929
 41
0.566929
  0
VERTEX
  8
0
 10
128.55
 20
411.342
 30
0.0
 40
0.2
 41
0.2
  0
VERTEX
  8
0
 10
128.567
 20
411.342
 30
0.0
 40
0.2
 41
0.2
  0
VERTEX
  8
0
 10
128.621
 20
411.314
 30
0.0
 40
0.2
 41
0.2
  0
VERTEX
  8
0
 10
128.651
 20
411.261
 30
0.0
 40
0.2
 41
0.2
  0
VERTEX
  8
0
 10
128.651
 20
411.244
 30
0.0
 40
0.2
 41
0.2
  0
SEQEND
 8
0
  0
POLYLINE
  8
0
 62
     0
 66
     1
 10
0
 20
0
 30
0.0
 40
0.566929
 41
0.566929
  0
VERTEX
  8
0
 10
128.651
 20
411.244
 30
0.0
 40
0.2
 41
0.2
  0
VERTEX
  8
0
 10
128.651
 20
414.242
 30
0.0
 40
0.2
 41
0.2
  0
VERTEX
  8
0
 10
128.651
 20
414.26
 30
0.0
 40
0.2
 41
0.2
  0
VERTEX
  8
0
 10
128.621
 20
414.313
 30
0.0
 40
0.2
 41
0.2
  0
VERTEX
  8
0
 10
128.567
 20
414.345
 30
0.0
 40
0.2
 41
0.2
  0
VERTEX
  8
0
 10
128.55
 20
414.345
 30
0.0
 40
0.2
 41
0.2
  0
SEQEND
 8
0
  0
POLYLINE
  8
0
 62
     0
 66
     1
 10
0
 20
0
 30
0.0
 40
0.566929
 41
0.566929
  0
VERTEX
  8
0
 10
128.55
 20
414.345
 30
0.0
 40
0.2
 41
0.2
  0
VERTEX
  8
0
 10
107.55
 20
414.345
 30
0.0
 40
0.2
 41
0.2
  0
VERTEX
  8
0
 10
107.532
 20
414.345
 30
0.0
 40
0.2
 41
0.2
  0
VERTEX
  8
0
 10
107.479
 20
414.313
 30
0.0
 40
0.2
 41
0.2
  0
VERTEX
  8
0
 10
107.45
 20
414.26
 30
0.0
 40
0.2
 41
0.2
  0
VERTEX
  8
0
 10
107.45
 20
414.242
 30
0.0
 40
0.2
 41
0.2
  0
SEQEND
 8
0
  0
POLYLINE
  8
0
 62
     0
 66
     1
 10
0
 20
0
 30
0.0
 40
0.566929
 41
0.566929
  0
VERTEX
  8
0
 10
107.45
 20
414.242
 30
0.0
 40
0.2
 41
0.2
  0
VERTEX
  8
0
 10
107.45
 20
411.244
 30
0.0
 40
0.2
 41
0.2
  0
VERTEX
  8
0
 10
107.45
 20
411.261
 30
0.0
 40
0.2
 41
0.2
  0
VERTEX
  8
0
 10
107.479
 20
411.314
 30
0.0
 40
0.2
 41
0.2
  0
VERTEX
  8
0
 10
107.532
 20
411.342
 30
0.0
 40
0.2
 41
0.2
  0
VERTEX
  8
0
 10
107.55
 20
411.342
 30
0.0
 40
0.2
 41
0.2
  0
SEQEND
 8
0
  0
POLYLINE
  8
0
 62
     0
 66
     1
 10
0
 20
0
 30
0.0
 40
0.566929
 41
0.566929
  0
VERTEX
  8
0
 10
107.55
 20
411.342
 30
0.0
 40
0.2
 41
0.2
  0
VERTEX
  8
0
 10
91.5501
 20
411.342
 30
0.0
 40
0.2
 41
0.2
  0
SEQEND
 8
0
  0
POLYLINE
  8
0
 62
     0
 66
     1
 10
0
 20
0
 30
0.0
 40
0.566929
 41
0.566929
  0
VERTEX
  8
0
 10
91.5501
 20
411.342
 30
0.0
 40
0.2
 41
0.2
  0
VERTEX
  8
0
 10
91.5321
 20
411.342
 30
0.0
 40
0.2
 41
0.2
  0
VERTEX
  8
0
 10
91.4784
 20
411.314
 30
0.0
 40
0.2
 41
0.2
  0
VERTEX
  8
0
 10
91.4495
 20
411.261
 30
0.0
 40
0.2
 41
0.2
  0
VERTEX
  8
0
 10
91.4495
 20
411.244
 30
0.0
 40
0.2
 41
0.2
  0
SEQEND
 8
0
  0
POLYLINE
  8
0
 62
     0
 66
     1
 10
0
 20
0
 30
0.0
 40
0.566929
 41
0.566929
  0
VERTEX
  8
0
 10
91.4495
 20
411.244
 30
0.0
 40
0.2
 41
0.2
  0
VERTEX
  8
0
 10
91.4495
 20
395.242
 30
0.0
 40
0.2
 41
0.2
  0
SEQEND
 8
0
  0
POLYLINE
  8
0
 62
     0
 66
     1
 10
0
 20
0
 30
0.0
 40
0.566929
 41
0.566929
  0
VERTEX
  8
0
 10
91.4495
 20
395.242
 30
0.0
 40
0.2
 41
0.2
  0
VERTEX
  8
0
 10
91.4495
 20
395.259
 30
0.0
 40
0.2
 41
0.2
  0
VERTEX
  8
0
 10
91.4784
 20
395.312
 30
0.0
 40
0.2
 41
0.2
  0
VERTEX
  8
0
 10
91.5321
 20
395.344
 30
0.0
 40
0.2
 41
0.2
  0
VERTEX
  8
0
 10
91.5501
 20
395.344
 30
0.0
 40
0.2
 41
0.2
  0
SEQEND
 8
0
  0
POLYLINE
  8
0
 62
     0
 66
     1
 10
0
 20
0
 30
0.0
 40
0.566929
 41
0.566929
  0
VERTEX
  8
0
 10
91.5501
 20
395.344
 30
0.0
 40
0.2
 41
0.2
  0
VERTEX
  8
0
 10
88.55
 20
395.344
 30
0.0
 40
0.2
 41
0.2
  0
VERTEX
  8
0
 10
88.5321
 20
395.344
 30
0.0
 40
0.2
 41
0.2
  0
VERTEX
  8
0
 10
88.4784
 20
395.312
 30
0.0
 40
0.2
 41
0.2
  0
VERTEX
  8
0
 10
88.4495
 20
395.259
 30
0.0
 40
0.2
 41
0.2
  0
VERTEX
  8
0
 10
88.4495
 20
395.242
 30
0.0
 40
0.2
 41
0.2
  0
SEQEND
 8
0
  0
POLYLINE
  8
0
 62
     0
 66
     1
 10
0
 20
0
 30
0.0
 40
0.566929
 41
0.566929
  0
VERTEX
  8
0
 10
88.4495
 20
395.242
 30
0.0
 40
0.2
 41
0.2
  0
VERTEX
  8
0
 10
88.4495
 20
374.241
 30
0.0
 40
0.2
 41
0.2
  0
VERTEX
  8
0
 10
88.4495
 20
374.227
 30
0.0
 40
0.2
 41
0.2
  0
VERTEX
  8
0
 10
88.4784
 20
374.17
 30
0.0
 40
0.2
 41
0.2
  0
VERTEX
  8
0
 10
88.5321
 20
374.142
 30
0.0
 40
0.2
 41
0.2
  0
VERTEX
  8
0
 10
88.55
 20
374.142
 30
0.0
 40
0.2
 41
0.2
  0
SEQEND
 8
0
  0
POLYLINE
  8
0
 62
     0
 66
     1
 10
0
 20
0
 30
0.0
 40
0.566929
 41
0.566929
  0
VERTEX
  8
0
 10
88.55
 20
374.142
 30
0.0
 40
0.2
 41
0.2
  0
VERTEX
  8
0
 10
91.5501
 20
374.142
 30
0.0
 40
0.2
 41
0.2
  0
VERTEX
  8
0
 10
91.5321
 20
374.142
 30
0.0
 40
0.2
 41
0.2
  0
VERTEX
  8
0
 10
91.4784
 20
374.17
 30
0.0
 40
0.2
 41
0.2
  0
VERTEX
  8
0
 10
91.4495
 20
374.227
 30
0.0
 40
0.2
 41
0.2
  0
VERTEX
  8
0
 10
91.4495
 20
374.241
 30
0.0
 40
0.2
 41
0.2
  0
SEQEND
 8
0
  0
POLYLINE
  8
0
 62
     0
 66
     1
 10
0
 20
0
 30
0.0
 40
0.566929
 41
0.566929
  0
VERTEX
  8
0
 10
91.4495
 20
374.241
 30
0.0
 40
0.2
 41
0.2
  0
VERTEX
  8
0
 10
91.4495
 20
368.244
 30
0.0
 40
0.2
 41
0.2
  0
SEQEND
 8
0
  0
POLYLINE
  8
0
 62
     0
 66
     1
 10
0
 20
0
 30
0.0
 40
0.566929
 41
0.566929
  0
VERTEX
  8
0
 10
91.4495
 20
368.244
 30
0.0
 40
0.2
 41
0.2
  0
VERTEX
  8
0
 10
91.4495
 20
368.261
 30
0.0
 40
0.2
 41
0.2
  0
VERTEX
  8
0
 10
91.4784
 20
368.314
 30
0.0
 40
0.2
 41
0.2
  0
VERTEX
  8
0
 10
91.5321
 20
368.342
 30
0.0
 40
0.2
 41
0.2
  0
VERTEX
  8
0
 10
91.5501
 20
368.342
 30
0.0
 40
0.2
 41
0.2
  0
SEQEND
 8
0
  0
POLYLINE
  8
0
 62
     0
 66
     1
 10
0
 20
0
 30
0.0
 40
0.566929
 41
0.566929
  0
VERTEX
  8
0
 10
91.5501
 20
368.342
 30
0.0
 40
0.2
 41
0.2
  0
VERTEX
  8
0
 10
88.55
 20
368.342
 30
0.0
 40
0.2
 41
0.2
  0
VERTEX
  8
0
 10
88.5321
 20
368.342
 30
0.0
 40
0.2
 41
0.2
  0
VERTEX
  8
0
 10
88.4784
 20
368.314
 30
0.0
 40
0.2
 41
0.2
  0
VERTEX
  8
0
 10
88.4495
 20
368.261
 30
0.0
 40
0.2
 41
0.2
  0
VERTEX
  8
0
 10
88.4495
 20
368.244
 30
0.0
 40
0.2
 41
0.2
  0
SEQEND
 8
0
  0
POLYLINE
  8
0
 62
     0
 66
     1
 10
0
 20
0
 30
0.0
 40
0.566929
 41
0.566929
  0
VERTEX
  8
0
 10
88.4495
 20
368.244
 30
0.0
 40
0.2
 41
0.2
  0
VERTEX
  8
0
 10
88.4495
 20
347.242
 30
0.0
 40
0.2
 41
0.2
  0
VERTEX
  8
0
 10
88.4495
 20
347.226
 30
0.0
 40
0.2
 41
0.2
  0
VERTEX
  8
0
 10
88.4784
 20
347.172
 30
0.0
 40
0.2
 41
0.2
  0
VERTEX
  8
0
 10
88.5321
 20
347.141
 30
0.0
 40
0.2
 41
0.2
  0
VERTEX
  8
0
 10
88.55
 20
347.141
 30
0.0
 40
0.2
 41
0.2
  0
SEQEND
 8
0
  0
POLYLINE
  8
0
 62
     0
 66
     1
 10
0
 20
0
 30
0.0
 40
0.566929
 41
0.566929
  0
VERTEX
  8
0
 10
88.55
 20
347.141
 30
0.0
 40
0.2
 41
0.2
  0
VERTEX
  8
0
 10
91.5501
 20
347.141
 30
0.0
 40
0.2
 41
0.2
  0
VERTEX
  8
0
 10
91.5321
 20
347.141
 30
0.0
 40
0.2
 41
0.2
  0
VERTEX
  8
0
 10
91.4784
 20
347.172
 30
0.0
 40
0.2
 41
0.2
  0
VERTEX
  8
0
 10
91.4495
 20
347.226
 30
0.0
 40
0.2
 41
0.2
  0
VERTEX
  8
0
 10
91.4495
 20
347.242
 30
0.0
 40
0.2
 41
0.2
  0
SEQEND
 8
0
  0
POLYLINE
  8
0
 62
     0
 66
     1
 10
0
 20
0
 30
0.0
 40
0.566929
 41
0.566929
  0
VERTEX
  8
0
 10
91.4495
 20
347.242
 30
0.0
 40
0.2
 41
0.2
  0
VERTEX
  8
0
 10
91.4495
 20
331.242
 30
0.0
 40
0.2
 41
0.2
  0
SEQEND
 8
0
  0
POLYLINE
  8
0
 62
     0
 66
     1
 10
0
 20
0
 30
0.0
 40
0.566929
 41
0.566929
  0
VERTEX
  8
0
 10
91.4495
 20
331.242
 30
0.0
 40
0.2
 41
0.2
  0
VERTEX
  8
0
 10
91.4495
 20
331.225
 30
0.0
 40
0.2
 41
0.2
  0
VERTEX
  8
0
 10
91.4784
 20
331.172
 30
0.0
 40
0.2
 41
0.2
  0
VERTEX
  8
0
 10
91.5321
 20
331.141
 30
0.0
 40
0.2
 41
0.2
  0
VERTEX
  8
0
 10
91.5501
 20
331.141
 30
0.0
 40
0.2
 41
0.2
  0
SEQEND
 8
0
  0
ENDSEC
  0
EOF
