  0
SECTION
  2
HEADER
  9
$ACADVER
  1
AC1009
  9
$EXTMIN
 10
0.0
 20
0.0
 30
0.0
  9
$EXTMAX
 10
1000.0
 20
1000.0
 30
0.0
  9
$FILLMODE
 70
 0
  9
$SPLFRAME
 70
 1
  0
ENDSEC
  0
SECTION
  2
TABLES
  0
TABLE
  2
LAYER
 70
1
  0
LAYER
  2
0
 70
     0
 62
     7
  6
CONTINUOUS
  0
ENDTAB
  0
ENDSEC
  0
SECTION
  2
ENTITIES
  0
POLYLINE
  8
0
 62
     0
 66
     1
 10
0
 20
0
 30
0.0
 70
     1
 40
0.566929
 41
0.566929
  0
VERTEX
  8
0
 10
0.850251
 20
11.0422
 30
0.0
 40
0.2
 41
0.2
  0
VERTEX
  8
0
 10
100.85
 20
11.0422
 30
0.0
 40
0.2
 41
0.2
  0
VERTEX
  8
0
 10
100.85
 20
1.0418
 30
0.0
 40
0.2
 41
0.2
  0
VERTEX
  8
0
 10
0.850251
 20
1.0418
 30
0.0
 40
0.2
 41
0.2
  0
VERTEX
  8
0
 10
0.850251
 20
11.0422
 30
0.0
 40
0.2
 41
0.2
  0
SEQEND
 8
0
  0
POLYLINE
  8
0
 62
     7
 66
     1
 10
0
 20
0
 30
0.0
 70
     1
 40
0.566929
 41
0.566929
  0
VERTEX
  8
0
 10
35.0449
 20
9.77166
 30
0.0
 40
0.2
 41
0.2
  0
VERTEX
  8
0
 10
66.6542
 20
9.77166
 30
0.0
 40
0.2
 41
0.2
  0
VERTEX
  8
0
 10
66.6542
 20
2.31235
 30
0.0
 40
0.2
 41
0.2
  0
VERTEX
  8
0
 10
35.0449
 20
2.31235
 30
0.0
 40
0.2
 41
0.2
  0
VERTEX
  8
0
 10
35.0449
 20
9.77166
 30
0.0
 40
0.2
 41
0.2
  0
SEQEND
 8
0
  0
TEXT
  8
0
 62
     0
 10
35.045
 20
2.31166
 30
0
 40
10
  1
100mm
 50
0
  7
f-0-0
  0
POLYLINE
  8
0
 62
     0
 66
     1
 10
0
 20
0
 30
0.0
 40
0.566929
 41
0.566929
  0
VERTEX
  8
0
 10
3.85025
 20
12.7413
 30
0.0
 40
0.2
 41
0.2
  0
VERTEX
  8
0
 10
15.35
 20
12.7413
 30
0.0
 40
0.2
 41
0.2
  0
SEQEND
 8
0
  0
POLYLINE
  8
0
 62
     0
 66
     1
 10
0
 20
0
 30
0.0
 40
0.566929
 41
0.566929
  0
VERTEX
  8
0
 10
15.35
 20
12.7413
 30
0.0
 40
0.2
 41
0.2
  0
VERTEX
  8
0
 10
15.3665
 20
12.7413
 30
0.0
 40
0.2
 41
0.2
  0
VERTEX
  8
0
 10
15.4202
 20
12.7716
 30
0.0
 40
0.2
 41
0.2
  0
VERTEX
  8
0
 10
15.4506
 20
12.8254
 30
0.0
 40
0.2
 41
0.2
  0
VERTEX
  8
0
 10
15.4506
 20
12.8419
 30
0.0
 40
0.2
 41
0.2
  0
SEQEND
 8
0
  0
POLYLINE
  8
0
 62
     0
 66
     1
 10
0
 20
0
 30
0.0
 40
0.566929
 41
0.566929
  0
VERTEX
  8
0
 10
15.4506
 20
12.8419
 30
0.0
 40
0.2
 41
0.2
  0
VERTEX
  8
0
 10
15.4506
 20
15.8419
 30
0.0
 40
0.2
 41
0.2
  0
VERTEX
  8
0
 10
15.4506
 20
15.8254
 30
0.0
 40
0.2
 41
0.2
  0
VERTEX
  8
0
 10
15.4202
 20
15.7716
 30
0.0
 40
0.2
 41
0.2
  0
VERTEX
  8
0
 10
15.3665
 20
15.7413
 30
0.0
 40
0.2
 41
0.2
  0
VERTEX
  8
0
 10
15.35
 20
15.7413
 30
0.0
 40
0.2
 41
0.2
  0
SEQEND
 8
0
  0
POLYLINE
  8
0
 62
     0
 66
     1
 10
0
 20
0
 30
0.0
 40
0.566929
 41
0.566929
  0
VERTEX
  8
0
 10
15.35
 20
15.7413
 30
0.0
 40
0.2
 41
0.2
  0
VERTEX
  8
0
 10
30.3499
 20
15.7413
 30
0.0
 40
0.2
 41
0.2
  0
VERTEX
  8
0
 10
30.332
 20
15.7413
 30
0.0
 40
0.2
 41
0.2
  0
VERTEX
  8
0
 10
30.2782
 20
15.7716
 30
0.0
 40
0.2
 41
0.2
  0
VERTEX
  8
0
 10
30.2493
 20
15.8254
 30
0.0
 40
0.2
 41
0.2
  0
VERTEX
  8
0
 10
30.2493
 20
15.8419
 30
0.0
 40
0.2
 41
0.2
  0
SEQEND
 8
0
  0
POLYLINE
  8
0
 62
     0
 66
     1
 10
0
 20
0
 30
0.0
 40
0.566929
 41
0.566929
  0
VERTEX
  8
0
 10
30.2493
 20
15.8419
 30
0.0
 40
0.2
 41
0.2
  0
VERTEX
  8
0
 10
30.2493
 20
12.8419
 30
0.0
 40
0.2
 41
0.2
  0
VERTEX
  8
0
 10
30.2493
 20
12.8254
 30
0.0
 40
0.2
 41
0.2
  0
VERTEX
  8
0
 10
30.2782
 20
12.7716
 30
0.0
 40
0.2
 41
0.2
  0
VERTEX
  8
0
 10
30.332
 20
12.7413
 30
0.0
 40
0.2
 41
0.2
  0
VERTEX
  8
0
 10
30.3499
 20
12.7413
 30
0.0
 40
0.2
 41
0.2
  0
SEQEND
 8
0
  0
POLYLINE
  8
0
 62
     0
 66
     1
 10
0
 20
0
 30
0.0
 40
0.566929
 41
0.566929
  0
VERTEX
  8
0
 10
30.3499
 20
12.7413
 30
0.0
 40
0.2
 41
0.2
  0
VERTEX
  8
0
 10
36.3499
 20
12.7413
 30
0.0
 40
0.2
 41
0.2
  0
SEQEND
 8
0
  0
POLYLINE
  8
0
 62
     0
 66
     1
 10
0
 20
0
 30
0.0
 40
0.566929
 41
0.566929
  0
VERTEX
  8
0
 10
36.3499
 20
12.7413
 30
0.0
 40
0.2
 41
0.2
  0
VERTEX
  8
0
 10
36.3664
 20
12.7413
 30
0.0
 40
0.2
 41
0.2
  0
VERTEX
  8
0
 10
36.4201
 20
12.7716
 30
0.0
 40
0.2
 41
0.2
  0
VERTEX
  8
0
 10
36.4504
 20
12.8254
 30
0.0
 40
0.2
 41
0.2
  0
VERTEX
  8
0
 10
36.4504
 20
12.8419
 30
0.0
 40
0.2
 41
0.2
  0
SEQEND
 8
0
  0
POLYLINE
  8
0
 62
     0
 66
     1
 10
0
 20
0
 30
0.0
 40
0.566929
 41
0.566929
  0
VERTEX
  8
0
 10
36.4504
 20
12.8419
 30
0.0
 40
0.2
 41
0.2
  0
VERTEX
  8
0
 10
36.4504
 20
15.8419
 30
0.0
 40
0.2
 41
0.2
  0
VERTEX
  8
0
 10
36.4504
 20
15.8254
 30
0.0
 40
0.2
 41
0.2
  0
VERTEX
  8
0
 10
36.4201
 20
15.7716
 30
0.0
 40
0.2
 41
0.2
  0
VERTEX
  8
0
 10
36.3664
 20
15.7413
 30
0.0
 40
0.2
 41
0.2
  0
VERTEX
  8
0
 10
36.3499
 20
15.7413
 30
0.0
 40
0.2
 41
0.2
  0
SEQEND
 8
0
  0
POLYLINE
  8
0
 62
     0
 66
     1
 10
0
 20
0
 30
0.0
 40
0.566929
 41
0.566929
  0
VERTEX
  8
0
 10
36.3499
 20
15.7413
 30
0.0
 40
0.2
 41
0.2
  0
VERTEX
  8
0
 10
51.35
 20
15.7413
 30
0.0
 40
0.2
 41
0.2
  0
VERTEX
  8
0
 10
51.332
 20
15.7413
 30
0.0
 40
0.2
 41
0.2
  0
VERTEX
  8
0
 10
51.278
 20
15.7716
 30
0.0
 40
0.2
 41
0.2
  0
VERTEX
  8
0
 10
51.2491
 20
15.8254
 30
0.0
 40
0.2
 41
0.2
  0
VERTEX
  8
0
 10
51.2491
 20
15.8419
 30
0.0
 40
0.2
 41
0.2
  0
SEQEND
 8
0
  0
POLYLINE
  8
0
 62
     0
 66
     1
 10
0
 20
0
 30
0.0
 40
0.566929
 41
0.566929
  0
VERTEX
  8
0
 10
51.2491
 20
15.8419
 30
0.0
 40
0.2
 41
0.2
  0
VERTEX
  8
0
 10
51.2491
 20
12.8419
 30
0.0
 40
0.2
 41
0.2
  0
VERTEX
  8
0
 10
51.2491
 20
12.8254
 30
0.0
 40
0.2
 41
0.2
  0
VERTEX
  8
0
 10
51.278
 20
12.7716
 30
0.0
 40
0.2
 41
0.2
  0
VERTEX
  8
0
 10
51.332
 20
12.7413
 30
0.0
 40
0.2
 41
0.2
  0
VERTEX
  8
0
 10
51.35
 20
12.7413
 30
0.0
 40
0.2
 41
0.2
  0
SEQEND
 8
0
  0
POLYLINE
  8
0
 62
     0
 66
     1
 10
0
 20
0
 30
0.0
 40
0.566929
 41
0.566929
  0
VERTEX
  8
0
 10
51.35
 20
12.7413
 30
0.0
 40
0.2
 41
0.2
  0
VERTEX
  8
0
 10
57.3497
 20
12.7413
 30
0.0
 40
0.2
 41
0.2
  0
SEQEND
 8
0
  0
POLYLINE
  8
0
 62
     0
 66
     1
 10
0
 20
0
 30
0.0
 40
0.566929
 41
0.566929
  0
VERTEX
  8
0
 10
57.3497
 20
12.7413
 30
0.0
 40
0.2
 41
0.2
  0
VERTEX
  8
0
 10
57.3663
 20
12.7413
 30
0.0
 40
0.2
 41
0.2
  0
VERTEX
  8
0
 10
57.4202
 20
12.7716
 30
0.0
 40
0.2
 41
0.2
  0
VERTEX
  8
0
 10
57.4506
 20
12.8254
 30
0.0
 40
0.2
 41
0.2
  0
VERTEX
  8
0
 10
57.4506
 20
12.8419
 30
0.0
 40
0.2
 41
0.2
  0
SEQEND
 8
0
  0
POLYLINE
  8
0
 62
     0
 66
     1
 10
0
 20
0
 30
0.0
 40
0.566929
 41
0.566929
  0
VERTEX
  8
0
 10
57.4506
 20
12.8419
 30
0.0
 40
0.2
 41
0.2
  0
VERTEX
  8
0
 10
57.4506
 20
15.8419
 30
0.0
 40
0.2
 41
0.2
  0
VERTEX
  8
0
 10
57.4506
 20
15.8254
 30
0.0
 40
0.2
 41
0.2
  0
VERTEX
  8
0
 10
57.4202
 20
15.7716
 30
0.0
 40
0.2
 41
0.2
  0
VERTEX
  8
0
 10
57.3663
 20
15.7413
 30
0.0
 40
0.2
 41
0.2
  0
VERTEX
  8
0
 10
57.3497
 20
15.7413
 30
0.0
 40
0.2
 41
0.2
  0
SEQEND
 8
0
  0
POLYLINE
  8
0
 62
     0
 66
     1
 10
0
 20
0
 30
0.0
 40
0.566929
 41
0.566929
  0
VERTEX
  8
0
 10
57.3497
 20
15.7413
 30
0.0
 40
0.2
 41
0.2
  0
VERTEX
  8
0
 10
72.3498
 20
15.7413
 30
0.0
 40
0.2
 41
0.2
  0
VERTEX
  8
0
 10
72.3318
 20
15.7413
 30
0.0
 40
0.2
 41
0.2
  0
VERTEX
  8
0
 10
72.2782
 20
15.7716
 30
0.0
 40
0.2
 41
0.2
  0
VERTEX
  8
0
 10
72.2492
 20
15.8254
 30
0.0
 40
0.2
 41
0.2
  0
VERTEX
  8
0
 10
72.2492
 20
15.8419
 30
0.0
 40
0.2
 41
0.2
  0
SEQEND
 8
0
  0
POLYLINE
  8
0
 62
     0
 66
     1
 10
0
 20
0
 30
0.0
 40
0.566929
 41
0.566929
  0
VERTEX
  8
0
 10
72.2492
 20
15.8419
 30
0.0
 40
0.2
 41
0.2
  0
VERTEX
  8
0
 10
72.2492
 20
12.8419
 30
0.0
 40
0.2
 41
0.2
  0
VERTEX
  8
0
 10
72.2492
 20
12.8254
 30
0.0
 40
0.2
 41
0.2
  0
VERTEX
  8
0
 10
72.2782
 20
12.7716
 30
0.0
 40
0.2
 41
0.2
  0
VERTEX
  8
0
 10
72.3318
 20
12.7413
 30
0.0
 40
0.2
 41
0.2
  0
VERTEX
  8
0
 10
72.3498
 20
12.7413
 30
0.0
 40
0.2
 41
0.2
  0
SEQEND
 8
0
  0
POLYLINE
  8
0
 62
     0
 66
     1
 10
0
 20
0
 30
0.0
 40
0.566929
 41
0.566929
  0
VERTEX
  8
0
 10
72.3498
 20
12.7413
 30
0.0
 40
0.2
 41
0.2
  0
VERTEX
  8
0
 10
83.8496
 20
12.7413
 30
0.0
 40
0.2
 41
0.2
  0
SEQEND
 8
0
  0
POLYLINE
  8
0
 62
     0
 66
     1
 10
0
 20
0
 30
0.0
 40
0.566929
 41
0.566929
  0
VERTEX
  8
0
 10
83.8496
 20
12.7413
 30
0.0
 40
0.2
 41
0.2
  0
VERTEX
  8
0
 10
86.8497
 20
12.7413
 30
0.0
 40
0.2
 41
0.2
  0
VERTEX
  8
0
 10
86.8659
 20
12.7413
 30
0.0
 40
0.2
 41
0.2
  0
VERTEX
  8
0
 10
86.9199
 20
12.7716
 30
0.0
 40
0.2
 41
0.2
  0
VERTEX
  8
0
 10
86.9502
 20
12.8254
 30
0.0
 40
0.2
 41
0.2
  0
VERTEX
  8
0
 10
86.9502
 20
12.8419
 30
0.0
 40
0.2
 41
0.2
  0
SEQEND
 8
0
  0
POLYLINE
  8
0
 62
     0
 66
     1
 10
0
 20
0
 30
0.0
 40
0.566929
 41
0.566929
  0
VERTEX
  8
0
 10
86.9502
 20
12.8419
 30
0.0
 40
0.2
 41
0.2
  0
VERTEX
  8
0
 10
86.9502
 20
15.8419
 30
0.0
 40
0.2
 41
0.2
  0
SEQEND
 8
0
  0
POLYLINE
  8
0
 62
     0
 66
     1
 10
0
 20
0
 30
0.0
 40
0.566929
 41
0.566929
  0
VERTEX
  8
0
 10
86.9502
 20
15.8419
 30
0.0
 40
0.2
 41
0.2
  0
VERTEX
  8
0
 10
86.9502
 20
22.8424
 30
0.0
 40
0.2
 41
0.2
  0
SEQEND
 8
0
  0
POLYLINE
  8
0
 62
     0
 66
     1
 10
0
 20
0
 30
0.0
 40
0.566929
 41
0.566929
  0
VERTEX
  8
0
 10
86.9502
 20
22.8424
 30
0.0
 40
0.2
 41
0.2
  0
VERTEX
  8
0
 10
86.9502
 20
22.8603
 30
0.0
 40
0.2
 41
0.2
  0
VERTEX
  8
0
 10
86.9199
 20
22.914
 30
0.0
 40
0.2
 41
0.2
  0
VERTEX
  8
0
 10
86.8659
 20
22.943
 30
0.0
 40
0.2
 41
0.2
  0
VERTEX
  8
0
 10
86.8497
 20
22.943
 30
0.0
 40
0.2
 41
0.2
  0
SEQEND
 8
0
  0
POLYLINE
  8
0
 62
     0
 66
     1
 10
0
 20
0
 30
0.0
 40
0.566929
 41
0.566929
  0
VERTEX
  8
0
 10
86.8497
 20
22.943
 30
0.0
 40
0.2
 41
0.2
  0
VERTEX
  8
0
 10
83.8496
 20
22.943
 30
0.0
 40
0.2
 41
0.2
  0
VERTEX
  8
0
 10
83.8659
 20
22.943
 30
0.0
 40
0.2
 41
0.2
  0
VERTEX
  8
0
 10
83.9198
 20
22.914
 30
0.0
 40
0.2
 41
0.2
  0
VERTEX
  8
0
 10
83.9502
 20
22.8603
 30
0.0
 40
0.2
 41
0.2
  0
VERTEX
  8
0
 10
83.9502
 20
22.8424
 30
0.0
 40
0.2
 41
0.2
  0
SEQEND
 8
0
  0
POLYLINE
  8
0
 62
     0
 66
     1
 10
0
 20
0
 30
0.0
 40
0.566929
 41
0.566929
  0
VERTEX
  8
0
 10
83.9502
 20
22.8424
 30
0.0
 40
0.2
 41
0.2
  0
VERTEX
  8
0
 10
83.9502
 20
37.8425
 30
0.0
 40
0.2
 41
0.2
  0
VERTEX
  8
0
 10
83.9502
 20
37.8259
 30
0.0
 40
0.2
 41
0.2
  0
VERTEX
  8
0
 10
83.9198
 20
37.7719
 30
0.0
 40
0.2
 41
0.2
  0
VERTEX
  8
0
 10
83.8659
 20
37.7416
 30
0.0
 40
0.2
 41
0.2
  0
VERTEX
  8
0
 10
83.8496
 20
37.7416
 30
0.0
 40
0.2
 41
0.2
  0
SEQEND
 8
0
  0
POLYLINE
  8
0
 62
     0
 66
     1
 10
0
 20
0
 30
0.0
 40
0.566929
 41
0.566929
  0
VERTEX
  8
0
 10
83.8496
 20
37.7416
 30
0.0
 40
0.2
 41
0.2
  0
VERTEX
  8
0
 10
86.8497
 20
37.7416
 30
0.0
 40
0.2
 41
0.2
  0
VERTEX
  8
0
 10
86.8659
 20
37.7416
 30
0.0
 40
0.2
 41
0.2
  0
VERTEX
  8
0
 10
86.9199
 20
37.7719
 30
0.0
 40
0.2
 41
0.2
  0
VERTEX
  8
0
 10
86.9502
 20
37.8259
 30
0.0
 40
0.2
 41
0.2
  0
VERTEX
  8
0
 10
86.9502
 20
37.8425
 30
0.0
 40
0.2
 41
0.2
  0
SEQEND
 8
0
  0
POLYLINE
  8
0
 62
     0
 66
     1
 10
0
 20
0
 30
0.0
 40
0.566929
 41
0.566929
  0
VERTEX
  8
0
 10
86.9502
 20
37.8425
 30
0.0
 40
0.2
 41
0.2
  0
VERTEX
  8
0
 10
86.9502
 20
43.8422
 30
0.0
 40
0.2
 41
0.2
  0
SEQEND
 8
0
  0
POLYLINE
  8
0
 62
     0
 66
     1
 10
0
 20
0
 30
0.0
 40
0.566929
 41
0.566929
  0
VERTEX
  8
0
 10
86.9502
 20
43.8422
 30
0.0
 40
0.2
 41
0.2
  0
VERTEX
  8
0
 10
86.9502
 20
43.8602
 30
0.0
 40
0.2
 41
0.2
  0
VERTEX
  8
0
 10
86.9199
 20
43.9138
 30
0.0
 40
0.2
 41
0.2
  0
VERTEX
  8
0
 10
86.8659
 20
43.9431
 30
0.0
 40
0.2
 41
0.2
  0
VERTEX
  8
0
 10
86.8497
 20
43.9431
 30
0.0
 40
0.2
 41
0.2
  0
SEQEND
 8
0
  0
POLYLINE
  8
0
 62
     0
 66
     1
 10
0
 20
0
 30
0.0
 40
0.566929
 41
0.566929
  0
VERTEX
  8
0
 10
86.8497
 20
43.9431
 30
0.0
 40
0.2
 41
0.2
  0
VERTEX
  8
0
 10
83.8496
 20
43.9431
 30
0.0
 40
0.2
 41
0.2
  0
VERTEX
  8
0
 10
83.8659
 20
43.9431
 30
0.0
 40
0.2
 41
0.2
  0
VERTEX
  8
0
 10
83.9198
 20
43.9138
 30
0.0
 40
0.2
 41
0.2
  0
VERTEX
  8
0
 10
83.9502
 20
43.8602
 30
0.0
 40
0.2
 41
0.2
  0
VERTEX
  8
0
 10
83.9502
 20
43.8422
 30
0.0
 40
0.2
 41
0.2
  0
SEQEND
 8
0
  0
POLYLINE
  8
0
 62
     0
 66
     1
 10
0
 20
0
 30
0.0
 40
0.566929
 41
0.566929
  0
VERTEX
  8
0
 10
83.9502
 20
43.8422
 30
0.0
 40
0.2
 41
0.2
  0
VERTEX
  8
0
 10
83.9502
 20
58.8423
 30
0.0
 40
0.2
 41
0.2
  0
VERTEX
  8
0
 10
83.9502
 20
58.8257
 30
0.0
 40
0.2
 41
0.2
  0
VERTEX
  8
0
 10
83.9198
 20
58.7721
 30
0.0
 40
0.2
 41
0.2
  0
VERTEX
  8
0
 10
83.8659
 20
58.7417
 30
0.0
 40
0.2
 41
0.2
  0
VERTEX
  8
0
 10
83.8496
 20
58.7417
 30
0.0
 40
0.2
 41
0.2
  0
SEQEND
 8
0
  0
POLYLINE
  8
0
 62
     0
 66
     1
 10
0
 20
0
 30
0.0
 40
0.566929
 41
0.566929
  0
VERTEX
  8
0
 10
83.8496
 20
58.7417
 30
0.0
 40
0.2
 41
0.2
  0
VERTEX
  8
0
 10
86.8497
 20
58.7417
 30
0.0
 40
0.2
 41
0.2
  0
VERTEX
  8
0
 10
86.8659
 20
58.7417
 30
0.0
 40
0.2
 41
0.2
  0
VERTEX
  8
0
 10
86.9199
 20
58.7721
 30
0.0
 40
0.2
 41
0.2
  0
VERTEX
  8
0
 10
86.9502
 20
58.8257
 30
0.0
 40
0.2
 41
0.2
  0
VERTEX
  8
0
 10
86.9502
 20
58.8423
 30
0.0
 40
0.2
 41
0.2
  0
SEQEND
 8
0
  0
POLYLINE
  8
0
 62
     0
 66
     1
 10
0
 20
0
 30
0.0
 40
0.566929
 41
0.566929
  0
VERTEX
  8
0
 10
86.9502
 20
58.8423
 30
0.0
 40
0.2
 41
0.2
  0
VERTEX
  8
0
 10
86.9502
 20
65.8428
 30
0.0
 40
0.2
 41
0.2
  0
SEQEND
 8
0
  0
POLYLINE
  8
0
 62
     0
 66
     1
 10
0
 20
0
 30
0.0
 40
0.566929
 41
0.566929
  0
VERTEX
  8
0
 10
86.9502
 20
65.8428
 30
0.0
 40
0.2
 41
0.2
  0
VERTEX
  8
0
 10
86.9502
 20
68.8428
 30
0.0
 40
0.2
 41
0.2
  0
VERTEX
  8
0
 10
86.9502
 20
68.8605
 30
0.0
 40
0.2
 41
0.2
  0
VERTEX
  8
0
 10
86.9199
 20
68.9144
 30
0.0
 40
0.2
 41
0.2
  0
VERTEX
  8
0
 10
86.8659
 20
68.9434
 30
0.0
 40
0.2
 41
0.2
  0
VERTEX
  8
0
 10
86.8497
 20
68.9434
 30
0.0
 40
0.2
 41
0.2
  0
SEQEND
 8
0
  0
POLYLINE
  8
0
 62
     0
 66
     1
 10
0
 20
0
 30
0.0
 40
0.566929
 41
0.566929
  0
VERTEX
  8
0
 10
86.8497
 20
68.9434
 30
0.0
 40
0.2
 41
0.2
  0
VERTEX
  8
0
 10
83.8496
 20
68.9434
 30
0.0
 40
0.2
 41
0.2
  0
SEQEND
 8
0
  0
POLYLINE
  8
0
 62
     0
 66
     1
 10
0
 20
0
 30
0.0
 40
0.566929
 41
0.566929
  0
VERTEX
  8
0
 10
83.8496
 20
68.9434
 30
0.0
 40
0.2
 41
0.2
  0
VERTEX
  8
0
 10
72.3498
 20
68.9434
 30
0.0
 40
0.2
 41
0.2
  0
SEQEND
 8
0
  0
POLYLINE
  8
0
 62
     0
 66
     1
 10
0
 20
0
 30
0.0
 40
0.566929
 41
0.566929
  0
VERTEX
  8
0
 10
72.3498
 20
68.9434
 30
0.0
 40
0.2
 41
0.2
  0
VERTEX
  8
0
 10
72.3318
 20
68.9434
 30
0.0
 40
0.2
 41
0.2
  0
VERTEX
  8
0
 10
72.2782
 20
68.9144
 30
0.0
 40
0.2
 41
0.2
  0
VERTEX
  8
0
 10
72.2492
 20
68.8605
 30
0.0
 40
0.2
 41
0.2
  0
VERTEX
  8
0
 10
72.2492
 20
68.8428
 30
0.0
 40
0.2
 41
0.2
  0
SEQEND
 8
0
  0
POLYLINE
  8
0
 62
     0
 66
     1
 10
0
 20
0
 30
0.0
 40
0.566929
 41
0.566929
  0
VERTEX
  8
0
 10
72.2492
 20
68.8428
 30
0.0
 40
0.2
 41
0.2
  0
VERTEX
  8
0
 10
72.2492
 20
65.8428
 30
0.0
 40
0.2
 41
0.2
  0
VERTEX
  8
0
 10
72.2492
 20
65.8604
 30
0.0
 40
0.2
 41
0.2
  0
VERTEX
  8
0
 10
72.2782
 20
65.9144
 30
0.0
 40
0.2
 41
0.2
  0
VERTEX
  8
0
 10
72.3318
 20
65.9433
 30
0.0
 40
0.2
 41
0.2
  0
VERTEX
  8
0
 10
72.3498
 20
65.9433
 30
0.0
 40
0.2
 41
0.2
  0
SEQEND
 8
0
  0
POLYLINE
  8
0
 62
     0
 66
     1
 10
0
 20
0
 30
0.0
 40
0.566929
 41
0.566929
  0
VERTEX
  8
0
 10
72.3498
 20
65.9433
 30
0.0
 40
0.2
 41
0.2
  0
VERTEX
  8
0
 10
57.3497
 20
65.9433
 30
0.0
 40
0.2
 41
0.2
  0
VERTEX
  8
0
 10
57.3663
 20
65.9433
 30
0.0
 40
0.2
 41
0.2
  0
VERTEX
  8
0
 10
57.4202
 20
65.9144
 30
0.0
 40
0.2
 41
0.2
  0
VERTEX
  8
0
 10
57.4506
 20
65.8604
 30
0.0
 40
0.2
 41
0.2
  0
VERTEX
  8
0
 10
57.4506
 20
65.8428
 30
0.0
 40
0.2
 41
0.2
  0
SEQEND
 8
0
  0
POLYLINE
  8
0
 62
     0
 66
     1
 10
0
 20
0
 30
0.0
 40
0.566929
 41
0.566929
  0
VERTEX
  8
0
 10
57.4506
 20
65.8428
 30
0.0
 40
0.2
 41
0.2
  0
VERTEX
  8
0
 10
57.4506
 20
68.8428
 30
0.0
 40
0.2
 41
0.2
  0
VERTEX
  8
0
 10
57.4506
 20
68.8605
 30
0.0
 40
0.2
 41
0.2
  0
VERTEX
  8
0
 10
57.4202
 20
68.9144
 30
0.0
 40
0.2
 41
0.2
  0
VERTEX
  8
0
 10
57.3663
 20
68.9434
 30
0.0
 40
0.2
 41
0.2
  0
VERTEX
  8
0
 10
57.3497
 20
68.9434
 30
0.0
 40
0.2
 41
0.2
  0
SEQEND
 8
0
  0
POLYLINE
  8
0
 62
     0
 66
     1
 10
0
 20
0
 30
0.0
 40
0.566929
 41
0.566929
  0
VERTEX
  8
0
 10
57.3497
 20
68.9434
 30
0.0
 40
0.2
 41
0.2
  0
VERTEX
  8
0
 10
51.35
 20
68.9434
 30
0.0
 40
0.2
 41
0.2
  0
SEQEND
 8
0
  0
POLYLINE
  8
0
 62
     0
 66
     1
 10
0
 20
0
 30
0.0
 40
0.566929
 41
0.566929
  0
VERTEX
  8
0
 10
51.35
 20
68.9434
 30
0.0
 40
0.2
 41
0.2
  0
VERTEX
  8
0
 10
51.332
 20
68.9434
 30
0.0
 40
0.2
 41
0.2
  0
VERTEX
  8
0
 10
51.278
 20
68.9144
 30
0.0
 40
0.2
 41
0.2
  0
VERTEX
  8
0
 10
51.2491
 20
68.8605
 30
0.0
 40
0.2
 41
0.2
  0
VERTEX
  8
0
 10
51.2491
 20
68.8428
 30
0.0
 40
0.2
 41
0.2
  0
SEQEND
 8
0
  0
POLYLINE
  8
0
 62
     0
 66
     1
 10
0
 20
0
 30
0.0
 40
0.566929
 41
0.566929
  0
VERTEX
  8
0
 10
51.2491
 20
68.8428
 30
0.0
 40
0.2
 41
0.2
  0
VERTEX
  8
0
 10
51.2491
 20
65.8428
 30
0.0
 40
0.2
 41
0.2
  0
VERTEX
  8
0
 10
51.2491
 20
65.8604
 30
0.0
 40
0.2
 41
0.2
  0
VERTEX
  8
0
 10
51.278
 20
65.9144
 30
0.0
 40
0.2
 41
0.2
  0
VERTEX
  8
0
 10
51.332
 20
65.9433
 30
0.0
 40
0.2
 41
0.2
  0
VERTEX
  8
0
 10
51.35
 20
65.9433
 30
0.0
 40
0.2
 41
0.2
  0
SEQEND
 8
0
  0
POLYLINE
  8
0
 62
     0
 66
     1
 10
0
 20
0
 30
0.0
 40
0.566929
 41
0.566929
  0
VERTEX
  8
0
 10
51.35
 20
65.9433
 30
0.0
 40
0.2
 41
0.2
  0
VERTEX
  8
0
 10
36.3499
 20
65.9433
 30
0.0
 40
0.2
 41
0.2
  0
VERTEX
  8
0
 10
36.3664
 20
65.9433
 30
0.0
 40
0.2
 41
0.2
  0
VERTEX
  8
0
 10
36.4201
 20
65.9144
 30
0.0
 40
0.2
 41
0.2
  0
VERTEX
  8
0
 10
36.4504
 20
65.8604
 30
0.0
 40
0.2
 41
0.2
  0
VERTEX
  8
0
 10
36.4504
 20
65.8428
 30
0.0
 40
0.2
 41
0.2
  0
SEQEND
 8
0
  0
POLYLINE
  8
0
 62
     0
 66
     1
 10
0
 20
0
 30
0.0
 40
0.566929
 41
0.566929
  0
VERTEX
  8
0
 10
36.4504
 20
65.8428
 30
0.0
 40
0.2
 41
0.2
  0
VERTEX
  8
0
 10
36.4504
 20
68.8428
 30
0.0
 40
0.2
 41
0.2
  0
VERTEX
  8
0
 10
36.4504
 20
68.8605
 30
0.0
 40
0.2
 41
0.2
  0
VERTEX
  8
0
 10
36.4201
 20
68.9144
 30
0.0
 40
0.2
 41
0.2
  0
VERTEX
  8
0
 10
36.3664
 20
68.9434
 30
0.0
 40
0.2
 41
0.2
  0
VERTEX
  8
0
 10
36.3499
 20
68.9434
 30
0.0
 40
0.2
 41
0.2
  0
SEQEND
 8
0
  0
POLYLINE
  8
0
 62
     0
 66
     1
 10
0
 20
0
 30
0.0
 40
0.566929
 41
0.566929
  0
VERTEX
  8
0
 10
36.3499
 20
68.9434
 30
0.0
 40
0.2
 41
0.2
  0
VERTEX
  8
0
 10
30.3499
 20
68.9434
 30
0.0
 40
0.2
 41
0.2
  0
SEQEND
 8
0
  0
POLYLINE
  8
0
 62
     0
 66
     1
 10
0
 20
0
 30
0.0
 40
0.566929
 41
0.566929
  0
VERTEX
  8
0
 10
30.3499
 20
68.9434
 30
0.0
 40
0.2
 41
0.2
  0
VERTEX
  8
0
 10
30.332
 20
68.9434
 30
0.0
 40
0.2
 41
0.2
  0
VERTEX
  8
0
 10
30.2782
 20
68.9144
 30
0.0
 40
0.2
 41
0.2
  0
VERTEX
  8
0
 10
30.2493
 20
68.8605
 30
0.0
 40
0.2
 41
0.2
  0
VERTEX
  8
0
 10
30.2493
 20
68.8428
 30
0.0
 40
0.2
 41
0.2
  0
SEQEND
 8
0
  0
POLYLINE
  8
0
 62
     0
 66
     1
 10
0
 20
0
 30
0.0
 40
0.566929
 41
0.566929
  0
VERTEX
  8
0
 10
30.2493
 20
68.8428
 30
0.0
 40
0.2
 41
0.2
  0
VERTEX
  8
0
 10
30.2493
 20
65.8428
 30
0.0
 40
0.2
 41
0.2
  0
VERTEX
  8
0
 10
30.2493
 20
65.8604
 30
0.0
 40
0.2
 41
0.2
  0
VERTEX
  8
0
 10
30.2782
 20
65.9144
 30
0.0
 40
0.2
 41
0.2
  0
VERTEX
  8
0
 10
30.332
 20
65.9433
 30
0.0
 40
0.2
 41
0.2
  0
VERTEX
  8
0
 10
30.3499
 20
65.9433
 30
0.0
 40
0.2
 41
0.2
  0
SEQEND
 8
0
  0
POLYLINE
  8
0
 62
     0
 66
     1
 10
0
 20
0
 30
0.0
 40
0.566929
 41
0.566929
  0
VERTEX
  8
0
 10
30.3499
 20
65.9433
 30
0.0
 40
0.2
 41
0.2
  0
VERTEX
  8
0
 10
15.35
 20
65.9433
 30
0.0
 40
0.2
 41
0.2
  0
VERTEX
  8
0
 10
15.3665
 20
65.9433
 30
0.0
 40
0.2
 41
0.2
  0
VERTEX
  8
0
 10
15.4202
 20
65.9144
 30
0.0
 40
0.2
 41
0.2
  0
VERTEX
  8
0
 10
15.4506
 20
65.8604
 30
0.0
 40
0.2
 41
0.2
  0
VERTEX
  8
0
 10
15.4506
 20
65.8428
 30
0.0
 40
0.2
 41
0.2
  0
SEQEND
 8
0
  0
POLYLINE
  8
0
 62
     0
 66
     1
 10
0
 20
0
 30
0.0
 40
0.566929
 41
0.566929
  0
VERTEX
  8
0
 10
15.4506
 20
65.8428
 30
0.0
 40
0.2
 41
0.2
  0
VERTEX
  8
0
 10
15.4506
 20
68.8428
 30
0.0
 40
0.2
 41
0.2
  0
VERTEX
  8
0
 10
15.4506
 20
68.8605
 30
0.0
 40
0.2
 41
0.2
  0
VERTEX
  8
0
 10
15.4202
 20
68.9144
 30
0.0
 40
0.2
 41
0.2
  0
VERTEX
  8
0
 10
15.3665
 20
68.9434
 30
0.0
 40
0.2
 41
0.2
  0
VERTEX
  8
0
 10
15.35
 20
68.9434
 30
0.0
 40
0.2
 41
0.2
  0
SEQEND
 8
0
  0
POLYLINE
  8
0
 62
     0
 66
     1
 10
0
 20
0
 30
0.0
 40
0.566929
 41
0.566929
  0
VERTEX
  8
0
 10
15.35
 20
68.9434
 30
0.0
 40
0.2
 41
0.2
  0
VERTEX
  8
0
 10
3.85025
 20
68.9434
 30
0.0
 40
0.2
 41
0.2
  0
SEQEND
 8
0
  0
POLYLINE
  8
0
 62
     0
 66
     1
 10
0
 20
0
 30
0.0
 40
0.566929
 41
0.566929
  0
VERTEX
  8
0
 10
3.85025
 20
68.9434
 30
0.0
 40
0.2
 41
0.2
  0
VERTEX
  8
0
 10
0.850251
 20
68.9434
 30
0.0
 40
0.2
 41
0.2
  0
VERTEX
  8
0
 10
0.832337
 20
68.9434
 30
0.0
 40
0.2
 41
0.2
  0
VERTEX
  8
0
 10
0.778591
 20
68.9144
 30
0.0
 40
0.2
 41
0.2
  0
VERTEX
  8
0
 10
0.749653
 20
68.8605
 30
0.0
 40
0.2
 41
0.2
  0
VERTEX
  8
0
 10
0.749653
 20
68.8428
 30
0.0
 40
0.2
 41
0.2
  0
SEQEND
 8
0
  0
POLYLINE
  8
0
 62
     0
 66
     1
 10
0
 20
0
 30
0.0
 40
0.566929
 41
0.566929
  0
VERTEX
  8
0
 10
0.749653
 20
68.8428
 30
0.0
 40
0.2
 41
0.2
  0
VERTEX
  8
0
 10
0.749653
 20
65.8428
 30
0.0
 40
0.2
 41
0.2
  0
SEQEND
 8
0
  0
POLYLINE
  8
0
 62
     0
 66
     1
 10
0
 20
0
 30
0.0
 40
0.566929
 41
0.566929
  0
VERTEX
  8
0
 10
0.749653
 20
65.8428
 30
0.0
 40
0.2
 41
0.2
  0
VERTEX
  8
0
 10
0.749653
 20
58.8423
 30
0.0
 40
0.2
 41
0.2
  0
SEQEND
 8
0
  0
POLYLINE
  8
0
 62
     0
 66
     1
 10
0
 20
0
 30
0.0
 40
0.566929
 41
0.566929
  0
VERTEX
  8
0
 10
0.749653
 20
58.8423
 30
0.0
 40
0.2
 41
0.2
  0
VERTEX
  8
0
 10
0.749653
 20
58.8257
 30
0.0
 40
0.2
 41
0.2
  0
VERTEX
  8
0
 10
0.778591
 20
58.7721
 30
0.0
 40
0.2
 41
0.2
  0
VERTEX
  8
0
 10
0.832337
 20
58.7417
 30
0.0
 40
0.2
 41
0.2
  0
VERTEX
  8
0
 10
0.850251
 20
58.7417
 30
0.0
 40
0.2
 41
0.2
  0
SEQEND
 8
0
  0
POLYLINE
  8
0
 62
     0
 66
     1
 10
0
 20
0
 30
0.0
 40
0.566929
 41
0.566929
  0
VERTEX
  8
0
 10
0.850251
 20
58.7417
 30
0.0
 40
0.2
 41
0.2
  0
VERTEX
  8
0
 10
3.85025
 20
58.7417
 30
0.0
 40
0.2
 41
0.2
  0
VERTEX
  8
0
 10
3.83233
 20
58.7417
 30
0.0
 40
0.2
 41
0.2
  0
VERTEX
  8
0
 10
3.77857
 20
58.7721
 30
0.0
 40
0.2
 41
0.2
  0
VERTEX
  8
0
 10
3.74964
 20
58.8257
 30
0.0
 40
0.2
 41
0.2
  0
VERTEX
  8
0
 10
3.74964
 20
58.8423
 30
0.0
 40
0.2
 41
0.2
  0
SEQEND
 8
0
  0
POLYLINE
  8
0
 62
     0
 66
     1
 10
0
 20
0
 30
0.0
 40
0.566929
 41
0.566929
  0
VERTEX
  8
0
 10
3.74964
 20
58.8423
 30
0.0
 40
0.2
 41
0.2
  0
VERTEX
  8
0
 10
3.74964
 20
43.8422
 30
0.0
 40
0.2
 41
0.2
  0
VERTEX
  8
0
 10
3.74964
 20
43.8602
 30
0.0
 40
0.2
 41
0.2
  0
VERTEX
  8
0
 10
3.77857
 20
43.9138
 30
0.0
 40
0.2
 41
0.2
  0
VERTEX
  8
0
 10
3.83233
 20
43.9431
 30
0.0
 40
0.2
 41
0.2
  0
VERTEX
  8
0
 10
3.85025
 20
43.9431
 30
0.0
 40
0.2
 41
0.2
  0
SEQEND
 8
0
  0
POLYLINE
  8
0
 62
     0
 66
     1
 10
0
 20
0
 30
0.0
 40
0.566929
 41
0.566929
  0
VERTEX
  8
0
 10
3.85025
 20
43.9431
 30
0.0
 40
0.2
 41
0.2
  0
VERTEX
  8
0
 10
0.850251
 20
43.9431
 30
0.0
 40
0.2
 41
0.2
  0
VERTEX
  8
0
 10
0.832337
 20
43.9431
 30
0.0
 40
0.2
 41
0.2
  0
VERTEX
  8
0
 10
0.778591
 20
43.9138
 30
0.0
 40
0.2
 41
0.2
  0
VERTEX
  8
0
 10
0.749653
 20
43.8602
 30
0.0
 40
0.2
 41
0.2
  0
VERTEX
  8
0
 10
0.749653
 20
43.8422
 30
0.0
 40
0.2
 41
0.2
  0
SEQEND
 8
0
  0
POLYLINE
  8
0
 62
     0
 66
     1
 10
0
 20
0
 30
0.0
 40
0.566929
 41
0.566929
  0
VERTEX
  8
0
 10
0.749653
 20
43.8422
 30
0.0
 40
0.2
 41
0.2
  0
VERTEX
  8
0
 10
0.749653
 20
37.8425
 30
0.0
 40
0.2
 41
0.2
  0
SEQEND
 8
0
  0
POLYLINE
  8
0
 62
     0
 66
     1
 10
0
 20
0
 30
0.0
 40
0.566929
 41
0.566929
  0
VERTEX
  8
0
 10
0.749653
 20
37.8425
 30
0.0
 40
0.2
 41
0.2
  0
VERTEX
  8
0
 10
0.749653
 20
37.8259
 30
0.0
 40
0.2
 41
0.2
  0
VERTEX
  8
0
 10
0.778591
 20
37.7719
 30
0.0
 40
0.2
 41
0.2
  0
VERTEX
  8
0
 10
0.832337
 20
37.7416
 30
0.0
 40
0.2
 41
0.2
  0
VERTEX
  8
0
 10
0.850251
 20
37.7416
 30
0.0
 40
0.2
 41
0.2
  0
SEQEND
 8
0
  0
POLYLINE
  8
0
 62
     0
 66
     1
 10
0
 20
0
 30
0.0
 40
0.566929
 41
0.566929
  0
VERTEX
  8
0
 10
0.850251
 20
37.7416
 30
0.0
 40
0.2
 41
0.2
  0
VERTEX
  8
0
 10
3.85025
 20
37.7416
 30
0.0
 40
0.2
 41
0.2
  0
VERTEX
  8
0
 10
3.83233
 20
37.7416
 30
0.0
 40
0.2
 41
0.2
  0
VERTEX
  8
0
 10
3.77857
 20
37.7719
 30
0.0
 40
0.2
 41
0.2
  0
VERTEX
  8
0
 10
3.74964
 20
37.8259
 30
0.0
 40
0.2
 41
0.2
  0
VERTEX
  8
0
 10
3.74964
 20
37.8425
 30
0.0
 40
0.2
 41
0.2
  0
SEQEND
 8
0
  0
POLYLINE
  8
0
 62
     0
 66
     1
 10
0
 20
0
 30
0.0
 40
0.566929
 41
0.566929
  0
VERTEX
  8
0
 10
3.74964
 20
37.8425
 30
0.0
 40
0.2
 41
0.2
  0
VERTEX
  8
0
 10
3.74964
 20
22.8424
 30
0.0
 40
0.2
 41
0.2
  0
VERTEX
  8
0
 10
3.74964
 20
22.8603
 30
0.0
 40
0.2
 41
0.2
  0
VERTEX
  8
0
 10
3.77857
 20
22.914
 30
0.0
 40
0.2
 41
0.2
  0
VERTEX
  8
0
 10
3.83233
 20
22.943
 30
0.0
 40
0.2
 41
0.2
  0
VERTEX
  8
0
 10
3.85025
 20
22.943
 30
0.0
 40
0.2
 41
0.2
  0
SEQEND
 8
0
  0
POLYLINE
  8
0
 62
     0
 66
     1
 10
0
 20
0
 30
0.0
 40
0.566929
 41
0.566929
  0
VERTEX
  8
0
 10
3.85025
 20
22.943
 30
0.0
 40
0.2
 41
0.2
  0
VERTEX
  8
0
 10
0.850251
 20
22.943
 30
0.0
 40
0.2
 41
0.2
  0
VERTEX
  8
0
 10
0.832337
 20
22.943
 30
0.0
 40
0.2
 41
0.2
  0
VERTEX
  8
0
 10
0.778591
 20
22.914
 30
0.0
 40
0.2
 41
0.2
  0
VERTEX
  8
0
 10
0.749653
 20
22.8603
 30
0.0
 40
0.2
 41
0.2
  0
VERTEX
  8
0
 10
0.749653
 20
22.8424
 30
0.0
 40
0.2
 41
0.2
  0
SEQEND
 8
0
  0
POLYLINE
  8
0
 62
     0
 66
     1
 10
0
 20
0
 30
0.0
 40
0.566929
 41
0.566929
  0
VERTEX
  8
0
 10
0.749653
 20
22.8424
 30
0.0
 40
0.2
 41
0.2
  0
VERTEX
  8
0
 10
0.749653
 20
15.8419
 30
0.0
 40
0.2
 41
0.2
  0
SEQEND
 8
0
  0
POLYLINE
  8
0
 62
     0
 66
     1
 10
0
 20
0
 30
0.0
 40
0.566929
 41
0.566929
  0
VERTEX
  8
0
 10
0.749653
 20
15.8419
 30
0.0
 40
0.2
 41
0.2
  0
VERTEX
  8
0
 10
0.749653
 20
12.8419
 30
0.0
 40
0.2
 41
0.2
  0
VERTEX
  8
0
 10
0.749653
 20
12.8254
 30
0.0
 40
0.2
 41
0.2
  0
VERTEX
  8
0
 10
0.778591
 20
12.7716
 30
0.0
 40
0.2
 41
0.2
  0
VERTEX
  8
0
 10
0.832337
 20
12.7413
 30
0.0
 40
0.2
 41
0.2
  0
VERTEX
  8
0
 10
0.850251
 20
12.7413
 30
0.0
 40
0.2
 41
0.2
  0
SEQEND
 8
0
  0
POLYLINE
  8
0
 62
     0
 66
     1
 10
0
 20
0
 30
0.0
 40
0.566929
 41
0.566929
  0
VERTEX
  8
0
 10
0.850251
 20
12.7413
 30
0.0
 40
0.2
 41
0.2
  0
VERTEX
  8
0
 10
3.85025
 20
12.7413
 30
0.0
 40
0.2
 41
0.2
  0
SEQEND
 8
0
  0
POLYLINE
  8
0
 62
     0
 66
     1
 10
0
 20
0
 30
0.0
 40
0.566929
 41
0.566929
  0
VERTEX
  8
0
 10
91.5501
 20
12.7413
 30
0.0
 40
0.2
 41
0.2
  0
VERTEX
  8
0
 10
103.05
 20
12.7413
 30
0.0
 40
0.2
 41
0.2
  0
SEQEND
 8
0
  0
POLYLINE
  8
0
 62
     0
 66
     1
 10
0
 20
0
 30
0.0
 40
0.566929
 41
0.566929
  0
VERTEX
  8
0
 10
103.05
 20
12.7413
 30
0.0
 40
0.2
 41
0.2
  0
VERTEX
  8
0
 10
103.066
 20
12.7413
 30
0.0
 40
0.2
 41
0.2
  0
VERTEX
  8
0
 10
103.12
 20
12.7716
 30
0.0
 40
0.2
 41
0.2
  0
VERTEX
  8
0
 10
103.15
 20
12.8254
 30
0.0
 40
0.2
 41
0.2
  0
VERTEX
  8
0
 10
103.15
 20
12.8419
 30
0.0
 40
0.2
 41
0.2
  0
SEQEND
 8
0
  0
POLYLINE
  8
0
 62
     0
 66
     1
 10
0
 20
0
 30
0.0
 40
0.566929
 41
0.566929
  0
VERTEX
  8
0
 10
103.15
 20
12.8419
 30
0.0
 40
0.2
 41
0.2
  0
VERTEX
  8
0
 10
103.15
 20
15.8419
 30
0.0
 40
0.2
 41
0.2
  0
VERTEX
  8
0
 10
103.15
 20
15.8254
 30
0.0
 40
0.2
 41
0.2
  0
VERTEX
  8
0
 10
103.12
 20
15.7716
 30
0.0
 40
0.2
 41
0.2
  0
VERTEX
  8
0
 10
103.066
 20
15.7413
 30
0.0
 40
0.2
 41
0.2
  0
VERTEX
  8
0
 10
103.05
 20
15.7413
 30
0.0
 40
0.2
 41
0.2
  0
SEQEND
 8
0
  0
POLYLINE
  8
0
 62
     0
 66
     1
 10
0
 20
0
 30
0.0
 40
0.566929
 41
0.566929
  0
VERTEX
  8
0
 10
103.05
 20
15.7413
 30
0.0
 40
0.2
 41
0.2
  0
VERTEX
  8
0
 10
118.05
 20
15.7413
 30
0.0
 40
0.2
 41
0.2
  0
VERTEX
  8
0
 10
118.032
 20
15.7413
 30
0.0
 40
0.2
 41
0.2
  0
VERTEX
  8
0
 10
117.978
 20
15.7716
 30
0.0
 40
0.2
 41
0.2
  0
VERTEX
  8
0
 10
117.949
 20
15.8254
 30
0.0
 40
0.2
 41
0.2
  0
VERTEX
  8
0
 10
117.949
 20
15.8419
 30
0.0
 40
0.2
 41
0.2
  0
SEQEND
 8
0
  0
POLYLINE
  8
0
 62
     0
 66
     1
 10
0
 20
0
 30
0.0
 40
0.566929
 41
0.566929
  0
VERTEX
  8
0
 10
117.949
 20
15.8419
 30
0.0
 40
0.2
 41
0.2
  0
VERTEX
  8
0
 10
117.949
 20
12.8419
 30
0.0
 40
0.2
 41
0.2
  0
VERTEX
  8
0
 10
117.949
 20
12.8254
 30
0.0
 40
0.2
 41
0.2
  0
VERTEX
  8
0
 10
117.978
 20
12.7716
 30
0.0
 40
0.2
 41
0.2
  0
VERTEX
  8
0
 10
118.032
 20
12.7413
 30
0.0
 40
0.2
 41
0.2
  0
VERTEX
  8
0
 10
118.05
 20
12.7413
 30
0.0
 40
0.2
 41
0.2
  0
SEQEND
 8
0
  0
POLYLINE
  8
0
 62
     0
 66
     1
 10
0
 20
0
 30
0.0
 40
0.566929
 41
0.566929
  0
VERTEX
  8
0
 10
118.05
 20
12.7413
 30
0.0
 40
0.2
 41
0.2
  0
VERTEX
  8
0
 10
124.05
 20
12.7413
 30
0.0
 40
0.2
 41
0.2
  0
SEQEND
 8
0
  0
POLYLINE
  8
0
 62
     0
 66
     1
 10
0
 20
0
 30
0.0
 40
0.566929
 41
0.566929
  0
VERTEX
  8
0
 10
124.05
 20
12.7413
 30
0.0
 40
0.2
 41
0.2
  0
VERTEX
  8
0
 10
124.066
 20
12.7413
 30
0.0
 40
0.2
 41
0.2
  0
VERTEX
  8
0
 10
124.12
 20
12.7716
 30
0.0
 40
0.2
 41
0.2
  0
VERTEX
  8
0
 10
124.15
 20
12.8254
 30
0.0
 40
0.2
 41
0.2
  0
VERTEX
  8
0
 10
124.15
 20
12.8419
 30
0.0
 40
0.2
 41
0.2
  0
SEQEND
 8
0
  0
POLYLINE
  8
0
 62
     0
 66
     1
 10
0
 20
0
 30
0.0
 40
0.566929
 41
0.566929
  0
VERTEX
  8
0
 10
124.15
 20
12.8419
 30
0.0
 40
0.2
 41
0.2
  0
VERTEX
  8
0
 10
124.15
 20
15.8419
 30
0.0
 40
0.2
 41
0.2
  0
VERTEX
  8
0
 10
124.15
 20
15.8254
 30
0.0
 40
0.2
 41
0.2
  0
VERTEX
  8
0
 10
124.12
 20
15.7716
 30
0.0
 40
0.2
 41
0.2
  0
VERTEX
  8
0
 10
124.066
 20
15.7413
 30
0.0
 40
0.2
 41
0.2
  0
VERTEX
  8
0
 10
124.05
 20
15.7413
 30
0.0
 40
0.2
 41
0.2
  0
SEQEND
 8
0
  0
POLYLINE
  8
0
 62
     0
 66
     1
 10
0
 20
0
 30
0.0
 40
0.566929
 41
0.566929
  0
VERTEX
  8
0
 10
124.05
 20
15.7413
 30
0.0
 40
0.2
 41
0.2
  0
VERTEX
  8
0
 10
139.049
 20
15.7413
 30
0.0
 40
0.2
 41
0.2
  0
VERTEX
  8
0
 10
139.031
 20
15.7413
 30
0.0
 40
0.2
 41
0.2
  0
VERTEX
  8
0
 10
138.978
 20
15.7716
 30
0.0
 40
0.2
 41
0.2
  0
VERTEX
  8
0
 10
138.949
 20
15.8254
 30
0.0
 40
0.2
 41
0.2
  0
VERTEX
  8
0
 10
138.949
 20
15.8419
 30
0.0
 40
0.2
 41
0.2
  0
SEQEND
 8
0
  0
POLYLINE
  8
0
 62
     0
 66
     1
 10
0
 20
0
 30
0.0
 40
0.566929
 41
0.566929
  0
VERTEX
  8
0
 10
138.949
 20
15.8419
 30
0.0
 40
0.2
 41
0.2
  0
VERTEX
  8
0
 10
138.949
 20
12.8419
 30
0.0
 40
0.2
 41
0.2
  0
VERTEX
  8
0
 10
138.949
 20
12.8254
 30
0.0
 40
0.2
 41
0.2
  0
VERTEX
  8
0
 10
138.978
 20
12.7716
 30
0.0
 40
0.2
 41
0.2
  0
VERTEX
  8
0
 10
139.031
 20
12.7413
 30
0.0
 40
0.2
 41
0.2
  0
VERTEX
  8
0
 10
139.049
 20
12.7413
 30
0.0
 40
0.2
 41
0.2
  0
SEQEND
 8
0
  0
POLYLINE
  8
0
 62
     0
 66
     1
 10
0
 20
0
 30
0.0
 40
0.566929
 41
0.566929
  0
VERTEX
  8
0
 10
139.049
 20
12.7413
 30
0.0
 40
0.2
 41
0.2
  0
VERTEX
  8
0
 10
145.05
 20
12.7413
 30
0.0
 40
0.2
 41
0.2
  0
SEQEND
 8
0
  0
POLYLINE
  8
0
 62
     0
 66
     1
 10
0
 20
0
 30
0.0
 40
0.566929
 41
0.566929
  0
VERTEX
  8
0
 10
145.05
 20
12.7413
 30
0.0
 40
0.2
 41
0.2
  0
VERTEX
  8
0
 10
145.066
 20
12.7413
 30
0.0
 40
0.2
 41
0.2
  0
VERTEX
  8
0
 10
145.12
 20
12.7716
 30
0.0
 40
0.2
 41
0.2
  0
VERTEX
  8
0
 10
145.15
 20
12.8254
 30
0.0
 40
0.2
 41
0.2
  0
VERTEX
  8
0
 10
145.15
 20
12.8419
 30
0.0
 40
0.2
 41
0.2
  0
SEQEND
 8
0
  0
POLYLINE
  8
0
 62
     0
 66
     1
 10
0
 20
0
 30
0.0
 40
0.566929
 41
0.566929
  0
VERTEX
  8
0
 10
145.15
 20
12.8419
 30
0.0
 40
0.2
 41
0.2
  0
VERTEX
  8
0
 10
145.15
 20
15.8419
 30
0.0
 40
0.2
 41
0.2
  0
VERTEX
  8
0
 10
145.15
 20
15.8254
 30
0.0
 40
0.2
 41
0.2
  0
VERTEX
  8
0
 10
145.12
 20
15.7716
 30
0.0
 40
0.2
 41
0.2
  0
VERTEX
  8
0
 10
145.066
 20
15.7413
 30
0.0
 40
0.2
 41
0.2
  0
VERTEX
  8
0
 10
145.05
 20
15.7413
 30
0.0
 40
0.2
 41
0.2
  0
SEQEND
 8
0
  0
POLYLINE
  8
0
 62
     0
 66
     1
 10
0
 20
0
 30
0.0
 40
0.566929
 41
0.566929
  0
VERTEX
  8
0
 10
145.05
 20
15.7413
 30
0.0
 40
0.2
 41
0.2
  0
VERTEX
  8
0
 10
160.05
 20
15.7413
 30
0.0
 40
0.2
 41
0.2
  0
VERTEX
  8
0
 10
160.032
 20
15.7413
 30
0.0
 40
0.2
 41
0.2
  0
VERTEX
  8
0
 10
159.978
 20
15.7716
 30
0.0
 40
0.2
 41
0.2
  0
VERTEX
  8
0
 10
159.949
 20
15.8254
 30
0.0
 40
0.2
 41
0.2
  0
VERTEX
  8
0
 10
159.949
 20
15.8419
 30
0.0
 40
0.2
 41
0.2
  0
SEQEND
 8
0
  0
POLYLINE
  8
0
 62
     0
 66
     1
 10
0
 20
0
 30
0.0
 40
0.566929
 41
0.566929
  0
VERTEX
  8
0
 10
159.949
 20
15.8419
 30
0.0
 40
0.2
 41
0.2
  0
VERTEX
  8
0
 10
159.949
 20
12.8419
 30
0.0
 40
0.2
 41
0.2
  0
VERTEX
  8
0
 10
159.949
 20
12.8254
 30
0.0
 40
0.2
 41
0.2
  0
VERTEX
  8
0
 10
159.978
 20
12.7716
 30
0.0
 40
0.2
 41
0.2
  0
VERTEX
  8
0
 10
160.032
 20
12.7413
 30
0.0
 40
0.2
 41
0.2
  0
VERTEX
  8
0
 10
160.05
 20
12.7413
 30
0.0
 40
0.2
 41
0.2
  0
SEQEND
 8
0
  0
POLYLINE
  8
0
 62
     0
 66
     1
 10
0
 20
0
 30
0.0
 40
0.566929
 41
0.566929
  0
VERTEX
  8
0
 10
160.05
 20
12.7413
 30
0.0
 40
0.2
 41
0.2
  0
VERTEX
  8
0
 10
171.549
 20
12.7413
 30
0.0
 40
0.2
 41
0.2
  0
SEQEND
 8
0
  0
POLYLINE
  8
0
 62
     0
 66
     1
 10
0
 20
0
 30
0.0
 40
0.566929
 41
0.566929
  0
VERTEX
  8
0
 10
171.549
 20
12.7413
 30
0.0
 40
0.2
 41
0.2
  0
VERTEX
  8
0
 10
171.566
 20
12.7413
 30
0.0
 40
0.2
 41
0.2
  0
VERTEX
  8
0
 10
171.619
 20
12.7716
 30
0.0
 40
0.2
 41
0.2
  0
VERTEX
  8
0
 10
171.65
 20
12.8254
 30
0.0
 40
0.2
 41
0.2
  0
VERTEX
  8
0
 10
171.65
 20
12.8419
 30
0.0
 40
0.2
 41
0.2
  0
SEQEND
 8
0
  0
POLYLINE
  8
0
 62
     0
 66
     1
 10
0
 20
0
 30
0.0
 40
0.566929
 41
0.566929
  0
VERTEX
  8
0
 10
171.65
 20
12.8419
 30
0.0
 40
0.2
 41
0.2
  0
VERTEX
  8
0
 10
171.65
 20
15.8419
 30
0.0
 40
0.2
 41
0.2
  0
SEQEND
 8
0
  0
POLYLINE
  8
0
 62
     0
 66
     1
 10
0
 20
0
 30
0.0
 40
0.566929
 41
0.566929
  0
VERTEX
  8
0
 10
171.65
 20
15.8419
 30
0.0
 40
0.2
 41
0.2
  0
VERTEX
  8
0
 10
171.65
 20
22.8424
 30
0.0
 40
0.2
 41
0.2
  0
SEQEND
 8
0
  0
POLYLINE
  8
0
 62
     0
 66
     1
 10
0
 20
0
 30
0.0
 40
0.566929
 41
0.566929
  0
VERTEX
  8
0
 10
171.65
 20
22.8424
 30
0.0
 40
0.2
 41
0.2
  0
VERTEX
  8
0
 10
171.65
 20
22.8258
 30
0.0
 40
0.2
 41
0.2
  0
VERTEX
  8
0
 10
171.619
 20
22.7721
 30
0.0
 40
0.2
 41
0.2
  0
VERTEX
  8
0
 10
171.566
 20
22.7417
 30
0.0
 40
0.2
 41
0.2
  0
VERTEX
  8
0
 10
171.549
 20
22.7417
 30
0.0
 40
0.2
 41
0.2
  0
SEQEND
 8
0
  0
POLYLINE
  8
0
 62
     0
 66
     1
 10
0
 20
0
 30
0.0
 40
0.566929
 41
0.566929
  0
VERTEX
  8
0
 10
171.549
 20
22.7417
 30
0.0
 40
0.2
 41
0.2
  0
VERTEX
  8
0
 10
174.549
 20
22.7417
 30
0.0
 40
0.2
 41
0.2
  0
VERTEX
  8
0
 10
174.566
 20
22.7417
 30
0.0
 40
0.2
 41
0.2
  0
VERTEX
  8
0
 10
174.619
 20
22.7721
 30
0.0
 40
0.2
 41
0.2
  0
VERTEX
  8
0
 10
174.65
 20
22.8258
 30
0.0
 40
0.2
 41
0.2
  0
VERTEX
  8
0
 10
174.65
 20
22.8424
 30
0.0
 40
0.2
 41
0.2
  0
SEQEND
 8
0
  0
POLYLINE
  8
0
 62
     0
 66
     1
 10
0
 20
0
 30
0.0
 40
0.566929
 41
0.566929
  0
VERTEX
  8
0
 10
174.65
 20
22.8424
 30
0.0
 40
0.2
 41
0.2
  0
VERTEX
  8
0
 10
174.65
 20
37.8425
 30
0.0
 40
0.2
 41
0.2
  0
VERTEX
  8
0
 10
174.65
 20
37.8601
 30
0.0
 40
0.2
 41
0.2
  0
VERTEX
  8
0
 10
174.619
 20
37.9141
 30
0.0
 40
0.2
 41
0.2
  0
VERTEX
  8
0
 10
174.566
 20
37.943
 30
0.0
 40
0.2
 41
0.2
  0
VERTEX
  8
0
 10
174.549
 20
37.943
 30
0.0
 40
0.2
 41
0.2
  0
SEQEND
 8
0
  0
POLYLINE
  8
0
 62
     0
 66
     1
 10
0
 20
0
 30
0.0
 40
0.566929
 41
0.566929
  0
VERTEX
  8
0
 10
174.549
 20
37.943
 30
0.0
 40
0.2
 41
0.2
  0
VERTEX
  8
0
 10
171.549
 20
37.943
 30
0.0
 40
0.2
 41
0.2
  0
VERTEX
  8
0
 10
171.566
 20
37.943
 30
0.0
 40
0.2
 41
0.2
  0
VERTEX
  8
0
 10
171.619
 20
37.9141
 30
0.0
 40
0.2
 41
0.2
  0
VERTEX
  8
0
 10
171.65
 20
37.8601
 30
0.0
 40
0.2
 41
0.2
  0
VERTEX
  8
0
 10
171.65
 20
37.8425
 30
0.0
 40
0.2
 41
0.2
  0
SEQEND
 8
0
  0
POLYLINE
  8
0
 62
     0
 66
     1
 10
0
 20
0
 30
0.0
 40
0.566929
 41
0.566929
  0
VERTEX
  8
0
 10
171.65
 20
37.8425
 30
0.0
 40
0.2
 41
0.2
  0
VERTEX
  8
0
 10
171.65
 20
43.8422
 30
0.0
 40
0.2
 41
0.2
  0
SEQEND
 8
0
  0
POLYLINE
  8
0
 62
     0
 66
     1
 10
0
 20
0
 30
0.0
 40
0.566929
 41
0.566929
  0
VERTEX
  8
0
 10
171.65
 20
43.8422
 30
0.0
 40
0.2
 41
0.2
  0
VERTEX
  8
0
 10
171.65
 20
43.8256
 30
0.0
 40
0.2
 41
0.2
  0
VERTEX
  8
0
 10
171.619
 20
43.772
 30
0.0
 40
0.2
 41
0.2
  0
VERTEX
  8
0
 10
171.566
 20
43.7416
 30
0.0
 40
0.2
 41
0.2
  0
VERTEX
  8
0
 10
171.549
 20
43.7416
 30
0.0
 40
0.2
 41
0.2
  0
SEQEND
 8
0
  0
POLYLINE
  8
0
 62
     0
 66
     1
 10
0
 20
0
 30
0.0
 40
0.566929
 41
0.566929
  0
VERTEX
  8
0
 10
171.549
 20
43.7416
 30
0.0
 40
0.2
 41
0.2
  0
VERTEX
  8
0
 10
174.549
 20
43.7416
 30
0.0
 40
0.2
 41
0.2
  0
VERTEX
  8
0
 10
174.566
 20
43.7416
 30
0.0
 40
0.2
 41
0.2
  0
VERTEX
  8
0
 10
174.619
 20
43.772
 30
0.0
 40
0.2
 41
0.2
  0
VERTEX
  8
0
 10
174.65
 20
43.8256
 30
0.0
 40
0.2
 41
0.2
  0
VERTEX
  8
0
 10
174.65
 20
43.8422
 30
0.0
 40
0.2
 41
0.2
  0
SEQEND
 8
0
  0
POLYLINE
  8
0
 62
     0
 66
     1
 10
0
 20
0
 30
0.0
 40
0.566929
 41
0.566929
  0
VERTEX
  8
0
 10
174.65
 20
43.8422
 30
0.0
 40
0.2
 41
0.2
  0
VERTEX
  8
0
 10
174.65
 20
58.8423
 30
0.0
 40
0.2
 41
0.2
  0
VERTEX
  8
0
 10
174.65
 20
58.8603
 30
0.0
 40
0.2
 41
0.2
  0
VERTEX
  8
0
 10
174.619
 20
58.9139
 30
0.0
 40
0.2
 41
0.2
  0
VERTEX
  8
0
 10
174.566
 20
58.9428
 30
0.0
 40
0.2
 41
0.2
  0
VERTEX
  8
0
 10
174.549
 20
58.9428
 30
0.0
 40
0.2
 41
0.2
  0
SEQEND
 8
0
  0
POLYLINE
  8
0
 62
     0
 66
     1
 10
0
 20
0
 30
0.0
 40
0.566929
 41
0.566929
  0
VERTEX
  8
0
 10
174.549
 20
58.9428
 30
0.0
 40
0.2
 41
0.2
  0
VERTEX
  8
0
 10
171.549
 20
58.9428
 30
0.0
 40
0.2
 41
0.2
  0
VERTEX
  8
0
 10
171.566
 20
58.9428
 30
0.0
 40
0.2
 41
0.2
  0
VERTEX
  8
0
 10
171.619
 20
58.9139
 30
0.0
 40
0.2
 41
0.2
  0
VERTEX
  8
0
 10
171.65
 20
58.8603
 30
0.0
 40
0.2
 41
0.2
  0
VERTEX
  8
0
 10
171.65
 20
58.8423
 30
0.0
 40
0.2
 41
0.2
  0
SEQEND
 8
0
  0
POLYLINE
  8
0
 62
     0
 66
     1
 10
0
 20
0
 30
0.0
 40
0.566929
 41
0.566929
  0
VERTEX
  8
0
 10
171.65
 20
58.8423
 30
0.0
 40
0.2
 41
0.2
  0
VERTEX
  8
0
 10
171.65
 20
65.8428
 30
0.0
 40
0.2
 41
0.2
  0
SEQEND
 8
0
  0
POLYLINE
  8
0
 62
     0
 66
     1
 10
0
 20
0
 30
0.0
 40
0.566929
 41
0.566929
  0
VERTEX
  8
0
 10
171.65
 20
65.8428
 30
0.0
 40
0.2
 41
0.2
  0
VERTEX
  8
0
 10
171.65
 20
68.8428
 30
0.0
 40
0.2
 41
0.2
  0
VERTEX
  8
0
 10
171.65
 20
68.8605
 30
0.0
 40
0.2
 41
0.2
  0
VERTEX
  8
0
 10
171.619
 20
68.9144
 30
0.0
 40
0.2
 41
0.2
  0
VERTEX
  8
0
 10
171.566
 20
68.9434
 30
0.0
 40
0.2
 41
0.2
  0
VERTEX
  8
0
 10
171.549
 20
68.9434
 30
0.0
 40
0.2
 41
0.2
  0
SEQEND
 8
0
  0
POLYLINE
  8
0
 62
     0
 66
     1
 10
0
 20
0
 30
0.0
 40
0.566929
 41
0.566929
  0
VERTEX
  8
0
 10
171.549
 20
68.9434
 30
0.0
 40
0.2
 41
0.2
  0
VERTEX
  8
0
 10
160.05
 20
68.9434
 30
0.0
 40
0.2
 41
0.2
  0
SEQEND
 8
0
  0
POLYLINE
  8
0
 62
     0
 66
     1
 10
0
 20
0
 30
0.0
 40
0.566929
 41
0.566929
  0
VERTEX
  8
0
 10
160.05
 20
68.9434
 30
0.0
 40
0.2
 41
0.2
  0
VERTEX
  8
0
 10
160.032
 20
68.9434
 30
0.0
 40
0.2
 41
0.2
  0
VERTEX
  8
0
 10
159.978
 20
68.9144
 30
0.0
 40
0.2
 41
0.2
  0
VERTEX
  8
0
 10
159.949
 20
68.8605
 30
0.0
 40
0.2
 41
0.2
  0
VERTEX
  8
0
 10
159.949
 20
68.8428
 30
0.0
 40
0.2
 41
0.2
  0
SEQEND
 8
0
  0
POLYLINE
  8
0
 62
     0
 66
     1
 10
0
 20
0
 30
0.0
 40
0.566929
 41
0.566929
  0
VERTEX
  8
0
 10
159.949
 20
68.8428
 30
0.0
 40
0.2
 41
0.2
  0
VERTEX
  8
0
 10
159.949
 20
65.8428
 30
0.0
 40
0.2
 41
0.2
  0
VERTEX
  8
0
 10
159.949
 20
65.8604
 30
0.0
 40
0.2
 41
0.2
  0
VERTEX
  8
0
 10
159.978
 20
65.9144
 30
0.0
 40
0.2
 41
0.2
  0
VERTEX
  8
0
 10
160.032
 20
65.9433
 30
0.0
 40
0.2
 41
0.2
  0
VERTEX
  8
0
 10
160.05
 20
65.9433
 30
0.0
 40
0.2
 41
0.2
  0
SEQEND
 8
0
  0
POLYLINE
  8
0
 62
     0
 66
     1
 10
0
 20
0
 30
0.0
 40
0.566929
 41
0.566929
  0
VERTEX
  8
0
 10
160.05
 20
65.9433
 30
0.0
 40
0.2
 41
0.2
  0
VERTEX
  8
0
 10
145.05
 20
65.9433
 30
0.0
 40
0.2
 41
0.2
  0
VERTEX
  8
0
 10
145.066
 20
65.9433
 30
0.0
 40
0.2
 41
0.2
  0
VERTEX
  8
0
 10
145.12
 20
65.9144
 30
0.0
 40
0.2
 41
0.2
  0
VERTEX
  8
0
 10
145.15
 20
65.8604
 30
0.0
 40
0.2
 41
0.2
  0
VERTEX
  8
0
 10
145.15
 20
65.8428
 30
0.0
 40
0.2
 41
0.2
  0
SEQEND
 8
0
  0
POLYLINE
  8
0
 62
     0
 66
     1
 10
0
 20
0
 30
0.0
 40
0.566929
 41
0.566929
  0
VERTEX
  8
0
 10
145.15
 20
65.8428
 30
0.0
 40
0.2
 41
0.2
  0
VERTEX
  8
0
 10
145.15
 20
68.8428
 30
0.0
 40
0.2
 41
0.2
  0
VERTEX
  8
0
 10
145.15
 20
68.8605
 30
0.0
 40
0.2
 41
0.2
  0
VERTEX
  8
0
 10
145.12
 20
68.9144
 30
0.0
 40
0.2
 41
0.2
  0
VERTEX
  8
0
 10
145.066
 20
68.9434
 30
0.0
 40
0.2
 41
0.2
  0
VERTEX
  8
0
 10
145.05
 20
68.9434
 30
0.0
 40
0.2
 41
0.2
  0
SEQEND
 8
0
  0
POLYLINE
  8
0
 62
     0
 66
     1
 10
0
 20
0
 30
0.0
 40
0.566929
 41
0.566929
  0
VERTEX
  8
0
 10
145.05
 20
68.9434
 30
0.0
 40
0.2
 41
0.2
  0
VERTEX
  8
0
 10
139.049
 20
68.9434
 30
0.0
 40
0.2
 41
0.2
  0
SEQEND
 8
0
  0
POLYLINE
  8
0
 62
     0
 66
     1
 10
0
 20
0
 30
0.0
 40
0.566929
 41
0.566929
  0
VERTEX
  8
0
 10
139.049
 20
68.9434
 30
0.0
 40
0.2
 41
0.2
  0
VERTEX
  8
0
 10
139.031
 20
68.9434
 30
0.0
 40
0.2
 41
0.2
  0
VERTEX
  8
0
 10
138.978
 20
68.9144
 30
0.0
 40
0.2
 41
0.2
  0
VERTEX
  8
0
 10
138.949
 20
68.8605
 30
0.0
 40
0.2
 41
0.2
  0
VERTEX
  8
0
 10
138.949
 20
68.8428
 30
0.0
 40
0.2
 41
0.2
  0
SEQEND
 8
0
  0
POLYLINE
  8
0
 62
     0
 66
     1
 10
0
 20
0
 30
0.0
 40
0.566929
 41
0.566929
  0
VERTEX
  8
0
 10
138.949
 20
68.8428
 30
0.0
 40
0.2
 41
0.2
  0
VERTEX
  8
0
 10
138.949
 20
65.8428
 30
0.0
 40
0.2
 41
0.2
  0
VERTEX
  8
0
 10
138.949
 20
65.8604
 30
0.0
 40
0.2
 41
0.2
  0
VERTEX
  8
0
 10
138.978
 20
65.9144
 30
0.0
 40
0.2
 41
0.2
  0
VERTEX
  8
0
 10
139.031
 20
65.9433
 30
0.0
 40
0.2
 41
0.2
  0
VERTEX
  8
0
 10
139.049
 20
65.9433
 30
0.0
 40
0.2
 41
0.2
  0
SEQEND
 8
0
  0
POLYLINE
  8
0
 62
     0
 66
     1
 10
0
 20
0
 30
0.0
 40
0.566929
 41
0.566929
  0
VERTEX
  8
0
 10
139.049
 20
65.9433
 30
0.0
 40
0.2
 41
0.2
  0
VERTEX
  8
0
 10
124.05
 20
65.9433
 30
0.0
 40
0.2
 41
0.2
  0
VERTEX
  8
0
 10
124.066
 20
65.9433
 30
0.0
 40
0.2
 41
0.2
  0
VERTEX
  8
0
 10
124.12
 20
65.9144
 30
0.0
 40
0.2
 41
0.2
  0
VERTEX
  8
0
 10
124.15
 20
65.8604
 30
0.0
 40
0.2
 41
0.2
  0
VERTEX
  8
0
 10
124.15
 20
65.8428
 30
0.0
 40
0.2
 41
0.2
  0
SEQEND
 8
0
  0
POLYLINE
  8
0
 62
     0
 66
     1
 10
0
 20
0
 30
0.0
 40
0.566929
 41
0.566929
  0
VERTEX
  8
0
 10
124.15
 20
65.8428
 30
0.0
 40
0.2
 41
0.2
  0
VERTEX
  8
0
 10
124.15
 20
68.8428
 30
0.0
 40
0.2
 41
0.2
  0
VERTEX
  8
0
 10
124.15
 20
68.8605
 30
0.0
 40
0.2
 41
0.2
  0
VERTEX
  8
0
 10
124.12
 20
68.9144
 30
0.0
 40
0.2
 41
0.2
  0
VERTEX
  8
0
 10
124.066
 20
68.9434
 30
0.0
 40
0.2
 41
0.2
  0
VERTEX
  8
0
 10
124.05
 20
68.9434
 30
0.0
 40
0.2
 41
0.2
  0
SEQEND
 8
0
  0
POLYLINE
  8
0
 62
     0
 66
     1
 10
0
 20
0
 30
0.0
 40
0.566929
 41
0.566929
  0
VERTEX
  8
0
 10
124.05
 20
68.9434
 30
0.0
 40
0.2
 41
0.2
  0
VERTEX
  8
0
 10
118.05
 20
68.9434
 30
0.0
 40
0.2
 41
0.2
  0
SEQEND
 8
0
  0
POLYLINE
  8
0
 62
     0
 66
     1
 10
0
 20
0
 30
0.0
 40
0.566929
 41
0.566929
  0
VERTEX
  8
0
 10
118.05
 20
68.9434
 30
0.0
 40
0.2
 41
0.2
  0
VERTEX
  8
0
 10
118.032
 20
68.9434
 30
0.0
 40
0.2
 41
0.2
  0
VERTEX
  8
0
 10
117.978
 20
68.9144
 30
0.0
 40
0.2
 41
0.2
  0
VERTEX
  8
0
 10
117.949
 20
68.8605
 30
0.0
 40
0.2
 41
0.2
  0
VERTEX
  8
0
 10
117.949
 20
68.8428
 30
0.0
 40
0.2
 41
0.2
  0
SEQEND
 8
0
  0
POLYLINE
  8
0
 62
     0
 66
     1
 10
0
 20
0
 30
0.0
 40
0.566929
 41
0.566929
  0
VERTEX
  8
0
 10
117.949
 20
68.8428
 30
0.0
 40
0.2
 41
0.2
  0
VERTEX
  8
0
 10
117.949
 20
65.8428
 30
0.0
 40
0.2
 41
0.2
  0
VERTEX
  8
0
 10
117.949
 20
65.8604
 30
0.0
 40
0.2
 41
0.2
  0
VERTEX
  8
0
 10
117.978
 20
65.9144
 30
0.0
 40
0.2
 41
0.2
  0
VERTEX
  8
0
 10
118.032
 20
65.9433
 30
0.0
 40
0.2
 41
0.2
  0
VERTEX
  8
0
 10
118.05
 20
65.9433
 30
0.0
 40
0.2
 41
0.2
  0
SEQEND
 8
0
  0
POLYLINE
  8
0
 62
     0
 66
     1
 10
0
 20
0
 30
0.0
 40
0.566929
 41
0.566929
  0
VERTEX
  8
0
 10
118.05
 20
65.9433
 30
0.0
 40
0.2
 41
0.2
  0
VERTEX
  8
0
 10
103.05
 20
65.9433
 30
0.0
 40
0.2
 41
0.2
  0
VERTEX
  8
0
 10
103.066
 20
65.9433
 30
0.0
 40
0.2
 41
0.2
  0
VERTEX
  8
0
 10
103.12
 20
65.9144
 30
0.0
 40
0.2
 41
0.2
  0
VERTEX
  8
0
 10
103.15
 20
65.8604
 30
0.0
 40
0.2
 41
0.2
  0
VERTEX
  8
0
 10
103.15
 20
65.8428
 30
0.0
 40
0.2
 41
0.2
  0
SEQEND
 8
0
  0
POLYLINE
  8
0
 62
     0
 66
     1
 10
0
 20
0
 30
0.0
 40
0.566929
 41
0.566929
  0
VERTEX
  8
0
 10
103.15
 20
65.8428
 30
0.0
 40
0.2
 41
0.2
  0
VERTEX
  8
0
 10
103.15
 20
68.8428
 30
0.0
 40
0.2
 41
0.2
  0
VERTEX
  8
0
 10
103.15
 20
68.8605
 30
0.0
 40
0.2
 41
0.2
  0
VERTEX
  8
0
 10
103.12
 20
68.9144
 30
0.0
 40
0.2
 41
0.2
  0
VERTEX
  8
0
 10
103.066
 20
68.9434
 30
0.0
 40
0.2
 41
0.2
  0
VERTEX
  8
0
 10
103.05
 20
68.9434
 30
0.0
 40
0.2
 41
0.2
  0
SEQEND
 8
0
  0
POLYLINE
  8
0
 62
     0
 66
     1
 10
0
 20
0
 30
0.0
 40
0.566929
 41
0.566929
  0
VERTEX
  8
0
 10
103.05
 20
68.9434
 30
0.0
 40
0.2
 41
0.2
  0
VERTEX
  8
0
 10
91.5501
 20
68.9434
 30
0.0
 40
0.2
 41
0.2
  0
SEQEND
 8
0
  0
POLYLINE
  8
0
 62
     0
 66
     1
 10
0
 20
0
 30
0.0
 40
0.566929
 41
0.566929
  0
VERTEX
  8
0
 10
91.5501
 20
68.9434
 30
0.0
 40
0.2
 41
0.2
  0
VERTEX
  8
0
 10
91.5321
 20
68.9434
 30
0.0
 40
0.2
 41
0.2
  0
VERTEX
  8
0
 10
91.4784
 20
68.9144
 30
0.0
 40
0.2
 41
0.2
  0
VERTEX
  8
0
 10
91.4495
 20
68.8605
 30
0.0
 40
0.2
 41
0.2
  0
VERTEX
  8
0
 10
91.4495
 20
68.8428
 30
0.0
 40
0.2
 41
0.2
  0
SEQEND
 8
0
  0
POLYLINE
  8
0
 62
     0
 66
     1
 10
0
 20
0
 30
0.0
 40
0.566929
 41
0.566929
  0
VERTEX
  8
0
 10
91.4495
 20
68.8428
 30
0.0
 40
0.2
 41
0.2
  0
VERTEX
  8
0
 10
91.4495
 20
65.8428
 30
0.0
 40
0.2
 41
0.2
  0
SEQEND
 8
0
  0
POLYLINE
  8
0
 62
     0
 66
     1
 10
0
 20
0
 30
0.0
 40
0.566929
 41
0.566929
  0
VERTEX
  8
0
 10
91.4495
 20
65.8428
 30
0.0
 40
0.2
 41
0.2
  0
VERTEX
  8
0
 10
91.4495
 20
58.8423
 30
0.0
 40
0.2
 41
0.2
  0
SEQEND
 8
0
  0
POLYLINE
  8
0
 62
     0
 66
     1
 10
0
 20
0
 30
0.0
 40
0.566929
 41
0.566929
  0
VERTEX
  8
0
 10
91.4495
 20
58.8423
 30
0.0
 40
0.2
 41
0.2
  0
VERTEX
  8
0
 10
91.4495
 20
58.8603
 30
0.0
 40
0.2
 41
0.2
  0
VERTEX
  8
0
 10
91.4784
 20
58.9139
 30
0.0
 40
0.2
 41
0.2
  0
VERTEX
  8
0
 10
91.5321
 20
58.9428
 30
0.0
 40
0.2
 41
0.2
  0
VERTEX
  8
0
 10
91.5501
 20
58.9428
 30
0.0
 40
0.2
 41
0.2
  0
SEQEND
 8
0
  0
POLYLINE
  8
0
 62
     0
 66
     1
 10
0
 20
0
 30
0.0
 40
0.566929
 41
0.566929
  0
VERTEX
  8
0
 10
91.5501
 20
58.9428
 30
0.0
 40
0.2
 41
0.2
  0
VERTEX
  8
0
 10
88.55
 20
58.9428
 30
0.0
 40
0.2
 41
0.2
  0
VERTEX
  8
0
 10
88.5321
 20
58.9428
 30
0.0
 40
0.2
 41
0.2
  0
VERTEX
  8
0
 10
88.4784
 20
58.9139
 30
0.0
 40
0.2
 41
0.2
  0
VERTEX
  8
0
 10
88.4495
 20
58.8603
 30
0.0
 40
0.2
 41
0.2
  0
VERTEX
  8
0
 10
88.4495
 20
58.8423
 30
0.0
 40
0.2
 41
0.2
  0
SEQEND
 8
0
  0
POLYLINE
  8
0
 62
     0
 66
     1
 10
0
 20
0
 30
0.0
 40
0.566929
 41
0.566929
  0
VERTEX
  8
0
 10
88.4495
 20
58.8423
 30
0.0
 40
0.2
 41
0.2
  0
VERTEX
  8
0
 10
88.4495
 20
43.8422
 30
0.0
 40
0.2
 41
0.2
  0
VERTEX
  8
0
 10
88.4495
 20
43.8256
 30
0.0
 40
0.2
 41
0.2
  0
VERTEX
  8
0
 10
88.4784
 20
43.772
 30
0.0
 40
0.2
 41
0.2
  0
VERTEX
  8
0
 10
88.5321
 20
43.7416
 30
0.0
 40
0.2
 41
0.2
  0
VERTEX
  8
0
 10
88.55
 20
43.7416
 30
0.0
 40
0.2
 41
0.2
  0
SEQEND
 8
0
  0
POLYLINE
  8
0
 62
     0
 66
     1
 10
0
 20
0
 30
0.0
 40
0.566929
 41
0.566929
  0
VERTEX
  8
0
 10
88.55
 20
43.7416
 30
0.0
 40
0.2
 41
0.2
  0
VERTEX
  8
0
 10
91.5501
 20
43.7416
 30
0.0
 40
0.2
 41
0.2
  0
VERTEX
  8
0
 10
91.5321
 20
43.7416
 30
0.0
 40
0.2
 41
0.2
  0
VERTEX
  8
0
 10
91.4784
 20
43.772
 30
0.0
 40
0.2
 41
0.2
  0
VERTEX
  8
0
 10
91.4495
 20
43.8256
 30
0.0
 40
0.2
 41
0.2
  0
VERTEX
  8
0
 10
91.4495
 20
43.8422
 30
0.0
 40
0.2
 41
0.2
  0
SEQEND
 8
0
  0
POLYLINE
  8
0
 62
     0
 66
     1
 10
0
 20
0
 30
0.0
 40
0.566929
 41
0.566929
  0
VERTEX
  8
0
 10
91.4495
 20
43.8422
 30
0.0
 40
0.2
 41
0.2
  0
VERTEX
  8
0
 10
91.4495
 20
37.8425
 30
0.0
 40
0.2
 41
0.2
  0
SEQEND
 8
0
  0
POLYLINE
  8
0
 62
     0
 66
     1
 10
0
 20
0
 30
0.0
 40
0.566929
 41
0.566929
  0
VERTEX
  8
0
 10
91.4495
 20
37.8425
 30
0.0
 40
0.2
 41
0.2
  0
VERTEX
  8
0
 10
91.4495
 20
37.8601
 30
0.0
 40
0.2
 41
0.2
  0
VERTEX
  8
0
 10
91.4784
 20
37.9141
 30
0.0
 40
0.2
 41
0.2
  0
VERTEX
  8
0
 10
91.5321
 20
37.943
 30
0.0
 40
0.2
 41
0.2
  0
VERTEX
  8
0
 10
91.5501
 20
37.943
 30
0.0
 40
0.2
 41
0.2
  0
SEQEND
 8
0
  0
POLYLINE
  8
0
 62
     0
 66
     1
 10
0
 20
0
 30
0.0
 40
0.566929
 41
0.566929
  0
VERTEX
  8
0
 10
91.5501
 20
37.943
 30
0.0
 40
0.2
 41
0.2
  0
VERTEX
  8
0
 10
88.55
 20
37.943
 30
0.0
 40
0.2
 41
0.2
  0
VERTEX
  8
0
 10
88.5321
 20
37.943
 30
0.0
 40
0.2
 41
0.2
  0
VERTEX
  8
0
 10
88.4784
 20
37.9141
 30
0.0
 40
0.2
 41
0.2
  0
VERTEX
  8
0
 10
88.4495
 20
37.8601
 30
0.0
 40
0.2
 41
0.2
  0
VERTEX
  8
0
 10
88.4495
 20
37.8425
 30
0.0
 40
0.2
 41
0.2
  0
SEQEND
 8
0
  0
POLYLINE
  8
0
 62
     0
 66
     1
 10
0
 20
0
 30
0.0
 40
0.566929
 41
0.566929
  0
VERTEX
  8
0
 10
88.4495
 20
37.8425
 30
0.0
 40
0.2
 41
0.2
  0
VERTEX
  8
0
 10
88.4495
 20
22.8424
 30
0.0
 40
0.2
 41
0.2
  0
VERTEX
  8
0
 10
88.4495
 20
22.8258
 30
0.0
 40
0.2
 41
0.2
  0
VERTEX
  8
0
 10
88.4784
 20
22.7721
 30
0.0
 40
0.2
 41
0.2
  0
VERTEX
  8
0
 10
88.5321
 20
22.7417
 30
0.0
 40
0.2
 41
0.2
  0
VERTEX
  8
0
 10
88.55
 20
22.7417
 30
0.0
 40
0.2
 41
0.2
  0
SEQEND
 8
0
  0
POLYLINE
  8
0
 62
     0
 66
     1
 10
0
 20
0
 30
0.0
 40
0.566929
 41
0.566929
  0
VERTEX
  8
0
 10
88.55
 20
22.7417
 30
0.0
 40
0.2
 41
0.2
  0
VERTEX
  8
0
 10
91.5501
 20
22.7417
 30
0.0
 40
0.2
 41
0.2
  0
VERTEX
  8
0
 10
91.5321
 20
22.7417
 30
0.0
 40
0.2
 41
0.2
  0
VERTEX
  8
0
 10
91.4784
 20
22.7721
 30
0.0
 40
0.2
 41
0.2
  0
VERTEX
  8
0
 10
91.4495
 20
22.8258
 30
0.0
 40
0.2
 41
0.2
  0
VERTEX
  8
0
 10
91.4495
 20
22.8424
 30
0.0
 40
0.2
 41
0.2
  0
SEQEND
 8
0
  0
POLYLINE
  8
0
 62
     0
 66
     1
 10
0
 20
0
 30
0.0
 40
0.566929
 41
0.566929
  0
VERTEX
  8
0
 10
91.4495
 20
22.8424
 30
0.0
 40
0.2
 41
0.2
  0
VERTEX
  8
0
 10
91.4495
 20
15.8419
 30
0.0
 40
0.2
 41
0.2
  0
SEQEND
 8
0
  0
POLYLINE
  8
0
 62
     0
 66
     1
 10
0
 20
0
 30
0.0
 40
0.566929
 41
0.566929
  0
VERTEX
  8
0
 10
91.4495
 20
15.8419
 30
0.0
 40
0.2
 41
0.2
  0
VERTEX
  8
0
 10
91.4495
 20
12.8419
 30
0.0
 40
0.2
 41
0.2
  0
VERTEX
  8
0
 10
91.4495
 20
12.8254
 30
0.0
 40
0.2
 41
0.2
  0
VERTEX
  8
0
 10
91.4784
 20
12.7716
 30
0.0
 40
0.2
 41
0.2
  0
VERTEX
  8
0
 10
91.5321
 20
12.7413
 30
0.0
 40
0.2
 41
0.2
  0
VERTEX
  8
0
 10
91.5501
 20
12.7413
 30
0.0
 40
0.2
 41
0.2
  0
SEQEND
 8
0
  0
POLYLINE
  8
0
 62
     0
 66
     1
 10
0
 20
0
 30
0.0
 40
0.566929
 41
0.566929
  0
VERTEX
  8
0
 10
91.5501
 20
70.4413
 30
0.0
 40
0.2
 41
0.2
  0
VERTEX
  8
0
 10
103.05
 20
70.4413
 30
0.0
 40
0.2
 41
0.2
  0
SEQEND
 8
0
  0
POLYLINE
  8
0
 62
     0
 66
     1
 10
0
 20
0
 30
0.0
 40
0.566929
 41
0.566929
  0
VERTEX
  8
0
 10
103.05
 20
70.4413
 30
0.0
 40
0.2
 41
0.2
  0
VERTEX
  8
0
 10
103.066
 20
70.4413
 30
0.0
 40
0.2
 41
0.2
  0
VERTEX
  8
0
 10
103.12
 20
70.4716
 30
0.0
 40
0.2
 41
0.2
  0
VERTEX
  8
0
 10
103.15
 20
70.5252
 30
0.0
 40
0.2
 41
0.2
  0
VERTEX
  8
0
 10
103.15
 20
70.5418
 30
0.0
 40
0.2
 41
0.2
  0
SEQEND
 8
0
  0
POLYLINE
  8
0
 62
     0
 66
     1
 10
0
 20
0
 30
0.0
 40
0.566929
 41
0.566929
  0
VERTEX
  8
0
 10
103.15
 20
70.5418
 30
0.0
 40
0.2
 41
0.2
  0
VERTEX
  8
0
 10
103.15
 20
73.5418
 30
0.0
 40
0.2
 41
0.2
  0
VERTEX
  8
0
 10
103.15
 20
73.5252
 30
0.0
 40
0.2
 41
0.2
  0
VERTEX
  8
0
 10
103.12
 20
73.4716
 30
0.0
 40
0.2
 41
0.2
  0
VERTEX
  8
0
 10
103.066
 20
73.4413
 30
0.0
 40
0.2
 41
0.2
  0
VERTEX
  8
0
 10
103.05
 20
73.4413
 30
0.0
 40
0.2
 41
0.2
  0
SEQEND
 8
0
  0
POLYLINE
  8
0
 62
     0
 66
     1
 10
0
 20
0
 30
0.0
 40
0.566929
 41
0.566929
  0
VERTEX
  8
0
 10
103.05
 20
73.4413
 30
0.0
 40
0.2
 41
0.2
  0
VERTEX
  8
0
 10
118.05
 20
73.4413
 30
0.0
 40
0.2
 41
0.2
  0
VERTEX
  8
0
 10
118.032
 20
73.4413
 30
0.0
 40
0.2
 41
0.2
  0
VERTEX
  8
0
 10
117.978
 20
73.4716
 30
0.0
 40
0.2
 41
0.2
  0
VERTEX
  8
0
 10
117.949
 20
73.5252
 30
0.0
 40
0.2
 41
0.2
  0
VERTEX
  8
0
 10
117.949
 20
73.5418
 30
0.0
 40
0.2
 41
0.2
  0
SEQEND
 8
0
  0
POLYLINE
  8
0
 62
     0
 66
     1
 10
0
 20
0
 30
0.0
 40
0.566929
 41
0.566929
  0
VERTEX
  8
0
 10
117.949
 20
73.5418
 30
0.0
 40
0.2
 41
0.2
  0
VERTEX
  8
0
 10
117.949
 20
70.5418
 30
0.0
 40
0.2
 41
0.2
  0
VERTEX
  8
0
 10
117.949
 20
70.5252
 30
0.0
 40
0.2
 41
0.2
  0
VERTEX
  8
0
 10
117.978
 20
70.4716
 30
0.0
 40
0.2
 41
0.2
  0
VERTEX
  8
0
 10
118.032
 20
70.4413
 30
0.0
 40
0.2
 41
0.2
  0
VERTEX
  8
0
 10
118.05
 20
70.4413
 30
0.0
 40
0.2
 41
0.2
  0
SEQEND
 8
0
  0
POLYLINE
  8
0
 62
     0
 66
     1
 10
0
 20
0
 30
0.0
 40
0.566929
 41
0.566929
  0
VERTEX
  8
0
 10
118.05
 20
70.4413
 30
0.0
 40
0.2
 41
0.2
  0
VERTEX
  8
0
 10
124.05
 20
70.4413
 30
0.0
 40
0.2
 41
0.2
  0
SEQEND
 8
0
  0
POLYLINE
  8
0
 62
     0
 66
     1
 10
0
 20
0
 30
0.0
 40
0.566929
 41
0.566929
  0
VERTEX
  8
0
 10
124.05
 20
70.4413
 30
0.0
 40
0.2
 41
0.2
  0
VERTEX
  8
0
 10
124.066
 20
70.4413
 30
0.0
 40
0.2
 41
0.2
  0
VERTEX
  8
0
 10
124.12
 20
70.4716
 30
0.0
 40
0.2
 41
0.2
  0
VERTEX
  8
0
 10
124.15
 20
70.5252
 30
0.0
 40
0.2
 41
0.2
  0
VERTEX
  8
0
 10
124.15
 20
70.5418
 30
0.0
 40
0.2
 41
0.2
  0
SEQEND
 8
0
  0
POLYLINE
  8
0
 62
     0
 66
     1
 10
0
 20
0
 30
0.0
 40
0.566929
 41
0.566929
  0
VERTEX
  8
0
 10
124.15
 20
70.5418
 30
0.0
 40
0.2
 41
0.2
  0
VERTEX
  8
0
 10
124.15
 20
73.5418
 30
0.0
 40
0.2
 41
0.2
  0
VERTEX
  8
0
 10
124.15
 20
73.5252
 30
0.0
 40
0.2
 41
0.2
  0
VERTEX
  8
0
 10
124.12
 20
73.4716
 30
0.0
 40
0.2
 41
0.2
  0
VERTEX
  8
0
 10
124.066
 20
73.4413
 30
0.0
 40
0.2
 41
0.2
  0
VERTEX
  8
0
 10
124.05
 20
73.4413
 30
0.0
 40
0.2
 41
0.2
  0
SEQEND
 8
0
  0
POLYLINE
  8
0
 62
     0
 66
     1
 10
0
 20
0
 30
0.0
 40
0.566929
 41
0.566929
  0
VERTEX
  8
0
 10
124.05
 20
73.4413
 30
0.0
 40
0.2
 41
0.2
  0
VERTEX
  8
0
 10
139.049
 20
73.4413
 30
0.0
 40
0.2
 41
0.2
  0
VERTEX
  8
0
 10
139.031
 20
73.4413
 30
0.0
 40
0.2
 41
0.2
  0
VERTEX
  8
0
 10
138.978
 20
73.4716
 30
0.0
 40
0.2
 41
0.2
  0
VERTEX
  8
0
 10
138.949
 20
73.5252
 30
0.0
 40
0.2
 41
0.2
  0
VERTEX
  8
0
 10
138.949
 20
73.5418
 30
0.0
 40
0.2
 41
0.2
  0
SEQEND
 8
0
  0
POLYLINE
  8
0
 62
     0
 66
     1
 10
0
 20
0
 30
0.0
 40
0.566929
 41
0.566929
  0
VERTEX
  8
0
 10
138.949
 20
73.5418
 30
0.0
 40
0.2
 41
0.2
  0
VERTEX
  8
0
 10
138.949
 20
70.5418
 30
0.0
 40
0.2
 41
0.2
  0
VERTEX
  8
0
 10
138.949
 20
70.5252
 30
0.0
 40
0.2
 41
0.2
  0
VERTEX
  8
0
 10
138.978
 20
70.4716
 30
0.0
 40
0.2
 41
0.2
  0
VERTEX
  8
0
 10
139.031
 20
70.4413
 30
0.0
 40
0.2
 41
0.2
  0
VERTEX
  8
0
 10
139.049
 20
70.4413
 30
0.0
 40
0.2
 41
0.2
  0
SEQEND
 8
0
  0
POLYLINE
  8
0
 62
     0
 66
     1
 10
0
 20
0
 30
0.0
 40
0.566929
 41
0.566929
  0
VERTEX
  8
0
 10
139.049
 20
70.4413
 30
0.0
 40
0.2
 41
0.2
  0
VERTEX
  8
0
 10
145.05
 20
70.4413
 30
0.0
 40
0.2
 41
0.2
  0
SEQEND
 8
0
  0
POLYLINE
  8
0
 62
     0
 66
     1
 10
0
 20
0
 30
0.0
 40
0.566929
 41
0.566929
  0
VERTEX
  8
0
 10
145.05
 20
70.4413
 30
0.0
 40
0.2
 41
0.2
  0
VERTEX
  8
0
 10
145.066
 20
70.4413
 30
0.0
 40
0.2
 41
0.2
  0
VERTEX
  8
0
 10
145.12
 20
70.4716
 30
0.0
 40
0.2
 41
0.2
  0
VERTEX
  8
0
 10
145.15
 20
70.5252
 30
0.0
 40
0.2
 41
0.2
  0
VERTEX
  8
0
 10
145.15
 20
70.5418
 30
0.0
 40
0.2
 41
0.2
  0
SEQEND
 8
0
  0
POLYLINE
  8
0
 62
     0
 66
     1
 10
0
 20
0
 30
0.0
 40
0.566929
 41
0.566929
  0
VERTEX
  8
0
 10
145.15
 20
70.5418
 30
0.0
 40
0.2
 41
0.2
  0
VERTEX
  8
0
 10
145.15
 20
73.5418
 30
0.0
 40
0.2
 41
0.2
  0
VERTEX
  8
0
 10
145.15
 20
73.5252
 30
0.0
 40
0.2
 41
0.2
  0
VERTEX
  8
0
 10
145.12
 20
73.4716
 30
0.0
 40
0.2
 41
0.2
  0
VERTEX
  8
0
 10
145.066
 20
73.4413
 30
0.0
 40
0.2
 41
0.2
  0
VERTEX
  8
0
 10
145.05
 20
73.4413
 30
0.0
 40
0.2
 41
0.2
  0
SEQEND
 8
0
  0
POLYLINE
  8
0
 62
     0
 66
     1
 10
0
 20
0
 30
0.0
 40
0.566929
 41
0.566929
  0
VERTEX
  8
0
 10
145.05
 20
73.4413
 30
0.0
 40
0.2
 41
0.2
  0
VERTEX
  8
0
 10
160.05
 20
73.4413
 30
0.0
 40
0.2
 41
0.2
  0
VERTEX
  8
0
 10
160.032
 20
73.4413
 30
0.0
 40
0.2
 41
0.2
  0
VERTEX
  8
0
 10
159.978
 20
73.4716
 30
0.0
 40
0.2
 41
0.2
  0
VERTEX
  8
0
 10
159.949
 20
73.5252
 30
0.0
 40
0.2
 41
0.2
  0
VERTEX
  8
0
 10
159.949
 20
73.5418
 30
0.0
 40
0.2
 41
0.2
  0
SEQEND
 8
0
  0
POLYLINE
  8
0
 62
     0
 66
     1
 10
0
 20
0
 30
0.0
 40
0.566929
 41
0.566929
  0
VERTEX
  8
0
 10
159.949
 20
73.5418
 30
0.0
 40
0.2
 41
0.2
  0
VERTEX
  8
0
 10
159.949
 20
70.5418
 30
0.0
 40
0.2
 41
0.2
  0
VERTEX
  8
0
 10
159.949
 20
70.5252
 30
0.0
 40
0.2
 41
0.2
  0
VERTEX
  8
0
 10
159.978
 20
70.4716
 30
0.0
 40
0.2
 41
0.2
  0
VERTEX
  8
0
 10
160.032
 20
70.4413
 30
0.0
 40
0.2
 41
0.2
  0
VERTEX
  8
0
 10
160.05
 20
70.4413
 30
0.0
 40
0.2
 41
0.2
  0
SEQEND
 8
0
  0
POLYLINE
  8
0
 62
     0
 66
     1
 10
0
 20
0
 30
0.0
 40
0.566929
 41
0.566929
  0
VERTEX
  8
0
 10
160.05
 20
70.4413
 30
0.0
 40
0.2
 41
0.2
  0
VERTEX
  8
0
 10
171.549
 20
70.4413
 30
0.0
 40
0.2
 41
0.2
  0
SEQEND
 8
0
  0
POLYLINE
  8
0
 62
     0
 66
     1
 10
0
 20
0
 30
0.0
 40
0.566929
 41
0.566929
  0
VERTEX
  8
0
 10
171.549
 20
70.4413
 30
0.0
 40
0.2
 41
0.2
  0
VERTEX
  8
0
 10
171.566
 20
70.4413
 30
0.0
 40
0.2
 41
0.2
  0
VERTEX
  8
0
 10
171.619
 20
70.4716
 30
0.0
 40
0.2
 41
0.2
  0
VERTEX
  8
0
 10
171.65
 20
70.5252
 30
0.0
 40
0.2
 41
0.2
  0
VERTEX
  8
0
 10
171.65
 20
70.5418
 30
0.0
 40
0.2
 41
0.2
  0
SEQEND
 8
0
  0
POLYLINE
  8
0
 62
     0
 66
     1
 10
0
 20
0
 30
0.0
 40
0.566929
 41
0.566929
  0
VERTEX
  8
0
 10
171.65
 20
70.5418
 30
0.0
 40
0.2
 41
0.2
  0
VERTEX
  8
0
 10
171.65
 20
73.5418
 30
0.0
 40
0.2
 41
0.2
  0
SEQEND
 8
0
  0
POLYLINE
  8
0
 62
     0
 66
     1
 10
0
 20
0
 30
0.0
 40
0.566929
 41
0.566929
  0
VERTEX
  8
0
 10
171.65
 20
73.5418
 30
0.0
 40
0.2
 41
0.2
  0
VERTEX
  8
0
 10
171.65
 20
80.5423
 30
0.0
 40
0.2
 41
0.2
  0
SEQEND
 8
0
  0
POLYLINE
  8
0
 62
     0
 66
     1
 10
0
 20
0
 30
0.0
 40
0.566929
 41
0.566929
  0
VERTEX
  8
0
 10
171.65
 20
80.5423
 30
0.0
 40
0.2
 41
0.2
  0
VERTEX
  8
0
 10
171.65
 20
80.5258
 30
0.0
 40
0.2
 41
0.2
  0
VERTEX
  8
0
 10
171.619
 20
80.4718
 30
0.0
 40
0.2
 41
0.2
  0
VERTEX
  8
0
 10
171.566
 20
80.4414
 30
0.0
 40
0.2
 41
0.2
  0
VERTEX
  8
0
 10
171.549
 20
80.4414
 30
0.0
 40
0.2
 41
0.2
  0
SEQEND
 8
0
  0
POLYLINE
  8
0
 62
     0
 66
     1
 10
0
 20
0
 30
0.0
 40
0.566929
 41
0.566929
  0
VERTEX
  8
0
 10
171.549
 20
80.4414
 30
0.0
 40
0.2
 41
0.2
  0
VERTEX
  8
0
 10
174.549
 20
80.4414
 30
0.0
 40
0.2
 41
0.2
  0
VERTEX
  8
0
 10
174.566
 20
80.4414
 30
0.0
 40
0.2
 41
0.2
  0
VERTEX
  8
0
 10
174.619
 20
80.4718
 30
0.0
 40
0.2
 41
0.2
  0
VERTEX
  8
0
 10
174.65
 20
80.5258
 30
0.0
 40
0.2
 41
0.2
  0
VERTEX
  8
0
 10
174.65
 20
80.5423
 30
0.0
 40
0.2
 41
0.2
  0
SEQEND
 8
0
  0
POLYLINE
  8
0
 62
     0
 66
     1
 10
0
 20
0
 30
0.0
 40
0.566929
 41
0.566929
  0
VERTEX
  8
0
 10
174.65
 20
80.5423
 30
0.0
 40
0.2
 41
0.2
  0
VERTEX
  8
0
 10
174.65
 20
95.5421
 30
0.0
 40
0.2
 41
0.2
  0
VERTEX
  8
0
 10
174.65
 20
95.5601
 30
0.0
 40
0.2
 41
0.2
  0
VERTEX
  8
0
 10
174.619
 20
95.6137
 30
0.0
 40
0.2
 41
0.2
  0
VERTEX
  8
0
 10
174.566
 20
95.6426
 30
0.0
 40
0.2
 41
0.2
  0
VERTEX
  8
0
 10
174.549
 20
95.6426
 30
0.0
 40
0.2
 41
0.2
  0
SEQEND
 8
0
  0
POLYLINE
  8
0
 62
     0
 66
     1
 10
0
 20
0
 30
0.0
 40
0.566929
 41
0.566929
  0
VERTEX
  8
0
 10
174.549
 20
95.6426
 30
0.0
 40
0.2
 41
0.2
  0
VERTEX
  8
0
 10
171.549
 20
95.6426
 30
0.0
 40
0.2
 41
0.2
  0
VERTEX
  8
0
 10
171.566
 20
95.6426
 30
0.0
 40
0.2
 41
0.2
  0
VERTEX
  8
0
 10
171.619
 20
95.6137
 30
0.0
 40
0.2
 41
0.2
  0
VERTEX
  8
0
 10
171.65
 20
95.5601
 30
0.0
 40
0.2
 41
0.2
  0
VERTEX
  8
0
 10
171.65
 20
95.5421
 30
0.0
 40
0.2
 41
0.2
  0
SEQEND
 8
0
  0
POLYLINE
  8
0
 62
     0
 66
     1
 10
0
 20
0
 30
0.0
 40
0.566929
 41
0.566929
  0
VERTEX
  8
0
 10
171.65
 20
95.5421
 30
0.0
 40
0.2
 41
0.2
  0
VERTEX
  8
0
 10
171.65
 20
101.542
 30
0.0
 40
0.2
 41
0.2
  0
SEQEND
 8
0
  0
POLYLINE
  8
0
 62
     0
 66
     1
 10
0
 20
0
 30
0.0
 40
0.566929
 41
0.566929
  0
VERTEX
  8
0
 10
171.65
 20
101.542
 30
0.0
 40
0.2
 41
0.2
  0
VERTEX
  8
0
 10
171.65
 20
101.526
 30
0.0
 40
0.2
 41
0.2
  0
VERTEX
  8
0
 10
171.619
 20
101.472
 30
0.0
 40
0.2
 41
0.2
  0
VERTEX
  8
0
 10
171.566
 20
101.442
 30
0.0
 40
0.2
 41
0.2
  0
VERTEX
  8
0
 10
171.549
 20
101.442
 30
0.0
 40
0.2
 41
0.2
  0
SEQEND
 8
0
  0
POLYLINE
  8
0
 62
     0
 66
     1
 10
0
 20
0
 30
0.0
 40
0.566929
 41
0.566929
  0
VERTEX
  8
0
 10
171.549
 20
101.442
 30
0.0
 40
0.2
 41
0.2
  0
VERTEX
  8
0
 10
174.549
 20
101.442
 30
0.0
 40
0.2
 41
0.2
  0
VERTEX
  8
0
 10
174.566
 20
101.442
 30
0.0
 40
0.2
 41
0.2
  0
VERTEX
  8
0
 10
174.619
 20
101.472
 30
0.0
 40
0.2
 41
0.2
  0
VERTEX
  8
0
 10
174.65
 20
101.526
 30
0.0
 40
0.2
 41
0.2
  0
VERTEX
  8
0
 10
174.65
 20
101.542
 30
0.0
 40
0.2
 41
0.2
  0
SEQEND
 8
0
  0
POLYLINE
  8
0
 62
     0
 66
     1
 10
0
 20
0
 30
0.0
 40
0.566929
 41
0.566929
  0
VERTEX
  8
0
 10
174.65
 20
101.542
 30
0.0
 40
0.2
 41
0.2
  0
VERTEX
  8
0
 10
174.65
 20
116.542
 30
0.0
 40
0.2
 41
0.2
  0
VERTEX
  8
0
 10
174.65
 20
116.56
 30
0.0
 40
0.2
 41
0.2
  0
VERTEX
  8
0
 10
174.619
 20
116.614
 30
0.0
 40
0.2
 41
0.2
  0
VERTEX
  8
0
 10
174.566
 20
116.643
 30
0.0
 40
0.2
 41
0.2
  0
VERTEX
  8
0
 10
174.549
 20
116.643
 30
0.0
 40
0.2
 41
0.2
  0
SEQEND
 8
0
  0
POLYLINE
  8
0
 62
     0
 66
     1
 10
0
 20
0
 30
0.0
 40
0.566929
 41
0.566929
  0
VERTEX
  8
0
 10
174.549
 20
116.643
 30
0.0
 40
0.2
 41
0.2
  0
VERTEX
  8
0
 10
171.549
 20
116.643
 30
0.0
 40
0.2
 41
0.2
  0
VERTEX
  8
0
 10
171.566
 20
116.643
 30
0.0
 40
0.2
 41
0.2
  0
VERTEX
  8
0
 10
171.619
 20
116.614
 30
0.0
 40
0.2
 41
0.2
  0
VERTEX
  8
0
 10
171.65
 20
116.56
 30
0.0
 40
0.2
 41
0.2
  0
VERTEX
  8
0
 10
171.65
 20
116.542
 30
0.0
 40
0.2
 41
0.2
  0
SEQEND
 8
0
  0
POLYLINE
  8
0
 62
     0
 66
     1
 10
0
 20
0
 30
0.0
 40
0.566929
 41
0.566929
  0
VERTEX
  8
0
 10
171.65
 20
116.542
 30
0.0
 40
0.2
 41
0.2
  0
VERTEX
  8
0
 10
171.65
 20
123.542
 30
0.0
 40
0.2
 41
0.2
  0
SEQEND
 8
0
  0
POLYLINE
  8
0
 62
     0
 66
     1
 10
0
 20
0
 30
0.0
 40
0.566929
 41
0.566929
  0
VERTEX
  8
0
 10
171.65
 20
123.542
 30
0.0
 40
0.2
 41
0.2
  0
VERTEX
  8
0
 10
171.65
 20
126.542
 30
0.0
 40
0.2
 41
0.2
  0
VERTEX
  8
0
 10
171.65
 20
126.56
 30
0.0
 40
0.2
 41
0.2
  0
VERTEX
  8
0
 10
171.619
 20
126.614
 30
0.0
 40
0.2
 41
0.2
  0
VERTEX
  8
0
 10
171.566
 20
126.643
 30
0.0
 40
0.2
 41
0.2
  0
VERTEX
  8
0
 10
171.549
 20
126.643
 30
0.0
 40
0.2
 41
0.2
  0
SEQEND
 8
0
  0
POLYLINE
  8
0
 62
     0
 66
     1
 10
0
 20
0
 30
0.0
 40
0.566929
 41
0.566929
  0
VERTEX
  8
0
 10
171.549
 20
126.643
 30
0.0
 40
0.2
 41
0.2
  0
VERTEX
  8
0
 10
160.05
 20
126.643
 30
0.0
 40
0.2
 41
0.2
  0
SEQEND
 8
0
  0
POLYLINE
  8
0
 62
     0
 66
     1
 10
0
 20
0
 30
0.0
 40
0.566929
 41
0.566929
  0
VERTEX
  8
0
 10
160.05
 20
126.643
 30
0.0
 40
0.2
 41
0.2
  0
VERTEX
  8
0
 10
160.032
 20
126.643
 30
0.0
 40
0.2
 41
0.2
  0
VERTEX
  8
0
 10
159.978
 20
126.614
 30
0.0
 40
0.2
 41
0.2
  0
VERTEX
  8
0
 10
159.949
 20
126.56
 30
0.0
 40
0.2
 41
0.2
  0
VERTEX
  8
0
 10
159.949
 20
126.542
 30
0.0
 40
0.2
 41
0.2
  0
SEQEND
 8
0
  0
POLYLINE
  8
0
 62
     0
 66
     1
 10
0
 20
0
 30
0.0
 40
0.566929
 41
0.566929
  0
VERTEX
  8
0
 10
159.949
 20
126.542
 30
0.0
 40
0.2
 41
0.2
  0
VERTEX
  8
0
 10
159.949
 20
123.542
 30
0.0
 40
0.2
 41
0.2
  0
VERTEX
  8
0
 10
159.949
 20
123.56
 30
0.0
 40
0.2
 41
0.2
  0
VERTEX
  8
0
 10
159.978
 20
123.614
 30
0.0
 40
0.2
 41
0.2
  0
VERTEX
  8
0
 10
160.032
 20
123.643
 30
0.0
 40
0.2
 41
0.2
  0
VERTEX
  8
0
 10
160.05
 20
123.643
 30
0.0
 40
0.2
 41
0.2
  0
SEQEND
 8
0
  0
POLYLINE
  8
0
 62
     0
 66
     1
 10
0
 20
0
 30
0.0
 40
0.566929
 41
0.566929
  0
VERTEX
  8
0
 10
160.05
 20
123.643
 30
0.0
 40
0.2
 41
0.2
  0
VERTEX
  8
0
 10
145.05
 20
123.643
 30
0.0
 40
0.2
 41
0.2
  0
VERTEX
  8
0
 10
145.066
 20
123.643
 30
0.0
 40
0.2
 41
0.2
  0
VERTEX
  8
0
 10
145.12
 20
123.614
 30
0.0
 40
0.2
 41
0.2
  0
VERTEX
  8
0
 10
145.15
 20
123.56
 30
0.0
 40
0.2
 41
0.2
  0
VERTEX
  8
0
 10
145.15
 20
123.542
 30
0.0
 40
0.2
 41
0.2
  0
SEQEND
 8
0
  0
POLYLINE
  8
0
 62
     0
 66
     1
 10
0
 20
0
 30
0.0
 40
0.566929
 41
0.566929
  0
VERTEX
  8
0
 10
145.15
 20
123.542
 30
0.0
 40
0.2
 41
0.2
  0
VERTEX
  8
0
 10
145.15
 20
126.542
 30
0.0
 40
0.2
 41
0.2
  0
VERTEX
  8
0
 10
145.15
 20
126.56
 30
0.0
 40
0.2
 41
0.2
  0
VERTEX
  8
0
 10
145.12
 20
126.614
 30
0.0
 40
0.2
 41
0.2
  0
VERTEX
  8
0
 10
145.066
 20
126.643
 30
0.0
 40
0.2
 41
0.2
  0
VERTEX
  8
0
 10
145.05
 20
126.643
 30
0.0
 40
0.2
 41
0.2
  0
SEQEND
 8
0
  0
POLYLINE
  8
0
 62
     0
 66
     1
 10
0
 20
0
 30
0.0
 40
0.566929
 41
0.566929
  0
VERTEX
  8
0
 10
145.05
 20
126.643
 30
0.0
 40
0.2
 41
0.2
  0
VERTEX
  8
0
 10
139.049
 20
126.643
 30
0.0
 40
0.2
 41
0.2
  0
SEQEND
 8
0
  0
POLYLINE
  8
0
 62
     0
 66
     1
 10
0
 20
0
 30
0.0
 40
0.566929
 41
0.566929
  0
VERTEX
  8
0
 10
139.049
 20
126.643
 30
0.0
 40
0.2
 41
0.2
  0
VERTEX
  8
0
 10
139.031
 20
126.643
 30
0.0
 40
0.2
 41
0.2
  0
VERTEX
  8
0
 10
138.978
 20
126.614
 30
0.0
 40
0.2
 41
0.2
  0
VERTEX
  8
0
 10
138.949
 20
126.56
 30
0.0
 40
0.2
 41
0.2
  0
VERTEX
  8
0
 10
138.949
 20
126.542
 30
0.0
 40
0.2
 41
0.2
  0
SEQEND
 8
0
  0
POLYLINE
  8
0
 62
     0
 66
     1
 10
0
 20
0
 30
0.0
 40
0.566929
 41
0.566929
  0
VERTEX
  8
0
 10
138.949
 20
126.542
 30
0.0
 40
0.2
 41
0.2
  0
VERTEX
  8
0
 10
138.949
 20
123.542
 30
0.0
 40
0.2
 41
0.2
  0
VERTEX
  8
0
 10
138.949
 20
123.56
 30
0.0
 40
0.2
 41
0.2
  0
VERTEX
  8
0
 10
138.978
 20
123.614
 30
0.0
 40
0.2
 41
0.2
  0
VERTEX
  8
0
 10
139.031
 20
123.643
 30
0.0
 40
0.2
 41
0.2
  0
VERTEX
  8
0
 10
139.049
 20
123.643
 30
0.0
 40
0.2
 41
0.2
  0
SEQEND
 8
0
  0
POLYLINE
  8
0
 62
     0
 66
     1
 10
0
 20
0
 30
0.0
 40
0.566929
 41
0.566929
  0
VERTEX
  8
0
 10
139.049
 20
123.643
 30
0.0
 40
0.2
 41
0.2
  0
VERTEX
  8
0
 10
124.05
 20
123.643
 30
0.0
 40
0.2
 41
0.2
  0
VERTEX
  8
0
 10
124.066
 20
123.643
 30
0.0
 40
0.2
 41
0.2
  0
VERTEX
  8
0
 10
124.12
 20
123.614
 30
0.0
 40
0.2
 41
0.2
  0
VERTEX
  8
0
 10
124.15
 20
123.56
 30
0.0
 40
0.2
 41
0.2
  0
VERTEX
  8
0
 10
124.15
 20
123.542
 30
0.0
 40
0.2
 41
0.2
  0
SEQEND
 8
0
  0
POLYLINE
  8
0
 62
     0
 66
     1
 10
0
 20
0
 30
0.0
 40
0.566929
 41
0.566929
  0
VERTEX
  8
0
 10
124.15
 20
123.542
 30
0.0
 40
0.2
 41
0.2
  0
VERTEX
  8
0
 10
124.15
 20
126.542
 30
0.0
 40
0.2
 41
0.2
  0
VERTEX
  8
0
 10
124.15
 20
126.56
 30
0.0
 40
0.2
 41
0.2
  0
VERTEX
  8
0
 10
124.12
 20
126.614
 30
0.0
 40
0.2
 41
0.2
  0
VERTEX
  8
0
 10
124.066
 20
126.643
 30
0.0
 40
0.2
 41
0.2
  0
VERTEX
  8
0
 10
124.05
 20
126.643
 30
0.0
 40
0.2
 41
0.2
  0
SEQEND
 8
0
  0
POLYLINE
  8
0
 62
     0
 66
     1
 10
0
 20
0
 30
0.0
 40
0.566929
 41
0.566929
  0
VERTEX
  8
0
 10
124.05
 20
126.643
 30
0.0
 40
0.2
 41
0.2
  0
VERTEX
  8
0
 10
118.05
 20
126.643
 30
0.0
 40
0.2
 41
0.2
  0
SEQEND
 8
0
  0
POLYLINE
  8
0
 62
     0
 66
     1
 10
0
 20
0
 30
0.0
 40
0.566929
 41
0.566929
  0
VERTEX
  8
0
 10
118.05
 20
126.643
 30
0.0
 40
0.2
 41
0.2
  0
VERTEX
  8
0
 10
118.032
 20
126.643
 30
0.0
 40
0.2
 41
0.2
  0
VERTEX
  8
0
 10
117.978
 20
126.614
 30
0.0
 40
0.2
 41
0.2
  0
VERTEX
  8
0
 10
117.949
 20
126.56
 30
0.0
 40
0.2
 41
0.2
  0
VERTEX
  8
0
 10
117.949
 20
126.542
 30
0.0
 40
0.2
 41
0.2
  0
SEQEND
 8
0
  0
POLYLINE
  8
0
 62
     0
 66
     1
 10
0
 20
0
 30
0.0
 40
0.566929
 41
0.566929
  0
VERTEX
  8
0
 10
117.949
 20
126.542
 30
0.0
 40
0.2
 41
0.2
  0
VERTEX
  8
0
 10
117.949
 20
123.542
 30
0.0
 40
0.2
 41
0.2
  0
VERTEX
  8
0
 10
117.949
 20
123.56
 30
0.0
 40
0.2
 41
0.2
  0
VERTEX
  8
0
 10
117.978
 20
123.614
 30
0.0
 40
0.2
 41
0.2
  0
VERTEX
  8
0
 10
118.032
 20
123.643
 30
0.0
 40
0.2
 41
0.2
  0
VERTEX
  8
0
 10
118.05
 20
123.643
 30
0.0
 40
0.2
 41
0.2
  0
SEQEND
 8
0
  0
POLYLINE
  8
0
 62
     0
 66
     1
 10
0
 20
0
 30
0.0
 40
0.566929
 41
0.566929
  0
VERTEX
  8
0
 10
118.05
 20
123.643
 30
0.0
 40
0.2
 41
0.2
  0
VERTEX
  8
0
 10
103.05
 20
123.643
 30
0.0
 40
0.2
 41
0.2
  0
VERTEX
  8
0
 10
103.066
 20
123.643
 30
0.0
 40
0.2
 41
0.2
  0
VERTEX
  8
0
 10
103.12
 20
123.614
 30
0.0
 40
0.2
 41
0.2
  0
VERTEX
  8
0
 10
103.15
 20
123.56
 30
0.0
 40
0.2
 41
0.2
  0
VERTEX
  8
0
 10
103.15
 20
123.542
 30
0.0
 40
0.2
 41
0.2
  0
SEQEND
 8
0
  0
POLYLINE
  8
0
 62
     0
 66
     1
 10
0
 20
0
 30
0.0
 40
0.566929
 41
0.566929
  0
VERTEX
  8
0
 10
103.15
 20
123.542
 30
0.0
 40
0.2
 41
0.2
  0
VERTEX
  8
0
 10
103.15
 20
126.542
 30
0.0
 40
0.2
 41
0.2
  0
VERTEX
  8
0
 10
103.15
 20
126.56
 30
0.0
 40
0.2
 41
0.2
  0
VERTEX
  8
0
 10
103.12
 20
126.614
 30
0.0
 40
0.2
 41
0.2
  0
VERTEX
  8
0
 10
103.066
 20
126.643
 30
0.0
 40
0.2
 41
0.2
  0
VERTEX
  8
0
 10
103.05
 20
126.643
 30
0.0
 40
0.2
 41
0.2
  0
SEQEND
 8
0
  0
POLYLINE
  8
0
 62
     0
 66
     1
 10
0
 20
0
 30
0.0
 40
0.566929
 41
0.566929
  0
VERTEX
  8
0
 10
103.05
 20
126.643
 30
0.0
 40
0.2
 41
0.2
  0
VERTEX
  8
0
 10
91.5501
 20
126.643
 30
0.0
 40
0.2
 41
0.2
  0
SEQEND
 8
0
  0
POLYLINE
  8
0
 62
     0
 66
     1
 10
0
 20
0
 30
0.0
 40
0.566929
 41
0.566929
  0
VERTEX
  8
0
 10
91.5501
 20
126.643
 30
0.0
 40
0.2
 41
0.2
  0
VERTEX
  8
0
 10
91.5321
 20
126.643
 30
0.0
 40
0.2
 41
0.2
  0
VERTEX
  8
0
 10
91.4784
 20
126.614
 30
0.0
 40
0.2
 41
0.2
  0
VERTEX
  8
0
 10
91.4495
 20
126.56
 30
0.0
 40
0.2
 41
0.2
  0
VERTEX
  8
0
 10
91.4495
 20
126.542
 30
0.0
 40
0.2
 41
0.2
  0
SEQEND
 8
0
  0
POLYLINE
  8
0
 62
     0
 66
     1
 10
0
 20
0
 30
0.0
 40
0.566929
 41
0.566929
  0
VERTEX
  8
0
 10
91.4495
 20
126.542
 30
0.0
 40
0.2
 41
0.2
  0
VERTEX
  8
0
 10
91.4495
 20
123.542
 30
0.0
 40
0.2
 41
0.2
  0
SEQEND
 8
0
  0
POLYLINE
  8
0
 62
     0
 66
     1
 10
0
 20
0
 30
0.0
 40
0.566929
 41
0.566929
  0
VERTEX
  8
0
 10
91.4495
 20
123.542
 30
0.0
 40
0.2
 41
0.2
  0
VERTEX
  8
0
 10
91.4495
 20
116.542
 30
0.0
 40
0.2
 41
0.2
  0
SEQEND
 8
0
  0
POLYLINE
  8
0
 62
     0
 66
     1
 10
0
 20
0
 30
0.0
 40
0.566929
 41
0.566929
  0
VERTEX
  8
0
 10
91.4495
 20
116.542
 30
0.0
 40
0.2
 41
0.2
  0
VERTEX
  8
0
 10
91.4495
 20
116.56
 30
0.0
 40
0.2
 41
0.2
  0
VERTEX
  8
0
 10
91.4784
 20
116.614
 30
0.0
 40
0.2
 41
0.2
  0
VERTEX
  8
0
 10
91.5321
 20
116.643
 30
0.0
 40
0.2
 41
0.2
  0
VERTEX
  8
0
 10
91.5501
 20
116.643
 30
0.0
 40
0.2
 41
0.2
  0
SEQEND
 8
0
  0
POLYLINE
  8
0
 62
     0
 66
     1
 10
0
 20
0
 30
0.0
 40
0.566929
 41
0.566929
  0
VERTEX
  8
0
 10
91.5501
 20
116.643
 30
0.0
 40
0.2
 41
0.2
  0
VERTEX
  8
0
 10
88.55
 20
116.643
 30
0.0
 40
0.2
 41
0.2
  0
VERTEX
  8
0
 10
88.5321
 20
116.643
 30
0.0
 40
0.2
 41
0.2
  0
VERTEX
  8
0
 10
88.4784
 20
116.614
 30
0.0
 40
0.2
 41
0.2
  0
VERTEX
  8
0
 10
88.4495
 20
116.56
 30
0.0
 40
0.2
 41
0.2
  0
VERTEX
  8
0
 10
88.4495
 20
116.542
 30
0.0
 40
0.2
 41
0.2
  0
SEQEND
 8
0
  0
POLYLINE
  8
0
 62
     0
 66
     1
 10
0
 20
0
 30
0.0
 40
0.566929
 41
0.566929
  0
VERTEX
  8
0
 10
88.4495
 20
116.542
 30
0.0
 40
0.2
 41
0.2
  0
VERTEX
  8
0
 10
88.4495
 20
101.542
 30
0.0
 40
0.2
 41
0.2
  0
VERTEX
  8
0
 10
88.4495
 20
101.526
 30
0.0
 40
0.2
 41
0.2
  0
VERTEX
  8
0
 10
88.4784
 20
101.472
 30
0.0
 40
0.2
 41
0.2
  0
VERTEX
  8
0
 10
88.5321
 20
101.442
 30
0.0
 40
0.2
 41
0.2
  0
VERTEX
  8
0
 10
88.55
 20
101.442
 30
0.0
 40
0.2
 41
0.2
  0
SEQEND
 8
0
  0
POLYLINE
  8
0
 62
     0
 66
     1
 10
0
 20
0
 30
0.0
 40
0.566929
 41
0.566929
  0
VERTEX
  8
0
 10
88.55
 20
101.442
 30
0.0
 40
0.2
 41
0.2
  0
VERTEX
  8
0
 10
91.5501
 20
101.442
 30
0.0
 40
0.2
 41
0.2
  0
VERTEX
  8
0
 10
91.5321
 20
101.442
 30
0.0
 40
0.2
 41
0.2
  0
VERTEX
  8
0
 10
91.4784
 20
101.472
 30
0.0
 40
0.2
 41
0.2
  0
VERTEX
  8
0
 10
91.4495
 20
101.526
 30
0.0
 40
0.2
 41
0.2
  0
VERTEX
  8
0
 10
91.4495
 20
101.542
 30
0.0
 40
0.2
 41
0.2
  0
SEQEND
 8
0
  0
POLYLINE
  8
0
 62
     0
 66
     1
 10
0
 20
0
 30
0.0
 40
0.566929
 41
0.566929
  0
VERTEX
  8
0
 10
91.4495
 20
101.542
 30
0.0
 40
0.2
 41
0.2
  0
VERTEX
  8
0
 10
91.4495
 20
95.5421
 30
0.0
 40
0.2
 41
0.2
  0
SEQEND
 8
0
  0
POLYLINE
  8
0
 62
     0
 66
     1
 10
0
 20
0
 30
0.0
 40
0.566929
 41
0.566929
  0
VERTEX
  8
0
 10
91.4495
 20
95.5421
 30
0.0
 40
0.2
 41
0.2
  0
VERTEX
  8
0
 10
91.4495
 20
95.5601
 30
0.0
 40
0.2
 41
0.2
  0
VERTEX
  8
0
 10
91.4784
 20
95.6137
 30
0.0
 40
0.2
 41
0.2
  0
VERTEX
  8
0
 10
91.5321
 20
95.6426
 30
0.0
 40
0.2
 41
0.2
  0
VERTEX
  8
0
 10
91.5501
 20
95.6426
 30
0.0
 40
0.2
 41
0.2
  0
SEQEND
 8
0
  0
POLYLINE
  8
0
 62
     0
 66
     1
 10
0
 20
0
 30
0.0
 40
0.566929
 41
0.566929
  0
VERTEX
  8
0
 10
91.5501
 20
95.6426
 30
0.0
 40
0.2
 41
0.2
  0
VERTEX
  8
0
 10
88.55
 20
95.6426
 30
0.0
 40
0.2
 41
0.2
  0
VERTEX
  8
0
 10
88.5321
 20
95.6426
 30
0.0
 40
0.2
 41
0.2
  0
VERTEX
  8
0
 10
88.4784
 20
95.6137
 30
0.0
 40
0.2
 41
0.2
  0
VERTEX
  8
0
 10
88.4495
 20
95.5601
 30
0.0
 40
0.2
 41
0.2
  0
VERTEX
  8
0
 10
88.4495
 20
95.5421
 30
0.0
 40
0.2
 41
0.2
  0
SEQEND
 8
0
  0
POLYLINE
  8
0
 62
     0
 66
     1
 10
0
 20
0
 30
0.0
 40
0.566929
 41
0.566929
  0
VERTEX
  8
0
 10
88.4495
 20
95.5421
 30
0.0
 40
0.2
 41
0.2
  0
VERTEX
  8
0
 10
88.4495
 20
80.5423
 30
0.0
 40
0.2
 41
0.2
  0
VERTEX
  8
0
 10
88.4495
 20
80.5258
 30
0.0
 40
0.2
 41
0.2
  0
VERTEX
  8
0
 10
88.4784
 20
80.4718
 30
0.0
 40
0.2
 41
0.2
  0
VERTEX
  8
0
 10
88.5321
 20
80.4414
 30
0.0
 40
0.2
 41
0.2
  0
VERTEX
  8
0
 10
88.55
 20
80.4414
 30
0.0
 40
0.2
 41
0.2
  0
SEQEND
 8
0
  0
POLYLINE
  8
0
 62
     0
 66
     1
 10
0
 20
0
 30
0.0
 40
0.566929
 41
0.566929
  0
VERTEX
  8
0
 10
88.55
 20
80.4414
 30
0.0
 40
0.2
 41
0.2
  0
VERTEX
  8
0
 10
91.5501
 20
80.4414
 30
0.0
 40
0.2
 41
0.2
  0
VERTEX
  8
0
 10
91.5321
 20
80.4414
 30
0.0
 40
0.2
 41
0.2
  0
VERTEX
  8
0
 10
91.4784
 20
80.4718
 30
0.0
 40
0.2
 41
0.2
  0
VERTEX
  8
0
 10
91.4495
 20
80.5258
 30
0.0
 40
0.2
 41
0.2
  0
VERTEX
  8
0
 10
91.4495
 20
80.5423
 30
0.0
 40
0.2
 41
0.2
  0
SEQEND
 8
0
  0
POLYLINE
  8
0
 62
     0
 66
     1
 10
0
 20
0
 30
0.0
 40
0.566929
 41
0.566929
  0
VERTEX
  8
0
 10
91.4495
 20
80.5423
 30
0.0
 40
0.2
 41
0.2
  0
VERTEX
  8
0
 10
91.4495
 20
73.5418
 30
0.0
 40
0.2
 41
0.2
  0
SEQEND
 8
0
  0
POLYLINE
  8
0
 62
     0
 66
     1
 10
0
 20
0
 30
0.0
 40
0.566929
 41
0.566929
  0
VERTEX
  8
0
 10
91.4495
 20
73.5418
 30
0.0
 40
0.2
 41
0.2
  0
VERTEX
  8
0
 10
91.4495
 20
70.5418
 30
0.0
 40
0.2
 41
0.2
  0
VERTEX
  8
0
 10
91.4495
 20
70.5252
 30
0.0
 40
0.2
 41
0.2
  0
VERTEX
  8
0
 10
91.4784
 20
70.4716
 30
0.0
 40
0.2
 41
0.2
  0
VERTEX
  8
0
 10
91.5321
 20
70.4413
 30
0.0
 40
0.2
 41
0.2
  0
VERTEX
  8
0
 10
91.5501
 20
70.4413
 30
0.0
 40
0.2
 41
0.2
  0
SEQEND
 8
0
  0
POLYLINE
  8
0
 62
     0
 66
     1
 10
0
 20
0
 30
0.0
 40
0.566929
 41
0.566929
  0
VERTEX
  8
0
 10
3.85025
 20
70.4413
 30
0.0
 40
0.2
 41
0.2
  0
VERTEX
  8
0
 10
15.35
 20
70.4413
 30
0.0
 40
0.2
 41
0.2
  0
SEQEND
 8
0
  0
POLYLINE
  8
0
 62
     0
 66
     1
 10
0
 20
0
 30
0.0
 40
0.566929
 41
0.566929
  0
VERTEX
  8
0
 10
15.35
 20
70.4413
 30
0.0
 40
0.2
 41
0.2
  0
VERTEX
  8
0
 10
15.3665
 20
70.4413
 30
0.0
 40
0.2
 41
0.2
  0
VERTEX
  8
0
 10
15.4202
 20
70.4716
 30
0.0
 40
0.2
 41
0.2
  0
VERTEX
  8
0
 10
15.4506
 20
70.5252
 30
0.0
 40
0.2
 41
0.2
  0
VERTEX
  8
0
 10
15.4506
 20
70.5418
 30
0.0
 40
0.2
 41
0.2
  0
SEQEND
 8
0
  0
POLYLINE
  8
0
 62
     0
 66
     1
 10
0
 20
0
 30
0.0
 40
0.566929
 41
0.566929
  0
VERTEX
  8
0
 10
15.4506
 20
70.5418
 30
0.0
 40
0.2
 41
0.2
  0
VERTEX
  8
0
 10
15.4506
 20
73.5418
 30
0.0
 40
0.2
 41
0.2
  0
VERTEX
  8
0
 10
15.4506
 20
73.5252
 30
0.0
 40
0.2
 41
0.2
  0
VERTEX
  8
0
 10
15.4202
 20
73.4716
 30
0.0
 40
0.2
 41
0.2
  0
VERTEX
  8
0
 10
15.3665
 20
73.4413
 30
0.0
 40
0.2
 41
0.2
  0
VERTEX
  8
0
 10
15.35
 20
73.4413
 30
0.0
 40
0.2
 41
0.2
  0
SEQEND
 8
0
  0
POLYLINE
  8
0
 62
     0
 66
     1
 10
0
 20
0
 30
0.0
 40
0.566929
 41
0.566929
  0
VERTEX
  8
0
 10
15.35
 20
73.4413
 30
0.0
 40
0.2
 41
0.2
  0
VERTEX
  8
0
 10
30.3499
 20
73.4413
 30
0.0
 40
0.2
 41
0.2
  0
VERTEX
  8
0
 10
30.332
 20
73.4413
 30
0.0
 40
0.2
 41
0.2
  0
VERTEX
  8
0
 10
30.2782
 20
73.4716
 30
0.0
 40
0.2
 41
0.2
  0
VERTEX
  8
0
 10
30.2493
 20
73.5252
 30
0.0
 40
0.2
 41
0.2
  0
VERTEX
  8
0
 10
30.2493
 20
73.5418
 30
0.0
 40
0.2
 41
0.2
  0
SEQEND
 8
0
  0
POLYLINE
  8
0
 62
     0
 66
     1
 10
0
 20
0
 30
0.0
 40
0.566929
 41
0.566929
  0
VERTEX
  8
0
 10
30.2493
 20
73.5418
 30
0.0
 40
0.2
 41
0.2
  0
VERTEX
  8
0
 10
30.2493
 20
70.5418
 30
0.0
 40
0.2
 41
0.2
  0
VERTEX
  8
0
 10
30.2493
 20
70.5252
 30
0.0
 40
0.2
 41
0.2
  0
VERTEX
  8
0
 10
30.2782
 20
70.4716
 30
0.0
 40
0.2
 41
0.2
  0
VERTEX
  8
0
 10
30.332
 20
70.4413
 30
0.0
 40
0.2
 41
0.2
  0
VERTEX
  8
0
 10
30.3499
 20
70.4413
 30
0.0
 40
0.2
 41
0.2
  0
SEQEND
 8
0
  0
POLYLINE
  8
0
 62
     0
 66
     1
 10
0
 20
0
 30
0.0
 40
0.566929
 41
0.566929
  0
VERTEX
  8
0
 10
30.3499
 20
70.4413
 30
0.0
 40
0.2
 41
0.2
  0
VERTEX
  8
0
 10
36.3499
 20
70.4413
 30
0.0
 40
0.2
 41
0.2
  0
SEQEND
 8
0
  0
POLYLINE
  8
0
 62
     0
 66
     1
 10
0
 20
0
 30
0.0
 40
0.566929
 41
0.566929
  0
VERTEX
  8
0
 10
36.3499
 20
70.4413
 30
0.0
 40
0.2
 41
0.2
  0
VERTEX
  8
0
 10
36.3664
 20
70.4413
 30
0.0
 40
0.2
 41
0.2
  0
VERTEX
  8
0
 10
36.4201
 20
70.4716
 30
0.0
 40
0.2
 41
0.2
  0
VERTEX
  8
0
 10
36.4504
 20
70.5252
 30
0.0
 40
0.2
 41
0.2
  0
VERTEX
  8
0
 10
36.4504
 20
70.5418
 30
0.0
 40
0.2
 41
0.2
  0
SEQEND
 8
0
  0
POLYLINE
  8
0
 62
     0
 66
     1
 10
0
 20
0
 30
0.0
 40
0.566929
 41
0.566929
  0
VERTEX
  8
0
 10
36.4504
 20
70.5418
 30
0.0
 40
0.2
 41
0.2
  0
VERTEX
  8
0
 10
36.4504
 20
73.5418
 30
0.0
 40
0.2
 41
0.2
  0
VERTEX
  8
0
 10
36.4504
 20
73.5252
 30
0.0
 40
0.2
 41
0.2
  0
VERTEX
  8
0
 10
36.4201
 20
73.4716
 30
0.0
 40
0.2
 41
0.2
  0
VERTEX
  8
0
 10
36.3664
 20
73.4413
 30
0.0
 40
0.2
 41
0.2
  0
VERTEX
  8
0
 10
36.3499
 20
73.4413
 30
0.0
 40
0.2
 41
0.2
  0
SEQEND
 8
0
  0
POLYLINE
  8
0
 62
     0
 66
     1
 10
0
 20
0
 30
0.0
 40
0.566929
 41
0.566929
  0
VERTEX
  8
0
 10
36.3499
 20
73.4413
 30
0.0
 40
0.2
 41
0.2
  0
VERTEX
  8
0
 10
51.35
 20
73.4413
 30
0.0
 40
0.2
 41
0.2
  0
VERTEX
  8
0
 10
51.332
 20
73.4413
 30
0.0
 40
0.2
 41
0.2
  0
VERTEX
  8
0
 10
51.278
 20
73.4716
 30
0.0
 40
0.2
 41
0.2
  0
VERTEX
  8
0
 10
51.2491
 20
73.5252
 30
0.0
 40
0.2
 41
0.2
  0
VERTEX
  8
0
 10
51.2491
 20
73.5418
 30
0.0
 40
0.2
 41
0.2
  0
SEQEND
 8
0
  0
POLYLINE
  8
0
 62
     0
 66
     1
 10
0
 20
0
 30
0.0
 40
0.566929
 41
0.566929
  0
VERTEX
  8
0
 10
51.2491
 20
73.5418
 30
0.0
 40
0.2
 41
0.2
  0
VERTEX
  8
0
 10
51.2491
 20
70.5418
 30
0.0
 40
0.2
 41
0.2
  0
VERTEX
  8
0
 10
51.2491
 20
70.5252
 30
0.0
 40
0.2
 41
0.2
  0
VERTEX
  8
0
 10
51.278
 20
70.4716
 30
0.0
 40
0.2
 41
0.2
  0
VERTEX
  8
0
 10
51.332
 20
70.4413
 30
0.0
 40
0.2
 41
0.2
  0
VERTEX
  8
0
 10
51.35
 20
70.4413
 30
0.0
 40
0.2
 41
0.2
  0
SEQEND
 8
0
  0
POLYLINE
  8
0
 62
     0
 66
     1
 10
0
 20
0
 30
0.0
 40
0.566929
 41
0.566929
  0
VERTEX
  8
0
 10
51.35
 20
70.4413
 30
0.0
 40
0.2
 41
0.2
  0
VERTEX
  8
0
 10
57.3497
 20
70.4413
 30
0.0
 40
0.2
 41
0.2
  0
SEQEND
 8
0
  0
POLYLINE
  8
0
 62
     0
 66
     1
 10
0
 20
0
 30
0.0
 40
0.566929
 41
0.566929
  0
VERTEX
  8
0
 10
57.3497
 20
70.4413
 30
0.0
 40
0.2
 41
0.2
  0
VERTEX
  8
0
 10
57.3663
 20
70.4413
 30
0.0
 40
0.2
 41
0.2
  0
VERTEX
  8
0
 10
57.4202
 20
70.4716
 30
0.0
 40
0.2
 41
0.2
  0
VERTEX
  8
0
 10
57.4506
 20
70.5252
 30
0.0
 40
0.2
 41
0.2
  0
VERTEX
  8
0
 10
57.4506
 20
70.5418
 30
0.0
 40
0.2
 41
0.2
  0
SEQEND
 8
0
  0
POLYLINE
  8
0
 62
     0
 66
     1
 10
0
 20
0
 30
0.0
 40
0.566929
 41
0.566929
  0
VERTEX
  8
0
 10
57.4506
 20
70.5418
 30
0.0
 40
0.2
 41
0.2
  0
VERTEX
  8
0
 10
57.4506
 20
73.5418
 30
0.0
 40
0.2
 41
0.2
  0
VERTEX
  8
0
 10
57.4506
 20
73.5252
 30
0.0
 40
0.2
 41
0.2
  0
VERTEX
  8
0
 10
57.4202
 20
73.4716
 30
0.0
 40
0.2
 41
0.2
  0
VERTEX
  8
0
 10
57.3663
 20
73.4413
 30
0.0
 40
0.2
 41
0.2
  0
VERTEX
  8
0
 10
57.3497
 20
73.4413
 30
0.0
 40
0.2
 41
0.2
  0
SEQEND
 8
0
  0
POLYLINE
  8
0
 62
     0
 66
     1
 10
0
 20
0
 30
0.0
 40
0.566929
 41
0.566929
  0
VERTEX
  8
0
 10
57.3497
 20
73.4413
 30
0.0
 40
0.2
 41
0.2
  0
VERTEX
  8
0
 10
72.3498
 20
73.4413
 30
0.0
 40
0.2
 41
0.2
  0
VERTEX
  8
0
 10
72.3318
 20
73.4413
 30
0.0
 40
0.2
 41
0.2
  0
VERTEX
  8
0
 10
72.2782
 20
73.4716
 30
0.0
 40
0.2
 41
0.2
  0
VERTEX
  8
0
 10
72.2492
 20
73.5252
 30
0.0
 40
0.2
 41
0.2
  0
VERTEX
  8
0
 10
72.2492
 20
73.5418
 30
0.0
 40
0.2
 41
0.2
  0
SEQEND
 8
0
  0
POLYLINE
  8
0
 62
     0
 66
     1
 10
0
 20
0
 30
0.0
 40
0.566929
 41
0.566929
  0
VERTEX
  8
0
 10
72.2492
 20
73.5418
 30
0.0
 40
0.2
 41
0.2
  0
VERTEX
  8
0
 10
72.2492
 20
70.5418
 30
0.0
 40
0.2
 41
0.2
  0
VERTEX
  8
0
 10
72.2492
 20
70.5252
 30
0.0
 40
0.2
 41
0.2
  0
VERTEX
  8
0
 10
72.2782
 20
70.4716
 30
0.0
 40
0.2
 41
0.2
  0
VERTEX
  8
0
 10
72.3318
 20
70.4413
 30
0.0
 40
0.2
 41
0.2
  0
VERTEX
  8
0
 10
72.3498
 20
70.4413
 30
0.0
 40
0.2
 41
0.2
  0
SEQEND
 8
0
  0
POLYLINE
  8
0
 62
     0
 66
     1
 10
0
 20
0
 30
0.0
 40
0.566929
 41
0.566929
  0
VERTEX
  8
0
 10
72.3498
 20
70.4413
 30
0.0
 40
0.2
 41
0.2
  0
VERTEX
  8
0
 10
83.8496
 20
70.4413
 30
0.0
 40
0.2
 41
0.2
  0
SEQEND
 8
0
  0
POLYLINE
  8
0
 62
     0
 66
     1
 10
0
 20
0
 30
0.0
 40
0.566929
 41
0.566929
  0
VERTEX
  8
0
 10
83.8496
 20
70.4413
 30
0.0
 40
0.2
 41
0.2
  0
VERTEX
  8
0
 10
86.8497
 20
70.4413
 30
0.0
 40
0.2
 41
0.2
  0
VERTEX
  8
0
 10
86.8659
 20
70.4413
 30
0.0
 40
0.2
 41
0.2
  0
VERTEX
  8
0
 10
86.9199
 20
70.4716
 30
0.0
 40
0.2
 41
0.2
  0
VERTEX
  8
0
 10
86.9502
 20
70.5252
 30
0.0
 40
0.2
 41
0.2
  0
VERTEX
  8
0
 10
86.9502
 20
70.5418
 30
0.0
 40
0.2
 41
0.2
  0
SEQEND
 8
0
  0
POLYLINE
  8
0
 62
     0
 66
     1
 10
0
 20
0
 30
0.0
 40
0.566929
 41
0.566929
  0
VERTEX
  8
0
 10
86.9502
 20
70.5418
 30
0.0
 40
0.2
 41
0.2
  0
VERTEX
  8
0
 10
86.9502
 20
73.5418
 30
0.0
 40
0.2
 41
0.2
  0
SEQEND
 8
0
  0
POLYLINE
  8
0
 62
     0
 66
     1
 10
0
 20
0
 30
0.0
 40
0.566929
 41
0.566929
  0
VERTEX
  8
0
 10
86.9502
 20
73.5418
 30
0.0
 40
0.2
 41
0.2
  0
VERTEX
  8
0
 10
86.9502
 20
80.5423
 30
0.0
 40
0.2
 41
0.2
  0
SEQEND
 8
0
  0
POLYLINE
  8
0
 62
     0
 66
     1
 10
0
 20
0
 30
0.0
 40
0.566929
 41
0.566929
  0
VERTEX
  8
0
 10
86.9502
 20
80.5423
 30
0.0
 40
0.2
 41
0.2
  0
VERTEX
  8
0
 10
86.9502
 20
80.56
 30
0.0
 40
0.2
 41
0.2
  0
VERTEX
  8
0
 10
86.9199
 20
80.614
 30
0.0
 40
0.2
 41
0.2
  0
VERTEX
  8
0
 10
86.8659
 20
80.6429
 30
0.0
 40
0.2
 41
0.2
  0
VERTEX
  8
0
 10
86.8497
 20
80.6429
 30
0.0
 40
0.2
 41
0.2
  0
SEQEND
 8
0
  0
POLYLINE
  8
0
 62
     0
 66
     1
 10
0
 20
0
 30
0.0
 40
0.566929
 41
0.566929
  0
VERTEX
  8
0
 10
86.8497
 20
80.6429
 30
0.0
 40
0.2
 41
0.2
  0
VERTEX
  8
0
 10
83.8496
 20
80.6429
 30
0.0
 40
0.2
 41
0.2
  0
VERTEX
  8
0
 10
83.8659
 20
80.6429
 30
0.0
 40
0.2
 41
0.2
  0
VERTEX
  8
0
 10
83.9198
 20
80.614
 30
0.0
 40
0.2
 41
0.2
  0
VERTEX
  8
0
 10
83.9502
 20
80.56
 30
0.0
 40
0.2
 41
0.2
  0
VERTEX
  8
0
 10
83.9502
 20
80.5423
 30
0.0
 40
0.2
 41
0.2
  0
SEQEND
 8
0
  0
POLYLINE
  8
0
 62
     0
 66
     1
 10
0
 20
0
 30
0.0
 40
0.566929
 41
0.566929
  0
VERTEX
  8
0
 10
83.9502
 20
80.5423
 30
0.0
 40
0.2
 41
0.2
  0
VERTEX
  8
0
 10
83.9502
 20
95.5421
 30
0.0
 40
0.2
 41
0.2
  0
VERTEX
  8
0
 10
83.9502
 20
95.5255
 30
0.0
 40
0.2
 41
0.2
  0
VERTEX
  8
0
 10
83.9198
 20
95.4719
 30
0.0
 40
0.2
 41
0.2
  0
VERTEX
  8
0
 10
83.8659
 20
95.4416
 30
0.0
 40
0.2
 41
0.2
  0
VERTEX
  8
0
 10
83.8496
 20
95.4416
 30
0.0
 40
0.2
 41
0.2
  0
SEQEND
 8
0
  0
POLYLINE
  8
0
 62
     0
 66
     1
 10
0
 20
0
 30
0.0
 40
0.566929
 41
0.566929
  0
VERTEX
  8
0
 10
83.8496
 20
95.4416
 30
0.0
 40
0.2
 41
0.2
  0
VERTEX
  8
0
 10
86.8497
 20
95.4416
 30
0.0
 40
0.2
 41
0.2
  0
VERTEX
  8
0
 10
86.8659
 20
95.4416
 30
0.0
 40
0.2
 41
0.2
  0
VERTEX
  8
0
 10
86.9199
 20
95.4719
 30
0.0
 40
0.2
 41
0.2
  0
VERTEX
  8
0
 10
86.9502
 20
95.5255
 30
0.0
 40
0.2
 41
0.2
  0
VERTEX
  8
0
 10
86.9502
 20
95.5421
 30
0.0
 40
0.2
 41
0.2
  0
SEQEND
 8
0
  0
POLYLINE
  8
0
 62
     0
 66
     1
 10
0
 20
0
 30
0.0
 40
0.566929
 41
0.566929
  0
VERTEX
  8
0
 10
86.9502
 20
95.5421
 30
0.0
 40
0.2
 41
0.2
  0
VERTEX
  8
0
 10
86.9502
 20
101.542
 30
0.0
 40
0.2
 41
0.2
  0
SEQEND
 8
0
  0
POLYLINE
  8
0
 62
     0
 66
     1
 10
0
 20
0
 30
0.0
 40
0.566929
 41
0.566929
  0
VERTEX
  8
0
 10
86.9502
 20
101.542
 30
0.0
 40
0.2
 41
0.2
  0
VERTEX
  8
0
 10
86.9502
 20
101.56
 30
0.0
 40
0.2
 41
0.2
  0
VERTEX
  8
0
 10
86.9199
 20
101.614
 30
0.0
 40
0.2
 41
0.2
  0
VERTEX
  8
0
 10
86.8659
 20
101.643
 30
0.0
 40
0.2
 41
0.2
  0
VERTEX
  8
0
 10
86.8497
 20
101.643
 30
0.0
 40
0.2
 41
0.2
  0
SEQEND
 8
0
  0
POLYLINE
  8
0
 62
     0
 66
     1
 10
0
 20
0
 30
0.0
 40
0.566929
 41
0.566929
  0
VERTEX
  8
0
 10
86.8497
 20
101.643
 30
0.0
 40
0.2
 41
0.2
  0
VERTEX
  8
0
 10
83.8496
 20
101.643
 30
0.0
 40
0.2
 41
0.2
  0
VERTEX
  8
0
 10
83.8659
 20
101.643
 30
0.0
 40
0.2
 41
0.2
  0
VERTEX
  8
0
 10
83.9198
 20
101.614
 30
0.0
 40
0.2
 41
0.2
  0
VERTEX
  8
0
 10
83.9502
 20
101.56
 30
0.0
 40
0.2
 41
0.2
  0
VERTEX
  8
0
 10
83.9502
 20
101.542
 30
0.0
 40
0.2
 41
0.2
  0
SEQEND
 8
0
  0
POLYLINE
  8
0
 62
     0
 66
     1
 10
0
 20
0
 30
0.0
 40
0.566929
 41
0.566929
  0
VERTEX
  8
0
 10
83.9502
 20
101.542
 30
0.0
 40
0.2
 41
0.2
  0
VERTEX
  8
0
 10
83.9502
 20
116.542
 30
0.0
 40
0.2
 41
0.2
  0
VERTEX
  8
0
 10
83.9502
 20
116.526
 30
0.0
 40
0.2
 41
0.2
  0
VERTEX
  8
0
 10
83.9198
 20
116.472
 30
0.0
 40
0.2
 41
0.2
  0
VERTEX
  8
0
 10
83.8659
 20
116.441
 30
0.0
 40
0.2
 41
0.2
  0
VERTEX
  8
0
 10
83.8496
 20
116.441
 30
0.0
 40
0.2
 41
0.2
  0
SEQEND
 8
0
  0
POLYLINE
  8
0
 62
     0
 66
     1
 10
0
 20
0
 30
0.0
 40
0.566929
 41
0.566929
  0
VERTEX
  8
0
 10
83.8496
 20
116.441
 30
0.0
 40
0.2
 41
0.2
  0
VERTEX
  8
0
 10
86.8497
 20
116.441
 30
0.0
 40
0.2
 41
0.2
  0
VERTEX
  8
0
 10
86.8659
 20
116.441
 30
0.0
 40
0.2
 41
0.2
  0
VERTEX
  8
0
 10
86.9199
 20
116.472
 30
0.0
 40
0.2
 41
0.2
  0
VERTEX
  8
0
 10
86.9502
 20
116.526
 30
0.0
 40
0.2
 41
0.2
  0
VERTEX
  8
0
 10
86.9502
 20
116.542
 30
0.0
 40
0.2
 41
0.2
  0
SEQEND
 8
0
  0
POLYLINE
  8
0
 62
     0
 66
     1
 10
0
 20
0
 30
0.0
 40
0.566929
 41
0.566929
  0
VERTEX
  8
0
 10
86.9502
 20
116.542
 30
0.0
 40
0.2
 41
0.2
  0
VERTEX
  8
0
 10
86.9502
 20
123.542
 30
0.0
 40
0.2
 41
0.2
  0
SEQEND
 8
0
  0
POLYLINE
  8
0
 62
     0
 66
     1
 10
0
 20
0
 30
0.0
 40
0.566929
 41
0.566929
  0
VERTEX
  8
0
 10
86.9502
 20
123.542
 30
0.0
 40
0.2
 41
0.2
  0
VERTEX
  8
0
 10
86.9502
 20
126.542
 30
0.0
 40
0.2
 41
0.2
  0
VERTEX
  8
0
 10
86.9502
 20
126.56
 30
0.0
 40
0.2
 41
0.2
  0
VERTEX
  8
0
 10
86.9199
 20
126.614
 30
0.0
 40
0.2
 41
0.2
  0
VERTEX
  8
0
 10
86.8659
 20
126.643
 30
0.0
 40
0.2
 41
0.2
  0
VERTEX
  8
0
 10
86.8497
 20
126.643
 30
0.0
 40
0.2
 41
0.2
  0
SEQEND
 8
0
  0
POLYLINE
  8
0
 62
     0
 66
     1
 10
0
 20
0
 30
0.0
 40
0.566929
 41
0.566929
  0
VERTEX
  8
0
 10
86.8497
 20
126.643
 30
0.0
 40
0.2
 41
0.2
  0
VERTEX
  8
0
 10
83.8496
 20
126.643
 30
0.0
 40
0.2
 41
0.2
  0
SEQEND
 8
0
  0
POLYLINE
  8
0
 62
     0
 66
     1
 10
0
 20
0
 30
0.0
 40
0.566929
 41
0.566929
  0
VERTEX
  8
0
 10
83.8496
 20
126.643
 30
0.0
 40
0.2
 41
0.2
  0
VERTEX
  8
0
 10
72.3498
 20
126.643
 30
0.0
 40
0.2
 41
0.2
  0
SEQEND
 8
0
  0
POLYLINE
  8
0
 62
     0
 66
     1
 10
0
 20
0
 30
0.0
 40
0.566929
 41
0.566929
  0
VERTEX
  8
0
 10
72.3498
 20
126.643
 30
0.0
 40
0.2
 41
0.2
  0
VERTEX
  8
0
 10
72.3318
 20
126.643
 30
0.0
 40
0.2
 41
0.2
  0
VERTEX
  8
0
 10
72.2782
 20
126.614
 30
0.0
 40
0.2
 41
0.2
  0
VERTEX
  8
0
 10
72.2492
 20
126.56
 30
0.0
 40
0.2
 41
0.2
  0
VERTEX
  8
0
 10
72.2492
 20
126.542
 30
0.0
 40
0.2
 41
0.2
  0
SEQEND
 8
0
  0
POLYLINE
  8
0
 62
     0
 66
     1
 10
0
 20
0
 30
0.0
 40
0.566929
 41
0.566929
  0
VERTEX
  8
0
 10
72.2492
 20
126.542
 30
0.0
 40
0.2
 41
0.2
  0
VERTEX
  8
0
 10
72.2492
 20
123.542
 30
0.0
 40
0.2
 41
0.2
  0
VERTEX
  8
0
 10
72.2492
 20
123.56
 30
0.0
 40
0.2
 41
0.2
  0
VERTEX
  8
0
 10
72.2782
 20
123.614
 30
0.0
 40
0.2
 41
0.2
  0
VERTEX
  8
0
 10
72.3318
 20
123.643
 30
0.0
 40
0.2
 41
0.2
  0
VERTEX
  8
0
 10
72.3498
 20
123.643
 30
0.0
 40
0.2
 41
0.2
  0
SEQEND
 8
0
  0
POLYLINE
  8
0
 62
     0
 66
     1
 10
0
 20
0
 30
0.0
 40
0.566929
 41
0.566929
  0
VERTEX
  8
0
 10
72.3498
 20
123.643
 30
0.0
 40
0.2
 41
0.2
  0
VERTEX
  8
0
 10
57.3497
 20
123.643
 30
0.0
 40
0.2
 41
0.2
  0
VERTEX
  8
0
 10
57.3663
 20
123.643
 30
0.0
 40
0.2
 41
0.2
  0
VERTEX
  8
0
 10
57.4202
 20
123.614
 30
0.0
 40
0.2
 41
0.2
  0
VERTEX
  8
0
 10
57.4506
 20
123.56
 30
0.0
 40
0.2
 41
0.2
  0
VERTEX
  8
0
 10
57.4506
 20
123.542
 30
0.0
 40
0.2
 41
0.2
  0
SEQEND
 8
0
  0
POLYLINE
  8
0
 62
     0
 66
     1
 10
0
 20
0
 30
0.0
 40
0.566929
 41
0.566929
  0
VERTEX
  8
0
 10
57.4506
 20
123.542
 30
0.0
 40
0.2
 41
0.2
  0
VERTEX
  8
0
 10
57.4506
 20
126.542
 30
0.0
 40
0.2
 41
0.2
  0
VERTEX
  8
0
 10
57.4506
 20
126.56
 30
0.0
 40
0.2
 41
0.2
  0
VERTEX
  8
0
 10
57.4202
 20
126.614
 30
0.0
 40
0.2
 41
0.2
  0
VERTEX
  8
0
 10
57.3663
 20
126.643
 30
0.0
 40
0.2
 41
0.2
  0
VERTEX
  8
0
 10
57.3497
 20
126.643
 30
0.0
 40
0.2
 41
0.2
  0
SEQEND
 8
0
  0
POLYLINE
  8
0
 62
     0
 66
     1
 10
0
 20
0
 30
0.0
 40
0.566929
 41
0.566929
  0
VERTEX
  8
0
 10
57.3497
 20
126.643
 30
0.0
 40
0.2
 41
0.2
  0
VERTEX
  8
0
 10
51.35
 20
126.643
 30
0.0
 40
0.2
 41
0.2
  0
SEQEND
 8
0
  0
POLYLINE
  8
0
 62
     0
 66
     1
 10
0
 20
0
 30
0.0
 40
0.566929
 41
0.566929
  0
VERTEX
  8
0
 10
51.35
 20
126.643
 30
0.0
 40
0.2
 41
0.2
  0
VERTEX
  8
0
 10
51.332
 20
126.643
 30
0.0
 40
0.2
 41
0.2
  0
VERTEX
  8
0
 10
51.278
 20
126.614
 30
0.0
 40
0.2
 41
0.2
  0
VERTEX
  8
0
 10
51.2491
 20
126.56
 30
0.0
 40
0.2
 41
0.2
  0
VERTEX
  8
0
 10
51.2491
 20
126.542
 30
0.0
 40
0.2
 41
0.2
  0
SEQEND
 8
0
  0
POLYLINE
  8
0
 62
     0
 66
     1
 10
0
 20
0
 30
0.0
 40
0.566929
 41
0.566929
  0
VERTEX
  8
0
 10
51.2491
 20
126.542
 30
0.0
 40
0.2
 41
0.2
  0
VERTEX
  8
0
 10
51.2491
 20
123.542
 30
0.0
 40
0.2
 41
0.2
  0
VERTEX
  8
0
 10
51.2491
 20
123.56
 30
0.0
 40
0.2
 41
0.2
  0
VERTEX
  8
0
 10
51.278
 20
123.614
 30
0.0
 40
0.2
 41
0.2
  0
VERTEX
  8
0
 10
51.332
 20
123.643
 30
0.0
 40
0.2
 41
0.2
  0
VERTEX
  8
0
 10
51.35
 20
123.643
 30
0.0
 40
0.2
 41
0.2
  0
SEQEND
 8
0
  0
POLYLINE
  8
0
 62
     0
 66
     1
 10
0
 20
0
 30
0.0
 40
0.566929
 41
0.566929
  0
VERTEX
  8
0
 10
51.35
 20
123.643
 30
0.0
 40
0.2
 41
0.2
  0
VERTEX
  8
0
 10
36.3499
 20
123.643
 30
0.0
 40
0.2
 41
0.2
  0
VERTEX
  8
0
 10
36.3664
 20
123.643
 30
0.0
 40
0.2
 41
0.2
  0
VERTEX
  8
0
 10
36.4201
 20
123.614
 30
0.0
 40
0.2
 41
0.2
  0
VERTEX
  8
0
 10
36.4504
 20
123.56
 30
0.0
 40
0.2
 41
0.2
  0
VERTEX
  8
0
 10
36.4504
 20
123.542
 30
0.0
 40
0.2
 41
0.2
  0
SEQEND
 8
0
  0
POLYLINE
  8
0
 62
     0
 66
     1
 10
0
 20
0
 30
0.0
 40
0.566929
 41
0.566929
  0
VERTEX
  8
0
 10
36.4504
 20
123.542
 30
0.0
 40
0.2
 41
0.2
  0
VERTEX
  8
0
 10
36.4504
 20
126.542
 30
0.0
 40
0.2
 41
0.2
  0
VERTEX
  8
0
 10
36.4504
 20
126.56
 30
0.0
 40
0.2
 41
0.2
  0
VERTEX
  8
0
 10
36.4201
 20
126.614
 30
0.0
 40
0.2
 41
0.2
  0
VERTEX
  8
0
 10
36.3664
 20
126.643
 30
0.0
 40
0.2
 41
0.2
  0
VERTEX
  8
0
 10
36.3499
 20
126.643
 30
0.0
 40
0.2
 41
0.2
  0
SEQEND
 8
0
  0
POLYLINE
  8
0
 62
     0
 66
     1
 10
0
 20
0
 30
0.0
 40
0.566929
 41
0.566929
  0
VERTEX
  8
0
 10
36.3499
 20
126.643
 30
0.0
 40
0.2
 41
0.2
  0
VERTEX
  8
0
 10
30.3499
 20
126.643
 30
0.0
 40
0.2
 41
0.2
  0
SEQEND
 8
0
  0
POLYLINE
  8
0
 62
     0
 66
     1
 10
0
 20
0
 30
0.0
 40
0.566929
 41
0.566929
  0
VERTEX
  8
0
 10
30.3499
 20
126.643
 30
0.0
 40
0.2
 41
0.2
  0
VERTEX
  8
0
 10
30.332
 20
126.643
 30
0.0
 40
0.2
 41
0.2
  0
VERTEX
  8
0
 10
30.2782
 20
126.614
 30
0.0
 40
0.2
 41
0.2
  0
VERTEX
  8
0
 10
30.2493
 20
126.56
 30
0.0
 40
0.2
 41
0.2
  0
VERTEX
  8
0
 10
30.2493
 20
126.542
 30
0.0
 40
0.2
 41
0.2
  0
SEQEND
 8
0
  0
POLYLINE
  8
0
 62
     0
 66
     1
 10
0
 20
0
 30
0.0
 40
0.566929
 41
0.566929
  0
VERTEX
  8
0
 10
30.2493
 20
126.542
 30
0.0
 40
0.2
 41
0.2
  0
VERTEX
  8
0
 10
30.2493
 20
123.542
 30
0.0
 40
0.2
 41
0.2
  0
VERTEX
  8
0
 10
30.2493
 20
123.56
 30
0.0
 40
0.2
 41
0.2
  0
VERTEX
  8
0
 10
30.2782
 20
123.614
 30
0.0
 40
0.2
 41
0.2
  0
VERTEX
  8
0
 10
30.332
 20
123.643
 30
0.0
 40
0.2
 41
0.2
  0
VERTEX
  8
0
 10
30.3499
 20
123.643
 30
0.0
 40
0.2
 41
0.2
  0
SEQEND
 8
0
  0
POLYLINE
  8
0
 62
     0
 66
     1
 10
0
 20
0
 30
0.0
 40
0.566929
 41
0.566929
  0
VERTEX
  8
0
 10
30.3499
 20
123.643
 30
0.0
 40
0.2
 41
0.2
  0
VERTEX
  8
0
 10
15.35
 20
123.643
 30
0.0
 40
0.2
 41
0.2
  0
VERTEX
  8
0
 10
15.3665
 20
123.643
 30
0.0
 40
0.2
 41
0.2
  0
VERTEX
  8
0
 10
15.4202
 20
123.614
 30
0.0
 40
0.2
 41
0.2
  0
VERTEX
  8
0
 10
15.4506
 20
123.56
 30
0.0
 40
0.2
 41
0.2
  0
VERTEX
  8
0
 10
15.4506
 20
123.542
 30
0.0
 40
0.2
 41
0.2
  0
SEQEND
 8
0
  0
POLYLINE
  8
0
 62
     0
 66
     1
 10
0
 20
0
 30
0.0
 40
0.566929
 41
0.566929
  0
VERTEX
  8
0
 10
15.4506
 20
123.542
 30
0.0
 40
0.2
 41
0.2
  0
VERTEX
  8
0
 10
15.4506
 20
126.542
 30
0.0
 40
0.2
 41
0.2
  0
VERTEX
  8
0
 10
15.4506
 20
126.56
 30
0.0
 40
0.2
 41
0.2
  0
VERTEX
  8
0
 10
15.4202
 20
126.614
 30
0.0
 40
0.2
 41
0.2
  0
VERTEX
  8
0
 10
15.3665
 20
126.643
 30
0.0
 40
0.2
 41
0.2
  0
VERTEX
  8
0
 10
15.35
 20
126.643
 30
0.0
 40
0.2
 41
0.2
  0
SEQEND
 8
0
  0
POLYLINE
  8
0
 62
     0
 66
     1
 10
0
 20
0
 30
0.0
 40
0.566929
 41
0.566929
  0
VERTEX
  8
0
 10
15.35
 20
126.643
 30
0.0
 40
0.2
 41
0.2
  0
VERTEX
  8
0
 10
3.85025
 20
126.643
 30
0.0
 40
0.2
 41
0.2
  0
SEQEND
 8
0
  0
POLYLINE
  8
0
 62
     0
 66
     1
 10
0
 20
0
 30
0.0
 40
0.566929
 41
0.566929
  0
VERTEX
  8
0
 10
3.85025
 20
126.643
 30
0.0
 40
0.2
 41
0.2
  0
VERTEX
  8
0
 10
0.850251
 20
126.643
 30
0.0
 40
0.2
 41
0.2
  0
VERTEX
  8
0
 10
0.832337
 20
126.643
 30
0.0
 40
0.2
 41
0.2
  0
VERTEX
  8
0
 10
0.778591
 20
126.614
 30
0.0
 40
0.2
 41
0.2
  0
VERTEX
  8
0
 10
0.749653
 20
126.56
 30
0.0
 40
0.2
 41
0.2
  0
VERTEX
  8
0
 10
0.749653
 20
126.542
 30
0.0
 40
0.2
 41
0.2
  0
SEQEND
 8
0
  0
POLYLINE
  8
0
 62
     0
 66
     1
 10
0
 20
0
 30
0.0
 40
0.566929
 41
0.566929
  0
VERTEX
  8
0
 10
0.749653
 20
126.542
 30
0.0
 40
0.2
 41
0.2
  0
VERTEX
  8
0
 10
0.749653
 20
123.542
 30
0.0
 40
0.2
 41
0.2
  0
SEQEND
 8
0
  0
POLYLINE
  8
0
 62
     0
 66
     1
 10
0
 20
0
 30
0.0
 40
0.566929
 41
0.566929
  0
VERTEX
  8
0
 10
0.749653
 20
123.542
 30
0.0
 40
0.2
 41
0.2
  0
VERTEX
  8
0
 10
0.749653
 20
116.542
 30
0.0
 40
0.2
 41
0.2
  0
SEQEND
 8
0
  0
POLYLINE
  8
0
 62
     0
 66
     1
 10
0
 20
0
 30
0.0
 40
0.566929
 41
0.566929
  0
VERTEX
  8
0
 10
0.749653
 20
116.542
 30
0.0
 40
0.2
 41
0.2
  0
VERTEX
  8
0
 10
0.749653
 20
116.526
 30
0.0
 40
0.2
 41
0.2
  0
VERTEX
  8
0
 10
0.778591
 20
116.472
 30
0.0
 40
0.2
 41
0.2
  0
VERTEX
  8
0
 10
0.832337
 20
116.441
 30
0.0
 40
0.2
 41
0.2
  0
VERTEX
  8
0
 10
0.850251
 20
116.441
 30
0.0
 40
0.2
 41
0.2
  0
SEQEND
 8
0
  0
POLYLINE
  8
0
 62
     0
 66
     1
 10
0
 20
0
 30
0.0
 40
0.566929
 41
0.566929
  0
VERTEX
  8
0
 10
0.850251
 20
116.441
 30
0.0
 40
0.2
 41
0.2
  0
VERTEX
  8
0
 10
3.85025
 20
116.441
 30
0.0
 40
0.2
 41
0.2
  0
VERTEX
  8
0
 10
3.83233
 20
116.441
 30
0.0
 40
0.2
 41
0.2
  0
VERTEX
  8
0
 10
3.77857
 20
116.472
 30
0.0
 40
0.2
 41
0.2
  0
VERTEX
  8
0
 10
3.74964
 20
116.526
 30
0.0
 40
0.2
 41
0.2
  0
VERTEX
  8
0
 10
3.74964
 20
116.542
 30
0.0
 40
0.2
 41
0.2
  0
SEQEND
 8
0
  0
POLYLINE
  8
0
 62
     0
 66
     1
 10
0
 20
0
 30
0.0
 40
0.566929
 41
0.566929
  0
VERTEX
  8
0
 10
3.74964
 20
116.542
 30
0.0
 40
0.2
 41
0.2
  0
VERTEX
  8
0
 10
3.74964
 20
101.542
 30
0.0
 40
0.2
 41
0.2
  0
VERTEX
  8
0
 10
3.74964
 20
101.56
 30
0.0
 40
0.2
 41
0.2
  0
VERTEX
  8
0
 10
3.77857
 20
101.614
 30
0.0
 40
0.2
 41
0.2
  0
VERTEX
  8
0
 10
3.83233
 20
101.643
 30
0.0
 40
0.2
 41
0.2
  0
VERTEX
  8
0
 10
3.85025
 20
101.643
 30
0.0
 40
0.2
 41
0.2
  0
SEQEND
 8
0
  0
POLYLINE
  8
0
 62
     0
 66
     1
 10
0
 20
0
 30
0.0
 40
0.566929
 41
0.566929
  0
VERTEX
  8
0
 10
3.85025
 20
101.643
 30
0.0
 40
0.2
 41
0.2
  0
VERTEX
  8
0
 10
0.850251
 20
101.643
 30
0.0
 40
0.2
 41
0.2
  0
VERTEX
  8
0
 10
0.832337
 20
101.643
 30
0.0
 40
0.2
 41
0.2
  0
VERTEX
  8
0
 10
0.778591
 20
101.614
 30
0.0
 40
0.2
 41
0.2
  0
VERTEX
  8
0
 10
0.749653
 20
101.56
 30
0.0
 40
0.2
 41
0.2
  0
VERTEX
  8
0
 10
0.749653
 20
101.542
 30
0.0
 40
0.2
 41
0.2
  0
SEQEND
 8
0
  0
POLYLINE
  8
0
 62
     0
 66
     1
 10
0
 20
0
 30
0.0
 40
0.566929
 41
0.566929
  0
VERTEX
  8
0
 10
0.749653
 20
101.542
 30
0.0
 40
0.2
 41
0.2
  0
VERTEX
  8
0
 10
0.749653
 20
95.5421
 30
0.0
 40
0.2
 41
0.2
  0
SEQEND
 8
0
  0
POLYLINE
  8
0
 62
     0
 66
     1
 10
0
 20
0
 30
0.0
 40
0.566929
 41
0.566929
  0
VERTEX
  8
0
 10
0.749653
 20
95.5421
 30
0.0
 40
0.2
 41
0.2
  0
VERTEX
  8
0
 10
0.749653
 20
95.5255
 30
0.0
 40
0.2
 41
0.2
  0
VERTEX
  8
0
 10
0.778591
 20
95.4719
 30
0.0
 40
0.2
 41
0.2
  0
VERTEX
  8
0
 10
0.832337
 20
95.4416
 30
0.0
 40
0.2
 41
0.2
  0
VERTEX
  8
0
 10
0.850251
 20
95.4416
 30
0.0
 40
0.2
 41
0.2
  0
SEQEND
 8
0
  0
POLYLINE
  8
0
 62
     0
 66
     1
 10
0
 20
0
 30
0.0
 40
0.566929
 41
0.566929
  0
VERTEX
  8
0
 10
0.850251
 20
95.4416
 30
0.0
 40
0.2
 41
0.2
  0
VERTEX
  8
0
 10
3.85025
 20
95.4416
 30
0.0
 40
0.2
 41
0.2
  0
VERTEX
  8
0
 10
3.83233
 20
95.4416
 30
0.0
 40
0.2
 41
0.2
  0
VERTEX
  8
0
 10
3.77857
 20
95.4719
 30
0.0
 40
0.2
 41
0.2
  0
VERTEX
  8
0
 10
3.74964
 20
95.5255
 30
0.0
 40
0.2
 41
0.2
  0
VERTEX
  8
0
 10
3.74964
 20
95.5421
 30
0.0
 40
0.2
 41
0.2
  0
SEQEND
 8
0
  0
POLYLINE
  8
0
 62
     0
 66
     1
 10
0
 20
0
 30
0.0
 40
0.566929
 41
0.566929
  0
VERTEX
  8
0
 10
3.74964
 20
95.5421
 30
0.0
 40
0.2
 41
0.2
  0
VERTEX
  8
0
 10
3.74964
 20
80.5423
 30
0.0
 40
0.2
 41
0.2
  0
VERTEX
  8
0
 10
3.74964
 20
80.56
 30
0.0
 40
0.2
 41
0.2
  0
VERTEX
  8
0
 10
3.77857
 20
80.614
 30
0.0
 40
0.2
 41
0.2
  0
VERTEX
  8
0
 10
3.83233
 20
80.6429
 30
0.0
 40
0.2
 41
0.2
  0
VERTEX
  8
0
 10
3.85025
 20
80.6429
 30
0.0
 40
0.2
 41
0.2
  0
SEQEND
 8
0
  0
POLYLINE
  8
0
 62
     0
 66
     1
 10
0
 20
0
 30
0.0
 40
0.566929
 41
0.566929
  0
VERTEX
  8
0
 10
3.85025
 20
80.6429
 30
0.0
 40
0.2
 41
0.2
  0
VERTEX
  8
0
 10
0.850251
 20
80.6429
 30
0.0
 40
0.2
 41
0.2
  0
VERTEX
  8
0
 10
0.832337
 20
80.6429
 30
0.0
 40
0.2
 41
0.2
  0
VERTEX
  8
0
 10
0.778591
 20
80.614
 30
0.0
 40
0.2
 41
0.2
  0
VERTEX
  8
0
 10
0.749653
 20
80.56
 30
0.0
 40
0.2
 41
0.2
  0
VERTEX
  8
0
 10
0.749653
 20
80.5423
 30
0.0
 40
0.2
 41
0.2
  0
SEQEND
 8
0
  0
POLYLINE
  8
0
 62
     0
 66
     1
 10
0
 20
0
 30
0.0
 40
0.566929
 41
0.566929
  0
VERTEX
  8
0
 10
0.749653
 20
80.5423
 30
0.0
 40
0.2
 41
0.2
  0
VERTEX
  8
0
 10
0.749653
 20
73.5418
 30
0.0
 40
0.2
 41
0.2
  0
SEQEND
 8
0
  0
POLYLINE
  8
0
 62
     0
 66
     1
 10
0
 20
0
 30
0.0
 40
0.566929
 41
0.566929
  0
VERTEX
  8
0
 10
0.749653
 20
73.5418
 30
0.0
 40
0.2
 41
0.2
  0
VERTEX
  8
0
 10
0.749653
 20
70.5418
 30
0.0
 40
0.2
 41
0.2
  0
VERTEX
  8
0
 10
0.749653
 20
70.5252
 30
0.0
 40
0.2
 41
0.2
  0
VERTEX
  8
0
 10
0.778591
 20
70.4716
 30
0.0
 40
0.2
 41
0.2
  0
VERTEX
  8
0
 10
0.832337
 20
70.4413
 30
0.0
 40
0.2
 41
0.2
  0
VERTEX
  8
0
 10
0.850251
 20
70.4413
 30
0.0
 40
0.2
 41
0.2
  0
SEQEND
 8
0
  0
POLYLINE
  8
0
 62
     0
 66
     1
 10
0
 20
0
 30
0.0
 40
0.566929
 41
0.566929
  0
VERTEX
  8
0
 10
0.850251
 20
70.4413
 30
0.0
 40
0.2
 41
0.2
  0
VERTEX
  8
0
 10
3.85025
 20
70.4413
 30
0.0
 40
0.2
 41
0.2
  0
SEQEND
 8
0
  0
POLYLINE
  8
0
 62
     0
 66
     1
 10
0
 20
0
 30
0.0
 40
0.566929
 41
0.566929
  0
VERTEX
  8
0
 10
3.85025
 20
131.141
 30
0.0
 40
0.2
 41
0.2
  0
VERTEX
  8
0
 10
15.35
 20
131.141
 30
0.0
 40
0.2
 41
0.2
  0
SEQEND
 8
0
  0
POLYLINE
  8
0
 62
     0
 66
     1
 10
0
 20
0
 30
0.0
 40
0.566929
 41
0.566929
  0
VERTEX
  8
0
 10
15.35
 20
131.141
 30
0.0
 40
0.2
 41
0.2
  0
VERTEX
  8
0
 10
15.332
 20
131.141
 30
0.0
 40
0.2
 41
0.2
  0
VERTEX
  8
0
 10
15.2783
 20
131.171
 30
0.0
 40
0.2
 41
0.2
  0
VERTEX
  8
0
 10
15.2494
 20
131.225
 30
0.0
 40
0.2
 41
0.2
  0
VERTEX
  8
0
 10
15.2494
 20
131.241
 30
0.0
 40
0.2
 41
0.2
  0
SEQEND
 8
0
  0
POLYLINE
  8
0
 62
     0
 66
     1
 10
0
 20
0
 30
0.0
 40
0.566929
 41
0.566929
  0
VERTEX
  8
0
 10
15.2494
 20
131.241
 30
0.0
 40
0.2
 41
0.2
  0
VERTEX
  8
0
 10
15.2494
 20
128.242
 30
0.0
 40
0.2
 41
0.2
  0
VERTEX
  8
0
 10
15.2494
 20
128.225
 30
0.0
 40
0.2
 41
0.2
  0
VERTEX
  8
0
 10
15.2783
 20
128.171
 30
0.0
 40
0.2
 41
0.2
  0
VERTEX
  8
0
 10
15.332
 20
128.141
 30
0.0
 40
0.2
 41
0.2
  0
VERTEX
  8
0
 10
15.35
 20
128.141
 30
0.0
 40
0.2
 41
0.2
  0
SEQEND
 8
0
  0
POLYLINE
  8
0
 62
     0
 66
     1
 10
0
 20
0
 30
0.0
 40
0.566929
 41
0.566929
  0
VERTEX
  8
0
 10
15.35
 20
128.141
 30
0.0
 40
0.2
 41
0.2
  0
VERTEX
  8
0
 10
30.3499
 20
128.141
 30
0.0
 40
0.2
 41
0.2
  0
VERTEX
  8
0
 10
30.3664
 20
128.141
 30
0.0
 40
0.2
 41
0.2
  0
VERTEX
  8
0
 10
30.4202
 20
128.171
 30
0.0
 40
0.2
 41
0.2
  0
VERTEX
  8
0
 10
30.4505
 20
128.225
 30
0.0
 40
0.2
 41
0.2
  0
VERTEX
  8
0
 10
30.4505
 20
128.242
 30
0.0
 40
0.2
 41
0.2
  0
SEQEND
 8
0
  0
POLYLINE
  8
0
 62
     0
 66
     1
 10
0
 20
0
 30
0.0
 40
0.566929
 41
0.566929
  0
VERTEX
  8
0
 10
30.4505
 20
128.242
 30
0.0
 40
0.2
 41
0.2
  0
VERTEX
  8
0
 10
30.4505
 20
131.241
 30
0.0
 40
0.2
 41
0.2
  0
VERTEX
  8
0
 10
30.4505
 20
131.225
 30
0.0
 40
0.2
 41
0.2
  0
VERTEX
  8
0
 10
30.4202
 20
131.171
 30
0.0
 40
0.2
 41
0.2
  0
VERTEX
  8
0
 10
30.3664
 20
131.141
 30
0.0
 40
0.2
 41
0.2
  0
VERTEX
  8
0
 10
30.3499
 20
131.141
 30
0.0
 40
0.2
 41
0.2
  0
SEQEND
 8
0
  0
POLYLINE
  8
0
 62
     0
 66
     1
 10
0
 20
0
 30
0.0
 40
0.566929
 41
0.566929
  0
VERTEX
  8
0
 10
30.3499
 20
131.141
 30
0.0
 40
0.2
 41
0.2
  0
VERTEX
  8
0
 10
36.3499
 20
131.141
 30
0.0
 40
0.2
 41
0.2
  0
SEQEND
 8
0
  0
POLYLINE
  8
0
 62
     0
 66
     1
 10
0
 20
0
 30
0.0
 40
0.566929
 41
0.566929
  0
VERTEX
  8
0
 10
36.3499
 20
131.141
 30
0.0
 40
0.2
 41
0.2
  0
VERTEX
  8
0
 10
36.3319
 20
131.141
 30
0.0
 40
0.2
 41
0.2
  0
VERTEX
  8
0
 10
36.2783
 20
131.171
 30
0.0
 40
0.2
 41
0.2
  0
VERTEX
  8
0
 10
36.2493
 20
131.225
 30
0.0
 40
0.2
 41
0.2
  0
VERTEX
  8
0
 10
36.2493
 20
131.241
 30
0.0
 40
0.2
 41
0.2
  0
SEQEND
 8
0
  0
POLYLINE
  8
0
 62
     0
 66
     1
 10
0
 20
0
 30
0.0
 40
0.566929
 41
0.566929
  0
VERTEX
  8
0
 10
36.2493
 20
131.241
 30
0.0
 40
0.2
 41
0.2
  0
VERTEX
  8
0
 10
36.2493
 20
128.242
 30
0.0
 40
0.2
 41
0.2
  0
VERTEX
  8
0
 10
36.2493
 20
128.225
 30
0.0
 40
0.2
 41
0.2
  0
VERTEX
  8
0
 10
36.2783
 20
128.171
 30
0.0
 40
0.2
 41
0.2
  0
VERTEX
  8
0
 10
36.3319
 20
128.141
 30
0.0
 40
0.2
 41
0.2
  0
VERTEX
  8
0
 10
36.3499
 20
128.141
 30
0.0
 40
0.2
 41
0.2
  0
SEQEND
 8
0
  0
POLYLINE
  8
0
 62
     0
 66
     1
 10
0
 20
0
 30
0.0
 40
0.566929
 41
0.566929
  0
VERTEX
  8
0
 10
36.3499
 20
128.141
 30
0.0
 40
0.2
 41
0.2
  0
VERTEX
  8
0
 10
51.35
 20
128.141
 30
0.0
 40
0.2
 41
0.2
  0
VERTEX
  8
0
 10
51.3662
 20
128.141
 30
0.0
 40
0.2
 41
0.2
  0
VERTEX
  8
0
 10
51.4202
 20
128.171
 30
0.0
 40
0.2
 41
0.2
  0
VERTEX
  8
0
 10
51.4505
 20
128.225
 30
0.0
 40
0.2
 41
0.2
  0
VERTEX
  8
0
 10
51.4505
 20
128.242
 30
0.0
 40
0.2
 41
0.2
  0
SEQEND
 8
0
  0
POLYLINE
  8
0
 62
     0
 66
     1
 10
0
 20
0
 30
0.0
 40
0.566929
 41
0.566929
  0
VERTEX
  8
0
 10
51.4505
 20
128.242
 30
0.0
 40
0.2
 41
0.2
  0
VERTEX
  8
0
 10
51.4505
 20
131.241
 30
0.0
 40
0.2
 41
0.2
  0
VERTEX
  8
0
 10
51.4505
 20
131.225
 30
0.0
 40
0.2
 41
0.2
  0
VERTEX
  8
0
 10
51.4202
 20
131.171
 30
0.0
 40
0.2
 41
0.2
  0
VERTEX
  8
0
 10
51.3662
 20
131.141
 30
0.0
 40
0.2
 41
0.2
  0
VERTEX
  8
0
 10
51.35
 20
131.141
 30
0.0
 40
0.2
 41
0.2
  0
SEQEND
 8
0
  0
POLYLINE
  8
0
 62
     0
 66
     1
 10
0
 20
0
 30
0.0
 40
0.566929
 41
0.566929
  0
VERTEX
  8
0
 10
51.35
 20
131.141
 30
0.0
 40
0.2
 41
0.2
  0
VERTEX
  8
0
 10
57.3497
 20
131.141
 30
0.0
 40
0.2
 41
0.2
  0
SEQEND
 8
0
  0
POLYLINE
  8
0
 62
     0
 66
     1
 10
0
 20
0
 30
0.0
 40
0.566929
 41
0.566929
  0
VERTEX
  8
0
 10
57.3497
 20
131.141
 30
0.0
 40
0.2
 41
0.2
  0
VERTEX
  8
0
 10
57.332
 20
131.141
 30
0.0
 40
0.2
 41
0.2
  0
VERTEX
  8
0
 10
57.2781
 20
131.171
 30
0.0
 40
0.2
 41
0.2
  0
VERTEX
  8
0
 10
57.2491
 20
131.225
 30
0.0
 40
0.2
 41
0.2
  0
VERTEX
  8
0
 10
57.2491
 20
131.241
 30
0.0
 40
0.2
 41
0.2
  0
SEQEND
 8
0
  0
POLYLINE
  8
0
 62
     0
 66
     1
 10
0
 20
0
 30
0.0
 40
0.566929
 41
0.566929
  0
VERTEX
  8
0
 10
57.2491
 20
131.241
 30
0.0
 40
0.2
 41
0.2
  0
VERTEX
  8
0
 10
57.2491
 20
128.242
 30
0.0
 40
0.2
 41
0.2
  0
VERTEX
  8
0
 10
57.2491
 20
128.225
 30
0.0
 40
0.2
 41
0.2
  0
VERTEX
  8
0
 10
57.2781
 20
128.171
 30
0.0
 40
0.2
 41
0.2
  0
VERTEX
  8
0
 10
57.332
 20
128.141
 30
0.0
 40
0.2
 41
0.2
  0
VERTEX
  8
0
 10
57.3497
 20
128.141
 30
0.0
 40
0.2
 41
0.2
  0
SEQEND
 8
0
  0
POLYLINE
  8
0
 62
     0
 66
     1
 10
0
 20
0
 30
0.0
 40
0.566929
 41
0.566929
  0
VERTEX
  8
0
 10
57.3497
 20
128.141
 30
0.0
 40
0.2
 41
0.2
  0
VERTEX
  8
0
 10
72.3498
 20
128.141
 30
0.0
 40
0.2
 41
0.2
  0
VERTEX
  8
0
 10
72.3664
 20
128.141
 30
0.0
 40
0.2
 41
0.2
  0
VERTEX
  8
0
 10
72.42
 20
128.171
 30
0.0
 40
0.2
 41
0.2
  0
VERTEX
  8
0
 10
72.4503
 20
128.225
 30
0.0
 40
0.2
 41
0.2
  0
VERTEX
  8
0
 10
72.4503
 20
128.242
 30
0.0
 40
0.2
 41
0.2
  0
SEQEND
 8
0
  0
POLYLINE
  8
0
 62
     0
 66
     1
 10
0
 20
0
 30
0.0
 40
0.566929
 41
0.566929
  0
VERTEX
  8
0
 10
72.4503
 20
128.242
 30
0.0
 40
0.2
 41
0.2
  0
VERTEX
  8
0
 10
72.4503
 20
131.241
 30
0.0
 40
0.2
 41
0.2
  0
VERTEX
  8
0
 10
72.4503
 20
131.225
 30
0.0
 40
0.2
 41
0.2
  0
VERTEX
  8
0
 10
72.42
 20
131.171
 30
0.0
 40
0.2
 41
0.2
  0
VERTEX
  8
0
 10
72.3664
 20
131.141
 30
0.0
 40
0.2
 41
0.2
  0
VERTEX
  8
0
 10
72.3498
 20
131.141
 30
0.0
 40
0.2
 41
0.2
  0
SEQEND
 8
0
  0
POLYLINE
  8
0
 62
     0
 66
     1
 10
0
 20
0
 30
0.0
 40
0.566929
 41
0.566929
  0
VERTEX
  8
0
 10
72.3498
 20
131.141
 30
0.0
 40
0.2
 41
0.2
  0
VERTEX
  8
0
 10
83.8496
 20
131.141
 30
0.0
 40
0.2
 41
0.2
  0
SEQEND
 8
0
  0
POLYLINE
  8
0
 62
     0
 66
     1
 10
0
 20
0
 30
0.0
 40
0.566929
 41
0.566929
  0
VERTEX
  8
0
 10
83.8496
 20
131.141
 30
0.0
 40
0.2
 41
0.2
  0
VERTEX
  8
0
 10
83.8659
 20
131.141
 30
0.0
 40
0.2
 41
0.2
  0
VERTEX
  8
0
 10
83.9198
 20
131.171
 30
0.0
 40
0.2
 41
0.2
  0
VERTEX
  8
0
 10
83.9502
 20
131.225
 30
0.0
 40
0.2
 41
0.2
  0
VERTEX
  8
0
 10
83.9502
 20
131.241
 30
0.0
 40
0.2
 41
0.2
  0
SEQEND
 8
0
  0
POLYLINE
  8
0
 62
     0
 66
     1
 10
0
 20
0
 30
0.0
 40
0.566929
 41
0.566929
  0
VERTEX
  8
0
 10
83.9502
 20
131.241
 30
0.0
 40
0.2
 41
0.2
  0
VERTEX
  8
0
 10
83.9502
 20
142.741
 30
0.0
 40
0.2
 41
0.2
  0
SEQEND
 8
0
  0
POLYLINE
  8
0
 62
     0
 66
     1
 10
0
 20
0
 30
0.0
 40
0.566929
 41
0.566929
  0
VERTEX
  8
0
 10
83.9502
 20
142.741
 30
0.0
 40
0.2
 41
0.2
  0
VERTEX
  8
0
 10
83.9502
 20
142.725
 30
0.0
 40
0.2
 41
0.2
  0
VERTEX
  8
0
 10
83.9198
 20
142.671
 30
0.0
 40
0.2
 41
0.2
  0
VERTEX
  8
0
 10
83.8659
 20
142.641
 30
0.0
 40
0.2
 41
0.2
  0
VERTEX
  8
0
 10
83.8496
 20
142.641
 30
0.0
 40
0.2
 41
0.2
  0
SEQEND
 8
0
  0
POLYLINE
  8
0
 62
     0
 66
     1
 10
0
 20
0
 30
0.0
 40
0.566929
 41
0.566929
  0
VERTEX
  8
0
 10
83.8496
 20
142.641
 30
0.0
 40
0.2
 41
0.2
  0
VERTEX
  8
0
 10
86.8497
 20
142.641
 30
0.0
 40
0.2
 41
0.2
  0
VERTEX
  8
0
 10
86.8659
 20
142.641
 30
0.0
 40
0.2
 41
0.2
  0
VERTEX
  8
0
 10
86.9199
 20
142.671
 30
0.0
 40
0.2
 41
0.2
  0
VERTEX
  8
0
 10
86.9502
 20
142.725
 30
0.0
 40
0.2
 41
0.2
  0
VERTEX
  8
0
 10
86.9502
 20
142.741
 30
0.0
 40
0.2
 41
0.2
  0
SEQEND
 8
0
  0
POLYLINE
  8
0
 62
     0
 66
     1
 10
0
 20
0
 30
0.0
 40
0.566929
 41
0.566929
  0
VERTEX
  8
0
 10
86.9502
 20
142.741
 30
0.0
 40
0.2
 41
0.2
  0
VERTEX
  8
0
 10
86.9502
 20
157.741
 30
0.0
 40
0.2
 41
0.2
  0
VERTEX
  8
0
 10
86.9502
 20
157.759
 30
0.0
 40
0.2
 41
0.2
  0
VERTEX
  8
0
 10
86.9199
 20
157.813
 30
0.0
 40
0.2
 41
0.2
  0
VERTEX
  8
0
 10
86.8659
 20
157.842
 30
0.0
 40
0.2
 41
0.2
  0
VERTEX
  8
0
 10
86.8497
 20
157.842
 30
0.0
 40
0.2
 41
0.2
  0
SEQEND
 8
0
  0
POLYLINE
  8
0
 62
     0
 66
     1
 10
0
 20
0
 30
0.0
 40
0.566929
 41
0.566929
  0
VERTEX
  8
0
 10
86.8497
 20
157.842
 30
0.0
 40
0.2
 41
0.2
  0
VERTEX
  8
0
 10
83.8496
 20
157.842
 30
0.0
 40
0.2
 41
0.2
  0
VERTEX
  8
0
 10
83.8659
 20
157.842
 30
0.0
 40
0.2
 41
0.2
  0
VERTEX
  8
0
 10
83.9198
 20
157.813
 30
0.0
 40
0.2
 41
0.2
  0
VERTEX
  8
0
 10
83.9502
 20
157.759
 30
0.0
 40
0.2
 41
0.2
  0
VERTEX
  8
0
 10
83.9502
 20
157.741
 30
0.0
 40
0.2
 41
0.2
  0
SEQEND
 8
0
  0
POLYLINE
  8
0
 62
     0
 66
     1
 10
0
 20
0
 30
0.0
 40
0.566929
 41
0.566929
  0
VERTEX
  8
0
 10
83.9502
 20
157.741
 30
0.0
 40
0.2
 41
0.2
  0
VERTEX
  8
0
 10
83.9502
 20
163.741
 30
0.0
 40
0.2
 41
0.2
  0
SEQEND
 8
0
  0
POLYLINE
  8
0
 62
     0
 66
     1
 10
0
 20
0
 30
0.0
 40
0.566929
 41
0.566929
  0
VERTEX
  8
0
 10
83.9502
 20
163.741
 30
0.0
 40
0.2
 41
0.2
  0
VERTEX
  8
0
 10
83.9502
 20
163.725
 30
0.0
 40
0.2
 41
0.2
  0
VERTEX
  8
0
 10
83.9198
 20
163.671
 30
0.0
 40
0.2
 41
0.2
  0
VERTEX
  8
0
 10
83.8659
 20
163.641
 30
0.0
 40
0.2
 41
0.2
  0
VERTEX
  8
0
 10
83.8496
 20
163.641
 30
0.0
 40
0.2
 41
0.2
  0
SEQEND
 8
0
  0
POLYLINE
  8
0
 62
     0
 66
     1
 10
0
 20
0
 30
0.0
 40
0.566929
 41
0.566929
  0
VERTEX
  8
0
 10
83.8496
 20
163.641
 30
0.0
 40
0.2
 41
0.2
  0
VERTEX
  8
0
 10
86.8497
 20
163.641
 30
0.0
 40
0.2
 41
0.2
  0
VERTEX
  8
0
 10
86.8659
 20
163.641
 30
0.0
 40
0.2
 41
0.2
  0
VERTEX
  8
0
 10
86.9199
 20
163.671
 30
0.0
 40
0.2
 41
0.2
  0
VERTEX
  8
0
 10
86.9502
 20
163.725
 30
0.0
 40
0.2
 41
0.2
  0
VERTEX
  8
0
 10
86.9502
 20
163.741
 30
0.0
 40
0.2
 41
0.2
  0
SEQEND
 8
0
  0
POLYLINE
  8
0
 62
     0
 66
     1
 10
0
 20
0
 30
0.0
 40
0.566929
 41
0.566929
  0
VERTEX
  8
0
 10
86.9502
 20
163.741
 30
0.0
 40
0.2
 41
0.2
  0
VERTEX
  8
0
 10
86.9502
 20
178.741
 30
0.0
 40
0.2
 41
0.2
  0
VERTEX
  8
0
 10
86.9502
 20
178.759
 30
0.0
 40
0.2
 41
0.2
  0
VERTEX
  8
0
 10
86.9199
 20
178.813
 30
0.0
 40
0.2
 41
0.2
  0
VERTEX
  8
0
 10
86.8659
 20
178.842
 30
0.0
 40
0.2
 41
0.2
  0
VERTEX
  8
0
 10
86.8497
 20
178.842
 30
0.0
 40
0.2
 41
0.2
  0
SEQEND
 8
0
  0
POLYLINE
  8
0
 62
     0
 66
     1
 10
0
 20
0
 30
0.0
 40
0.566929
 41
0.566929
  0
VERTEX
  8
0
 10
86.8497
 20
178.842
 30
0.0
 40
0.2
 41
0.2
  0
VERTEX
  8
0
 10
83.8496
 20
178.842
 30
0.0
 40
0.2
 41
0.2
  0
VERTEX
  8
0
 10
83.8659
 20
178.842
 30
0.0
 40
0.2
 41
0.2
  0
VERTEX
  8
0
 10
83.9198
 20
178.813
 30
0.0
 40
0.2
 41
0.2
  0
VERTEX
  8
0
 10
83.9502
 20
178.759
 30
0.0
 40
0.2
 41
0.2
  0
VERTEX
  8
0
 10
83.9502
 20
178.741
 30
0.0
 40
0.2
 41
0.2
  0
SEQEND
 8
0
  0
POLYLINE
  8
0
 62
     0
 66
     1
 10
0
 20
0
 30
0.0
 40
0.566929
 41
0.566929
  0
VERTEX
  8
0
 10
83.9502
 20
178.741
 30
0.0
 40
0.2
 41
0.2
  0
VERTEX
  8
0
 10
83.9502
 20
184.741
 30
0.0
 40
0.2
 41
0.2
  0
SEQEND
 8
0
  0
POLYLINE
  8
0
 62
     0
 66
     1
 10
0
 20
0
 30
0.0
 40
0.566929
 41
0.566929
  0
VERTEX
  8
0
 10
83.9502
 20
184.741
 30
0.0
 40
0.2
 41
0.2
  0
VERTEX
  8
0
 10
83.9502
 20
184.725
 30
0.0
 40
0.2
 41
0.2
  0
VERTEX
  8
0
 10
83.9198
 20
184.671
 30
0.0
 40
0.2
 41
0.2
  0
VERTEX
  8
0
 10
83.8659
 20
184.641
 30
0.0
 40
0.2
 41
0.2
  0
VERTEX
  8
0
 10
83.8496
 20
184.641
 30
0.0
 40
0.2
 41
0.2
  0
SEQEND
 8
0
  0
POLYLINE
  8
0
 62
     0
 66
     1
 10
0
 20
0
 30
0.0
 40
0.566929
 41
0.566929
  0
VERTEX
  8
0
 10
83.8496
 20
184.641
 30
0.0
 40
0.2
 41
0.2
  0
VERTEX
  8
0
 10
86.8497
 20
184.641
 30
0.0
 40
0.2
 41
0.2
  0
VERTEX
  8
0
 10
86.8659
 20
184.641
 30
0.0
 40
0.2
 41
0.2
  0
VERTEX
  8
0
 10
86.9199
 20
184.671
 30
0.0
 40
0.2
 41
0.2
  0
VERTEX
  8
0
 10
86.9502
 20
184.725
 30
0.0
 40
0.2
 41
0.2
  0
VERTEX
  8
0
 10
86.9502
 20
184.741
 30
0.0
 40
0.2
 41
0.2
  0
SEQEND
 8
0
  0
POLYLINE
  8
0
 62
     0
 66
     1
 10
0
 20
0
 30
0.0
 40
0.566929
 41
0.566929
  0
VERTEX
  8
0
 10
86.9502
 20
184.741
 30
0.0
 40
0.2
 41
0.2
  0
VERTEX
  8
0
 10
86.9502
 20
199.741
 30
0.0
 40
0.2
 41
0.2
  0
VERTEX
  8
0
 10
86.9502
 20
199.759
 30
0.0
 40
0.2
 41
0.2
  0
VERTEX
  8
0
 10
86.9199
 20
199.813
 30
0.0
 40
0.2
 41
0.2
  0
VERTEX
  8
0
 10
86.8659
 20
199.842
 30
0.0
 40
0.2
 41
0.2
  0
VERTEX
  8
0
 10
86.8497
 20
199.842
 30
0.0
 40
0.2
 41
0.2
  0
SEQEND
 8
0
  0
POLYLINE
  8
0
 62
     0
 66
     1
 10
0
 20
0
 30
0.0
 40
0.566929
 41
0.566929
  0
VERTEX
  8
0
 10
86.8497
 20
199.842
 30
0.0
 40
0.2
 41
0.2
  0
VERTEX
  8
0
 10
83.8496
 20
199.842
 30
0.0
 40
0.2
 41
0.2
  0
VERTEX
  8
0
 10
83.8659
 20
199.842
 30
0.0
 40
0.2
 41
0.2
  0
VERTEX
  8
0
 10
83.9198
 20
199.813
 30
0.0
 40
0.2
 41
0.2
  0
VERTEX
  8
0
 10
83.9502
 20
199.759
 30
0.0
 40
0.2
 41
0.2
  0
VERTEX
  8
0
 10
83.9502
 20
199.741
 30
0.0
 40
0.2
 41
0.2
  0
SEQEND
 8
0
  0
POLYLINE
  8
0
 62
     0
 66
     1
 10
0
 20
0
 30
0.0
 40
0.566929
 41
0.566929
  0
VERTEX
  8
0
 10
83.9502
 20
199.741
 30
0.0
 40
0.2
 41
0.2
  0
VERTEX
  8
0
 10
83.9502
 20
211.241
 30
0.0
 40
0.2
 41
0.2
  0
SEQEND
 8
0
  0
POLYLINE
  8
0
 62
     0
 66
     1
 10
0
 20
0
 30
0.0
 40
0.566929
 41
0.566929
  0
VERTEX
  8
0
 10
83.9502
 20
211.241
 30
0.0
 40
0.2
 41
0.2
  0
VERTEX
  8
0
 10
83.9502
 20
211.259
 30
0.0
 40
0.2
 41
0.2
  0
VERTEX
  8
0
 10
83.9198
 20
211.312
 30
0.0
 40
0.2
 41
0.2
  0
VERTEX
  8
0
 10
83.8659
 20
211.341
 30
0.0
 40
0.2
 41
0.2
  0
VERTEX
  8
0
 10
83.8496
 20
211.341
 30
0.0
 40
0.2
 41
0.2
  0
SEQEND
 8
0
  0
POLYLINE
  8
0
 62
     0
 66
     1
 10
0
 20
0
 30
0.0
 40
0.566929
 41
0.566929
  0
VERTEX
  8
0
 10
83.8496
 20
211.341
 30
0.0
 40
0.2
 41
0.2
  0
VERTEX
  8
0
 10
72.3498
 20
211.341
 30
0.0
 40
0.2
 41
0.2
  0
SEQEND
 8
0
  0
POLYLINE
  8
0
 62
     0
 66
     1
 10
0
 20
0
 30
0.0
 40
0.566929
 41
0.566929
  0
VERTEX
  8
0
 10
72.3498
 20
211.341
 30
0.0
 40
0.2
 41
0.2
  0
VERTEX
  8
0
 10
72.3664
 20
211.341
 30
0.0
 40
0.2
 41
0.2
  0
VERTEX
  8
0
 10
72.42
 20
211.312
 30
0.0
 40
0.2
 41
0.2
  0
VERTEX
  8
0
 10
72.4503
 20
211.259
 30
0.0
 40
0.2
 41
0.2
  0
VERTEX
  8
0
 10
72.4503
 20
211.241
 30
0.0
 40
0.2
 41
0.2
  0
SEQEND
 8
0
  0
POLYLINE
  8
0
 62
     0
 66
     1
 10
0
 20
0
 30
0.0
 40
0.566929
 41
0.566929
  0
VERTEX
  8
0
 10
72.4503
 20
211.241
 30
0.0
 40
0.2
 41
0.2
  0
VERTEX
  8
0
 10
72.4503
 20
214.241
 30
0.0
 40
0.2
 41
0.2
  0
VERTEX
  8
0
 10
72.4503
 20
214.259
 30
0.0
 40
0.2
 41
0.2
  0
VERTEX
  8
0
 10
72.42
 20
214.313
 30
0.0
 40
0.2
 41
0.2
  0
VERTEX
  8
0
 10
72.3664
 20
214.341
 30
0.0
 40
0.2
 41
0.2
  0
VERTEX
  8
0
 10
72.3498
 20
214.341
 30
0.0
 40
0.2
 41
0.2
  0
SEQEND
 8
0
  0
POLYLINE
  8
0
 62
     0
 66
     1
 10
0
 20
0
 30
0.0
 40
0.566929
 41
0.566929
  0
VERTEX
  8
0
 10
72.3498
 20
214.341
 30
0.0
 40
0.2
 41
0.2
  0
VERTEX
  8
0
 10
57.3497
 20
214.341
 30
0.0
 40
0.2
 41
0.2
  0
VERTEX
  8
0
 10
57.332
 20
214.341
 30
0.0
 40
0.2
 41
0.2
  0
VERTEX
  8
0
 10
57.2781
 20
214.313
 30
0.0
 40
0.2
 41
0.2
  0
VERTEX
  8
0
 10
57.2491
 20
214.259
 30
0.0
 40
0.2
 41
0.2
  0
VERTEX
  8
0
 10
57.2491
 20
214.241
 30
0.0
 40
0.2
 41
0.2
  0
SEQEND
 8
0
  0
POLYLINE
  8
0
 62
     0
 66
     1
 10
0
 20
0
 30
0.0
 40
0.566929
 41
0.566929
  0
VERTEX
  8
0
 10
57.2491
 20
214.241
 30
0.0
 40
0.2
 41
0.2
  0
VERTEX
  8
0
 10
57.2491
 20
211.241
 30
0.0
 40
0.2
 41
0.2
  0
VERTEX
  8
0
 10
57.2491
 20
211.259
 30
0.0
 40
0.2
 41
0.2
  0
VERTEX
  8
0
 10
57.2781
 20
211.312
 30
0.0
 40
0.2
 41
0.2
  0
VERTEX
  8
0
 10
57.332
 20
211.341
 30
0.0
 40
0.2
 41
0.2
  0
VERTEX
  8
0
 10
57.3497
 20
211.341
 30
0.0
 40
0.2
 41
0.2
  0
SEQEND
 8
0
  0
POLYLINE
  8
0
 62
     0
 66
     1
 10
0
 20
0
 30
0.0
 40
0.566929
 41
0.566929
  0
VERTEX
  8
0
 10
57.3497
 20
211.341
 30
0.0
 40
0.2
 41
0.2
  0
VERTEX
  8
0
 10
51.35
 20
211.341
 30
0.0
 40
0.2
 41
0.2
  0
SEQEND
 8
0
  0
POLYLINE
  8
0
 62
     0
 66
     1
 10
0
 20
0
 30
0.0
 40
0.566929
 41
0.566929
  0
VERTEX
  8
0
 10
51.35
 20
211.341
 30
0.0
 40
0.2
 41
0.2
  0
VERTEX
  8
0
 10
51.3662
 20
211.341
 30
0.0
 40
0.2
 41
0.2
  0
VERTEX
  8
0
 10
51.4202
 20
211.312
 30
0.0
 40
0.2
 41
0.2
  0
VERTEX
  8
0
 10
51.4505
 20
211.259
 30
0.0
 40
0.2
 41
0.2
  0
VERTEX
  8
0
 10
51.4505
 20
211.241
 30
0.0
 40
0.2
 41
0.2
  0
SEQEND
 8
0
  0
POLYLINE
  8
0
 62
     0
 66
     1
 10
0
 20
0
 30
0.0
 40
0.566929
 41
0.566929
  0
VERTEX
  8
0
 10
51.4505
 20
211.241
 30
0.0
 40
0.2
 41
0.2
  0
VERTEX
  8
0
 10
51.4505
 20
214.241
 30
0.0
 40
0.2
 41
0.2
  0
VERTEX
  8
0
 10
51.4505
 20
214.259
 30
0.0
 40
0.2
 41
0.2
  0
VERTEX
  8
0
 10
51.4202
 20
214.313
 30
0.0
 40
0.2
 41
0.2
  0
VERTEX
  8
0
 10
51.3662
 20
214.341
 30
0.0
 40
0.2
 41
0.2
  0
VERTEX
  8
0
 10
51.35
 20
214.341
 30
0.0
 40
0.2
 41
0.2
  0
SEQEND
 8
0
  0
POLYLINE
  8
0
 62
     0
 66
     1
 10
0
 20
0
 30
0.0
 40
0.566929
 41
0.566929
  0
VERTEX
  8
0
 10
51.35
 20
214.341
 30
0.0
 40
0.2
 41
0.2
  0
VERTEX
  8
0
 10
36.3499
 20
214.341
 30
0.0
 40
0.2
 41
0.2
  0
VERTEX
  8
0
 10
36.3319
 20
214.341
 30
0.0
 40
0.2
 41
0.2
  0
VERTEX
  8
0
 10
36.2783
 20
214.313
 30
0.0
 40
0.2
 41
0.2
  0
VERTEX
  8
0
 10
36.2493
 20
214.259
 30
0.0
 40
0.2
 41
0.2
  0
VERTEX
  8
0
 10
36.2493
 20
214.241
 30
0.0
 40
0.2
 41
0.2
  0
SEQEND
 8
0
  0
POLYLINE
  8
0
 62
     0
 66
     1
 10
0
 20
0
 30
0.0
 40
0.566929
 41
0.566929
  0
VERTEX
  8
0
 10
36.2493
 20
214.241
 30
0.0
 40
0.2
 41
0.2
  0
VERTEX
  8
0
 10
36.2493
 20
211.241
 30
0.0
 40
0.2
 41
0.2
  0
VERTEX
  8
0
 10
36.2493
 20
211.259
 30
0.0
 40
0.2
 41
0.2
  0
VERTEX
  8
0
 10
36.2783
 20
211.312
 30
0.0
 40
0.2
 41
0.2
  0
VERTEX
  8
0
 10
36.3319
 20
211.341
 30
0.0
 40
0.2
 41
0.2
  0
VERTEX
  8
0
 10
36.3499
 20
211.341
 30
0.0
 40
0.2
 41
0.2
  0
SEQEND
 8
0
  0
POLYLINE
  8
0
 62
     0
 66
     1
 10
0
 20
0
 30
0.0
 40
0.566929
 41
0.566929
  0
VERTEX
  8
0
 10
36.3499
 20
211.341
 30
0.0
 40
0.2
 41
0.2
  0
VERTEX
  8
0
 10
30.3499
 20
211.341
 30
0.0
 40
0.2
 41
0.2
  0
SEQEND
 8
0
  0
POLYLINE
  8
0
 62
     0
 66
     1
 10
0
 20
0
 30
0.0
 40
0.566929
 41
0.566929
  0
VERTEX
  8
0
 10
30.3499
 20
211.341
 30
0.0
 40
0.2
 41
0.2
  0
VERTEX
  8
0
 10
30.3664
 20
211.341
 30
0.0
 40
0.2
 41
0.2
  0
VERTEX
  8
0
 10
30.4202
 20
211.312
 30
0.0
 40
0.2
 41
0.2
  0
VERTEX
  8
0
 10
30.4505
 20
211.259
 30
0.0
 40
0.2
 41
0.2
  0
VERTEX
  8
0
 10
30.4505
 20
211.241
 30
0.0
 40
0.2
 41
0.2
  0
SEQEND
 8
0
  0
POLYLINE
  8
0
 62
     0
 66
     1
 10
0
 20
0
 30
0.0
 40
0.566929
 41
0.566929
  0
VERTEX
  8
0
 10
30.4505
 20
211.241
 30
0.0
 40
0.2
 41
0.2
  0
VERTEX
  8
0
 10
30.4505
 20
214.241
 30
0.0
 40
0.2
 41
0.2
  0
VERTEX
  8
0
 10
30.4505
 20
214.259
 30
0.0
 40
0.2
 41
0.2
  0
VERTEX
  8
0
 10
30.4202
 20
214.313
 30
0.0
 40
0.2
 41
0.2
  0
VERTEX
  8
0
 10
30.3664
 20
214.341
 30
0.0
 40
0.2
 41
0.2
  0
VERTEX
  8
0
 10
30.3499
 20
214.341
 30
0.0
 40
0.2
 41
0.2
  0
SEQEND
 8
0
  0
POLYLINE
  8
0
 62
     0
 66
     1
 10
0
 20
0
 30
0.0
 40
0.566929
 41
0.566929
  0
VERTEX
  8
0
 10
30.3499
 20
214.341
 30
0.0
 40
0.2
 41
0.2
  0
VERTEX
  8
0
 10
15.35
 20
214.341
 30
0.0
 40
0.2
 41
0.2
  0
VERTEX
  8
0
 10
15.332
 20
214.341
 30
0.0
 40
0.2
 41
0.2
  0
VERTEX
  8
0
 10
15.2783
 20
214.313
 30
0.0
 40
0.2
 41
0.2
  0
VERTEX
  8
0
 10
15.2494
 20
214.259
 30
0.0
 40
0.2
 41
0.2
  0
VERTEX
  8
0
 10
15.2494
 20
214.241
 30
0.0
 40
0.2
 41
0.2
  0
SEQEND
 8
0
  0
POLYLINE
  8
0
 62
     0
 66
     1
 10
0
 20
0
 30
0.0
 40
0.566929
 41
0.566929
  0
VERTEX
  8
0
 10
15.2494
 20
214.241
 30
0.0
 40
0.2
 41
0.2
  0
VERTEX
  8
0
 10
15.2494
 20
211.241
 30
0.0
 40
0.2
 41
0.2
  0
VERTEX
  8
0
 10
15.2494
 20
211.259
 30
0.0
 40
0.2
 41
0.2
  0
VERTEX
  8
0
 10
15.2783
 20
211.312
 30
0.0
 40
0.2
 41
0.2
  0
VERTEX
  8
0
 10
15.332
 20
211.341
 30
0.0
 40
0.2
 41
0.2
  0
VERTEX
  8
0
 10
15.35
 20
211.341
 30
0.0
 40
0.2
 41
0.2
  0
SEQEND
 8
0
  0
POLYLINE
  8
0
 62
     0
 66
     1
 10
0
 20
0
 30
0.0
 40
0.566929
 41
0.566929
  0
VERTEX
  8
0
 10
15.35
 20
211.341
 30
0.0
 40
0.2
 41
0.2
  0
VERTEX
  8
0
 10
3.85025
 20
211.341
 30
0.0
 40
0.2
 41
0.2
  0
SEQEND
 8
0
  0
POLYLINE
  8
0
 62
     0
 66
     1
 10
0
 20
0
 30
0.0
 40
0.566929
 41
0.566929
  0
VERTEX
  8
0
 10
3.85025
 20
211.341
 30
0.0
 40
0.2
 41
0.2
  0
VERTEX
  8
0
 10
3.83233
 20
211.341
 30
0.0
 40
0.2
 41
0.2
  0
VERTEX
  8
0
 10
3.77857
 20
211.312
 30
0.0
 40
0.2
 41
0.2
  0
VERTEX
  8
0
 10
3.74964
 20
211.259
 30
0.0
 40
0.2
 41
0.2
  0
VERTEX
  8
0
 10
3.74964
 20
211.241
 30
0.0
 40
0.2
 41
0.2
  0
SEQEND
 8
0
  0
POLYLINE
  8
0
 62
     0
 66
     1
 10
0
 20
0
 30
0.0
 40
0.566929
 41
0.566929
  0
VERTEX
  8
0
 10
3.74964
 20
211.241
 30
0.0
 40
0.2
 41
0.2
  0
VERTEX
  8
0
 10
3.74964
 20
199.741
 30
0.0
 40
0.2
 41
0.2
  0
SEQEND
 8
0
  0
POLYLINE
  8
0
 62
     0
 66
     1
 10
0
 20
0
 30
0.0
 40
0.566929
 41
0.566929
  0
VERTEX
  8
0
 10
3.74964
 20
199.741
 30
0.0
 40
0.2
 41
0.2
  0
VERTEX
  8
0
 10
3.74964
 20
199.759
 30
0.0
 40
0.2
 41
0.2
  0
VERTEX
  8
0
 10
3.77857
 20
199.813
 30
0.0
 40
0.2
 41
0.2
  0
VERTEX
  8
0
 10
3.83233
 20
199.842
 30
0.0
 40
0.2
 41
0.2
  0
VERTEX
  8
0
 10
3.85025
 20
199.842
 30
0.0
 40
0.2
 41
0.2
  0
SEQEND
 8
0
  0
POLYLINE
  8
0
 62
     0
 66
     1
 10
0
 20
0
 30
0.0
 40
0.566929
 41
0.566929
  0
VERTEX
  8
0
 10
3.85025
 20
199.842
 30
0.0
 40
0.2
 41
0.2
  0
VERTEX
  8
0
 10
0.850251
 20
199.842
 30
0.0
 40
0.2
 41
0.2
  0
VERTEX
  8
0
 10
0.832337
 20
199.842
 30
0.0
 40
0.2
 41
0.2
  0
VERTEX
  8
0
 10
0.778591
 20
199.813
 30
0.0
 40
0.2
 41
0.2
  0
VERTEX
  8
0
 10
0.749653
 20
199.759
 30
0.0
 40
0.2
 41
0.2
  0
VERTEX
  8
0
 10
0.749653
 20
199.741
 30
0.0
 40
0.2
 41
0.2
  0
SEQEND
 8
0
  0
POLYLINE
  8
0
 62
     0
 66
     1
 10
0
 20
0
 30
0.0
 40
0.566929
 41
0.566929
  0
VERTEX
  8
0
 10
0.749653
 20
199.741
 30
0.0
 40
0.2
 41
0.2
  0
VERTEX
  8
0
 10
0.749653
 20
184.741
 30
0.0
 40
0.2
 41
0.2
  0
VERTEX
  8
0
 10
0.749653
 20
184.725
 30
0.0
 40
0.2
 41
0.2
  0
VERTEX
  8
0
 10
0.778591
 20
184.671
 30
0.0
 40
0.2
 41
0.2
  0
VERTEX
  8
0
 10
0.832337
 20
184.641
 30
0.0
 40
0.2
 41
0.2
  0
VERTEX
  8
0
 10
0.850251
 20
184.641
 30
0.0
 40
0.2
 41
0.2
  0
SEQEND
 8
0
  0
POLYLINE
  8
0
 62
     0
 66
     1
 10
0
 20
0
 30
0.0
 40
0.566929
 41
0.566929
  0
VERTEX
  8
0
 10
0.850251
 20
184.641
 30
0.0
 40
0.2
 41
0.2
  0
VERTEX
  8
0
 10
3.85025
 20
184.641
 30
0.0
 40
0.2
 41
0.2
  0
VERTEX
  8
0
 10
3.83233
 20
184.641
 30
0.0
 40
0.2
 41
0.2
  0
VERTEX
  8
0
 10
3.77857
 20
184.671
 30
0.0
 40
0.2
 41
0.2
  0
VERTEX
  8
0
 10
3.74964
 20
184.725
 30
0.0
 40
0.2
 41
0.2
  0
VERTEX
  8
0
 10
3.74964
 20
184.741
 30
0.0
 40
0.2
 41
0.2
  0
SEQEND
 8
0
  0
POLYLINE
  8
0
 62
     0
 66
     1
 10
0
 20
0
 30
0.0
 40
0.566929
 41
0.566929
  0
VERTEX
  8
0
 10
3.74964
 20
184.741
 30
0.0
 40
0.2
 41
0.2
  0
VERTEX
  8
0
 10
3.74964
 20
178.741
 30
0.0
 40
0.2
 41
0.2
  0
SEQEND
 8
0
  0
POLYLINE
  8
0
 62
     0
 66
     1
 10
0
 20
0
 30
0.0
 40
0.566929
 41
0.566929
  0
VERTEX
  8
0
 10
3.74964
 20
178.741
 30
0.0
 40
0.2
 41
0.2
  0
VERTEX
  8
0
 10
3.74964
 20
178.759
 30
0.0
 40
0.2
 41
0.2
  0
VERTEX
  8
0
 10
3.77857
 20
178.813
 30
0.0
 40
0.2
 41
0.2
  0
VERTEX
  8
0
 10
3.83233
 20
178.842
 30
0.0
 40
0.2
 41
0.2
  0
VERTEX
  8
0
 10
3.85025
 20
178.842
 30
0.0
 40
0.2
 41
0.2
  0
SEQEND
 8
0
  0
POLYLINE
  8
0
 62
     0
 66
     1
 10
0
 20
0
 30
0.0
 40
0.566929
 41
0.566929
  0
VERTEX
  8
0
 10
3.85025
 20
178.842
 30
0.0
 40
0.2
 41
0.2
  0
VERTEX
  8
0
 10
0.850251
 20
178.842
 30
0.0
 40
0.2
 41
0.2
  0
VERTEX
  8
0
 10
0.832337
 20
178.842
 30
0.0
 40
0.2
 41
0.2
  0
VERTEX
  8
0
 10
0.778591
 20
178.813
 30
0.0
 40
0.2
 41
0.2
  0
VERTEX
  8
0
 10
0.749653
 20
178.759
 30
0.0
 40
0.2
 41
0.2
  0
VERTEX
  8
0
 10
0.749653
 20
178.741
 30
0.0
 40
0.2
 41
0.2
  0
SEQEND
 8
0
  0
POLYLINE
  8
0
 62
     0
 66
     1
 10
0
 20
0
 30
0.0
 40
0.566929
 41
0.566929
  0
VERTEX
  8
0
 10
0.749653
 20
178.741
 30
0.0
 40
0.2
 41
0.2
  0
VERTEX
  8
0
 10
0.749653
 20
163.741
 30
0.0
 40
0.2
 41
0.2
  0
VERTEX
  8
0
 10
0.749653
 20
163.725
 30
0.0
 40
0.2
 41
0.2
  0
VERTEX
  8
0
 10
0.778591
 20
163.671
 30
0.0
 40
0.2
 41
0.2
  0
VERTEX
  8
0
 10
0.832337
 20
163.641
 30
0.0
 40
0.2
 41
0.2
  0
VERTEX
  8
0
 10
0.850251
 20
163.641
 30
0.0
 40
0.2
 41
0.2
  0
SEQEND
 8
0
  0
POLYLINE
  8
0
 62
     0
 66
     1
 10
0
 20
0
 30
0.0
 40
0.566929
 41
0.566929
  0
VERTEX
  8
0
 10
0.850251
 20
163.641
 30
0.0
 40
0.2
 41
0.2
  0
VERTEX
  8
0
 10
3.85025
 20
163.641
 30
0.0
 40
0.2
 41
0.2
  0
VERTEX
  8
0
 10
3.83233
 20
163.641
 30
0.0
 40
0.2
 41
0.2
  0
VERTEX
  8
0
 10
3.77857
 20
163.671
 30
0.0
 40
0.2
 41
0.2
  0
VERTEX
  8
0
 10
3.74964
 20
163.725
 30
0.0
 40
0.2
 41
0.2
  0
VERTEX
  8
0
 10
3.74964
 20
163.741
 30
0.0
 40
0.2
 41
0.2
  0
SEQEND
 8
0
  0
POLYLINE
  8
0
 62
     0
 66
     1
 10
0
 20
0
 30
0.0
 40
0.566929
 41
0.566929
  0
VERTEX
  8
0
 10
3.74964
 20
163.741
 30
0.0
 40
0.2
 41
0.2
  0
VERTEX
  8
0
 10
3.74964
 20
157.741
 30
0.0
 40
0.2
 41
0.2
  0
SEQEND
 8
0
  0
POLYLINE
  8
0
 62
     0
 66
     1
 10
0
 20
0
 30
0.0
 40
0.566929
 41
0.566929
  0
VERTEX
  8
0
 10
3.74964
 20
157.741
 30
0.0
 40
0.2
 41
0.2
  0
VERTEX
  8
0
 10
3.74964
 20
157.759
 30
0.0
 40
0.2
 41
0.2
  0
VERTEX
  8
0
 10
3.77857
 20
157.813
 30
0.0
 40
0.2
 41
0.2
  0
VERTEX
  8
0
 10
3.83233
 20
157.842
 30
0.0
 40
0.2
 41
0.2
  0
VERTEX
  8
0
 10
3.85025
 20
157.842
 30
0.0
 40
0.2
 41
0.2
  0
SEQEND
 8
0
  0
POLYLINE
  8
0
 62
     0
 66
     1
 10
0
 20
0
 30
0.0
 40
0.566929
 41
0.566929
  0
VERTEX
  8
0
 10
3.85025
 20
157.842
 30
0.0
 40
0.2
 41
0.2
  0
VERTEX
  8
0
 10
0.850251
 20
157.842
 30
0.0
 40
0.2
 41
0.2
  0
VERTEX
  8
0
 10
0.832337
 20
157.842
 30
0.0
 40
0.2
 41
0.2
  0
VERTEX
  8
0
 10
0.778591
 20
157.813
 30
0.0
 40
0.2
 41
0.2
  0
VERTEX
  8
0
 10
0.749653
 20
157.759
 30
0.0
 40
0.2
 41
0.2
  0
VERTEX
  8
0
 10
0.749653
 20
157.741
 30
0.0
 40
0.2
 41
0.2
  0
SEQEND
 8
0
  0
POLYLINE
  8
0
 62
     0
 66
     1
 10
0
 20
0
 30
0.0
 40
0.566929
 41
0.566929
  0
VERTEX
  8
0
 10
0.749653
 20
157.741
 30
0.0
 40
0.2
 41
0.2
  0
VERTEX
  8
0
 10
0.749653
 20
142.741
 30
0.0
 40
0.2
 41
0.2
  0
VERTEX
  8
0
 10
0.749653
 20
142.725
 30
0.0
 40
0.2
 41
0.2
  0
VERTEX
  8
0
 10
0.778591
 20
142.671
 30
0.0
 40
0.2
 41
0.2
  0
VERTEX
  8
0
 10
0.832337
 20
142.641
 30
0.0
 40
0.2
 41
0.2
  0
VERTEX
  8
0
 10
0.850251
 20
142.641
 30
0.0
 40
0.2
 41
0.2
  0
SEQEND
 8
0
  0
POLYLINE
  8
0
 62
     0
 66
     1
 10
0
 20
0
 30
0.0
 40
0.566929
 41
0.566929
  0
VERTEX
  8
0
 10
0.850251
 20
142.641
 30
0.0
 40
0.2
 41
0.2
  0
VERTEX
  8
0
 10
3.85025
 20
142.641
 30
0.0
 40
0.2
 41
0.2
  0
VERTEX
  8
0
 10
3.83233
 20
142.641
 30
0.0
 40
0.2
 41
0.2
  0
VERTEX
  8
0
 10
3.77857
 20
142.671
 30
0.0
 40
0.2
 41
0.2
  0
VERTEX
  8
0
 10
3.74964
 20
142.725
 30
0.0
 40
0.2
 41
0.2
  0
VERTEX
  8
0
 10
3.74964
 20
142.741
 30
0.0
 40
0.2
 41
0.2
  0
SEQEND
 8
0
  0
POLYLINE
  8
0
 62
     0
 66
     1
 10
0
 20
0
 30
0.0
 40
0.566929
 41
0.566929
  0
VERTEX
  8
0
 10
3.74964
 20
142.741
 30
0.0
 40
0.2
 41
0.2
  0
VERTEX
  8
0
 10
3.74964
 20
131.241
 30
0.0
 40
0.2
 41
0.2
  0
SEQEND
 8
0
  0
POLYLINE
  8
0
 62
     0
 66
     1
 10
0
 20
0
 30
0.0
 40
0.566929
 41
0.566929
  0
VERTEX
  8
0
 10
3.74964
 20
131.241
 30
0.0
 40
0.2
 41
0.2
  0
VERTEX
  8
0
 10
3.74964
 20
131.225
 30
0.0
 40
0.2
 41
0.2
  0
VERTEX
  8
0
 10
3.77857
 20
131.171
 30
0.0
 40
0.2
 41
0.2
  0
VERTEX
  8
0
 10
3.83233
 20
131.141
 30
0.0
 40
0.2
 41
0.2
  0
VERTEX
  8
0
 10
3.85025
 20
131.141
 30
0.0
 40
0.2
 41
0.2
  0
SEQEND
 8
0
  0
POLYLINE
  8
0
 62
     0
 66
     1
 10
0
 20
0
 30
0.0
 40
0.566929
 41
0.566929
  0
VERTEX
  8
0
 10
91.5501
 20
131.141
 30
0.0
 40
0.2
 41
0.2
  0
VERTEX
  8
0
 10
103.05
 20
131.141
 30
0.0
 40
0.2
 41
0.2
  0
SEQEND
 8
0
  0
POLYLINE
  8
0
 62
     0
 66
     1
 10
0
 20
0
 30
0.0
 40
0.566929
 41
0.566929
  0
VERTEX
  8
0
 10
103.05
 20
131.141
 30
0.0
 40
0.2
 41
0.2
  0
VERTEX
  8
0
 10
103.032
 20
131.141
 30
0.0
 40
0.2
 41
0.2
  0
VERTEX
  8
0
 10
102.978
 20
131.171
 30
0.0
 40
0.2
 41
0.2
  0
VERTEX
  8
0
 10
102.949
 20
131.225
 30
0.0
 40
0.2
 41
0.2
  0
VERTEX
  8
0
 10
102.949
 20
131.241
 30
0.0
 40
0.2
 41
0.2
  0
SEQEND
 8
0
  0
POLYLINE
  8
0
 62
     0
 66
     1
 10
0
 20
0
 30
0.0
 40
0.566929
 41
0.566929
  0
VERTEX
  8
0
 10
102.949
 20
131.241
 30
0.0
 40
0.2
 41
0.2
  0
VERTEX
  8
0
 10
102.949
 20
128.242
 30
0.0
 40
0.2
 41
0.2
  0
VERTEX
  8
0
 10
102.949
 20
128.225
 30
0.0
 40
0.2
 41
0.2
  0
VERTEX
  8
0
 10
102.978
 20
128.171
 30
0.0
 40
0.2
 41
0.2
  0
VERTEX
  8
0
 10
103.032
 20
128.141
 30
0.0
 40
0.2
 41
0.2
  0
VERTEX
  8
0
 10
103.05
 20
128.141
 30
0.0
 40
0.2
 41
0.2
  0
SEQEND
 8
0
  0
POLYLINE
  8
0
 62
     0
 66
     1
 10
0
 20
0
 30
0.0
 40
0.566929
 41
0.566929
  0
VERTEX
  8
0
 10
103.05
 20
128.141
 30
0.0
 40
0.2
 41
0.2
  0
VERTEX
  8
0
 10
118.05
 20
128.141
 30
0.0
 40
0.2
 41
0.2
  0
VERTEX
  8
0
 10
118.066
 20
128.141
 30
0.0
 40
0.2
 41
0.2
  0
VERTEX
  8
0
 10
118.12
 20
128.171
 30
0.0
 40
0.2
 41
0.2
  0
VERTEX
  8
0
 10
118.15
 20
128.225
 30
0.0
 40
0.2
 41
0.2
  0
VERTEX
  8
0
 10
118.15
 20
128.242
 30
0.0
 40
0.2
 41
0.2
  0
SEQEND
 8
0
  0
POLYLINE
  8
0
 62
     0
 66
     1
 10
0
 20
0
 30
0.0
 40
0.566929
 41
0.566929
  0
VERTEX
  8
0
 10
118.15
 20
128.242
 30
0.0
 40
0.2
 41
0.2
  0
VERTEX
  8
0
 10
118.15
 20
131.241
 30
0.0
 40
0.2
 41
0.2
  0
VERTEX
  8
0
 10
118.15
 20
131.225
 30
0.0
 40
0.2
 41
0.2
  0
VERTEX
  8
0
 10
118.12
 20
131.171
 30
0.0
 40
0.2
 41
0.2
  0
VERTEX
  8
0
 10
118.066
 20
131.141
 30
0.0
 40
0.2
 41
0.2
  0
VERTEX
  8
0
 10
118.05
 20
131.141
 30
0.0
 40
0.2
 41
0.2
  0
SEQEND
 8
0
  0
POLYLINE
  8
0
 62
     0
 66
     1
 10
0
 20
0
 30
0.0
 40
0.566929
 41
0.566929
  0
VERTEX
  8
0
 10
118.05
 20
131.141
 30
0.0
 40
0.2
 41
0.2
  0
VERTEX
  8
0
 10
124.05
 20
131.141
 30
0.0
 40
0.2
 41
0.2
  0
SEQEND
 8
0
  0
POLYLINE
  8
0
 62
     0
 66
     1
 10
0
 20
0
 30
0.0
 40
0.566929
 41
0.566929
  0
VERTEX
  8
0
 10
124.05
 20
131.141
 30
0.0
 40
0.2
 41
0.2
  0
VERTEX
  8
0
 10
124.032
 20
131.141
 30
0.0
 40
0.2
 41
0.2
  0
VERTEX
  8
0
 10
123.978
 20
131.171
 30
0.0
 40
0.2
 41
0.2
  0
VERTEX
  8
0
 10
123.949
 20
131.225
 30
0.0
 40
0.2
 41
0.2
  0
VERTEX
  8
0
 10
123.949
 20
131.241
 30
0.0
 40
0.2
 41
0.2
  0
SEQEND
 8
0
  0
POLYLINE
  8
0
 62
     0
 66
     1
 10
0
 20
0
 30
0.0
 40
0.566929
 41
0.566929
  0
VERTEX
  8
0
 10
123.949
 20
131.241
 30
0.0
 40
0.2
 41
0.2
  0
VERTEX
  8
0
 10
123.949
 20
128.242
 30
0.0
 40
0.2
 41
0.2
  0
VERTEX
  8
0
 10
123.949
 20
128.225
 30
0.0
 40
0.2
 41
0.2
  0
VERTEX
  8
0
 10
123.978
 20
128.171
 30
0.0
 40
0.2
 41
0.2
  0
VERTEX
  8
0
 10
124.032
 20
128.141
 30
0.0
 40
0.2
 41
0.2
  0
VERTEX
  8
0
 10
124.05
 20
128.141
 30
0.0
 40
0.2
 41
0.2
  0
SEQEND
 8
0
  0
POLYLINE
  8
0
 62
     0
 66
     1
 10
0
 20
0
 30
0.0
 40
0.566929
 41
0.566929
  0
VERTEX
  8
0
 10
124.05
 20
128.141
 30
0.0
 40
0.2
 41
0.2
  0
VERTEX
  8
0
 10
139.049
 20
128.141
 30
0.0
 40
0.2
 41
0.2
  0
VERTEX
  8
0
 10
139.066
 20
128.141
 30
0.0
 40
0.2
 41
0.2
  0
VERTEX
  8
0
 10
139.12
 20
128.171
 30
0.0
 40
0.2
 41
0.2
  0
VERTEX
  8
0
 10
139.15
 20
128.225
 30
0.0
 40
0.2
 41
0.2
  0
VERTEX
  8
0
 10
139.15
 20
128.242
 30
0.0
 40
0.2
 41
0.2
  0
SEQEND
 8
0
  0
POLYLINE
  8
0
 62
     0
 66
     1
 10
0
 20
0
 30
0.0
 40
0.566929
 41
0.566929
  0
VERTEX
  8
0
 10
139.15
 20
128.242
 30
0.0
 40
0.2
 41
0.2
  0
VERTEX
  8
0
 10
139.15
 20
131.241
 30
0.0
 40
0.2
 41
0.2
  0
VERTEX
  8
0
 10
139.15
 20
131.225
 30
0.0
 40
0.2
 41
0.2
  0
VERTEX
  8
0
 10
139.12
 20
131.171
 30
0.0
 40
0.2
 41
0.2
  0
VERTEX
  8
0
 10
139.066
 20
131.141
 30
0.0
 40
0.2
 41
0.2
  0
VERTEX
  8
0
 10
139.049
 20
131.141
 30
0.0
 40
0.2
 41
0.2
  0
SEQEND
 8
0
  0
POLYLINE
  8
0
 62
     0
 66
     1
 10
0
 20
0
 30
0.0
 40
0.566929
 41
0.566929
  0
VERTEX
  8
0
 10
139.049
 20
131.141
 30
0.0
 40
0.2
 41
0.2
  0
VERTEX
  8
0
 10
145.05
 20
131.141
 30
0.0
 40
0.2
 41
0.2
  0
SEQEND
 8
0
  0
POLYLINE
  8
0
 62
     0
 66
     1
 10
0
 20
0
 30
0.0
 40
0.566929
 41
0.566929
  0
VERTEX
  8
0
 10
145.05
 20
131.141
 30
0.0
 40
0.2
 41
0.2
  0
VERTEX
  8
0
 10
145.032
 20
131.141
 30
0.0
 40
0.2
 41
0.2
  0
VERTEX
  8
0
 10
144.978
 20
131.171
 30
0.0
 40
0.2
 41
0.2
  0
VERTEX
  8
0
 10
144.949
 20
131.225
 30
0.0
 40
0.2
 41
0.2
  0
VERTEX
  8
0
 10
144.949
 20
131.241
 30
0.0
 40
0.2
 41
0.2
  0
SEQEND
 8
0
  0
POLYLINE
  8
0
 62
     0
 66
     1
 10
0
 20
0
 30
0.0
 40
0.566929
 41
0.566929
  0
VERTEX
  8
0
 10
144.949
 20
131.241
 30
0.0
 40
0.2
 41
0.2
  0
VERTEX
  8
0
 10
144.949
 20
128.242
 30
0.0
 40
0.2
 41
0.2
  0
VERTEX
  8
0
 10
144.949
 20
128.225
 30
0.0
 40
0.2
 41
0.2
  0
VERTEX
  8
0
 10
144.978
 20
128.171
 30
0.0
 40
0.2
 41
0.2
  0
VERTEX
  8
0
 10
145.032
 20
128.141
 30
0.0
 40
0.2
 41
0.2
  0
VERTEX
  8
0
 10
145.05
 20
128.141
 30
0.0
 40
0.2
 41
0.2
  0
SEQEND
 8
0
  0
POLYLINE
  8
0
 62
     0
 66
     1
 10
0
 20
0
 30
0.0
 40
0.566929
 41
0.566929
  0
VERTEX
  8
0
 10
145.05
 20
128.141
 30
0.0
 40
0.2
 41
0.2
  0
VERTEX
  8
0
 10
160.05
 20
128.141
 30
0.0
 40
0.2
 41
0.2
  0
VERTEX
  8
0
 10
160.066
 20
128.141
 30
0.0
 40
0.2
 41
0.2
  0
VERTEX
  8
0
 10
160.12
 20
128.171
 30
0.0
 40
0.2
 41
0.2
  0
VERTEX
  8
0
 10
160.15
 20
128.225
 30
0.0
 40
0.2
 41
0.2
  0
VERTEX
  8
0
 10
160.15
 20
128.242
 30
0.0
 40
0.2
 41
0.2
  0
SEQEND
 8
0
  0
POLYLINE
  8
0
 62
     0
 66
     1
 10
0
 20
0
 30
0.0
 40
0.566929
 41
0.566929
  0
VERTEX
  8
0
 10
160.15
 20
128.242
 30
0.0
 40
0.2
 41
0.2
  0
VERTEX
  8
0
 10
160.15
 20
131.241
 30
0.0
 40
0.2
 41
0.2
  0
VERTEX
  8
0
 10
160.15
 20
131.225
 30
0.0
 40
0.2
 41
0.2
  0
VERTEX
  8
0
 10
160.12
 20
131.171
 30
0.0
 40
0.2
 41
0.2
  0
VERTEX
  8
0
 10
160.066
 20
131.141
 30
0.0
 40
0.2
 41
0.2
  0
VERTEX
  8
0
 10
160.05
 20
131.141
 30
0.0
 40
0.2
 41
0.2
  0
SEQEND
 8
0
  0
POLYLINE
  8
0
 62
     0
 66
     1
 10
0
 20
0
 30
0.0
 40
0.566929
 41
0.566929
  0
VERTEX
  8
0
 10
160.05
 20
131.141
 30
0.0
 40
0.2
 41
0.2
  0
VERTEX
  8
0
 10
171.549
 20
131.141
 30
0.0
 40
0.2
 41
0.2
  0
SEQEND
 8
0
  0
POLYLINE
  8
0
 62
     0
 66
     1
 10
0
 20
0
 30
0.0
 40
0.566929
 41
0.566929
  0
VERTEX
  8
0
 10
171.549
 20
131.141
 30
0.0
 40
0.2
 41
0.2
  0
VERTEX
  8
0
 10
171.566
 20
131.141
 30
0.0
 40
0.2
 41
0.2
  0
VERTEX
  8
0
 10
171.619
 20
131.171
 30
0.0
 40
0.2
 41
0.2
  0
VERTEX
  8
0
 10
171.65
 20
131.225
 30
0.0
 40
0.2
 41
0.2
  0
VERTEX
  8
0
 10
171.65
 20
131.241
 30
0.0
 40
0.2
 41
0.2
  0
SEQEND
 8
0
  0
POLYLINE
  8
0
 62
     0
 66
     1
 10
0
 20
0
 30
0.0
 40
0.566929
 41
0.566929
  0
VERTEX
  8
0
 10
171.65
 20
131.241
 30
0.0
 40
0.2
 41
0.2
  0
VERTEX
  8
0
 10
171.65
 20
142.741
 30
0.0
 40
0.2
 41
0.2
  0
SEQEND
 8
0
  0
POLYLINE
  8
0
 62
     0
 66
     1
 10
0
 20
0
 30
0.0
 40
0.566929
 41
0.566929
  0
VERTEX
  8
0
 10
171.65
 20
142.741
 30
0.0
 40
0.2
 41
0.2
  0
VERTEX
  8
0
 10
171.65
 20
142.725
 30
0.0
 40
0.2
 41
0.2
  0
VERTEX
  8
0
 10
171.619
 20
142.671
 30
0.0
 40
0.2
 41
0.2
  0
VERTEX
  8
0
 10
171.566
 20
142.641
 30
0.0
 40
0.2
 41
0.2
  0
VERTEX
  8
0
 10
171.549
 20
142.641
 30
0.0
 40
0.2
 41
0.2
  0
SEQEND
 8
0
  0
POLYLINE
  8
0
 62
     0
 66
     1
 10
0
 20
0
 30
0.0
 40
0.566929
 41
0.566929
  0
VERTEX
  8
0
 10
171.549
 20
142.641
 30
0.0
 40
0.2
 41
0.2
  0
VERTEX
  8
0
 10
174.549
 20
142.641
 30
0.0
 40
0.2
 41
0.2
  0
VERTEX
  8
0
 10
174.566
 20
142.641
 30
0.0
 40
0.2
 41
0.2
  0
VERTEX
  8
0
 10
174.619
 20
142.671
 30
0.0
 40
0.2
 41
0.2
  0
VERTEX
  8
0
 10
174.65
 20
142.725
 30
0.0
 40
0.2
 41
0.2
  0
VERTEX
  8
0
 10
174.65
 20
142.741
 30
0.0
 40
0.2
 41
0.2
  0
SEQEND
 8
0
  0
POLYLINE
  8
0
 62
     0
 66
     1
 10
0
 20
0
 30
0.0
 40
0.566929
 41
0.566929
  0
VERTEX
  8
0
 10
174.65
 20
142.741
 30
0.0
 40
0.2
 41
0.2
  0
VERTEX
  8
0
 10
174.65
 20
157.741
 30
0.0
 40
0.2
 41
0.2
  0
VERTEX
  8
0
 10
174.65
 20
157.759
 30
0.0
 40
0.2
 41
0.2
  0
VERTEX
  8
0
 10
174.619
 20
157.813
 30
0.0
 40
0.2
 41
0.2
  0
VERTEX
  8
0
 10
174.566
 20
157.842
 30
0.0
 40
0.2
 41
0.2
  0
VERTEX
  8
0
 10
174.549
 20
157.842
 30
0.0
 40
0.2
 41
0.2
  0
SEQEND
 8
0
  0
POLYLINE
  8
0
 62
     0
 66
     1
 10
0
 20
0
 30
0.0
 40
0.566929
 41
0.566929
  0
VERTEX
  8
0
 10
174.549
 20
157.842
 30
0.0
 40
0.2
 41
0.2
  0
VERTEX
  8
0
 10
171.549
 20
157.842
 30
0.0
 40
0.2
 41
0.2
  0
VERTEX
  8
0
 10
171.566
 20
157.842
 30
0.0
 40
0.2
 41
0.2
  0
VERTEX
  8
0
 10
171.619
 20
157.813
 30
0.0
 40
0.2
 41
0.2
  0
VERTEX
  8
0
 10
171.65
 20
157.759
 30
0.0
 40
0.2
 41
0.2
  0
VERTEX
  8
0
 10
171.65
 20
157.741
 30
0.0
 40
0.2
 41
0.2
  0
SEQEND
 8
0
  0
POLYLINE
  8
0
 62
     0
 66
     1
 10
0
 20
0
 30
0.0
 40
0.566929
 41
0.566929
  0
VERTEX
  8
0
 10
171.65
 20
157.741
 30
0.0
 40
0.2
 41
0.2
  0
VERTEX
  8
0
 10
171.65
 20
163.741
 30
0.0
 40
0.2
 41
0.2
  0
SEQEND
 8
0
  0
POLYLINE
  8
0
 62
     0
 66
     1
 10
0
 20
0
 30
0.0
 40
0.566929
 41
0.566929
  0
VERTEX
  8
0
 10
171.65
 20
163.741
 30
0.0
 40
0.2
 41
0.2
  0
VERTEX
  8
0
 10
171.65
 20
163.725
 30
0.0
 40
0.2
 41
0.2
  0
VERTEX
  8
0
 10
171.619
 20
163.671
 30
0.0
 40
0.2
 41
0.2
  0
VERTEX
  8
0
 10
171.566
 20
163.641
 30
0.0
 40
0.2
 41
0.2
  0
VERTEX
  8
0
 10
171.549
 20
163.641
 30
0.0
 40
0.2
 41
0.2
  0
SEQEND
 8
0
  0
POLYLINE
  8
0
 62
     0
 66
     1
 10
0
 20
0
 30
0.0
 40
0.566929
 41
0.566929
  0
VERTEX
  8
0
 10
171.549
 20
163.641
 30
0.0
 40
0.2
 41
0.2
  0
VERTEX
  8
0
 10
174.549
 20
163.641
 30
0.0
 40
0.2
 41
0.2
  0
VERTEX
  8
0
 10
174.566
 20
163.641
 30
0.0
 40
0.2
 41
0.2
  0
VERTEX
  8
0
 10
174.619
 20
163.671
 30
0.0
 40
0.2
 41
0.2
  0
VERTEX
  8
0
 10
174.65
 20
163.725
 30
0.0
 40
0.2
 41
0.2
  0
VERTEX
  8
0
 10
174.65
 20
163.741
 30
0.0
 40
0.2
 41
0.2
  0
SEQEND
 8
0
  0
POLYLINE
  8
0
 62
     0
 66
     1
 10
0
 20
0
 30
0.0
 40
0.566929
 41
0.566929
  0
VERTEX
  8
0
 10
174.65
 20
163.741
 30
0.0
 40
0.2
 41
0.2
  0
VERTEX
  8
0
 10
174.65
 20
178.741
 30
0.0
 40
0.2
 41
0.2
  0
VERTEX
  8
0
 10
174.65
 20
178.759
 30
0.0
 40
0.2
 41
0.2
  0
VERTEX
  8
0
 10
174.619
 20
178.813
 30
0.0
 40
0.2
 41
0.2
  0
VERTEX
  8
0
 10
174.566
 20
178.842
 30
0.0
 40
0.2
 41
0.2
  0
VERTEX
  8
0
 10
174.549
 20
178.842
 30
0.0
 40
0.2
 41
0.2
  0
SEQEND
 8
0
  0
POLYLINE
  8
0
 62
     0
 66
     1
 10
0
 20
0
 30
0.0
 40
0.566929
 41
0.566929
  0
VERTEX
  8
0
 10
174.549
 20
178.842
 30
0.0
 40
0.2
 41
0.2
  0
VERTEX
  8
0
 10
171.549
 20
178.842
 30
0.0
 40
0.2
 41
0.2
  0
VERTEX
  8
0
 10
171.566
 20
178.842
 30
0.0
 40
0.2
 41
0.2
  0
VERTEX
  8
0
 10
171.619
 20
178.813
 30
0.0
 40
0.2
 41
0.2
  0
VERTEX
  8
0
 10
171.65
 20
178.759
 30
0.0
 40
0.2
 41
0.2
  0
VERTEX
  8
0
 10
171.65
 20
178.741
 30
0.0
 40
0.2
 41
0.2
  0
SEQEND
 8
0
  0
POLYLINE
  8
0
 62
     0
 66
     1
 10
0
 20
0
 30
0.0
 40
0.566929
 41
0.566929
  0
VERTEX
  8
0
 10
171.65
 20
178.741
 30
0.0
 40
0.2
 41
0.2
  0
VERTEX
  8
0
 10
171.65
 20
184.741
 30
0.0
 40
0.2
 41
0.2
  0
SEQEND
 8
0
  0
POLYLINE
  8
0
 62
     0
 66
     1
 10
0
 20
0
 30
0.0
 40
0.566929
 41
0.566929
  0
VERTEX
  8
0
 10
171.65
 20
184.741
 30
0.0
 40
0.2
 41
0.2
  0
VERTEX
  8
0
 10
171.65
 20
184.725
 30
0.0
 40
0.2
 41
0.2
  0
VERTEX
  8
0
 10
171.619
 20
184.671
 30
0.0
 40
0.2
 41
0.2
  0
VERTEX
  8
0
 10
171.566
 20
184.641
 30
0.0
 40
0.2
 41
0.2
  0
VERTEX
  8
0
 10
171.549
 20
184.641
 30
0.0
 40
0.2
 41
0.2
  0
SEQEND
 8
0
  0
POLYLINE
  8
0
 62
     0
 66
     1
 10
0
 20
0
 30
0.0
 40
0.566929
 41
0.566929
  0
VERTEX
  8
0
 10
171.549
 20
184.641
 30
0.0
 40
0.2
 41
0.2
  0
VERTEX
  8
0
 10
174.549
 20
184.641
 30
0.0
 40
0.2
 41
0.2
  0
VERTEX
  8
0
 10
174.566
 20
184.641
 30
0.0
 40
0.2
 41
0.2
  0
VERTEX
  8
0
 10
174.619
 20
184.671
 30
0.0
 40
0.2
 41
0.2
  0
VERTEX
  8
0
 10
174.65
 20
184.725
 30
0.0
 40
0.2
 41
0.2
  0
VERTEX
  8
0
 10
174.65
 20
184.741
 30
0.0
 40
0.2
 41
0.2
  0
SEQEND
 8
0
  0
POLYLINE
  8
0
 62
     0
 66
     1
 10
0
 20
0
 30
0.0
 40
0.566929
 41
0.566929
  0
VERTEX
  8
0
 10
174.65
 20
184.741
 30
0.0
 40
0.2
 41
0.2
  0
VERTEX
  8
0
 10
174.65
 20
199.741
 30
0.0
 40
0.2
 41
0.2
  0
VERTEX
  8
0
 10
174.65
 20
199.759
 30
0.0
 40
0.2
 41
0.2
  0
VERTEX
  8
0
 10
174.619
 20
199.813
 30
0.0
 40
0.2
 41
0.2
  0
VERTEX
  8
0
 10
174.566
 20
199.842
 30
0.0
 40
0.2
 41
0.2
  0
VERTEX
  8
0
 10
174.549
 20
199.842
 30
0.0
 40
0.2
 41
0.2
  0
SEQEND
 8
0
  0
POLYLINE
  8
0
 62
     0
 66
     1
 10
0
 20
0
 30
0.0
 40
0.566929
 41
0.566929
  0
VERTEX
  8
0
 10
174.549
 20
199.842
 30
0.0
 40
0.2
 41
0.2
  0
VERTEX
  8
0
 10
171.549
 20
199.842
 30
0.0
 40
0.2
 41
0.2
  0
VERTEX
  8
0
 10
171.566
 20
199.842
 30
0.0
 40
0.2
 41
0.2
  0
VERTEX
  8
0
 10
171.619
 20
199.813
 30
0.0
 40
0.2
 41
0.2
  0
VERTEX
  8
0
 10
171.65
 20
199.759
 30
0.0
 40
0.2
 41
0.2
  0
VERTEX
  8
0
 10
171.65
 20
199.741
 30
0.0
 40
0.2
 41
0.2
  0
SEQEND
 8
0
  0
POLYLINE
  8
0
 62
     0
 66
     1
 10
0
 20
0
 30
0.0
 40
0.566929
 41
0.566929
  0
VERTEX
  8
0
 10
171.65
 20
199.741
 30
0.0
 40
0.2
 41
0.2
  0
VERTEX
  8
0
 10
171.65
 20
211.241
 30
0.0
 40
0.2
 41
0.2
  0
SEQEND
 8
0
  0
POLYLINE
  8
0
 62
     0
 66
     1
 10
0
 20
0
 30
0.0
 40
0.566929
 41
0.566929
  0
VERTEX
  8
0
 10
171.65
 20
211.241
 30
0.0
 40
0.2
 41
0.2
  0
VERTEX
  8
0
 10
171.65
 20
211.259
 30
0.0
 40
0.2
 41
0.2
  0
VERTEX
  8
0
 10
171.619
 20
211.312
 30
0.0
 40
0.2
 41
0.2
  0
VERTEX
  8
0
 10
171.566
 20
211.341
 30
0.0
 40
0.2
 41
0.2
  0
VERTEX
  8
0
 10
171.549
 20
211.341
 30
0.0
 40
0.2
 41
0.2
  0
SEQEND
 8
0
  0
POLYLINE
  8
0
 62
     0
 66
     1
 10
0
 20
0
 30
0.0
 40
0.566929
 41
0.566929
  0
VERTEX
  8
0
 10
171.549
 20
211.341
 30
0.0
 40
0.2
 41
0.2
  0
VERTEX
  8
0
 10
160.05
 20
211.341
 30
0.0
 40
0.2
 41
0.2
  0
SEQEND
 8
0
  0
POLYLINE
  8
0
 62
     0
 66
     1
 10
0
 20
0
 30
0.0
 40
0.566929
 41
0.566929
  0
VERTEX
  8
0
 10
160.05
 20
211.341
 30
0.0
 40
0.2
 41
0.2
  0
VERTEX
  8
0
 10
160.066
 20
211.341
 30
0.0
 40
0.2
 41
0.2
  0
VERTEX
  8
0
 10
160.12
 20
211.312
 30
0.0
 40
0.2
 41
0.2
  0
VERTEX
  8
0
 10
160.15
 20
211.259
 30
0.0
 40
0.2
 41
0.2
  0
VERTEX
  8
0
 10
160.15
 20
211.241
 30
0.0
 40
0.2
 41
0.2
  0
SEQEND
 8
0
  0
POLYLINE
  8
0
 62
     0
 66
     1
 10
0
 20
0
 30
0.0
 40
0.566929
 41
0.566929
  0
VERTEX
  8
0
 10
160.15
 20
211.241
 30
0.0
 40
0.2
 41
0.2
  0
VERTEX
  8
0
 10
160.15
 20
214.241
 30
0.0
 40
0.2
 41
0.2
  0
VERTEX
  8
0
 10
160.15
 20
214.259
 30
0.0
 40
0.2
 41
0.2
  0
VERTEX
  8
0
 10
160.12
 20
214.313
 30
0.0
 40
0.2
 41
0.2
  0
VERTEX
  8
0
 10
160.066
 20
214.341
 30
0.0
 40
0.2
 41
0.2
  0
VERTEX
  8
0
 10
160.05
 20
214.341
 30
0.0
 40
0.2
 41
0.2
  0
SEQEND
 8
0
  0
POLYLINE
  8
0
 62
     0
 66
     1
 10
0
 20
0
 30
0.0
 40
0.566929
 41
0.566929
  0
VERTEX
  8
0
 10
160.05
 20
214.341
 30
0.0
 40
0.2
 41
0.2
  0
VERTEX
  8
0
 10
145.05
 20
214.341
 30
0.0
 40
0.2
 41
0.2
  0
VERTEX
  8
0
 10
145.032
 20
214.341
 30
0.0
 40
0.2
 41
0.2
  0
VERTEX
  8
0
 10
144.978
 20
214.313
 30
0.0
 40
0.2
 41
0.2
  0
VERTEX
  8
0
 10
144.949
 20
214.259
 30
0.0
 40
0.2
 41
0.2
  0
VERTEX
  8
0
 10
144.949
 20
214.241
 30
0.0
 40
0.2
 41
0.2
  0
SEQEND
 8
0
  0
POLYLINE
  8
0
 62
     0
 66
     1
 10
0
 20
0
 30
0.0
 40
0.566929
 41
0.566929
  0
VERTEX
  8
0
 10
144.949
 20
214.241
 30
0.0
 40
0.2
 41
0.2
  0
VERTEX
  8
0
 10
144.949
 20
211.241
 30
0.0
 40
0.2
 41
0.2
  0
VERTEX
  8
0
 10
144.949
 20
211.259
 30
0.0
 40
0.2
 41
0.2
  0
VERTEX
  8
0
 10
144.978
 20
211.312
 30
0.0
 40
0.2
 41
0.2
  0
VERTEX
  8
0
 10
145.032
 20
211.341
 30
0.0
 40
0.2
 41
0.2
  0
VERTEX
  8
0
 10
145.05
 20
211.341
 30
0.0
 40
0.2
 41
0.2
  0
SEQEND
 8
0
  0
POLYLINE
  8
0
 62
     0
 66
     1
 10
0
 20
0
 30
0.0
 40
0.566929
 41
0.566929
  0
VERTEX
  8
0
 10
145.05
 20
211.341
 30
0.0
 40
0.2
 41
0.2
  0
VERTEX
  8
0
 10
139.049
 20
211.341
 30
0.0
 40
0.2
 41
0.2
  0
SEQEND
 8
0
  0
POLYLINE
  8
0
 62
     0
 66
     1
 10
0
 20
0
 30
0.0
 40
0.566929
 41
0.566929
  0
VERTEX
  8
0
 10
139.049
 20
211.341
 30
0.0
 40
0.2
 41
0.2
  0
VERTEX
  8
0
 10
139.066
 20
211.341
 30
0.0
 40
0.2
 41
0.2
  0
VERTEX
  8
0
 10
139.12
 20
211.312
 30
0.0
 40
0.2
 41
0.2
  0
VERTEX
  8
0
 10
139.15
 20
211.259
 30
0.0
 40
0.2
 41
0.2
  0
VERTEX
  8
0
 10
139.15
 20
211.241
 30
0.0
 40
0.2
 41
0.2
  0
SEQEND
 8
0
  0
POLYLINE
  8
0
 62
     0
 66
     1
 10
0
 20
0
 30
0.0
 40
0.566929
 41
0.566929
  0
VERTEX
  8
0
 10
139.15
 20
211.241
 30
0.0
 40
0.2
 41
0.2
  0
VERTEX
  8
0
 10
139.15
 20
214.241
 30
0.0
 40
0.2
 41
0.2
  0
VERTEX
  8
0
 10
139.15
 20
214.259
 30
0.0
 40
0.2
 41
0.2
  0
VERTEX
  8
0
 10
139.12
 20
214.313
 30
0.0
 40
0.2
 41
0.2
  0
VERTEX
  8
0
 10
139.066
 20
214.341
 30
0.0
 40
0.2
 41
0.2
  0
VERTEX
  8
0
 10
139.049
 20
214.341
 30
0.0
 40
0.2
 41
0.2
  0
SEQEND
 8
0
  0
POLYLINE
  8
0
 62
     0
 66
     1
 10
0
 20
0
 30
0.0
 40
0.566929
 41
0.566929
  0
VERTEX
  8
0
 10
139.049
 20
214.341
 30
0.0
 40
0.2
 41
0.2
  0
VERTEX
  8
0
 10
124.05
 20
214.341
 30
0.0
 40
0.2
 41
0.2
  0
VERTEX
  8
0
 10
124.032
 20
214.341
 30
0.0
 40
0.2
 41
0.2
  0
VERTEX
  8
0
 10
123.978
 20
214.313
 30
0.0
 40
0.2
 41
0.2
  0
VERTEX
  8
0
 10
123.949
 20
214.259
 30
0.0
 40
0.2
 41
0.2
  0
VERTEX
  8
0
 10
123.949
 20
214.241
 30
0.0
 40
0.2
 41
0.2
  0
SEQEND
 8
0
  0
POLYLINE
  8
0
 62
     0
 66
     1
 10
0
 20
0
 30
0.0
 40
0.566929
 41
0.566929
  0
VERTEX
  8
0
 10
123.949
 20
214.241
 30
0.0
 40
0.2
 41
0.2
  0
VERTEX
  8
0
 10
123.949
 20
211.241
 30
0.0
 40
0.2
 41
0.2
  0
VERTEX
  8
0
 10
123.949
 20
211.259
 30
0.0
 40
0.2
 41
0.2
  0
VERTEX
  8
0
 10
123.978
 20
211.312
 30
0.0
 40
0.2
 41
0.2
  0
VERTEX
  8
0
 10
124.032
 20
211.341
 30
0.0
 40
0.2
 41
0.2
  0
VERTEX
  8
0
 10
124.05
 20
211.341
 30
0.0
 40
0.2
 41
0.2
  0
SEQEND
 8
0
  0
POLYLINE
  8
0
 62
     0
 66
     1
 10
0
 20
0
 30
0.0
 40
0.566929
 41
0.566929
  0
VERTEX
  8
0
 10
124.05
 20
211.341
 30
0.0
 40
0.2
 41
0.2
  0
VERTEX
  8
0
 10
118.05
 20
211.341
 30
0.0
 40
0.2
 41
0.2
  0
SEQEND
 8
0
  0
POLYLINE
  8
0
 62
     0
 66
     1
 10
0
 20
0
 30
0.0
 40
0.566929
 41
0.566929
  0
VERTEX
  8
0
 10
118.05
 20
211.341
 30
0.0
 40
0.2
 41
0.2
  0
VERTEX
  8
0
 10
118.066
 20
211.341
 30
0.0
 40
0.2
 41
0.2
  0
VERTEX
  8
0
 10
118.12
 20
211.312
 30
0.0
 40
0.2
 41
0.2
  0
VERTEX
  8
0
 10
118.15
 20
211.259
 30
0.0
 40
0.2
 41
0.2
  0
VERTEX
  8
0
 10
118.15
 20
211.241
 30
0.0
 40
0.2
 41
0.2
  0
SEQEND
 8
0
  0
POLYLINE
  8
0
 62
     0
 66
     1
 10
0
 20
0
 30
0.0
 40
0.566929
 41
0.566929
  0
VERTEX
  8
0
 10
118.15
 20
211.241
 30
0.0
 40
0.2
 41
0.2
  0
VERTEX
  8
0
 10
118.15
 20
214.241
 30
0.0
 40
0.2
 41
0.2
  0
VERTEX
  8
0
 10
118.15
 20
214.259
 30
0.0
 40
0.2
 41
0.2
  0
VERTEX
  8
0
 10
118.12
 20
214.313
 30
0.0
 40
0.2
 41
0.2
  0
VERTEX
  8
0
 10
118.066
 20
214.341
 30
0.0
 40
0.2
 41
0.2
  0
VERTEX
  8
0
 10
118.05
 20
214.341
 30
0.0
 40
0.2
 41
0.2
  0
SEQEND
 8
0
  0
POLYLINE
  8
0
 62
     0
 66
     1
 10
0
 20
0
 30
0.0
 40
0.566929
 41
0.566929
  0
VERTEX
  8
0
 10
118.05
 20
214.341
 30
0.0
 40
0.2
 41
0.2
  0
VERTEX
  8
0
 10
103.05
 20
214.341
 30
0.0
 40
0.2
 41
0.2
  0
VERTEX
  8
0
 10
103.032
 20
214.341
 30
0.0
 40
0.2
 41
0.2
  0
VERTEX
  8
0
 10
102.978
 20
214.313
 30
0.0
 40
0.2
 41
0.2
  0
VERTEX
  8
0
 10
102.949
 20
214.259
 30
0.0
 40
0.2
 41
0.2
  0
VERTEX
  8
0
 10
102.949
 20
214.241
 30
0.0
 40
0.2
 41
0.2
  0
SEQEND
 8
0
  0
POLYLINE
  8
0
 62
     0
 66
     1
 10
0
 20
0
 30
0.0
 40
0.566929
 41
0.566929
  0
VERTEX
  8
0
 10
102.949
 20
214.241
 30
0.0
 40
0.2
 41
0.2
  0
VERTEX
  8
0
 10
102.949
 20
211.241
 30
0.0
 40
0.2
 41
0.2
  0
VERTEX
  8
0
 10
102.949
 20
211.259
 30
0.0
 40
0.2
 41
0.2
  0
VERTEX
  8
0
 10
102.978
 20
211.312
 30
0.0
 40
0.2
 41
0.2
  0
VERTEX
  8
0
 10
103.032
 20
211.341
 30
0.0
 40
0.2
 41
0.2
  0
VERTEX
  8
0
 10
103.05
 20
211.341
 30
0.0
 40
0.2
 41
0.2
  0
SEQEND
 8
0
  0
POLYLINE
  8
0
 62
     0
 66
     1
 10
0
 20
0
 30
0.0
 40
0.566929
 41
0.566929
  0
VERTEX
  8
0
 10
103.05
 20
211.341
 30
0.0
 40
0.2
 41
0.2
  0
VERTEX
  8
0
 10
91.5501
 20
211.341
 30
0.0
 40
0.2
 41
0.2
  0
SEQEND
 8
0
  0
POLYLINE
  8
0
 62
     0
 66
     1
 10
0
 20
0
 30
0.0
 40
0.566929
 41
0.566929
  0
VERTEX
  8
0
 10
91.5501
 20
211.341
 30
0.0
 40
0.2
 41
0.2
  0
VERTEX
  8
0
 10
91.5321
 20
211.341
 30
0.0
 40
0.2
 41
0.2
  0
VERTEX
  8
0
 10
91.4784
 20
211.312
 30
0.0
 40
0.2
 41
0.2
  0
VERTEX
  8
0
 10
91.4495
 20
211.259
 30
0.0
 40
0.2
 41
0.2
  0
VERTEX
  8
0
 10
91.4495
 20
211.241
 30
0.0
 40
0.2
 41
0.2
  0
SEQEND
 8
0
  0
POLYLINE
  8
0
 62
     0
 66
     1
 10
0
 20
0
 30
0.0
 40
0.566929
 41
0.566929
  0
VERTEX
  8
0
 10
91.4495
 20
211.241
 30
0.0
 40
0.2
 41
0.2
  0
VERTEX
  8
0
 10
91.4495
 20
199.741
 30
0.0
 40
0.2
 41
0.2
  0
SEQEND
 8
0
  0
POLYLINE
  8
0
 62
     0
 66
     1
 10
0
 20
0
 30
0.0
 40
0.566929
 41
0.566929
  0
VERTEX
  8
0
 10
91.4495
 20
199.741
 30
0.0
 40
0.2
 41
0.2
  0
VERTEX
  8
0
 10
91.4495
 20
199.759
 30
0.0
 40
0.2
 41
0.2
  0
VERTEX
  8
0
 10
91.4784
 20
199.813
 30
0.0
 40
0.2
 41
0.2
  0
VERTEX
  8
0
 10
91.5321
 20
199.842
 30
0.0
 40
0.2
 41
0.2
  0
VERTEX
  8
0
 10
91.5501
 20
199.842
 30
0.0
 40
0.2
 41
0.2
  0
SEQEND
 8
0
  0
POLYLINE
  8
0
 62
     0
 66
     1
 10
0
 20
0
 30
0.0
 40
0.566929
 41
0.566929
  0
VERTEX
  8
0
 10
91.5501
 20
199.842
 30
0.0
 40
0.2
 41
0.2
  0
VERTEX
  8
0
 10
88.55
 20
199.842
 30
0.0
 40
0.2
 41
0.2
  0
VERTEX
  8
0
 10
88.5321
 20
199.842
 30
0.0
 40
0.2
 41
0.2
  0
VERTEX
  8
0
 10
88.4784
 20
199.813
 30
0.0
 40
0.2
 41
0.2
  0
VERTEX
  8
0
 10
88.4495
 20
199.759
 30
0.0
 40
0.2
 41
0.2
  0
VERTEX
  8
0
 10
88.4495
 20
199.741
 30
0.0
 40
0.2
 41
0.2
  0
SEQEND
 8
0
  0
POLYLINE
  8
0
 62
     0
 66
     1
 10
0
 20
0
 30
0.0
 40
0.566929
 41
0.566929
  0
VERTEX
  8
0
 10
88.4495
 20
199.741
 30
0.0
 40
0.2
 41
0.2
  0
VERTEX
  8
0
 10
88.4495
 20
184.741
 30
0.0
 40
0.2
 41
0.2
  0
VERTEX
  8
0
 10
88.4495
 20
184.725
 30
0.0
 40
0.2
 41
0.2
  0
VERTEX
  8
0
 10
88.4784
 20
184.671
 30
0.0
 40
0.2
 41
0.2
  0
VERTEX
  8
0
 10
88.5321
 20
184.641
 30
0.0
 40
0.2
 41
0.2
  0
VERTEX
  8
0
 10
88.55
 20
184.641
 30
0.0
 40
0.2
 41
0.2
  0
SEQEND
 8
0
  0
POLYLINE
  8
0
 62
     0
 66
     1
 10
0
 20
0
 30
0.0
 40
0.566929
 41
0.566929
  0
VERTEX
  8
0
 10
88.55
 20
184.641
 30
0.0
 40
0.2
 41
0.2
  0
VERTEX
  8
0
 10
91.5501
 20
184.641
 30
0.0
 40
0.2
 41
0.2
  0
VERTEX
  8
0
 10
91.5321
 20
184.641
 30
0.0
 40
0.2
 41
0.2
  0
VERTEX
  8
0
 10
91.4784
 20
184.671
 30
0.0
 40
0.2
 41
0.2
  0
VERTEX
  8
0
 10
91.4495
 20
184.725
 30
0.0
 40
0.2
 41
0.2
  0
VERTEX
  8
0
 10
91.4495
 20
184.741
 30
0.0
 40
0.2
 41
0.2
  0
SEQEND
 8
0
  0
POLYLINE
  8
0
 62
     0
 66
     1
 10
0
 20
0
 30
0.0
 40
0.566929
 41
0.566929
  0
VERTEX
  8
0
 10
91.4495
 20
184.741
 30
0.0
 40
0.2
 41
0.2
  0
VERTEX
  8
0
 10
91.4495
 20
178.741
 30
0.0
 40
0.2
 41
0.2
  0
SEQEND
 8
0
  0
POLYLINE
  8
0
 62
     0
 66
     1
 10
0
 20
0
 30
0.0
 40
0.566929
 41
0.566929
  0
VERTEX
  8
0
 10
91.4495
 20
178.741
 30
0.0
 40
0.2
 41
0.2
  0
VERTEX
  8
0
 10
91.4495
 20
178.759
 30
0.0
 40
0.2
 41
0.2
  0
VERTEX
  8
0
 10
91.4784
 20
178.813
 30
0.0
 40
0.2
 41
0.2
  0
VERTEX
  8
0
 10
91.5321
 20
178.842
 30
0.0
 40
0.2
 41
0.2
  0
VERTEX
  8
0
 10
91.5501
 20
178.842
 30
0.0
 40
0.2
 41
0.2
  0
SEQEND
 8
0
  0
POLYLINE
  8
0
 62
     0
 66
     1
 10
0
 20
0
 30
0.0
 40
0.566929
 41
0.566929
  0
VERTEX
  8
0
 10
91.5501
 20
178.842
 30
0.0
 40
0.2
 41
0.2
  0
VERTEX
  8
0
 10
88.55
 20
178.842
 30
0.0
 40
0.2
 41
0.2
  0
VERTEX
  8
0
 10
88.5321
 20
178.842
 30
0.0
 40
0.2
 41
0.2
  0
VERTEX
  8
0
 10
88.4784
 20
178.813
 30
0.0
 40
0.2
 41
0.2
  0
VERTEX
  8
0
 10
88.4495
 20
178.759
 30
0.0
 40
0.2
 41
0.2
  0
VERTEX
  8
0
 10
88.4495
 20
178.741
 30
0.0
 40
0.2
 41
0.2
  0
SEQEND
 8
0
  0
POLYLINE
  8
0
 62
     0
 66
     1
 10
0
 20
0
 30
0.0
 40
0.566929
 41
0.566929
  0
VERTEX
  8
0
 10
88.4495
 20
178.741
 30
0.0
 40
0.2
 41
0.2
  0
VERTEX
  8
0
 10
88.4495
 20
163.741
 30
0.0
 40
0.2
 41
0.2
  0
VERTEX
  8
0
 10
88.4495
 20
163.725
 30
0.0
 40
0.2
 41
0.2
  0
VERTEX
  8
0
 10
88.4784
 20
163.671
 30
0.0
 40
0.2
 41
0.2
  0
VERTEX
  8
0
 10
88.5321
 20
163.641
 30
0.0
 40
0.2
 41
0.2
  0
VERTEX
  8
0
 10
88.55
 20
163.641
 30
0.0
 40
0.2
 41
0.2
  0
SEQEND
 8
0
  0
POLYLINE
  8
0
 62
     0
 66
     1
 10
0
 20
0
 30
0.0
 40
0.566929
 41
0.566929
  0
VERTEX
  8
0
 10
88.55
 20
163.641
 30
0.0
 40
0.2
 41
0.2
  0
VERTEX
  8
0
 10
91.5501
 20
163.641
 30
0.0
 40
0.2
 41
0.2
  0
VERTEX
  8
0
 10
91.5321
 20
163.641
 30
0.0
 40
0.2
 41
0.2
  0
VERTEX
  8
0
 10
91.4784
 20
163.671
 30
0.0
 40
0.2
 41
0.2
  0
VERTEX
  8
0
 10
91.4495
 20
163.725
 30
0.0
 40
0.2
 41
0.2
  0
VERTEX
  8
0
 10
91.4495
 20
163.741
 30
0.0
 40
0.2
 41
0.2
  0
SEQEND
 8
0
  0
POLYLINE
  8
0
 62
     0
 66
     1
 10
0
 20
0
 30
0.0
 40
0.566929
 41
0.566929
  0
VERTEX
  8
0
 10
91.4495
 20
163.741
 30
0.0
 40
0.2
 41
0.2
  0
VERTEX
  8
0
 10
91.4495
 20
157.741
 30
0.0
 40
0.2
 41
0.2
  0
SEQEND
 8
0
  0
POLYLINE
  8
0
 62
     0
 66
     1
 10
0
 20
0
 30
0.0
 40
0.566929
 41
0.566929
  0
VERTEX
  8
0
 10
91.4495
 20
157.741
 30
0.0
 40
0.2
 41
0.2
  0
VERTEX
  8
0
 10
91.4495
 20
157.759
 30
0.0
 40
0.2
 41
0.2
  0
VERTEX
  8
0
 10
91.4784
 20
157.813
 30
0.0
 40
0.2
 41
0.2
  0
VERTEX
  8
0
 10
91.5321
 20
157.842
 30
0.0
 40
0.2
 41
0.2
  0
VERTEX
  8
0
 10
91.5501
 20
157.842
 30
0.0
 40
0.2
 41
0.2
  0
SEQEND
 8
0
  0
POLYLINE
  8
0
 62
     0
 66
     1
 10
0
 20
0
 30
0.0
 40
0.566929
 41
0.566929
  0
VERTEX
  8
0
 10
91.5501
 20
157.842
 30
0.0
 40
0.2
 41
0.2
  0
VERTEX
  8
0
 10
88.55
 20
157.842
 30
0.0
 40
0.2
 41
0.2
  0
VERTEX
  8
0
 10
88.5321
 20
157.842
 30
0.0
 40
0.2
 41
0.2
  0
VERTEX
  8
0
 10
88.4784
 20
157.813
 30
0.0
 40
0.2
 41
0.2
  0
VERTEX
  8
0
 10
88.4495
 20
157.759
 30
0.0
 40
0.2
 41
0.2
  0
VERTEX
  8
0
 10
88.4495
 20
157.741
 30
0.0
 40
0.2
 41
0.2
  0
SEQEND
 8
0
  0
POLYLINE
  8
0
 62
     0
 66
     1
 10
0
 20
0
 30
0.0
 40
0.566929
 41
0.566929
  0
VERTEX
  8
0
 10
88.4495
 20
157.741
 30
0.0
 40
0.2
 41
0.2
  0
VERTEX
  8
0
 10
88.4495
 20
142.741
 30
0.0
 40
0.2
 41
0.2
  0
VERTEX
  8
0
 10
88.4495
 20
142.725
 30
0.0
 40
0.2
 41
0.2
  0
VERTEX
  8
0
 10
88.4784
 20
142.671
 30
0.0
 40
0.2
 41
0.2
  0
VERTEX
  8
0
 10
88.5321
 20
142.641
 30
0.0
 40
0.2
 41
0.2
  0
VERTEX
  8
0
 10
88.55
 20
142.641
 30
0.0
 40
0.2
 41
0.2
  0
SEQEND
 8
0
  0
POLYLINE
  8
0
 62
     0
 66
     1
 10
0
 20
0
 30
0.0
 40
0.566929
 41
0.566929
  0
VERTEX
  8
0
 10
88.55
 20
142.641
 30
0.0
 40
0.2
 41
0.2
  0
VERTEX
  8
0
 10
91.5501
 20
142.641
 30
0.0
 40
0.2
 41
0.2
  0
VERTEX
  8
0
 10
91.5321
 20
142.641
 30
0.0
 40
0.2
 41
0.2
  0
VERTEX
  8
0
 10
91.4784
 20
142.671
 30
0.0
 40
0.2
 41
0.2
  0
VERTEX
  8
0
 10
91.4495
 20
142.725
 30
0.0
 40
0.2
 41
0.2
  0
VERTEX
  8
0
 10
91.4495
 20
142.741
 30
0.0
 40
0.2
 41
0.2
  0
SEQEND
 8
0
  0
POLYLINE
  8
0
 62
     0
 66
     1
 10
0
 20
0
 30
0.0
 40
0.566929
 41
0.566929
  0
VERTEX
  8
0
 10
91.4495
 20
142.741
 30
0.0
 40
0.2
 41
0.2
  0
VERTEX
  8
0
 10
91.4495
 20
131.241
 30
0.0
 40
0.2
 41
0.2
  0
SEQEND
 8
0
  0
POLYLINE
  8
0
 62
     0
 66
     1
 10
0
 20
0
 30
0.0
 40
0.566929
 41
0.566929
  0
VERTEX
  8
0
 10
91.4495
 20
131.241
 30
0.0
 40
0.2
 41
0.2
  0
VERTEX
  8
0
 10
91.4495
 20
131.225
 30
0.0
 40
0.2
 41
0.2
  0
VERTEX
  8
0
 10
91.4784
 20
131.171
 30
0.0
 40
0.2
 41
0.2
  0
VERTEX
  8
0
 10
91.5321
 20
131.141
 30
0.0
 40
0.2
 41
0.2
  0
VERTEX
  8
0
 10
91.5501
 20
131.141
 30
0.0
 40
0.2
 41
0.2
  0
SEQEND
 8
0
  0
ENDSEC
  0
EOF
